<svg width="594" height="314" viewBox="0 0 594 314" fill="none" xmlns="http://www.w3.org/2000/svg">
<g filter="url(#filter0_d_3664_4332)">
<path fill-rule="evenodd" clip-rule="evenodd" d="M30 30V145.649H76.407C90.3317 145.543 100.828 142.657 107.895 136.991C115.014 131.272 118.574 122.747 118.574 111.415C118.574 105.167 116.977 99.8714 113.784 95.5293C110.591 91.1871 106.01 88.2218 100.042 86.6332C105.33 84.621 109.334 81.4967 112.056 77.2605C114.778 73.0243 116.14 67.9143 116.14 61.9306C116.14 51.5518 112.292 43.6354 104.597 38.1812C96.9538 32.7271 85.7774 30 71.0674 30H30ZM57.5615 124.203V96.4824H76.8781C86.3532 96.5354 91.0908 101.381 91.0908 111.018C91.0908 115.201 89.7559 118.458 87.0861 120.788C84.4163 123.065 80.5949 124.203 75.6218 124.203H57.5615ZM71.9312 78.2137H57.5615V51.5254H71.0674C77.2446 51.5254 81.7204 52.6109 84.4948 54.782C87.2693 56.9001 88.6565 60.395 88.6565 65.2667C88.6565 69.5029 87.374 72.7065 84.8089 74.8776C82.2439 77.0487 77.9513 78.1607 71.9312 78.2137ZM169.409 96.6413H212.754V75.9102H169.409V51.5254H220.763V30H141.848V145.649H220.606V124.203H169.409V96.6413ZM264.553 145.649H247.403H235.827L277.758 30H303.671L312.854 55.1395C311.088 56.0713 309.514 57.0332 308.13 58.0014C277.542 81.4352 266.333 124.738 264.553 143.461V145.649ZM284.534 145.649H316.313H331.887H342.533C340.903 135.768 336.139 116.62 329.778 117.297C325.799 117.721 322.929 119.196 319.808 120.801C316.645 122.428 313.225 124.187 308.13 125.118C307.476 125.237 306.814 125.352 306.148 125.468C296.552 127.141 286.056 128.97 284.534 145.649ZM363.163 101.503V145.649H390.724V104.823H405.644L425.824 145.649H455.349V144.458L431.478 97.8327C438.335 94.5496 443.361 90.2604 446.554 84.9652C449.8 79.6699 451.423 72.9978 451.423 64.9489C451.423 53.8288 447.601 45.224 439.958 39.1344C432.315 33.0448 421.715 30 408.156 30H363.163V46.6016C374.46 47.1865 387.351 49.0629 401.892 52.7401C405.875 50.3228 413.503 47.9908 412.154 58.0014C416.421 61.676 418.294 63.0019 422.299 65.8378L422.556 66.0195C423.044 66.365 423.659 66.6986 424.292 67.0421C427.307 68.6779 430.737 70.5383 422.837 74.9778C416.878 78.3267 412.339 78.5501 405.543 78.8846C401.437 79.0867 396.507 79.3294 389.943 80.326C387.426 80.8352 368.011 87.3842 363.163 101.503ZM57.5615 260.426H105.539V281.872H30V166.223H57.5615V260.426ZM202.147 256.375C206.283 247.691 208.35 237.71 208.35 226.431V221.109C208.298 209.989 206.152 200.139 201.912 191.561C197.724 182.93 191.834 176.284 184.244 171.624C176.653 166.964 168.016 164.635 158.331 164.635C148.542 164.635 139.8 166.991 132.105 171.704C124.462 176.417 118.573 183.115 114.437 191.799C110.354 200.431 108.312 210.412 108.312 221.744V228.257C108.522 239.166 110.72 248.83 114.908 257.249C119.149 265.669 125.038 272.155 132.576 276.709C140.114 281.21 148.752 283.461 158.488 283.461C168.225 283.461 176.889 281.131 184.48 276.471C192.122 271.758 198.012 265.06 202.147 256.375ZM174.586 195.453C178.407 201.384 180.318 210.095 180.318 221.585V226.907C180.265 238.133 178.355 246.738 174.586 252.722C170.817 258.705 165.451 261.697 158.488 261.697C151.16 261.697 145.637 258.652 141.92 252.563C138.203 246.473 136.345 237.763 136.345 226.431L136.424 217.932C137.209 196.962 144.511 186.478 158.331 186.478C165.398 186.478 170.817 189.469 174.586 195.453ZM312.946 267.575C308.706 272.341 302.502 276.18 294.336 279.092C286.17 282.005 277.218 283.461 267.481 283.461C252.51 283.461 240.548 278.828 231.596 269.561C222.645 260.294 217.855 247.4 217.227 230.879L217.148 220.871C217.148 209.486 219.137 199.557 223.116 191.085C227.094 182.559 232.774 176.019 240.155 171.465C247.589 166.859 256.174 164.555 265.911 164.555C280.15 164.555 291.195 167.865 299.047 174.484C306.952 181.05 311.559 190.873 312.867 203.952H286.327C285.384 197.492 283.343 192.885 280.202 190.131C277.061 187.378 272.611 186.001 266.853 186.001C259.943 186.001 254.604 188.966 250.834 194.897C247.065 200.828 245.155 209.3 245.102 220.315V227.304C245.102 238.848 247.039 247.532 250.913 253.357C254.839 259.129 260.99 262.015 269.366 262.015C276.538 262.015 281.877 260.4 285.384 257.17V239.219H266.225V220.076H312.946V267.575ZM330.849 281.872H358.332V166.223H330.849V281.872ZM465.971 242.714C465.605 250.762 463.459 257.885 459.532 264.08C455.606 270.223 450.083 274.988 442.964 278.377C435.897 281.766 427.809 283.461 418.701 283.461C403.676 283.461 391.846 278.51 383.208 268.608C374.571 258.705 370.252 244.726 370.252 226.669V220.95C370.252 209.618 372.189 199.716 376.063 191.243C379.989 182.718 385.616 176.152 392.945 171.545C400.274 166.885 408.754 164.555 418.386 164.555C432.259 164.555 443.409 168.262 451.837 175.675C460.265 183.036 465.055 193.203 466.207 206.176H438.724C438.514 199.133 436.761 194.076 433.463 191.005C430.165 187.934 425.139 186.398 418.386 186.398C411.529 186.398 406.503 188.993 403.31 194.182C400.117 199.372 398.442 207.659 398.285 219.044V227.225C398.285 239.563 399.803 248.38 402.839 253.675C405.927 258.97 411.215 261.618 418.701 261.618C425.035 261.618 429.877 260.109 433.227 257.09C436.578 254.072 438.357 249.28 438.567 242.714H465.971ZM531.246 241.602C534.125 243.879 535.564 247.056 535.564 251.133C535.564 254.734 534.23 257.54 531.56 259.553C528.942 261.512 525.357 262.492 520.802 262.492C513.683 262.492 508.526 261.035 505.333 258.123C502.192 255.158 500.622 250.577 500.622 244.382H472.982C472.982 252.007 474.866 258.758 478.635 264.636C482.457 270.461 488.111 275.068 495.596 278.457C503.135 281.793 511.536 283.461 520.802 283.461C533.942 283.461 544.281 280.575 551.819 274.803C559.357 269.031 563.126 261.088 563.126 250.974C563.126 238.319 556.949 228.39 544.595 221.188C539.517 218.223 533.026 215.469 525.121 212.928C517.216 210.333 511.694 207.844 508.553 205.461C505.412 203.025 503.841 200.325 503.841 197.359C503.841 193.97 505.255 191.19 508.082 189.019C510.961 186.795 514.861 185.683 519.781 185.683C524.65 185.683 528.497 186.981 531.324 189.575C534.203 192.17 535.643 195.824 535.643 200.537H563.126C563.126 193.494 561.32 187.245 557.708 181.791C554.096 176.284 549.018 172.048 542.474 169.083C535.983 166.117 528.628 164.635 520.41 164.635C511.981 164.635 504.391 166.011 497.638 168.765C490.885 171.465 485.65 175.278 481.933 180.203C478.269 185.074 476.437 190.714 476.437 197.121C476.437 209.989 483.844 220.103 498.659 227.463C503.213 229.74 509.076 232.097 516.248 234.532C523.42 236.968 528.419 239.325 531.246 241.602Z" fill="#20A85A"/>
</g>
<defs>
<filter id="filter0_d_3664_4332" x="0" y="0" width="593.126" height="313.461" filterUnits="userSpaceOnUse" color-interpolation-filters="sRGB">
<feFlood flood-opacity="0" result="BackgroundImageFix"/>
<feColorMatrix in="SourceAlpha" type="matrix" values="0 0 0 0 0 0 0 0 0 0 0 0 0 0 0 0 0 0 127 0" result="hardAlpha"/>
<feOffset/>
<feGaussianBlur stdDeviation="15"/>
<feComposite in2="hardAlpha" operator="out"/>
<feColorMatrix type="matrix" values="0 0 0 0 1 0 0 0 0 1 0 0 0 0 1 0 0 0 0.3 0"/>
<feBlend mode="normal" in2="BackgroundImageFix" result="effect1_dropShadow_3664_4332"/>
<feBlend mode="normal" in="SourceGraphic" in2="effect1_dropShadow_3664_4332" result="shape"/>
</filter>
</defs>
</svg>
