<svg width="0" height="0" class="hidden">
  <symbol xmlns="http://www.w3.org/2000/svg" viewBox="0 0 30 30" id="zoom">
    <path d="M18.7507 12.4998H15.0007V8.74976C15.0007 8.41824 14.869 8.1003 14.6346 7.86588C14.4002 7.63146 14.0823 7.49976 13.7507 7.49976C13.4192 7.49976 13.1013 7.63146 12.8669 7.86588C12.6324 8.1003 12.5007 8.41824 12.5007 8.74976V12.4998H8.75074C8.41921 12.4998 8.10127 12.6315 7.86685 12.8659C7.63243 13.1003 7.50074 13.4182 7.50074 13.7498C7.50074 14.0813 7.63243 14.3992 7.86685 14.6336C8.10127 14.8681 8.41921 14.9998 8.75074 14.9998H12.5007V18.7498C12.5007 19.0813 12.6324 19.3992 12.8669 19.6336C13.1013 19.8681 13.4192 19.9998 13.7507 19.9998C14.0823 19.9998 14.4002 19.8681 14.6346 19.6336C14.869 19.3992 15.0007 19.0813 15.0007 18.7498V14.9998H18.7507C19.0823 14.9998 19.4002 14.8681 19.6346 14.6336C19.869 14.3992 20.0007 14.0813 20.0007 13.7498C20.0007 13.4182 19.869 13.1003 19.6346 12.8659C19.4002 12.6315 19.0823 12.4998 18.7507 12.4998ZM27.1382 25.3623L22.5007 20.7623C24.3009 18.5178 25.1726 15.6689 24.9367 12.8014C24.7009 9.93389 23.3753 7.26574 21.2326 5.34556C19.0899 3.42539 16.293 2.39915 13.4169 2.47785C10.5408 2.55655 7.80414 3.73421 5.76966 5.76869C3.73519 7.80316 2.55752 10.5398 2.47882 13.4159C2.40012 16.292 3.42637 19.089 5.34654 21.2317C7.26671 23.3743 9.93486 24.6999 12.8024 24.9358C15.6699 25.1716 18.5187 24.2999 20.7632 22.4998L25.3632 27.0998C25.4794 27.2169 25.6177 27.3099 25.77 27.3734C25.9223 27.4368 26.0857 27.4695 26.2507 27.4695C26.4158 27.4695 26.5791 27.4368 26.7315 27.3734C26.8838 27.3099 27.022 27.2169 27.1382 27.0998C27.3635 26.8667 27.4895 26.5552 27.4895 26.231C27.4895 25.9068 27.3635 25.5953 27.1382 25.3623V25.3623ZM13.7507 22.4998C12.0201 22.4998 10.3284 21.9866 8.8895 21.0251C7.45057 20.0637 6.32906 18.6971 5.66679 17.0982C5.00452 15.4994 4.83124 13.7401 5.16886 12.0427C5.50648 10.3454 6.33984 8.78628 7.56355 7.56257C8.78726 6.33886 10.3464 5.50551 12.0437 5.16789C13.741 4.83027 15.5004 5.00355 17.0992 5.66581C18.6981 6.32808 20.0646 7.44959 21.0261 8.88852C21.9876 10.3274 22.5007 12.0192 22.5007 13.7498C22.5007 16.0704 21.5789 18.296 19.9379 19.9369C18.297 21.5779 16.0714 22.4998 13.7507 22.4998V22.4998Z"></path>
  </symbol>
  <symbol xmlns="http://www.w3.org/2000/svg" viewBox="0 0 30 30" id="arrow">
    <path d="M21.2506 11.4621C21.0164 11.2293 20.6996 11.0986 20.3694 11.0986C20.0391 11.0986 19.7223 11.2293 19.4881 11.4621L15.0006 15.8871L10.5756 11.4621C10.3414 11.2293 10.0246 11.0986 9.69436 11.0986C9.36412 11.0986 9.04731 11.2293 8.81311 11.4621C8.69595 11.5783 8.60295 11.7166 8.53949 11.8689C8.47603 12.0212 8.44336 12.1846 8.44336 12.3496C8.44336 12.5146 8.47603 12.678 8.53949 12.8303C8.60295 12.9827 8.69595 13.1209 8.81311 13.2371L14.1131 18.5371C14.2293 18.6543 14.3676 18.7473 14.5199 18.8107C14.6722 18.8742 14.8356 18.9069 15.0006 18.9069C15.1656 18.9069 15.329 18.8742 15.4813 18.8107C15.6337 18.7473 15.7719 18.6543 15.8881 18.5371L21.2506 13.2371C21.3678 13.1209 21.4608 12.9827 21.5242 12.8303C21.5877 12.678 21.6204 12.5146 21.6204 12.3496C21.6204 12.1846 21.5877 12.0212 21.5242 11.8689C21.4608 11.7166 21.3678 11.5783 21.2506 11.4621Z"></path>
  </symbol>
  <symbol xmlns="http://www.w3.org/2000/svg" viewBox="0 0 30 30" id="book">
    <g clip-path="url(#clip0_505_15846)">
      <path fill-rule="evenodd" clip-rule="evenodd" d="M13.9013 25.7687C13.5578 25.5568 13.2017 25.366 12.835 25.1975C11.9187 24.7738 10.6962 24.375 9.375 24.375C7.77625 24.375 6.3275 24.96 5.4 25.4525C5.10727 25.6058 4.78099 25.6838 4.45059 25.6794C4.12019 25.675 3.79607 25.5885 3.5075 25.4275C3.20443 25.2641 2.95094 25.0221 2.77366 24.7269C2.59638 24.4318 2.50185 24.0943 2.5 23.75V8.125C2.5 7.34875 2.86875 6.54625 3.6225 6.08875C4.59 5.50125 6.7675 4.375 9.375 4.375C11.3512 4.375 13.3062 5.0125 15 6.0125C16.6938 5.0125 18.6488 4.375 20.625 4.375C23.2325 4.375 25.41 5.5 26.3775 6.08875C27.1312 6.54625 27.5 7.34875 27.5 8.125V23.75C27.5 24.5413 27.0263 25.1325 26.4925 25.4275C26.2038 25.5887 25.8794 25.6754 25.5488 25.6797C25.2181 25.6841 24.8916 25.606 24.5988 25.4525C23.6725 24.96 22.2237 24.375 20.625 24.375C19.3037 24.375 18.0813 24.775 17.165 25.1975C16.7983 25.366 16.4422 25.5568 16.0987 25.7687C15.7437 25.99 15.4438 26.25 15.0013 26.25C14.5563 26.25 14.2575 25.99 13.9013 25.7687ZM5 22.8675V8.1775C5.84125 7.6775 7.5 6.875 9.375 6.875C10.9125 6.875 12.435 7.3975 13.75 8.1775V22.8675C12.6438 22.3725 11.1088 21.875 9.375 21.875C7.64875 21.875 6.11375 22.3688 5 22.8675ZM16.25 22.8675C17.3562 22.3725 18.8913 21.875 20.625 21.875C22.3512 21.875 23.8862 22.3688 25 22.8675V8.1775C24.1588 7.6775 22.5 6.875 20.625 6.875C19.0875 6.875 17.565 7.3975 16.25 8.1775V22.8675Z"></path>
    </g>
    <defs>
      <clipPath id="clip0_505_15846">
        <rect width="30" height="30" fill="white"></rect>
      </clipPath>
    </defs>
  </symbol>
  <symbol xmlns="http://www.w3.org/2000/svg" viewBox="0 0 30 30" id="calendar">
    <path d="M23.75 5H21.25V3.75C21.25 3.41848 21.1183 3.10054 20.8839 2.86612C20.6495 2.6317 20.3315 2.5 20 2.5C19.6685 2.5 19.3505 2.6317 19.1161 2.86612C18.8817 3.10054 18.75 3.41848 18.75 3.75V5H11.25V3.75C11.25 3.41848 11.1183 3.10054 10.8839 2.86612C10.6495 2.6317 10.3315 2.5 10 2.5C9.66848 2.5 9.35054 2.6317 9.11612 2.86612C8.8817 3.10054 8.75 3.41848 8.75 3.75V5H6.25C5.25544 5 4.30161 5.39509 3.59835 6.09835C2.89509 6.80161 2.5 7.75544 2.5 8.75V23.75C2.5 24.7446 2.89509 25.6984 3.59835 26.4017C4.30161 27.1049 5.25544 27.5 6.25 27.5H23.75C24.7446 27.5 25.6984 27.1049 26.4017 26.4017C27.1049 25.6984 27.5 24.7446 27.5 23.75V8.75C27.5 7.75544 27.1049 6.80161 26.4017 6.09835C25.6984 5.39509 24.7446 5 23.75 5ZM25 23.75C25 24.0815 24.8683 24.3995 24.6339 24.6339C24.3995 24.8683 24.0815 25 23.75 25H6.25C5.91848 25 5.60054 24.8683 5.36612 24.6339C5.1317 24.3995 5 24.0815 5 23.75V15H25V23.75ZM25 12.5H5V8.75C5 8.41848 5.1317 8.10054 5.36612 7.86612C5.60054 7.6317 5.91848 7.5 6.25 7.5H8.75V8.75C8.75 9.08152 8.8817 9.39946 9.11612 9.63388C9.35054 9.8683 9.66848 10 10 10C10.3315 10 10.6495 9.8683 10.8839 9.63388C11.1183 9.39946 11.25 9.08152 11.25 8.75V7.5H18.75V8.75C18.75 9.08152 18.8817 9.39946 19.1161 9.63388C19.3505 9.8683 19.6685 10 20 10C20.3315 10 20.6495 9.8683 20.8839 9.63388C21.1183 9.39946 21.25 9.08152 21.25 8.75V7.5H23.75C24.0815 7.5 24.3995 7.6317 24.6339 7.86612C24.8683 8.10054 25 8.41848 25 8.75V12.5Z"></path>
  </symbol>
  <symbol xmlns="http://www.w3.org/2000/svg" viewBox="0 0 30 30" id="chat">
    <path d="M10.0001 13.75C9.75285 13.75 9.51118 13.8233 9.30561 13.9607C9.10005 14.098 8.93984 14.2932 8.84523 14.5216C8.75062 14.7501 8.72586 15.0014 8.77409 15.2439C8.82233 15.4863 8.94138 15.7091 9.11619 15.8839C9.29101 16.0587 9.51374 16.1778 9.75621 16.226C9.99869 16.2742 10.25 16.2495 10.4784 16.1548C10.7068 16.0602 10.9021 15.9 11.0394 15.6945C11.1768 15.4889 11.2501 15.2472 11.2501 15C11.2501 14.6685 11.1184 14.3505 10.884 14.1161C10.6495 13.8817 10.3316 13.75 10.0001 13.75V13.75ZM15.0001 13.75C14.7529 13.75 14.5112 13.8233 14.3056 13.9607C14.1001 14.098 13.9398 14.2932 13.8452 14.5216C13.7506 14.7501 13.7259 15.0014 13.7741 15.2439C13.8223 15.4863 13.9414 15.7091 14.1162 15.8839C14.291 16.0587 14.5137 16.1778 14.7562 16.226C14.9987 16.2742 15.25 16.2495 15.4784 16.1548C15.7068 16.0602 15.9021 15.9 16.0394 15.6945C16.1768 15.4889 16.2501 15.2472 16.2501 15C16.2501 14.6685 16.1184 14.3505 15.884 14.1161C15.6495 13.8817 15.3316 13.75 15.0001 13.75ZM20.0001 13.75C19.7529 13.75 19.5112 13.8233 19.3056 13.9607C19.1001 14.098 18.9398 14.2932 18.8452 14.5216C18.7506 14.7501 18.7259 15.0014 18.7741 15.2439C18.8223 15.4863 18.9414 15.7091 19.1162 15.8839C19.291 16.0587 19.5137 16.1778 19.7562 16.226C19.9987 16.2742 20.25 16.2495 20.4784 16.1548C20.7068 16.0602 20.9021 15.9 21.0394 15.6945C21.1768 15.4889 21.2501 15.2472 21.2501 15C21.2501 14.6685 21.1184 14.3505 20.884 14.1161C20.6495 13.8817 20.3316 13.75 20.0001 13.75ZM15.0001 2.5C13.3586 2.5 11.7331 2.82332 10.2165 3.45151C8.69996 4.07969 7.32197 5.00043 6.16124 6.16117C3.81704 8.50537 2.50008 11.6848 2.50008 15C2.48915 17.8864 3.48857 20.6857 5.32508 22.9125L2.82508 25.4125C2.65163 25.5883 2.53413 25.8115 2.48742 26.054C2.4407 26.2965 2.46685 26.5474 2.56258 26.775C2.6664 26.9999 2.83471 27.1889 3.04614 27.318C3.25756 27.4471 3.50258 27.5104 3.75008 27.5H15.0001C18.3153 27.5 21.4947 26.183 23.8389 23.8388C26.1831 21.4946 27.5001 18.3152 27.5001 15C27.5001 11.6848 26.1831 8.50537 23.8389 6.16117C21.4947 3.81696 18.3153 2.5 15.0001 2.5V2.5ZM15.0001 25H6.76258L7.92508 23.8375C8.15789 23.6033 8.28857 23.2865 8.28857 22.9562C8.28857 22.626 8.15789 22.3092 7.92508 22.075C6.28831 20.4401 5.26904 18.2882 5.04094 15.986C4.81284 13.6838 5.39 11.3738 6.67411 9.4494C7.95822 7.52505 9.86982 6.10545 12.0832 5.43247C14.2966 4.75948 16.6749 4.87476 18.8128 5.75864C20.9508 6.64253 22.7161 8.24034 23.8081 10.2799C24.9001 12.3194 25.2512 14.6744 24.8015 16.9438C24.3518 19.2131 23.1292 21.2563 21.342 22.7253C19.5548 24.1943 17.3135 24.9982 15.0001 25V25Z"></path>
  </symbol>
  <symbol xmlns="http://www.w3.org/2000/svg" viewBox="0 0 30 30" id="check">
    <path d="M12.5 17L19.875 9.625C20.1042 9.39583 20.3958 9.28125 20.75 9.28125C21.1042 9.28125 21.3958 9.39583 21.625 9.625C21.8542 9.85417 21.9687 10.1458 21.9687 10.5C21.9687 10.8542 21.8542 11.1458 21.625 11.375L13.375 19.625C13.125 19.875 12.8333 20 12.5 20C12.1667 20 11.875 19.875 11.625 19.625L8.375 16.375C8.14583 16.1458 8.03125 15.8542 8.03125 15.5C8.03125 15.1458 8.14583 14.8542 8.375 14.625C8.60417 14.3958 8.89583 14.2812 9.25 14.2812C9.60417 14.2812 9.89583 14.3958 10.125 14.625L12.5 17Z"></path>
  </symbol>
  <symbol xmlns="http://www.w3.org/2000/svg" viewBox="0 0 30 30" id="clock">
    <path d="M15 2.5C11.7955 2.50914 8.71686 3.74864 6.4 5.9625V3.75C6.4 3.41848 6.2683 3.10054 6.03388 2.86612C5.79946 2.6317 5.48152 2.5 5.15 2.5C4.81848 2.5 4.50054 2.6317 4.26612 2.86612C4.0317 3.10054 3.9 3.41848 3.9 3.75V9.375C3.9 9.70652 4.0317 10.0245 4.26612 10.2589C4.50054 10.4933 4.81848 10.625 5.15 10.625H10.775C11.1065 10.625 11.4245 10.4933 11.6589 10.2589C11.8933 10.0245 12.025 9.70652 12.025 9.375C12.025 9.04348 11.8933 8.72554 11.6589 8.49112C11.4245 8.2567 11.1065 8.125 10.775 8.125H7.775C9.38222 6.44545 11.5244 5.37832 13.8332 5.10709C16.142 4.83586 18.4731 5.37747 20.4258 6.63881C22.3785 7.90014 23.8308 9.80239 24.5329 12.0185C25.235 14.2346 25.1431 16.6261 24.273 18.7817C23.4029 20.9374 21.8089 22.7226 19.7652 23.8304C17.7214 24.9382 15.3556 25.2993 13.0744 24.8517C10.7933 24.4041 8.73933 23.1757 7.26574 21.3777C5.79215 19.5798 4.99098 17.3246 5 15C5 14.6685 4.8683 14.3505 4.63388 14.1161C4.39946 13.8817 4.08152 13.75 3.75 13.75C3.41848 13.75 3.10054 13.8817 2.86612 14.1161C2.6317 14.3505 2.5 14.6685 2.5 15C2.5 17.4723 3.23311 19.889 4.60663 21.9446C5.98015 24.0002 7.93238 25.6024 10.2165 26.5485C12.5005 27.4946 15.0139 27.7421 17.4386 27.2598C19.8634 26.7775 22.0907 25.587 23.8388 23.8388C25.587 22.0907 26.7775 19.8634 27.2598 17.4386C27.7421 15.0139 27.4946 12.5005 26.5485 10.2165C25.6024 7.93238 24.0002 5.98015 21.9446 4.60663C19.889 3.23311 17.4723 2.5 15 2.5ZM15 10C14.6685 10 14.3505 10.1317 14.1161 10.3661C13.8817 10.6005 13.75 10.9185 13.75 11.25V15C13.75 15.3315 13.8817 15.6495 14.1161 15.8839C14.3505 16.1183 14.6685 16.25 15 16.25H17.5C17.8315 16.25 18.1495 16.1183 18.3839 15.8839C18.6183 15.6495 18.75 15.3315 18.75 15C18.75 14.6685 18.6183 14.3505 18.3839 14.1161C18.1495 13.8817 17.8315 13.75 17.5 13.75H16.25V11.25C16.25 10.9185 16.1183 10.6005 15.8839 10.3661C15.6495 10.1317 15.3315 10 15 10Z"></path>
  </symbol>
  <symbol xmlns="http://www.w3.org/2000/svg" viewBox="0 0 60 60" id="close">
    <path d="M33.5258 30.0005L49.2758 14.2755C49.7466 13.8047 50.0111 13.1662 50.0111 12.5005C50.0111 11.8347 49.7466 11.1962 49.2758 10.7255C48.8051 10.2547 48.1666 9.99023 47.5008 9.99023C46.8351 9.99023 46.1966 10.2547 45.7258 10.7255L30.0008 26.4755L14.2758 10.7255C13.8051 10.2547 13.1666 9.99023 12.5008 9.99023C11.8351 9.99023 11.1966 10.2547 10.7258 10.7255C10.2551 11.1962 9.9906 11.8347 9.9906 12.5005C9.9906 13.1662 10.2551 13.8047 10.7258 14.2755L26.4758 30.0005L10.7258 45.7255C10.4915 45.9579 10.3055 46.2344 10.1786 46.539C10.0517 46.8437 9.98633 47.1704 9.98633 47.5005C9.98633 47.8305 10.0517 48.1573 10.1786 48.4619C10.3055 48.7666 10.4915 49.0431 10.7258 49.2755C10.9582 49.5098 11.2347 49.6958 11.5394 49.8227C11.844 49.9496 12.1708 50.015 12.5008 50.015C12.8309 50.015 13.1576 49.9496 13.4623 49.8227C13.7669 49.6958 14.0434 49.5098 14.2758 49.2755L30.0008 33.5255L45.7258 49.2755C45.9582 49.5098 46.2347 49.6958 46.5394 49.8227C46.844 49.9496 47.1708 50.015 47.5008 50.015C47.8309 50.015 48.1576 49.9496 48.4623 49.8227C48.7669 49.6958 49.0434 49.5098 49.2758 49.2755C49.5101 49.0431 49.6961 48.7666 49.8231 48.4619C49.95 48.1573 50.0153 47.8305 50.0153 47.5005C50.0153 47.1704 49.95 46.8437 49.8231 46.539C49.6961 46.2344 49.5101 45.9579 49.2758 45.7255L33.5258 30.0005Z" fill="white"></path>
  </symbol>
  <symbol xmlns="http://www.w3.org/2000/svg" viewBox="0 0 30 30" id="expand">
    <path fill-rule="evenodd" clip-rule="evenodd" d="M26.5607 16.9393C27.1464 17.5251 27.1464 18.4749 26.5607 19.0607L19.0607 26.5607C18.4749 27.1464 17.5251 27.1464 16.9393 26.5607C16.3536 25.9749 16.3536 25.0251 16.9393 24.4393L24.4393 16.9393C25.0251 16.3536 25.9749 16.3536 26.5607 16.9393Z"></path>
    <path fill-rule="evenodd" clip-rule="evenodd" d="M25.0607 9.43934C25.6464 10.0251 25.6464 10.9749 25.0607 11.5607L11.5607 25.0607C10.9749 25.6464 10.0251 25.6464 9.43934 25.0607C8.85355 24.4749 8.85355 23.5251 9.43934 22.9393L22.9393 9.43934C23.5251 8.85355 24.4749 8.85355 25.0607 9.43934Z"></path>
  </symbol>
  <symbol xmlns="http://www.w3.org/2000/svg" viewBox="0 0 30 30" id="icq">
    <path d="M26.9915 16.2024L26.8288 15.9309C26.5395 15.4965 26.2141 15.1164 25.8525 14.7905C25.744 14.7181 25.5541 14.6186 25.2829 14.4919C25.0117 14.3652 24.8038 14.2656 24.6592 14.1932C25.744 13.6864 26.4853 12.9442 26.883 11.9668C26.9915 11.6772 26.9825 11.2971 26.8559 10.8264C26.7293 10.3558 26.6661 10.0662 26.6661 9.95759V9.84899C26.6661 9.26976 26.0333 8.79913 24.7677 8.43711C24.4422 8.40091 23.8998 8.38281 23.1405 8.38281L21.9472 8.65432L22.3268 7.73118C22.7246 6.64512 22.6161 5.57716 22.0014 4.52731L21.8929 4.3101C21.3505 3.47745 20.5369 2.91632 19.4521 2.62671C18.3673 2.37329 17.3548 2.5 16.4147 3.00683C15.1129 3.69466 14.462 4.4911 14.462 5.39615V5.45046L14.2993 5.72197L14.1366 5.45046L13.7569 4.85312C13.2145 4.02048 12.4732 3.45935 11.5331 3.16974C10.7737 2.98873 10.0686 3.07923 9.4177 3.44125C8.6945 3.87567 8.2425 4.58161 8.0617 5.55906C7.8809 6.60892 8.0617 7.60447 8.6041 8.54572L8.82106 8.92584L8.00746 8.65432C6.95882 8.40091 5.92825 8.54572 4.91577 9.08875C3.90329 9.55937 3.19817 10.3196 2.80041 11.3695C2.36649 12.3107 2.40265 13.252 2.90889 14.1932C3.08969 14.519 3.36089 14.8267 3.72249 15.1164C4.19257 15.5146 4.73497 15.768 5.34969 15.8766L5.62089 15.9309L5.07849 16.4196C4.60841 16.7817 4.28297 17.2704 4.10217 17.8858C3.92137 18.5736 4.01177 19.1891 4.37337 19.7321C4.55417 20.0579 4.77113 20.2932 5.02425 20.438C5.27737 20.6915 5.62089 20.8544 6.05481 20.9268C6.92266 21.1078 7.77242 21.0716 8.6041 20.8182L7.95322 21.8499L7.7905 22.3386C7.4289 23.4247 7.5193 24.4746 8.0617 25.4882C8.13402 25.5968 8.40522 25.9407 8.8753 26.52C9.30922 26.9182 9.85162 27.1897 10.5025 27.3345C11.7319 27.6241 12.7987 27.5336 13.7027 27.063C14.6428 26.52 15.2937 25.7054 15.6553 24.6194L15.7096 24.4022C16.3966 25.1986 17.0836 25.6692 17.7707 25.814C18.4939 26.0312 19.1809 25.9588 19.8318 25.5968C20.4465 25.1986 20.8624 24.6194 21.0793 23.8591C21.224 23.0989 21.224 22.3024 21.0793 21.4698C21.5132 21.7232 21.8929 21.8861 22.2184 21.9585C23.3393 22.3205 24.4061 22.2481 25.4185 21.7413C26.3587 21.2345 26.9915 20.4199 27.3169 19.2977C27.6424 18.2478 27.5339 17.2161 26.9915 16.2024ZM21.7844 10.3377L22.2184 10.1748C22.7969 9.88519 23.4297 9.77658 24.1168 9.84899C24.7677 9.95759 25.2016 10.2291 25.4185 10.6635L25.527 11.098L25.4728 11.4781C25.2197 12.0573 24.6592 12.5641 23.7913 12.9986C23.5382 13.1072 23.1405 13.1977 22.598 13.2701L18.2046 13.8131L18.0961 13.5959L18.0419 13.4873L18.2046 13.2701L21.7844 10.3377ZM15.7096 5.88488C15.8542 5.19704 16.2881 4.67211 17.0113 4.3101C17.6984 3.91187 18.3854 3.85757 19.0724 4.14719C19.8318 4.3282 20.3742 4.70832 20.6996 5.28755C20.8804 5.72197 20.9708 6.13829 20.9708 6.53651L20.8624 7.29675C20.79 7.62257 20.6092 7.98459 20.32 8.38281L17.1198 12.2383C16.9028 12.0573 16.5412 11.8582 16.035 11.641L15.7096 7.67687L15.6553 6.265L15.7096 5.88488ZM9.58042 5.99348C9.58042 5.41425 9.81546 4.97983 10.2855 4.69022C10.5025 4.50921 10.7737 4.4911 11.0991 4.63591C11.7862 4.85312 12.3286 5.35995 12.7263 6.15639C13.0156 6.80803 13.1603 7.18815 13.1603 7.29675L13.8654 11.4781L13.323 11.641L10.1228 8.2199L9.9601 7.83978C9.63466 7.11574 9.5081 6.50031 9.58042 5.99348ZM4.26489 13.4873C4.01177 12.9442 3.99369 12.4193 4.21065 11.9125C4.49993 11.1523 4.97001 10.6454 5.62089 10.392C6.30793 10.0662 6.9769 9.97569 7.62778 10.1205L8.6041 10.5006L11.75 12.7813C11.4607 13.1072 11.2619 13.4511 11.1534 13.8131L6.00057 14.4647L5.67513 14.4104C5.09657 14.3018 4.62649 13.9941 4.26489 13.4873ZM14.462 23.8591L14.2993 24.2392C14.0824 24.8909 13.6304 25.3615 12.9433 25.6511C12.3286 26.0131 11.6596 26.1036 10.9364 25.9226C10.2132 25.7416 9.70698 25.3615 9.4177 24.7823C9.20074 24.3841 9.09226 23.9858 9.09226 23.5876L9.25498 22.7731C9.3273 22.411 9.5081 22.0671 9.79738 21.7413L12.7806 18.2116C13.1783 18.4288 13.5761 18.5736 13.9739 18.646C14.01 18.8995 14.1004 19.4696 14.2451 20.3566C14.3897 21.2435 14.462 21.9404 14.462 22.4473V23.8591ZM13.106 16.7998C12.5998 16.4015 12.3467 15.8585 12.3467 15.1707C12.3467 14.5552 12.5998 13.9941 13.106 13.4873C13.5038 13.0891 14.0643 12.8899 14.7875 12.8899C15.4745 12.8899 16.0169 13.0891 16.4147 13.4873C16.8848 13.9579 17.1198 14.519 17.1198 15.1707C17.1198 15.8947 16.8848 16.4377 16.4147 16.7998C15.9808 17.2704 15.4384 17.5057 14.7875 17.5057C14.0281 17.5057 13.4676 17.2704 13.106 16.7998ZM19.7233 22.9903C19.651 23.6419 19.416 24.0763 19.0182 24.2935C18.8012 24.4384 18.53 24.4746 18.2046 24.4022C17.5176 24.2573 16.9752 23.7505 16.5774 22.8817L16.1435 21.687L15.6011 18.646L16.1977 18.4288L16.6859 18.1573L18.2046 19.6778L19.1267 20.8182L19.2894 21.144C19.6148 21.7594 19.7595 22.3748 19.7233 22.9903ZM25.9067 18.8633C25.7259 19.5873 25.3101 20.0941 24.6592 20.3837C24.0445 20.7458 23.3755 20.8001 22.6523 20.5466C22.2545 20.438 21.9291 20.257 21.676 20.0036L17.9334 16.9084L18.2046 16.4196L18.3131 15.9852L22.3268 15.6051H24.1168C24.8038 15.8947 25.2558 16.2386 25.4728 16.6368C25.8344 16.9989 26.0152 17.5057 26.0152 18.1573L25.9067 18.8633Z"></path>
  </symbol>
  <symbol xmlns="http://www.w3.org/2000/svg" viewBox="0 0 30 30" id="key">
    <g clip-path="url(#clip0_505_15847)">
      <path d="M27.5013 16.7806L28.532 16.7879C28.8073 16.7879 29.0713 16.6785 29.2659 16.4839C29.4606 16.2892 29.57 16.0252 29.57 15.7499C29.57 15.4746 29.4606 15.2106 29.2659 15.0159C29.0713 14.8213 28.8073 14.7119 28.532 14.7119L26.478 14.7192L22.3407 14.7192L13.1232 14.7119C12.866 13.4575 12.1524 12.3432 11.1206 11.5849C10.0887 10.8266 8.8121 10.4783 7.53812 10.6076C6.26415 10.7368 5.08349 11.3343 4.22494 12.2844C3.36638 13.2345 2.89105 14.4694 2.89105 15.7499C2.89105 17.0304 3.36638 18.2654 4.22494 19.2154C5.08349 20.1655 6.26415 20.763 7.53812 20.8922C8.8121 21.0215 10.0887 20.6732 11.1206 19.9149C12.1524 19.1566 12.866 18.0423 13.1232 16.7879L21.3027 16.7806L21.2954 19.8872C21.2959 20.023 21.3231 20.1574 21.3755 20.2827C21.428 20.408 21.5046 20.5218 21.6009 20.6175C21.6973 20.7132 21.8116 20.789 21.9373 20.8405C22.063 20.892 22.1976 20.9183 22.3334 20.9178C22.4692 20.9174 22.6036 20.8901 22.7289 20.8377C22.8542 20.7853 22.968 20.7087 23.0637 20.6123C23.1594 20.5159 23.2352 20.4016 23.2867 20.276C23.3383 20.1503 23.3645 20.0157 23.3641 19.8799L23.3641 16.7806L25.4327 16.7879L25.4327 17.8112C25.4322 17.9471 25.4585 18.0817 25.51 18.2073C25.5616 18.333 25.6373 18.4473 25.733 18.5437C25.8288 18.6401 25.9425 18.7167 26.0678 18.7691C26.1931 18.8215 26.3275 18.8487 26.4634 18.8492C26.5992 18.8497 26.7338 18.8234 26.8594 18.7719C26.9851 18.7203 27.0994 18.6446 27.1958 18.5488C27.2922 18.4531 27.3688 18.3394 27.4212 18.2141C27.4736 18.0888 27.5008 17.9544 27.5013 17.8185L27.5013 16.7806ZM5.872 17.9428C5.43829 17.5091 5.14292 16.9565 5.02326 16.3549C4.9036 15.7533 4.96502 15.1298 5.19974 14.5631C5.43447 13.9964 5.83196 13.5121 6.34195 13.1713C6.85195 12.8306 7.45154 12.6487 8.0649 12.6487C8.67827 12.6487 9.27786 12.8306 9.78786 13.1713C10.2979 13.5121 10.6953 13.9964 10.9301 14.5631C11.1648 15.1298 11.2262 15.7533 11.1065 16.3549C10.9869 16.9565 10.6915 17.5091 10.2578 17.9428C9.67621 18.5244 8.8874 18.8511 8.06491 18.8511C7.24241 18.8511 6.4536 18.5244 5.872 17.9428Z"></path>
    </g>
    <defs>
      <clipPath id="clip0_505_15847">
        <rect width="30" height="30" fill="white"></rect>
      </clipPath>
    </defs>
  </symbol>
  <symbol xmlns="http://www.w3.org/2000/svg" viewBox="0 0 30 30" id="location">
    <path d="M15 2.5C12.3478 2.5 9.8043 3.55357 7.92893 5.42893C6.05357 7.3043 5 9.84784 5 12.5C5 19.25 13.8125 26.875 14.1875 27.2C14.4139 27.3937 14.7021 27.5001 15 27.5001C15.2979 27.5001 15.5861 27.3937 15.8125 27.2C16.25 26.875 25 19.25 25 12.5C25 9.84784 23.9464 7.3043 22.0711 5.42893C20.1957 3.55357 17.6522 2.5 15 2.5V2.5ZM15 24.5625C12.3375 22.0625 7.5 16.675 7.5 12.5C7.5 10.5109 8.29018 8.60322 9.6967 7.1967C11.1032 5.79018 13.0109 5 15 5C16.9891 5 18.8968 5.79018 20.3033 7.1967C21.7098 8.60322 22.5 10.5109 22.5 12.5C22.5 16.675 17.6625 22.075 15 24.5625ZM15 7.5C14.0111 7.5 13.0444 7.79324 12.2221 8.34265C11.3999 8.89206 10.759 9.67295 10.3806 10.5866C10.0022 11.5002 9.90315 12.5055 10.0961 13.4755C10.289 14.4454 10.7652 15.3363 11.4645 16.0355C12.1637 16.7348 13.0546 17.211 14.0245 17.4039C14.9945 17.5969 15.9998 17.4978 16.9134 17.1194C17.827 16.741 18.6079 16.1001 19.1573 15.2779C19.7068 14.4556 20 13.4889 20 12.5C20 11.1739 19.4732 9.90215 18.5355 8.96447C17.5979 8.02678 16.3261 7.5 15 7.5ZM15 15C14.5055 15 14.0222 14.8534 13.6111 14.5787C13.2 14.304 12.8795 13.9135 12.6903 13.4567C12.5011 12.9999 12.4516 12.4972 12.548 12.0123C12.6445 11.5273 12.8826 11.0819 13.2322 10.7322C13.5819 10.3826 14.0273 10.1445 14.5123 10.048C14.9972 9.95157 15.4999 10.0011 15.9567 10.1903C16.4135 10.3795 16.804 10.7 17.0787 11.1111C17.3534 11.5222 17.5 12.0055 17.5 12.5C17.5 13.163 17.2366 13.7989 16.7678 14.2678C16.2989 14.7366 15.663 15 15 15Z"></path>
  </symbol>
  <symbol xmlns="http://www.w3.org/2000/svg" viewBox="0 0 30 30" id="mail">
    <path d="M23.75 5H6.25C5.25544 5 4.30161 5.39509 3.59835 6.09835C2.89509 6.80161 2.5 7.75544 2.5 8.75V21.25C2.5 22.2446 2.89509 23.1984 3.59835 23.9017C4.30161 24.6049 5.25544 25 6.25 25H23.75C24.7446 25 25.6984 24.6049 26.4017 23.9017C27.1049 23.1984 27.5 22.2446 27.5 21.25V8.75C27.5 7.75544 27.1049 6.80161 26.4017 6.09835C25.6984 5.39509 24.7446 5 23.75 5ZM23.2375 7.5L15.8875 14.85C15.7713 14.9672 15.633 15.0602 15.4807 15.1236C15.3284 15.1871 15.165 15.2197 15 15.2197C14.835 15.2197 14.6716 15.1871 14.5193 15.1236C14.367 15.0602 14.2287 14.9672 14.1125 14.85L6.7625 7.5H23.2375ZM25 21.25C25 21.5815 24.8683 21.8995 24.6339 22.1339C24.3995 22.3683 24.0815 22.5 23.75 22.5H6.25C5.91848 22.5 5.60054 22.3683 5.36612 22.1339C5.1317 21.8995 5 21.5815 5 21.25V9.2625L12.35 16.6125C13.0531 17.3148 14.0062 17.7092 15 17.7092C15.9938 17.7092 16.9469 17.3148 17.65 16.6125L25 9.2625V21.25Z"></path>
  </symbol>
  <symbol xmlns="http://www.w3.org/2000/svg" viewBox="0 0 30 30" id="ok">
    <path d="M22.2866 15.925C21.9366 15.2125 20.9491 14.6125 19.6366 15.625C17.8491 17.05 14.9991 17.05 14.9991 17.05C14.9991 17.05 12.1491 17.05 10.3616 15.625C9.04909 14.6125 8.06159 15.2125 7.71159 15.925C7.08659 17.175 7.78659 17.7875 9.37409 18.8C10.7366 19.675 12.5991 20 13.7991 20.125L12.7991 21.125C11.3741 22.5375 9.99909 23.9 9.06159 24.85C8.49909 25.425 8.49909 26.3375 9.06159 26.875L9.23659 27.075C9.79909 27.6375 10.7241 27.6375 11.2866 27.075L14.9991 23.35C16.4366 24.7625 17.7991 26.125 18.7491 27.075C19.3116 27.6375 20.2241 27.6375 20.7991 27.075L20.9616 26.875C21.5366 26.3375 21.5366 25.425 20.9616 24.85L17.2366 21.125L16.2491 20.1125C17.4366 20 19.2741 19.6625 20.6241 18.8C22.2116 17.7875 22.9116 17.175 22.2866 15.925ZM14.9991 5.7125C16.7241 5.7125 18.1241 7.1125 18.1241 8.825C18.1241 10.55 16.7241 11.9375 14.9991 11.9375C13.2741 11.9375 11.8741 10.55 11.8741 8.825C11.8741 7.1125 13.2741 5.7125 14.9991 5.7125ZM14.9991 15.15C18.4991 15.15 21.3241 12.325 21.3241 8.825C21.3241 7.14751 20.6577 5.53872 19.4715 4.35255C18.2854 3.16638 16.6766 2.5 14.9991 2.5C13.3216 2.5 11.7128 3.16638 10.5266 4.35255C9.34047 5.53872 8.67409 7.14751 8.67409 8.825C8.67409 12.325 11.4991 15.15 14.9991 15.15Z"></path>
  </symbol>
  <symbol xmlns="http://www.w3.org/2000/svg" viewBox="0 0 30 30" id="purse">
    <path d="M23.75 8.75H22.5V7.5C22.5 6.50544 22.1049 5.55161 21.4017 4.84835C20.6984 4.14509 19.7446 3.75 18.75 3.75H6.25C5.25544 3.75 4.30161 4.14509 3.59835 4.84835C2.89509 5.55161 2.5 6.50544 2.5 7.5V22.5C2.5 23.4946 2.89509 24.4484 3.59835 25.1517C4.30161 25.8549 5.25544 26.25 6.25 26.25H23.75C24.7446 26.25 25.6984 25.8549 26.4017 25.1517C27.1049 24.4484 27.5 23.4946 27.5 22.5V12.5C27.5 11.5054 27.1049 10.5516 26.4017 9.84835C25.6984 9.14509 24.7446 8.75 23.75 8.75ZM6.25 6.25H18.75C19.0815 6.25 19.3995 6.3817 19.6339 6.61612C19.8683 6.85054 20 7.16848 20 7.5V8.75H6.25C5.91848 8.75 5.60054 8.6183 5.36612 8.38388C5.1317 8.14946 5 7.83152 5 7.5C5 7.16848 5.1317 6.85054 5.36612 6.61612C5.60054 6.3817 5.91848 6.25 6.25 6.25ZM25 18.75H23.75C23.4185 18.75 23.1005 18.6183 22.8661 18.3839C22.6317 18.1495 22.5 17.8315 22.5 17.5C22.5 17.1685 22.6317 16.8505 22.8661 16.6161C23.1005 16.3817 23.4185 16.25 23.75 16.25H25V18.75ZM25 13.75H23.75C22.7554 13.75 21.8016 14.1451 21.0983 14.8483C20.3951 15.5516 20 16.5054 20 17.5C20 18.4946 20.3951 19.4484 21.0983 20.1517C21.8016 20.8549 22.7554 21.25 23.75 21.25H25V22.5C25 22.8315 24.8683 23.1495 24.6339 23.3839C24.3995 23.6183 24.0815 23.75 23.75 23.75H6.25C5.91848 23.75 5.60054 23.6183 5.36612 23.3839C5.1317 23.1495 5 22.8315 5 22.5V11.0375C5.40158 11.1788 5.82429 11.2506 6.25 11.25H23.75C24.0815 11.25 24.3995 11.3817 24.6339 11.6161C24.8683 11.8505 25 12.1685 25 12.5V13.75Z"></path>
  </symbol>
  <symbol xmlns="http://www.w3.org/2000/svg" viewBox="0 0 30 30" id="search">
    <path d="M27.1382 25.3623L22.5007 20.7623C24.3009 18.5178 25.1726 15.6689 24.9367 12.8014C24.7009 9.93389 23.3753 7.26574 21.2326 5.34556C19.0899 3.42539 16.293 2.39915 13.4169 2.47785C10.5408 2.55655 7.80414 3.73421 5.76966 5.76869C3.73519 7.80316 2.55752 10.5398 2.47882 13.4159C2.40012 16.292 3.42637 19.089 5.34654 21.2317C7.26671 23.3743 9.93486 24.6999 12.8024 24.9358C15.6699 25.1716 18.5187 24.2999 20.7632 22.4998L25.3632 27.0998C25.4794 27.2169 25.6177 27.3099 25.77 27.3734C25.9223 27.4368 26.0857 27.4695 26.2507 27.4695C26.4158 27.4695 26.5791 27.4368 26.7315 27.3734C26.8838 27.3099 27.022 27.2169 27.1382 27.0998C27.3635 26.8667 27.4895 26.5552 27.4895 26.231C27.4895 25.9068 27.3635 25.5953 27.1382 25.3623ZM13.7507 22.4998C12.0201 22.4998 10.3284 21.9866 8.8895 21.0251C7.45057 20.0637 6.32906 18.6971 5.66679 17.0982C5.00452 15.4994 4.83124 13.7401 5.16886 12.0427C5.50648 10.3454 6.33984 8.78628 7.56355 7.56257C8.78726 6.33886 10.3464 5.50551 12.0437 5.16789C13.741 4.83027 15.5004 5.00355 17.0992 5.66581C18.6981 6.32808 20.0646 7.44959 21.0261 8.88852C21.9876 10.3274 22.5007 12.0192 22.5007 13.7498C22.5007 16.0704 21.5789 18.296 19.9379 19.9369C18.297 21.5779 16.0714 22.4998 13.7507 22.4998Z" fill: "#7F8A8D"></path>
  </symbol>
  <symbol xmlns="http://www.w3.org/2000/svg" viewBox="0 0 30 30" id="skype">
    <path d="M25.3159 16.3723C25.3877 15.872 25.4237 15.3672 25.4237 14.8619C25.4237 9.10988 20.7081 4.4272 14.9057 4.4272C14.4207 4.4272 13.9267 4.46284 13.4461 4.5252C12.494 4.01732 11.4162 3.75 10.3293 3.75C6.70059 3.75 3.75 6.6772 3.75 10.2728C3.75 11.3332 4.01046 12.3802 4.50897 13.3114C4.43263 13.8238 4.39221 14.345 4.39221 14.8619C4.39221 20.6139 9.10775 25.2966 14.9102 25.2966C15.3189 25.2966 15.732 25.2743 16.1362 25.2253C17.1916 25.8936 18.4132 26.25 19.6752 26.25C23.3039 26.25 26.25 23.3228 26.25 19.7272C26.25 18.5421 25.9266 17.3837 25.3159 16.3723H25.3159ZM23.259 23.2827C22.3024 24.2317 21.027 24.7574 19.6707 24.7574C18.6692 24.7574 17.7036 24.4678 16.8728 23.9198L16.5 23.6748L16.0554 23.7327C15.6782 23.7817 15.2919 23.804 14.9102 23.804C13.6931 23.804 12.512 23.5678 11.4027 23.1C10.3293 22.65 9.36378 22.004 8.53746 21.1842C7.71114 20.3644 7.05992 19.4065 6.6063 18.3416C6.13477 17.2411 5.89672 16.0693 5.89672 14.8619C5.89672 14.3896 5.93265 13.9129 6.00901 13.4451L6.07187 13.0441L5.87429 12.6876C5.47009 11.9525 5.2545 11.1193 5.2545 10.2728C5.2545 8.92722 5.77994 7.66632 6.74101 6.71286C7.69758 5.76386 8.97305 5.2381 10.3293 5.2381C11.1961 5.2381 12.0539 5.46088 12.804 5.87966L13.1632 6.08016L13.5719 6.02224C14.012 5.9554 14.4656 5.92424 14.9102 5.92424C16.1273 5.92424 17.3084 6.16038 18.4177 6.6282C19.4911 7.0782 20.4566 7.72424 21.283 8.54404C22.1093 9.36384 22.7605 10.3217 23.2141 11.3866C23.6857 12.4871 23.9237 13.6589 23.9237 14.8663C23.9237 15.3297 23.8878 15.7975 23.8159 16.2564L23.7485 16.693L23.9865 17.0718C24.485 17.8693 24.75 18.7871 24.75 19.7272C24.7455 21.0683 24.2156 22.3337 23.259 23.2827V23.2827H23.259ZM16.4776 13.8906L14.3488 13.4139C13.1901 13.1555 12.6063 12.759 12.6063 12.2154C12.6063 11.8278 12.768 11.5114 13.0869 11.2708C13.4057 11.0302 13.8593 10.9099 14.4387 10.9099C15.1213 10.9099 15.6782 11.0525 16.1003 11.3421C16.2261 11.4223 16.4955 11.6852 16.9087 12.1263C17.1782 12.4114 17.4701 12.5585 17.78 12.5585C18.0988 12.5585 18.3773 12.4694 18.6018 12.2911C18.8308 12.1129 18.9432 11.8679 18.9432 11.5604C18.9432 10.852 18.4716 10.2371 17.5285 9.71586C16.6392 9.2213 15.6647 8.97626 14.6048 8.97626C13.3833 8.97626 12.3683 9.23466 11.5599 9.74706C10.6168 10.353 10.1452 11.2263 10.1452 12.3624C10.1452 13.9218 11.0569 14.9332 12.8803 15.3921L15.7545 16.1139C16.4775 16.2966 16.8413 16.6842 16.8413 17.2678C16.8413 17.6599 16.6662 17.9896 16.3159 18.2658C15.9341 18.5733 15.4266 18.7292 14.7979 18.7292C14.0659 18.7292 13.4775 18.5555 13.0329 18.2079C12.9296 18.1366 12.6467 17.8203 12.1841 17.2545C11.8967 16.9069 11.5688 16.7332 11.2096 16.7332C10.8997 16.7332 10.6437 16.8312 10.4416 17.0272C10.2395 17.2233 10.1407 17.4728 10.1407 17.7802C10.1407 18.4797 10.518 19.0946 11.2725 19.6247C12.1482 20.2619 13.3294 20.5782 14.8024 20.5782C16.289 20.5782 17.4342 20.2441 18.2425 19.5757C19.006 18.9609 19.3878 18.1277 19.3878 17.0807C19.4012 15.3965 18.4267 14.3317 16.4776 13.8906V13.8906Z"></path>
  </symbol>
  <symbol xmlns="http://www.w3.org/2000/svg" viewBox="0 0 30 30" id="tel">
    <path d="M24.2993 16.2502C24.0243 16.2502 23.7368 16.1627 23.4618 16.1002C22.9049 15.9775 22.3576 15.8146 21.8243 15.6127C21.2444 15.4017 20.607 15.4127 20.0347 15.6435C19.4624 15.8742 18.9956 16.3085 18.7243 16.8627L18.4493 17.4252C17.2318 16.7479 16.113 15.9067 15.1243 14.9252C14.1427 13.9365 13.3015 12.8177 12.6243 11.6002L13.1493 11.2502C13.7035 10.9788 14.1377 10.5121 14.3685 9.93982C14.5993 9.36752 14.6102 8.73009 14.3993 8.1502C14.2008 7.61573 14.0379 7.0687 13.9118 6.5127C13.8493 6.2377 13.7993 5.9502 13.7618 5.6627C13.61 4.78223 13.1488 3.98488 12.4613 3.41425C11.7738 2.84362 10.9051 2.53721 10.0118 2.5502H6.26177C5.72306 2.54514 5.18958 2.65622 4.69766 2.87586C4.20573 3.09551 3.76691 3.41857 3.41106 3.82305C3.05521 4.22754 2.79069 4.70394 2.63551 5.21984C2.48032 5.73574 2.43812 6.27902 2.51177 6.8127C3.17769 12.0494 5.56931 16.915 9.30884 20.641C13.0484 24.3669 17.9227 26.7408 23.1618 27.3877H23.6368C24.5585 27.3891 25.4485 27.0509 26.1368 26.4377C26.5322 26.084 26.8481 25.6504 27.0636 25.1656C27.2791 24.6808 27.3892 24.1557 27.3868 23.6252V19.8752C27.3715 19.0069 27.0553 18.1709 26.4922 17.5098C25.9291 16.8487 25.154 16.4035 24.2993 16.2502V16.2502ZM24.9243 23.7502C24.924 23.9277 24.886 24.1031 24.8127 24.2647C24.7395 24.4264 24.6326 24.5706 24.4993 24.6877C24.36 24.809 24.1967 24.8995 24.0201 24.9533C23.8435 25.0072 23.6575 25.0231 23.4743 25.0002C18.7929 24.4 14.4446 22.2583 11.1152 18.9131C7.78577 15.5678 5.66478 11.2094 5.08677 6.5252C5.06688 6.3421 5.08431 6.15686 5.13802 5.98069C5.19174 5.80452 5.28061 5.64106 5.39927 5.5002C5.51641 5.36687 5.6606 5.26 5.82224 5.18672C5.98389 5.11344 6.15929 5.07543 6.33677 5.0752H10.0868C10.3775 5.06873 10.6613 5.1638 10.8895 5.34404C11.1176 5.52428 11.2758 5.77841 11.3368 6.0627C11.3868 6.40437 11.4493 6.74187 11.5243 7.0752C11.6687 7.73413 11.8608 8.38168 12.0993 9.0127L10.3493 9.8252C10.1996 9.89385 10.065 9.99138 9.95322 10.1122C9.84139 10.233 9.75452 10.3747 9.69761 10.5292C9.6407 10.6837 9.61486 10.8479 9.62158 11.0124C9.6283 11.1768 9.66745 11.3384 9.73677 11.4877C11.5358 15.3411 14.6333 18.4387 18.4868 20.2377C18.7911 20.3627 19.1324 20.3627 19.4368 20.2377C19.5927 20.1819 19.7359 20.0958 19.8582 19.9842C19.9805 19.8726 20.0795 19.7378 20.1493 19.5877L20.9243 17.8377C21.5705 18.0688 22.23 18.2608 22.8993 18.4127C23.2326 18.4877 23.5701 18.5502 23.9118 18.6002C24.1961 18.6612 24.4502 18.8194 24.6304 19.0475C24.8107 19.2757 24.9057 19.5595 24.8993 19.8502L24.9243 23.7502Z"></path>
  </symbol>
  <symbol xmlns="http://www.w3.org/2000/svg" viewBox="0 0 30 30" id="telegram">
    <path d="M27.8309 3.03448C27.475 2.7384 27.0454 2.54435 26.588 2.47299C26.1306 2.40162 25.6624 2.45562 25.2332 2.62922L2.83207 11.6734C2.35301 11.8705 1.94522 12.2086 1.66282 12.6429C1.38043 13.0772 1.23678 13.5871 1.25096 14.1049C1.26513 14.6228 1.43645 15.124 1.74217 15.5422C2.0479 15.9604 2.47357 16.2757 2.9627 16.4464L7.49395 18.0223L10.0196 26.3743C10.0539 26.4859 10.1037 26.5921 10.1675 26.6898C10.1772 26.7048 10.1909 26.716 10.2012 26.7306C10.275 26.8335 10.3641 26.9244 10.4655 27.0003C10.4943 27.0222 10.5219 27.0428 10.5528 27.0624C10.6714 27.1411 10.8028 27.1986 10.9412 27.2325L10.956 27.2337L10.9644 27.2373C11.0475 27.2543 11.1322 27.2628 11.2171 27.263C11.2252 27.263 11.2325 27.2591 11.2406 27.2589C11.3686 27.2567 11.4956 27.2346 11.6169 27.1935C11.6451 27.1839 11.6693 27.1678 11.6967 27.1562C11.7872 27.1187 11.8729 27.0707 11.9521 27.013C12.0155 26.9596 12.0789 26.9062 12.1423 26.8528L15.5201 23.1236L20.5579 27.0262C21.0014 27.3714 21.5473 27.5591 22.1094 27.5596C22.6984 27.5589 23.2692 27.3556 23.7261 26.984C24.1831 26.6124 24.4984 26.095 24.6192 25.5186L28.6976 5.49787C28.79 5.04726 28.7581 4.58001 28.6055 4.1461C28.4528 3.71219 28.1851 3.32795 27.8309 3.03448ZM11.7127 18.4202C11.5394 18.5929 11.4209 18.8128 11.3721 19.0526L10.9852 20.9326L10.0052 17.6912L15.0867 15.045L11.7127 18.4202ZM22.0899 25.0498L16.1365 20.438C15.8875 20.2455 15.575 20.154 15.2615 20.1816C14.9479 20.2092 14.6562 20.3539 14.4446 20.5869L13.3629 21.7809L13.7452 19.9229L22.5989 11.0691C22.8102 10.8581 22.939 10.5783 22.9619 10.2805C22.9847 9.98273 22.9002 9.6866 22.7235 9.44576C22.5469 9.20493 22.2899 9.03532 21.9989 8.96766C21.708 8.9 21.4025 8.93877 21.1377 9.07693L8.43114 15.6927L3.77569 13.9891L26.2488 4.99857L22.0899 25.0498Z"></path>
  </symbol>
  <symbol xmlns="http://www.w3.org/2000/svg" viewBox="0 0 30 30" id="twitter">
    <path d="M28.7385 4.93751C28.7387 4.71672 28.6803 4.49984 28.5694 4.30894C28.4584 4.11805 28.2989 3.95997 28.107 3.8508C27.915 3.74163 27.6976 3.68528 27.4769 3.68747C27.2561 3.68966 27.0398 3.75033 26.8501 3.86329C26.1185 4.29877 25.3308 4.63227 24.5089 4.85454C23.3351 3.84733 21.838 3.29617 20.2914 3.3018C18.5946 3.30375 16.965 3.96504 15.7466 5.14603C14.5283 6.32701 13.8166 7.93525 13.7618 9.63115C10.4168 9.09773 7.38511 7.35181 5.24488 4.72633C5.11593 4.56987 4.95124 4.44672 4.76471 4.36726C4.57818 4.2878 4.37527 4.25436 4.17311 4.26976C3.97106 4.2864 3.7761 4.352 3.6051 4.4609C3.4341 4.5698 3.29219 4.71871 3.19166 4.89476C2.67607 5.79453 2.37995 6.80321 2.32735 7.8389C2.27474 8.87458 2.46714 9.90808 2.88892 10.8555L2.88648 10.8579C2.69692 10.9746 2.54047 11.1381 2.43212 11.3326C2.32376 11.5271 2.26711 11.7461 2.26758 11.9687C2.26529 12.1524 2.27631 12.336 2.30055 12.5181C2.42822 14.0909 3.12527 15.5631 4.261 16.6587C4.18395 16.8055 4.13693 16.9661 4.12267 17.1313C4.10842 17.2964 4.12722 17.4628 4.17798 17.6206C4.67313 19.1633 5.72611 20.4657 7.13087 21.2729C5.70367 21.8248 4.16265 22.0172 2.64356 21.8332C2.3624 21.798 2.0776 21.8593 1.83587 22.0071C1.59414 22.155 1.40984 22.3806 1.3132 22.647C1.21656 22.9134 1.21332 23.2047 1.30401 23.4732C1.3947 23.7416 1.57393 23.9713 1.81231 24.1245C4.42493 25.8072 7.46691 26.7018 10.5745 26.7014C14.0986 26.7411 17.537 25.6149 20.3548 23.4982C23.1727 21.3815 25.212 18.3929 26.1555 14.9973C26.5969 13.5181 26.8222 11.9829 26.8245 10.4392C26.8245 10.3574 26.8245 10.2732 26.8233 10.189C27.4759 9.48514 27.9815 8.6581 28.3104 7.75635C28.6393 6.85459 28.7848 5.89625 28.7385 4.93751ZM24.6052 8.9524C24.3988 9.19658 24.2943 9.5109 24.3135 9.83009C24.3257 10.0363 24.3245 10.2438 24.3245 10.4392C24.3219 11.7436 24.1307 13.0408 23.7568 14.2905C22.9862 17.1798 21.2683 19.7268 18.8782 21.5238C16.4881 23.3207 13.5641 24.2636 10.5745 24.2014C9.50062 24.2018 8.43042 24.0756 7.38605 23.8255C8.71781 23.3963 9.96303 22.7346 11.064 21.8711C11.2668 21.7114 11.4152 21.4929 11.4889 21.2456C11.5626 20.9982 11.5579 20.7341 11.4755 20.4895C11.3931 20.2449 11.2371 20.0318 11.0287 19.8795C10.8204 19.7271 10.5701 19.6429 10.312 19.6384C9.27306 19.6223 8.28093 19.2035 7.54468 18.4702C7.73146 18.4348 7.91701 18.3909 8.10133 18.3384C8.37135 18.2615 8.60764 18.096 8.77216 17.8686C8.93668 17.6411 9.01986 17.3649 9.0083 17.0844C8.99674 16.8039 8.89112 16.5354 8.70844 16.3222C8.52576 16.1091 8.27666 15.9636 8.00123 15.9092C7.39816 15.7901 6.83067 15.5335 6.34288 15.1594C5.85509 14.7853 5.46014 14.3038 5.18873 13.7522C5.41465 13.783 5.642 13.8022 5.86988 13.8096C6.14061 13.8137 6.40563 13.7315 6.6266 13.5751C6.84758 13.4186 7.01307 13.1959 7.09913 12.9392C7.18161 12.6802 7.17736 12.4013 7.08705 12.1449C6.99673 11.8885 6.82526 11.6685 6.59865 11.5183C6.04883 11.152 5.59845 10.6551 5.28784 10.072C4.97723 9.48893 4.81609 8.83791 4.81886 8.17726C4.81886 8.09426 4.8213 8.01125 4.82618 7.92946C7.62776 10.5423 11.2616 12.0825 15.0874 12.2788C15.2806 12.2864 15.4729 12.2501 15.6499 12.1725C15.8269 12.0948 15.9839 11.978 16.1092 11.8308C16.2331 11.6822 16.3209 11.5068 16.3656 11.3185C16.4103 11.1302 16.4107 10.9341 16.3667 10.7456C16.2952 10.4473 16.2587 10.1417 16.258 9.83498C16.2592 8.76565 16.6845 7.74044 17.4406 6.98431C18.1967 6.22818 19.2219 5.80289 20.2913 5.80176C20.8414 5.80029 21.3859 5.91289 21.8904 6.13245C22.3949 6.35201 22.8483 6.67376 23.2222 7.0774C23.3663 7.2325 23.5478 7.34814 23.7493 7.41332C23.9508 7.4785 24.1656 7.49104 24.3733 7.44976C24.8868 7.34983 25.3929 7.21525 25.8882 7.04694C25.5503 7.73815 25.1186 8.37937 24.6052 8.9524Z"></path>
  </symbol>
  <symbol xmlns="http://www.w3.org/2000/svg" viewBox="0 0 30 30" id="vk">
    <path d="M19.6796 16.9116C19.3144 16.5168 18.9044 16.166 18.4578 15.8665C20.26 14.4731 21.5229 12.4977 22.0312 10.2771C22.0688 10.1166 22.0742 9.95032 22.0472 9.78775C22.0202 9.62517 21.9613 9.46954 21.874 9.3298C21.7866 9.19007 21.6725 9.06899 21.5381 8.97353C21.4038 8.87808 21.2519 8.81013 21.0912 8.77359C20.9305 8.73706 20.7642 8.73266 20.6017 8.76066C20.4393 8.78865 20.2841 8.84848 20.1449 8.93671C20.0057 9.02494 19.8853 9.13982 19.7907 9.27475C19.6961 9.40967 19.629 9.56198 19.5935 9.7229C19.3567 10.7616 18.8963 11.7362 18.2442 12.5786C17.5921 13.4211 16.7641 14.1112 15.8179 14.6007V10.0025C15.8102 9.91052 15.7918 9.81974 15.7633 9.73196C15.755 9.65969 15.7406 9.58825 15.7201 9.51842C15.6668 9.40474 15.5965 9.29983 15.5116 9.20729C15.4893 9.18074 15.478 9.14572 15.4536 9.12116C15.362 9.03663 15.2583 8.96624 15.146 8.91234C15.1141 8.89532 15.0903 8.86656 15.0568 8.85234C14.9611 8.82043 14.8619 8.80002 14.7613 8.79152C14.6992 8.77336 14.6357 8.76032 14.5715 8.75254L13.7537 8.75H13.75C13.4576 8.7486 13.174 8.85026 12.9491 9.03713C12.7241 9.224 12.5722 9.48413 12.52 9.77185C12.4678 10.0596 12.5186 10.3565 12.6635 10.6105C12.8084 10.8645 13.0381 11.0593 13.3124 11.1608V17.2742C11.3315 15.2179 10.0199 12.61 9.55017 9.79375C9.52276 9.63192 9.46374 9.47708 9.37649 9.33806C9.28923 9.19904 9.17545 9.07857 9.04163 8.98352C8.90782 8.88848 8.7566 8.82072 8.5966 8.78412C8.4366 8.74752 8.27095 8.74279 8.10913 8.7702C7.9473 8.79761 7.79245 8.85663 7.65343 8.94389C7.51442 9.03114 7.39394 9.14493 7.2989 9.27874C7.20385 9.41255 7.1361 9.56378 7.09949 9.72378C7.06289 9.88378 7.05816 10.0494 7.08558 10.2112C7.81606 14.5644 10.2436 18.4501 13.8355 21.0157C13.8867 21.0464 13.9401 21.0733 13.9952 21.0963C14.0385 21.1217 14.0834 21.1443 14.1296 21.164C14.2691 21.2198 14.4176 21.2498 14.5679 21.2525C14.7518 21.2502 14.9328 21.2067 15.0977 21.1252C15.1101 21.1193 15.1244 21.122 15.1367 21.1158C15.2472 21.0582 15.3484 20.9844 15.4369 20.8967C15.4546 20.8794 15.4665 20.8581 15.4833 20.8398C15.564 20.7511 15.6313 20.6513 15.6832 20.5433C15.7006 20.5074 15.7165 20.4732 15.7304 20.4355C15.7854 20.2976 15.815 20.1509 15.8179 20.0025L15.8185 17.345C16.593 17.5724 17.2908 18.0067 17.8369 18.6011L19.8969 20.8472C20.0077 20.9686 20.1413 21.0669 20.2902 21.1365C20.4391 21.2062 20.6002 21.2458 20.7644 21.2531C20.9286 21.2603 21.0926 21.2352 21.2471 21.179C21.4015 21.1228 21.5434 21.0367 21.6645 20.9256C21.7856 20.8145 21.8836 20.6806 21.953 20.5316C22.0223 20.3825 22.0615 20.2213 22.0684 20.0571C22.0753 19.8929 22.0498 19.7289 21.9932 19.5746C21.9367 19.4203 21.8503 19.2786 21.7389 19.1577L19.6796 16.9116ZM18.8409 1.25H11.1719C3.47534 1.25 1.25 3.4729 1.25 11.1584V18.8281C1.25 26.5247 3.47229 28.75 11.1591 28.75H18.8281C26.5247 28.75 28.75 26.5271 28.75 18.8416V11.1719C28.75 3.47534 26.5277 1.25 18.8409 1.25ZM26.25 18.8416C26.25 25.1416 25.1404 26.25 18.8281 26.25H11.1591C4.85779 26.25 3.75 25.1404 3.75 18.8281V11.1584C3.75 4.8584 4.85963 3.75 11.1719 3.75H18.8409C25.1422 3.75 26.25 4.85963 26.25 11.1719V18.8416Z"></path>
  </symbol>
  <symbol xmlns="http://www.w3.org/2000/svg" viewBox="0 0 30 30" id="whatsapp">
    <path d="M23.8125 6.13757C22.6665 4.97998 21.3015 4.06216 19.797 3.43764C18.2926 2.81312 16.6789 2.4944 15.05 2.50007C8.225 2.50007 2.6625 8.06257 2.6625 14.8876C2.6625 17.0751 3.2375 19.2001 4.3125 21.0751L2.5625 27.5001L9.125 25.7751C10.9375 26.7626 12.975 27.2876 15.05 27.2876C21.875 27.2876 27.4375 21.7251 27.4375 14.9001C27.4375 11.5876 26.15 8.47507 23.8125 6.13757ZM15.05 25.1876C13.2 25.1876 11.3875 24.6876 9.8 23.7501L9.425 23.5251L5.525 24.5501L6.5625 20.7501L6.3125 20.3626C5.28468 18.7213 4.73893 16.8241 4.7375 14.8876C4.7375 9.21257 9.3625 4.58757 15.0375 4.58757C17.7875 4.58757 20.375 5.66257 22.3125 7.61257C23.2719 8.56753 24.0321 9.7034 24.5492 10.9544C25.0664 12.2053 25.33 13.5465 25.325 14.9001C25.35 20.5751 20.725 25.1876 15.05 25.1876ZM20.7 17.4876C20.3875 17.3376 18.8625 16.5876 18.5875 16.4751C18.3 16.3751 18.1 16.3251 17.8875 16.6251C17.675 16.9376 17.0875 17.6376 16.9125 17.8376C16.7375 18.0501 16.55 18.0751 16.2375 17.9126C15.925 17.7626 14.925 17.4251 13.75 16.3751C12.825 15.5501 12.2125 14.5376 12.025 14.2251C11.85 13.9126 12 13.7501 12.1625 13.5876C12.3 13.4501 12.475 13.2251 12.625 13.0501C12.775 12.8751 12.8375 12.7376 12.9375 12.5376C13.0375 12.3251 12.9875 12.1501 12.9125 12.0001C12.8375 11.8501 12.2125 10.3251 11.9625 9.70007C11.7125 9.10007 11.45 9.17507 11.2625 9.16257H10.6625C10.45 9.16257 10.125 9.23757 9.8375 9.55007C9.5625 9.86257 8.7625 10.6126 8.7625 12.1376C8.7625 13.6626 9.875 15.1376 10.025 15.3376C10.175 15.5501 12.2125 18.6751 15.3125 20.0126C16.05 20.3376 16.625 20.5251 17.075 20.6626C17.8125 20.9001 18.4875 20.8626 19.025 20.7876C19.625 20.7001 20.8625 20.0376 21.1125 19.3126C21.375 18.5876 21.375 17.9751 21.2875 17.8376C21.2 17.7001 21.0125 17.6376 20.7 17.4876Z"></path>
  </symbol>
</svg>
