<svg width="126" height="16" viewBox="0 0 126 16" xmlns="http://www.w3.org/2000/svg">
<path fill-rule="evenodd" clip-rule="evenodd" d="M0 0.708374V15.2917H5.80095C7.54154 15.2785 8.85339 14.9145 9.73688 14.2C10.6267 13.4789 11.0716 12.4038 11.0716 10.9748C11.0716 10.1869 10.872 9.51922 10.4728 8.97167C10.0736 8.42405 9.50109 8.05012 8.75534 7.8498C9.41605 7.59609 9.91681 7.20212 10.257 6.66792C10.5972 6.13376 10.7673 5.48937 10.7673 4.73483C10.7673 3.42606 10.2865 2.4278 9.32432 1.74003C8.36917 1.05225 6.9722 0.708374 5.13341 0.708374H0ZM3.44516 12.5875V9.09181H5.85961C7.04394 9.09849 7.63643 9.70948 7.63643 10.9248C7.63643 11.4522 7.46951 11.8629 7.13567 12.1568C6.80212 12.4439 6.32421 12.5875 5.70268 12.5875H3.44516ZM5.24131 6.78813H3.44516V3.42272H5.13341C5.90562 3.42272 6.46511 3.55961 6.8116 3.83338C7.15845 4.10047 7.33206 4.54118 7.33206 5.15553C7.33206 5.68969 7.17183 6.09367 6.851 6.36744C6.53046 6.64124 5.99382 6.78146 5.24131 6.78813ZM17.4261 9.11184H22.844V6.49765H17.4261V3.42272H23.8453V0.708374H13.9807V15.2917H23.8256V12.5875H17.4261V9.11184ZM29.3188 15.2917H25.7282L30.9694 0.708374H34.2084L35.3562 3.87852C35.1355 3.996 34.9388 4.11733 34.7658 4.2394C30.9423 7.19441 29.5412 12.655 29.3188 15.0158V15.2917ZM31.8163 15.2917H39.0662C38.8624 14.0457 38.2668 11.6312 37.4718 11.7166C36.9745 11.77 36.6158 11.9561 36.2257 12.1585C35.8303 12.3636 35.4026 12.5854 34.7658 12.7028C34.6839 12.7178 34.6014 12.7324 34.5181 12.747C33.3186 12.9579 32.0068 13.1885 31.8163 15.2917ZM41.645 9.72501V15.2917H45.09V10.1435H46.9554L49.4773 15.2917H53.1678V15.1415L50.1836 9.26205C51.0414 8.84808 51.6698 8.3072 52.0689 7.63951C52.4739 6.97175 52.6775 6.13039 52.6775 5.11543C52.6775 3.7132 52.1998 2.62812 51.2442 1.86022C50.2887 1.09232 48.9635 0.708374 47.2685 0.708374H41.645V2.80189C43.0571 2.87564 44.6681 3.11226 46.4858 3.57596C46.9841 3.27114 47.9374 2.97706 47.7684 4.2394C48.302 4.70277 48.5364 4.86996 49.037 5.22757L49.0686 5.25049C49.1303 5.29406 49.2068 5.33613 49.2862 5.37944C49.6625 5.58572 50.0917 5.82029 49.1039 6.38013C48.3593 6.80244 47.7919 6.83059 46.9422 6.8728C46.4292 6.89827 45.8132 6.92886 44.9922 7.05455C44.6776 7.11874 42.2509 7.9446 41.645 9.72501Z"/>
<path fill-rule="evenodd" clip-rule="evenodd" d="M63.1491 12.4667H69.1138V15.0969H59.7227V0.912977H63.1491V12.4667ZM81.1238 11.9698C81.6379 10.9047 81.8952 9.68053 81.8952 8.29719V7.6445C81.8885 6.28063 81.6215 5.07271 81.0944 4.0206C80.574 2.96199 79.8418 2.14694 78.8981 1.57544C77.9544 1.00393 76.8807 0.718148 75.6766 0.718148C74.4596 0.718148 73.373 1.00714 72.4163 1.58514C71.466 2.16313 70.7341 2.98468 70.2199 4.04977C69.7121 5.10838 69.4584 6.33264 69.4584 7.72241V8.52127C69.4845 9.8591 69.7579 11.0443 70.2784 12.077C70.8054 13.1096 71.5376 13.9052 72.4747 14.4637C73.4121 15.0157 74.4858 15.2917 75.6962 15.2917C76.9066 15.2917 77.9837 15.006 78.9275 14.4345C79.8774 13.8565 80.6097 13.0349 81.1238 11.9698ZM77.6975 4.49793C78.1725 5.22531 78.4101 6.29369 78.4101 7.70293V8.35569C78.4036 9.73247 78.1658 10.7879 77.6975 11.5217C77.2288 12.2556 76.5619 12.6226 75.6962 12.6226C74.785 12.6226 74.0985 12.2491 73.6365 11.5022C73.1744 10.7554 72.9434 9.68702 72.9434 8.29719L72.9532 7.25485C73.0507 4.68306 73.9587 3.39709 75.6766 3.39709C76.5553 3.39709 77.2288 3.76406 77.6975 4.49793ZM94.8983 13.3435C94.3712 13.9279 93.5998 14.3988 92.5848 14.756C91.5694 15.1132 90.4566 15.2917 89.2462 15.2917C87.3847 15.2917 85.8979 14.7235 84.785 13.5869C83.6722 12.4504 83.0766 10.869 82.9986 8.84272L82.9888 7.61525C82.9888 6.21892 83.236 5.00123 83.7305 3.96217C84.2254 2.91655 84.9314 2.1144 85.8489 1.55589C86.7731 0.990878 87.8404 0.708374 89.0508 0.708374C90.8212 0.708374 92.194 1.1143 93.1702 1.92614C94.1531 2.73142 94.726 3.93613 94.8885 5.54027H91.589C91.4719 4.74798 91.2178 4.18289 90.8274 3.84525C90.437 3.50752 89.8838 3.33866 89.168 3.33866C88.3088 3.33866 87.6451 3.70235 87.1767 4.42973C86.708 5.15711 86.4703 6.19624 86.4641 7.54705V8.40434C86.4641 9.82014 86.7049 10.8852 87.1865 11.5996C87.6744 12.3075 88.4392 12.6615 89.4804 12.6615C90.372 12.6615 91.0357 12.4634 91.4719 12.0673V9.86566H89.09V7.51788H94.8983V13.3435ZM97.1239 15.0969H100.54V0.912977H97.1239V15.0969ZM113.922 10.2943C113.876 11.2814 113.61 12.1549 113.122 12.9148C112.634 13.6681 111.947 14.2526 111.062 14.6683C110.183 15.0839 109.178 15.2917 108.046 15.2917C106.178 15.2917 104.707 14.6845 103.633 13.47C102.559 12.2556 102.022 10.541 102.022 8.32644V7.62503C102.022 6.23519 102.263 5.02071 102.745 3.98157C103.233 2.93595 103.932 2.13067 104.844 1.56566C105.755 0.994161 106.809 0.708374 108.006 0.708374C109.731 0.708374 111.117 1.16302 112.165 2.07224C113.213 2.97497 113.808 4.22192 113.952 5.81308H110.535C110.509 4.9493 110.291 4.32907 109.881 3.9524C109.47 3.57572 108.846 3.38739 108.006 3.38739C107.154 3.38739 106.529 3.70563 106.132 4.34205C105.736 4.97855 105.527 5.99492 105.508 7.39117V8.39464C105.508 9.90782 105.696 10.9892 106.073 11.6387C106.457 12.2881 107.115 12.6128 108.046 12.6128C108.833 12.6128 109.435 12.4277 109.851 12.0575C110.268 11.6873 110.489 11.0995 110.515 10.2943H113.922ZM122.037 10.1579C122.395 10.4372 122.574 10.8268 122.574 11.3269C122.574 11.7685 122.408 12.1127 122.076 12.3595C121.751 12.5998 121.305 12.72 120.738 12.72C119.854 12.72 119.213 12.5413 118.816 12.1841C118.425 11.8204 118.23 11.2587 118.23 10.4989H114.794C114.794 11.4341 115.028 12.2621 115.497 12.983C115.971 13.6974 116.675 14.2624 117.605 14.678C118.542 15.0872 119.586 15.2917 120.738 15.2917C122.372 15.2917 123.657 14.9378 124.595 14.2299C125.532 13.522 126 12.5478 126 11.3074C126 9.75523 125.233 8.53746 123.697 7.65421C123.065 7.29052 122.258 6.95287 121.276 6.64111C120.293 6.32287 119.606 6.0176 119.216 5.7254C118.825 5.42663 118.63 5.0954 118.63 4.73171C118.63 4.31609 118.806 3.97508 119.157 3.70884C119.515 3.43611 120 3.29964 120.612 3.29964C121.217 3.29964 121.695 3.4588 122.047 3.77705C122.405 4.09529 122.583 4.54337 122.583 5.12137H126C126 4.25766 125.776 3.49126 125.327 2.82238C124.877 2.14694 124.247 1.62737 123.433 1.26368C122.626 0.899992 121.711 0.718148 120.689 0.718148C119.643 0.718148 118.699 0.887009 117.859 1.22466C117.02 1.55589 116.368 2.02352 115.906 2.62748C115.451 3.22502 115.224 3.91666 115.224 4.70246C115.224 6.28063 116.144 7.52109 117.986 8.42389C118.552 8.70311 119.281 8.99211 120.173 9.29088C121.064 9.58957 121.686 9.87865 122.037 10.1579Z"/>
</svg>
