<svg width="37" height="46" viewBox="0 0 37 46" fill="none" xmlns="http://www.w3.org/2000/svg">
<path d="M9.17063 44.5512C10.2774 44.0755 11.2202 43.6909 12.1425 43.2658C15.0743 42.0118 17.6988 40.1501 19.8382 37.8067C21.9777 35.4633 23.582 32.693 24.5425 29.6837C25.9498 25.2643 25.7431 20.4973 23.9583 16.2129C23.0366 13.8097 21.7812 11.5446 20.2281 9.48258C19.9514 9.09798 19.6337 8.74376 19.2955 8.3288C19.9079 8.2136 20.5387 8.23783 21.1402 8.39965C24.8932 8.95233 28.3823 10.6346 31.1319 13.2172C33.2989 15.1703 34.9498 17.6167 35.9411 20.3437C36.9323 23.0707 37.2339 25.9956 36.8194 28.8639C36.3532 33.1639 34.36 37.1618 31.1933 40.1486C29.0903 42.2326 26.5454 43.83 23.742 44.8258C20.9386 45.8216 17.9465 46.191 14.9812 45.9073C13.2365 45.7873 11.5145 45.4472 9.85724 44.8953C9.70352 44.8042 9.50881 44.7131 9.17063 44.5512Z" fill="#1FC3A1"/>
<path d="M27.8013 1.42641C26.6945 1.90209 25.7517 2.28668 24.8294 2.72188C18.7934 5.5557 14.4995 9.92789 12.45 16.3141C11.0585 20.7261 11.2687 25.4792 13.0443 29.7545C13.9763 32.1457 15.2348 34.3999 16.7848 36.4545C17.0615 36.829 17.3792 37.1933 17.7174 37.6083C17.1084 37.7219 16.4812 37.6977 15.883 37.5374C12.1275 37.0001 8.63123 35.3319 5.87081 32.7604C3.70972 30.8134 2.06149 28.3758 1.06871 25.6583C0.0759215 22.9409 -0.231518 20.0254 0.172983 17.1643C0.636949 12.86 2.62597 8.85598 5.78883 5.85933C7.89027 3.77552 10.4331 2.17744 13.2345 1.17997C16.0359 0.182493 19.0263 -0.18959 21.9907 0.0904687C23.7355 0.210541 25.4574 0.550664 27.1147 1.10255C27.2684 1.18352 27.4631 1.28472 27.8013 1.42641Z" fill="#F4252C"/>
</svg>
