<svg width="187" height="52" viewBox="0 0 187 52" fill="none" xmlns="http://www.w3.org/2000/svg">
<path d="M85.7109 16.1996H79.9715L79.4894 20.3641C78.6087 18.9464 77.3903 17.7674 75.9425 16.9318C74.4584 16.1247 72.7948 15.7018 71.1041 15.7018C69.4135 15.7018 67.7499 16.1247 66.2658 16.9318C64.8605 17.7415 63.7142 18.9316 62.9599 20.3641C62.1569 21.98 61.7629 23.7672 61.812 25.5697C61.7666 27.3609 62.1607 29.1361 62.9599 30.741C63.7203 32.1692 64.8651 33.3578 66.2658 34.1733C67.7499 34.9804 69.4135 35.4033 71.1041 35.4033C72.7948 35.4033 74.4584 34.9804 75.9425 34.1733C77.3909 33.3385 78.6094 32.1594 79.4894 30.741L79.9715 34.9284H85.7109L84.563 25.5354L85.7109 16.1996ZM75.644 30.5008C74.7376 30.9736 73.7285 31.2171 72.7054 31.2101C71.7388 31.2341 70.7846 30.9885 69.9505 30.5008C69.1565 30.0296 68.5089 29.3485 68.0795 28.5329C67.6062 27.6382 67.3692 26.6382 67.3907 25.6269C67.3693 24.6084 67.6062 23.601 68.0795 22.6981C68.5052 21.8769 69.1534 21.1912 69.9505 20.7188C70.7834 20.2271 71.7376 19.9774 72.7054 19.998C73.7294 19.995 74.7384 20.2425 75.644 20.7188C76.5851 21.2066 77.417 21.88 78.089 22.6981C78.8134 23.5685 79.3769 24.5602 79.7534 25.6269C79.3769 26.6868 78.8132 27.6709 78.089 28.5329C77.4134 29.3444 76.5822 30.0134 75.644 30.5008Z" fill="#1D1E1E"/>
<path d="M92.6786 16.1996C92.8508 17.8357 92.9885 19.3344 93.0574 20.6959C93.1263 22.0574 93.1722 23.2815 93.1722 24.3341C93.2803 26.0606 93.0262 27.7907 92.426 29.4139C92.22 29.8797 91.8772 30.2722 91.4427 30.5398C91.0083 30.8074 90.5026 30.9374 89.9925 30.9126C89.6299 30.9113 89.2683 30.873 88.9135 30.7982C88.5229 30.7125 88.1392 30.5977 87.7656 30.455V34.4479C88.3212 34.7714 88.9204 35.0142 89.5449 35.1687C90.1703 35.3081 90.8095 35.3771 91.4503 35.3746C92.4555 35.4597 93.4654 35.2792 94.3783 34.8514C95.2912 34.4236 96.0748 33.7635 96.6502 32.9377C97.7139 31.3054 98.2496 28.6817 98.2573 25.0663C98.2573 24.1625 98.2573 23.1328 98.1425 22.0002C98.1425 21.4739 98.0621 20.9133 98.0162 20.3298H106.683V35.0199H112.227V16.1996H92.6786Z" fill="#1D1E1E"/>
<path d="M137.308 30.8554V16.1996H131.764V30.8554H121.915V16.1996H116.371V35.0199H136.011V39.6421H140.798V30.8554H137.308Z" fill="#1D1E1E"/>
<path d="M155.295 31.3474C153.92 31.3868 152.551 31.1373 151.278 30.6152C150.237 30.1872 149.354 29.4476 148.753 28.4986C148.538 28.1379 148.364 27.7541 148.236 27.3545H163.951C164 25.233 163.564 23.1281 162.676 21.1993C161.878 19.5384 160.614 18.1436 159.038 17.1835C157.329 16.1939 155.377 15.6986 153.402 15.7534C151.418 15.7173 149.454 16.1402 147.662 16.9891C146.05 17.7519 144.677 18.9386 143.69 20.4213C142.718 21.965 142.219 23.7586 142.256 25.5812C142.22 27.4348 142.744 29.2563 143.759 30.8097C144.797 32.3309 146.234 33.5381 147.915 34.2991C149.781 35.1258 151.807 35.5321 153.849 35.489C155.621 35.4963 157.384 35.2458 159.084 34.7453C160.63 34.2962 162.092 33.5966 163.411 32.6745V29.002C162.231 29.7657 160.942 30.348 159.589 30.7296C158.194 31.135 156.748 31.3429 155.295 31.3474ZM150.497 20.4442C151.405 19.9779 152.415 19.7458 153.436 19.7692C154.381 19.7525 155.315 19.9686 156.156 20.3984C156.922 20.8139 157.557 21.4314 157.993 22.1832C158.263 22.6475 158.464 23.1486 158.59 23.6705H148.11C148.211 23.2018 148.381 22.7507 148.615 22.332C149.056 21.5423 149.708 20.8891 150.497 20.4442Z" fill="#1D1E1E"/>
<path d="M173.708 16.1996C172.406 16.173 171.115 16.4389 169.931 16.9776C168.898 17.4457 168.016 18.1903 167.383 19.1285C166.766 20.0778 166.45 21.19 166.476 22.3205C166.45 23.4511 166.766 24.5632 167.383 25.5125C168.011 26.4422 168.891 27.1759 169.92 27.6291C170.389 27.8353 170.877 27.9962 171.377 28.1096L166.028 34.9742H172.342L177.174 28.4528H181.456V34.9742H187V16.1996H173.708ZM175.039 24.8947C174.254 24.9392 173.48 24.6994 172.858 24.2197C172.598 23.9928 172.393 23.7103 172.258 23.3934C172.123 23.0764 172.061 22.7332 172.078 22.3892C172.065 22.049 172.128 21.7101 172.263 21.3974C172.398 21.0847 172.601 20.8059 172.858 20.5815C173.487 20.1185 174.259 19.8916 175.039 19.9408H181.467V24.8947H175.039Z" fill="#1D1E1E"/>
<path d="M10.2722 50.3622C11.5119 49.8245 12.5679 49.3897 13.601 48.9092C16.8849 47.4916 19.8247 45.387 22.2211 42.738C24.6175 40.0889 26.4145 36.9573 27.4904 33.5555C29.0668 28.5596 28.8352 23.1709 26.8361 18.3276C25.8036 15.6109 24.3974 13.0504 22.6578 10.7194C22.3479 10.2847 21.992 9.88425 21.6132 9.41517C22.2991 9.28494 23.0058 9.31233 23.6794 9.49526C27.8832 10.12 31.7914 12.0217 34.8713 14.9411C37.2986 17.149 39.1478 19.9146 40.2581 22.9972C41.3685 26.0799 41.7062 29.3863 41.242 32.6288C40.7198 37.4896 38.4872 42.009 34.9401 45.3854C32.5844 47.7412 29.7339 49.5469 26.5938 50.6726C23.4537 51.7983 20.1022 52.2159 16.7806 51.8953C14.8264 51.7595 12.8976 51.375 11.0412 50.7512C10.8691 50.6482 10.651 50.5452 10.2722 50.3622Z" fill="#1FC3A1"/>
<path d="M31.1406 1.61247C29.9009 2.15019 28.8449 2.58495 27.8118 3.07691C21.0508 6.28036 16.2411 11.2228 13.9454 18.442C12.3868 23.4295 12.6223 28.8026 14.6112 33.6356C15.6551 36.3386 17.0647 38.8868 18.8009 41.2095C19.1108 41.6328 19.4667 42.0446 19.8455 42.5137C19.1633 42.6422 18.4608 42.6148 17.7908 42.4336C13.5842 41.8262 9.66797 39.9404 6.57598 37.0335C4.15531 34.8326 2.30911 32.077 1.19707 29.0051C0.0850409 25.9332 -0.259327 22.6375 0.19376 19.4031C0.713457 14.5373 2.94138 10.0111 6.48415 6.62359C8.83801 4.26798 11.6863 2.46145 14.8242 1.33388C17.9621 0.206297 21.3117 -0.214319 24.6322 0.102269C26.5864 0.238002 28.5152 0.62249 30.3716 1.24636C30.5437 1.33789 30.7618 1.4523 31.1406 1.61247Z" fill="#F4252C"/>
</svg>
