<svg width="195" height="55" viewBox="0 0 195 55" fill="none" xmlns="http://www.w3.org/2000/svg">
<path d="M89.1503 17.1342H83.1806L82.6791 21.539C81.7631 20.0394 80.4958 18.7924 78.9898 17.9087C77.4462 17.055 75.7158 16.6077 73.9574 16.6077C72.1989 16.6077 70.4685 17.055 68.9249 17.9087C67.4632 18.765 66.2709 20.0238 65.4863 21.539C64.6511 23.2481 64.2412 25.1384 64.2924 27.0449C64.2452 28.9394 64.655 30.817 65.4863 32.5145C66.2772 34.0251 67.468 35.2823 68.9249 36.1448C70.4685 36.9985 72.1989 37.4458 73.9574 37.4458C75.7158 37.4458 77.4462 36.9985 78.9898 36.1448C80.4964 35.2619 81.7638 34.0147 82.6791 32.5145L83.1806 36.9435H89.1503L87.9563 27.0086L89.1503 17.1342ZM78.6794 32.2604C77.7366 32.7605 76.687 33.0181 75.6229 33.0107C74.6174 33.0361 73.625 32.7763 72.7575 32.2604C71.9316 31.762 71.258 31.0416 70.8113 30.1791C70.3191 29.2327 70.0726 28.175 70.095 27.1054C70.0727 26.0281 70.3191 24.9626 70.8113 24.0076C71.2541 23.139 71.9284 22.4138 72.7575 21.9141C73.6237 21.394 74.6163 21.13 75.6229 21.1517C76.688 21.1485 77.7375 21.4103 78.6794 21.9141C79.6583 22.4301 80.5235 23.1423 81.2225 24.0076C81.9759 24.9282 82.5621 25.9771 82.9537 27.1054C82.5621 28.2264 81.9758 29.2673 81.2225 30.1791C80.5198 31.0373 79.6552 31.7449 78.6794 32.2604Z" fill="white"/>
<path d="M96.3975 17.1342C96.5766 18.8647 96.7199 20.4499 96.7915 21.8899C96.8632 23.3299 96.9109 24.6247 96.9109 25.738C97.0234 27.5641 96.7591 29.394 96.1349 31.1108C95.9206 31.6035 95.564 32.0187 95.1121 32.3017C94.6602 32.5847 94.1343 32.7222 93.6037 32.6961C93.2265 32.6946 92.8504 32.6541 92.4814 32.575C92.0751 32.4843 91.676 32.363 91.2875 32.212V36.4353C91.8653 36.7775 92.4885 37.0342 93.1381 37.1976C93.7886 37.3451 94.4534 37.4181 95.12 37.4154C96.1655 37.5054 97.2159 37.3146 98.1655 36.8621C99.115 36.4096 99.9301 35.7114 100.529 34.8379C101.635 33.1115 102.192 30.3364 102.2 26.5125C102.2 25.5565 102.2 24.4674 102.081 23.2694C102.081 22.7128 101.997 22.1198 101.949 21.5027H110.964V37.0403H116.73V17.1342H96.3975Z" fill="white"/>
<path d="M142.818 32.6356V17.1342H137.051V32.6356H126.807V17.1342H121.041V37.0403H141.469V41.9291H146.448V32.6356H142.818Z" fill="white"/>
<path d="M161.527 33.1559C160.096 33.1976 158.672 32.9337 157.348 32.3814C156.265 31.9288 155.347 31.1465 154.722 30.1428C154.498 29.7613 154.318 29.3553 154.184 28.9327H170.529C170.581 26.6887 170.128 24.4624 169.204 22.4223C168.374 20.6656 167.059 19.1904 165.419 18.1749C163.642 17.1281 161.612 16.6043 159.557 16.6623C157.494 16.624 155.451 17.0714 153.587 17.9692C151.91 18.7761 150.482 20.0312 149.456 21.5995C148.444 23.2322 147.926 25.1293 147.964 27.057C147.927 29.0175 148.472 30.9441 149.528 32.5871C150.607 34.1961 152.102 35.473 153.85 36.2779C155.791 37.1523 157.899 37.582 160.023 37.5364C161.866 37.5442 163.7 37.2792 165.467 36.7499C167.076 36.2748 168.597 35.5349 169.968 34.5596V30.6752C168.741 31.4829 167.401 32.0989 165.992 32.5024C164.542 32.9312 163.038 33.1512 161.527 33.1559ZM156.536 21.6237C157.48 21.1305 158.531 20.885 159.593 20.9097C160.576 20.8921 161.548 21.1207 162.423 21.5753C163.218 22.0147 163.879 22.6678 164.333 23.463C164.614 23.9541 164.823 24.484 164.954 25.0361H154.053C154.158 24.5404 154.335 24.0632 154.578 23.6203C155.038 22.7851 155.715 22.0942 156.536 21.6237Z" fill="white"/>
<path d="M180.678 17.1342C179.324 17.106 177.982 17.3873 176.75 17.9571C175.676 18.4522 174.758 19.2397 174.099 20.2321C173.458 21.2362 173.129 22.4125 173.156 23.6082C173.129 24.804 173.458 25.9803 174.099 26.9844C174.753 27.9677 175.668 28.7437 176.738 29.2231C177.226 29.4412 177.734 29.6114 178.254 29.7313L172.69 36.9919H179.257L184.284 30.0944H188.737V36.9919H194.504V17.1342H180.678ZM182.063 26.331C181.247 26.378 180.441 26.1244 179.794 25.617C179.524 25.377 179.311 25.0782 179.17 24.743C179.03 24.4078 178.965 24.0447 178.983 23.6808C178.969 23.321 179.035 22.9626 179.175 22.6319C179.316 22.3011 179.527 22.0063 179.794 21.7689C180.448 21.2792 181.252 21.0392 182.063 21.0912H188.749V26.331H182.063Z" fill="white"/>
<path d="M10.6844 53.2677C11.9738 52.6989 13.0722 52.2391 14.1468 51.7309C17.5625 50.2315 20.6202 48.0055 23.1128 45.2036C25.6054 42.4017 27.4745 39.0895 28.5935 35.4914C30.2331 30.2073 29.9923 24.5077 27.913 19.385C26.8391 16.5115 25.3764 13.8033 23.567 11.3379C23.2446 10.878 22.8745 10.4545 22.4805 9.95835C23.1939 9.82061 23.9289 9.84958 24.6296 10.0431C29.0021 10.7039 33.0671 12.7153 36.2706 15.8031C38.7953 18.1383 40.7187 21.0635 41.8736 24.324C43.0285 27.5845 43.3798 31.0817 42.8969 34.5112C42.3538 39.6525 40.0316 44.4326 36.3422 48.0038C33.892 50.4955 30.927 52.4054 27.6609 53.596C24.3948 54.7866 20.9088 55.2283 17.454 54.8892C15.4213 54.7457 13.4151 54.339 11.4843 53.6791C11.3052 53.5702 11.0784 53.4613 10.6844 53.2677Z" fill="#1FC3A1"/>
<path d="M32.3902 1.7055C31.1008 2.27424 30.0024 2.73408 28.9278 3.25442C21.8955 6.64269 16.8929 11.8703 14.505 19.506C12.8839 24.7812 13.1287 30.4642 15.1975 35.5761C16.2833 38.4351 17.7495 41.1303 19.5554 43.5869C19.8777 44.0347 20.2478 44.4703 20.6418 44.9664C19.9323 45.1023 19.2016 45.0734 18.5047 44.8817C14.1293 44.2392 10.0559 42.2447 6.83986 39.1701C4.32205 36.8422 2.40176 33.9276 1.24511 30.6784C0.0884533 27.4293 -0.269733 23.9435 0.201536 20.5225C0.742086 15.376 3.05941 10.5887 6.74434 7.00572C9.19266 4.51421 12.1552 2.60346 15.4191 1.41083C18.6829 0.218198 22.1669 -0.226683 25.6206 0.108169C27.6533 0.251733 29.6595 0.658403 31.5903 1.31827C31.7694 1.41507 31.9962 1.53608 32.3902 1.7055Z" fill="#F4252C"/>
</svg>
