<?xml version="1.0" encoding="utf-8"?>
<!-- Generator: Adobe Illustrator 23.1.0, SVG Export Plug-In . SVG Version: 6.00 Build 0)  -->
<svg version="1.1" id="Layer_1" xmlns="http://www.w3.org/2000/svg" xmlns:xlink="http://www.w3.org/1999/xlink" x="0px" y="0px"
	 viewBox="0 0 120 120" style="enable-background:new 0 0 120 120;" xml:space="preserve">
<style type="text/css">
	.st0{fill:#D9D9D9;}
</style>
<g>
	<path class="st0" d="M70,47h15c0.4,0,0.8-0.3,0.8-0.8s-0.3-0.8-0.8-0.8H70c-0.4,0-0.8,0.3-0.8,0.8S69.6,47,70,47z"/>
	<path class="st0" d="M64.5,46.3c0-5.2-4.3-9.5-9.5-9.5c-5.1,0-9.2,4-9.5,9c-0.1-0.1-0.3-0.2-0.5-0.2H35c-0.4,0-0.8,0.3-0.8,0.8
		S34.6,47,35,47h10c0.2,0,0.4-0.1,0.5-0.2c0.3,5,4.4,9,9.5,9C60.2,55.8,64.5,51.5,64.5,46.3z M55,54.3c-4.4,0-8-3.6-8-8s3.6-8,8-8
		s8,3.6,8,8S59.4,54.3,55,54.3z"/>
	<path class="st0" d="M85,73H75c-0.2,0-0.4,0.1-0.5,0.2c-0.3-5-4.4-9-9.5-9c-5.2,0-9.5,4.3-9.5,9.5c0,5.2,4.3,9.5,9.5,9.5
		c5.1,0,9.2-4,9.5-9c0.1,0.1,0.3,0.2,0.5,0.2h10c0.4,0,0.8-0.3,0.8-0.8S85.4,73,85,73z M65,81.8c-4.4,0-8-3.6-8-8c0-4.4,3.6-8,8-8
		s8,3.6,8,8C73,78.2,69.4,81.8,65,81.8z"/>
	<path class="st0" d="M50,73H35c-0.4,0-0.8,0.3-0.8,0.8s0.3,0.8,0.8,0.8h15c0.4,0,0.8-0.3,0.8-0.8S50.4,73,50,73z"/>
</g>
</svg>
