<svg width="23" height="23" viewBox="0 0 23 23" fill="none" xmlns="http://www.w3.org/2000/svg">
<path d="M9.58268 13.4167H13.416C13.6702 13.4167 13.9139 13.3157 14.0937 13.136C14.2734 12.9563 14.3743 12.7125 14.3743 12.4583C14.3743 12.2042 14.2734 11.9604 14.0937 11.7807C13.9139 11.601 13.6702 11.5 13.416 11.5H9.58268C9.32852 11.5 9.08476 11.601 8.90504 11.7807C8.72532 11.9604 8.62435 12.2042 8.62435 12.4583C8.62435 12.7125 8.72532 12.9563 8.90504 13.136C9.08476 13.3157 9.32852 13.4167 9.58268 13.4167V13.4167ZM18.2077 2.875H4.79102C4.02852 2.875 3.29725 3.1779 2.75808 3.71707C2.21892 4.25624 1.91602 4.9875 1.91602 5.75V8.625C1.91602 8.87917 2.01698 9.12292 2.1967 9.30264C2.37643 9.48237 2.62018 9.58333 2.87435 9.58333H3.83268V17.25C3.83268 18.0125 4.13558 18.7438 4.67475 19.2829C5.21392 19.8221 5.94519 20.125 6.70768 20.125H16.291C17.0535 20.125 17.7848 19.8221 18.3239 19.2829C18.8631 18.7438 19.166 18.0125 19.166 17.25V9.58333H20.1243C20.3785 9.58333 20.6223 9.48237 20.802 9.30264C20.9817 9.12292 21.0827 8.87917 21.0827 8.625V5.75C21.0827 4.9875 20.7798 4.25624 20.2406 3.71707C19.7014 3.1779 18.9702 2.875 18.2077 2.875ZM17.2493 17.25C17.2493 17.5042 17.1484 17.7479 16.9687 17.9276C16.7889 18.1074 16.5452 18.2083 16.291 18.2083H6.70768C6.45352 18.2083 6.20976 18.1074 6.03004 17.9276C5.85032 17.7479 5.74935 17.5042 5.74935 17.25V9.58333H17.2493V17.25ZM19.166 7.66667H3.83268V5.75C3.83268 5.49583 3.93365 5.25208 4.11337 5.07236C4.29309 4.89263 4.53685 4.79167 4.79102 4.79167H18.2077C18.4618 4.79167 18.7056 4.89263 18.8853 5.07236C19.0651 5.25208 19.166 5.49583 19.166 5.75V7.66667Z" fill="#1FC3A1"/>
</svg>
