<svg width="25" height="24" viewBox="0 0 25 24" fill="none" xmlns="http://www.w3.org/2000/svg">
<path d="M18.5797 12.42L12.3997 18.61C11.5895 19.33 10.5348 19.7132 9.45139 19.6814C8.36797 19.6495 7.33767 19.2048 6.57124 18.4384C5.80482 17.672 5.36018 16.6417 5.32829 15.5582C5.2964 14.4748 5.67966 13.4202 6.39967 12.61L14.3997 4.60997C14.8773 4.15627 15.5109 3.9033 16.1697 3.9033C16.8284 3.9033 17.462 4.15627 17.9397 4.60997C18.405 5.08156 18.6659 5.71744 18.6659 6.37997C18.6659 7.0425 18.405 7.67838 17.9397 8.14997L11.0397 15.04C10.9714 15.1135 10.8893 15.1729 10.798 15.2147C10.7068 15.2565 10.6082 15.2799 10.508 15.2836C10.4077 15.2874 10.3076 15.2713 10.2136 15.2363C10.1195 15.2014 10.0332 15.1483 9.95967 15.08C9.88613 15.0117 9.82676 14.9296 9.78495 14.8383C9.74314 14.7471 9.71971 14.6485 9.716 14.5483C9.71228 14.448 9.72836 14.3479 9.7633 14.2539C9.79825 14.1598 9.85138 14.0735 9.91967 14L15.0497 8.87997C15.238 8.69166 15.3438 8.43627 15.3438 8.16997C15.3438 7.90367 15.238 7.64827 15.0497 7.45997C14.8614 7.27166 14.606 7.16588 14.3397 7.16588C14.0734 7.16588 13.818 7.27166 13.6297 7.45997L8.49967 12.6C8.24298 12.8547 8.03924 13.1577 7.9002 13.4915C7.76117 13.8253 7.68959 14.1834 7.68959 14.545C7.68959 14.9066 7.76117 15.2646 7.9002 15.5984C8.03924 15.9323 8.24298 16.2353 8.49967 16.49C9.02404 16.9895 9.72048 17.2681 10.4447 17.2681C11.1689 17.2681 11.8653 16.9895 12.3897 16.49L19.2797 9.58997C20.0746 8.73692 20.5073 7.60864 20.4867 6.44283C20.4662 5.27703 19.9939 4.16472 19.1694 3.34024C18.3449 2.51576 17.2326 2.04349 16.0668 2.02292C14.901 2.00235 13.7727 2.43509 12.9197 3.22997L4.91967 11.23C3.84087 12.4248 3.2647 13.9898 3.3112 15.5989C3.35771 17.2081 4.0233 18.7372 5.16931 19.8677C6.31532 20.9983 7.85335 21.643 9.46296 21.6677C11.0726 21.6923 12.6296 21.0949 13.8097 20L19.9997 13.82C20.0929 13.7267 20.1669 13.616 20.2173 13.4942C20.2678 13.3724 20.2938 13.2418 20.2938 13.11C20.2938 12.9781 20.2678 12.8475 20.2173 12.7257C20.1669 12.6039 20.0929 12.4932 19.9997 12.4C19.9064 12.3067 19.7957 12.2328 19.6739 12.1823C19.5521 12.1318 19.4215 12.1059 19.2897 12.1059C19.1578 12.1059 19.0272 12.1318 18.9054 12.1823C18.7836 12.2328 18.6729 12.3067 18.5797 12.4V12.42Z" fill="#1FC3A1"/>
</svg>
