<svg width="40" height="40" viewBox="0 0 40 40" fill="none" xmlns="http://www.w3.org/2000/svg">
<rect x="0.5" y="0.5" width="39" height="39" rx="19.5" fill="#1FC3A1"/>
<path fill-rule="evenodd" clip-rule="evenodd" d="M12.2903 26.3077C11.9032 26.6948 11.9032 27.3224 12.2903 27.7095C12.6774 28.0965 13.305 28.0965 13.6921 27.7095L20 21.4016L26.3079 27.7095C26.695 28.0965 27.3225 28.0965 27.7096 27.7095C28.0967 27.3224 28.0967 26.6948 27.7096 26.3077L21.4017 19.9998L27.7095 13.6921C28.0965 13.305 28.0965 12.6774 27.7095 12.2903C27.3224 11.9032 26.6948 11.9032 26.3077 12.2903L20 18.5981L13.6922 12.2903C13.3051 11.9032 12.6775 11.9032 12.2905 12.2903C11.9034 12.6774 11.9034 13.305 12.2905 13.6921L18.5982 19.9998L12.2903 26.3077Z" fill="white"/>
<rect x="0.5" y="0.5" width="39" height="39" rx="19.5" stroke="#1FC3A1"/>
</svg>
