<svg width="16" height="16" viewBox="0 0 16 16" fill="none" xmlns="http://www.w3.org/2000/svg">
<path d="M12.4749 4.80667C12.413 4.74418 12.3392 4.69458 12.258 4.66074C12.1767 4.62689 12.0896 4.60947 12.0016 4.60947C11.9136 4.60947 11.8264 4.62689 11.7452 4.66074C11.664 4.69458 11.5902 4.74418 11.5283 4.80667L6.56159 9.78L4.47493 7.68667C4.41058 7.62451 4.33462 7.57563 4.25138 7.54283C4.16815 7.51003 4.07926 7.49394 3.98981 7.49549C3.90036 7.49703 3.81208 7.51619 3.73003 7.55185C3.64798 7.58751 3.57375 7.63898 3.51159 7.70333C3.44944 7.76768 3.40056 7.84364 3.36776 7.92688C3.33495 8.01011 3.31887 8.099 3.32041 8.18845C3.32196 8.2779 3.34111 8.36618 3.37678 8.44823C3.41244 8.53028 3.46391 8.60451 3.52826 8.66667L6.08826 11.2267C6.15024 11.2892 6.22397 11.3387 6.30521 11.3726C6.38645 11.4064 6.47359 11.4239 6.56159 11.4239C6.6496 11.4239 6.73674 11.4064 6.81798 11.3726C6.89922 11.3387 6.97295 11.2892 7.03493 11.2267L12.4749 5.78667C12.5426 5.72424 12.5966 5.64847 12.6335 5.56414C12.6705 5.4798 12.6895 5.38873 12.6895 5.29667C12.6895 5.2046 12.6705 5.11353 12.6335 5.02919C12.5966 4.94486 12.5426 4.86909 12.4749 4.80667V4.80667Z" fill="#1FC3A1"/>
</svg>
