<svg width="23" height="23" viewBox="0 0 23 23" fill="none" xmlns="http://www.w3.org/2000/svg">
<path d="M18.2077 3.83335H16.291V2.87502C16.291 2.62085 16.19 2.3771 16.0103 2.19738C15.8306 2.01765 15.5868 1.91669 15.3327 1.91669C15.0785 1.91669 14.8348 2.01765 14.655 2.19738C14.4753 2.3771 14.3743 2.62085 14.3743 2.87502V3.83335H8.62435V2.87502C8.62435 2.62085 8.52338 2.3771 8.34366 2.19738C8.16394 2.01765 7.92018 1.91669 7.66602 1.91669C7.41185 1.91669 7.16809 2.01765 6.98837 2.19738C6.80865 2.3771 6.70768 2.62085 6.70768 2.87502V3.83335H4.79102C4.02852 3.83335 3.29725 4.13625 2.75808 4.67542C2.21892 5.21459 1.91602 5.94586 1.91602 6.70835V18.2084C1.91602 18.9709 2.21892 19.7021 2.75808 20.2413C3.29725 20.7805 4.02852 21.0834 4.79102 21.0834H18.2077C18.9702 21.0834 19.7014 20.7805 20.2406 20.2413C20.7798 19.7021 21.0827 18.9709 21.0827 18.2084V6.70835C21.0827 5.94586 20.7798 5.21459 20.2406 4.67542C19.7014 4.13625 18.9702 3.83335 18.2077 3.83335V3.83335ZM19.166 18.2084C19.166 18.4625 19.0651 18.7063 18.8853 18.886C18.7056 19.0657 18.4618 19.1667 18.2077 19.1667H4.79102C4.53685 19.1667 4.29309 19.0657 4.11337 18.886C3.93365 18.7063 3.83268 18.4625 3.83268 18.2084V11.5H19.166V18.2084ZM19.166 9.58335H3.83268V6.70835C3.83268 6.45419 3.93365 6.21043 4.11337 6.03071C4.29309 5.85099 4.53685 5.75002 4.79102 5.75002H6.70768V6.70835C6.70768 6.96252 6.80865 7.20628 6.98837 7.386C7.16809 7.56572 7.41185 7.66669 7.66602 7.66669C7.92018 7.66669 8.16394 7.56572 8.34366 7.386C8.52338 7.20628 8.62435 6.96252 8.62435 6.70835V5.75002H14.3743V6.70835C14.3743 6.96252 14.4753 7.20628 14.655 7.386C14.8348 7.56572 15.0785 7.66669 15.3327 7.66669C15.5868 7.66669 15.8306 7.56572 16.0103 7.386C16.19 7.20628 16.291 6.96252 16.291 6.70835V5.75002H18.2077C18.4618 5.75002 18.7056 5.85099 18.8853 6.03071C19.0651 6.21043 19.166 6.45419 19.166 6.70835V9.58335Z" fill="#1FC3A1"/>
</svg>
