<svg width="18" height="15" viewBox="0 0 18 15" fill="none" xmlns="http://www.w3.org/2000/svg">
<path fill-rule="evenodd" clip-rule="evenodd" d="M0 1.5C0 0.671573 0.671573 0 1.5 0H1.50722C2.33565 0 3.00722 0.671573 3.00722 1.5C3.00722 2.32843 2.33565 3 1.50722 3H1.5C0.671573 3 0 2.32843 0 1.5ZM7.00732 1.5C7.00732 0.671573 7.6789 0 8.50732 0H8.51455C9.34297 0 10.0145 0.671573 10.0145 1.5C10.0145 2.32843 9.34297 3 8.51455 3H8.50732C7.6789 3 7.00732 2.32843 7.00732 1.5ZM14.0146 1.5C14.0146 0.671573 14.6862 0 15.5146 0H15.5219C16.3503 0 17.0219 0.671573 17.0219 1.5C17.0219 2.32843 16.3503 3 15.5219 3H15.5146C14.6862 3 14.0146 2.32843 14.0146 1.5ZM0 7.5C0 6.67157 0.671573 6 1.5 6H1.50722C2.33565 6 3.00722 6.67157 3.00722 7.5C3.00722 8.32843 2.33565 9 1.50722 9H1.5C0.671573 9 0 8.32843 0 7.5ZM7.00732 7.5C7.00732 6.67157 7.6789 6 8.50732 6H8.51455C9.34297 6 10.0145 6.67157 10.0145 7.5C10.0145 8.32843 9.34297 9 8.51455 9H8.50732C7.6789 9 7.00732 8.32843 7.00732 7.5ZM14.0146 7.5C14.0146 6.67157 14.6862 6 15.5146 6H15.5219C16.3503 6 17.0219 6.67157 17.0219 7.5C17.0219 8.32843 16.3503 9 15.5219 9H15.5146C14.6862 9 14.0146 8.32843 14.0146 7.5ZM0 13.5C0 12.6716 0.671573 12 1.5 12H1.50722C2.33565 12 3.00722 12.6716 3.00722 13.5C3.00722 14.3284 2.33565 15 1.50722 15H1.5C0.671573 15 0 14.3284 0 13.5ZM7.00732 13.5C7.00732 12.6716 7.6789 12 8.50732 12H8.51455C9.34297 12 10.0145 12.6716 10.0145 13.5C10.0145 14.3284 9.34297 15 8.51455 15H8.50732C7.6789 15 7.00732 14.3284 7.00732 13.5ZM14.0146 13.5C14.0146 12.6716 14.6862 12 15.5146 12H15.5219C16.3503 12 17.0219 12.6716 17.0219 13.5C17.0219 14.3284 16.3503 15 15.5219 15H15.5146C14.6862 15 14.0146 14.3284 14.0146 13.5Z" fill="#1FC3A1"/>
</svg>
