<svg width="61" height="60" viewBox="0 0 61 60" fill="none" xmlns="http://www.w3.org/2000/svg">
<path d="M16.5534 49.0612C11.0051 49.0612 6.24259 45.0846 5.25238 39.6149C4.70226 36.5971 5.37812 33.5479 7.12279 31.033C8.86745 28.5025 11.4923 26.8207 14.5101 26.2706L27.1 23.9915C27.7758 23.8658 28.4674 23.8029 29.1433 23.8029C34.6916 23.8029 39.4541 27.7795 40.4443 33.2492C40.9944 36.267 40.3185 39.3163 38.5739 41.8311C36.8292 44.3616 34.2044 46.0434 31.1866 46.5935L18.5967 48.8726C17.9208 48.9983 17.2293 49.0612 16.5534 49.0612Z" stroke="#F4252C" stroke-linecap="round" stroke-linejoin="round"/>
<path d="M24.3177 46.955C24.2391 46.8136 22.4159 43.4972 21.2685 37.0686C20.1368 30.6558 20.5141 26.0505 20.5298 25.8934" stroke="#F4252C" stroke-linecap="round" stroke-linejoin="round"/>
<path d="M22.4488 23.8186C22.1816 21.3667 22.7002 18.8361 24.052 16.6042C25.6395 13.9951 28.1543 12.1404 31.1406 11.4174C34.127 10.6944 37.2077 11.1659 39.8168 12.7534L50.7563 19.402C51.3379 19.7635 51.9037 20.1721 52.4067 20.6279C56.5561 24.3059 57.4835 30.4358 54.5914 35.1825C53.0039 37.7916 50.4891 39.6463 47.5027 40.3693C45.0822 40.9666 42.5988 40.7623 40.3512 39.8192" stroke="#F4252C" stroke-linecap="round" stroke-linejoin="round"/>
<path d="M37.7256 25.2961C41.1206 19.7477 44.4685 16.5571 44.5942 16.447" stroke="#F4252C" stroke-linecap="round" stroke-linejoin="round"/>
</svg>
