<svg width="30" height="30" viewBox="0 0 30 30" fill="none" xmlns="http://www.w3.org/2000/svg">
<g clip-path="url(#clip0_651_10594)">
<path d="M29.6016 15C29.6016 23.0081 23.1097 29.5 15.1016 29.5C7.09343 29.5 0.601562 23.0081 0.601562 15C0.601562 6.99187 7.09343 0.5 15.1016 0.5C23.1097 0.5 29.6016 6.99187 29.6016 15Z" fill="white" stroke="white"/>
<path fill-rule="evenodd" clip-rule="evenodd" d="M1.3798 12.48L1.09495 14.72C1.09495 14.7496 1.09495 14.7698 1.09193 14.7895C1.08542 14.8321 1.06486 14.8725 1 15L1 15C1.08146 14.984 1.16012 14.968 1.23646 14.9524L1.23647 14.9524C1.60509 14.8774 1.91973 14.8133 2.23436 14.8133C2.8818 14.7527 3.52924 14.702 4.17343 14.6514C5.5132 14.5464 6.83891 14.4424 8.12133 14.2533C11.5396 13.6933 13.7234 11.64 14.3881 8.28C14.6729 6.78667 14.8628 5.29333 14.9578 3.8C15.0201 3.18782 15.0007 2.6158 14.9799 2.00492V2.0049V2.00487C14.969 1.68441 14.9578 1.35326 14.9578 1C14.712 1.04833 14.4152 1.07163 14.1071 1.09583C13.8201 1.11836 13.5234 1.14166 13.2487 1.18667C7.36172 1.93333 2.32931 6.78667 1.3798 12.48ZM27.514 14.9277L27.514 14.9277L27.5141 14.9277C28.0016 14.9483 28.4955 14.9691 28.999 15C29.0904 7.47674 22.786 0.905791 15.9333 1.00102V1.00103C15.9333 3.76273 15.9333 6.52443 16.6643 9.1909C17.4866 11.7621 19.1312 13.5715 21.6895 14.2382L21.6896 14.2382C22.6033 14.4286 23.5169 14.6191 24.522 14.7143C25.5099 14.843 26.4978 14.8847 27.514 14.9277L27.514 14.9277ZM15 29C11.3562 28.9086 8.28767 27.7207 5.60274 25.4364C2.72603 22.8779 1.09589 19.6797 1 15.9333C1.62329 15.979 2.24658 16.0019 2.86986 16.0247C3.49315 16.0476 4.11644 16.0704 4.73973 16.1161C6.08219 16.2075 7.42466 16.3902 8.67123 16.6643C11.8356 17.3953 13.6575 19.3142 14.4247 22.3296C14.9041 24.4312 15 26.5329 15 28.6345V29ZM15.9333 29C22.6037 28.8172 28.7259 23.2434 29 15.9333C26.5329 15.9333 24.0657 16.0247 21.5986 16.7557C18.9487 17.4867 17.304 19.1315 16.573 21.8727C16.1161 23.6089 16.0247 25.345 15.9333 27.0811V29Z" fill="#1FC3A1"/>
</g>
<defs>
<clipPath id="clip0_651_10594">
<rect width="30" height="30" fill="white"/>
</clipPath>
</defs>
</svg>
