<svg width="23" height="23" viewBox="0 0 23 23" fill="none" xmlns="http://www.w3.org/2000/svg">
<path d="M4.79102 17.25H8.85435C8.98047 17.2508 9.1055 17.2266 9.22226 17.1789C9.33902 17.1312 9.44522 17.0609 9.53477 16.9721L16.1664 10.3309L18.8881 7.66669C18.9779 7.5776 19.0492 7.47161 19.0979 7.35483C19.1465 7.23804 19.1716 7.11278 19.1716 6.98627C19.1716 6.85976 19.1465 6.7345 19.0979 6.61772C19.0492 6.50094 18.9779 6.39495 18.8881 6.30586L14.8248 2.19461C14.7357 2.10478 14.6297 2.03349 14.5129 1.98484C14.3961 1.93618 14.2709 1.91113 14.1443 1.91113C14.0178 1.91113 13.8926 1.93618 13.7758 1.98484C13.659 2.03349 13.553 2.10478 13.4639 2.19461L10.7614 4.90669L4.1106 11.5479C4.02178 11.6375 3.95151 11.7437 3.90382 11.8604C3.85613 11.9772 3.83195 12.1022 3.83268 12.2284V16.2917C3.83268 16.5459 3.93365 16.7896 4.11337 16.9693C4.29309 17.1491 4.53685 17.25 4.79102 17.25ZM14.1443 4.22627L16.8564 6.93836L15.4956 8.29919L12.7835 5.58711L14.1443 4.22627ZM5.74935 12.6213L11.4323 6.93836L14.1443 9.65044L8.46143 15.3334H5.74935V12.6213ZM20.1243 19.1667H2.87435C2.62018 19.1667 2.37643 19.2677 2.1967 19.4474C2.01698 19.6271 1.91602 19.8709 1.91602 20.125C1.91602 20.3792 2.01698 20.6229 2.1967 20.8027C2.37643 20.9824 2.62018 21.0834 2.87435 21.0834H20.1243C20.3785 21.0834 20.6223 20.9824 20.802 20.8027C20.9817 20.6229 21.0827 20.3792 21.0827 20.125C21.0827 19.8709 20.9817 19.6271 20.802 19.4474C20.6223 19.2677 20.3785 19.1667 20.1243 19.1667Z" fill="#1FC3A1"/>
</svg>
