<svg width="22" height="16" viewBox="0 0 22 16" fill="none" xmlns="http://www.w3.org/2000/svg">
<path fill-rule="evenodd" clip-rule="evenodd" d="M0.5 2C0.5 1.17157 1.17157 0.5 2 0.5H2.01C2.83843 0.5 3.51 1.17157 3.51 2C3.51 2.82843 2.83843 3.5 2.01 3.5H2C1.17157 3.5 0.5 2.82843 0.5 2ZM5.5 2C5.5 1.17157 6.17157 0.5 7 0.5H20C20.8284 0.5 21.5 1.17157 21.5 2C21.5 2.82843 20.8284 3.5 20 3.5H7C6.17157 3.5 5.5 2.82843 5.5 2ZM0.5 8C0.5 7.17157 1.17157 6.5 2 6.5H2.01C2.83843 6.5 3.51 7.17157 3.51 8C3.51 8.82843 2.83843 9.5 2.01 9.5H2C1.17157 9.5 0.5 8.82843 0.5 8ZM5.5 8C5.5 7.17157 6.17157 6.5 7 6.5H20C20.8284 6.5 21.5 7.17157 21.5 8C21.5 8.82843 20.8284 9.5 20 9.5H7C6.17157 9.5 5.5 8.82843 5.5 8ZM0.5 14C0.5 13.1716 1.17157 12.5 2 12.5H2.01C2.83843 12.5 3.51 13.1716 3.51 14C3.51 14.8284 2.83843 15.5 2.01 15.5H2C1.17157 15.5 0.5 14.8284 0.5 14ZM5.5 14C5.5 13.1716 6.17157 12.5 7 12.5H20C20.8284 12.5 21.5 13.1716 21.5 14C21.5 14.8284 20.8284 15.5 20 15.5H7C6.17157 15.5 5.5 14.8284 5.5 14Z" fill="white"/>
</svg>
