<svg width="24" height="24" viewBox="0 0 24 24" fill="none" xmlns="http://www.w3.org/2000/svg">
<path d="M18.0009 4.47997C16.4096 2.88867 14.2513 1.99469 12.0009 1.99469C9.75047 1.99469 7.59221 2.88867 6.00091 4.47997C4.40961 6.07127 3.51563 8.22954 3.51563 10.48C3.51562 12.7304 4.40961 14.8887 6.00091 16.48L11.2709 21.76C11.3639 21.8537 11.4745 21.9281 11.5963 21.9789C11.7182 22.0296 11.8489 22.0558 11.9809 22.0558C12.1129 22.0558 12.2436 22.0296 12.3655 21.9789C12.4873 21.9281 12.5979 21.8537 12.6909 21.76L18.0009 16.43C19.5856 14.8453 20.4758 12.696 20.4758 10.455C20.4758 8.21392 19.5856 6.06465 18.0009 4.47997V4.47997ZM16.5709 15L12.0009 19.59L7.43091 15C6.52805 14.0963 5.91338 12.9452 5.6646 11.6923C5.41582 10.4393 5.54409 9.14072 6.03321 7.96065C6.52233 6.78059 7.35032 5.77202 8.41254 5.06245C9.47475 4.35288 10.7235 3.97415 12.0009 3.97415C13.2783 3.97415 14.5271 4.35288 15.5893 5.06245C16.6515 5.77202 17.4795 6.78059 17.9686 7.96065C18.4577 9.14072 18.586 10.4393 18.3372 11.6923C18.0884 12.9452 17.4738 14.0963 16.5709 15V15ZM9.00091 7.40997C8.19362 8.21974 7.7403 9.31654 7.7403 10.46C7.7403 11.6034 8.19362 12.7002 9.00091 13.51C9.60067 14.1108 10.3645 14.5211 11.1966 14.6894C12.0286 14.8577 12.8919 14.7766 13.678 14.4561C14.4641 14.1357 15.1381 13.5903 15.6154 12.8882C16.0927 12.1862 16.352 11.3588 16.3609 10.51C16.3654 9.94318 16.2562 9.38123 16.0398 8.85736C15.8234 8.33349 15.5041 7.85833 15.1009 7.45997C14.7046 7.05455 14.232 6.73151 13.7103 6.50944C13.1887 6.28737 12.6282 6.17065 12.0613 6.166C11.4944 6.16135 10.9321 6.26887 10.4069 6.48236C9.88165 6.69585 9.40383 7.0111 9.00091 7.40997V7.40997ZM13.6909 12.09C13.3119 12.4747 12.8111 12.7159 12.274 12.7722C11.737 12.8286 11.197 12.6966 10.7464 12.3989C10.2959 12.1012 9.9627 11.6562 9.80391 11.1401C9.64512 10.6239 9.67056 10.0686 9.87586 9.56913C10.0812 9.06964 10.4536 8.65699 10.9295 8.40171C11.4054 8.14643 11.9552 8.06438 12.4848 8.16959C13.0145 8.2748 13.4912 8.56073 13.8334 8.9785C14.1756 9.39627 14.3621 9.91994 14.3609 10.46C14.3464 11.0772 14.0874 11.6635 13.6409 12.09H13.6909Z" fill="#1FC3A1"/>
</svg>
