<svg width="61" height="60" viewBox="0 0 61 60" fill="none" xmlns="http://www.w3.org/2000/svg">
<circle cx="30.9648" cy="30" r="30" fill="#1FC3A1"/>
<path d="M33.0807 30L42.5307 20.565C42.8132 20.2825 42.9719 19.8994 42.9719 19.5C42.9719 19.1005 42.8132 18.7174 42.5307 18.435C42.2483 18.1525 41.8652 17.9938 41.4657 17.9938C41.0663 17.9938 40.6832 18.1525 40.4007 18.435L30.9657 27.885L21.5307 18.435C21.2483 18.1525 20.8652 17.9938 20.4657 17.9938C20.0663 17.9938 19.6832 18.1525 19.4007 18.435C19.1183 18.7174 18.9596 19.1005 18.9596 19.5C18.9596 19.8994 19.1183 20.2825 19.4007 20.565L28.8507 30L19.4007 39.435C19.2601 39.5744 19.1485 39.7403 19.0724 39.9231C18.9962 40.1059 18.957 40.302 18.957 40.5C18.957 40.698 18.9962 40.894 19.0724 41.0768C19.1485 41.2596 19.2601 41.4255 19.4007 41.565C19.5402 41.7056 19.7061 41.8172 19.8889 41.8933C20.0717 41.9695 20.2677 42.0087 20.4657 42.0087C20.6637 42.0087 20.8598 41.9695 21.0426 41.8933C21.2254 41.8172 21.3913 41.7056 21.5307 41.565L30.9657 32.115L40.4007 41.565C40.5402 41.7056 40.7061 41.8172 40.8889 41.8933C41.0717 41.9695 41.2677 42.0087 41.4657 42.0087C41.6637 42.0087 41.8598 41.9695 42.0426 41.8933C42.2254 41.8172 42.3913 41.7056 42.5307 41.565C42.6713 41.4255 42.7829 41.2596 42.8591 41.0768C42.9352 40.894 42.9744 40.698 42.9744 40.5C42.9744 40.302 42.9352 40.1059 42.8591 39.9231C42.7829 39.7403 42.6713 39.5744 42.5307 39.435L33.0807 30Z" fill="white"/>
</svg>
