<svg width="30" height="30" viewBox="0 0 30 30" fill="none" xmlns="http://www.w3.org/2000/svg">
<g clip-path="url(#clip0_592_13833)">
<path d="M29.4016 15C29.4016 22.9529 22.9545 29.4 15.0016 29.4C7.04866 29.4 0.601562 22.9529 0.601562 15C0.601562 7.04707 7.04866 0.599976 15.0016 0.599976C22.9545 0.599976 29.4016 7.04707 29.4016 15Z" fill="#1FC3A1" stroke="white"/>
<path d="M15 4.59982C17.9 4.59982 20.3 6.99982 20.3 9.99982C20.3 12.9998 17.9 15.3998 14.9 15.3998C12 15.3998 9.5 13.0998 9.5 9.99982C9.6 6.79982 12.2 4.49982 15 4.59982Z" fill="white"/>
<path d="M17.4014 19.8999C18.3014 20.7999 19.3014 21.6999 20.2014 22.6999C20.6014 23.0999 20.8014 23.6999 20.6014 24.2999C20.4014 24.8999 20.0014 25.2999 19.4014 25.3999C18.8014 25.4999 18.3014 25.2999 17.9014 24.8999C17.0014 23.9999 16.1014 23.0999 15.2014 22.1999C15.1014 22.0999 15.1014 22.0999 15.0014 21.9999H14.9014C14.9014 22.0999 14.8014 22.1999 14.7014 22.1999C13.8014 23.0999 12.9014 23.9999 12.0014 24.8999C11.5014 25.3999 11.0014 25.4999 10.4014 25.2999C9.80141 25.0999 9.40141 24.6999 9.30141 23.9999C9.20141 23.4999 9.40141 22.9999 9.80141 22.6999C10.7014 21.7999 11.6014 20.8999 12.6014 19.8999C12.7014 19.7999 12.7014 19.7999 12.8014 19.6999C12.7014 19.6999 12.6014 19.5999 12.5014 19.5999C11.5014 19.2999 10.6014 18.8999 9.70141 18.3999C9.00141 17.9999 8.70141 16.9999 9.20141 16.2999C9.70141 15.4999 10.6014 15.2999 11.4014 15.7999C13.8014 17.1999 16.2014 17.1999 18.6014 15.7999C19.4014 15.2999 20.4014 15.4999 20.8014 16.2999C21.3014 17.0999 21.0014 17.9999 20.2014 18.4999C19.3014 19.0999 18.3014 19.4999 17.2014 19.6999L17.1014 19.7999C17.2014 19.7999 17.3014 19.8999 17.4014 19.8999Z" fill="white"/>
<path d="M15.0008 12.1998C16.2008 12.1998 17.2008 11.1998 17.2008 9.9998C17.2008 8.7998 16.2008 7.7998 15.0008 7.7998C13.8008 7.7998 12.8008 8.7998 12.8008 9.9998C12.8008 11.1998 13.8008 12.1998 15.0008 12.1998Z" fill="#1FC3A1"/>
</g>
<defs>
<clipPath id="clip0_592_13833">
<rect width="30" height="30" fill="white"/>
</clipPath>
</defs>
</svg>
