<svg width="30" height="30" viewBox="0 0 30 30" fill="none" xmlns="http://www.w3.org/2000/svg">
<path d="M24.6669 17.2707C24.2675 16.8769 23.3806 16.6688 22.0306 16.65C20.9701 16.6512 19.9111 16.7289 18.8619 16.8825C18.3444 16.5844 17.81 16.2582 17.3919 15.8663C16.265 14.8144 15.3237 13.3538 14.7387 11.7469C14.7762 11.5969 14.81 11.4657 14.84 11.3306C14.84 11.3306 15.4756 7.72502 15.3069 6.50627C15.2944 6.38818 15.2667 6.27221 15.2244 6.16127L15.17 6.01877C14.9975 5.62127 14.6581 5.1994 14.1275 5.2219L13.8069 5.21252C13.2144 5.21252 12.7325 5.5144 12.6069 5.96815C12.2225 7.38752 12.62 9.51002 13.3381 12.2588L13.1544 12.7069C12.6387 13.9631 11.9937 15.2288 11.4237 16.3444L11.3487 16.4888C10.7487 17.6625 10.205 18.6581 9.71186 19.5019L9.20374 19.7719C9.16624 19.7907 8.29436 20.2538 8.08999 20.3775C6.35374 21.4144 5.20436 22.59 5.01311 23.5238C4.95311 23.8219 4.99811 24.2025 5.30561 24.3788L5.79874 24.6263C6.00615 24.7317 6.23544 24.787 6.46811 24.7875C7.70374 24.7875 9.13999 23.2481 11.1181 19.7963C13.4562 19.0404 15.8506 18.4711 18.2787 18.0938C20.015 19.0706 22.1506 19.7494 23.4969 19.7494C23.7369 19.7494 23.9431 19.7269 24.11 19.6819C24.3569 19.6218 24.5735 19.4738 24.7194 19.2656C24.98 18.8719 25.0344 18.33 24.9631 17.775C24.9183 17.5799 24.8157 17.4028 24.6687 17.2669L24.6669 17.2707ZM6.19999 23.85C6.42499 23.2332 7.31749 22.0144 8.63749 20.9325C8.71999 20.865 8.92436 20.6738 9.11186 20.4956C7.73186 22.6969 6.80749 23.5744 6.19999 23.8482V23.85ZM14.0169 5.85002C14.4144 5.85002 14.6412 6.85127 14.66 7.79065C14.6787 8.73002 14.4594 9.39002 14.1875 9.87752C13.9625 9.15565 13.8519 8.01752 13.8519 7.27315C13.8519 7.27315 13.835 5.85002 14.0169 5.85002ZM11.6844 18.6769C11.9619 18.1819 12.2487 17.6588 12.5431 17.1038C13.2612 15.7463 13.7131 14.685 14.0506 13.8131C14.6843 14.9875 15.5283 16.0355 16.5406 16.905C16.6625 17.0081 16.7937 17.1132 16.9287 17.2163C14.93 17.6119 13.205 18.0919 11.6844 18.6769ZM24.2844 18.5644C24.1625 18.6413 23.8137 18.6844 23.5906 18.6844C22.8669 18.6844 21.9706 18.3544 20.7162 17.8144C21.1981 17.7788 21.6406 17.76 22.0381 17.76C22.7637 17.76 22.9794 17.7563 23.6881 17.9382C24.3969 18.12 24.4062 18.4875 24.2844 18.5625V18.5644Z" fill="#F4252C"/>
<path d="M26.8894 6.71063C26.2387 5.82375 25.3313 4.785 24.3356 3.78937C23.34 2.79375 22.3012 1.88625 21.4144 1.23562C19.9031 0.1275 19.17 0 18.75 0H4.21875C2.92687 0 1.875 1.05187 1.875 2.34375V27.6562C1.875 28.9481 2.92687 30 4.21875 30H25.7812C27.0731 30 28.125 28.9481 28.125 27.6562V9.375C28.125 8.955 27.9975 8.22188 26.8894 6.71063ZM23.0081 5.11688C23.9081 6.01688 24.6131 6.82688 25.1344 7.5H20.6231V2.99063C21.2962 3.51188 22.11 4.21688 23.0081 5.11688ZM26.25 27.6562C26.25 27.9112 26.0362 28.125 25.7812 28.125H4.21875C4.09488 28.1235 3.9765 28.0737 3.88891 27.9861C3.80132 27.8985 3.75146 27.7801 3.75 27.6562V2.34375C3.75 2.09063 3.96563 1.875 4.21875 1.875H18.75V8.4375C18.75 8.68614 18.8488 8.9246 19.0246 9.10041C19.2004 9.27623 19.4389 9.375 19.6875 9.375H26.25V27.6562Z" fill="#F4252C"/>
</svg>
