<svg width="30" height="30" viewBox="0 0 30 30" fill="none" xmlns="http://www.w3.org/2000/svg">
<path fill-rule="evenodd" clip-rule="evenodd" d="M10 20V26.25H20V20H26.25V10H20V3.75H10V10H3.75V20H10ZM16.5625 10.3144H14.9188C14.8606 10.3116 14.8026 10.3217 14.7487 10.3437C14.2269 10.5981 13.8994 11.0475 13.6987 11.58C13.6612 11.6781 13.6294 11.7775 13.6012 11.8769H12.315C12.3663 11.635 12.4356 11.385 12.5294 11.1381C12.8056 10.4062 13.31 9.655 14.2006 9.22C14.4253 9.11429 14.6711 9.06087 14.9194 9.06375H16.5631C16.7289 9.06375 16.8879 9.1296 17.0051 9.24681C17.1223 9.36402 17.1881 9.52299 17.1881 9.68875C17.1881 9.85451 17.1223 10.0135 17.0051 10.1307C16.8879 10.2479 16.7289 10.3138 16.5631 10.3138L16.5625 10.3144ZM11.25 12.5019C10.905 12.5019 10.6169 12.7869 10.7106 13.1194C11.0712 14.4062 12.5394 15.4075 14.375 15.595V16.5688C13.9406 16.5794 13.4894 16.6144 13.1062 16.7256C12.8075 16.8131 12.4906 16.9619 12.2481 17.2344C11.9944 17.5194 11.875 17.8794 11.875 18.2812C11.875 18.6831 11.9938 19.0438 12.2475 19.3294C12.49 19.6025 12.8069 19.7525 13.1062 19.84C13.3062 19.8981 13.525 19.9356 13.75 19.9594V18.7013C13.6508 18.6878 13.5526 18.6673 13.4563 18.64C13.2875 18.59 13.2131 18.535 13.1825 18.5C13.1625 18.4775 13.125 18.4269 13.125 18.2812C13.125 18.1375 13.1625 18.0875 13.1813 18.0656C13.2125 18.0306 13.2863 17.975 13.4563 17.9256C13.6956 17.8562 14.0044 17.83 14.375 17.82V21.2519H12.5V22.5019H17.5V21.2519H15.625V17.7912C16.3137 17.7375 16.8719 17.5862 17.2919 17.3156C17.8825 16.9344 18.125 16.3675 18.125 15.7656C18.13 15.4442 18.0502 15.1271 17.8937 14.8462C18.5962 14.4025 19.0981 13.8012 19.2894 13.1194C19.3831 12.7869 19.0956 12.5019 18.75 12.5019H11.25ZM15.625 16.5363C16.1306 16.4875 16.4375 16.3788 16.6144 16.265C16.805 16.1419 16.875 15.9975 16.875 15.7656C16.875 15.59 16.835 15.4706 16.7319 15.3719C16.3713 15.4824 16.0008 15.5571 15.6256 15.595L15.625 16.5363Z" fill="#1FC3A1"/>
</svg>
