<svg width="30" height="30" viewBox="0 0 30 30" fill="none" xmlns="http://www.w3.org/2000/svg">
<path d="M25.0059 16.2871V23.9336H16.5391V18.2207C16.5391 15.7988 16.8027 13.6992 17.3301 11.9219C17.8574 10.1445 18.6777 8.50391 19.791 7H25.123C23.9121 8.52344 22.9648 10.1055 22.2812 11.7461C21.6172 13.3672 21.2852 14.8809 21.2852 16.2871H25.0059ZM12.4082 16.2871V23.9336H4V18.2207C4 15.8574 4.25391 13.7773 4.76172 11.9805C5.26953 10.1641 6.07031 8.50391 7.16406 7H12.5254C11.3145 8.52344 10.3672 10.1055 9.68359 11.7461C9.01953 13.3672 8.6875 14.8809 8.6875 16.2871H12.4082Z" fill="#1FC3A1"/>
</svg>
