<svg width="24" height="24" viewBox="0 0 24 24" fill="none" xmlns="http://www.w3.org/2000/svg">
<path d="M17.9987 14C17.4079 14.0039 16.8252 14.1386 16.2927 14.3945C15.7601 14.6504 15.2909 15.0211 14.9187 15.48L9.81869 13.13C10.0585 12.3957 10.0585 11.6042 9.81869 10.87L14.9187 8.51999C15.5203 9.24596 16.359 9.73607 17.2868 9.90383C18.2146 10.0716 19.1719 9.90622 19.9896 9.4369C20.8074 8.96757 21.4331 8.22447 21.7562 7.33874C22.0794 6.453 22.0793 5.48157 21.756 4.5959C21.4326 3.71022 20.8068 2.96724 19.989 2.49806C19.1712 2.02889 18.2139 1.86369 17.2861 2.03162C16.3583 2.19955 15.5197 2.68981 14.9182 3.41589C14.3167 4.14196 13.9911 5.05717 13.9987 5.99999C14.0017 6.23822 14.0251 6.47576 14.0687 6.70999L8.78869 9.13999C8.22576 8.58957 7.51293 8.21751 6.73949 8.07042C5.96605 7.92333 5.1664 8.00776 4.44074 8.31312C3.71507 8.61849 3.09565 9.13121 2.66009 9.78705C2.22452 10.4429 1.99219 11.2127 1.99219 12C1.99219 12.7873 2.22452 13.5571 2.66009 14.2129C3.09565 14.8688 3.71507 15.3815 4.44074 15.6869C5.1664 15.9922 5.96605 16.0767 6.73949 15.9296C7.51293 15.7825 8.22576 15.4104 8.78869 14.86L14.0687 17.29C14.0251 17.5242 14.0017 17.7618 13.9987 18C13.9987 18.7911 14.2333 19.5645 14.6728 20.2223C15.1123 20.8801 15.737 21.3928 16.468 21.6955C17.1989 21.9983 18.0031 22.0775 18.779 21.9231C19.555 21.7688 20.2677 21.3878 20.8271 20.8284C21.3865 20.269 21.7675 19.5563 21.9218 18.7804C22.0762 18.0044 21.997 17.2002 21.6942 16.4693C21.3915 15.7384 20.8788 15.1136 20.221 14.6741C19.5632 14.2346 18.7898 14 17.9987 14ZM17.9987 3.99999C18.3942 3.99999 18.7809 4.11729 19.1098 4.33705C19.4387 4.55682 19.6951 4.86917 19.8464 5.23463C19.9978 5.60008 20.0374 6.00221 19.9603 6.39017C19.8831 6.77813 19.6926 7.1345 19.4129 7.41421C19.1332 7.69391 18.7768 7.88439 18.3889 7.96156C18.0009 8.03873 17.5988 7.99913 17.2333 7.84775C16.8679 7.69638 16.5555 7.44003 16.3357 7.11113C16.116 6.78223 15.9987 6.39555 15.9987 5.99999C15.9987 5.46956 16.2094 4.96085 16.5845 4.58578C16.9595 4.21071 17.4683 3.99999 17.9987 3.99999V3.99999ZM5.99869 14C5.60312 14 5.21644 13.8827 4.88755 13.6629C4.55865 13.4432 4.3023 13.1308 4.15093 12.7654C3.99955 12.3999 3.95994 11.9978 4.03711 11.6098C4.11429 11.2218 4.30477 10.8655 4.58447 10.5858C4.86418 10.3061 5.22054 10.1156 5.6085 10.0384C5.99647 9.96125 6.3986 10.0009 6.76405 10.1522C7.1295 10.3036 7.44186 10.56 7.66162 10.8889C7.88139 11.2178 7.99869 11.6044 7.99869 12C7.99869 12.5304 7.78797 13.0391 7.4129 13.4142C7.03783 13.7893 6.52912 14 5.99869 14ZM17.9987 20C17.6031 20 17.2164 19.8827 16.8875 19.6629C16.5586 19.4432 16.3023 19.1308 16.1509 18.7654C15.9996 18.3999 15.9599 17.9978 16.0371 17.6098C16.1143 17.2218 16.3048 16.8655 16.5845 16.5858C16.8642 16.3061 17.2205 16.1156 17.6085 16.0384C17.9965 15.9613 18.3986 16.0009 18.7641 16.1522C19.1295 16.3036 19.4419 16.56 19.6616 16.8889C19.8814 17.2177 19.9987 17.6044 19.9987 18C19.9987 18.5304 19.788 19.0391 19.4129 19.4142C19.0378 19.7893 18.5291 20 17.9987 20Z" fill="#1FC3A1"/>
</svg>
