<svg width="24" height="24" viewBox="0 0 24 24" fill="none" xmlns="http://www.w3.org/2000/svg">
<path d="M19.4386 13.0001C19.2186 13.0001 18.9886 12.9301 18.7686 12.8801C18.3231 12.7819 17.8853 12.6516 17.4586 12.4901C16.9947 12.3213 16.4848 12.3301 16.0269 12.5147C15.5691 12.6993 15.1957 13.0467 14.9786 13.4901L14.7586 13.9401C13.7846 13.3983 12.8896 12.7253 12.0986 11.9401C11.3134 11.1491 10.6405 10.2541 10.0986 9.28011L10.5186 9.00011C10.962 8.78303 11.3094 8.40964 11.494 7.9518C11.6786 7.49396 11.6874 6.98402 11.5186 6.52011C11.3599 6.09253 11.2296 5.65491 11.1286 5.21011C11.0786 4.99011 11.0386 4.76011 11.0086 4.53011C10.8872 3.82573 10.5183 3.18785 9.96826 2.73135C9.41825 2.27485 8.72333 2.02972 8.00864 2.04011H5.00864C4.57767 2.03607 4.15089 2.12493 3.75735 2.30064C3.36381 2.47636 3.01275 2.73481 2.72807 3.05839C2.44339 3.38198 2.23177 3.76311 2.10762 4.17583C1.98348 4.58855 1.94972 5.02317 2.00864 5.45011C2.54137 9.63949 4.45466 13.532 7.44629 16.5127C10.4379 19.4935 14.3373 21.3926 18.5286 21.9101H18.9086C19.6461 21.9112 20.358 21.6406 20.9086 21.1501C21.225 20.8672 21.4777 20.5203 21.6501 20.1324C21.8225 19.7446 21.9106 19.3245 21.9086 18.9001V15.9001C21.8964 15.2055 21.6434 14.5367 21.193 14.0078C20.7425 13.4789 20.1225 13.1227 19.4386 13.0001ZM19.9386 19.0001C19.9385 19.1421 19.908 19.2824 19.8494 19.4117C19.7908 19.5411 19.7053 19.6564 19.5986 19.7501C19.4872 19.8471 19.3566 19.9195 19.2153 19.9626C19.074 20.0057 18.9252 20.0185 18.7786 20.0001C15.0335 19.5199 11.5549 17.8066 8.89135 15.1304C6.22783 12.4542 4.53105 8.96745 4.06864 5.22011C4.05272 5.07363 4.06667 4.92544 4.10964 4.7845C4.15261 4.64356 4.22371 4.5128 4.31864 4.40011C4.41235 4.29344 4.5277 4.20795 4.65701 4.14933C4.78633 4.09071 4.92665 4.06029 5.06864 4.06011H8.06864C8.30118 4.05494 8.52826 4.13099 8.71078 4.27518C8.8933 4.41937 9.01985 4.62268 9.06864 4.85011C9.10864 5.12345 9.15864 5.39345 9.21864 5.66011C9.33416 6.18726 9.4879 6.70529 9.67864 7.21011L8.27864 7.86011C8.15893 7.91503 8.05126 7.99306 7.96179 8.08971C7.87233 8.18636 7.80284 8.29973 7.75731 8.42331C7.71178 8.54689 7.69111 8.67824 7.69648 8.80983C7.70186 8.94142 7.73318 9.07066 7.78864 9.19011C9.22784 12.2729 11.7059 14.7509 14.7886 16.1901C15.0321 16.2901 15.3052 16.2901 15.5486 16.1901C15.6733 16.1455 15.788 16.0766 15.8858 15.9873C15.9837 15.898 16.0628 15.7902 16.1186 15.6701L16.7386 14.2701C17.2556 14.455 17.7832 14.6086 18.3186 14.7301C18.5853 14.7901 18.8553 14.8401 19.1286 14.8801C19.3561 14.9289 19.5594 15.0554 19.7036 15.238C19.8478 15.4205 19.9238 15.6476 19.9186 15.8801L19.9386 19.0001Z" fill="#1FC3A1"/>
</svg>
