<svg width="23" height="23" viewBox="0 0 23 23" fill="none" xmlns="http://www.w3.org/2000/svg">
<path d="M15.056 12.1804C15.9955 11.4412 16.6813 10.4275 17.0179 9.28042C17.3545 8.13332 17.3252 6.90981 16.9341 5.78013C16.543 4.65045 15.8095 3.67077 14.8356 2.97738C13.8618 2.28399 12.696 1.91138 11.5005 1.91138C10.3051 1.91138 9.13932 2.28399 8.16548 2.97738C7.19164 3.67077 6.45813 4.65045 6.067 5.78013C5.67587 6.90981 5.64658 8.13332 5.98319 9.28042C6.31981 10.4275 7.00559 11.4412 7.94513 12.1804C6.3352 12.8254 4.93049 13.8952 3.88073 15.2757C2.83098 16.6563 2.17554 18.2958 1.9843 20.0196C1.97045 20.1454 1.98153 20.2728 2.0169 20.3943C2.05227 20.5159 2.11124 20.6293 2.19044 20.7281C2.3504 20.9276 2.58305 21.0554 2.83721 21.0833C3.09138 21.1113 3.34624 21.0371 3.54573 20.8772C3.74522 20.7172 3.873 20.4846 3.90096 20.2304C4.1114 18.357 5.00466 16.6269 6.41009 15.3705C7.81552 14.1141 9.63457 13.4195 11.5197 13.4195C13.4049 13.4195 15.2239 14.1141 16.6293 15.3705C18.0348 16.6269 18.928 18.357 19.1385 20.2304C19.1645 20.4659 19.2769 20.6834 19.4539 20.8409C19.6308 20.9984 19.8599 21.0847 20.0968 21.0833H20.2022C20.4534 21.0544 20.683 20.9274 20.841 20.7299C20.999 20.5325 21.0725 20.2806 21.0455 20.0291C20.8534 18.3005 20.1944 16.6568 19.1393 15.2741C18.0841 13.8914 16.6726 12.822 15.056 12.1804V12.1804ZM11.5005 11.5C10.7424 11.5 10.0012 11.2752 9.37086 10.8539C8.74047 10.4327 8.24914 9.83405 7.95901 9.1336C7.66887 8.43315 7.59296 7.66239 7.74087 6.9188C7.88878 6.1752 8.25387 5.49217 8.78997 4.95607C9.32607 4.41997 10.0091 4.05488 10.7527 3.90697C11.4963 3.75906 12.267 3.83497 12.9675 4.12511C13.6679 4.41524 14.2666 4.90657 14.6878 5.53696C15.1091 6.16735 15.3339 6.90848 15.3339 7.66664C15.3339 8.68331 14.93 9.65833 14.2111 10.3772C13.4922 11.0961 12.5172 11.5 11.5005 11.5Z" fill="#1FC3A1"/>
</svg>
