<svg width="30" height="30" viewBox="0 0 30 30" fill="none" xmlns="http://www.w3.org/2000/svg">
<g clip-path="url(#clip0_592_13830)">
<path d="M0 15C0 6.71573 6.71573 0 15 0C23.2843 0 30 6.71573 30 15C30 23.2843 23.2843 30 15 30C6.71573 30 0 23.2843 0 15Z" fill="white"/>
<path d="M15 1C7.27586 1 1 7.27586 1 15C1 22.7242 7.27586 29 15 29C22.7242 29 29 22.7242 29 15C29 7.27586 22.7242 1 15 1ZM21.0771 16.8459C21.1907 16.9878 21.4463 17.2435 21.8722 17.641L21.9006 17.6693C22.8093 18.5213 23.4341 19.2313 23.7465 19.8276C23.7748 19.8559 23.7748 19.9128 23.8032 19.9412C23.8317 19.998 23.86 20.0831 23.86 20.1968C23.8884 20.3104 23.8884 20.424 23.86 20.5376C23.8317 20.6227 23.7465 20.7363 23.6045 20.7931C23.4624 20.8783 23.2637 20.9067 23.0365 20.9067L20.5943 20.9635C20.4523 20.9919 20.2535 20.9919 20.0547 20.9067C19.8559 20.8499 19.6856 20.7647 19.5437 20.6795L19.3449 20.5943C19.1461 20.4523 18.9189 20.2535 18.6632 19.9695C18.4077 19.6856 18.1805 19.43 18.0102 19.2028C17.8398 18.9756 17.641 18.8053 17.4138 18.6349C17.215 18.4929 17.0162 18.4361 16.8742 18.4929C16.8459 18.4929 16.8175 18.5213 16.789 18.5213C16.7606 18.5497 16.7039 18.5781 16.6187 18.6632C16.5335 18.7485 16.4766 18.8337 16.4199 18.9473C16.363 19.0608 16.3063 19.2313 16.2495 19.4584C16.1927 19.6856 16.1927 19.9412 16.1927 20.2252C16.1927 20.3104 16.1927 20.424 16.1643 20.4807C16.1359 20.5659 16.1075 20.6227 16.0791 20.6511L16.0507 20.7079C15.9372 20.8215 15.7667 20.9067 15.5396 20.9351H14.4321C13.9777 20.9635 13.4949 20.9067 13.0122 20.7647C12.5294 20.6227 12.1035 20.4523 11.7343 20.2535C11.3651 20.0547 11.0244 19.8276 10.7404 19.6004C10.428 19.3732 10.2008 19.2028 10.0588 19.0325L9.80325 18.8053C9.74645 18.7485 9.66126 18.6349 9.54766 18.5213C9.43408 18.3793 9.20689 18.0953 8.86612 17.641C8.52535 17.1866 8.18459 16.7039 7.84382 16.1643C7.50305 15.6531 7.10547 14.9716 6.65112 14.1197C6.19675 13.2677 5.77079 12.3874 5.37323 11.4787C5.28803 11.3935 5.25963 11.3083 5.25963 11.2231C5.25963 11.1663 5.25963 11.1095 5.28803 11.0811L5.31643 11.0244C5.40162 10.9108 5.60041 10.8256 5.85598 10.8256L8.52535 10.7972C8.61055 10.7972 8.66734 10.8256 8.75254 10.8539C8.83773 10.8823 8.86612 10.9108 8.89453 10.9392L8.95132 10.9675C9.06491 11.0527 9.12171 11.138 9.1785 11.2799C9.32049 11.5923 9.46248 11.9331 9.63286 12.2738C9.80325 12.6146 9.94523 12.8986 10.0304 13.0689L10.1724 13.3529C10.3712 13.7505 10.5416 14.0913 10.712 14.3752C10.8823 14.6592 11.0527 14.8864 11.1947 15.0284C11.3368 15.1988 11.4787 15.3124 11.5923 15.3976C11.7343 15.4827 11.8195 15.5396 11.9331 15.5396C12.0183 15.5396 12.1035 15.5112 12.1886 15.4827C12.1886 15.4827 12.2171 15.4543 12.2455 15.426C12.2738 15.3976 12.3022 15.3408 12.359 15.1988C12.4158 15.0852 12.4726 14.9432 12.501 14.7445C12.5294 14.5457 12.5578 14.2901 12.5862 13.9493C12.6146 13.6085 12.6146 13.211 12.5862 12.7282C12.5862 12.4726 12.5578 12.2455 12.501 12.0183C12.4443 11.7911 12.4158 11.6491 12.359 11.5639L12.3307 11.5071C12.1602 11.2799 11.9047 11.138 11.5071 11.0811C11.4219 11.0811 11.4503 10.9959 11.5639 10.8539C11.6775 10.7404 11.7911 10.6268 11.9331 10.5699C12.2738 10.3996 13.0406 10.3144 14.2616 10.3428C14.8012 10.3428 15.2272 10.3996 15.5679 10.4563C15.7099 10.4848 15.7951 10.5416 15.8803 10.5984C15.9655 10.6551 16.0223 10.7404 16.0791 10.8256C16.1359 10.9392 16.1643 11.0244 16.1927 11.138C16.2211 11.2515 16.2211 11.3935 16.2211 11.5923C16.2211 11.7911 16.2211 11.9614 16.2211 12.1319C16.2211 12.3022 16.1927 12.5294 16.1927 12.8134C16.1927 13.0974 16.1643 13.3813 16.1643 13.6085C16.1643 13.6937 16.1643 13.8073 16.1643 14.0061C16.1643 14.2049 16.1643 14.3752 16.1643 14.4604C16.1643 14.574 16.1927 14.716 16.1927 14.858C16.2211 15 16.2495 15.142 16.3063 15.2272C16.363 15.3408 16.4483 15.3976 16.5335 15.4543C16.5903 15.4543 16.6471 15.4827 16.7039 15.4827C16.7606 15.4827 16.8459 15.4543 16.9594 15.3691C17.073 15.284 17.1866 15.1704 17.3286 15.0284C17.4706 14.8864 17.641 14.6592 17.8398 14.3752C18.0386 14.0913 18.2657 13.7221 18.4929 13.3246C18.8905 12.643 19.2313 11.9331 19.5437 11.138C19.572 11.0811 19.6004 11.0244 19.6288 10.9675C19.6572 10.9108 19.714 10.8823 19.7424 10.8539L19.7708 10.8256C19.7708 10.8256 19.7992 10.7972 19.8276 10.7972C19.8559 10.7972 19.8844 10.7687 19.9412 10.7687C19.998 10.7687 20.0831 10.7687 20.14 10.7687L22.9513 10.7404C23.2069 10.712 23.4057 10.712 23.576 10.7687C23.7465 10.8256 23.8317 10.8823 23.8884 10.9392L23.9453 11.0244C24.0872 11.4503 23.6045 12.3874 22.497 13.8925C22.3549 14.0913 22.1278 14.3752 21.8722 14.716C21.361 15.3691 21.0771 15.7951 20.9919 15.9939C20.8215 16.3347 20.8783 16.5903 21.0771 16.8459Z" fill="#1FC3A1"/>
</g>
<defs>
<clipPath id="clip0_592_13830">
<rect width="30" height="30" fill="white"/>
</clipPath>
</defs>
</svg>
