<svg width="110" height="39" viewBox="0 0 110 39" fill="none" xmlns="http://www.w3.org/2000/svg">
<path d="M0 5C0 2.23858 2.23858 0 5 0H105C107.761 0 110 2.23858 110 5V32H5C2.23858 32 0 29.7614 0 27V5Z" fill="#7EAC30"/>
<path d="M105 32H110L105 39V32Z" fill="#51721A"/>
<path d="M29.3604 8.8V20H27.7604V15.008H21.3284V20H19.7284V8.8H21.3284V13.616H27.7604V8.8H29.3604ZM36.2294 20.096C35.3867 20.096 34.6294 19.9093 33.9574 19.536C33.2854 19.1627 32.7574 18.6507 32.3734 18C32 17.3387 31.8134 16.592 31.8134 15.76C31.8134 14.928 32 14.1867 32.3734 13.536C32.7574 12.8747 33.2854 12.3627 33.9574 12C34.6294 11.6267 35.3867 11.44 36.2294 11.44C37.072 11.44 37.824 11.6267 38.4854 12C39.1574 12.3627 39.68 12.8747 40.0534 13.536C40.4374 14.1867 40.6294 14.928 40.6294 15.76C40.6294 16.592 40.4374 17.3387 40.0534 18C39.68 18.6507 39.1574 19.1627 38.4854 19.536C37.824 19.9093 37.072 20.096 36.2294 20.096ZM36.2294 18.752C36.7734 18.752 37.2587 18.6293 37.6854 18.384C38.1227 18.128 38.464 17.776 38.7094 17.328C38.9547 16.8693 39.0774 16.3467 39.0774 15.76C39.0774 15.1733 38.9547 14.656 38.7094 14.208C38.464 13.7493 38.1227 13.3973 37.6854 13.152C37.2587 12.9067 36.7734 12.784 36.2294 12.784C35.6854 12.784 35.1947 12.9067 34.7574 13.152C34.3307 13.3973 33.9894 13.7493 33.7334 14.208C33.488 14.656 33.3654 15.1733 33.3654 15.76C33.3654 16.3467 33.488 16.8693 33.7334 17.328C33.9894 17.776 34.3307 18.128 34.7574 18.384C35.1947 18.6293 35.6854 18.752 36.2294 18.752ZM48.6234 15.6C49.722 15.8773 50.2714 16.5653 50.2714 17.664C50.2714 18.4107 49.9887 18.9867 49.4234 19.392C48.8687 19.7973 48.0367 20 46.9274 20H42.8474V11.52H46.7834C47.786 11.52 48.57 11.712 49.1354 12.096C49.7007 12.4693 49.9834 13.0027 49.9834 13.696C49.9834 14.144 49.8607 14.5333 49.6154 14.864C49.3807 15.184 49.05 15.4293 48.6234 15.6ZM44.3514 15.168H46.6554C47.242 15.168 47.6847 15.0613 47.9834 14.848C48.2927 14.6347 48.4474 14.3253 48.4474 13.92C48.4474 13.1093 47.85 12.704 46.6554 12.704H44.3514V15.168ZM46.8154 18.816C47.4554 18.816 47.9354 18.7147 48.2554 18.512C48.5754 18.3093 48.7354 17.9947 48.7354 17.568C48.7354 17.1307 48.586 16.8053 48.2874 16.592C47.9994 16.3787 47.5407 16.272 46.9114 16.272H44.3514V18.816H46.8154ZM52.6755 11.52H54.2115V17.696L59.4115 11.52H60.8035V20H59.2675V13.824L54.0835 20H52.6755V11.52ZM63.7849 11.52H65.3209V15.12H70.1529V11.52H71.6889V20H70.1529V16.448H65.3209V20H63.7849V11.52ZM77.9715 16.416H76.2115V20H74.6755V11.52H76.2115V15.104H78.0035L80.7555 11.52H82.4035L79.1875 15.6L82.6275 20H80.8195L77.9715 16.416ZM87.1058 11.44C88.2791 11.44 89.1751 11.728 89.7938 12.304C90.4231 12.88 90.7378 13.7387 90.7378 14.88V20H89.2818V18.88C89.0258 19.2747 88.6578 19.5787 88.1778 19.792C87.7084 19.9947 87.1484 20.096 86.4978 20.096C85.5484 20.096 84.7858 19.8667 84.2098 19.408C83.6444 18.9493 83.3618 18.3467 83.3618 17.6C83.3618 16.8533 83.6338 16.256 84.1778 15.808C84.7218 15.3493 85.5858 15.12 86.7698 15.12H89.2018V14.816C89.2018 14.1547 89.0098 13.648 88.6258 13.296C88.2418 12.944 87.6764 12.768 86.9298 12.768C86.4284 12.768 85.9378 12.8533 85.4578 13.024C84.9778 13.184 84.5724 13.4027 84.2418 13.68L83.6018 12.528C84.0391 12.176 84.5618 11.9093 85.1698 11.728C85.7778 11.536 86.4231 11.44 87.1058 11.44ZM86.7538 18.912C87.3404 18.912 87.8471 18.784 88.2738 18.528C88.7004 18.2613 89.0098 17.888 89.2018 17.408V16.224H86.8338C85.5324 16.224 84.8818 16.6613 84.8818 17.536C84.8818 17.9627 85.0471 18.2987 85.3778 18.544C85.7084 18.7893 86.1671 18.912 86.7538 18.912Z" fill="white"/>
</svg>
