<svg width="128" height="39" viewBox="0 0 128 39" fill="none" xmlns="http://www.w3.org/2000/svg">
<path d="M0 5C0 2.23858 2.23858 0 5 0H123C125.761 0 128 2.23858 128 5V32H5C2.23858 32 0 29.7614 0 27V5Z" fill="url(#paint0_linear_920_3973)"/>
<path d="M123 32H128L123 39V32Z" fill="#64768E"/>
<path d="M24.5091 9.5V20H23.0391V10.805H16.9491V20H15.4641V9.5H24.5091ZM31.7584 11.975C32.5284 11.975 33.2184 12.145 33.8284 12.485C34.4384 12.825 34.9134 13.3 35.2534 13.91C35.6034 14.52 35.7784 15.225 35.7784 16.025C35.7784 16.825 35.6034 17.535 35.2534 18.155C34.9134 18.765 34.4384 19.24 33.8284 19.58C33.2184 19.92 32.5284 20.09 31.7584 20.09C31.1884 20.09 30.6634 19.98 30.1834 19.76C29.7134 19.54 29.3134 19.22 28.9834 18.8V22.91H27.5434V12.05H28.9234V13.31C29.2434 12.87 29.6484 12.54 30.1384 12.32C30.6284 12.09 31.1684 11.975 31.7584 11.975ZM31.6384 18.83C32.1484 18.83 32.6034 18.715 33.0034 18.485C33.4134 18.245 33.7334 17.915 33.9634 17.495C34.2034 17.065 34.3234 16.575 34.3234 16.025C34.3234 15.475 34.2034 14.99 33.9634 14.57C33.7334 14.14 33.4134 13.81 33.0034 13.58C32.6034 13.35 32.1484 13.235 31.6384 13.235C31.1384 13.235 30.6834 13.355 30.2734 13.595C29.8734 13.825 29.5534 14.15 29.3134 14.57C29.0834 14.99 28.9684 15.475 28.9684 16.025C28.9684 16.575 29.0834 17.065 29.3134 17.495C29.5434 17.915 29.8634 18.245 30.2734 18.485C30.6834 18.715 31.1384 18.83 31.6384 18.83ZM41.2756 20.09C40.4856 20.09 39.7756 19.915 39.1456 19.565C38.5156 19.215 38.0206 18.735 37.6606 18.125C37.3106 17.505 37.1356 16.805 37.1356 16.025C37.1356 15.245 37.3106 14.55 37.6606 13.94C38.0206 13.32 38.5156 12.84 39.1456 12.5C39.7756 12.15 40.4856 11.975 41.2756 11.975C42.0656 11.975 42.7706 12.15 43.3906 12.5C44.0206 12.84 44.5106 13.32 44.8606 13.94C45.2206 14.55 45.4006 15.245 45.4006 16.025C45.4006 16.805 45.2206 17.505 44.8606 18.125C44.5106 18.735 44.0206 19.215 43.3906 19.565C42.7706 19.915 42.0656 20.09 41.2756 20.09ZM41.2756 18.83C41.7856 18.83 42.2406 18.715 42.6406 18.485C43.0506 18.245 43.3706 17.915 43.6006 17.495C43.8306 17.065 43.9456 16.575 43.9456 16.025C43.9456 15.475 43.8306 14.99 43.6006 14.57C43.3706 14.14 43.0506 13.81 42.6406 13.58C42.2406 13.35 41.7856 13.235 41.2756 13.235C40.7656 13.235 40.3056 13.35 39.8956 13.58C39.4956 13.81 39.1756 14.14 38.9356 14.57C38.7056 14.99 38.5906 15.475 38.5906 16.025C38.5906 16.575 38.7056 17.065 38.9356 17.495C39.1756 17.915 39.4956 18.245 39.8956 18.485C40.3056 18.715 40.7656 18.83 41.2756 18.83ZM55.5064 18.74V21.845H54.1564V20H47.5114V21.845H46.1464V18.74H46.5664C47.0764 18.71 47.4264 18.35 47.6164 17.66C47.8064 16.97 47.9364 15.995 48.0064 14.735L48.1264 12.05H54.2914V18.74H55.5064ZM49.3264 14.84C49.2864 15.84 49.2014 16.67 49.0714 17.33C48.9514 17.98 48.7264 18.45 48.3964 18.74H52.8514V13.31H49.4014L49.3264 14.84ZM64.4773 12.05L60.6223 20.795C60.2823 21.605 59.8823 22.175 59.4223 22.505C58.9723 22.835 58.4273 23 57.7873 23C57.3973 23 57.0173 22.935 56.6473 22.805C56.2873 22.685 55.9873 22.505 55.7473 22.265L56.3623 21.185C56.7723 21.575 57.2473 21.77 57.7873 21.77C58.1373 21.77 58.4273 21.675 58.6573 21.485C58.8973 21.305 59.1123 20.99 59.3023 20.54L59.5573 19.985L56.0473 12.05H57.5473L60.3223 18.41L63.0673 12.05H64.4773ZM69.0416 16.64H67.3916V20H65.9516V12.05H67.3916V15.41H69.0716L71.6516 12.05H73.1966L70.1816 15.875L73.4066 20H71.7116L69.0416 16.64ZM80.7096 13.31H77.7996V20H76.3596V13.31H73.4496V12.05H80.7096V13.31ZM94.2954 18.74V21.845H92.9454V20H86.3004V21.845H84.9354V18.74H85.3554C85.8654 18.71 86.2154 18.35 86.4054 17.66C86.5954 16.97 86.7254 15.995 86.7954 14.735L86.9154 12.05H93.0804V18.74H94.2954ZM88.1154 14.84C88.0754 15.84 87.9904 16.67 87.8604 17.33C87.7404 17.98 87.5154 18.45 87.1854 18.74H91.6404V13.31H88.1904L88.1154 14.84ZM96.1714 12.05H97.6114V15.425H102.141V12.05H103.581V20H102.141V16.67H97.6114V20H96.1714V12.05ZM112.756 12.05V20H111.466V17.48H109.156H108.991L107.251 20H105.706L107.641 17.285C107.041 17.105 106.581 16.81 106.261 16.4C105.941 15.98 105.781 15.46 105.781 14.84C105.781 13.93 106.091 13.24 106.711 12.77C107.331 12.29 108.186 12.05 109.276 12.05H112.756ZM107.251 14.885C107.251 15.415 107.416 15.81 107.746 16.07C108.086 16.32 108.591 16.445 109.261 16.445H111.466V13.31H109.321C107.941 13.31 107.251 13.835 107.251 14.885Z" fill="white"/>
<defs>
<linearGradient id="paint0_linear_920_3973" x1="26.4431" y1="1.96923" x2="42.8351" y2="56.2001" gradientUnits="userSpaceOnUse">
<stop stop-color="#B3CCED"/>
<stop offset="1" stop-color="#A5BFE1"/>
</linearGradient>
</defs>
</svg>
