<svg width="32" height="41" viewBox="0 0 32 41" fill="none" xmlns="http://www.w3.org/2000/svg">
<path fill-rule="evenodd" clip-rule="evenodd" d="M9 0V15H7V0H9ZM5 5V15H3V5H5ZM29 15V0H27V15H29ZM13 10V15H11V10H13ZM25 15V10H23V15H25ZM21 12V15H19V12H21ZM17 15V5H15V15H17Z" fill="#7EAC30"/>
<path d="M28.4444 18H3.55556C2.61256 18 1.70819 18.3728 1.0414 19.0364C0.374602 19.7 0 20.6 0 21.5385V37.4615C0 38.4 0.374602 39.3 1.0414 39.9636C1.70819 40.6272 2.61256 41 3.55556 41H28.4444C29.3874 41 30.2918 40.6272 30.9586 39.9636C31.6254 39.3 32 38.4 32 37.4615V21.5385C32 20.6 31.6254 19.7 30.9586 19.0364C30.2918 18.3728 29.3874 18 28.4444 18ZM11.2284 30.9437L14.0764 33.4206C14.6187 33.8912 15.3049 34.1248 16 34.1248C16.6951 34.1248 17.3813 33.8895 17.9236 33.4206L20.7716 30.9437L20.7058 31.0092L27.1876 37.4598H4.81244L11.2942 31.0092L11.2284 30.9437ZM3.55556 36.2107V24.2631L9.95911 29.8379L3.55556 36.2107ZM22.0409 29.8379L28.4444 24.2631V36.2054L22.0409 29.8379ZM28.4444 21.5385V21.91L16.7538 32.0902C16.5397 32.2601 16.2739 32.3527 16 32.3527C15.7261 32.3527 15.4603 32.2601 15.2462 32.0902L3.55556 21.91V21.5385H28.4444Z" fill="#420E08"/>
</svg>
