<svg width="80" height="39" viewBox="0 0 80 39" fill="none" xmlns="http://www.w3.org/2000/svg">
<path d="M0 5C0 2.23858 2.23858 0 5 0H75C77.7614 0 80 2.23858 80 5V32H5C2.23858 32 0 29.7614 0 27V5Z" fill="#DA6429"/>
<path d="M75 32H80L75 39V32Z" fill="#9E4519"/>
<path d="M30.2615 13.948L26.9465 8.1H29.7515L31.5875 11.534L31.9955 12.741L32.3865 11.534L34.3075 8.1H36.8405L33.4065 13.829L37.0105 20H34.2395L32.1485 16.328L31.6895 15.07L31.2475 16.328L29.1395 20H26.6065L30.2615 13.948ZM43.2803 16.124L43.3653 14.917H43.3143L42.5833 16.158L39.5573 20H38.1633V11.5H40.3733V15.546L40.2713 16.702H40.3393L41.0363 15.495L44.0963 11.5H45.4903V20H43.2803V16.124ZM53.547 13.455H51.184V20H48.906V13.455H46.475V11.5H53.547V13.455Z" fill="white"/>
</svg>
