<?xml version="1.0" encoding="utf-8"?>
<!-- Generator: Adobe Illustrator 23.1.0, SVG Export Plug-In . SVG Version: 6.00 Build 0)  -->
<svg version="1.1" id="Layer_1" xmlns="http://www.w3.org/2000/svg" xmlns:xlink="http://www.w3.org/1999/xlink" x="0px" y="0px"
	 viewBox="0 0 20 20" style="enable-background:new 0 0 20 20;" xml:space="preserve">
<style type="text/css">
	.st0{fill-rule:evenodd;clip-rule:evenodd;}
</style>
<g>
	<path class="st0" d="M10.7,2.2c-3.9,0-7.1,3.2-7.1,7.1c0,1.8,0.6,3.4,1.7,4.6l-3,3c-0.2,0.2-0.2,0.6,0,0.8c0.2,0.2,0.6,0.2,0.8,0
		l3-3c1.2,1.1,2.8,1.7,4.6,1.7c3.9,0,7.1-3.2,7.1-7.1S14.6,2.2,10.7,2.2z M10.7,15.3c-3.3,0-6-2.7-6-6c0-3.3,2.7-6,6-6
		c3.3,0,6,2.7,6,6C16.7,12.6,14,15.3,10.7,15.3z"/>
	<path class="st0" d="M10.7,5.3c-1,0-1.9,0.4-2.6,1.1c-0.2,0.2-0.2,0.6,0,0.8c0.2,0.2,0.6,0.2,0.8,0c0.5-0.5,1.1-0.7,1.8-0.7
		c0.7,0,1.3,0.3,1.8,0.7c0.2,0.2,0.6,0.2,0.8,0c0.2-0.2,0.2-0.6,0-0.8C12.6,5.7,11.7,5.3,10.7,5.3z"/>
</g>
</svg>
