<svg width="0" height="0" class="hidden">
<symbol fill="none" xmlns="http://www.w3.org/2000/svg" viewBox="0 0 60 60" id="logo-site">
    <path d="M30 60C46.5685 60 60 46.5685 60 30C60 13.4315 46.5685 0 30 0C13.4315 0 0 13.4315 0 30C0 46.5685 13.4315 60 30 60Z" fill="#50D75D"></path>
    <path d="M20.1946 37.6992C21.3632 36.7257 21.9475 35.8146 21.9475 34.9661C21.9555 34.8452 21.9386 34.7241 21.898 34.61C21.8575 34.4959 21.794 34.3913 21.7115 34.3027C21.6297 34.2241 21.5328 34.1629 21.4266 34.1228C21.3205 34.0827 21.2073 34.0646 21.094 34.0694C20.9547 34.0653 20.8168 34.0969 20.6931 34.1611C20.5695 34.2253 20.4643 34.3199 20.3874 34.4361C20.2148 34.6815 20.151 35.0551 20.196 35.5566H15.3715C15.4155 34.4456 15.7185 33.5314 16.2803 32.8141C16.8471 32.0931 17.6055 31.5463 18.4687 31.2365C19.4194 30.8927 20.4242 30.7228 21.4351 30.7349C23.3498 30.7349 24.7526 31.1025 25.6434 31.8378C26.069 32.1733 26.411 32.6028 26.6426 33.0927C26.8742 33.5826 26.9891 34.1195 26.9783 34.6613C26.9783 35.8677 26.496 36.9999 25.5315 38.0579C24.4984 39.1666 23.2697 40.0753 21.9071 40.7384H27.0471V43.9476H15.451V40.9529C17.4475 39.7582 19.0287 38.6736 20.1946 37.6992Z" fill="#EFEF14"></path>
    <path d="M31.5587 15.4308L28.4993 28.3078H22.7916L21.2396 21.0481L19.5959 28.3078H13.8883L10.8517 15.4308H15.8744L16.9531 23.2622L18.6197 15.4308H24.0307L25.7836 23.3539L26.8799 15.4308H31.5587Z" fill="white"></path>
    <path d="M50.7083 31.3619L47.6489 44.2388H41.9412L40.3892 36.9778L38.7456 44.2388H33.0365L30 31.3619H35.0227L36.1014 39.1932L37.768 31.3619H43.179L44.9319 39.2836L46.0281 31.3619H50.7083Z" fill="white"></path>
  </symbol>
   <symbol fill="none" xmlns="http://www.w3.org/2000/svg" viewBox="0 0 178 53" id="logo-footer">
    <g clip-path="url(#clip0_1106_8885)">
      <path d="M34.8594 52.4939C34.2812 52.1883 33.7973 51.7159 33.4641 51.1318C33.1309 50.5477 32.9621 49.8759 32.9774 49.1946C32.9617 48.5142 33.1305 47.8433 33.4638 47.2604C33.7971 46.6775 34.2812 46.2067 34.8594 45.9033C35.4799 45.5715 36.1676 45.4035 36.8633 45.4136C37.5327 45.4002 38.194 45.5688 38.7834 45.9033C39.3182 46.2087 39.7397 46.6951 39.9797 47.284L38.4177 48.1751C38.2736 47.8673 38.0497 47.609 37.7719 47.4299C37.494 47.2509 37.1737 47.1586 36.8481 47.1636C36.6059 47.156 36.3648 47.2005 36.1394 47.2943C35.9141 47.3882 35.7093 47.5294 35.5375 47.7095C35.3605 47.9074 35.2233 48.141 35.1343 48.3962C35.0453 48.6514 35.0062 48.923 35.0194 49.1946C35.0069 49.4673 35.0463 49.7399 35.1353 49.9963C35.2242 50.2527 35.361 50.4878 35.5375 50.6877C35.7093 50.8677 35.9141 51.009 36.1394 51.1028C36.3648 51.1967 36.6059 51.2412 36.8481 51.2336C37.1743 51.2415 37.4958 51.1504 37.7741 50.971C38.0524 50.7917 38.2759 50.5317 38.4177 50.2221L39.9797 51.1212C39.7325 51.701 39.3125 52.1802 38.7834 52.4859C38.1954 52.8241 37.5331 52.993 36.8633 52.9755C36.1682 52.9884 35.4804 52.8231 34.8594 52.4939Z" fill="white"></path>
      <path d="M42.3951 52.4939C41.8297 52.1876 41.3572 51.7204 41.0312 51.1452C40.6973 50.5561 40.5258 49.8806 40.536 49.1946C40.5278 48.5087 40.6992 47.8338 41.0312 47.2439C41.3598 46.6731 41.8319 46.2091 42.3951 45.9033C43.0077 45.5723 43.6878 45.4042 44.3762 45.4136C45.0597 45.4042 45.7349 45.5724 46.342 45.9033C46.9052 46.2136 47.3749 46.6835 47.6983 47.2599C48.0337 47.8484 48.2053 48.5243 48.1936 49.2106C48.2074 49.8972 48.0357 50.5737 47.6983 51.1613C47.3754 51.7361 46.9054 52.2035 46.342 52.5099C45.7343 52.8384 45.0591 53.0038 44.3762 52.9916C43.6872 52.9985 43.007 52.8276 42.3951 52.4939ZM45.6487 50.6797C45.9696 50.2601 46.1447 49.7375 46.1447 49.1986C46.1447 48.6597 45.9696 48.137 45.6487 47.7175C45.4859 47.5355 45.2883 47.392 45.0689 47.2965C44.8495 47.201 44.6134 47.1557 44.3762 47.1636C44.1367 47.156 43.8984 47.2014 43.6766 47.2968C43.4548 47.3922 43.2545 47.5355 43.0885 47.7175C42.7635 48.1351 42.5859 48.6585 42.5859 49.1986C42.5859 49.7386 42.7635 50.262 43.0885 50.6797C43.2545 50.8616 43.4548 51.005 43.6766 51.1004C43.8984 51.1958 44.1367 51.2412 44.3762 51.2336C44.6134 51.2414 44.8495 51.1961 45.0689 51.1006C45.2883 51.0051 45.4859 50.8616 45.6487 50.6797Z" fill="white"></path>
      <path d="M60.5448 46.2324C60.8161 46.5612 61.0231 46.9431 61.1539 47.3564C61.2846 47.7697 61.3366 48.2061 61.3068 48.6406V52.8792H59.2876V49.0019C59.3211 48.537 59.1998 48.0744 58.9447 47.6934C58.8228 47.55 58.6719 47.4373 58.5031 47.3637C58.3343 47.29 58.1519 47.2573 57.9694 47.2679C57.7595 47.2566 57.5498 47.2939 57.3549 47.3771C57.1601 47.4603 56.985 47.5874 56.8418 47.7496C56.5337 48.1581 56.3839 48.6744 56.4227 49.1946V52.8792H54.4035V49.0019C54.4035 47.8459 53.9616 47.2679 53.0853 47.2679C52.8766 47.2578 52.6684 47.2957 52.4749 47.3788C52.2815 47.462 52.1076 47.5885 51.9653 47.7496C51.6632 48.1611 51.5166 48.6759 51.5538 49.1946V52.8792H49.527V45.534H51.4547V46.3769C51.7168 46.0679 52.0427 45.8262 52.4072 45.6704C52.7993 45.5034 53.2186 45.4188 53.6415 45.4216C54.1056 45.4148 54.5647 45.522 54.9826 45.7347C55.3738 45.9306 55.7041 46.2396 55.935 46.6257C56.2245 46.2436 56.5951 45.9384 57.017 45.7347C57.4677 45.5234 57.9562 45.4167 58.4495 45.4216C58.8329 45.3974 59.2169 45.457 59.5775 45.5965C59.9381 45.736 60.2674 45.9525 60.5448 46.2324Z" fill="white"></path>
      <path d="M74.1305 46.2324C74.4032 46.5602 74.6111 46.942 74.7419 47.3556C74.8728 47.7691 74.9239 48.206 74.8924 48.6406V52.8792H72.8733V49.0019C72.9067 48.537 72.7855 48.0744 72.5304 47.6934C72.4085 47.55 72.2575 47.4373 72.0887 47.3637C71.9199 47.29 71.7375 47.2573 71.5551 47.2679C71.3451 47.2566 71.1354 47.2939 70.9406 47.3771C70.7458 47.4603 70.5706 47.5874 70.4274 47.7496C70.1253 48.1611 69.9788 48.6759 70.0159 49.1946V52.8792H67.9891V49.0019C67.9891 47.8459 67.5548 47.2679 66.671 47.2679C66.4634 47.2579 66.2563 47.2958 66.0641 47.379C65.872 47.4622 65.6994 47.5887 65.5585 47.7496C65.2504 48.1581 65.1007 48.6744 65.1394 49.1946V52.8792H63.1202V45.534H65.048V46.3769C65.3101 46.0679 65.6359 45.8262 66.0004 45.6704C66.3954 45.5041 66.8171 45.4196 67.2424 45.4216C67.704 45.4148 68.1607 45.5221 68.5758 45.7347C68.9682 45.9319 69.3007 46.2405 69.5359 46.6257C69.822 46.24 70.1935 45.934 70.6179 45.7347C71.0656 45.5226 71.5518 45.4158 72.0427 45.4216C72.4249 45.3985 72.8075 45.4586 73.1667 45.5981C73.5259 45.7376 73.8539 45.9535 74.1305 46.2324Z" fill="white"></path>
      <path d="M83.7387 45.5259V52.8792H81.8186V51.9962C81.5532 52.3108 81.2255 52.5602 80.8585 52.7267C80.478 52.8967 80.068 52.9815 79.6547 52.9755C79.26 53.0028 78.8642 52.9458 78.491 52.8079C78.1179 52.6699 77.775 52.4539 77.4831 52.1728C77.1959 51.8419 76.976 51.4525 76.8371 51.0286C76.6982 50.6048 76.6432 50.1554 76.6754 49.7083V45.5581H78.7022V49.3952C78.7022 50.5753 79.167 51.1693 80.1118 51.1693C80.3286 51.1786 80.5447 51.1389 80.7458 51.0531C80.9468 50.9673 81.1281 50.8372 81.2776 50.6716C81.597 50.2528 81.7548 49.7225 81.7195 49.1865V45.5581L83.7387 45.5259Z" fill="white"></path>
      <path d="M91.9449 46.2324C92.2177 46.5602 92.4256 46.942 92.5564 47.3556C92.6872 47.7691 92.7384 48.206 92.7069 48.6406V52.8792H90.6877V49.0019C90.7221 48.5332 90.5919 48.0676 90.322 47.6934C90.188 47.5466 90.0251 47.4324 89.8448 47.3589C89.6645 47.2854 89.471 47.2544 89.2781 47.2679C89.0532 47.2573 88.8288 47.296 88.6189 47.3817C88.409 47.4674 88.2183 47.5981 88.059 47.7656C87.731 48.1768 87.5696 48.7073 87.6094 49.2427V52.8792H85.5827V45.534H87.518V46.3929C87.7945 46.0776 88.136 45.8331 88.5162 45.6785C88.9306 45.5049 89.3731 45.4177 89.8191 45.4216C90.2071 45.3982 90.5955 45.458 90.9609 45.5974C91.3263 45.7367 91.6611 45.9528 91.9449 46.2324Z" fill="white"></path>
      <path d="M94.6728 44.1613C94.5592 44.0565 94.469 43.9266 94.4084 43.781C94.3478 43.6353 94.3184 43.4773 94.3222 43.3184C94.3193 43.1583 94.3492 42.9995 94.4096 42.8527C94.4701 42.7059 94.5598 42.5745 94.6728 42.4674C94.9219 42.2352 95.2471 42.1142 95.5795 42.1303C95.909 42.1155 96.2321 42.2299 96.4862 42.4514C96.5949 42.5518 96.6823 42.6751 96.7427 42.8134C96.803 42.9517 96.8351 43.1019 96.8367 43.2541C96.8406 43.419 96.8113 43.5829 96.7509 43.7351C96.6905 43.8872 96.6003 44.0242 96.4862 44.1372C96.2303 44.3576 95.91 44.478 95.5795 44.478C95.249 44.478 94.9286 44.3576 94.6728 44.1372V44.1613ZM94.5661 45.5259H96.5853V52.8792H94.5661V45.5259Z" fill="white"></path>
      <path d="M99.816 52.4939C99.2426 52.1906 98.762 51.7232 98.4292 51.1452C98.0953 50.5561 97.9238 49.8806 97.9339 49.1946C97.9258 48.5087 98.0971 47.8338 98.4292 47.2439C98.7643 46.67 99.2445 46.2058 99.816 45.9033C100.437 45.5721 101.124 45.4041 101.82 45.4136C102.489 45.4002 103.151 45.5688 103.74 45.9033C104.277 46.2061 104.699 46.6934 104.936 47.284L103.412 48.1751C103.268 47.8673 103.044 47.609 102.767 47.4299C102.489 47.2509 102.168 47.1586 101.843 47.1636C101.601 47.1569 101.36 47.2018 101.135 47.2956C100.909 47.3894 100.704 47.5302 100.532 47.7095C100.355 47.9074 100.218 48.141 100.129 48.3962C100.04 48.6514 100.001 48.923 100.014 49.1946C100.002 49.4673 100.041 49.7399 100.13 49.9963C100.219 50.2527 100.356 50.4878 100.532 50.6877C100.704 50.8669 100.909 51.0077 101.135 51.1015C101.36 51.1953 101.601 51.2402 101.843 51.2336C102.169 51.2415 102.49 51.1504 102.769 50.971C103.047 50.7917 103.271 50.5317 103.412 50.2221L104.936 51.1212C104.691 51.7027 104.271 52.1825 103.74 52.4859C103.152 52.8241 102.49 52.993 101.82 52.9755C101.125 52.9875 100.437 52.8222 99.816 52.4939Z" fill="white"></path>
      <path d="M111.421 46.2324C111.721 46.5447 111.954 46.9214 112.104 47.3369C112.254 47.7524 112.317 48.1971 112.289 48.6406V52.8792H110.392V51.9641C110.161 52.3222 109.842 52.6068 109.468 52.7866C109.095 52.9664 108.681 53.0345 108.274 52.9836C107.794 52.9967 107.318 52.898 106.879 52.6946C106.51 52.5284 106.196 52.2486 105.98 51.8918C105.769 51.551 105.66 51.1509 105.668 50.7439C105.661 50.4311 105.727 50.1213 105.86 49.8415C105.992 49.5616 106.188 49.3202 106.43 49.1384C107.114 48.6938 107.914 48.4887 108.716 48.5523H110.316C110.328 48.3547 110.298 48.1567 110.23 47.9723C110.161 47.7878 110.055 47.6214 109.919 47.4847C109.575 47.2086 109.147 47.0744 108.716 47.1074C108.343 47.1085 107.973 47.1708 107.618 47.292C107.288 47.3987 106.978 47.5673 106.704 47.7897L105.942 46.3046C106.359 46.0076 106.82 45.7852 107.306 45.6464C107.84 45.4926 108.391 45.4143 108.944 45.4136C109.837 45.3546 110.72 45.6463 111.421 46.2324ZM109.721 51.2737C109.987 51.1064 110.187 50.8444 110.285 50.5351V49.7806H108.883C108.053 49.7806 107.634 50.0695 107.634 50.6395C107.632 50.7655 107.659 50.89 107.712 51.003C107.765 51.1159 107.843 51.2142 107.938 51.2897C108.186 51.4636 108.48 51.5481 108.777 51.5306C109.108 51.5388 109.435 51.4498 109.721 51.2737Z" fill="white"></path>
      <path d="M118.606 52.5099C118.378 52.6819 118.118 52.8022 117.844 52.8632C117.544 52.938 117.237 52.9757 116.929 52.9755C116.232 53.0224 115.544 52.7837 115.009 52.3092C114.77 52.0508 114.586 51.7418 114.469 51.4027C114.353 51.0636 114.305 50.7022 114.331 50.3425V47.3241H113.249V45.7186H114.331V43.9365H116.35V45.6544H118.103V47.2599H116.366V50.2542C116.35 50.5147 116.432 50.7713 116.594 50.9686C116.677 51.0564 116.778 51.124 116.888 51.167C116.999 51.21 117.117 51.2272 117.234 51.2175C117.528 51.2271 117.815 51.1308 118.049 50.9446L118.606 52.5099Z" fill="white"></path>
      <path d="M119.848 44.1613C119.736 44.0551 119.647 43.925 119.586 43.7797C119.526 43.6343 119.495 43.477 119.497 43.3184C119.496 43.1586 119.526 43.0003 119.587 42.8537C119.647 42.7071 119.736 42.5755 119.848 42.4674C120.106 42.2539 120.426 42.1379 120.754 42.1379C121.083 42.1379 121.402 42.2539 121.661 42.4674C121.771 42.5668 121.859 42.69 121.92 42.8285C121.98 42.967 122.011 43.1177 122.012 43.2702C122.017 43.4353 121.988 43.5996 121.928 43.752C121.867 43.9044 121.776 44.0413 121.661 44.1532C121.539 44.2712 121.396 44.3624 121.241 44.4217C121.085 44.4809 120.92 44.507 120.754 44.4984C120.422 44.5119 120.098 44.3913 119.848 44.1613ZM119.749 45.5259H121.768V52.8792H119.749V45.5259Z" fill="white"></path>
      <path d="M124.96 52.4939C124.395 52.1876 123.922 51.7204 123.597 51.1452C123.263 50.5561 123.091 49.8806 123.101 49.1946C123.093 48.5087 123.264 47.8338 123.597 47.2439C123.925 46.6731 124.397 46.2091 124.96 45.9033C125.573 45.5723 126.253 45.4042 126.941 45.4136C127.625 45.4042 128.3 45.5724 128.907 45.9033C129.48 46.2119 129.96 46.6815 130.294 47.2599C130.624 47.8505 130.793 48.5255 130.782 49.2106C130.795 49.896 130.626 50.5715 130.294 51.1613C129.966 51.7345 129.494 52.2012 128.93 52.5099C128.323 52.8384 127.647 53.0038 126.964 52.9916C126.268 53.0025 125.579 52.8315 124.96 52.4939ZM128.214 50.6797C128.539 50.262 128.717 49.7386 128.717 49.1986C128.717 48.6585 128.539 48.1351 128.214 47.7175C128.051 47.5355 127.854 47.392 127.634 47.2965C127.415 47.201 127.179 47.1557 126.941 47.1636C126.702 47.1565 126.464 47.2021 126.242 47.2975C126.02 47.3928 125.82 47.5359 125.654 47.7175C125.329 48.1351 125.151 48.6585 125.151 49.1986C125.151 49.7386 125.329 50.262 125.654 50.6797C125.82 50.8612 126.02 51.0043 126.242 51.0997C126.464 51.1951 126.702 51.2407 126.941 51.2336C127.183 51.2449 127.423 51.2013 127.647 51.1057C127.87 51.0101 128.071 50.8648 128.237 50.6797H128.214Z" fill="white"></path>
      <path d="M138.455 46.2324C138.73 46.5582 138.94 46.9397 139.071 47.3538C139.202 47.7679 139.252 48.2057 139.217 48.6406V52.8792H137.197V49.0019C137.232 48.5332 137.102 48.0676 136.832 47.6934C136.696 47.5472 136.531 47.4336 136.35 47.3602C136.168 47.2868 135.974 47.2553 135.78 47.2679C135.556 47.2574 135.333 47.2963 135.125 47.382C134.916 47.4677 134.727 47.5984 134.569 47.7656C134.238 48.1756 134.074 48.7062 134.111 49.2427V52.8792H132.092V45.534H134.02V46.3929C134.298 46.0793 134.639 45.8351 135.018 45.6785C135.435 45.5049 135.88 45.4177 136.329 45.4216C136.717 45.3968 137.106 45.4559 137.471 45.5954C137.837 45.7348 138.172 45.9516 138.455 46.2324Z" fill="white"></path>
      <path d="M141.723 52.7508C141.256 52.6378 140.809 52.4482 140.398 52.1888L141.076 50.6556C141.425 50.8862 141.805 51.0594 142.203 51.1693C142.624 51.2982 143.06 51.3658 143.499 51.37C144.352 51.37 144.779 51.1452 144.779 50.6957C144.779 50.487 144.665 50.3425 144.428 50.2462C144.079 50.1309 143.719 50.0529 143.354 50.0134C142.877 49.9468 142.406 49.8421 141.944 49.7003C141.577 49.5807 141.244 49.3653 140.977 49.0741C140.684 48.7203 140.536 48.2584 140.565 47.7897C140.56 47.3434 140.696 46.908 140.954 46.5535C141.247 46.1826 141.632 45.9047 142.066 45.7507C142.62 45.5362 143.206 45.4327 143.796 45.4457C144.291 45.4449 144.784 45.5042 145.267 45.6223C145.691 45.7088 146.1 45.8659 146.478 46.0879L145.8 47.6051C145.188 47.2425 144.498 47.0543 143.796 47.0592C143.461 47.0376 143.126 47.1038 142.821 47.2519C142.729 47.2938 142.651 47.3619 142.594 47.4485C142.538 47.535 142.505 47.6366 142.501 47.7416C142.499 47.8507 142.534 47.9569 142.597 48.043C142.661 48.129 142.75 48.1897 142.851 48.2152C143.212 48.3441 143.585 48.4329 143.964 48.4801C144.434 48.5555 144.9 48.6628 145.358 48.8012C145.72 48.9135 146.047 49.1271 146.303 49.4193C146.589 49.7641 146.734 50.2144 146.707 50.6716C146.712 51.1131 146.575 51.5434 146.318 51.8918C146.018 52.2654 145.625 52.5434 145.183 52.6946C144.614 52.8999 144.016 52.9978 143.415 52.9836C142.844 52.9834 142.275 52.9051 141.723 52.7508Z" fill="white"></path>
      <path d="M88.0971 18.2403C90.9925 15.6875 90.8173 13.3033 90.8173 11.0797C90.8375 10.7644 90.7966 10.4481 90.697 10.15C90.5975 9.85186 90.4413 9.57822 90.2382 9.34574C90.0357 9.14194 89.7966 8.98296 89.5349 8.87817C89.2731 8.77338 88.9941 8.72493 88.7143 8.73566C88.3684 8.72528 88.0258 8.80835 87.719 8.97697C87.4122 9.14559 87.1516 9.39414 86.9618 9.69896C86.4838 10.5873 86.3141 11.6232 86.4818 12.629H74.4734C74.487 10.0383 75.2881 7.52035 76.7592 5.44436C78.1661 3.55848 80.049 2.12843 82.1919 1.31818C84.5526 0.414999 87.0488 -0.0310037 89.56 0.00167393C94.3248 0.00167393 97.812 0.964986 100.022 2.8916C101.081 3.76844 101.933 4.89278 102.51 6.17587C103.086 7.45897 103.372 8.86568 103.344 10.285C103.344 13.4478 103.77 16.41 101.37 19.1795C98.8024 22.0843 95.7463 24.4631 92.3564 26.1956H105.15V34.6005H76.2639V26.7656C80.4085 24.2452 84.3644 21.3951 88.0971 18.2403Z" fill="#EFEF14"></path>
      <path d="M34.7222 11.8262L29.5867 34.6005H20.0089L17.403 21.7564L14.6448 34.6005H5.05938L0 11.8262H8.38149L10.1797 25.6818L12.9761 11.8262H22.0967L25.053 25.8424L26.8894 11.8262H34.7222Z" fill="white"></path>
      <path d="M37.2519 8.72761C36.8204 8.34109 36.4762 7.85808 36.2442 7.31372C36.0122 6.76937 35.8983 6.17735 35.9109 5.5808C35.8983 4.97488 36.0119 4.37341 36.2436 3.81867C36.4752 3.26393 36.8194 2.76937 37.2519 2.36977C38.245 1.48609 39.5196 1.03276 40.8179 1.10143C42.1041 1.03659 43.3655 1.49008 44.3457 2.36977C44.7782 2.76937 45.1224 3.26393 45.3541 3.81867C45.5858 4.37341 45.6993 4.97488 45.6867 5.5808C45.6993 6.17735 45.5854 6.76937 45.3535 7.31372C45.1215 7.85808 44.7772 8.34109 44.3457 8.72761C43.3598 9.5952 42.1011 10.042 40.8179 9.97991C39.5226 10.0459 38.2506 9.5992 37.2519 8.72761ZM45.0315 11.7941V34.5683H36.5281V11.8262L45.0315 11.7941Z" fill="white"></path>
      <path d="M69.8102 14.2907C71.2071 16.0407 71.903 18.4115 71.8979 21.4031V34.6005H63.4327V22.5591C63.4804 21.6245 63.1827 20.7067 62.6021 19.9983C62.0092 19.3917 61.2152 19.0524 60.3886 19.0524C59.5621 19.0524 58.7681 19.3917 58.1752 19.9983C57.6137 20.7164 57.3282 21.6301 57.3751 22.5591V34.6005H48.8641V11.8263H57.3751V15.3022C58.0504 14.2165 58.9621 13.3166 60.0343 12.6772C61.2494 11.9761 62.6192 11.6271 64.0041 11.6657C65.0979 11.607 66.1899 11.8131 67.1964 12.2681C68.2029 12.7232 69.097 13.415 69.8102 14.2907Z" fill="white"></path>
      <path d="M140.824 12.1393L135.689 34.9135H126.103L123.497 22.0694L120.739 34.9135H111.154L106.064 12.1393H114.491L116.289 25.9869L119.093 12.1393H128.176L131.125 26.1474L132.961 12.1393H140.824Z" fill="white"></path>
      <path d="M143.354 9.0728C142.921 8.68543 142.577 8.20113 142.345 7.65529C142.113 7.10945 141.999 6.51588 142.013 5.91798C141.997 5.31159 142.109 4.70907 142.341 4.15382C142.573 3.59857 142.919 3.10441 143.354 2.70696C144.343 1.82018 145.615 1.36376 146.912 1.43058C148.2 1.36632 149.462 1.82293 150.44 2.70696C150.873 3.10585 151.218 3.60028 151.45 4.15519C151.682 4.7101 151.795 5.3119 151.781 5.91798C151.795 6.51588 151.682 7.10945 151.45 7.65529C151.218 8.20113 150.873 8.68543 150.44 9.0728C149.456 9.94318 148.196 10.3904 146.912 10.3251C145.619 10.3922 144.349 9.94526 143.354 9.0728ZM151.134 12.1393V34.9135H142.623V12.1393H151.134Z" fill="white"></path>
      <path d="M175.905 14.6038C177.302 16.3538 178 18.7219 178 21.7082V34.9135H169.527V22.8722C169.575 21.9389 169.281 21.0218 168.704 20.3114C168.114 19.6991 167.319 19.3559 166.491 19.3559C165.662 19.3559 164.867 19.6991 164.277 20.3114C163.709 21.0259 163.42 21.9415 163.47 22.8722V34.9135H154.966V12.1393H163.47V15.6153C164.146 14.5276 165.061 13.6273 166.136 12.9903C167.349 12.2891 168.716 11.94 170.099 11.9788C171.193 11.9182 172.285 12.1235 173.292 12.5787C174.299 13.0338 175.193 13.7267 175.905 14.6038Z" fill="white"></path>
    </g>
    <defs>
      <clipPath id="clip0_1106_8885">
        <rect width="178" height="53" fill="white"></rect>
      </clipPath>
    </defs>
  </symbol>
  <symbol version="1.1" id="arrow" xmlns="http://www.w3.org/2000/svg" xmlns:xlink="http://www.w3.org/1999/xlink" x="0px" y="0px" xml:space="preserve" viewBox="0 0 20 20">
    <g>
      <path d="M5.8,15.2c-0.3,0-0.5-0.1-0.7-0.3c-0.4-0.4-0.4-1,0-1.4l6.6-6.6H5.8c-0.6,0-1-0.4-1-1s0.4-1,1-1h8.3
		c0,0,0,0,0,0c0,0,0,0,0,0s0,0,0,0c0.1,0,0.2,0,0.3,0.1c0.1,0,0.2,0.1,0.3,0.2C15,5.2,15,5.3,15.1,5.4c0,0.1,0.1,0.2,0.1,0.4l0,0
		c0,0,0,0,0,0l0,0c0,0,0,0,0,0v8.3c0,0.6-0.4,1-1,1s-1-0.4-1-1V8.2l-6.6,6.6C6.3,15.1,6.1,15.2,5.8,15.2z"></path>
    </g>
  </symbol>
  <symbol xmlns="http://www.w3.org/2000/svg" viewBox="0 0 24 25" id="telegram">
    <path d="M19.5522 3.49691C19.3115 3.51443 19.0751 3.57091 18.8525 3.66416H18.8495C18.6357 3.74891 17.6195 4.17641 16.0745 4.82441L10.538 7.15616C6.56522 8.82866 2.65997 10.4757 2.65997 10.4757L2.70647 10.4577C2.70647 10.4577 2.43722 10.5462 2.15597 10.7389C1.98222 10.8495 1.8327 10.9941 1.71647 11.1642C1.57847 11.3667 1.46747 11.6764 1.50872 11.9967C1.57622 12.5382 1.92722 12.8629 2.17922 13.0422C2.43422 13.2237 2.67722 13.3084 2.67722 13.3084H2.68322L6.34547 14.5422C6.50972 15.0694 7.46147 18.1984 7.69022 18.9192C7.82522 19.3497 7.95647 19.6189 8.12072 19.8244C8.20022 19.9294 8.29322 20.0172 8.40497 20.0877C8.46307 20.1215 8.52501 20.1481 8.58947 20.1672L8.55197 20.1582C8.56322 20.1612 8.57222 20.1702 8.58047 20.1732C8.61047 20.1814 8.63072 20.1844 8.66897 20.1904C9.24872 20.3659 9.71447 20.0059 9.71447 20.0059L9.74072 19.9849L11.903 18.0162L15.527 20.7964L15.6095 20.8317C16.3647 21.1632 17.1297 20.9787 17.534 20.6532C17.9412 20.3254 18.0995 19.9062 18.0995 19.9062L18.1257 19.8387L20.9262 5.49191C21.0057 5.13791 21.026 4.80641 20.9382 4.48466C20.8477 4.15903 20.6388 3.87897 20.3525 3.69941C20.112 3.55325 19.8332 3.4827 19.5522 3.49691ZM19.4765 5.03441C19.4735 5.08166 19.4825 5.07641 19.4615 5.16716V5.17541L16.6872 19.3729C16.6752 19.3932 16.655 19.4374 16.5995 19.4817C16.541 19.5282 16.4945 19.5574 16.2507 19.4607L11.8182 16.0624L9.14072 18.5029L9.70322 14.9104L16.9452 8.16041C17.2437 7.88291 17.144 7.82441 17.144 7.82441C17.165 7.48391 16.6932 7.72466 16.6932 7.72466L7.56122 13.3819L7.55822 13.3669L3.18122 11.8932V11.8902L3.16997 11.8879C3.17765 11.8854 3.18516 11.8824 3.19247 11.8789L3.21647 11.8669L3.23972 11.8587C3.23972 11.8587 7.14797 10.2117 11.1207 8.53916C13.1097 7.70141 15.1137 6.85766 16.655 6.20666C17.569 5.82191 18.484 5.43941 19.4 5.05916C19.4615 5.03516 19.4322 5.03441 19.4765 5.03441Z"></path>
  </symbol>
  <symbol xmlns="http://www.w3.org/2000/svg" viewBox="0 0 24 25" id="vc">
    <path d="M16.5143 23.027C15.432 22.6687 14.7649 21.9177 14.4518 20.7119C14.3701 20.3812 14.3497 19.8438 14.3497 17.8733V15.4411H13.669H12.9883V14.6488V13.8564H14.445H15.9085L15.9289 16.9776C15.9561 20.4088 15.9697 20.4846 16.3986 21.084C17.018 21.959 18.4679 21.9039 19.3528 20.9806C19.7067 20.6155 19.9722 20.0918 20.0675 19.582C20.1015 19.3822 20.1356 18.3625 20.1356 17.329V15.4411H19.3528H18.57V14.6488V13.8564H20.1356H21.7012V16.2541C21.7012 17.5701 21.7216 19.2719 21.7488 20.0436L21.7896 21.4354H22.3955H23.0013L22.9809 22.1795L22.9604 22.9167L21.7556 22.9374C20.6529 22.9512 20.5508 22.9443 20.5236 22.834C20.5031 22.7651 20.4487 22.4551 20.4078 22.145C20.3602 21.8281 20.3057 21.5732 20.2785 21.5732C20.2581 21.5732 20.1356 21.7316 20.0062 21.9246C19.7135 22.3586 19.3255 22.6894 18.8014 22.9305C18.4542 23.0959 18.3045 23.1234 17.651 23.1372C17.0656 23.151 16.8206 23.1303 16.5143 23.027Z"></path>
    <path d="M1.02042 22.1794L1.04084 21.4009H1.82364H2.60644L2.62686 22.1794L2.64728 22.9511H1.82364H1L1.02042 22.1794Z"></path>
    <path d="M4.18531 22.9029C4.15809 22.8823 4.13767 22.5378 4.13767 22.145V21.4354H4.88643H5.63519V18.3694V15.3102L4.90685 15.2896L4.1717 15.2689L4.15128 14.5592L4.13086 13.8564L5.5467 13.8702L6.96254 13.8909L6.97616 14.2354C6.98977 14.4283 7.017 14.8141 7.03742 15.0966C7.07826 15.6065 7.08507 15.6134 7.19398 15.4411C7.43903 15.0484 8.05165 14.4765 8.43965 14.2698C9.05227 13.9391 9.44027 13.8564 10.4205 13.8564H11.2849V15.2344V16.6124H10.5158H9.73977L9.7738 15.9234C9.79423 15.4549 9.78061 15.2344 9.73296 15.2344C9.53556 15.2344 8.90932 15.3998 8.69831 15.51C8.2967 15.7167 7.84744 16.1715 7.62281 16.5986C7.24163 17.3221 7.20079 17.6184 7.20079 19.6233V21.4354H9.14076H11.0807V22.1933V22.9512H7.65685C5.77133 22.9512 4.20574 22.9305 4.18531 22.9029Z" ></path>
    <path d="M17.3437 11.8308C15.4582 11.259 14.1581 9.71562 13.947 7.78644C13.6816 5.37496 15.2608 3.10817 17.5888 2.58453C18.215 2.44673 19.4539 2.48118 20.1005 2.66032C20.6314 2.80501 21.53 3.24597 21.8567 3.52157L22.1086 3.73515V4.87199V6.00195H21.3258H20.543V5.2096V4.41726L20.2707 4.27946C19.6376 3.95563 18.6506 3.85228 17.9359 4.03831C17.3982 4.17611 17.0442 4.37592 16.6562 4.74109C15.5739 5.7608 15.2948 7.34548 15.9483 8.74414C16.84 10.6527 19.2701 11.0592 20.8357 9.57094C21.0263 9.38491 21.1964 9.24022 21.21 9.24022C21.2237 9.24022 21.4891 9.44692 21.809 9.69495L22.3808 10.1497L22.1358 10.4528C21.8431 10.8111 21.1964 11.3141 20.7267 11.5621C19.835 12.0169 18.3375 12.134 17.3437 11.8308Z"></path>
    <path d="M7.75249 11.7758C7.71846 11.6862 7.11945 9.99127 6.41834 8.00008C5.71722 6.00889 5.09098 4.34152 5.02972 4.29329C4.96165 4.23817 4.73702 4.20372 4.41029 4.21061C4.13121 4.2175 3.81809 4.2175 3.71598 4.2175L3.52539 4.21061V3.45272V2.69482L4.92762 2.7086L6.33665 2.72927L7.4598 6.05023C8.07923 7.87606 8.60336 9.3574 8.63059 9.34362C8.65101 9.32984 9.17514 7.82783 9.78777 6.00889L10.9109 2.69482L12.2383 2.7086L13.5656 2.72927L13.586 3.4665L13.6065 4.20372L12.8441 4.22439L12.0885 4.24506L10.6795 8.06898L9.27044 11.8929L8.5421 11.9136C7.83418 11.9342 7.80695 11.9273 7.75249 11.7758Z"></path>
  </symbol>
  <symbol xmlns="http://www.w3.org/2000/svg" viewBox="0 0 24 25" id="vk">
    <path fill-rule="evenodd" clip-rule="evenodd" d="M23.155 17.6143C22.611 16.5188 21.8942 15.518 21.032 14.6503C20.7436 14.3244 20.4417 14.0108 20.127 13.7103L20.089 13.6733C19.9722 13.5598 19.8568 13.4448 19.743 13.3283C20.9216 11.6894 21.9301 9.93468 22.753 8.09132L22.786 8.01732L22.809 7.93932C22.918 7.57632 23.042 6.88632 22.602 6.26232C22.146 5.61832 21.417 5.50231 20.928 5.50231H18.681C18.2105 5.48087 17.7453 5.60881 17.3519 5.86782C16.9586 6.12683 16.6572 6.50364 16.491 6.94432C16.0074 8.09596 15.402 9.19253 14.685 10.2153V7.58232C14.685 7.24232 14.653 6.67231 14.288 6.19231C13.852 5.61632 13.221 5.50231 12.783 5.50231H9.217C8.75167 5.49161 8.30005 5.66028 7.95567 5.97339C7.61128 6.2865 7.40051 6.72007 7.367 7.18432L7.364 7.22932V7.27432C7.364 7.75932 7.556 8.11731 7.71 8.34231C7.779 8.44331 7.852 8.53531 7.899 8.59331L7.909 8.60631C7.959 8.66831 7.992 8.70931 8.025 8.75531C8.113 8.87331 8.238 9.05731 8.274 9.53131V11.0043C7.55817 9.80564 6.97124 8.53456 6.523 7.21231L6.515 7.19032L6.507 7.16932C6.385 6.85032 6.19 6.38632 5.799 6.03232C5.343 5.61732 4.803 5.50231 4.312 5.50231H2.032C1.535 5.50231 0.936 5.61832 0.489 6.08932C0.05 6.55332 0 7.10931 0 7.40331V7.53732L0.028 7.66732C0.659301 10.5981 1.96024 13.343 3.829 15.6873C4.68338 17.0346 5.84329 18.1616 7.21465 18.9768C8.58601 19.792 10.1302 20.2725 11.722 20.3793L11.763 20.3823H11.805C12.531 20.3823 13.288 20.3193 13.857 19.9403C14.624 19.4283 14.685 18.6433 14.685 18.2513V17.1133C14.882 17.2733 15.126 17.4873 15.425 17.7753C15.787 18.1373 16.075 18.4513 16.322 18.7253L16.454 18.8713C16.646 19.0853 16.835 19.2963 17.007 19.4693C17.223 19.6863 17.49 19.9253 17.824 20.1023C18.187 20.2933 18.568 20.3803 18.972 20.3803H21.253C21.734 20.3803 22.423 20.2663 22.908 19.7043C23.436 19.0923 23.396 18.3413 23.23 17.8023L23.2 17.7053L23.155 17.6143ZM17.435 17.7203C17.1251 17.3739 16.806 17.0357 16.478 16.7063L16.475 16.7033C15.118 15.3953 14.485 15.1683 14.037 15.1683C13.798 15.1683 13.535 15.1943 13.364 15.4083C13.287 15.5104 13.2365 15.63 13.217 15.7563C13.1929 15.903 13.1822 16.0517 13.185 16.2003V18.2513C13.185 18.5063 13.143 18.6133 13.025 18.6913C12.868 18.7963 12.533 18.8813 11.814 18.8813C10.4482 18.7884 9.12398 18.3726 7.95018 17.6682C6.77637 16.9638 5.78652 15.9908 5.062 14.8293L5.054 14.8163L5.044 14.8043C3.30312 12.6375 2.08984 10.0956 1.5 7.37932C1.504 7.24932 1.532 7.17032 1.578 7.12232C1.625 7.07232 1.74 7.00231 2.032 7.00231H4.312C4.565 7.00231 4.697 7.05832 4.792 7.14332C4.898 7.24132 4.992 7.40632 5.104 7.70032C5.664 9.34632 6.42 10.8863 7.137 12.0173C7.495 12.5833 7.847 13.0543 8.165 13.3873C8.324 13.5533 8.479 13.6913 8.628 13.7893C8.771 13.8833 8.934 13.9583 9.102 13.9583C9.19 13.9583 9.293 13.9483 9.392 13.9053C9.49892 13.8581 9.58693 13.7764 9.642 13.6733C9.745 13.4853 9.774 13.2083 9.774 12.8453V9.47231C9.721 8.65431 9.474 8.19332 9.234 7.86632C9.1854 7.80091 9.13538 7.73656 9.084 7.67331L9.071 7.65732C9.02836 7.60552 8.98766 7.55215 8.949 7.49732C8.89977 7.43616 8.87015 7.36158 8.864 7.28332C8.87184 7.20385 8.90976 7.13039 8.96999 7.07797C9.03022 7.02554 9.10821 6.99812 9.188 7.00131H12.783C12.989 7.00131 13.058 7.05132 13.093 7.09832C13.143 7.16332 13.185 7.29832 13.185 7.58232V12.1103C13.185 12.6483 13.433 13.0123 13.793 13.0123C14.207 13.0123 14.506 12.7613 15.028 12.2393L15.037 12.2293L15.045 12.2203C16.216 10.7926 17.1727 9.20189 17.885 7.49832L17.889 7.48632C17.9425 7.3358 18.0438 7.20693 18.1774 7.11936C18.311 7.03179 18.4696 6.99033 18.629 7.00131H20.929C21.241 7.00131 21.343 7.08132 21.377 7.12832C21.412 7.17832 21.437 7.28531 21.377 7.49531C20.5556 9.33167 19.5401 11.0749 18.348 12.6953L18.34 12.7073C18.225 12.8843 18.098 13.0803 18.08 13.3043C18.06 13.5463 18.164 13.7653 18.347 14.0013C18.48 14.1973 18.755 14.4663 19.034 14.7393L19.06 14.7653C19.352 15.0513 19.669 15.3613 19.923 15.6613L19.93 15.6683L19.937 15.6763C20.6944 16.4318 21.3243 17.3051 21.802 18.2623C21.878 18.5223 21.832 18.6563 21.772 18.7253C21.703 18.8053 21.548 18.8803 21.254 18.8803H18.972C18.8165 18.8841 18.6626 18.8479 18.525 18.7753C18.3564 18.6772 18.2034 18.5546 18.071 18.4113C17.928 18.2683 17.773 18.0953 17.583 17.8843L17.436 17.7203H17.435Z"></path>
  </symbol>
  <symbol version="1.1" id="youtube" xmlns="http://www.w3.org/2000/svg" xmlns:xlink="http://www.w3.org/1999/xlink" x="0px" y="0px" xml:space="preserve" viewBox="0 0 24 25">
    <g>
      <path d="M17,21.3H7c-3.4,0-5.8-2.3-5.8-5.8v-6c0-3.4,2.3-5.8,5.8-5.8h10c3.4,0,5.8,2.3,5.8,5.8v6
		C22.8,18.9,20.4,21.3,17,21.3z M7,5.3c-2.6,0-4.3,1.7-4.3,4.3v6c0,2.6,1.7,4.3,4.3,4.3h10c2.6,0,4.3-1.7,4.3-4.3v-6
		c0-2.6-1.7-4.3-4.3-4.3H7z"></path>
    </g>
    <g>
      <path d="M10.6,16.1c-0.3,0-0.6-0.1-0.8-0.2c-0.6-0.3-0.9-1-0.9-1.8v-3c0-1.2,0.6-1.7,0.9-1.9c0.3-0.2,1-0.4,2,0.2
		l2.5,1.5c0.7,0.5,1,1,1,1.7c0,0.6-0.4,1.2-1,1.7l-2.5,1.5C11.4,16,11,16.1,10.6,16.1z M10.6,10.5C10.5,10.5,10.5,10.5,10.6,10.5
		c-0.1,0-0.2,0.2-0.2,0.6v3c0,0.3,0.1,0.4,0.2,0.5c0.1,0,0.3,0,0.5-0.1l2.5-1.5c0.2-0.1,0.3-0.3,0.3-0.4s-0.1-0.3-0.3-0.4L11,10.6
		l0,0C10.8,10.5,10.6,10.5,10.6,10.5z"></path>
    </g>
  </symbol>
  <symbol xmlns="http://www.w3.org/2000/svg" viewBox="0 0 126 16" id="logo-bearlogics">
    <path fill-rule="evenodd" clip-rule="evenodd" d="M0 0.736328V15.3197H5.80095C7.54154 15.3064 8.85339 14.9425 9.73688 14.228C10.6267 13.5068 11.0716 12.4317 11.0716 11.0028C11.0716 10.2149 10.872 9.54717 10.4728 8.99962C10.0736 8.452 9.50109 8.07807 8.75534 7.87776C9.41605 7.62404 9.91681 7.23007 10.257 6.69588C10.5972 6.16172 10.7673 5.51732 10.7673 4.76278C10.7673 3.45401 10.2865 2.45575 9.32432 1.76798C8.36917 1.08021 6.9722 0.736328 5.13341 0.736328H0ZM3.44516 12.6154V9.11977H5.85961C7.04394 9.12644 7.63643 9.73744 7.63643 10.9527C7.63643 11.4802 7.46951 11.8909 7.13567 12.1847C6.80212 12.4719 6.32421 12.6154 5.70268 12.6154H3.44516ZM5.24131 6.81609H3.44516V3.45067H5.13341C5.90562 3.45067 6.46511 3.58756 6.8116 3.86133C7.15845 4.12843 7.33206 4.56914 7.33206 5.18348C7.33206 5.71764 7.17183 6.12162 6.851 6.39539C6.53046 6.66919 5.99382 6.80941 5.24131 6.81609ZM17.4261 9.13979H22.844V6.52561H17.4261V3.45067H23.8453V0.736328H13.9807V15.3197H23.8256V12.6154H17.4261V9.13979ZM29.3188 15.3197H25.7282L30.9694 0.736328H34.2084L35.3562 3.90648C35.1355 4.02396 34.9388 4.14528 34.7658 4.26736C30.9423 7.22236 29.5412 12.6829 29.3188 15.0438V15.3197ZM31.8163 15.3197H39.0662C38.8624 14.0736 38.2668 11.6591 37.4718 11.7446C36.9745 11.798 36.6158 11.9841 36.2257 12.1864C35.8303 12.3915 35.4026 12.6134 34.7658 12.7308C34.6839 12.7458 34.6014 12.7603 34.5181 12.7749C33.3186 12.9858 32.0068 13.2164 31.8163 15.3197ZM41.645 9.75296V15.3197H45.09V10.1714H46.9554L49.4773 15.3197H53.1678V15.1695L50.1836 9.29001C51.0414 8.87603 51.6698 8.33516 52.0689 7.66747C52.4739 6.9997 52.6775 6.15834 52.6775 5.14339C52.6775 3.74116 52.1998 2.65607 51.2442 1.88817C50.2887 1.12027 48.9635 0.736328 47.2685 0.736328H41.645V2.82984C43.0571 2.9036 44.6681 3.14021 46.4858 3.60391C46.9841 3.29909 47.9374 3.00502 47.7684 4.26736C48.302 4.73072 48.5364 4.89791 49.037 5.25552L49.0686 5.27844C49.1303 5.32201 49.2068 5.36408 49.2862 5.4074C49.6625 5.61367 50.0917 5.84825 49.1039 6.40809C48.3593 6.8304 47.7919 6.85854 46.9422 6.90076C46.4292 6.92622 45.8132 6.95681 44.9922 7.0825C44.6776 7.14669 42.2509 7.97255 41.645 9.75296Z"></path>
    <path fill-rule="evenodd" clip-rule="evenodd" d="M63.1491 12.4947H69.1138V15.1249H59.7227V0.940931H63.1491V12.4947ZM81.1238 11.9978C81.6379 10.9327 81.8952 9.70849 81.8952 8.32514V7.67246C81.8885 6.30859 81.6215 5.10067 81.0944 4.04855C80.574 2.98994 79.8418 2.17489 78.8981 1.60339C77.9544 1.03189 76.8807 0.746102 75.6766 0.746102C74.4596 0.746102 73.373 1.0351 72.4163 1.61309C71.466 2.19108 70.7341 3.01263 70.2199 4.07773C69.7121 5.13634 69.4584 6.3606 69.4584 7.75036V8.54922C69.4845 9.88705 69.7579 11.0723 70.2784 12.1049C70.8054 13.1376 71.5376 13.9331 72.4747 14.4917C73.4121 15.0437 74.4858 15.3197 75.6962 15.3197C76.9066 15.3197 77.9837 15.034 78.9275 14.4625C79.8774 13.8844 80.6097 13.0629 81.1238 11.9978ZM77.6975 4.52588C78.1725 5.25326 78.4101 6.32164 78.4101 7.73088V8.38364C78.4036 9.76042 78.1658 10.8158 77.6975 11.5497C77.2288 12.2836 76.5619 12.6505 75.6962 12.6505C74.785 12.6505 74.0985 12.2771 73.6365 11.5301C73.1744 10.7834 72.9434 9.71498 72.9434 8.32514L72.9532 7.2828C73.0507 4.71101 73.9587 3.42504 75.6766 3.42504C76.5553 3.42504 77.2288 3.79201 77.6975 4.52588ZM94.8983 13.3714C94.3712 13.9558 93.5998 14.4267 92.5848 14.7839C91.5694 15.1411 90.4566 15.3197 89.2462 15.3197C87.3847 15.3197 85.8979 14.7515 84.785 13.6149C83.6722 12.4784 83.0766 10.8969 82.9986 8.87068L82.9888 7.64321C82.9888 6.24688 83.236 5.02918 83.7305 3.99013C84.2254 2.9445 84.9314 2.14236 85.8489 1.58384C86.7731 1.01883 87.8404 0.736328 89.0508 0.736328C90.8212 0.736328 92.194 1.14225 93.1702 1.9541C94.1531 2.75938 94.726 3.96409 94.8885 5.56823H91.589C91.4719 4.77593 91.2178 4.21085 90.8274 3.8732C90.437 3.53548 89.8838 3.36662 89.168 3.36662C88.3088 3.36662 87.6451 3.73031 87.1767 4.45768C86.708 5.18506 86.4703 6.2242 86.4641 7.57501V8.43229C86.4641 9.8481 86.7049 10.9132 87.1865 11.6276C87.6744 12.3355 88.4392 12.6895 89.4804 12.6895C90.372 12.6895 91.0357 12.4914 91.4719 12.0952V9.89362H89.09V7.54583H94.8983V13.3714ZM97.1239 15.1249H100.54V0.940931H97.1239V15.1249ZM113.922 10.3222C113.876 11.3093 113.61 12.1829 113.122 12.9427C112.634 13.6961 111.947 14.2806 111.062 14.6963C110.183 15.1119 109.178 15.3197 108.046 15.3197C106.178 15.3197 104.707 14.7125 103.633 13.498C102.559 12.2836 102.022 10.569 102.022 8.35439V7.65298C102.022 6.26315 102.263 5.04866 102.745 4.00953C103.233 2.9639 103.932 2.15862 104.844 1.59362C105.755 1.02212 106.809 0.736328 108.006 0.736328C109.731 0.736328 111.117 1.19098 112.165 2.1002C113.213 3.00293 113.808 4.24987 113.952 5.84103H110.535C110.509 4.97725 110.291 4.35702 109.881 3.98035C109.47 3.60368 108.846 3.41534 108.006 3.41534C107.154 3.41534 106.529 3.73359 106.132 4.37001C105.736 5.0065 105.527 6.02287 105.508 7.41913V8.42259C105.508 9.93578 105.696 11.0171 106.073 11.6666C106.457 12.316 107.115 12.6408 108.046 12.6408C108.833 12.6408 109.435 12.4556 109.851 12.0854C110.268 11.7153 110.489 11.1275 110.515 10.3222H113.922ZM122.037 10.1858C122.395 10.4651 122.574 10.8548 122.574 11.3549C122.574 11.7965 122.408 12.1407 122.076 12.3875C121.751 12.6278 121.305 12.7479 120.738 12.7479C119.854 12.7479 119.213 12.5693 118.816 12.2121C118.425 11.8484 118.23 11.2867 118.23 10.5268H114.794C114.794 11.462 115.028 12.2901 115.497 13.0109C115.971 13.7253 116.675 14.2903 117.605 14.706C118.542 15.1152 119.586 15.3197 120.738 15.3197C122.372 15.3197 123.657 14.9658 124.595 14.2579C125.532 13.55 126 12.5758 126 11.3354C126 9.78318 125.233 8.56541 123.697 7.68216C123.065 7.31847 122.258 6.98082 121.276 6.66907C120.293 6.35082 119.606 6.04556 119.216 5.75335C118.825 5.45458 118.63 5.12335 118.63 4.75966C118.63 4.34404 118.806 4.00304 119.157 3.7368C119.515 3.46407 120 3.32759 120.612 3.32759C121.217 3.32759 121.695 3.48675 122.047 3.805C122.405 4.12325 122.583 4.57133 122.583 5.14932H126C126 4.28561 125.776 3.51921 125.327 2.85033C124.877 2.17489 124.247 1.65532 123.433 1.29164C122.626 0.927946 121.711 0.746102 120.689 0.746102C119.643 0.746102 118.699 0.914963 117.859 1.25261C117.02 1.58384 116.368 2.05147 115.906 2.65543C115.451 3.25297 115.224 3.94461 115.224 4.73041C115.224 6.30859 116.144 7.54904 117.986 8.45184C118.552 8.73107 119.281 9.02006 120.173 9.31883C121.064 9.61753 121.686 9.9066 122.037 10.1858Z"></path>
  </symbol>
  <symbol xmlns="http://www.w3.org/2000/svg" viewBox="0 0 9 12" id="arrow-control">
    <path d="M1.02937 6.79241C0.509358 6.3921 0.509358 5.6079 1.02937 5.20759L7.39001 0.311171C8.04757 -0.195026 9 0.273738 9 1.10358V10.8964C9 11.7263 8.04757 12.195 7.39001 11.6888L1.02937 6.79241Z"></path>
  </symbol>
  <symbol xmlns="http://www.w3.org/2000/svg" viewBox="0 0 46 44" id="star">
    <path d="M21.3503 1.40717C22.1447 0.248028 23.8553 0.248028 24.6497 1.40717L31.4147 11.2781C31.6748 11.6576 32.0577 11.9358 32.499 12.0658L43.9773 15.4494C45.3252 15.8468 45.8538 17.4737 44.9969 18.5874L37.6995 28.0716C37.419 28.4362 37.2728 28.8863 37.2854 29.3462L37.6144 41.3083C37.653 42.713 36.2691 43.7185 34.9451 43.2477L23.6701 39.2383C23.2367 39.0842 22.7633 39.0842 22.3299 39.2383L11.0549 43.2477C9.73092 43.7185 8.34697 42.713 8.3856 41.3083L8.7146 29.3462C8.72725 28.8863 8.58098 28.4362 8.30046 28.0716L1.00315 18.5874C0.146221 17.4737 0.674844 15.8468 2.02274 15.4494L13.501 12.0658C13.9423 11.9358 14.3252 11.6576 14.5853 11.2781L21.3503 1.40717Z" ></path>
  </symbol>
  <symbol xmlns="http://www.w3.org/2000/svg" viewBox="0 0 20 20" id="arrow-menu">
    <path d="M10.8192 13.8297C10.4211 14.3984 9.57887 14.3984 9.18077 13.8297L4.10142 6.57346C3.63748 5.91069 4.11163 5 4.92066 5L15.0793 5C15.8884 5 16.3625 5.91069 15.8986 6.57346L10.8192 13.8297Z"></path>
  </symbol>
</svg>
