<svg width="71" height="70" viewBox="0 0 71 70" fill="none" xmlns="http://www.w3.org/2000/svg">
<path d="M66.1244 26.6494C65.3641 26.6494 64.7475 27.2596 64.7475 28.0109V34.8096H51.6679V31.2735C51.6679 30.5217 51.0508 29.912 50.291 29.912C49.5307 29.912 48.9141 30.5222 48.9141 31.2735V34.8096H23.0894V31.2735C23.0894 30.5217 22.4722 29.912 21.7124 29.912C20.9522 29.912 20.3355 30.5222 20.3355 31.2735V34.8096H7.25472V22.4613C7.25472 21.4364 8.0981 20.6035 9.13354 20.6035H62.8669C63.9034 20.6035 64.7458 21.4374 64.7458 22.4613C64.7458 23.213 65.3629 23.8228 66.1227 23.8228C66.883 23.8228 67.4996 23.2125 67.4996 22.4613C67.4996 19.9348 65.421 17.8799 62.8663 17.8799H51.6667V12.5819C51.6667 10.0555 49.5876 8 47.0329 8H24.9681C22.413 8 20.3348 10.0558 20.3348 12.5819V17.8799H9.1333C6.57825 17.8799 4.5 19.9352 4.5 22.4613V58.4181C4.5 60.9445 6.57861 63 9.1333 63H62.8667C65.4218 63 67.5 60.9442 67.5 58.4181V28.0111C67.5005 27.2598 66.8838 26.6496 66.1236 26.6496L66.1244 26.6494ZM23.089 12.582C23.089 11.5567 23.9324 10.7233 24.9678 10.7233H47.0327C48.0696 10.7233 48.9125 11.5572 48.9125 12.582V17.88H23.089V12.582ZM62.8687 60.2781H9.13403C8.09759 60.2781 7.25522 59.4441 7.25522 58.4193V37.5341H20.3348V41.4045C20.3348 42.1563 20.9519 42.766 21.7117 42.766C22.472 42.766 23.0886 42.1558 23.0886 41.4045V37.5341H48.9133V41.4045C48.9133 42.1563 49.5305 42.766 50.2903 42.766C51.0505 42.766 51.6672 42.1558 51.6672 41.4045V37.5341H64.748V58.4193C64.748 59.4442 63.9046 60.2781 62.8692 60.2781H62.8687Z" fill="#2D73DC"/>
</svg>
