<svg width="71" height="70" viewBox="0 0 71 70" fill="none" xmlns="http://www.w3.org/2000/svg">
<path d="M62.8847 24.3775C63.0671 25.1685 63.8628 25.6668 64.6683 25.4848C65.4708 25.3049 65.9739 24.5174 65.7909 23.7254C62.8442 10.9336 51.1517 2 37.3561 2H34.6493C18.3045 2 5.5 14.3058 5.5 30.0144V60.2415C5.5 65.0702 9.48317 68.9991 14.3782 68.9991C19.274 68.9991 23.2581 65.0701 23.2581 60.2415L23.2576 46.6438C23.2576 41.8151 19.274 37.8862 14.3777 37.8862C12.1129 37.8862 10.0496 38.7341 8.48001 40.1162V30.0143C8.48001 15.9533 19.975 4.93832 34.6491 4.93832H37.3558C49.751 4.93832 60.2493 12.9316 62.8849 24.3762L62.8847 24.3775ZM14.3783 40.8271C17.6312 40.8271 20.2776 43.437 20.2776 46.6446V60.2424C20.2776 63.4505 17.6312 66.06 14.3783 66.06C11.126 66.06 8.48059 63.45 8.48059 60.2424V46.6446C8.48059 43.4365 11.1265 40.8271 14.3783 40.8271ZM65.0095 28.5454C64.1868 28.5454 63.5195 29.2041 63.5195 30.0151V40.1176C61.9494 38.735 59.8857 37.887 57.6202 37.887C52.7249 37.887 48.7419 41.8161 48.7419 46.6446V60.2424C48.7419 65.0711 52.7251 69 57.6202 69C62.5159 69 66.5 65.0709 66.5 60.2424L66.4995 50.1343V30.0153C66.4995 29.2037 65.8322 28.5455 65.0095 28.5455L65.0095 28.5454ZM63.5195 50.1343V60.2428C63.5195 63.4509 60.873 66.0604 57.6202 66.0604C54.3678 66.0604 51.7224 63.4504 51.7224 60.2428L51.7219 46.645C51.7219 43.4369 54.3678 40.8274 57.6196 40.8274C60.8725 40.8274 63.519 43.4374 63.519 46.645L63.5195 50.1343Z" fill="#2D73DC"/>
</svg>
