<svg width="71" height="70" viewBox="0 0 71 70" fill="none" xmlns="http://www.w3.org/2000/svg">
<path d="M68.2006 29.405C68.1532 29.3865 68.1043 29.3711 68.0549 29.3594L57.4041 26.8352C55.9247 26.4843 54.7855 25.2763 54.5044 23.7567C51.9217 9.81154 39.8916 0.725449 25.9062 2.14581C13.3279 3.42554 3.44671 13.371 2.41293 25.7935C2.236 27.9113 2.31614 30.0318 2.65127 32.1021L1.89932 33.1882C1.4039 33.9044 1.36696 34.8168 1.80252 35.5688C2.21259 36.2773 2.96091 36.7025 3.78057 36.7025C3.83 36.7025 3.87944 36.701 3.92992 36.6979C7.70736 36.4607 14.4032 36.0038 16.8028 35.6098C18.3588 35.3547 19.6244 34.5283 20.9643 33.6538C22.8419 32.4284 24.7834 31.1609 27.9729 31.058C30.5513 30.976 31.9392 31.414 33.6934 31.9704C34.4709 32.2168 35.3436 32.4929 36.4187 32.7537C36.1143 32.7301 35.8099 32.7081 35.4997 32.7081C29.1453 32.7081 23.9762 37.7974 23.9762 44.0526C23.9762 50.3073 29.1453 55.3966 35.4997 55.3966C41.8541 55.3966 47.0232 50.3073 47.0232 44.0526C47.0232 39.0187 43.6734 34.7455 39.0545 33.2665C39.4875 33.3326 39.9376 33.3951 40.4263 33.451C49.9733 34.5376 58.2537 33.9346 62.7046 33.6113C63.8828 33.5258 64.8132 33.4581 65.3169 33.4581C66.0423 33.4581 66.862 33.3941 67.7534 33.2676C68.6817 33.1359 69.378 32.4305 69.4857 31.5119C69.594 30.5897 69.0778 29.7424 68.2004 29.4043L68.2006 29.405ZM44.7846 44.0531C44.7846 49.0938 40.6193 53.1936 35.4993 53.1936C30.3793 53.1936 26.214 49.0931 26.214 44.0531C26.214 39.0125 30.3793 34.9121 35.4993 34.9121C40.6193 34.9121 44.7846 39.0126 44.7846 44.0531ZM65.3164 31.2552C64.7299 31.2552 63.8114 31.3218 62.539 31.4145C58.1641 31.7332 50.0175 32.3244 40.6817 31.2624C37.6816 30.9212 35.9264 30.3648 34.3783 29.874C32.4935 29.2767 30.8646 28.7598 27.8974 28.8576C24.0747 28.9811 21.6642 30.5548 19.7268 31.8192C18.5424 32.5923 17.5188 33.2603 16.4332 33.4382C14.1325 33.8157 7.52147 34.266 3.78613 34.5002L3.85742 35.5996L3.74762 34.43L4.75302 32.9776C4.91746 32.7399 4.98094 32.4484 4.92995 32.1651C4.56567 30.1395 4.46889 28.0575 4.6427 25.975C5.58877 14.6079 14.6279 5.50895 26.135 4.33778C27.016 4.24813 27.8876 4.20407 28.75 4.20407C40.4036 4.20407 50.0971 12.2488 52.3019 24.152C52.7421 26.5286 54.539 28.4225 56.8792 28.9774L66.3123 31.2132C65.9585 31.2418 65.6254 31.2557 65.3158 31.2557L65.3164 31.2552ZM6.35341 25.4774C7.20424 15.4024 15.5508 7.08619 25.7675 6.13273C30.1091 5.7275 34.4044 6.58458 38.1856 8.61121C38.7283 8.9022 38.9287 9.57127 38.6331 10.1057C38.3365 10.6405 37.6584 10.8367 37.1147 10.5463C33.7279 8.73061 29.8782 7.9622 25.9788 8.3264C16.8246 9.18041 9.34637 16.6319 8.58435 25.6592C8.53544 26.2345 8.04575 26.6695 7.4702 26.6695C7.43897 26.6695 7.40775 26.6685 7.37601 26.6654C6.75987 26.6152 6.30244 26.0829 6.35344 25.4763L6.35341 25.4774ZM45.881 28.0881C45.9679 28.6905 45.5417 29.2479 44.9297 29.333C39.7934 30.0471 35.5601 28.7259 33.0295 27.9369C32.4591 27.7586 31.9658 27.6049 31.6176 27.5255C27.7818 26.652 23.8024 27.3575 20.6972 29.4626C18.4038 31.0179 7.69431 32.5175 7.59227 32.5288C7.55011 32.5334 7.50848 32.5354 7.46685 32.5354C6.90431 32.5354 6.41983 32.1189 6.35583 31.5554C6.28818 30.9508 6.73051 30.4063 7.34457 30.3392C9.21697 30.1342 17.9819 28.6291 19.428 27.6485C23.0489 25.1935 27.6772 24.3662 32.1213 25.3789C32.5568 25.4783 33.0887 25.6443 33.7054 25.8364C36.0545 26.5685 39.9855 27.7929 44.6158 27.1509C45.2231 27.0669 45.7945 27.485 45.8809 28.0879L45.881 28.0881ZM19.6674 16.6094C19.6674 18.1797 20.9647 19.4568 22.5597 19.4568C24.1547 19.4568 25.452 18.1796 25.452 16.6094C25.452 15.0392 24.1547 13.762 22.5597 13.762C20.9647 13.762 19.6674 15.0392 19.6674 16.6094ZM23.2138 16.6094C23.2138 16.9644 22.9203 17.2534 22.5597 17.2534C22.199 17.2534 21.9055 16.9644 21.9055 16.6094C21.9055 16.2544 22.199 15.9654 22.5597 15.9654C22.9203 15.9654 23.2138 16.2544 23.2138 16.6094ZM27.5923 16.6094C27.5923 18.1797 28.8897 19.4568 30.4847 19.4568C32.0797 19.4568 33.377 18.1796 33.377 16.6094C33.377 15.0392 32.0797 13.762 30.4847 13.762C28.8902 13.762 27.5923 15.0392 27.5923 16.6094ZM31.1388 16.6094C31.1388 16.9644 30.8453 17.2534 30.4846 17.2534C30.124 17.2534 29.8305 16.9644 29.8305 16.6094C29.8305 16.2544 30.124 15.9654 30.4846 15.9654C30.8453 15.9654 31.1388 16.2544 31.1388 16.6094ZM35.5173 16.6094C35.5173 18.1797 36.8146 19.4568 38.4096 19.4568C40.0047 19.4568 41.302 18.1796 41.302 16.6094C41.302 15.0392 40.0046 13.762 38.4096 13.762C36.8151 13.762 35.5173 15.0392 35.5173 16.6094ZM39.0643 16.6094C39.0643 16.9644 38.7708 17.2534 38.4101 17.2534C38.0495 17.2534 37.756 16.9644 37.756 16.6094C37.756 16.2544 38.0495 15.9654 38.4101 15.9654C38.7702 15.9654 39.0643 16.2544 39.0643 16.6094ZM60.6045 47.4232C60.796 47.6665 60.8757 47.9775 60.8236 48.2813C60.1773 52.0575 58.7036 55.5596 56.4419 58.6898C56.2603 58.9403 55.9808 59.1052 55.6702 59.1442C55.361 59.1831 55.0478 59.0919 54.8084 58.8936C53.5974 57.8885 51.8448 57.9561 50.7321 59.0499C49.6206 60.1447 49.5524 61.8696 50.5739 63.0628C50.7748 63.2985 50.8674 63.6064 50.8284 63.9117C50.7889 64.2171 50.6213 64.4922 50.3663 64.671C47.1857 66.8975 43.6289 68.3483 39.7936 68.9846C39.7317 68.9949 39.6697 69 39.6078 69C39.3617 69 39.1197 68.9196 38.9225 68.769C38.6748 68.5804 38.5197 68.2987 38.4926 67.9913C38.3599 66.4354 37.0725 65.2627 35.4988 65.2627C33.9251 65.2627 32.6376 66.4359 32.5044 67.9913C32.4773 68.2981 32.3223 68.5799 32.0746 68.769C31.8274 68.9575 31.5105 69.0353 31.2034 68.9846C27.3682 68.3488 23.8119 66.8975 20.6307 64.671C20.3757 64.4922 20.2082 64.2171 20.1686 63.9117C20.1291 63.6064 20.2217 63.2985 20.4231 63.0628C21.4446 61.8697 21.377 60.1447 20.2649 59.0499C19.1533 57.9561 17.4012 57.8885 16.1886 58.8936C15.9498 59.0924 15.637 59.1836 15.3269 59.1442C15.0167 59.1052 14.7367 58.9403 14.5551 58.6898C12.2935 55.5596 10.8198 52.0575 10.1734 48.2813C10.1219 47.9775 10.201 47.6665 10.3925 47.4232C10.584 47.1798 10.8702 47.0266 11.1824 47.0005C12.7628 46.8683 13.9541 45.6014 13.9541 44.0522C13.9541 42.7023 13.0142 41.526 11.6696 41.1925C11.0701 41.0439 10.7064 40.4451 10.8573 39.8554C11.0087 39.2658 11.617 38.9092 12.216 39.0562C14.5577 39.6367 16.1923 41.691 16.1923 44.0523C16.1923 46.3407 14.7067 48.2767 12.5839 48.9561C13.1756 51.6621 14.2456 54.2037 15.7755 56.5357C17.7623 55.5392 20.2045 55.8743 21.8474 57.4916C23.4902 59.109 23.8306 61.5111 22.8184 63.4692C25.1877 64.9753 27.7694 66.0293 30.5176 66.6117C31.2076 64.5219 33.1741 63.0594 35.4988 63.0594C37.8235 63.0594 39.7899 64.522 40.48 66.6122C43.2282 66.0297 45.8098 64.9759 48.1792 63.4697C47.167 61.5117 47.5073 59.1095 49.1502 57.4922C50.7925 55.8743 53.2352 55.5408 55.2221 56.5357C56.752 54.2042 57.8225 51.6627 58.4136 48.9566C56.2904 48.2773 54.8052 46.3414 54.8052 44.0528C54.8052 41.7658 56.2878 39.8313 58.4084 39.1505C58.3387 38.8432 58.2586 38.5219 58.168 38.1833C58.0114 37.5947 58.3684 36.9922 58.9663 36.838C59.5642 36.6833 60.1752 37.0352 60.3329 37.6233C60.5473 38.4277 60.7075 39.1474 60.8231 39.8242C60.8746 40.128 60.7955 40.4389 60.6029 40.6818C60.4114 40.9251 60.1252 41.0783 59.814 41.1044C58.2336 41.2366 57.0424 42.5035 57.0424 44.0527C57.0424 45.6014 58.2336 46.8689 59.814 47.0009C60.1268 47.0271 60.413 47.1803 60.6045 47.4232Z" fill="#2D73DC"/>
</svg>
