<svg width="71" height="70" viewBox="0 0 71 70" fill="none" xmlns="http://www.w3.org/2000/svg">
<path d="M36.0011 59.1159C36.8104 59.1159 37.4668 58.4578 37.4668 57.6477V51.0385C39.7967 50.3287 41.4981 48.1577 41.4981 45.5946C41.4981 42.4572 38.9494 39.9048 35.8181 39.9048C32.6861 39.9042 30.1375 42.4573 30.1375 45.5946C30.1375 48.29 32.0195 50.5479 34.5354 51.1328V57.6473C34.5354 58.4585 35.1918 59.1159 36.0011 59.1159ZM33.0695 45.5948C33.0695 44.0763 34.3032 42.8416 35.8181 42.8416C37.3329 42.8416 38.5666 44.0763 38.5666 45.5948C38.5666 47.1133 37.3329 48.3481 35.8181 48.3481C34.3027 48.3481 33.0695 47.1128 33.0695 45.5948ZM60.034 41.2503C60.8433 41.2503 61.4998 40.5922 61.4998 39.782V34.3226C61.4998 31.093 58.8765 28.4652 55.6514 28.4652H50.9048V16.9318C50.9048 8.69868 44.218 2 35.9999 2C27.7819 2.00051 21.095 8.69933 21.095 16.9318V28.4652H16.3484C13.1243 28.4652 10.5 31.093 10.5 34.3226L10.5005 63.1426C10.5005 66.3722 13.1238 69 16.3489 69H55.6516C58.8757 69 61.5 66.3722 61.5 63.1426L61.4995 48.8375C61.4995 48.0268 60.8425 47.3692 60.0337 47.3692C59.2244 47.3692 58.568 48.0273 58.568 48.8375V63.1426C58.568 64.7528 57.2597 66.0633 55.6518 66.0633H16.349C14.7416 66.0633 13.4328 64.7533 13.4328 63.1426V34.3226C13.4328 32.7125 14.7411 31.4019 16.349 31.4019H55.6518C57.2592 31.4019 58.568 32.712 58.568 34.3226V39.782C58.5685 40.5933 59.2247 41.2503 60.034 41.2503ZM47.9738 28.4658H24.0275V16.9318C24.0275 10.3176 29.3983 4.93655 36.0007 4.93655C42.603 4.93655 47.9738 10.3176 47.9738 16.9318V28.4658Z" fill="#2D73DC"/>
</svg>
