<svg width="71" height="70" viewBox="0 0 71 70" fill="none" xmlns="http://www.w3.org/2000/svg">
<path d="M35.2516 62.9998H35.2366C34.7753 62.9949 34.3385 62.7925 34.0389 62.4452L25.5931 52.6273H22.0293C12.3634 52.6273 4.5 44.8279 4.5 35.2408V23.3864C4.5 13.7993 12.3634 6 22.0293 6H48.9707C58.6366 6 66.5 13.7993 66.5 23.3864V35.2408C66.5 44.8279 58.6366 52.6273 48.9707 52.6273H44.5144C43.6345 52.6273 42.9209 51.9189 42.9209 51.0468C42.9209 50.1742 43.6351 49.4664 44.5144 49.4664H48.9707C56.8785 49.4664 63.3129 43.0849 63.3129 35.2411V23.3867C63.3129 15.5433 56.8789 9.16145 48.9707 9.16145H22.0293C14.1215 9.16145 7.68715 15.5429 7.68715 23.3867V35.2411C7.68715 43.0845 14.1211 49.4664 22.0293 49.4664H26.329C26.7953 49.4664 27.2388 49.6692 27.5412 50.021L35.274 59.0104L39.2491 54.5589C39.8332 53.9051 40.8393 53.8461 41.4985 54.4239C42.1576 55.0022 42.2182 56.0011 41.6346 56.6549L36.4436 62.4669C36.1412 62.8054 35.7071 63 35.2514 63L35.2516 62.9998ZM47.8504 33.9566C45.2415 33.9566 43.1189 31.8518 43.1189 29.2636C43.1189 26.6754 45.2409 24.5707 47.8504 24.5707C50.4599 24.5707 52.5819 26.6754 52.5819 29.2636C52.5819 31.8518 50.4587 33.9566 47.8504 33.9566ZM47.8504 27.7333C46.9995 27.7333 46.3064 28.4202 46.3064 29.2648C46.3064 30.1099 46.9989 30.7962 47.8504 30.7962C48.7024 30.7962 49.3945 30.1094 49.3945 29.2648C49.3945 28.4197 48.7014 27.7333 47.8504 27.7333ZM35.8068 33.9566C33.1979 33.9566 31.0753 31.8518 31.0753 29.2636C31.0753 26.6754 33.1974 24.5707 35.8068 24.5707C38.4163 24.5707 40.5383 26.6754 40.5383 29.2636C40.5383 31.8518 38.4157 33.9566 35.8068 33.9566ZM35.8068 27.7333C34.9559 27.7333 34.2628 28.4202 34.2628 29.2648C34.2628 30.1099 34.9553 30.7962 35.8068 30.7962C36.6589 30.7962 37.3509 30.1094 37.3509 29.2648C37.3509 28.4197 36.6578 27.7333 35.8068 27.7333ZM23.7644 33.9566C21.1555 33.9566 19.0329 31.8518 19.0329 29.2636C19.0329 26.6754 21.1549 24.5707 23.7644 24.5707C26.3739 24.5707 28.4959 26.6754 28.4959 29.2636C28.4953 31.8518 26.3727 33.9566 23.7644 33.9566ZM23.7644 27.7333C22.9135 27.7333 22.2203 28.4202 22.2203 29.2648C22.2203 30.1099 22.9129 30.7962 23.7644 30.7962C24.6164 30.7962 25.3084 30.1094 25.3084 29.2648C25.3084 28.4197 24.6154 27.7333 23.7644 27.7333Z" fill="#2D73DC"/>
</svg>
