<svg width="71" height="70" viewBox="0 0 71 70" fill="none" xmlns="http://www.w3.org/2000/svg">
<path d="M66.6326 1V3.03521H31.0132C14.739 3.03521 1.5 16.2747 1.5 32.5484V38.655C1.5 54.9278 14.7395 68.1682 31.0132 68.1682C46.6009 68.1682 59.3979 56.0171 60.4483 40.6904L66.6328 40.6911V42.7263H68.668V1.00071L66.6326 1ZM66.6326 38.6548H58.4901C58.4901 53.8059 46.1636 66.1326 31.0123 66.1326C15.8612 66.1333 3.53449 53.8068 3.53449 38.6548V32.5482C3.53449 17.3971 15.861 5.07043 31.0123 5.07043H66.6317L66.6326 38.6548Z" fill="#2D73DC"/>
<path d="M31.0121 18.3008C19.7888 18.3008 10.6582 27.4313 10.6582 38.6547C10.6582 49.8781 19.7888 59.0087 31.0121 59.0087C42.2355 59.0087 51.3661 49.8781 51.3661 38.6547C51.3661 27.4321 42.2348 18.3008 31.0121 18.3008ZM49.3307 38.6547C49.3307 39.3902 49.2746 40.1128 49.1901 40.8262L42.16 39.5868C42.1856 39.2787 42.2069 38.9692 42.2069 38.6547C42.2069 38.3402 42.1856 38.0307 42.16 37.7226L49.1901 36.4831C49.2753 37.1966 49.3307 37.9193 49.3307 38.6547ZM24.6315 47.8422C25.1405 48.1964 25.6815 48.5038 26.2465 48.77L23.801 55.4899C22.4579 54.912 21.2077 54.1659 20.052 53.2984L24.6315 47.8422ZM28.159 49.4671C28.7545 49.624 29.3651 49.7411 29.9941 49.7979V56.9216C28.5154 56.84 27.0793 56.5993 25.7134 56.1847L28.159 49.4671ZM32.0293 49.7979C32.6582 49.7411 33.2688 49.624 33.8644 49.4671L36.31 56.1848C34.9442 56.598 33.508 56.8393 32.0293 56.9217V49.7979ZM35.7753 48.77C36.3404 48.5024 36.8828 48.1957 37.3903 47.8407L41.9698 53.2976C40.8134 54.1644 39.564 54.9119 38.2208 55.4891L35.7753 48.77ZM31.012 47.8145C25.9618 47.8145 21.8531 43.7064 21.8531 38.6556C21.8531 33.6054 25.9625 29.4967 31.012 29.4967C36.0621 29.4967 40.1709 33.6062 40.1709 38.6556C40.1709 43.7057 36.0614 47.8145 31.012 47.8145ZM12.6934 38.6549C12.6934 37.9194 12.7495 37.1967 12.834 36.4833L19.8641 37.7228C19.8385 38.0316 19.8172 38.3404 19.8172 38.6549C19.8172 38.9694 19.8385 39.2789 19.8641 39.587L12.834 40.8264C12.7495 40.1137 12.6934 39.391 12.6934 38.6549ZM20.2211 35.7188L13.1917 34.4793C13.5275 33.0475 14.0301 31.6816 14.6804 30.4004L20.8585 33.9676C20.5987 34.5298 20.3858 35.1133 20.2211 35.7188ZM20.2211 41.5909C20.3858 42.1971 20.5995 42.7814 20.8593 43.3422L14.6811 46.9094C14.0309 45.6281 13.5283 44.2623 13.1925 42.8304L20.2211 41.5909ZM37.3918 29.4681C36.8828 29.1139 36.3419 28.8065 35.7768 28.5403L38.2224 21.8204C39.5655 22.3983 40.8163 23.1444 41.9713 24.0119L37.3918 29.4681ZM33.8644 27.8432C33.2688 27.6863 32.6583 27.5692 32.0293 27.5124V20.3887C33.508 20.4703 34.9441 20.711 36.31 21.1256L33.8644 27.8432ZM29.9941 27.5124C29.3651 27.5692 28.7546 27.6856 28.159 27.8432L25.7141 21.1255C27.0799 20.7123 28.5146 20.471 29.9934 20.39L29.9941 27.5124ZM26.2466 28.5403C25.6815 28.8079 25.1406 29.1146 24.6316 29.4681L20.0521 24.0113C21.2071 23.1445 22.4579 22.3984 23.8004 21.8198L26.2466 28.5403ZM41.1642 33.9688L47.3424 30.4016C47.9926 31.683 48.4952 33.0487 48.831 34.4806L41.8016 35.72C41.6376 35.1131 41.4248 34.5296 41.1642 33.9688ZM41.8024 41.5903L48.8318 42.8297C48.496 44.2616 47.9934 45.6275 47.3431 46.9087L41.165 43.3415C41.4241 42.7821 41.6377 42.1965 41.8024 41.5903ZM46.3293 28.6363L40.1468 32.2064C39.7869 31.6974 39.3908 31.2161 38.9521 30.7745L43.5295 25.3184C44.5866 26.3108 45.53 27.4196 46.3293 28.6365L46.3293 28.6363ZM18.4935 25.3182L23.0722 30.7743C22.635 31.2159 22.2388 31.6972 21.8782 32.2062L15.6957 28.6361C16.4936 27.4193 17.437 26.3112 18.4934 25.318L18.4935 25.3182ZM15.6945 48.6744L21.877 45.105C22.2369 45.614 22.633 46.0953 23.071 46.5361L18.4923 51.9922C17.4374 50.9991 16.494 49.8903 15.6945 48.6742L15.6945 48.6744ZM43.5303 51.9924L38.9516 46.5376C39.3889 46.096 39.785 45.6147 40.1456 45.1064L46.3281 48.6758C45.5302 49.8904 44.5867 50.9992 43.5303 51.9924Z" fill="#2D73DC"/>
</svg>
