<svg width="66" height="41" viewBox="0 0 66 41" fill="none" xmlns="http://www.w3.org/2000/svg">
<path fill-rule="evenodd" clip-rule="evenodd" d="M64.719 31.2956C65.1763 31.6053 65.2959 32.2271 64.9862 32.6843L59.9394 40.1361C59.6297 40.5934 59.0079 40.713 58.5506 40.4033C58.0933 40.0936 57.9737 39.4719 58.2834 39.0146L62.0173 33.5015C61.3884 33.6001 60.6465 33.7109 59.8095 33.8263C57.0199 34.211 53.1672 34.6482 48.9178 34.8569C44.6716 35.0654 40.0084 35.0469 35.6036 34.5126C31.2118 33.9798 27.0024 32.926 23.7142 31.0144C12.2033 24.3227 8.21948 16.401 2.50265 5.03339C1.86914 3.77369 1.21435 2.47167 0.525676 1.12432L2.30653 0.214069C2.99576 1.56251 3.64866 2.85909 4.27742 4.10773C10.0151 15.5021 13.7424 22.904 24.7194 29.2854C27.6729 31.0023 31.577 32.0095 35.8445 32.5271C40.099 33.0432 44.641 33.0645 48.8197 32.8593C52.9952 32.6543 56.7873 32.2242 59.5362 31.8451C60.2837 31.742 60.9535 31.6427 61.5324 31.5529L56.1457 27.9047C55.6884 27.595 55.5688 26.9732 55.8785 26.5159C56.1882 26.0587 56.81 25.939 57.2672 26.2487L64.719 31.2956Z" fill="#420E08"/>
</svg>
