<svg width="0" height="0" class="hidden">
  <symbol xmlns="http://www.w3.org/2000/svg" viewBox="0 0 24 24" id="close">
    <path d="M19 6.41L17.59 5L12 10.59L6.41 5L5 6.41L10.59 12L5 17.59L6.41 19L12 13.41L17.59 19L19 17.59L13.41 12L19 6.41Z"></path>
  </symbol>
  <symbol fill="none" xmlns="http://www.w3.org/2000/svg" viewBox="0 0 40 40" id="burger-close">
    <rect x="0.5" y="0.5" width="39" height="39" rx="19.5" fill="#1FC3A1"></rect>
    <path fill-rule="evenodd" clip-rule="evenodd" d="M12.2903 26.3077C11.9032 26.6948 11.9032 27.3224 12.2903 27.7095C12.6774 28.0965 13.305 28.0965 13.6921 27.7095L20 21.4016L26.3079 27.7095C26.695 28.0965 27.3225 28.0965 27.7096 27.7095C28.0967 27.3224 28.0967 26.6948 27.7096 26.3077L21.4017 19.9998L27.7095 13.6921C28.0965 13.305 28.0965 12.6774 27.7095 12.2903C27.3224 11.9032 26.6948 11.9032 26.3077 12.2903L20 18.5981L13.6922 12.2903C13.3051 11.9032 12.6775 11.9032 12.2905 12.2903C11.9034 12.6774 11.9034 13.305 12.2905 13.6921L18.5982 19.9998L12.2903 26.3077Z" fill="white"></path>
    <rect x="0.5" y="0.5" width="39" height="39" rx="19.5" stroke="#1FC3A1"></rect>
  </symbol>
  <symbol fill="none" xmlns="http://www.w3.org/2000/svg" viewBox="0 0 40 40" id="burger">
    <rect x="0.5" y="0.5" width="39" height="39" rx="19.5" fill="#1FC3A1"></rect>
    <rect x="16" y="16" width="15" height="2" rx="1" fill="white"></rect>
    <rect x="9" y="22" width="22" height="2" rx="1" fill="white"></rect>
    <rect x="0.5" y="0.5" width="39" height="39" rx="19.5" stroke="#1FC3A1"></rect>
  </symbol>
  <symbol xmlns="http://www.w3.org/2000/svg" viewBox="0 0 24 24" id="arrow">
    <path d="M9.70492 6L8.29492 7.41L12.8749 12L8.29492 16.59L9.70492 18L15.7049 12L9.70492 6Z"></path>
  </symbol>
  <symbol xmlns="http://www.w3.org/2000/svg" viewBox="0 0 21 20" id="arrow-down">
    <path d="M6.33333 8.33325L10.5 12.4999L14.6667 8.33325H6.33333Z"></path>
  </symbol>
  <symbol xmlns="http://www.w3.org/2000/svg" viewBox="0 0 24 24" id="search">
    <path d="M21.7094 20.29L17.9994 16.61C19.4395 14.8144 20.1369 12.5353 19.9482 10.2413C19.7595 7.94733 18.6991 5.81281 16.9849 4.27667C15.2708 2.74053 13.0332 1.91954 10.7323 1.9825C8.43145 2.04546 6.24214 2.98759 4.61456 4.61517C2.98698 6.24275 2.04485 8.43207 1.98189 10.7329C1.91893 13.0338 2.73992 15.2714 4.27606 16.9855C5.8122 18.6997 7.94672 19.7601 10.2407 19.9488C12.5347 20.1375 14.8138 19.4401 16.6094 18L20.2894 21.68C20.3824 21.7738 20.493 21.8481 20.6148 21.8989C20.7367 21.9497 20.8674 21.9758 20.9994 21.9758C21.1314 21.9758 21.2621 21.9497 21.384 21.8989C21.5059 21.8481 21.6165 21.7738 21.7094 21.68C21.8897 21.4936 21.9904 21.2444 21.9904 20.985C21.9904 20.7257 21.8897 20.4765 21.7094 20.29V20.29ZM10.9994 18C9.61495 18 8.26157 17.5895 7.11042 16.8203C5.95928 16.0511 5.06207 14.9579 4.53226 13.6788C4.00245 12.3997 3.86382 10.9923 4.13392 9.63439C4.40402 8.27653 5.0707 7.02925 6.04967 6.05028C7.02864 5.07131 8.27592 4.40463 9.63378 4.13453C10.9917 3.86443 12.3991 4.00306 13.6782 4.53287C14.9573 5.06268 16.0505 5.95989 16.8197 7.11103C17.5889 8.26218 17.9994 9.61556 17.9994 11C17.9994 12.8565 17.2619 14.637 15.9492 15.9498C14.6364 17.2625 12.8559 18 10.9994 18V18Z" fill="#1FC3A1"/>
  </symbol>
  <symbol xmlns="http://www.w3.org/2000/svg" viewBox="0 0 30 30" id="pharmacy">
    <path fill-rule="evenodd" clip-rule="evenodd" d="M10 20V26.25H20V20H26.25V10H20V3.75H10V10H3.75V20H10ZM16.5625 10.3144H14.9188C14.8606 10.3116 14.8026 10.3217 14.7487 10.3437C14.2269 10.5981 13.8994 11.0475 13.6987 11.58C13.6612 11.6781 13.6294 11.7775 13.6012 11.8769H12.315C12.3663 11.635 12.4356 11.385 12.5294 11.1381C12.8056 10.4062 13.31 9.655 14.2006 9.22C14.4253 9.11429 14.6711 9.06087 14.9194 9.06375H16.5631C16.7289 9.06375 16.8879 9.1296 17.0051 9.24681C17.1223 9.36402 17.1881 9.52299 17.1881 9.68875C17.1881 9.85451 17.1223 10.0135 17.0051 10.1307C16.8879 10.2479 16.7289 10.3138 16.5631 10.3138L16.5625 10.3144ZM11.25 12.5019C10.905 12.5019 10.6169 12.7869 10.7106 13.1194C11.0712 14.4062 12.5394 15.4075 14.375 15.595V16.5688C13.9406 16.5794 13.4894 16.6144 13.1062 16.7256C12.8075 16.8131 12.4906 16.9619 12.2481 17.2344C11.9944 17.5194 11.875 17.8794 11.875 18.2812C11.875 18.6831 11.9938 19.0438 12.2475 19.3294C12.49 19.6025 12.8069 19.7525 13.1062 19.84C13.3062 19.8981 13.525 19.9356 13.75 19.9594V18.7013C13.6508 18.6878 13.5526 18.6673 13.4563 18.64C13.2875 18.59 13.2131 18.535 13.1825 18.5C13.1625 18.4775 13.125 18.4269 13.125 18.2812C13.125 18.1375 13.1625 18.0875 13.1813 18.0656C13.2125 18.0306 13.2863 17.975 13.4563 17.9256C13.6956 17.8562 14.0044 17.83 14.375 17.82V21.2519H12.5V22.5019H17.5V21.2519H15.625V17.7912C16.3137 17.7375 16.8719 17.5862 17.2919 17.3156C17.8825 16.9344 18.125 16.3675 18.125 15.7656C18.13 15.4442 18.0502 15.1271 17.8937 14.8462C18.5962 14.4025 19.0981 13.8012 19.2894 13.1194C19.3831 12.7869 19.0956 12.5019 18.75 12.5019H11.25ZM15.625 16.5363C16.1306 16.4875 16.4375 16.3788 16.6144 16.265C16.805 16.1419 16.875 15.9975 16.875 15.7656C16.875 15.59 16.835 15.4706 16.7319 15.3719C16.3713 15.4824 16.0008 15.5571 15.6256 15.595L15.625 16.5363Z" fill="#1FC3A1"/>
  </symbol>
  <symbol xmlns="http://www.w3.org/2000/svg" viewBox="0 0 30 30" id="pdf">
    <path d="M24.6669 17.2707C24.2675 16.8769 23.3806 16.6688 22.0306 16.65C20.9701 16.6512 19.9111 16.7289 18.8619 16.8825C18.3444 16.5844 17.81 16.2582 17.3919 15.8663C16.265 14.8144 15.3237 13.3538 14.7387 11.7469C14.7762 11.5969 14.81 11.4657 14.84 11.3306C14.84 11.3306 15.4756 7.72502 15.3069 6.50627C15.2944 6.38818 15.2667 6.27221 15.2244 6.16127L15.17 6.01877C14.9975 5.62127 14.6581 5.1994 14.1275 5.2219L13.8069 5.21252C13.2144 5.21252 12.7325 5.5144 12.6069 5.96815C12.2225 7.38752 12.62 9.51002 13.3381 12.2588L13.1544 12.7069C12.6387 13.9631 11.9937 15.2288 11.4237 16.3444L11.3487 16.4888C10.7487 17.6625 10.205 18.6581 9.71186 19.5019L9.20374 19.7719C9.16624 19.7907 8.29436 20.2538 8.08999 20.3775C6.35374 21.4144 5.20436 22.59 5.01311 23.5238C4.95311 23.8219 4.99811 24.2025 5.30561 24.3788L5.79874 24.6263C6.00615 24.7317 6.23544 24.787 6.46811 24.7875C7.70374 24.7875 9.13999 23.2481 11.1181 19.7963C13.4562 19.0404 15.8506 18.4711 18.2787 18.0938C20.015 19.0706 22.1506 19.7494 23.4969 19.7494C23.7369 19.7494 23.9431 19.7269 24.11 19.6819C24.3569 19.6218 24.5735 19.4738 24.7194 19.2656C24.98 18.8719 25.0344 18.33 24.9631 17.775C24.9183 17.5799 24.8157 17.4028 24.6687 17.2669L24.6669 17.2707ZM6.19999 23.85C6.42499 23.2332 7.31749 22.0144 8.63749 20.9325C8.71999 20.865 8.92436 20.6738 9.11186 20.4956C7.73186 22.6969 6.80749 23.5744 6.19999 23.8482V23.85ZM14.0169 5.85002C14.4144 5.85002 14.6412 6.85127 14.66 7.79065C14.6787 8.73002 14.4594 9.39002 14.1875 9.87752C13.9625 9.15565 13.8519 8.01752 13.8519 7.27315C13.8519 7.27315 13.835 5.85002 14.0169 5.85002ZM11.6844 18.6769C11.9619 18.1819 12.2487 17.6588 12.5431 17.1038C13.2612 15.7463 13.7131 14.685 14.0506 13.8131C14.6843 14.9875 15.5283 16.0355 16.5406 16.905C16.6625 17.0081 16.7937 17.1132 16.9287 17.2163C14.93 17.6119 13.205 18.0919 11.6844 18.6769ZM24.2844 18.5644C24.1625 18.6413 23.8137 18.6844 23.5906 18.6844C22.8669 18.6844 21.9706 18.3544 20.7162 17.8144C21.1981 17.7788 21.6406 17.76 22.0381 17.76C22.7637 17.76 22.9794 17.7563 23.6881 17.9382C24.3969 18.12 24.4062 18.4875 24.2844 18.5625V18.5644Z" fill="#F4252C"/>
    <path d="M26.8894 6.71063C26.2387 5.82375 25.3313 4.785 24.3356 3.78937C23.34 2.79375 22.3012 1.88625 21.4144 1.23562C19.9031 0.1275 19.17 0 18.75 0H4.21875C2.92687 0 1.875 1.05187 1.875 2.34375V27.6562C1.875 28.9481 2.92687 30 4.21875 30H25.7812C27.0731 30 28.125 28.9481 28.125 27.6562V9.375C28.125 8.955 27.9975 8.22188 26.8894 6.71063ZM23.0081 5.11688C23.9081 6.01688 24.6131 6.82688 25.1344 7.5H20.6231V2.99063C21.2962 3.51188 22.11 4.21688 23.0081 5.11688ZM26.25 27.6562C26.25 27.9112 26.0362 28.125 25.7812 28.125H4.21875C4.09488 28.1235 3.9765 28.0737 3.88891 27.9861C3.80132 27.8985 3.75146 27.7801 3.75 27.6562V2.34375C3.75 2.09063 3.96563 1.875 4.21875 1.875H18.75V8.4375C18.75 8.68614 18.8488 8.9246 19.0246 9.10041C19.2004 9.27623 19.4389 9.375 19.6875 9.375H26.25V27.6562Z" fill="#F4252C"/>
  </symbol>
  <symbol xmlns="http://www.w3.org/2000/svg" viewBox="0 0 24 24" id="share">
    <path d="M17.9987 14C17.4079 14.0039 16.8252 14.1386 16.2927 14.3945C15.7601 14.6504 15.2909 15.0211 14.9187 15.48L9.81869 13.13C10.0585 12.3957 10.0585 11.6042 9.81869 10.87L14.9187 8.51999C15.5203 9.24596 16.359 9.73607 17.2868 9.90383C18.2146 10.0716 19.1719 9.90622 19.9896 9.4369C20.8074 8.96757 21.4331 8.22447 21.7562 7.33874C22.0794 6.453 22.0793 5.48157 21.756 4.5959C21.4326 3.71022 20.8068 2.96724 19.989 2.49806C19.1712 2.02889 18.2139 1.86369 17.2861 2.03162C16.3583 2.19955 15.5197 2.68981 14.9182 3.41589C14.3167 4.14196 13.9911 5.05717 13.9987 5.99999C14.0017 6.23822 14.0251 6.47576 14.0687 6.70999L8.78869 9.13999C8.22576 8.58957 7.51293 8.21751 6.73949 8.07042C5.96605 7.92333 5.1664 8.00776 4.44074 8.31312C3.71507 8.61849 3.09565 9.13121 2.66009 9.78705C2.22452 10.4429 1.99219 11.2127 1.99219 12C1.99219 12.7873 2.22452 13.5571 2.66009 14.2129C3.09565 14.8688 3.71507 15.3815 4.44074 15.6869C5.1664 15.9922 5.96605 16.0767 6.73949 15.9296C7.51293 15.7825 8.22576 15.4104 8.78869 14.86L14.0687 17.29C14.0251 17.5242 14.0017 17.7618 13.9987 18C13.9987 18.7911 14.2333 19.5645 14.6728 20.2223C15.1123 20.8801 15.737 21.3928 16.468 21.6955C17.1989 21.9983 18.0031 22.0775 18.779 21.9231C19.555 21.7688 20.2677 21.3878 20.8271 20.8284C21.3865 20.269 21.7675 19.5563 21.9218 18.7804C22.0762 18.0044 21.997 17.2002 21.6942 16.4693C21.3915 15.7384 20.8788 15.1136 20.221 14.6741C19.5632 14.2346 18.7898 14 17.9987 14ZM17.9987 3.99999C18.3942 3.99999 18.7809 4.11729 19.1098 4.33705C19.4387 4.55682 19.6951 4.86917 19.8464 5.23463C19.9978 5.60008 20.0374 6.00221 19.9603 6.39017C19.8831 6.77813 19.6926 7.1345 19.4129 7.41421C19.1332 7.69391 18.7768 7.88439 18.3889 7.96156C18.0009 8.03873 17.5988 7.99913 17.2333 7.84775C16.8679 7.69638 16.5555 7.44003 16.3357 7.11113C16.116 6.78223 15.9987 6.39555 15.9987 5.99999C15.9987 5.46956 16.2094 4.96085 16.5845 4.58578C16.9595 4.21071 17.4683 3.99999 17.9987 3.99999V3.99999ZM5.99869 14C5.60312 14 5.21644 13.8827 4.88755 13.6629C4.55865 13.4432 4.3023 13.1308 4.15093 12.7654C3.99955 12.3999 3.95994 11.9978 4.03711 11.6098C4.11429 11.2218 4.30477 10.8655 4.58447 10.5858C4.86418 10.3061 5.22054 10.1156 5.6085 10.0384C5.99647 9.96125 6.3986 10.0009 6.76405 10.1522C7.1295 10.3036 7.44186 10.56 7.66162 10.8889C7.88139 11.2178 7.99869 11.6044 7.99869 12C7.99869 12.5304 7.78797 13.0391 7.4129 13.4142C7.03783 13.7893 6.52912 14 5.99869 14ZM17.9987 20C17.6031 20 17.2164 19.8827 16.8875 19.6629C16.5586 19.4432 16.3023 19.1308 16.1509 18.7654C15.9996 18.3999 15.9599 17.9978 16.0371 17.6098C16.1143 17.2218 16.3048 16.8655 16.5845 16.5858C16.8642 16.3061 17.2205 16.1156 17.6085 16.0384C17.9965 15.9613 18.3986 16.0009 18.7641 16.1522C19.1295 16.3036 19.4419 16.56 19.6616 16.8889C19.8814 17.2177 19.9987 17.6044 19.9987 18C19.9987 18.5304 19.788 19.0391 19.4129 19.4142C19.0378 19.7893 18.5291 20 17.9987 20Z" fill="#1FC3A1"/>
  </symbol>
  <symbol fill="none" xmlns="http://www.w3.org/2000/svg" viewBox="0 0 30 30" id="vk">
    <g clip-path="url(#clip0_592_13830)">
      <path d="M0 15C0 6.71573 6.71573 0 15 0C23.2843 0 30 6.71573 30 15C30 23.2843 23.2843 30 15 30C6.71573 30 0 23.2843 0 15Z" fill="white"></path>
      <path d="M15 1C7.27586 1 1 7.27586 1 15C1 22.7242 7.27586 29 15 29C22.7242 29 29 22.7242 29 15C29 7.27586 22.7242 1 15 1ZM21.0771 16.8459C21.1907 16.9878 21.4463 17.2435 21.8722 17.641L21.9006 17.6693C22.8093 18.5213 23.4341 19.2313 23.7465 19.8276C23.7748 19.8559 23.7748 19.9128 23.8032 19.9412C23.8317 19.998 23.86 20.0831 23.86 20.1968C23.8884 20.3104 23.8884 20.424 23.86 20.5376C23.8317 20.6227 23.7465 20.7363 23.6045 20.7931C23.4624 20.8783 23.2637 20.9067 23.0365 20.9067L20.5943 20.9635C20.4523 20.9919 20.2535 20.9919 20.0547 20.9067C19.8559 20.8499 19.6856 20.7647 19.5437 20.6795L19.3449 20.5943C19.1461 20.4523 18.9189 20.2535 18.6632 19.9695C18.4077 19.6856 18.1805 19.43 18.0102 19.2028C17.8398 18.9756 17.641 18.8053 17.4138 18.6349C17.215 18.4929 17.0162 18.4361 16.8742 18.4929C16.8459 18.4929 16.8175 18.5213 16.789 18.5213C16.7606 18.5497 16.7039 18.5781 16.6187 18.6632C16.5335 18.7485 16.4766 18.8337 16.4199 18.9473C16.363 19.0608 16.3063 19.2313 16.2495 19.4584C16.1927 19.6856 16.1927 19.9412 16.1927 20.2252C16.1927 20.3104 16.1927 20.424 16.1643 20.4807C16.1359 20.5659 16.1075 20.6227 16.0791 20.6511L16.0507 20.7079C15.9372 20.8215 15.7667 20.9067 15.5396 20.9351H14.4321C13.9777 20.9635 13.4949 20.9067 13.0122 20.7647C12.5294 20.6227 12.1035 20.4523 11.7343 20.2535C11.3651 20.0547 11.0244 19.8276 10.7404 19.6004C10.428 19.3732 10.2008 19.2028 10.0588 19.0325L9.80325 18.8053C9.74645 18.7485 9.66126 18.6349 9.54766 18.5213C9.43408 18.3793 9.20689 18.0953 8.86612 17.641C8.52535 17.1866 8.18459 16.7039 7.84382 16.1643C7.50305 15.6531 7.10547 14.9716 6.65112 14.1197C6.19675 13.2677 5.77079 12.3874 5.37323 11.4787C5.28803 11.3935 5.25963 11.3083 5.25963 11.2231C5.25963 11.1663 5.25963 11.1095 5.28803 11.0811L5.31643 11.0244C5.40162 10.9108 5.60041 10.8256 5.85598 10.8256L8.52535 10.7972C8.61055 10.7972 8.66734 10.8256 8.75254 10.8539C8.83773 10.8823 8.86612 10.9108 8.89453 10.9392L8.95132 10.9675C9.06491 11.0527 9.12171 11.138 9.1785 11.2799C9.32049 11.5923 9.46248 11.9331 9.63286 12.2738C9.80325 12.6146 9.94523 12.8986 10.0304 13.0689L10.1724 13.3529C10.3712 13.7505 10.5416 14.0913 10.712 14.3752C10.8823 14.6592 11.0527 14.8864 11.1947 15.0284C11.3368 15.1988 11.4787 15.3124 11.5923 15.3976C11.7343 15.4827 11.8195 15.5396 11.9331 15.5396C12.0183 15.5396 12.1035 15.5112 12.1886 15.4827C12.1886 15.4827 12.2171 15.4543 12.2455 15.426C12.2738 15.3976 12.3022 15.3408 12.359 15.1988C12.4158 15.0852 12.4726 14.9432 12.501 14.7445C12.5294 14.5457 12.5578 14.2901 12.5862 13.9493C12.6146 13.6085 12.6146 13.211 12.5862 12.7282C12.5862 12.4726 12.5578 12.2455 12.501 12.0183C12.4443 11.7911 12.4158 11.6491 12.359 11.5639L12.3307 11.5071C12.1602 11.2799 11.9047 11.138 11.5071 11.0811C11.4219 11.0811 11.4503 10.9959 11.5639 10.8539C11.6775 10.7404 11.7911 10.6268 11.9331 10.5699C12.2738 10.3996 13.0406 10.3144 14.2616 10.3428C14.8012 10.3428 15.2272 10.3996 15.5679 10.4563C15.7099 10.4848 15.7951 10.5416 15.8803 10.5984C15.9655 10.6551 16.0223 10.7404 16.0791 10.8256C16.1359 10.9392 16.1643 11.0244 16.1927 11.138C16.2211 11.2515 16.2211 11.3935 16.2211 11.5923C16.2211 11.7911 16.2211 11.9614 16.2211 12.1319C16.2211 12.3022 16.1927 12.5294 16.1927 12.8134C16.1927 13.0974 16.1643 13.3813 16.1643 13.6085C16.1643 13.6937 16.1643 13.8073 16.1643 14.0061C16.1643 14.2049 16.1643 14.3752 16.1643 14.4604C16.1643 14.574 16.1927 14.716 16.1927 14.858C16.2211 15 16.2495 15.142 16.3063 15.2272C16.363 15.3408 16.4483 15.3976 16.5335 15.4543C16.5903 15.4543 16.6471 15.4827 16.7039 15.4827C16.7606 15.4827 16.8459 15.4543 16.9594 15.3691C17.073 15.284 17.1866 15.1704 17.3286 15.0284C17.4706 14.8864 17.641 14.6592 17.8398 14.3752C18.0386 14.0913 18.2657 13.7221 18.4929 13.3246C18.8905 12.643 19.2313 11.9331 19.5437 11.138C19.572 11.0811 19.6004 11.0244 19.6288 10.9675C19.6572 10.9108 19.714 10.8823 19.7424 10.8539L19.7708 10.8256C19.7708 10.8256 19.7992 10.7972 19.8276 10.7972C19.8559 10.7972 19.8844 10.7687 19.9412 10.7687C19.998 10.7687 20.0831 10.7687 20.14 10.7687L22.9513 10.7404C23.2069 10.712 23.4057 10.712 23.576 10.7687C23.7465 10.8256 23.8317 10.8823 23.8884 10.9392L23.9453 11.0244C24.0872 11.4503 23.6045 12.3874 22.497 13.8925C22.3549 14.0913 22.1278 14.3752 21.8722 14.716C21.361 15.3691 21.0771 15.7951 20.9919 15.9939C20.8215 16.3347 20.8783 16.5903 21.0771 16.8459Z" fill="#1FC3A1"></path>
    </g>
    <defs>
      <clipPath id="clip0_592_13830">
        <rect width="30" height="30" fill="white"></rect>
      </clipPath>
    </defs>
  </symbol>
  <symbol fill="none" xmlns="http://www.w3.org/2000/svg" viewBox="0 0 30 30" id="dzen">
    <g clip-path="url(#clip0_651_10594)">
      <path d="M29.6016 15C29.6016 23.0081 23.1097 29.5 15.1016 29.5C7.09343 29.5 0.601562 23.0081 0.601562 15C0.601562 6.99187 7.09343 0.5 15.1016 0.5C23.1097 0.5 29.6016 6.99187 29.6016 15Z" fill="white" stroke="white"></path>
      <path fill-rule="evenodd" clip-rule="evenodd" d="M1.3798 12.48L1.09495 14.72C1.09495 14.7496 1.09495 14.7698 1.09193 14.7895C1.08542 14.8321 1.06486 14.8725 1 15L1 15C1.08146 14.984 1.16012 14.968 1.23646 14.9524L1.23647 14.9524C1.60509 14.8774 1.91973 14.8133 2.23436 14.8133C2.8818 14.7527 3.52924 14.702 4.17343 14.6514C5.5132 14.5464 6.83891 14.4424 8.12133 14.2533C11.5396 13.6933 13.7234 11.64 14.3881 8.28C14.6729 6.78667 14.8628 5.29333 14.9578 3.8C15.0201 3.18782 15.0007 2.6158 14.9799 2.00492V2.0049V2.00487C14.969 1.68441 14.9578 1.35326 14.9578 1C14.712 1.04833 14.4152 1.07163 14.1071 1.09583C13.8201 1.11836 13.5234 1.14166 13.2487 1.18667C7.36172 1.93333 2.32931 6.78667 1.3798 12.48ZM27.514 14.9277L27.514 14.9277L27.5141 14.9277C28.0016 14.9483 28.4955 14.9691 28.999 15C29.0904 7.47674 22.786 0.905791 15.9333 1.00102V1.00103C15.9333 3.76273 15.9333 6.52443 16.6643 9.1909C17.4866 11.7621 19.1312 13.5715 21.6895 14.2382L21.6896 14.2382C22.6033 14.4286 23.5169 14.6191 24.522 14.7143C25.5099 14.843 26.4978 14.8847 27.514 14.9277L27.514 14.9277ZM15 29C11.3562 28.9086 8.28767 27.7207 5.60274 25.4364C2.72603 22.8779 1.09589 19.6797 1 15.9333C1.62329 15.979 2.24658 16.0019 2.86986 16.0247C3.49315 16.0476 4.11644 16.0704 4.73973 16.1161C6.08219 16.2075 7.42466 16.3902 8.67123 16.6643C11.8356 17.3953 13.6575 19.3142 14.4247 22.3296C14.9041 24.4312 15 26.5329 15 28.6345V29ZM15.9333 29C22.6037 28.8172 28.7259 23.2434 29 15.9333C26.5329 15.9333 24.0657 16.0247 21.5986 16.7557C18.9487 17.4867 17.304 19.1315 16.573 21.8727C16.1161 23.6089 16.0247 25.345 15.9333 27.0811V29Z" fill="#1FC3A1"></path>
    </g>
    <defs>
      <clipPath id="clip0_651_10594">
        <rect width="30" height="30" fill="white"></rect>
      </clipPath>
    </defs>
  </symbol>
  <symbol fill="none" xmlns="http://www.w3.org/2000/svg" viewBox="0 0 30 30" id="ok">
    <g clip-path="url(#clip0_592_13833)">
      <path d="M29.4016 15C29.4016 22.9529 22.9545 29.4 15.0016 29.4C7.04866 29.4 0.601562 22.9529 0.601562 15C0.601562 7.04707 7.04866 0.599976 15.0016 0.599976C22.9545 0.599976 29.4016 7.04707 29.4016 15Z" fill="#1FC3A1" stroke="white"></path>
      <path d="M15 4.59982C17.9 4.59982 20.3 6.99982 20.3 9.99982C20.3 12.9998 17.9 15.3998 14.9 15.3998C12 15.3998 9.5 13.0998 9.5 9.99982C9.6 6.79982 12.2 4.49982 15 4.59982Z" fill="white"></path>
      <path d="M17.4014 19.8999C18.3014 20.7999 19.3014 21.6999 20.2014 22.6999C20.6014 23.0999 20.8014 23.6999 20.6014 24.2999C20.4014 24.8999 20.0014 25.2999 19.4014 25.3999C18.8014 25.4999 18.3014 25.2999 17.9014 24.8999C17.0014 23.9999 16.1014 23.0999 15.2014 22.1999C15.1014 22.0999 15.1014 22.0999 15.0014 21.9999H14.9014C14.9014 22.0999 14.8014 22.1999 14.7014 22.1999C13.8014 23.0999 12.9014 23.9999 12.0014 24.8999C11.5014 25.3999 11.0014 25.4999 10.4014 25.2999C9.80141 25.0999 9.40141 24.6999 9.30141 23.9999C9.20141 23.4999 9.40141 22.9999 9.80141 22.6999C10.7014 21.7999 11.6014 20.8999 12.6014 19.8999C12.7014 19.7999 12.7014 19.7999 12.8014 19.6999C12.7014 19.6999 12.6014 19.5999 12.5014 19.5999C11.5014 19.2999 10.6014 18.8999 9.70141 18.3999C9.00141 17.9999 8.70141 16.9999 9.20141 16.2999C9.70141 15.4999 10.6014 15.2999 11.4014 15.7999C13.8014 17.1999 16.2014 17.1999 18.6014 15.7999C19.4014 15.2999 20.4014 15.4999 20.8014 16.2999C21.3014 17.0999 21.0014 17.9999 20.2014 18.4999C19.3014 19.0999 18.3014 19.4999 17.2014 19.6999L17.1014 19.7999C17.2014 19.7999 17.3014 19.8999 17.4014 19.8999Z" fill="white"></path>
      <path d="M15.0008 12.1998C16.2008 12.1998 17.2008 11.1998 17.2008 9.9998C17.2008 8.7998 16.2008 7.7998 15.0008 7.7998C13.8008 7.7998 12.8008 8.7998 12.8008 9.9998C12.8008 11.1998 13.8008 12.1998 15.0008 12.1998Z" fill="#1FC3A1"></path>
    </g>
    <defs>
      <clipPath id="clip0_592_13833">
        <rect width="30" height="30" fill="white"></rect>
      </clipPath>
    </defs>
  </symbol>
  <symbol fill="none" xmlns="http://www.w3.org/2000/svg" viewBox="0 0 30 30" id="telegram">
    <g clip-path="url(#clip0_592_13825)">
      <path d="M0.5 15C0.5 6.99187 6.99187 0.5 15 0.5C23.0082 0.5 29.5 6.99187 29.5 15C29.5 23.0082 23.0082 29.5 15 29.5C6.99187 29.5 0.5 23.0082 0.5 15Z" fill="white" stroke="white"></path>
      <path fill-rule="evenodd" clip-rule="evenodd" d="M1 15C1 7.27586 7.27586 1 15 1C22.7242 1 29 7.27586 29 15C29 22.7242 22.7242 29 15 29C7.27586 29 1 22.7242 1 15ZM19.7424 22.2414L22.8945 7.50305C22.9513 7.19067 22.639 6.90669 22.3266 7.07708L5.00406 13.6653C4.66329 13.7789 4.66329 14.3469 5.00406 14.4888L9.43408 16.3063L11.0811 21.503C11.1947 21.7586 11.5355 21.8722 11.7626 21.6734L14.2901 19.3164L19.1177 22.5254C19.3449 22.6673 19.6856 22.5254 19.7424 22.2414ZM11.8754 17.2714L11.6198 19.9407L10.2568 15.8231L19.7131 9.63242L11.8754 17.2714Z" fill="#1FC3A1"></path>
    </g>
    <defs>
      <clipPath id="clip0_592_13825">
        <rect width="30" height="30" fill="white"></rect>
      </clipPath>
    </defs>
  </symbol>
  <symbol fill="none" xmlns="http://www.w3.org/2000/svg" viewBox="0 0 24 24" id="mail">
    <path d="M19 4H5C4.20435 4 3.44129 4.31607 2.87868 4.87868C2.31607 5.44129 2 6.20435 2 7V17C2 17.7956 2.31607 18.5587 2.87868 19.1213C3.44129 19.6839 4.20435 20 5 20H19C19.7956 20 20.5587 19.6839 21.1213 19.1213C21.6839 18.5587 22 17.7956 22 17V7C22 6.20435 21.6839 5.44129 21.1213 4.87868C20.5587 4.31607 19.7956 4 19 4ZM18.59 6L12.71 11.88C12.617 11.9737 12.5064 12.0481 12.3846 12.0989C12.2627 12.1497 12.132 12.1758 12 12.1758C11.868 12.1758 11.7373 12.1497 11.6154 12.0989C11.4936 12.0481 11.383 11.9737 11.29 11.88L5.41 6H18.59ZM20 17C20 17.2652 19.8946 17.5196 19.7071 17.7071C19.5196 17.8946 19.2652 18 19 18H5C4.73478 18 4.48043 17.8946 4.29289 17.7071C4.10536 17.5196 4 17.2652 4 17V7.41L9.88 13.29C10.4425 13.8518 11.205 14.1674 12 14.1674C12.795 14.1674 13.5575 13.8518 14.12 13.29L20 7.41V17Z" fill="#1FC3A1"></path>
  </symbol>
   <symbol xmlns="http://www.w3.org/2000/svg" viewBox="0 0 24 24" id="mail-white">
    <path d="M19 4H5C4.20435 4 3.44129 4.31607 2.87868 4.87868C2.31607 5.44129 2 6.20435 2 7V17C2 17.7956 2.31607 18.5587 2.87868 19.1213C3.44129 19.6839 4.20435 20 5 20H19C19.7956 20 20.5587 19.6839 21.1213 19.1213C21.6839 18.5587 22 17.7956 22 17V7C22 6.20435 21.6839 5.44129 21.1213 4.87868C20.5587 4.31607 19.7956 4 19 4ZM18.59 6L12.71 11.88C12.617 11.9737 12.5064 12.0481 12.3846 12.0989C12.2627 12.1497 12.132 12.1758 12 12.1758C11.868 12.1758 11.7373 12.1497 11.6154 12.0989C11.4936 12.0481 11.383 11.9737 11.29 11.88L5.41 6H18.59ZM20 17C20 17.2652 19.8946 17.5196 19.7071 17.7071C19.5196 17.8946 19.2652 18 19 18H5C4.73478 18 4.48043 17.8946 4.29289 17.7071C4.10536 17.5196 4 17.2652 4 17V7.41L9.88 13.29C10.4425 13.8518 11.205 14.1674 12 14.1674C12.795 14.1674 13.5575 13.8518 14.12 13.29L20 7.41V17Z"></path>
  </symbol>
  <symbol fill="none" xmlns="http://www.w3.org/2000/svg" viewBox="0 0 24 24" id="tel">
    <path d="M19.4386 13.0001C19.2186 13.0001 18.9886 12.9301 18.7686 12.8801C18.3231 12.7819 17.8853 12.6516 17.4586 12.4901C16.9947 12.3213 16.4848 12.3301 16.0269 12.5147C15.5691 12.6993 15.1957 13.0467 14.9786 13.4901L14.7586 13.9401C13.7846 13.3983 12.8896 12.7253 12.0986 11.9401C11.3134 11.1491 10.6405 10.2541 10.0986 9.28011L10.5186 9.00011C10.962 8.78303 11.3094 8.40964 11.494 7.9518C11.6786 7.49396 11.6874 6.98402 11.5186 6.52011C11.3599 6.09253 11.2296 5.65491 11.1286 5.21011C11.0786 4.99011 11.0386 4.76011 11.0086 4.53011C10.8872 3.82573 10.5183 3.18785 9.96826 2.73135C9.41825 2.27485 8.72333 2.02972 8.00864 2.04011H5.00864C4.57767 2.03607 4.15089 2.12493 3.75735 2.30064C3.36381 2.47636 3.01275 2.73481 2.72807 3.05839C2.44339 3.38198 2.23177 3.76311 2.10762 4.17583C1.98348 4.58855 1.94972 5.02317 2.00864 5.45011C2.54137 9.63949 4.45466 13.532 7.44629 16.5127C10.4379 19.4935 14.3373 21.3926 18.5286 21.9101H18.9086C19.6461 21.9112 20.358 21.6406 20.9086 21.1501C21.225 20.8672 21.4777 20.5203 21.6501 20.1324C21.8225 19.7446 21.9106 19.3245 21.9086 18.9001V15.9001C21.8964 15.2055 21.6434 14.5367 21.193 14.0078C20.7425 13.4789 20.1225 13.1227 19.4386 13.0001ZM19.9386 19.0001C19.9385 19.1421 19.908 19.2824 19.8494 19.4117C19.7908 19.5411 19.7053 19.6564 19.5986 19.7501C19.4872 19.8471 19.3566 19.9195 19.2153 19.9626C19.074 20.0057 18.9252 20.0185 18.7786 20.0001C15.0335 19.5199 11.5549 17.8066 8.89135 15.1304C6.22783 12.4542 4.53105 8.96745 4.06864 5.22011C4.05272 5.07363 4.06667 4.92544 4.10964 4.7845C4.15261 4.64356 4.22371 4.5128 4.31864 4.40011C4.41235 4.29344 4.5277 4.20795 4.65701 4.14933C4.78633 4.09071 4.92665 4.06029 5.06864 4.06011H8.06864C8.30118 4.05494 8.52826 4.13099 8.71078 4.27518C8.8933 4.41937 9.01985 4.62268 9.06864 4.85011C9.10864 5.12345 9.15864 5.39345 9.21864 5.66011C9.33416 6.18726 9.4879 6.70529 9.67864 7.21011L8.27864 7.86011C8.15893 7.91503 8.05126 7.99306 7.96179 8.08971C7.87233 8.18636 7.80284 8.29973 7.75731 8.42331C7.71178 8.54689 7.69111 8.67824 7.69648 8.80983C7.70186 8.94142 7.73318 9.07066 7.78864 9.19011C9.22784 12.2729 11.7059 14.7509 14.7886 16.1901C15.0321 16.2901 15.3052 16.2901 15.5486 16.1901C15.6733 16.1455 15.788 16.0766 15.8858 15.9873C15.9837 15.898 16.0628 15.7902 16.1186 15.6701L16.7386 14.2701C17.2556 14.455 17.7832 14.6086 18.3186 14.7301C18.5853 14.7901 18.8553 14.8401 19.1286 14.8801C19.3561 14.9289 19.5594 15.0554 19.7036 15.238C19.8478 15.4205 19.9238 15.6476 19.9186 15.8801L19.9386 19.0001Z" fill="#1FC3A1"></path>
  </symbol>
  <symbol xmlns="http://www.w3.org/2000/svg" viewBox="0 0 24 24" id="tel-white">
    <path d="M19.4386 13.0001C19.2186 13.0001 18.9886 12.9301 18.7686 12.8801C18.3231 12.7819 17.8853 12.6516 17.4586 12.4901C16.9947 12.3213 16.4848 12.3301 16.0269 12.5147C15.5691 12.6993 15.1957 13.0467 14.9786 13.4901L14.7586 13.9401C13.7846 13.3983 12.8896 12.7253 12.0986 11.9401C11.3134 11.1491 10.6405 10.2541 10.0986 9.28011L10.5186 9.00011C10.962 8.78303 11.3094 8.40964 11.494 7.9518C11.6786 7.49396 11.6874 6.98402 11.5186 6.52011C11.3599 6.09253 11.2296 5.65491 11.1286 5.21011C11.0786 4.99011 11.0386 4.76011 11.0086 4.53011C10.8872 3.82573 10.5183 3.18785 9.96826 2.73135C9.41825 2.27485 8.72333 2.02972 8.00864 2.04011H5.00864C4.57767 2.03607 4.15089 2.12493 3.75735 2.30064C3.36381 2.47636 3.01275 2.73481 2.72807 3.05839C2.44339 3.38198 2.23177 3.76311 2.10762 4.17583C1.98348 4.58855 1.94972 5.02317 2.00864 5.45011C2.54137 9.63949 4.45466 13.532 7.44629 16.5127C10.4379 19.4935 14.3373 21.3926 18.5286 21.9101H18.9086C19.6461 21.9112 20.358 21.6406 20.9086 21.1501C21.225 20.8672 21.4777 20.5203 21.6501 20.1324C21.8225 19.7446 21.9106 19.3245 21.9086 18.9001V15.9001C21.8964 15.2055 21.6434 14.5367 21.193 14.0078C20.7425 13.4789 20.1225 13.1227 19.4386 13.0001ZM19.9386 19.0001C19.9385 19.1421 19.908 19.2824 19.8494 19.4117C19.7908 19.5411 19.7053 19.6564 19.5986 19.7501C19.4872 19.8471 19.3566 19.9195 19.2153 19.9626C19.074 20.0057 18.9252 20.0185 18.7786 20.0001C15.0335 19.5199 11.5549 17.8066 8.89135 15.1304C6.22783 12.4542 4.53105 8.96745 4.06864 5.22011C4.05272 5.07363 4.06667 4.92544 4.10964 4.7845C4.15261 4.64356 4.22371 4.5128 4.31864 4.40011C4.41235 4.29344 4.5277 4.20795 4.65701 4.14933C4.78633 4.09071 4.92665 4.06029 5.06864 4.06011H8.06864C8.30118 4.05494 8.52826 4.13099 8.71078 4.27518C8.8933 4.41937 9.01985 4.62268 9.06864 4.85011C9.10864 5.12345 9.15864 5.39345 9.21864 5.66011C9.33416 6.18726 9.4879 6.70529 9.67864 7.21011L8.27864 7.86011C8.15893 7.91503 8.05126 7.99306 7.96179 8.08971C7.87233 8.18636 7.80284 8.29973 7.75731 8.42331C7.71178 8.54689 7.69111 8.67824 7.69648 8.80983C7.70186 8.94142 7.73318 9.07066 7.78864 9.19011C9.22784 12.2729 11.7059 14.7509 14.7886 16.1901C15.0321 16.2901 15.3052 16.2901 15.5486 16.1901C15.6733 16.1455 15.788 16.0766 15.8858 15.9873C15.9837 15.898 16.0628 15.7902 16.1186 15.6701L16.7386 14.2701C17.2556 14.455 17.7832 14.6086 18.3186 14.7301C18.5853 14.7901 18.8553 14.8401 19.1286 14.8801C19.3561 14.9289 19.5594 15.0554 19.7036 15.238C19.8478 15.4205 19.9238 15.6476 19.9186 15.8801L19.9386 19.0001Z"></path>
  </symbol>
  <symbol fill="none" xmlns="http://www.w3.org/2000/svg" viewBox="0 0 24 24" id="location">
    <path d="M18.0009 4.47997C16.4096 2.88867 14.2513 1.99469 12.0009 1.99469C9.75047 1.99469 7.59221 2.88867 6.00091 4.47997C4.40961 6.07127 3.51563 8.22954 3.51563 10.48C3.51562 12.7304 4.40961 14.8887 6.00091 16.48L11.2709 21.76C11.3639 21.8537 11.4745 21.9281 11.5963 21.9789C11.7182 22.0296 11.8489 22.0558 11.9809 22.0558C12.1129 22.0558 12.2436 22.0296 12.3655 21.9789C12.4873 21.9281 12.5979 21.8537 12.6909 21.76L18.0009 16.43C19.5856 14.8453 20.4758 12.696 20.4758 10.455C20.4758 8.21392 19.5856 6.06465 18.0009 4.47997V4.47997ZM16.5709 15L12.0009 19.59L7.43091 15C6.52805 14.0963 5.91338 12.9452 5.6646 11.6923C5.41582 10.4393 5.54409 9.14072 6.03321 7.96065C6.52233 6.78059 7.35032 5.77202 8.41254 5.06245C9.47475 4.35288 10.7235 3.97415 12.0009 3.97415C13.2783 3.97415 14.5271 4.35288 15.5893 5.06245C16.6515 5.77202 17.4795 6.78059 17.9686 7.96065C18.4577 9.14072 18.586 10.4393 18.3372 11.6923C18.0884 12.9452 17.4738 14.0963 16.5709 15V15ZM9.00091 7.40997C8.19362 8.21974 7.7403 9.31654 7.7403 10.46C7.7403 11.6034 8.19362 12.7002 9.00091 13.51C9.60067 14.1108 10.3645 14.5211 11.1966 14.6894C12.0286 14.8577 12.8919 14.7766 13.678 14.4561C14.4641 14.1357 15.1381 13.5903 15.6154 12.8882C16.0927 12.1862 16.352 11.3588 16.3609 10.51C16.3654 9.94318 16.2562 9.38123 16.0398 8.85736C15.8234 8.33349 15.5041 7.85833 15.1009 7.45997C14.7046 7.05455 14.232 6.73151 13.7103 6.50944C13.1887 6.28737 12.6282 6.17065 12.0613 6.166C11.4944 6.16135 10.9321 6.26887 10.4069 6.48236C9.88165 6.69585 9.40383 7.0111 9.00091 7.40997V7.40997ZM13.6909 12.09C13.3119 12.4747 12.8111 12.7159 12.274 12.7722C11.737 12.8286 11.197 12.6966 10.7464 12.3989C10.2959 12.1012 9.9627 11.6562 9.80391 11.1401C9.64512 10.6239 9.67056 10.0686 9.87586 9.56913C10.0812 9.06964 10.4536 8.65699 10.9295 8.40171C11.4054 8.14643 11.9552 8.06438 12.4848 8.16959C13.0145 8.2748 13.4912 8.56073 13.8334 8.9785C14.1756 9.39627 14.3621 9.91994 14.3609 10.46C14.3464 11.0772 14.0874 11.6635 13.6409 12.09H13.6909Z" fill="#1FC3A1"></path>
  </symbol>
   <symbol fill="none" xmlns="http://www.w3.org/2000/svg" viewBox="0 0 24 24" id="arrow-dark">
    <path d="M18 9.7048L16.59 8.2948L12 12.8748L7.41 8.2948L6 9.7048L12 15.7048L18 9.7048Z" fill="#1FC3A1"></path>
  </symbol>
   <symbol fill="none" xmlns="http://www.w3.org/2000/svg" viewBox="0 0 61 60" id="modal-close">
    <circle cx="30.9648" cy="30" r="30" fill="#1FC3A1"></circle>
    <path d="M33.0807 30L42.5307 20.565C42.8132 20.2825 42.9719 19.8994 42.9719 19.5C42.9719 19.1005 42.8132 18.7174 42.5307 18.435C42.2483 18.1525 41.8652 17.9938 41.4657 17.9938C41.0663 17.9938 40.6832 18.1525 40.4007 18.435L30.9657 27.885L21.5307 18.435C21.2483 18.1525 20.8652 17.9938 20.4657 17.9938C20.0663 17.9938 19.6832 18.1525 19.4007 18.435C19.1183 18.7174 18.9596 19.1005 18.9596 19.5C18.9596 19.8994 19.1183 20.2825 19.4007 20.565L28.8507 30L19.4007 39.435C19.2601 39.5744 19.1485 39.7403 19.0724 39.9231C18.9962 40.1059 18.957 40.302 18.957 40.5C18.957 40.698 18.9962 40.894 19.0724 41.0768C19.1485 41.2596 19.2601 41.4255 19.4007 41.565C19.5402 41.7056 19.7061 41.8172 19.8889 41.8933C20.0717 41.9695 20.2677 42.0087 20.4657 42.0087C20.6637 42.0087 20.8598 41.9695 21.0426 41.8933C21.2254 41.8172 21.3913 41.7056 21.5307 41.565L30.9657 32.115L40.4007 41.565C40.5402 41.7056 40.7061 41.8172 40.8889 41.8933C41.0717 41.9695 41.2677 42.0087 41.4657 42.0087C41.6637 42.0087 41.8598 41.9695 42.0426 41.8933C42.2254 41.8172 42.3913 41.7056 42.5307 41.565C42.6713 41.4255 42.7829 41.2596 42.8591 41.0768C42.9352 40.894 42.9744 40.698 42.9744 40.5C42.9744 40.302 42.9352 40.1059 42.8591 39.9231C42.7829 39.7403 42.6713 39.5744 42.5307 39.435L33.0807 30Z" fill="white"></path>
  </symbol>
   <symbol xmlns="http://www.w3.org/2000/svg" viewBox="0 0 25 24" id="attach">
    <path d="M18.5797 12.42L12.3997 18.61C11.5895 19.33 10.5348 19.7132 9.45139 19.6814C8.36797 19.6495 7.33767 19.2048 6.57124 18.4384C5.80482 17.672 5.36018 16.6417 5.32829 15.5582C5.2964 14.4748 5.67966 13.4202 6.39967 12.61L14.3997 4.60997C14.8773 4.15627 15.5109 3.9033 16.1697 3.9033C16.8284 3.9033 17.462 4.15627 17.9397 4.60997C18.405 5.08156 18.6659 5.71744 18.6659 6.37997C18.6659 7.0425 18.405 7.67838 17.9397 8.14997L11.0397 15.04C10.9714 15.1135 10.8893 15.1729 10.798 15.2147C10.7068 15.2565 10.6082 15.2799 10.508 15.2836C10.4077 15.2874 10.3076 15.2713 10.2136 15.2363C10.1195 15.2014 10.0332 15.1483 9.95967 15.08C9.88613 15.0117 9.82676 14.9296 9.78495 14.8383C9.74314 14.7471 9.71971 14.6485 9.716 14.5483C9.71228 14.448 9.72836 14.3479 9.7633 14.2539C9.79825 14.1598 9.85138 14.0735 9.91967 14L15.0497 8.87997C15.238 8.69166 15.3438 8.43627 15.3438 8.16997C15.3438 7.90367 15.238 7.64827 15.0497 7.45997C14.8614 7.27166 14.606 7.16588 14.3397 7.16588C14.0734 7.16588 13.818 7.27166 13.6297 7.45997L8.49967 12.6C8.24298 12.8547 8.03924 13.1577 7.9002 13.4915C7.76117 13.8253 7.68959 14.1834 7.68959 14.545C7.68959 14.9066 7.76117 15.2646 7.9002 15.5984C8.03924 15.9323 8.24298 16.2353 8.49967 16.49C9.02404 16.9895 9.72048 17.2681 10.4447 17.2681C11.1689 17.2681 11.8653 16.9895 12.3897 16.49L19.2797 9.58997C20.0746 8.73692 20.5073 7.60864 20.4867 6.44283C20.4662 5.27703 19.9939 4.16472 19.1694 3.34024C18.3449 2.51576 17.2326 2.04349 16.0668 2.02292C14.901 2.00235 13.7727 2.43509 12.9197 3.22997L4.91967 11.23C3.84087 12.4248 3.2647 13.9898 3.3112 15.5989C3.35771 17.2081 4.0233 18.7372 5.16931 19.8677C6.31532 20.9983 7.85335 21.643 9.46296 21.6677C11.0726 21.6923 12.6296 21.0949 13.8097 20L19.9997 13.82C20.0929 13.7267 20.1669 13.616 20.2173 13.4942C20.2678 13.3724 20.2938 13.2418 20.2938 13.11C20.2938 12.9781 20.2678 12.8475 20.2173 12.7257C20.1669 12.6039 20.0929 12.4932 19.9997 12.4C19.9064 12.3067 19.7957 12.2328 19.6739 12.1823C19.5521 12.1318 19.4215 12.1059 19.2897 12.1059C19.1578 12.1059 19.0272 12.1318 18.9054 12.1823C18.7836 12.2328 18.6729 12.3067 18.5797 12.4V12.42Z"></path>
  </symbol>
  <symbol xmlns="http://www.w3.org/2000/svg" viewBox="0 0 30 30" id="quote">
    <path d="M25.0059 16.2871V23.9336H16.5391V18.2207C16.5391 15.7988 16.8027 13.6992 17.3301 11.9219C17.8574 10.1445 18.6777 8.50391 19.791 7H25.123C23.9121 8.52344 22.9648 10.1055 22.2812 11.7461C21.6172 13.3672 21.2852 14.8809 21.2852 16.2871H25.0059ZM12.4082 16.2871V23.9336H4V18.2207C4 15.8574 4.25391 13.7773 4.76172 11.9805C5.26953 10.1641 6.07031 8.50391 7.16406 7H12.5254C11.3145 8.52344 10.3672 10.1055 9.68359 11.7461C9.01953 13.3672 8.6875 14.8809 8.6875 16.2871H12.4082Z" fill="#1FC3A1"></path>
  </symbol>
   <symbol xmlns="http://www.w3.org/2000/svg" viewBox="0 0 24 24" id="heart">
    <path d="M20.1603 4.99998C19.1002 3.93719 17.6951 3.28852 16.1986 3.17115C14.7021 3.05378 13.213 3.47545 12.0003 4.35998C10.7279 3.41362 9.14427 2.98449 7.5682 3.15902C5.99212 3.33355 4.54072 4.09876 3.50625 5.30057C2.47178 6.50237 1.9311 8.0515 1.99308 9.636C2.05506 11.2205 2.71509 12.7227 3.84028 13.84L10.0503 20.06C10.5703 20.5718 11.2707 20.8586 12.0003 20.8586C12.7299 20.8586 13.4303 20.5718 13.9503 20.06L20.1603 13.84C21.3279 12.6652 21.9832 11.0763 21.9832 9.41998C21.9832 7.76371 21.3279 6.17472 20.1603 4.99998ZM18.7503 12.46L12.5403 18.67C12.4696 18.7413 12.3855 18.798 12.2928 18.8366C12.2001 18.8753 12.1007 18.8952 12.0003 18.8952C11.8999 18.8952 11.8004 18.8753 11.7077 18.8366C11.615 18.798 11.5309 18.7413 11.4603 18.67L5.25028 12.43C4.46603 11.6283 4.02689 10.5514 4.02689 9.42998C4.02689 8.30852 4.46603 7.23164 5.25028 6.42998C6.04943 5.64097 7.12725 5.19855 8.25028 5.19855C9.3733 5.19855 10.4511 5.64097 11.2503 6.42998C11.3432 6.52371 11.4538 6.59811 11.5757 6.64887C11.6976 6.69964 11.8283 6.72578 11.9603 6.72578C12.0923 6.72578 12.223 6.69964 12.3449 6.64887C12.4667 6.59811 12.5773 6.52371 12.6703 6.42998C13.4694 5.64097 14.5472 5.19855 15.6703 5.19855C16.7933 5.19855 17.8711 5.64097 18.6703 6.42998C19.4653 7.22113 19.9189 8.29217 19.9338 9.41367C19.9488 10.5352 19.5239 11.6179 18.7503 12.43V12.46Z" fill="#1FC3A1"></path>
  </symbol>
  <symbol xmlns="http://www.w3.org/2000/svg" viewBox="0 0 23 23" id="user">
    <path d="M15.056 12.1804C15.9955 11.4412 16.6813 10.4275 17.0179 9.28042C17.3545 8.13332 17.3252 6.90981 16.9341 5.78013C16.543 4.65045 15.8095 3.67077 14.8356 2.97738C13.8618 2.28399 12.696 1.91138 11.5005 1.91138C10.3051 1.91138 9.13932 2.28399 8.16548 2.97738C7.19164 3.67077 6.45813 4.65045 6.067 5.78013C5.67587 6.90981 5.64658 8.13332 5.98319 9.28042C6.31981 10.4275 7.00559 11.4412 7.94513 12.1804C6.3352 12.8254 4.93049 13.8952 3.88073 15.2757C2.83098 16.6563 2.17554 18.2958 1.9843 20.0196C1.97045 20.1454 1.98153 20.2728 2.0169 20.3943C2.05227 20.5159 2.11124 20.6293 2.19044 20.7281C2.3504 20.9276 2.58305 21.0554 2.83721 21.0833C3.09138 21.1113 3.34624 21.0371 3.54573 20.8772C3.74522 20.7172 3.873 20.4846 3.90096 20.2304C4.1114 18.357 5.00466 16.6269 6.41009 15.3705C7.81552 14.1141 9.63457 13.4195 11.5197 13.4195C13.4049 13.4195 15.2239 14.1141 16.6293 15.3705C18.0348 16.6269 18.928 18.357 19.1385 20.2304C19.1645 20.4659 19.2769 20.6834 19.4539 20.8409C19.6308 20.9984 19.8599 21.0847 20.0968 21.0833H20.2022C20.4534 21.0544 20.683 20.9274 20.841 20.7299C20.999 20.5325 21.0725 20.2806 21.0455 20.0291C20.8534 18.3005 20.1944 16.6568 19.1393 15.2741C18.0841 13.8914 16.6726 12.822 15.056 12.1804V12.1804ZM11.5005 11.5C10.7424 11.5 10.0012 11.2752 9.37086 10.8539C8.74047 10.4327 8.24914 9.83405 7.95901 9.1336C7.66887 8.43315 7.59296 7.66239 7.74087 6.9188C7.88878 6.1752 8.25387 5.49217 8.78997 4.95607C9.32607 4.41997 10.0091 4.05488 10.7527 3.90697C11.4963 3.75906 12.267 3.83497 12.9675 4.12511C13.6679 4.41524 14.2666 4.90657 14.6878 5.53696C15.1091 6.16735 15.3339 6.90848 15.3339 7.66664C15.3339 8.68331 14.93 9.65833 14.2111 10.3772C13.4922 11.0961 12.5172 11.5 11.5005 11.5Z" fill="#1FC3A1"></path>
  </symbol>
  <symbol xmlns="http://www.w3.org/2000/svg" viewBox="0 0 23 23" id="arÑhive">
    <path d="M9.58268 13.4167H13.416C13.6702 13.4167 13.9139 13.3157 14.0937 13.136C14.2734 12.9563 14.3743 12.7125 14.3743 12.4583C14.3743 12.2042 14.2734 11.9604 14.0937 11.7807C13.9139 11.601 13.6702 11.5 13.416 11.5H9.58268C9.32852 11.5 9.08476 11.601 8.90504 11.7807C8.72532 11.9604 8.62435 12.2042 8.62435 12.4583C8.62435 12.7125 8.72532 12.9563 8.90504 13.136C9.08476 13.3157 9.32852 13.4167 9.58268 13.4167V13.4167ZM18.2077 2.875H4.79102C4.02852 2.875 3.29725 3.1779 2.75808 3.71707C2.21892 4.25624 1.91602 4.9875 1.91602 5.75V8.625C1.91602 8.87917 2.01698 9.12292 2.1967 9.30264C2.37643 9.48237 2.62018 9.58333 2.87435 9.58333H3.83268V17.25C3.83268 18.0125 4.13558 18.7438 4.67475 19.2829C5.21392 19.8221 5.94519 20.125 6.70768 20.125H16.291C17.0535 20.125 17.7848 19.8221 18.3239 19.2829C18.8631 18.7438 19.166 18.0125 19.166 17.25V9.58333H20.1243C20.3785 9.58333 20.6223 9.48237 20.802 9.30264C20.9817 9.12292 21.0827 8.87917 21.0827 8.625V5.75C21.0827 4.9875 20.7798 4.25624 20.2406 3.71707C19.7014 3.1779 18.9702 2.875 18.2077 2.875ZM17.2493 17.25C17.2493 17.5042 17.1484 17.7479 16.9687 17.9276C16.7889 18.1074 16.5452 18.2083 16.291 18.2083H6.70768C6.45352 18.2083 6.20976 18.1074 6.03004 17.9276C5.85032 17.7479 5.74935 17.5042 5.74935 17.25V9.58333H17.2493V17.25ZM19.166 7.66667H3.83268V5.75C3.83268 5.49583 3.93365 5.25208 4.11337 5.07236C4.29309 4.89263 4.53685 4.79167 4.79102 4.79167H18.2077C18.4618 4.79167 18.7056 4.89263 18.8853 5.07236C19.0651 5.25208 19.166 5.49583 19.166 5.75V7.66667Z" fill="#1FC3A1"></path>
  </symbol>
  <symbol xmlns="http://www.w3.org/2000/svg" viewBox="0 0 23 23" id="date">
    <path d="M18.2077 3.83335H16.291V2.87502C16.291 2.62085 16.19 2.3771 16.0103 2.19738C15.8306 2.01765 15.5868 1.91669 15.3327 1.91669C15.0785 1.91669 14.8348 2.01765 14.655 2.19738C14.4753 2.3771 14.3743 2.62085 14.3743 2.87502V3.83335H8.62435V2.87502C8.62435 2.62085 8.52338 2.3771 8.34366 2.19738C8.16394 2.01765 7.92018 1.91669 7.66602 1.91669C7.41185 1.91669 7.16809 2.01765 6.98837 2.19738C6.80865 2.3771 6.70768 2.62085 6.70768 2.87502V3.83335H4.79102C4.02852 3.83335 3.29725 4.13625 2.75808 4.67542C2.21892 5.21459 1.91602 5.94586 1.91602 6.70835V18.2084C1.91602 18.9709 2.21892 19.7021 2.75808 20.2413C3.29725 20.7805 4.02852 21.0834 4.79102 21.0834H18.2077C18.9702 21.0834 19.7014 20.7805 20.2406 20.2413C20.7798 19.7021 21.0827 18.9709 21.0827 18.2084V6.70835C21.0827 5.94586 20.7798 5.21459 20.2406 4.67542C19.7014 4.13625 18.9702 3.83335 18.2077 3.83335V3.83335ZM19.166 18.2084C19.166 18.4625 19.0651 18.7063 18.8853 18.886C18.7056 19.0657 18.4618 19.1667 18.2077 19.1667H4.79102C4.53685 19.1667 4.29309 19.0657 4.11337 18.886C3.93365 18.7063 3.83268 18.4625 3.83268 18.2084V11.5H19.166V18.2084ZM19.166 9.58335H3.83268V6.70835C3.83268 6.45419 3.93365 6.21043 4.11337 6.03071C4.29309 5.85099 4.53685 5.75002 4.79102 5.75002H6.70768V6.70835C6.70768 6.96252 6.80865 7.20628 6.98837 7.386C7.16809 7.56572 7.41185 7.66669 7.66602 7.66669C7.92018 7.66669 8.16394 7.56572 8.34366 7.386C8.52338 7.20628 8.62435 6.96252 8.62435 6.70835V5.75002H14.3743V6.70835C14.3743 6.96252 14.4753 7.20628 14.655 7.386C14.8348 7.56572 15.0785 7.66669 15.3327 7.66669C15.5868 7.66669 15.8306 7.56572 16.0103 7.386C16.19 7.20628 16.291 6.96252 16.291 6.70835V5.75002H18.2077C18.4618 5.75002 18.7056 5.85099 18.8853 6.03071C19.0651 6.21043 19.166 6.45419 19.166 6.70835V9.58335Z" fill="#1FC3A1"></path>
  </symbol>
  <symbol xmlns="http://www.w3.org/2000/svg" viewBox="0 0 23 23" id="edit">
    <path d="M4.79102 17.25H8.85435C8.98047 17.2508 9.1055 17.2266 9.22226 17.1789C9.33902 17.1312 9.44522 17.0609 9.53477 16.9721L16.1664 10.3309L18.8881 7.66669C18.9779 7.5776 19.0492 7.47161 19.0979 7.35483C19.1465 7.23804 19.1716 7.11278 19.1716 6.98627C19.1716 6.85976 19.1465 6.7345 19.0979 6.61772C19.0492 6.50094 18.9779 6.39495 18.8881 6.30586L14.8248 2.19461C14.7357 2.10478 14.6297 2.03349 14.5129 1.98484C14.3961 1.93618 14.2709 1.91113 14.1443 1.91113C14.0178 1.91113 13.8926 1.93618 13.7758 1.98484C13.659 2.03349 13.553 2.10478 13.4639 2.19461L10.7614 4.90669L4.1106 11.5479C4.02178 11.6375 3.95151 11.7437 3.90382 11.8604C3.85613 11.9772 3.83195 12.1022 3.83268 12.2284V16.2917C3.83268 16.5459 3.93365 16.7896 4.11337 16.9693C4.29309 17.1491 4.53685 17.25 4.79102 17.25ZM14.1443 4.22627L16.8564 6.93836L15.4956 8.29919L12.7835 5.58711L14.1443 4.22627ZM5.74935 12.6213L11.4323 6.93836L14.1443 9.65044L8.46143 15.3334H5.74935V12.6213ZM20.1243 19.1667H2.87435C2.62018 19.1667 2.37643 19.2677 2.1967 19.4474C2.01698 19.6271 1.91602 19.8709 1.91602 20.125C1.91602 20.3792 2.01698 20.6229 2.1967 20.8027C2.37643 20.9824 2.62018 21.0834 2.87435 21.0834H20.1243C20.3785 21.0834 20.6223 20.9824 20.802 20.8027C20.9817 20.6229 21.0827 20.3792 21.0827 20.125C21.0827 19.8709 20.9817 19.6271 20.802 19.4474C20.6223 19.2677 20.3785 19.1667 20.1243 19.1667Z" fill="#1FC3A1"></path>
  </symbol>
  <symbol xmlns="http://www.w3.org/2000/svg" viewBox="0 0 18 15" id="dots">
    <path fill-rule="evenodd" clip-rule="evenodd" d="M0 1.5C0 0.671573 0.671573 0 1.5 0H1.50722C2.33565 0 3.00722 0.671573 3.00722 1.5C3.00722 2.32843 2.33565 3 1.50722 3H1.5C0.671573 3 0 2.32843 0 1.5ZM7.00732 1.5C7.00732 0.671573 7.6789 0 8.50732 0H8.51455C9.34297 0 10.0145 0.671573 10.0145 1.5C10.0145 2.32843 9.34297 3 8.51455 3H8.50732C7.6789 3 7.00732 2.32843 7.00732 1.5ZM14.0146 1.5C14.0146 0.671573 14.6862 0 15.5146 0H15.5219C16.3503 0 17.0219 0.671573 17.0219 1.5C17.0219 2.32843 16.3503 3 15.5219 3H15.5146C14.6862 3 14.0146 2.32843 14.0146 1.5ZM0 7.5C0 6.67157 0.671573 6 1.5 6H1.50722C2.33565 6 3.00722 6.67157 3.00722 7.5C3.00722 8.32843 2.33565 9 1.50722 9H1.5C0.671573 9 0 8.32843 0 7.5ZM7.00732 7.5C7.00732 6.67157 7.6789 6 8.50732 6H8.51455C9.34297 6 10.0145 6.67157 10.0145 7.5C10.0145 8.32843 9.34297 9 8.51455 9H8.50732C7.6789 9 7.00732 8.32843 7.00732 7.5ZM14.0146 7.5C14.0146 6.67157 14.6862 6 15.5146 6H15.5219C16.3503 6 17.0219 6.67157 17.0219 7.5C17.0219 8.32843 16.3503 9 15.5219 9H15.5146C14.6862 9 14.0146 8.32843 14.0146 7.5ZM0 13.5C0 12.6716 0.671573 12 1.5 12H1.50722C2.33565 12 3.00722 12.6716 3.00722 13.5C3.00722 14.3284 2.33565 15 1.50722 15H1.5C0.671573 15 0 14.3284 0 13.5ZM7.00732 13.5C7.00732 12.6716 7.6789 12 8.50732 12H8.51455C9.34297 12 10.0145 12.6716 10.0145 13.5C10.0145 14.3284 9.34297 15 8.51455 15H8.50732C7.6789 15 7.00732 14.3284 7.00732 13.5ZM14.0146 13.5C14.0146 12.6716 14.6862 12 15.5146 12H15.5219C16.3503 12 17.0219 12.6716 17.0219 13.5C17.0219 14.3284 16.3503 15 15.5219 15H15.5146C14.6862 15 14.0146 14.3284 14.0146 13.5Z"></path>
  </symbol>
  <symbol xmlns="http://www.w3.org/2000/svg" viewBox="0 0 22 16" id="list">
    <path fill-rule="evenodd" clip-rule="evenodd" d="M0.5 2C0.5 1.17157 1.17157 0.5 2 0.5H2.01C2.83843 0.5 3.51 1.17157 3.51 2C3.51 2.82843 2.83843 3.5 2.01 3.5H2C1.17157 3.5 0.5 2.82843 0.5 2ZM5.5 2C5.5 1.17157 6.17157 0.5 7 0.5H20C20.8284 0.5 21.5 1.17157 21.5 2C21.5 2.82843 20.8284 3.5 20 3.5H7C6.17157 3.5 5.5 2.82843 5.5 2ZM0.5 8C0.5 7.17157 1.17157 6.5 2 6.5H2.01C2.83843 6.5 3.51 7.17157 3.51 8C3.51 8.82843 2.83843 9.5 2.01 9.5H2C1.17157 9.5 0.5 8.82843 0.5 8ZM5.5 8C5.5 7.17157 6.17157 6.5 7 6.5H20C20.8284 6.5 21.5 7.17157 21.5 8C21.5 8.82843 20.8284 9.5 20 9.5H7C6.17157 9.5 5.5 8.82843 5.5 8ZM0.5 14C0.5 13.1716 1.17157 12.5 2 12.5H2.01C2.83843 12.5 3.51 13.1716 3.51 14C3.51 14.8284 2.83843 15.5 2.01 15.5H2C1.17157 15.5 0.5 14.8284 0.5 14ZM5.5 14C5.5 13.1716 6.17157 12.5 7 12.5H20C20.8284 12.5 21.5 13.1716 21.5 14C21.5 14.8284 20.8284 15.5 20 15.5H7C6.17157 15.5 5.5 14.8284 5.5 14Z"></path>
  </symbol>
</svg>






