<svg width="24" height="24" viewBox="0 0 24 24" fill="none" xmlns="http://www.w3.org/2000/svg">
<path d="M21.5932 12.9619L21.463 12.7447C21.2316 12.3972 20.9712 12.0931 20.682 11.8324C20.5952 11.7745 20.4433 11.6949 20.2263 11.5935C20.0094 11.4921 19.8431 11.4125 19.7273 11.3546C20.5952 10.9491 21.1882 10.3554 21.5064 9.57344C21.5932 9.34175 21.586 9.03765 21.4847 8.66115C21.3835 8.28465 21.3328 8.05296 21.3328 7.96607V7.87919C21.3328 7.4158 20.8266 7.0393 19.8141 6.74969C19.5538 6.72073 19.1199 6.70625 18.5124 6.70625L17.5577 6.92346L17.8615 6.18494C18.1797 5.31609 18.0929 4.46173 17.6011 3.62185L17.5143 3.44808C17.0804 2.78196 16.4295 2.33306 15.5617 2.10137C14.6939 1.89863 13.8839 2 13.1317 2.40546C12.0903 2.95573 11.5696 3.59288 11.5696 4.31692V4.36036L11.4395 4.57758L11.3093 4.36036L11.0055 3.8825C10.5716 3.21638 9.97858 2.76748 9.22645 2.53579C8.61896 2.39098 8.05487 2.46338 7.53416 2.753C6.9556 3.10054 6.594 3.66529 6.44936 4.44725C6.30472 5.28713 6.44936 6.08357 6.88328 6.83657L7.05685 7.14067L6.40597 6.92346C5.56705 6.72073 4.7426 6.83657 3.93262 7.271C3.12263 7.6475 2.55853 8.25569 2.24033 9.09557C1.89319 9.84857 1.92212 10.6016 2.32711 11.3546C2.47175 11.6152 2.68871 11.8614 2.97799 12.0931C3.35406 12.4117 3.78798 12.6144 4.27975 12.7013L4.49671 12.7447L4.06279 13.1357C3.68673 13.4253 3.42638 13.8163 3.28174 14.3086C3.1371 14.8589 3.20942 15.3513 3.4987 15.7857C3.64334 16.0463 3.8169 16.2346 4.0194 16.3504C4.2219 16.5532 4.49671 16.6835 4.84385 16.7414C5.53812 16.8862 6.21793 16.8573 6.88328 16.6545L6.36257 17.4799L6.2324 17.8709C5.94312 18.7398 6.01544 19.5796 6.44936 20.3906C6.50722 20.4775 6.72418 20.7526 7.10024 21.216C7.44738 21.5345 7.8813 21.7518 8.402 21.8676C9.38556 22.0993 10.2389 22.0269 10.9621 21.6504C11.7143 21.216 12.235 20.5643 12.5243 19.6955L12.5676 19.5217C13.1173 20.1589 13.6669 20.5354 14.2165 20.6512C14.7951 20.825 15.3447 20.7671 15.8654 20.4775C16.3572 20.1589 16.6899 19.6955 16.8635 19.0873C16.9792 18.4791 16.9792 17.842 16.8635 17.1758C17.2106 17.3786 17.5143 17.5089 17.7747 17.5668C18.6715 17.8564 19.5248 17.7985 20.3348 17.393C21.087 16.9876 21.5932 16.336 21.8536 15.4381C22.1139 14.5983 22.0271 13.7729 21.5932 12.9619ZM17.4276 8.27017L17.7747 8.13984C18.2375 7.90815 18.7438 7.82127 19.2934 7.87919C19.8141 7.96607 20.1613 8.18328 20.3348 8.53082L20.4216 8.87836L20.3782 9.18246C20.1757 9.64584 19.7273 10.0513 19.0331 10.3988C18.8306 10.4857 18.5124 10.5581 18.0784 10.6161L14.5637 11.0505L14.4769 10.8767L14.4335 10.7898L14.5637 10.6161L17.4276 8.27017ZM12.5676 4.7079C12.6834 4.15763 13.0305 3.73769 13.6091 3.44808C14.1587 3.1295 14.7083 3.08606 15.258 3.31775C15.8654 3.46256 16.2994 3.76665 16.5597 4.23004C16.7044 4.57758 16.7767 4.91063 16.7767 5.22921L16.6899 5.8374C16.632 6.09806 16.4874 6.38767 16.256 6.70625L13.6958 9.79065C13.5223 9.64584 13.233 9.48655 12.828 9.31278L12.5676 6.1415L12.5243 5.012L12.5676 4.7079ZM7.66434 4.79479C7.66434 4.3314 7.85237 3.98386 8.22844 3.75217C8.402 3.60736 8.61896 3.59288 8.87932 3.70873C9.42895 3.8825 9.86287 4.28796 10.1811 4.92511C10.4125 5.44642 10.5282 5.75052 10.5282 5.8374L11.0923 9.18246L10.6584 9.31278L8.09826 6.57592L7.96808 6.27182C7.70773 5.69259 7.60648 5.20025 7.66434 4.79479ZM3.41191 10.7898C3.20942 10.3554 3.19495 9.93546 3.36852 9.53C3.59994 8.9218 3.97601 8.51634 4.49671 8.31361C5.04635 8.05296 5.58152 7.98055 6.10222 8.0964L6.88328 8.4005L9.40002 10.2251C9.1686 10.4857 9.00949 10.7609 8.92271 11.0505L4.80046 11.5718L4.54011 11.5283C4.07726 11.4415 3.70119 11.1953 3.41191 10.7898ZM11.5696 19.0873L11.4395 19.3914C11.2659 19.9127 10.9043 20.2892 10.3546 20.5209C9.86287 20.8105 9.3277 20.8829 8.74914 20.7381C8.17058 20.5933 7.76559 20.2892 7.53416 19.8258C7.36059 19.5072 7.27381 19.1887 7.27381 18.8701L7.40398 18.2185C7.46184 17.9288 7.60648 17.6537 7.83791 17.393L10.2245 14.5693C10.5427 14.7431 10.8609 14.8589 11.1791 14.9168C11.208 15.1196 11.2803 15.5757 11.3961 16.2853C11.5118 16.9948 11.5696 17.5523 11.5696 17.9578V19.0873ZM10.4848 13.4398C10.0798 13.1212 9.87733 12.6868 9.87733 12.1365C9.87733 11.6442 10.0798 11.1953 10.4848 10.7898C10.803 10.4712 11.2514 10.312 11.83 10.312C12.3796 10.312 12.8135 10.4712 13.1317 10.7898C13.5078 11.1663 13.6958 11.6152 13.6958 12.1365C13.6958 12.7158 13.5078 13.1502 13.1317 13.4398C12.7846 13.8163 12.3507 14.0046 11.83 14.0046C11.2225 14.0046 10.7741 13.8163 10.4848 13.4398ZM15.7787 18.3922C15.7208 18.9135 15.5328 19.2611 15.2146 19.4348C15.041 19.5507 14.824 19.5796 14.5637 19.5217C14.014 19.4059 13.5801 19.0004 13.2619 18.3053L12.9148 17.3496L12.4809 14.9168L12.9582 14.7431L13.3487 14.5259L14.5637 15.7422L15.3013 16.6545L15.4315 16.9152C15.6919 17.4075 15.8076 17.8999 15.7787 18.3922ZM20.7254 15.0906C20.5807 15.6698 20.248 16.0753 19.7273 16.307C19.2356 16.5966 18.7004 16.64 18.1218 16.4373C17.8036 16.3504 17.5433 16.2056 17.3408 16.0029L14.3467 13.5267L14.5637 13.1357L14.6505 12.7882L17.8615 12.4841H19.2934C19.8431 12.7158 20.2047 12.9909 20.3782 13.3095C20.6675 13.5991 20.8121 14.0046 20.8121 14.5259L20.7254 15.0906Z" fill="white"/>
</svg>
