<svg width="30" height="30" viewBox="0 0 30 30" fill="none" xmlns="http://www.w3.org/2000/svg">
<path d="M22.2866 15.925C21.9366 15.2125 20.9491 14.6125 19.6366 15.625C17.8491 17.05 14.9991 17.05 14.9991 17.05C14.9991 17.05 12.1491 17.05 10.3616 15.625C9.04909 14.6125 8.06159 15.2125 7.71159 15.925C7.08659 17.175 7.78659 17.7875 9.37409 18.8C10.7366 19.675 12.5991 20 13.7991 20.125L12.7991 21.125C11.3741 22.5375 9.99909 23.9 9.06159 24.85C8.49909 25.425 8.49909 26.3375 9.06159 26.875L9.23659 27.075C9.79909 27.6375 10.7241 27.6375 11.2866 27.075L14.9991 23.35C16.4366 24.7625 17.7991 26.125 18.7491 27.075C19.3116 27.6375 20.2241 27.6375 20.7991 27.075L20.9616 26.875C21.5366 26.3375 21.5366 25.425 20.9616 24.85L17.2366 21.125L16.2491 20.1125C17.4366 20 19.2741 19.6625 20.6241 18.8C22.2116 17.7875 22.9116 17.175 22.2866 15.925ZM14.9991 5.7125C16.7241 5.7125 18.1241 7.1125 18.1241 8.825C18.1241 10.55 16.7241 11.9375 14.9991 11.9375C13.2741 11.9375 11.8741 10.55 11.8741 8.825C11.8741 7.1125 13.2741 5.7125 14.9991 5.7125ZM14.9991 15.15C18.4991 15.15 21.3241 12.325 21.3241 8.825C21.3241 7.14751 20.6577 5.53872 19.4715 4.35255C18.2854 3.16638 16.6766 2.5 14.9991 2.5C13.3216 2.5 11.7128 3.16638 10.5266 4.35255C9.34047 5.53872 8.67409 7.14751 8.67409 8.825C8.67409 12.325 11.4991 15.15 14.9991 15.15Z" fill="#2D73DC"/>
</svg>
