<svg width="24" height="24" viewBox="0 0 24 24" fill="none" xmlns="http://www.w3.org/2000/svg">
<path d="M20.2527 13.0978C20.3101 12.6976 20.3389 12.2938 20.3389 11.8895C20.3389 7.2879 16.5665 3.54176 11.9246 3.54176C11.5365 3.54176 11.1413 3.57027 10.7569 3.62016C9.99519 3.21386 9.13292 3 8.26346 3C5.36047 3 3 5.34176 3 8.21821C3 9.06653 3.20837 9.90413 3.60718 10.6491C3.5461 11.059 3.51376 11.476 3.51376 11.8895C3.51376 16.4911 7.2862 20.2372 11.9282 20.2372C12.2551 20.2372 12.5856 20.2194 12.909 20.1802C13.7533 20.7149 14.7306 21 15.7401 21C18.6431 21 21 18.6582 21 15.7818C21 14.8337 20.7413 13.907 20.2527 13.0978H20.2527ZM18.6072 18.6261C17.8419 19.3853 16.8216 19.806 15.7365 19.806C14.9353 19.806 14.1629 19.5743 13.4982 19.1359L13.2 18.9398L12.8443 18.9862C12.5425 19.0254 12.2335 19.0432 11.9282 19.0432C10.9545 19.0432 10.0096 18.8543 9.12217 18.48C8.26348 18.12 7.49103 17.6032 6.82997 16.9473C6.16891 16.2915 5.64793 15.5252 5.28504 14.6733C4.90782 13.7929 4.71738 12.8555 4.71738 11.8895C4.71738 11.5117 4.74612 11.1303 4.80721 10.756L4.8575 10.4352L4.69943 10.1501C4.37607 9.56198 4.2036 8.89544 4.2036 8.21821C4.2036 7.14178 4.62395 6.13305 5.39281 5.37029C6.15807 4.61109 7.17844 4.19048 8.26348 4.19048C8.95689 4.19048 9.64314 4.3687 10.2432 4.70372L10.5306 4.86412L10.8575 4.81779C11.2096 4.76432 11.5725 4.73939 11.9282 4.73939C12.9018 4.73939 13.8467 4.9283 14.7342 5.30256C15.5929 5.66256 16.3653 6.17939 17.0264 6.83523C17.6874 7.49107 18.2084 8.25739 18.5713 9.10928C18.9485 9.98968 19.1389 10.9271 19.1389 11.893C19.1389 12.2637 19.1102 12.638 19.0527 13.0051L18.9988 13.3544L19.1892 13.6574C19.588 14.2954 19.8 15.0297 19.8 15.7818C19.7964 16.8546 19.3725 17.8669 18.6072 18.6261V18.6261H18.6072ZM13.1821 11.1125L11.4791 10.7311C10.5521 10.5244 10.085 10.2072 10.085 9.77232C10.085 9.46225 10.2144 9.20916 10.4695 9.01666C10.7246 8.82416 11.0875 8.72795 11.5509 8.72795C12.097 8.72795 12.5425 8.84202 12.8803 9.0737C12.9809 9.13786 13.1964 9.34815 13.527 9.70103C13.7425 9.92914 13.9761 10.0468 14.224 10.0468C14.4791 10.0468 14.7019 9.97549 14.8815 9.83292C15.0647 9.69034 15.1545 9.49429 15.1545 9.24834C15.1545 8.6816 14.7773 8.18971 14.0228 7.77269C13.3114 7.37704 12.5318 7.18101 11.6838 7.18101C10.7066 7.18101 9.89464 7.38773 9.24792 7.79765C8.49343 8.2824 8.11619 8.98101 8.11619 9.88992C8.11619 11.1374 8.84553 11.9466 10.3042 12.3137L12.6036 12.8911C13.182 13.0372 13.473 13.3473 13.473 13.8143C13.473 14.1279 13.3329 14.3917 13.0527 14.6127C12.7473 14.8586 12.3413 14.9834 11.8383 14.9834C11.2527 14.9834 10.782 14.8444 10.4263 14.5663C10.3437 14.5093 10.1173 14.2562 9.74728 13.8036C9.51736 13.5255 9.25506 13.3865 8.96766 13.3865C8.71975 13.3865 8.51496 13.4649 8.35328 13.6218C8.1916 13.7786 8.11257 13.9782 8.11257 14.2242C8.11257 14.7837 8.41439 15.2756 9.01798 15.6998C9.71859 16.2095 10.6635 16.4626 11.842 16.4626C13.0312 16.4626 13.9473 16.1952 14.594 15.6606C15.2048 15.1687 15.5102 14.5022 15.5102 13.6645C15.521 12.3172 14.7413 11.4653 13.1821 11.1124V11.1125Z" fill="white"/>
</svg>
