<svg width="24" height="24" viewBox="0 0 24 24" fill="none" xmlns="http://www.w3.org/2000/svg">
<path d="M20.5669 3.30457C20.3942 3.15644 20.1841 3.0576 19.9591 3.01864C19.7341 2.97968 19.5026 3.00205 19.2894 3.08338L2.79884 9.49788C2.54582 9.59496 2.33154 9.77092 2.18834 9.9992C2.04514 10.2275 1.98078 10.4957 2.00499 10.7634C2.02919 11.0311 2.14064 11.2837 2.32251 11.4831C2.50439 11.6826 2.74682 11.818 3.01324 11.869L7.34581 12.7272V18.0535C7.34611 18.2975 7.41918 18.536 7.55586 18.7391C7.69253 18.9422 7.88673 19.1007 8.11406 19.1948C8.26735 19.2567 8.43094 19.2897 8.59645 19.2922C8.76084 19.2931 8.92376 19.2616 9.07564 19.1993C9.22752 19.137 9.36529 19.0452 9.48083 18.9294L11.9196 16.514L15.5643 19.6903C15.7901 19.8908 16.0829 20.0011 16.3862 20C16.5168 20.001 16.6467 19.9801 16.7703 19.938C16.9766 19.8731 17.1619 19.7555 17.3078 19.5971C17.4536 19.4387 17.5548 19.245 17.6011 19.0356L20.9689 4.51669C21.0192 4.29754 21.0084 4.06895 20.9375 3.85542C20.8667 3.6419 20.7386 3.45148 20.5669 3.30457ZM3.0847 10.6658C3.07846 10.6285 3.08581 10.5902 3.10545 10.5578C3.12509 10.5253 3.15573 10.5009 3.1919 10.4888L16.9936 5.11832L7.75674 11.7275L3.22763 10.825C3.18816 10.8206 3.15171 10.802 3.12532 10.7725C3.09892 10.7431 3.08446 10.7051 3.0847 10.6658ZM8.72152 18.1774C8.69674 18.2031 8.66438 18.2204 8.62907 18.2267C8.59375 18.2331 8.55732 18.2282 8.52499 18.2127C8.49358 18.1992 8.46678 18.177 8.44777 18.1487C8.42877 18.1205 8.41836 18.0874 8.41779 18.0535V13.4616L11.1067 15.8151L8.72152 18.1774ZM16.5648 18.7967C16.5587 18.8274 16.5445 18.8559 16.5236 18.8794C16.5028 18.9029 16.476 18.9205 16.446 18.9303C16.4161 18.9402 16.384 18.9421 16.3531 18.9357C16.3222 18.9293 16.2935 18.9149 16.27 18.894L8.73938 12.3291L19.9058 4.34858L16.5648 18.7967Z" fill="white"/>
</svg>
