<svg width="30" height="30" viewBox="0 0 30 30" fill="none" xmlns="http://www.w3.org/2000/svg">
<path d="M27.8309 3.0346C27.475 2.73852 27.0454 2.54447 26.588 2.47311C26.1306 2.40175 25.6624 2.45574 25.2332 2.62934L2.83207 11.6735C2.35301 11.8706 1.94522 12.2088 1.66282 12.643C1.38043 13.0773 1.23678 13.5872 1.25096 14.1051C1.26513 14.6229 1.43645 15.1242 1.74217 15.5424C2.0479 15.9605 2.47357 16.2759 2.9627 16.4465L7.49395 18.0224L10.0196 26.3745C10.0539 26.486 10.1037 26.5922 10.1675 26.6899C10.1772 26.7049 10.1909 26.7161 10.2012 26.7307C10.275 26.8336 10.3641 26.9245 10.4655 27.0004C10.4943 27.0224 10.5219 27.043 10.5528 27.0625C10.6714 27.1412 10.8028 27.1988 10.9412 27.2326L10.956 27.2339L10.9644 27.2375C11.0475 27.2544 11.1322 27.263 11.217 27.2631C11.2252 27.2631 11.2325 27.2592 11.2405 27.259C11.3686 27.2568 11.4956 27.2347 11.6169 27.1937C11.6451 27.184 11.6693 27.168 11.6967 27.1564C11.7872 27.1189 11.8729 27.0708 11.9521 27.0132C12.0155 26.9597 12.0789 26.9063 12.1423 26.8529L15.52 23.1237L20.5579 27.0263C21.0014 27.3716 21.5473 27.5593 22.1094 27.5597C22.6984 27.559 23.2692 27.3558 23.7261 26.9842C24.1831 26.6125 24.4984 26.0951 24.6192 25.5187L28.6975 5.49799C28.79 5.04739 28.7581 4.58014 28.6055 4.14622C28.4528 3.71231 28.1851 3.32807 27.8309 3.0346ZM11.7127 18.4204C11.5394 18.593 11.4209 18.813 11.3721 19.0527L10.9852 20.9327L10.0052 17.6913L15.0867 15.0452L11.7127 18.4204ZM22.0899 25.0499L16.1365 20.4381C15.8874 20.2457 15.575 20.1541 15.2614 20.1817C14.9479 20.2093 14.6562 20.354 14.4446 20.5871L13.3629 21.7811L13.7452 19.923L22.5989 11.0692C22.8102 10.8582 22.939 10.5784 22.9619 10.2806C22.9847 9.98285 22.9002 9.68672 22.7235 9.44589C22.5469 9.20505 22.2898 9.03544 21.9989 8.96778C21.708 8.90013 21.4025 8.93889 21.1377 9.07705L8.43114 15.6928L3.77569 13.9892L26.2488 4.99869L22.0899 25.0499Z" fill="#2D73DC"/>
</svg>
