<svg width="30" height="30" viewBox="0 0 30 30" fill="none" xmlns="http://www.w3.org/2000/svg">
<path d="M28.7385 4.93776C28.7387 4.71697 28.6803 4.50008 28.5694 4.30919C28.4584 4.1183 28.2989 3.96022 28.107 3.85105C27.915 3.74188 27.6976 3.68552 27.4769 3.68771C27.2561 3.68991 27.0398 3.75057 26.8501 3.86353C26.1185 4.29901 25.3308 4.63251 24.5089 4.85478C23.3351 3.84757 21.838 3.29641 20.2914 3.30204C18.5946 3.304 16.965 3.96529 15.7466 5.14627C14.5283 6.32726 13.8166 7.9355 13.7618 9.63139C10.4168 9.09797 7.38511 7.35205 5.24488 4.72657C5.11593 4.57011 4.95124 4.44696 4.76471 4.3675C4.57818 4.28804 4.37527 4.2546 4.17311 4.27001C3.97106 4.28664 3.7761 4.35225 3.6051 4.46115C3.4341 4.57004 3.29219 4.71896 3.19166 4.89501C2.67607 5.79477 2.37995 6.80345 2.32735 7.83914C2.27474 8.87483 2.46714 9.90832 2.88892 10.8557L2.88648 10.8581C2.69692 10.9749 2.54047 11.1383 2.43212 11.3328C2.32376 11.5273 2.26711 11.7463 2.26758 11.969C2.26529 12.1526 2.27631 12.3362 2.30055 12.5183C2.42822 14.0911 3.12527 15.5634 4.261 16.6589C4.18395 16.8057 4.13693 16.9664 4.12267 17.1315C4.10842 17.2967 4.12722 17.463 4.17798 17.6208C4.67313 19.1635 5.72611 20.4659 7.13087 21.2732C5.70367 21.8251 4.16265 22.0175 2.64356 21.8335C2.3624 21.7982 2.0776 21.8595 1.83587 22.0074C1.59414 22.1552 1.40984 22.3809 1.3132 22.6472C1.21656 22.9136 1.21332 23.2049 1.30401 23.4734C1.3947 23.7419 1.57393 23.9715 1.81231 24.1247C4.42493 25.8074 7.4669 26.7021 10.5745 26.7017C14.0986 26.7413 17.537 25.6152 20.3548 23.4985C23.1727 21.3818 25.212 18.3931 26.1555 14.9975C26.5969 13.5183 26.8222 11.9831 26.8245 10.4395C26.8245 10.3577 26.8245 10.2734 26.8233 10.1892C27.4759 9.48538 27.9815 8.65835 28.3104 7.75659C28.6393 6.85483 28.7848 5.8965 28.7385 4.93776ZM24.6052 8.95264C24.3988 9.19682 24.2943 9.51114 24.3135 9.83033C24.3257 10.0366 24.3245 10.2441 24.3245 10.4395C24.3219 11.7439 24.1307 13.0411 23.7568 14.2908C22.9862 17.18 21.2683 19.7271 18.8782 21.524C16.4881 23.321 13.5641 24.2639 10.5745 24.2017C9.50062 24.202 8.43042 24.0758 7.38605 23.8257C8.71781 23.3965 9.96303 22.7348 11.064 21.8713C11.2668 21.7117 11.4152 21.4932 11.4889 21.2458C11.5626 20.9985 11.5579 20.7344 11.4755 20.4898C11.3931 20.2452 11.2371 20.0321 11.0287 19.8797C10.8204 19.7273 10.5701 19.6431 10.312 19.6387C9.27306 19.6225 8.28093 19.2037 7.54468 18.4705C7.73146 18.4351 7.91701 18.3911 8.10133 18.3386C8.37135 18.2618 8.60764 18.0963 8.77216 17.8688C8.93668 17.6413 9.01986 17.3651 9.0083 17.0846C8.99674 16.8041 8.89112 16.5356 8.70844 16.3225C8.52576 16.1093 8.27666 15.9638 8.00123 15.9094C7.39816 15.7903 6.83067 15.5338 6.34288 15.1597C5.85509 14.7856 5.46014 14.304 5.18873 13.7524C5.41465 13.7833 5.642 13.8024 5.86988 13.8098C6.14061 13.8139 6.40563 13.7318 6.6266 13.5753C6.84758 13.4189 7.01307 13.1962 7.09913 12.9395C7.18161 12.6804 7.17736 12.4015 7.08705 12.1451C6.99673 11.8887 6.82526 11.6687 6.59865 11.5186C6.04883 11.1523 5.59845 10.6553 5.28784 10.0723C4.97723 9.48917 4.81609 8.83815 4.81886 8.17751C4.81886 8.09451 4.8213 8.01149 4.82618 7.92971C7.62776 10.5425 11.2616 12.0828 15.0874 12.2791C15.2806 12.2867 15.4729 12.2503 15.6499 12.1727C15.8269 12.0951 15.9839 11.9783 16.1092 11.8311C16.2331 11.6824 16.3209 11.5071 16.3656 11.3188C16.4103 11.1305 16.4107 10.9343 16.3667 10.7459C16.2952 10.4476 16.2587 10.142 16.258 9.83522C16.2592 8.76589 16.6845 7.74068 17.4406 6.98455C18.1967 6.22842 19.2219 5.80314 20.2913 5.80201C20.8414 5.80053 21.3859 5.91313 21.8904 6.13269C22.3949 6.35225 22.8483 6.674 23.2222 7.07764C23.3663 7.23275 23.5478 7.34839 23.7493 7.41356C23.9508 7.47874 24.1656 7.49129 24.3733 7.45001C24.8868 7.35008 25.3929 7.2155 25.8882 7.04718C25.5503 7.7384 25.1186 8.37962 24.6052 8.95264Z" fill="#2D73DC"/>
</svg>
