<svg width="24" height="24" viewBox="0 0 24 24" fill="none" xmlns="http://www.w3.org/2000/svg">
<path d="M1 6.92604C1 6.13905 1.56522 5.8284 2.26087 5.78698L5.5 5.80769C5.69565 5.80769 5.86957 5.93195 5.93478 6.11834C6.67391 8.39645 7.58696 9.80473 8.67391 11.3994C8.73913 11.5237 8.84783 11.5858 8.95652 11.5858C9.04348 11.5858 9.13043 11.5444 9.19565 11.4408L9.26087 11.213L9.28261 7.63018C9.28261 7.11243 9.02174 7.02959 8.41304 6.94675C8.17391 6.90533 8.02174 6.69822 8.02174 6.49112C8.02174 6.4497 8.02174 6.40828 8.04348 6.36686C8.34783 5.47633 9.30435 5.02071 10.6522 5.02071L11.8696 5C12.8696 5 13.7826 5.4142 13.7826 6.63609V11.3373C13.8696 11.3994 13.9565 11.4408 14.0652 11.4408C14.2391 11.4408 14.4565 11.3373 14.6304 11.068C15.7609 9.55621 17.0435 7.75444 17.2174 6.80178C17.2174 6.76035 17.2391 6.73964 17.2609 6.69822C17.5 6.2426 18.1087 5.93195 18.3696 5.84911C18.413 5.8284 18.4783 5.80769 18.5652 5.80769H21.9348L22.1522 5.8284C22.4783 5.8284 22.7174 6.0355 22.8261 6.22189C23.0217 6.51183 22.9783 6.82249 23 6.94675V7.09172C22.6739 8.97633 20.413 11.0888 19.4565 12.4556C19.3261 12.6213 19.2609 12.7663 19.2609 12.9112C19.2609 13.0355 19.3261 13.1598 19.4348 13.284L22.6087 17.0947C22.7826 17.3225 22.8696 17.5917 22.8696 17.8195C22.8696 18.503 22.1957 18.8964 21.5435 18.9586L21.1739 18.9793H17.8696C17.8043 18.9793 17.7609 19 17.6957 19C17.3261 19 17.0217 18.8136 16.8043 18.6065C16.1087 17.7988 15.4348 16.9704 14.7609 16.1627C14.6304 15.997 14.587 15.9763 14.4565 15.8935C14.3043 16.4941 14.1739 17.1154 14.0217 17.7367L13.9565 18.0888C13.8478 18.4615 13.5652 18.855 13.0435 18.9586L12.7391 18.9793H10.6087C6.84783 18.9793 3.47826 13.8846 1.1087 7.52663C1.04348 7.36095 1 7.13314 1 6.92604ZM14.0652 12.2899C13.5 12.2899 12.8696 11.9793 12.8696 11.3994V6.63609C12.8696 6.07692 12.6087 5.86982 11.8913 5.86982L10.6522 5.91124C9.95652 5.91124 9.56522 6.01479 9.23913 6.22189C9.73913 6.4497 10.1957 6.76035 10.1957 7.63018V11.2751C10.1304 12 9.5 12.4763 8.8913 12.4763C8.47826 12.4763 8.1087 12.2485 7.8913 11.8757C6.91304 10.4675 6.08696 9.14201 5.36957 7.23669L5.17391 6.69822L2.28261 6.67751C1.8913 6.67751 1.93478 6.69822 1.93478 6.88462C1.93478 7.00888 1.95652 7.17456 1.97826 7.27811L2.43478 8.43787C4.80435 14.2781 7.78261 18.1095 10.6087 18.1095H12.7826C13.087 18.1095 13.0652 17.7574 13.1304 17.5503L13.5435 15.7278C13.6304 15.5414 13.6957 15.3757 13.8478 15.2308C14.0217 15.0651 14.2174 15.003 14.413 15.003C14.8261 15.003 15.2174 15.3136 15.4783 15.6035L17.3261 17.8402C17.4783 18.068 17.6087 18.1095 17.6957 18.1095H21.2826C21.6304 18.1095 21.9348 18.0059 21.9348 17.7988C21.9348 17.7367 21.913 17.6538 21.8696 17.5917L18.7174 13.8432C18.4565 13.5325 18.3478 13.2219 18.3478 12.9112C18.3478 12.5799 18.4783 12.2485 18.6957 11.9586C19.6087 10.6538 21.5652 8.78994 22.0217 7.2574L22.087 6.98817C22.0652 6.88462 22.0652 6.80178 22.0435 6.69822H18.6304C18.413 6.78106 18.2391 6.90533 18.1087 7.07101L17.9783 7.4645C17.4783 8.78994 16.1087 10.6124 15.1304 11.8757C14.8043 12.1657 14.4348 12.2899 14.0652 12.2899Z" fill="white"/>
</svg>
