<svg width="58" height="58" viewBox="0 0 58 58" fill="none" xmlns="http://www.w3.org/2000/svg">
<rect width="58" height="58" rx="12" fill="url(#paint0_linear_1519_40267)"/>
<path d="M38.5714 21.0458H42.8857C40.9134 17.6041 37.7434 15.0124 33.9829 13.7674C35.9429 15.3937 37.5486 17.942 38.5714 21.0458ZM29.5714 13V21.0458H37.3829C35.8057 16.4817 32.9143 13.3207 29.5714 13ZM38.6629 29C38.6703 26.6992 38.3626 24.4082 37.7486 22.1911H29.5714V35.8089H37.7429C38.3617 33.5927 38.6713 31.3013 38.6629 29ZM43.48 22.1911H38.92C40.1009 26.6532 40.1009 31.3468 38.92 35.8089H43.48C44.481 33.6792 45 31.3541 45 29C45 26.6459 44.481 24.3208 43.48 22.1911ZM33.9771 44.2326C37.7403 42.9897 40.9128 40.3977 42.8857 36.9542H38.5714C37.5486 40.0637 35.9371 42.612 33.9771 44.2326ZM37.3829 36.9542H29.5714V45C32.9143 44.6736 35.8057 41.5183 37.3829 36.9542ZM19.4286 36.9542H15.1143C17.0872 40.3977 20.2597 42.9897 24.0229 44.2326C22.0629 42.612 20.4514 40.0637 19.4286 36.9542ZM28.4286 45V36.9542H20.6171C22.1943 41.5183 25.0857 44.6736 28.4286 45ZM18.1943 29C18.189 26.7012 18.4868 24.4118 19.08 22.1911H14.52C13.519 24.3208 13 26.6459 13 29C13 31.3541 13.519 33.6792 14.52 35.8089H19.08C18.4868 33.5882 18.189 31.2988 18.1943 29ZM24.0171 13.7674C20.2566 15.0124 17.0866 17.6041 15.1143 21.0458H19.4286C20.4514 17.942 22.0571 15.3937 24.0171 13.7674ZM20.6171 21.0458H28.4286V13C25.0857 13.3207 22.1943 16.4817 20.6171 21.0458ZM19.3371 29C19.3287 31.3013 19.6383 33.5927 20.2571 35.8089H28.4286V22.1911H20.2514C19.6374 24.4082 19.3297 26.6992 19.3371 29Z" fill="white"/>
<defs>
<linearGradient id="paint0_linear_1519_40267" x1="0" y1="0" x2="0" y2="58" gradientUnits="userSpaceOnUse">
<stop stop-color="#1D62F0"/>
<stop offset="1" stop-color="#19D5FD"/>
</linearGradient>
</defs>
</svg>
