<svg width="58" height="58" viewBox="0 0 58 58" fill="none" xmlns="http://www.w3.org/2000/svg">
<rect width="58" height="58" rx="12" fill="url(#paint0_linear_1519_40257)"/>
<path fill-rule="evenodd" clip-rule="evenodd" d="M15.5664 25.9241C13.7083 22.5555 13 19.8398 13 18.0056C13 16.1713 13.4507 15.6452 13.908 15.2203C14.3652 14.7952 16.4273 13.5239 16.7787 13.2868C17.13 13.0497 18.471 12.5889 19.3119 13.7986C20.1529 15.0084 21.7365 17.4372 22.8282 19.0507C24.5415 21.3361 23.1766 22.3394 22.7357 22.9407C21.9245 24.0472 21.4573 24.3201 21.4573 25.6788C21.4573 27.0375 25.2545 30.8976 26.1625 31.8487C27.0635 32.7926 30.8471 36.1094 32.0195 36.2868C33.2001 36.4654 34.7807 35.2154 35.1167 34.8985C36.8262 33.586 37.7912 34.581 38.5787 35.0135C39.3661 35.4461 42.9239 37.663 44.0264 38.4103C45.064 39.1576 44.9992 40.3125 44.9992 40.3125C44.9992 40.3125 42.859 43.7092 42.5996 44.1168C42.2753 44.5924 41.4971 45 39.746 45C37.995 45 36.1241 44.6802 31.6777 42.2349C28.0396 40.234 24.5714 37.1009 22.7555 35.2666C20.8747 33.4324 17.6887 29.7719 15.5664 25.9241Z" fill="white"/>
<defs>
<linearGradient id="paint0_linear_1519_40257" x1="0" y1="0" x2="0" y2="58" gradientUnits="userSpaceOnUse">
<stop stop-color="#64FA7E"/>
<stop offset="1" stop-color="#0CBA29"/>
</linearGradient>
</defs>
</svg>
