<svg width="30" height="30" viewBox="0 0 30 30" fill="none" xmlns="http://www.w3.org/2000/svg">
<path d="M21.2506 11.4621C21.0164 11.2293 20.6996 11.0986 20.3694 11.0986C20.0391 11.0986 19.7223 11.2293 19.4881 11.4621L15.0006 15.8871L10.5756 11.4621C10.3414 11.2293 10.0246 11.0986 9.69436 11.0986C9.36412 11.0986 9.04731 11.2293 8.81311 11.4621C8.69595 11.5783 8.60295 11.7166 8.53949 11.8689C8.47603 12.0212 8.44336 12.1846 8.44336 12.3496C8.44336 12.5146 8.47603 12.678 8.53949 12.8303C8.60295 12.9827 8.69595 13.1209 8.81311 13.2371L14.1131 18.5371C14.2293 18.6543 14.3676 18.7473 14.5199 18.8107C14.6722 18.8742 14.8356 18.9069 15.0006 18.9069C15.1656 18.9069 15.329 18.8742 15.4813 18.8107C15.6337 18.7473 15.7719 18.6543 15.8881 18.5371L21.2506 13.2371C21.3678 13.1209 21.4608 12.9827 21.5242 12.8303C21.5877 12.678 21.6204 12.5146 21.6204 12.3496C21.6204 12.1846 21.5877 12.0212 21.5242 11.8689C21.4608 11.7166 21.3678 11.5783 21.2506 11.4621Z" fill="#469FBD"/>
</svg>
