<svg width="126" height="16" viewBox="0 0 126 16" fill="none" xmlns="http://www.w3.org/2000/svg">
<path fill-rule="evenodd" clip-rule="evenodd" d="M0 0.708008V15.2914H5.80095C7.54154 15.2781 8.85339 14.9141 9.73688 14.1997C10.6267 13.4785 11.0716 12.4034 11.0716 10.9745C11.0716 10.1865 10.872 9.51885 10.4728 8.9713C10.0736 8.42368 9.50109 8.04975 8.75534 7.84944C9.41605 7.59572 9.91681 7.20175 10.257 6.66756C10.5972 6.1334 10.7673 5.489 10.7673 4.73446C10.7673 3.42569 10.2865 2.42743 9.32432 1.73966C8.36917 1.05189 6.9722 0.708008 5.13341 0.708008H0ZM3.44516 12.5871V9.09145H5.85961C7.04394 9.09812 7.63643 9.70912 7.63643 10.9244C7.63643 11.4519 7.46951 11.8626 7.13567 12.1564C6.80212 12.4435 6.32421 12.5871 5.70268 12.5871H3.44516ZM5.24131 6.78777H3.44516V3.42235H5.13341C5.90562 3.42235 6.46511 3.55924 6.8116 3.83301C7.15845 4.10011 7.33206 4.54082 7.33206 5.15516C7.33206 5.68932 7.17183 6.0933 6.851 6.36707C6.53046 6.64087 5.99382 6.78109 5.24131 6.78777ZM17.4261 9.11147H22.844V6.49729H17.4261V3.42235H23.8453V0.708008H13.9807V15.2914H23.8256V12.5871H17.4261V9.11147ZM29.3188 15.2914H25.7282L30.9694 0.708008H34.2084L35.3562 3.87816C35.1355 3.99564 34.9388 4.11696 34.7658 4.23904C30.9423 7.19404 29.5412 12.6546 29.3188 15.0155V15.2914ZM31.8163 15.2914H39.0662C38.8624 14.0453 38.2668 11.6308 37.4718 11.7162C36.9745 11.7696 36.6158 11.9558 36.2257 12.1581C35.8303 12.3632 35.4026 12.5851 34.7658 12.7024C34.6839 12.7174 34.6014 12.732 34.5181 12.7466C33.3186 12.9575 32.0068 13.1881 31.8163 15.2914ZM41.645 9.72464V15.2914H45.09V10.1431H46.9554L49.4773 15.2914H53.1678V15.1412L50.1836 9.26169C51.0414 8.84771 51.6698 8.30684 52.0689 7.63915C52.4739 6.97138 52.6775 6.13002 52.6775 5.11507C52.6775 3.71284 52.1998 2.62775 51.2442 1.85985C50.2887 1.09195 48.9635 0.708008 47.2685 0.708008H41.645V2.80152C43.0571 2.87528 44.6681 3.11189 46.4858 3.57559C46.9841 3.27077 47.9374 2.9767 47.7684 4.23904C48.302 4.7024 48.5364 4.86959 49.037 5.2272L49.0686 5.25012C49.1303 5.29369 49.2068 5.33576 49.2862 5.37908C49.6625 5.58535 50.0917 5.81993 49.1039 6.37977C48.3593 6.80208 47.7919 6.83022 46.9422 6.87244C46.4292 6.8979 45.8132 6.92849 44.9922 7.05418C44.6776 7.11837 42.2509 7.94423 41.645 9.72464Z" fill="#F6F8FB"/>
<path fill-rule="evenodd" clip-rule="evenodd" d="M63.1491 12.4663H69.1138V15.0965H59.7227V0.91261H63.1491V12.4663ZM81.1238 11.9695C81.6379 10.9044 81.8952 9.68017 81.8952 8.29682V7.64414C81.8885 6.28027 81.6215 5.07235 81.0944 4.02023C80.574 2.96162 79.8418 2.14657 78.8981 1.57507C77.9544 1.00357 76.8807 0.717781 75.6766 0.717781C74.4596 0.717781 73.373 1.00678 72.4163 1.58477C71.466 2.16276 70.7341 2.98431 70.2199 4.04941C69.7121 5.10802 69.4584 6.33227 69.4584 7.72204V8.5209C69.4845 9.85873 69.7579 11.044 70.2784 12.0766C70.8054 13.1092 71.5376 13.9048 72.4747 14.4633C73.4121 15.0154 74.4858 15.2914 75.6962 15.2914C76.9066 15.2914 77.9837 15.0057 78.9275 14.4342C79.8774 13.8561 80.6097 13.0346 81.1238 11.9695ZM77.6975 4.49756C78.1725 5.22494 78.4101 6.29332 78.4101 7.70256V8.35532C78.4036 9.7321 78.1658 10.7875 77.6975 11.5214C77.2288 12.2552 76.5619 12.6222 75.6962 12.6222C74.785 12.6222 74.0985 12.2487 73.6365 11.5018C73.1744 10.755 72.9434 9.68666 72.9434 8.29682L72.9532 7.25448C73.0507 4.68269 73.9587 3.39672 75.6766 3.39672C76.5553 3.39672 77.2288 3.76369 77.6975 4.49756ZM94.8983 13.3431C94.3712 13.9275 93.5998 14.3984 92.5848 14.7556C91.5694 15.1128 90.4566 15.2914 89.2463 15.2914C87.3847 15.2914 85.8979 14.7232 84.785 13.5866C83.6722 12.4501 83.0766 10.8686 82.9986 8.84236L82.9888 7.61489C82.9888 6.21856 83.236 5.00086 83.7305 3.96181C84.2254 2.91618 84.9314 2.11404 85.8489 1.55552C86.7731 0.990512 87.8404 0.708008 89.0508 0.708008C90.8212 0.708008 92.194 1.11393 93.1702 1.92578C94.1531 2.73105 94.726 3.93576 94.8885 5.53991H91.589C91.4719 4.74761 91.2178 4.18253 90.8274 3.84488C90.437 3.50716 89.8838 3.3383 89.168 3.3383C88.3088 3.3383 87.6451 3.70199 87.1767 4.42936C86.708 5.15674 86.4704 6.19587 86.4641 7.54669V8.40397C86.4641 9.81978 86.7049 10.8849 87.1865 11.5993C87.6744 12.3072 88.4392 12.6612 89.4804 12.6612C90.372 12.6612 91.0357 12.4631 91.4719 12.0669V9.8653H89.09V7.51751H94.8983V13.3431ZM97.1239 15.0965H100.54V0.91261H97.1239V15.0965ZM113.922 10.2939C113.876 11.281 113.61 12.1546 113.122 12.9144C112.634 13.6678 111.947 14.2522 111.062 14.6679C110.183 15.0836 109.178 15.2914 108.046 15.2914C106.178 15.2914 104.707 14.6841 103.633 13.4697C102.559 12.2552 102.022 10.5407 102.022 8.32607V7.62466C102.022 6.23483 102.263 5.02034 102.745 3.98121C103.233 2.93558 103.932 2.1303 104.844 1.5653C105.755 0.993795 106.809 0.708008 108.006 0.708008C109.731 0.708008 111.117 1.16266 112.165 2.07188C113.213 2.97461 113.808 4.22155 113.952 5.81271H110.535C110.509 4.94893 110.291 4.3287 109.881 3.95203C109.47 3.57536 108.846 3.38702 108.006 3.38702C107.154 3.38702 106.529 3.70527 106.132 4.34169C105.736 4.97818 105.527 5.99455 105.508 7.39081V8.39427C105.508 9.90746 105.696 10.9888 106.073 11.6383C106.457 12.2877 107.115 12.6124 108.046 12.6124C108.833 12.6124 109.435 12.4273 109.851 12.0571C110.268 11.6869 110.489 11.0992 110.515 10.2939H113.922ZM122.037 10.1575C122.395 10.4368 122.574 10.8265 122.574 11.3265C122.574 11.7681 122.408 12.1123 122.076 12.3592C121.751 12.5995 121.305 12.7196 120.738 12.7196C119.854 12.7196 119.213 12.541 118.816 12.1838C118.425 11.8201 118.23 11.2583 118.23 10.4985H114.794C114.794 11.4337 115.028 12.2617 115.497 12.9826C115.971 13.697 116.675 14.262 117.605 14.6776C118.542 15.0868 119.586 15.2914 120.738 15.2914C122.372 15.2914 123.657 14.9375 124.595 14.2296C125.532 13.5217 126 12.5474 126 11.3071C126 9.75486 125.233 8.53709 123.697 7.65384C123.065 7.29015 122.258 6.9525 121.276 6.64075C120.293 6.3225 119.606 6.01724 119.216 5.72503C118.825 5.42626 118.63 5.09503 118.63 4.73134C118.63 4.31572 118.806 3.97472 119.157 3.70848C119.515 3.43575 120 3.29927 120.612 3.29927C121.217 3.29927 121.695 3.45843 122.047 3.77668C122.405 4.09492 122.583 4.54301 122.583 5.121H126C126 4.25729 125.776 3.49089 125.327 2.82201C124.877 2.14657 124.247 1.627 123.433 1.26331C122.626 0.899626 121.711 0.717781 120.689 0.717781C119.643 0.717781 118.699 0.886643 117.859 1.22429C117.02 1.55552 116.368 2.02315 115.906 2.62711C115.451 3.22465 115.224 3.91629 115.224 4.70209C115.224 6.28027 116.144 7.52072 117.986 8.42352C118.552 8.70274 119.281 8.99174 120.173 9.29051C121.064 9.58921 121.686 9.87828 122.037 10.1575Z" fill="#F6F8FB"/>
</svg>
