<svg width="30" height="30" viewBox="0 0 30 30" fill="none" xmlns="http://www.w3.org/2000/svg">
<g clip-path="url(#clip0_505_15846)">
<path fill-rule="evenodd" clip-rule="evenodd" d="M13.9013 25.7687C13.5578 25.5568 13.2017 25.366 12.835 25.1975C11.9187 24.7738 10.6962 24.375 9.375 24.375C7.77625 24.375 6.3275 24.96 5.4 25.4525C5.10727 25.6058 4.78099 25.6838 4.45059 25.6794C4.12019 25.675 3.79607 25.5885 3.5075 25.4275C3.20443 25.2641 2.95094 25.0221 2.77366 24.7269C2.59638 24.4318 2.50185 24.0943 2.5 23.75V8.125C2.5 7.34875 2.86875 6.54625 3.6225 6.08875C4.59 5.50125 6.7675 4.375 9.375 4.375C11.3512 4.375 13.3062 5.0125 15 6.0125C16.6938 5.0125 18.6488 4.375 20.625 4.375C23.2325 4.375 25.41 5.5 26.3775 6.08875C27.1312 6.54625 27.5 7.34875 27.5 8.125V23.75C27.5 24.5413 27.0263 25.1325 26.4925 25.4275C26.2038 25.5887 25.8794 25.6754 25.5488 25.6797C25.2181 25.6841 24.8916 25.606 24.5988 25.4525C23.6725 24.96 22.2237 24.375 20.625 24.375C19.3037 24.375 18.0813 24.775 17.165 25.1975C16.7983 25.366 16.4422 25.5568 16.0987 25.7687C15.7437 25.99 15.4438 26.25 15.0013 26.25C14.5563 26.25 14.2575 25.99 13.9013 25.7687ZM5 22.8675V8.1775C5.84125 7.6775 7.5 6.875 9.375 6.875C10.9125 6.875 12.435 7.3975 13.75 8.1775V22.8675C12.6438 22.3725 11.1088 21.875 9.375 21.875C7.64875 21.875 6.11375 22.3688 5 22.8675ZM16.25 22.8675C17.3562 22.3725 18.8913 21.875 20.625 21.875C22.3512 21.875 23.8862 22.3688 25 22.8675V8.1775C24.1588 7.6775 22.5 6.875 20.625 6.875C19.0875 6.875 17.565 7.3975 16.25 8.1775V22.8675Z" fill="#469FBD"/>
</g>
<defs>
<clipPath id="clip0_505_15846">
<rect width="30" height="30" fill="white"/>
</clipPath>
</defs>
</svg>
