<svg width="30" height="30" viewBox="0 0 30 30" fill="none" xmlns="http://www.w3.org/2000/svg">
<path d="M10.0001 13.75C9.75285 13.75 9.51118 13.8233 9.30561 13.9607C9.10005 14.098 8.93984 14.2932 8.84523 14.5216C8.75062 14.7501 8.72586 15.0014 8.77409 15.2439C8.82233 15.4863 8.94138 15.7091 9.11619 15.8839C9.29101 16.0587 9.51374 16.1778 9.75621 16.226C9.99869 16.2742 10.25 16.2495 10.4784 16.1548C10.7068 16.0602 10.9021 15.9 11.0394 15.6945C11.1768 15.4889 11.2501 15.2472 11.2501 15C11.2501 14.6685 11.1184 14.3505 10.884 14.1161C10.6495 13.8817 10.3316 13.75 10.0001 13.75V13.75ZM15.0001 13.75C14.7529 13.75 14.5112 13.8233 14.3056 13.9607C14.1001 14.098 13.9398 14.2932 13.8452 14.5216C13.7506 14.7501 13.7259 15.0014 13.7741 15.2439C13.8223 15.4863 13.9414 15.7091 14.1162 15.8839C14.291 16.0587 14.5137 16.1778 14.7562 16.226C14.9987 16.2742 15.25 16.2495 15.4784 16.1548C15.7068 16.0602 15.9021 15.9 16.0394 15.6945C16.1768 15.4889 16.2501 15.2472 16.2501 15C16.2501 14.6685 16.1184 14.3505 15.884 14.1161C15.6495 13.8817 15.3316 13.75 15.0001 13.75ZM20.0001 13.75C19.7529 13.75 19.5112 13.8233 19.3056 13.9607C19.1001 14.098 18.9398 14.2932 18.8452 14.5216C18.7506 14.7501 18.7259 15.0014 18.7741 15.2439C18.8223 15.4863 18.9414 15.7091 19.1162 15.8839C19.291 16.0587 19.5137 16.1778 19.7562 16.226C19.9987 16.2742 20.25 16.2495 20.4784 16.1548C20.7068 16.0602 20.9021 15.9 21.0394 15.6945C21.1768 15.4889 21.2501 15.2472 21.2501 15C21.2501 14.6685 21.1184 14.3505 20.884 14.1161C20.6495 13.8817 20.3316 13.75 20.0001 13.75ZM15.0001 2.5C13.3586 2.5 11.7331 2.82332 10.2165 3.45151C8.69996 4.07969 7.32197 5.00043 6.16124 6.16117C3.81704 8.50537 2.50008 11.6848 2.50008 15C2.48915 17.8864 3.48857 20.6857 5.32508 22.9125L2.82508 25.4125C2.65163 25.5883 2.53413 25.8115 2.48742 26.054C2.4407 26.2965 2.46685 26.5474 2.56258 26.775C2.6664 26.9999 2.83471 27.1889 3.04614 27.318C3.25756 27.4471 3.50258 27.5104 3.75008 27.5H15.0001C18.3153 27.5 21.4947 26.183 23.8389 23.8388C26.1831 21.4946 27.5001 18.3152 27.5001 15C27.5001 11.6848 26.1831 8.50537 23.8389 6.16117C21.4947 3.81696 18.3153 2.5 15.0001 2.5V2.5ZM15.0001 25H6.76258L7.92508 23.8375C8.15789 23.6033 8.28857 23.2865 8.28857 22.9562C8.28857 22.626 8.15789 22.3092 7.92508 22.075C6.28831 20.4401 5.26904 18.2882 5.04094 15.986C4.81284 13.6838 5.39 11.3738 6.67411 9.4494C7.95822 7.52505 9.86982 6.10545 12.0832 5.43247C14.2966 4.75948 16.6749 4.87476 18.8128 5.75864C20.9508 6.64253 22.7161 8.24034 23.8081 10.2799C24.9001 12.3194 25.2512 14.6744 24.8015 16.9438C24.3518 19.2131 23.1292 21.2563 21.342 22.7253C19.5548 24.1943 17.3135 24.9982 15.0001 25V25Z" fill="#469FBD"/>
</svg>
