<svg width="30" height="30" viewBox="0 0 30 30" fill="none" xmlns="http://www.w3.org/2000/svg">
<path d="M15 2.5C11.7955 2.50914 8.71686 3.74864 6.4 5.9625V3.75C6.4 3.41848 6.2683 3.10054 6.03388 2.86612C5.79946 2.6317 5.48152 2.5 5.15 2.5C4.81848 2.5 4.50054 2.6317 4.26612 2.86612C4.0317 3.10054 3.9 3.41848 3.9 3.75V9.375C3.9 9.70652 4.0317 10.0245 4.26612 10.2589C4.50054 10.4933 4.81848 10.625 5.15 10.625H10.775C11.1065 10.625 11.4245 10.4933 11.6589 10.2589C11.8933 10.0245 12.025 9.70652 12.025 9.375C12.025 9.04348 11.8933 8.72554 11.6589 8.49112C11.4245 8.2567 11.1065 8.125 10.775 8.125H7.775C9.38222 6.44545 11.5244 5.37832 13.8332 5.10709C16.142 4.83586 18.4731 5.37747 20.4258 6.63881C22.3785 7.90014 23.8308 9.80239 24.5329 12.0185C25.235 14.2346 25.1431 16.6261 24.273 18.7817C23.4029 20.9374 21.8089 22.7226 19.7652 23.8304C17.7214 24.9382 15.3556 25.2993 13.0744 24.8517C10.7933 24.4041 8.73933 23.1757 7.26574 21.3777C5.79215 19.5798 4.99098 17.3246 5 15C5 14.6685 4.8683 14.3505 4.63388 14.1161C4.39946 13.8817 4.08152 13.75 3.75 13.75C3.41848 13.75 3.10054 13.8817 2.86612 14.1161C2.6317 14.3505 2.5 14.6685 2.5 15C2.5 17.4723 3.23311 19.889 4.60663 21.9446C5.98015 24.0002 7.93238 25.6024 10.2165 26.5485C12.5005 27.4946 15.0139 27.7421 17.4386 27.2598C19.8634 26.7775 22.0907 25.587 23.8388 23.8388C25.587 22.0907 26.7775 19.8634 27.2598 17.4386C27.7421 15.0139 27.4946 12.5005 26.5485 10.2165C25.6024 7.93238 24.0002 5.98015 21.9446 4.60663C19.889 3.23311 17.4723 2.5 15 2.5ZM15 10C14.6685 10 14.3505 10.1317 14.1161 10.3661C13.8817 10.6005 13.75 10.9185 13.75 11.25V15C13.75 15.3315 13.8817 15.6495 14.1161 15.8839C14.3505 16.1183 14.6685 16.25 15 16.25H17.5C17.8315 16.25 18.1495 16.1183 18.3839 15.8839C18.6183 15.6495 18.75 15.3315 18.75 15C18.75 14.6685 18.6183 14.3505 18.3839 14.1161C18.1495 13.8817 17.8315 13.75 17.5 13.75H16.25V11.25C16.25 10.9185 16.1183 10.6005 15.8839 10.3661C15.6495 10.1317 15.3315 10 15 10Z" fill="#469FBD"/>
</svg>
