<svg width="20" height="19" viewBox="0 0 20 19" fill="none" xmlns="http://www.w3.org/2000/svg">
<path d="M19.2947 18.7072C19.6852 18.3167 19.6852 17.6835 19.2947 17.293L2.32413 0.322434C1.93361 -0.0680898 1.30044 -0.0680903 0.90992 0.322434C0.519396 0.712958 0.519396 1.34612 0.90992 1.73665L17.8805 18.7072C18.271 19.0977 18.9042 19.0977 19.2947 18.7072Z" fill="white"/>
<path d="M0.708909 18.7072C0.318385 18.3167 0.318385 17.6835 0.708909 17.293L17.6795 0.322434C18.07 -0.0680898 18.7032 -0.0680903 19.0937 0.322434C19.4842 0.712958 19.4842 1.34612 19.0937 1.73665L2.12312 18.7072C1.7326 19.0977 1.09943 19.0977 0.708909 18.7072Z" fill="white"/>
</svg>
