<svg width="40" height="40" viewBox="0 0 40 40" fill="none" xmlns="http://www.w3.org/2000/svg">
<path d="M22.3492 20.0003L32.8492 9.51698C33.1631 9.20314 33.3394 8.77748 33.3394 8.33364C33.3394 7.88981 33.1631 7.46415 32.8492 7.15031C32.5354 6.83647 32.1098 6.66016 31.6659 6.66016C31.2221 6.66016 30.7964 6.83647 30.4826 7.15031L19.9992 17.6503L9.51591 7.15031C9.20207 6.83647 8.77642 6.66016 8.33258 6.66016C7.88874 6.66016 7.46309 6.83647 7.14925 7.15031C6.83541 7.46415 6.65909 7.88981 6.65909 8.33364C6.65909 8.77748 6.83541 9.20314 7.14925 9.51698L17.6492 20.0003L7.14925 30.4836C6.99303 30.6386 6.86904 30.8229 6.78443 31.026C6.69981 31.2291 6.65625 31.447 6.65625 31.667C6.65625 31.887 6.69981 32.1048 6.78443 32.3079C6.86904 32.511 6.99303 32.6954 7.14925 32.8503C7.30419 33.0065 7.48852 33.1305 7.69162 33.2151C7.89472 33.2997 8.11256 33.3433 8.33258 33.3433C8.5526 33.3433 8.77044 33.2997 8.97354 33.2151C9.17664 33.1305 9.36098 33.0065 9.51591 32.8503L19.9992 22.3503L30.4826 32.8503C30.6375 33.0065 30.8219 33.1305 31.025 33.2151C31.2281 33.2997 31.4459 33.3433 31.6659 33.3433C31.8859 33.3433 32.1038 33.2997 32.3069 33.2151C32.51 33.1305 32.6943 33.0065 32.8492 32.8503C33.0055 32.6954 33.1295 32.511 33.2141 32.3079C33.2987 32.1048 33.3422 31.887 33.3422 31.667C33.3422 31.447 33.2987 31.2291 33.2141 31.026C33.1295 30.8229 33.0055 30.6386 32.8492 30.4836L22.3492 20.0003Z" fill="#469FBD"/>
</svg>
