<svg width="30" height="30" viewBox="0 0 30 30" fill="none" xmlns="http://www.w3.org/2000/svg">
<path fill-rule="evenodd" clip-rule="evenodd" d="M26.5607 16.9393C27.1464 17.5251 27.1464 18.4749 26.5607 19.0607L19.0607 26.5607C18.4749 27.1464 17.5251 27.1464 16.9393 26.5607C16.3536 25.9749 16.3536 25.0251 16.9393 24.4393L24.4393 16.9393C25.0251 16.3536 25.9749 16.3536 26.5607 16.9393Z" fill="#469FBD"/>
<path fill-rule="evenodd" clip-rule="evenodd" d="M25.0607 9.43934C25.6464 10.0251 25.6464 10.9749 25.0607 11.5607L11.5607 25.0607C10.9749 25.6464 10.0251 25.6464 9.43934 25.0607C8.85355 24.4749 8.85355 23.5251 9.43934 22.9393L22.9393 9.43934C23.5251 8.85355 24.4749 8.85355 25.0607 9.43934Z" fill="#469FBD"/>
</svg>
