<svg width="30" height="30" viewBox="0 0 30 30" fill="none" xmlns="http://www.w3.org/2000/svg">
<path d="M26.9915 16.2024L26.8288 15.9309C26.5395 15.4965 26.2141 15.1164 25.8525 14.7905C25.744 14.7181 25.5541 14.6186 25.2829 14.4919C25.0117 14.3652 24.8038 14.2656 24.6592 14.1932C25.744 13.6864 26.4853 12.9442 26.883 11.9668C26.9915 11.6772 26.9825 11.2971 26.8559 10.8264C26.7293 10.3558 26.6661 10.0662 26.6661 9.95759V9.84899C26.6661 9.26976 26.0333 8.79913 24.7677 8.43711C24.4422 8.40091 23.8998 8.38281 23.1405 8.38281L21.9472 8.65432L22.3268 7.73118C22.7246 6.64512 22.6161 5.57716 22.0014 4.52731L21.8929 4.3101C21.3505 3.47745 20.5369 2.91632 19.4521 2.62671C18.3673 2.37329 17.3548 2.5 16.4147 3.00683C15.1129 3.69466 14.462 4.4911 14.462 5.39615V5.45046L14.2993 5.72197L14.1366 5.45046L13.7569 4.85312C13.2145 4.02048 12.4732 3.45935 11.5331 3.16974C10.7737 2.98873 10.0686 3.07923 9.4177 3.44125C8.6945 3.87567 8.2425 4.58161 8.0617 5.55906C7.8809 6.60892 8.0617 7.60447 8.6041 8.54572L8.82106 8.92584L8.00746 8.65432C6.95882 8.40091 5.92825 8.54572 4.91577 9.08875C3.90329 9.55937 3.19817 10.3196 2.80041 11.3695C2.36649 12.3107 2.40265 13.252 2.90889 14.1932C3.08969 14.519 3.36089 14.8267 3.72249 15.1164C4.19257 15.5146 4.73497 15.768 5.34969 15.8766L5.62089 15.9309L5.07849 16.4196C4.60841 16.7817 4.28297 17.2704 4.10217 17.8858C3.92137 18.5736 4.01177 19.1891 4.37337 19.7321C4.55417 20.0579 4.77113 20.2932 5.02425 20.438C5.27737 20.6915 5.62089 20.8544 6.05481 20.9268C6.92266 21.1078 7.77242 21.0716 8.6041 20.8182L7.95322 21.8499L7.7905 22.3386C7.4289 23.4247 7.5193 24.4746 8.0617 25.4882C8.13402 25.5968 8.40522 25.9407 8.8753 26.52C9.30922 26.9182 9.85162 27.1897 10.5025 27.3345C11.7319 27.6241 12.7987 27.5336 13.7027 27.063C14.6428 26.52 15.2937 25.7054 15.6553 24.6194L15.7096 24.4022C16.3966 25.1986 17.0836 25.6692 17.7707 25.814C18.4939 26.0312 19.1809 25.9588 19.8318 25.5968C20.4465 25.1986 20.8624 24.6194 21.0793 23.8591C21.224 23.0989 21.224 22.3024 21.0793 21.4698C21.5132 21.7232 21.8929 21.8861 22.2184 21.9585C23.3393 22.3205 24.4061 22.2481 25.4185 21.7413C26.3587 21.2345 26.9915 20.4199 27.3169 19.2977C27.6424 18.2478 27.5339 17.2161 26.9915 16.2024ZM21.7844 10.3377L22.2184 10.1748C22.7969 9.88519 23.4297 9.77658 24.1168 9.84899C24.7677 9.95759 25.2016 10.2291 25.4185 10.6635L25.527 11.098L25.4728 11.4781C25.2197 12.0573 24.6592 12.5641 23.7913 12.9986C23.5382 13.1072 23.1405 13.1977 22.598 13.2701L18.2046 13.8131L18.0961 13.5959L18.0419 13.4873L18.2046 13.2701L21.7844 10.3377ZM15.7096 5.88488C15.8542 5.19704 16.2881 4.67211 17.0113 4.3101C17.6984 3.91187 18.3854 3.85757 19.0724 4.14719C19.8318 4.3282 20.3742 4.70832 20.6996 5.28755C20.8804 5.72197 20.9708 6.13829 20.9708 6.53651L20.8624 7.29675C20.79 7.62257 20.6092 7.98459 20.32 8.38281L17.1198 12.2383C16.9028 12.0573 16.5412 11.8582 16.035 11.641L15.7096 7.67687L15.6553 6.265L15.7096 5.88488ZM9.58042 5.99348C9.58042 5.41425 9.81546 4.97983 10.2855 4.69022C10.5025 4.50921 10.7737 4.4911 11.0991 4.63591C11.7862 4.85312 12.3286 5.35995 12.7263 6.15639C13.0156 6.80803 13.1603 7.18815 13.1603 7.29675L13.8654 11.4781L13.323 11.641L10.1228 8.2199L9.9601 7.83978C9.63466 7.11574 9.5081 6.50031 9.58042 5.99348ZM4.26489 13.4873C4.01177 12.9442 3.99369 12.4193 4.21065 11.9125C4.49993 11.1523 4.97001 10.6454 5.62089 10.392C6.30793 10.0662 6.9769 9.97569 7.62778 10.1205L8.6041 10.5006L11.75 12.7813C11.4607 13.1072 11.2619 13.4511 11.1534 13.8131L6.00057 14.4647L5.67513 14.4104C5.09657 14.3018 4.62649 13.9941 4.26489 13.4873ZM14.462 23.8591L14.2993 24.2392C14.0824 24.8909 13.6304 25.3615 12.9433 25.6511C12.3286 26.0131 11.6596 26.1036 10.9364 25.9226C10.2132 25.7416 9.70698 25.3615 9.4177 24.7823C9.20074 24.3841 9.09226 23.9858 9.09226 23.5876L9.25498 22.7731C9.3273 22.411 9.5081 22.0671 9.79738 21.7413L12.7806 18.2116C13.1783 18.4288 13.5761 18.5736 13.9739 18.646C14.01 18.8995 14.1004 19.4696 14.2451 20.3566C14.3897 21.2435 14.462 21.9404 14.462 22.4473V23.8591ZM13.106 16.7998C12.5998 16.4015 12.3467 15.8585 12.3467 15.1707C12.3467 14.5552 12.5998 13.9941 13.106 13.4873C13.5038 13.0891 14.0643 12.8899 14.7875 12.8899C15.4745 12.8899 16.0169 13.0891 16.4147 13.4873C16.8848 13.9579 17.1198 14.519 17.1198 15.1707C17.1198 15.8947 16.8848 16.4377 16.4147 16.7998C15.9808 17.2704 15.4384 17.5057 14.7875 17.5057C14.0281 17.5057 13.4676 17.2704 13.106 16.7998ZM19.7233 22.9903C19.651 23.6419 19.416 24.0763 19.0182 24.2935C18.8012 24.4384 18.53 24.4746 18.2046 24.4022C17.5176 24.2573 16.9752 23.7505 16.5774 22.8817L16.1435 21.687L15.6011 18.646L16.1977 18.4288L16.6859 18.1573L18.2046 19.6778L19.1267 20.8182L19.2894 21.144C19.6148 21.7594 19.7595 22.3748 19.7233 22.9903ZM25.9067 18.8633C25.7259 19.5873 25.3101 20.0941 24.6592 20.3837C24.0445 20.7458 23.3755 20.8001 22.6523 20.5466C22.2545 20.438 21.9291 20.257 21.676 20.0036L17.9334 16.9084L18.2046 16.4196L18.3131 15.9852L22.3268 15.6051H24.1168C24.8038 15.8947 25.2558 16.2386 25.4728 16.6368C25.8344 16.9989 26.0152 17.5057 26.0152 18.1573L25.9067 18.8633Z" fill="#469FBD"/>
</svg>
