<svg width="30" height="30" viewBox="0 0 30 30" fill="none" xmlns="http://www.w3.org/2000/svg">
<g clip-path="url(#clip0_505_15847)">
<path d="M27.5013 16.7806L28.532 16.7879C28.8073 16.7879 29.0713 16.6785 29.2659 16.4839C29.4606 16.2892 29.57 16.0252 29.57 15.7499C29.57 15.4746 29.4606 15.2106 29.2659 15.0159C29.0713 14.8213 28.8073 14.7119 28.532 14.7119L26.478 14.7192L22.3407 14.7192L13.1232 14.7119C12.866 13.4575 12.1524 12.3432 11.1206 11.5849C10.0887 10.8266 8.8121 10.4783 7.53812 10.6076C6.26415 10.7368 5.08349 11.3343 4.22494 12.2844C3.36638 13.2345 2.89105 14.4694 2.89105 15.7499C2.89105 17.0304 3.36638 18.2654 4.22494 19.2154C5.08349 20.1655 6.26415 20.763 7.53812 20.8922C8.8121 21.0215 10.0887 20.6732 11.1206 19.9149C12.1524 19.1566 12.866 18.0423 13.1232 16.7879L21.3027 16.7806L21.2954 19.8872C21.2959 20.023 21.3231 20.1574 21.3755 20.2827C21.428 20.408 21.5046 20.5218 21.6009 20.6175C21.6973 20.7132 21.8116 20.789 21.9373 20.8405C22.063 20.892 22.1976 20.9183 22.3334 20.9178C22.4692 20.9174 22.6036 20.8901 22.7289 20.8377C22.8542 20.7853 22.968 20.7087 23.0637 20.6123C23.1594 20.5159 23.2352 20.4016 23.2867 20.276C23.3383 20.1503 23.3645 20.0157 23.3641 19.8799L23.3641 16.7806L25.4327 16.7879L25.4327 17.8112C25.4322 17.9471 25.4585 18.0817 25.51 18.2073C25.5616 18.333 25.6373 18.4473 25.733 18.5437C25.8288 18.6401 25.9425 18.7167 26.0678 18.7691C26.1931 18.8215 26.3275 18.8487 26.4634 18.8492C26.5992 18.8497 26.7338 18.8234 26.8594 18.7719C26.9851 18.7203 27.0994 18.6446 27.1958 18.5488C27.2922 18.4531 27.3688 18.3394 27.4212 18.2141C27.4736 18.0888 27.5008 17.9544 27.5013 17.8185L27.5013 16.7806ZM5.872 17.9428C5.43829 17.5091 5.14292 16.9565 5.02326 16.3549C4.9036 15.7533 4.96502 15.1298 5.19974 14.5631C5.43447 13.9964 5.83196 13.5121 6.34195 13.1713C6.85195 12.8306 7.45154 12.6487 8.0649 12.6487C8.67827 12.6487 9.27786 12.8306 9.78786 13.1713C10.2979 13.5121 10.6953 13.9964 10.9301 14.5631C11.1648 15.1298 11.2262 15.7533 11.1065 16.3549C10.9869 16.9565 10.6915 17.5091 10.2578 17.9428C9.67621 18.5244 8.8874 18.8511 8.06491 18.8511C7.24241 18.8511 6.4536 18.5244 5.872 17.9428Z" fill="#469FBD"/>
</g>
<defs>
<clipPath id="clip0_505_15847">
<rect width="30" height="30" fill="white"/>
</clipPath>
</defs>
</svg>
