<svg width="30" height="30" viewBox="0 0 30 30" fill="none" xmlns="http://www.w3.org/2000/svg">
<path d="M15 2.5C12.3478 2.5 9.8043 3.55357 7.92893 5.42893C6.05357 7.3043 5 9.84784 5 12.5C5 19.25 13.8125 26.875 14.1875 27.2C14.4139 27.3937 14.7021 27.5001 15 27.5001C15.2979 27.5001 15.5861 27.3937 15.8125 27.2C16.25 26.875 25 19.25 25 12.5C25 9.84784 23.9464 7.3043 22.0711 5.42893C20.1957 3.55357 17.6522 2.5 15 2.5V2.5ZM15 24.5625C12.3375 22.0625 7.5 16.675 7.5 12.5C7.5 10.5109 8.29018 8.60322 9.6967 7.1967C11.1032 5.79018 13.0109 5 15 5C16.9891 5 18.8968 5.79018 20.3033 7.1967C21.7098 8.60322 22.5 10.5109 22.5 12.5C22.5 16.675 17.6625 22.075 15 24.5625ZM15 7.5C14.0111 7.5 13.0444 7.79324 12.2221 8.34265C11.3999 8.89206 10.759 9.67295 10.3806 10.5866C10.0022 11.5002 9.90315 12.5055 10.0961 13.4755C10.289 14.4454 10.7652 15.3363 11.4645 16.0355C12.1637 16.7348 13.0546 17.211 14.0245 17.4039C14.9945 17.5969 15.9998 17.4978 16.9134 17.1194C17.827 16.741 18.6079 16.1001 19.1573 15.2779C19.7068 14.4556 20 13.4889 20 12.5C20 11.1739 19.4732 9.90215 18.5355 8.96447C17.5979 8.02678 16.3261 7.5 15 7.5ZM15 15C14.5055 15 14.0222 14.8534 13.6111 14.5787C13.2 14.304 12.8795 13.9135 12.6903 13.4567C12.5011 12.9999 12.4516 12.4972 12.548 12.0123C12.6445 11.5273 12.8826 11.0819 13.2322 10.7322C13.5819 10.3826 14.0273 10.1445 14.5123 10.048C14.9972 9.95157 15.4999 10.0011 15.9567 10.1903C16.4135 10.3795 16.804 10.7 17.0787 11.1111C17.3534 11.5222 17.5 12.0055 17.5 12.5C17.5 13.163 17.2366 13.7989 16.7678 14.2678C16.2989 14.7366 15.663 15 15 15Z" fill="#469FBD"/>
</svg>
