<svg width="30" height="30" viewBox="0 0 30 30" fill="none" xmlns="http://www.w3.org/2000/svg">
<path d="M23.75 8.75H22.5V7.5C22.5 6.50544 22.1049 5.55161 21.4017 4.84835C20.6984 4.14509 19.7446 3.75 18.75 3.75H6.25C5.25544 3.75 4.30161 4.14509 3.59835 4.84835C2.89509 5.55161 2.5 6.50544 2.5 7.5V22.5C2.5 23.4946 2.89509 24.4484 3.59835 25.1517C4.30161 25.8549 5.25544 26.25 6.25 26.25H23.75C24.7446 26.25 25.6984 25.8549 26.4017 25.1517C27.1049 24.4484 27.5 23.4946 27.5 22.5V12.5C27.5 11.5054 27.1049 10.5516 26.4017 9.84835C25.6984 9.14509 24.7446 8.75 23.75 8.75ZM6.25 6.25H18.75C19.0815 6.25 19.3995 6.3817 19.6339 6.61612C19.8683 6.85054 20 7.16848 20 7.5V8.75H6.25C5.91848 8.75 5.60054 8.6183 5.36612 8.38388C5.1317 8.14946 5 7.83152 5 7.5C5 7.16848 5.1317 6.85054 5.36612 6.61612C5.60054 6.3817 5.91848 6.25 6.25 6.25ZM25 18.75H23.75C23.4185 18.75 23.1005 18.6183 22.8661 18.3839C22.6317 18.1495 22.5 17.8315 22.5 17.5C22.5 17.1685 22.6317 16.8505 22.8661 16.6161C23.1005 16.3817 23.4185 16.25 23.75 16.25H25V18.75ZM25 13.75H23.75C22.7554 13.75 21.8016 14.1451 21.0983 14.8483C20.3951 15.5516 20 16.5054 20 17.5C20 18.4946 20.3951 19.4484 21.0983 20.1517C21.8016 20.8549 22.7554 21.25 23.75 21.25H25V22.5C25 22.8315 24.8683 23.1495 24.6339 23.3839C24.3995 23.6183 24.0815 23.75 23.75 23.75H6.25C5.91848 23.75 5.60054 23.6183 5.36612 23.3839C5.1317 23.1495 5 22.8315 5 22.5V11.0375C5.40158 11.1788 5.82429 11.2506 6.25 11.25H23.75C24.0815 11.25 24.3995 11.3817 24.6339 11.6161C24.8683 11.8505 25 12.1685 25 12.5V13.75Z" fill="#469FBD"/>
</svg>
