<svg width="20" height="20" viewBox="0 0 20 20" fill="none" xmlns="http://www.w3.org/2000/svg">
<path d="M18.0909 16.9085L14.9992 13.8418C16.1993 12.3455 16.7804 10.4462 16.6232 8.53458C16.466 6.62292 15.5822 4.84415 14.1538 3.56403C12.7253 2.28392 10.8607 1.59976 8.94329 1.65222C7.02589 1.70469 5.20146 2.4898 3.84514 3.84612C2.48882 5.20243 1.70371 7.02686 1.65125 8.94427C1.59878 10.8617 2.28294 12.7263 3.56306 14.1548C4.84317 15.5832 6.62194 16.4669 8.5336 16.6242C10.4453 16.7814 12.3445 16.2002 13.8409 15.0002L16.9075 18.0668C16.985 18.1449 17.0772 18.2069 17.1787 18.2492C17.2803 18.2915 17.3892 18.3133 17.4992 18.3133C17.6092 18.3133 17.7181 18.2915 17.8197 18.2492C17.9212 18.2069 18.0134 18.1449 18.0909 18.0668C18.2411 17.9114 18.325 17.7038 18.325 17.4877C18.325 17.2716 18.2411 17.0639 18.0909 16.9085ZM9.16585 15.0002C8.01213 15.0002 6.88432 14.658 5.92503 14.0171C4.96574 13.3761 4.21807 12.4651 3.77656 11.3992C3.33505 10.3333 3.21953 9.16036 3.44461 8.0288C3.66969 6.89725 4.22526 5.85785 5.04106 5.04204C5.85687 4.22624 6.89627 3.67066 8.02783 3.44558C9.15938 3.2205 10.3323 3.33602 11.3982 3.77753C12.4641 4.21904 13.3751 4.96672 14.0161 5.926C14.6571 6.88529 14.9992 8.01311 14.9992 9.16683C14.9992 10.7139 14.3846 12.1977 13.2906 13.2916C12.1967 14.3856 10.713 15.0002 9.16585 15.0002Z" fill="#7F8A8D"/>
</svg>
