<svg width="20" height="20" viewBox="0 0 20 20" fill="none" xmlns="http://www.w3.org/2000/svg">
<path d="M14.9989 11.6666C14.5066 11.6699 14.021 11.7821 13.5772 11.9954C13.1335 12.2086 12.7424 12.5176 12.4322 12.8999L8.18224 10.9416C8.38206 10.3297 8.38206 9.67014 8.18224 9.05827L12.4322 7.09993C12.9336 7.7049 13.6325 8.11333 14.4057 8.25313C15.1789 8.39293 15.9766 8.25512 16.658 7.86402C17.3395 7.47292 17.8609 6.85366 18.1302 6.11555C18.3995 5.37744 18.3994 4.56792 18.13 3.82986C17.8605 3.09179 17.339 2.47264 16.6575 2.08166C15.976 1.69068 15.1782 1.55301 14.4051 1.69295C13.632 1.83289 12.9331 2.24145 12.4319 2.84651C11.9306 3.45157 11.6592 4.21425 11.6656 4.99993C11.6681 5.19846 11.6876 5.39641 11.7239 5.5916L7.3239 7.6166C6.8548 7.15791 6.26078 6.84786 5.61624 6.72529C4.97171 6.60272 4.30534 6.67307 3.70061 6.92754C3.09589 7.18201 2.57971 7.60928 2.21674 8.15582C1.85377 8.70235 1.66016 9.34385 1.66016 9.99993C1.66016 10.656 1.85377 11.2975 2.21674 11.844C2.57971 12.3906 3.09589 12.8179 3.70061 13.0723C4.30534 13.3268 4.97171 13.3971 5.61624 13.2746C6.26078 13.152 6.8548 12.842 7.3239 12.3833L11.7239 14.4083C11.6876 14.6035 11.6681 14.8014 11.6656 14.9999C11.6656 15.6592 11.8611 16.3037 12.2273 16.8518C12.5936 17.4 13.1142 17.8272 13.7233 18.0795C14.3324 18.3318 15.0026 18.3978 15.6492 18.2692C16.2958 18.1406 16.8898 17.8231 17.3559 17.357C17.8221 16.8908 18.1396 16.2968 18.2682 15.6502C18.3968 15.0036 18.3308 14.3334 18.0785 13.7243C17.8262 13.1152 17.399 12.5946 16.8508 12.2284C16.3026 11.8621 15.6582 11.6666 14.9989 11.6666ZM14.9989 3.33327C15.3285 3.33327 15.6508 3.43101 15.9249 3.61415C16.1989 3.79729 16.4126 4.05758 16.5387 4.36213C16.6648 4.66667 16.6979 5.00178 16.6335 5.32508C16.5692 5.64838 16.4105 5.94536 16.1774 6.17844C15.9443 6.41153 15.6474 6.57027 15.3241 6.63457C15.0008 6.69888 14.6656 6.66588 14.3611 6.53973C14.0566 6.41359 13.7963 6.19996 13.6131 5.92588C13.43 5.6518 13.3322 5.32957 13.3322 4.99993C13.3322 4.55791 13.5078 4.13398 13.8204 3.82142C14.133 3.50886 14.5569 3.33327 14.9989 3.33327V3.33327ZM4.9989 11.6666C4.66927 11.6666 4.34704 11.5689 4.07295 11.3857C3.79887 11.2026 3.58525 10.9423 3.45911 10.6377C3.33296 10.3332 3.29995 9.99808 3.36426 9.67478C3.42857 9.35148 3.58731 9.05451 3.82039 8.82142C4.05348 8.58833 4.35045 8.4296 4.67375 8.36529C4.99706 8.30098 5.33217 8.33399 5.63671 8.46013C5.94125 8.58628 6.20155 8.7999 6.38469 9.07398C6.56782 9.34806 6.66557 9.6703 6.66557 9.99993C6.66557 10.442 6.48998 10.8659 6.17742 11.1784C5.86486 11.491 5.44093 11.6666 4.9989 11.6666ZM14.9989 16.6666C14.6693 16.6666 14.347 16.5689 14.073 16.3857C13.7989 16.2026 13.5853 15.9423 13.4591 15.6377C13.333 15.3332 13.3 14.9981 13.3643 14.6748C13.4286 14.3515 13.5873 14.0545 13.8204 13.8214C14.0535 13.5883 14.3505 13.4296 14.6738 13.3653C14.9971 13.301 15.3322 13.334 15.6367 13.4601C15.9413 13.5863 16.2016 13.7999 16.3847 14.074C16.5678 14.3481 16.6656 14.6703 16.6656 14.9999C16.6656 15.442 16.49 15.8659 16.1774 16.1784C15.8649 16.491 15.4409 16.6666 14.9989 16.6666Z" fill="#469FBD"/>
</svg>
