<svg width="30" height="30" viewBox="0 0 30 30" fill="none" xmlns="http://www.w3.org/2000/svg">
<path d="M25.3159 16.3723C25.3877 15.872 25.4237 15.3672 25.4237 14.8619C25.4237 9.10988 20.7081 4.4272 14.9057 4.4272C14.4207 4.4272 13.9267 4.46284 13.4461 4.5252C12.494 4.01732 11.4162 3.75 10.3293 3.75C6.70059 3.75 3.75 6.6772 3.75 10.2728C3.75 11.3332 4.01046 12.3802 4.50897 13.3114C4.43263 13.8238 4.39221 14.345 4.39221 14.8619C4.39221 20.6139 9.10775 25.2966 14.9102 25.2966C15.3189 25.2966 15.732 25.2743 16.1362 25.2253C17.1916 25.8936 18.4132 26.25 19.6752 26.25C23.3039 26.25 26.25 23.3228 26.25 19.7272C26.25 18.5421 25.9266 17.3837 25.3159 16.3723H25.3159ZM23.259 23.2827C22.3024 24.2317 21.027 24.7574 19.6707 24.7574C18.6692 24.7574 17.7036 24.4678 16.8728 23.9198L16.5 23.6748L16.0554 23.7327C15.6782 23.7817 15.2919 23.804 14.9102 23.804C13.6931 23.804 12.512 23.5678 11.4027 23.1C10.3293 22.65 9.36378 22.004 8.53746 21.1842C7.71114 20.3644 7.05992 19.4065 6.6063 18.3416C6.13477 17.2411 5.89672 16.0693 5.89672 14.8619C5.89672 14.3896 5.93265 13.9129 6.00901 13.4451L6.07187 13.0441L5.87429 12.6876C5.47009 11.9525 5.2545 11.1193 5.2545 10.2728C5.2545 8.92722 5.77994 7.66632 6.74101 6.71286C7.69758 5.76386 8.97305 5.2381 10.3293 5.2381C11.1961 5.2381 12.0539 5.46088 12.804 5.87966L13.1632 6.08016L13.5719 6.02224C14.012 5.9554 14.4656 5.92424 14.9102 5.92424C16.1273 5.92424 17.3084 6.16038 18.4177 6.6282C19.4911 7.0782 20.4566 7.72424 21.283 8.54404C22.1093 9.36384 22.7605 10.3217 23.2141 11.3866C23.6857 12.4871 23.9237 13.6589 23.9237 14.8663C23.9237 15.3297 23.8878 15.7975 23.8159 16.2564L23.7485 16.693L23.9865 17.0718C24.485 17.8693 24.75 18.7871 24.75 19.7272C24.7455 21.0683 24.2156 22.3337 23.259 23.2827V23.2827H23.259ZM16.4776 13.8906L14.3488 13.4139C13.1901 13.1555 12.6063 12.759 12.6063 12.2154C12.6063 11.8278 12.768 11.5114 13.0869 11.2708C13.4057 11.0302 13.8593 10.9099 14.4387 10.9099C15.1213 10.9099 15.6782 11.0525 16.1003 11.3421C16.2261 11.4223 16.4955 11.6852 16.9087 12.1263C17.1782 12.4114 17.4701 12.5585 17.78 12.5585C18.0988 12.5585 18.3773 12.4694 18.6018 12.2911C18.8308 12.1129 18.9432 11.8679 18.9432 11.5604C18.9432 10.852 18.4716 10.2371 17.5285 9.71586C16.6392 9.2213 15.6647 8.97626 14.6048 8.97626C13.3833 8.97626 12.3683 9.23466 11.5599 9.74706C10.6168 10.353 10.1452 11.2263 10.1452 12.3624C10.1452 13.9218 11.0569 14.9332 12.8803 15.3921L15.7545 16.1139C16.4775 16.2966 16.8413 16.6842 16.8413 17.2678C16.8413 17.6599 16.6662 17.9896 16.3159 18.2658C15.9341 18.5733 15.4266 18.7292 14.7979 18.7292C14.0659 18.7292 13.4775 18.5555 13.0329 18.2079C12.9296 18.1366 12.6467 17.8203 12.1841 17.2545C11.8967 16.9069 11.5688 16.7332 11.2096 16.7332C10.8997 16.7332 10.6437 16.8312 10.4416 17.0272C10.2395 17.2233 10.1407 17.4728 10.1407 17.7802C10.1407 18.4797 10.518 19.0946 11.2725 19.6247C12.1482 20.2619 13.3294 20.5782 14.8024 20.5782C16.289 20.5782 17.4342 20.2441 18.2425 19.5757C19.006 18.9609 19.3878 18.1277 19.3878 17.0807C19.4012 15.3965 18.4267 14.3317 16.4776 13.8906V13.8906Z" fill="#469FBD"/>
</svg>
