<svg width="30" height="30" viewBox="0 0 30 30" fill="none" xmlns="http://www.w3.org/2000/svg">
<path d="M27.8309 3.03448C27.475 2.7384 27.0454 2.54435 26.588 2.47299C26.1306 2.40162 25.6624 2.45562 25.2332 2.62922L2.83207 11.6734C2.35301 11.8705 1.94522 12.2086 1.66282 12.6429C1.38043 13.0772 1.23678 13.5871 1.25096 14.1049C1.26513 14.6228 1.43645 15.124 1.74217 15.5422C2.0479 15.9604 2.47357 16.2757 2.9627 16.4464L7.49395 18.0223L10.0196 26.3743C10.0539 26.4859 10.1037 26.5921 10.1675 26.6898C10.1772 26.7048 10.1909 26.716 10.2012 26.7306C10.275 26.8335 10.3641 26.9244 10.4655 27.0003C10.4943 27.0222 10.5219 27.0428 10.5528 27.0624C10.6714 27.1411 10.8028 27.1986 10.9412 27.2325L10.956 27.2337L10.9644 27.2373C11.0475 27.2543 11.1322 27.2628 11.2171 27.263C11.2252 27.263 11.2325 27.2591 11.2406 27.2589C11.3686 27.2567 11.4956 27.2346 11.6169 27.1935C11.6451 27.1839 11.6693 27.1678 11.6967 27.1562C11.7872 27.1187 11.8729 27.0707 11.9521 27.013C12.0155 26.9596 12.0789 26.9062 12.1423 26.8528L15.5201 23.1236L20.5579 27.0262C21.0014 27.3714 21.5473 27.5591 22.1094 27.5596C22.6984 27.5589 23.2692 27.3556 23.7261 26.984C24.1831 26.6124 24.4984 26.095 24.6192 25.5186L28.6976 5.49787C28.79 5.04726 28.7581 4.58001 28.6055 4.1461C28.4528 3.71219 28.1851 3.32795 27.8309 3.03448ZM11.7127 18.4202C11.5394 18.5929 11.4209 18.8128 11.3721 19.0526L10.9852 20.9326L10.0052 17.6912L15.0867 15.045L11.7127 18.4202ZM22.0899 25.0498L16.1365 20.438C15.8875 20.2455 15.575 20.154 15.2615 20.1816C14.9479 20.2092 14.6562 20.3539 14.4446 20.5869L13.3629 21.7809L13.7452 19.9229L22.5989 11.0691C22.8102 10.8581 22.939 10.5783 22.9619 10.2805C22.9847 9.98273 22.9002 9.6866 22.7235 9.44576C22.5469 9.20493 22.2899 9.03532 21.9989 8.96766C21.708 8.9 21.4025 8.93877 21.1377 9.07693L8.43114 15.6927L3.77569 13.9891L26.2488 4.99857L22.0899 25.0498Z" fill="#469FBD"/>
</svg>
