<svg width="30" height="30" viewBox="0 0 30 30" fill="none" xmlns="http://www.w3.org/2000/svg">
<path d="M28.7385 4.93751C28.7387 4.71672 28.6803 4.49984 28.5694 4.30894C28.4584 4.11805 28.2989 3.95997 28.107 3.8508C27.915 3.74163 27.6976 3.68528 27.4769 3.68747C27.2561 3.68966 27.0398 3.75033 26.8501 3.86329C26.1185 4.29877 25.3308 4.63227 24.5089 4.85454C23.3351 3.84733 21.838 3.29617 20.2914 3.3018C18.5946 3.30375 16.965 3.96504 15.7466 5.14603C14.5283 6.32701 13.8166 7.93525 13.7618 9.63115C10.4168 9.09773 7.38511 7.35181 5.24488 4.72633C5.11593 4.56987 4.95124 4.44672 4.76471 4.36726C4.57818 4.2878 4.37527 4.25436 4.17311 4.26976C3.97106 4.2864 3.7761 4.352 3.6051 4.4609C3.4341 4.5698 3.29219 4.71871 3.19166 4.89476C2.67607 5.79453 2.37995 6.80321 2.32735 7.8389C2.27474 8.87458 2.46714 9.90808 2.88892 10.8555L2.88648 10.8579C2.69692 10.9746 2.54047 11.1381 2.43212 11.3326C2.32376 11.5271 2.26711 11.7461 2.26758 11.9687C2.26529 12.1524 2.27631 12.336 2.30055 12.5181C2.42822 14.0909 3.12527 15.5631 4.261 16.6587C4.18395 16.8055 4.13693 16.9661 4.12267 17.1313C4.10842 17.2964 4.12722 17.4628 4.17798 17.6206C4.67313 19.1633 5.72611 20.4657 7.13087 21.2729C5.70367 21.8248 4.16265 22.0172 2.64356 21.8332C2.3624 21.798 2.0776 21.8593 1.83587 22.0071C1.59414 22.155 1.40984 22.3806 1.3132 22.647C1.21656 22.9134 1.21332 23.2047 1.30401 23.4732C1.3947 23.7416 1.57393 23.9713 1.81231 24.1245C4.42493 25.8072 7.46691 26.7018 10.5745 26.7014C14.0986 26.7411 17.537 25.6149 20.3548 23.4982C23.1727 21.3815 25.212 18.3929 26.1555 14.9973C26.5969 13.5181 26.8222 11.9829 26.8245 10.4392C26.8245 10.3574 26.8245 10.2732 26.8233 10.189C27.4759 9.48514 27.9815 8.6581 28.3104 7.75635C28.6393 6.85459 28.7848 5.89625 28.7385 4.93751ZM24.6052 8.9524C24.3988 9.19658 24.2943 9.5109 24.3135 9.83009C24.3257 10.0363 24.3245 10.2438 24.3245 10.4392C24.3219 11.7436 24.1307 13.0408 23.7568 14.2905C22.9862 17.1798 21.2683 19.7268 18.8782 21.5238C16.4881 23.3207 13.5641 24.2636 10.5745 24.2014C9.50062 24.2018 8.43042 24.0756 7.38605 23.8255C8.71781 23.3963 9.96303 22.7346 11.064 21.8711C11.2668 21.7114 11.4152 21.4929 11.4889 21.2456C11.5626 20.9982 11.5579 20.7341 11.4755 20.4895C11.3931 20.2449 11.2371 20.0318 11.0287 19.8795C10.8204 19.7271 10.5701 19.6429 10.312 19.6384C9.27306 19.6223 8.28093 19.2035 7.54468 18.4702C7.73146 18.4348 7.91701 18.3909 8.10133 18.3384C8.37135 18.2615 8.60764 18.096 8.77216 17.8686C8.93668 17.6411 9.01986 17.3649 9.0083 17.0844C8.99674 16.8039 8.89112 16.5354 8.70844 16.3222C8.52576 16.1091 8.27666 15.9636 8.00123 15.9092C7.39816 15.7901 6.83067 15.5335 6.34288 15.1594C5.85509 14.7853 5.46014 14.3038 5.18873 13.7522C5.41465 13.783 5.642 13.8022 5.86988 13.8096C6.14061 13.8137 6.40563 13.7315 6.6266 13.5751C6.84758 13.4186 7.01307 13.1959 7.09913 12.9392C7.18161 12.6802 7.17736 12.4013 7.08705 12.1449C6.99673 11.8885 6.82526 11.6685 6.59865 11.5183C6.04883 11.152 5.59845 10.6551 5.28784 10.072C4.97723 9.48893 4.81609 8.83791 4.81886 8.17726C4.81886 8.09426 4.8213 8.01125 4.82618 7.92946C7.62776 10.5423 11.2616 12.0825 15.0874 12.2788C15.2806 12.2864 15.4729 12.2501 15.6499 12.1725C15.8269 12.0948 15.9839 11.978 16.1092 11.8308C16.2331 11.6822 16.3209 11.5068 16.3656 11.3185C16.4103 11.1302 16.4107 10.9341 16.3667 10.7456C16.2952 10.4473 16.2587 10.1417 16.258 9.83498C16.2592 8.76565 16.6845 7.74044 17.4406 6.98431C18.1967 6.22818 19.2219 5.80289 20.2913 5.80176C20.8414 5.80029 21.3859 5.91289 21.8904 6.13245C22.3949 6.35201 22.8483 6.67376 23.2222 7.0774C23.3663 7.2325 23.5478 7.34814 23.7493 7.41332C23.9508 7.4785 24.1656 7.49104 24.3733 7.44976C24.8868 7.34983 25.3929 7.21525 25.8882 7.04694C25.5503 7.73815 25.1186 8.37937 24.6052 8.9524Z" fill="#469FBD"/>
</svg>
