<svg width="30" height="30" viewBox="0 0 30 30" fill="none" xmlns="http://www.w3.org/2000/svg">
<path d="M18.7507 12.4998H15.0007V8.74976C15.0007 8.41824 14.869 8.1003 14.6346 7.86588C14.4002 7.63146 14.0823 7.49976 13.7507 7.49976C13.4192 7.49976 13.1013 7.63146 12.8669 7.86588C12.6324 8.1003 12.5007 8.41824 12.5007 8.74976V12.4998H8.75074C8.41921 12.4998 8.10127 12.6315 7.86685 12.8659C7.63243 13.1003 7.50074 13.4182 7.50074 13.7498C7.50074 14.0813 7.63243 14.3992 7.86685 14.6336C8.10127 14.8681 8.41921 14.9998 8.75074 14.9998H12.5007V18.7498C12.5007 19.0813 12.6324 19.3992 12.8669 19.6336C13.1013 19.8681 13.4192 19.9998 13.7507 19.9998C14.0823 19.9998 14.4002 19.8681 14.6346 19.6336C14.869 19.3992 15.0007 19.0813 15.0007 18.7498V14.9998H18.7507C19.0823 14.9998 19.4002 14.8681 19.6346 14.6336C19.869 14.3992 20.0007 14.0813 20.0007 13.7498C20.0007 13.4182 19.869 13.1003 19.6346 12.8659C19.4002 12.6315 19.0823 12.4998 18.7507 12.4998ZM27.1382 25.3623L22.5007 20.7623C24.3009 18.5178 25.1726 15.6689 24.9367 12.8014C24.7009 9.93389 23.3753 7.26574 21.2326 5.34556C19.0899 3.42539 16.293 2.39915 13.4169 2.47785C10.5408 2.55655 7.80414 3.73421 5.76966 5.76869C3.73519 7.80316 2.55752 10.5398 2.47882 13.4159C2.40012 16.292 3.42637 19.089 5.34654 21.2317C7.26671 23.3743 9.93486 24.6999 12.8024 24.9358C15.6699 25.1716 18.5187 24.2999 20.7632 22.4998L25.3632 27.0998C25.4794 27.2169 25.6177 27.3099 25.77 27.3734C25.9223 27.4368 26.0857 27.4695 26.2507 27.4695C26.4158 27.4695 26.5791 27.4368 26.7315 27.3734C26.8838 27.3099 27.022 27.2169 27.1382 27.0998C27.3635 26.8667 27.4895 26.5552 27.4895 26.231C27.4895 25.9068 27.3635 25.5953 27.1382 25.3623V25.3623ZM13.7507 22.4998C12.0201 22.4998 10.3284 21.9866 8.8895 21.0251C7.45057 20.0637 6.32906 18.6971 5.66679 17.0982C5.00452 15.4994 4.83124 13.7401 5.16886 12.0427C5.50648 10.3454 6.33984 8.78628 7.56355 7.56257C8.78726 6.33886 10.3464 5.50551 12.0437 5.16789C13.741 4.83027 15.5004 5.00355 17.0992 5.66581C18.6981 6.32808 20.0646 7.44959 21.0261 8.88852C21.9876 10.3274 22.5007 12.0192 22.5007 13.7498C22.5007 16.0704 21.5789 18.296 19.9379 19.9369C18.297 21.5779 16.0714 22.4998 13.7507 22.4998V22.4998Z" fill="#469FBD"/>
</svg>
