<svg width="61" height="60" viewBox="0 0 61 60" fill="none" xmlns="http://www.w3.org/2000/svg">
<circle cx="30.5" cy="30" r="30" fill="white"/>
<path d="M34.2488 27.5H30.4988V23.75C30.4988 23.4185 30.3671 23.1005 30.1327 22.8661C29.8982 22.6317 29.5803 22.5 29.2488 22.5C28.9173 22.5 28.5993 22.6317 28.3649 22.8661C28.1305 23.1005 27.9988 23.4185 27.9988 23.75V27.5H24.2488C23.9173 27.5 23.5993 27.6317 23.3649 27.8661C23.1305 28.1005 22.9988 28.4185 22.9988 28.75C22.9988 29.0815 23.1305 29.3995 23.3649 29.6339C23.5993 29.8683 23.9173 30 24.2488 30H27.9988V33.75C27.9988 34.0815 28.1305 34.3995 28.3649 34.6339C28.5993 34.8683 28.9173 35 29.2488 35C29.5803 35 29.8982 34.8683 30.1327 34.6339C30.3671 34.3995 30.4988 34.0815 30.4988 33.75V30H34.2488C34.5803 30 34.8982 29.8683 35.1327 29.6339C35.3671 29.3995 35.4988 29.0815 35.4988 28.75C35.4988 28.4185 35.3671 28.1005 35.1327 27.8661C34.8982 27.6317 34.5803 27.5 34.2488 27.5ZM42.6363 40.3625L37.9988 35.7625C39.7989 33.518 40.6707 30.6691 40.4348 27.8016C40.1989 24.9341 38.8734 22.266 36.7307 20.3458C34.588 18.4256 31.791 17.3994 28.9149 17.4781C26.0388 17.5568 23.3022 18.7345 21.2677 20.7689C19.2332 22.8034 18.0556 25.5401 17.9769 28.4162C17.8982 31.2923 18.9244 34.0892 20.8446 36.2319C22.7648 38.3746 25.4329 39.7001 28.3004 39.936C31.1679 40.1719 34.0168 39.3001 36.2613 37.5L40.8613 42.1C40.9775 42.2172 41.1157 42.3102 41.2681 42.3736C41.4204 42.4371 41.5838 42.4697 41.7488 42.4697C41.9138 42.4697 42.0772 42.4371 42.2295 42.3736C42.3818 42.3102 42.5201 42.2172 42.6363 42.1C42.8616 41.8669 42.9875 41.5554 42.9875 41.2313C42.9875 40.9071 42.8616 40.5956 42.6363 40.3625ZM29.2488 37.5C27.5182 37.5 25.8265 36.9868 24.3875 36.0254C22.9486 35.0639 21.8271 33.6973 21.1648 32.0985C20.5026 30.4996 20.3293 28.7403 20.6669 27.043C21.0045 25.3456 21.8379 23.7865 23.0616 22.5628C24.2853 21.3391 25.8444 20.5058 27.5417 20.1681C29.2391 19.8305 30.9984 20.0038 32.5973 20.6661C34.1961 21.3283 35.5627 22.4498 36.5241 23.8888C37.4856 25.3277 37.9988 27.0194 37.9988 28.75C37.9988 31.0706 37.0769 33.2962 35.436 34.9372C33.795 36.5781 31.5694 37.5 29.2488 37.5Z" fill="#469FBD"/>
</svg>
