<svg width="0" height="0" class="hidden">
  <symbol version="1.1" id="shop-bag" xmlns="http://www.w3.org/2000/svg" xmlns:xlink="http://www.w3.org/1999/xlink" x="0px" y="0px" xml:space="preserve" viewBox="0 0 24 24">
    <path d="M21.2,17.4l-0.9-7.5c-0.2-2-0.7-3.8-3.6-4.1V4.5c0-1.9-1.3-3.3-3.3-3.3h-3c-1.9,0-3.3,1.3-3.3,3.3v1.3
	C4.4,6.2,3.9,8,3.7,9.9l-0.9,7.5c-0.2,1.7,0.1,3,0.9,3.9c0.8,0.9,2.1,1.4,3.8,1.4h9c1.7,0,3-0.5,3.8-1.4
	C21.1,20.5,21.4,19.2,21.2,17.4z M10.5,2.8h3c1.1,0,1.8,0.7,1.8,1.8v1.3H8.8V4.5C8.8,3.4,9.4,2.8,10.5,2.8z M19.2,20.4
	c-0.5,0.6-1.4,0.9-2.7,0.9h-9c-1.3,0-2.2-0.3-2.7-0.9s-0.7-1.5-0.5-2.8l0.9-7.5c0.2-1.5,0.3-2.5,2.1-2.8V8c0,0.4,0.3,0.8,0.8,0.8
	S8.8,8.4,8.8,8V7.3h6.5V8c0,0.4,0.3,0.8,0.8,0.8s0.8-0.3,0.8-0.8V7.3c1.8,0.3,1.9,1.3,2.1,2.8l0.7,6.2H8c-0.4,0-0.8,0.3-0.8,0.8
	c0,0.4,0.3,0.8,0.8,0.8h11.7C19.8,19,19.7,19.8,19.2,20.4z"></path>
  </symbol>
  <symbol version="1.1" id="skype" xmlns="http://www.w3.org/2000/svg" xmlns:xlink="http://www.w3.org/1999/xlink" x="0px" y="0px" xml:space="preserve" viewBox="0 0 30 30">
    <path d="M18.9,14.8c-0.5-0.3-1-0.6-1.6-0.7c-0.3-0.1-0.7-0.2-1.1-0.3c-0.3-0.1-0.8-0.2-1.3-0.3c-0.6-0.1-1.2-0.3-1.8-0.5
	c-0.3-0.1-0.6-0.3-0.8-0.6c-0.1-0.2-0.2-0.5-0.2-0.7c0-0.3,0.1-0.5,0.3-0.7c0.2-0.3,0.5-0.5,0.9-0.6c0.6-0.2,1.2-0.3,1.8-0.3
	c0.5,0,0.9,0.1,1.4,0.2c0.3,0.1,0.6,0.2,0.8,0.4c0.2,0.1,0.3,0.3,0.4,0.4c0.1,0.1,0.2,0.3,0.3,0.4c0.1,0.1,0.3,0.2,0.4,0.2
	c0.2,0,0.3,0.1,0.5,0c0.2,0,0.3-0.1,0.5-0.1c0.1-0.1,0.3-0.2,0.4-0.3c0.1-0.1,0.2-0.3,0.2-0.4c0-0.2,0.1-0.3,0-0.5
	c0-0.2-0.1-0.3-0.1-0.5c-0.3-0.5-0.6-0.9-1-1.2c-0.5-0.4-1.1-0.7-1.6-0.8c-0.7-0.2-1.4-0.3-2.1-0.3c-0.9,0-1.8,0.1-2.7,0.4
	c-0.8,0.3-1.5,0.8-2,1.4c-0.5,0.6-0.8,1.4-0.8,2.2c0,0.8,0.2,1.6,0.7,2.2c0.5,0.6,1.1,1.1,1.8,1.3c0.5,0.2,1.1,0.4,1.6,0.5
	c0,0,0,0,0,0c0.2,0.1,0.6,0.2,1.2,0.3c0.2,0,0.4,0.1,0.6,0.1c0,0,0,0,0.1,0l0,0c0.3,0.1,0.6,0.2,0.9,0.2c0.3,0.1,0.7,0.2,1,0.4
	c0.2,0.1,0.3,0.3,0.5,0.5c0.1,0.2,0.2,0.5,0.1,0.7c0,0.3-0.1,0.6-0.3,0.9c-0.3,0.3-0.6,0.6-1,0.7C16.3,19.9,15.6,20,15,20
	c-0.7,0-1.5-0.1-2.1-0.4c-0.3-0.2-0.6-0.4-0.8-0.7c-0.1-0.2-0.2-0.4-0.3-0.6c0-0.3-0.1-0.6-0.4-0.9c-0.2-0.2-0.6-0.4-0.9-0.4
	c-0.3,0-0.6,0.1-0.9,0.4c-0.2,0.2-0.4,0.6-0.4,0.9c0,0.7,0.3,1.5,0.7,2c0.4,0.6,1,1.1,1.7,1.5c1,0.5,2.1,0.7,3.3,0.7
	c1,0,1.9-0.1,2.8-0.5c0.8-0.3,1.6-0.9,2.1-1.6c0.5-0.7,0.8-1.5,0.7-2.4c0-0.7-0.1-1.3-0.5-1.9C19.9,15.6,19.4,15.1,18.9,14.8
	L18.9,14.8z M28,17.1c0.3-2.1,0.2-4.2-0.5-6.1c-0.6-2-1.7-3.8-3.2-5.3C22.8,4.2,21,3.1,19,2.5c-2-0.6-4.1-0.8-6.1-0.5
	c-1.5-0.7-3.2-1-4.9-0.7S4.8,2.4,3.6,3.6S1.6,6.3,1.4,8s0,3.4,0.7,4.9C1.7,14.9,1.9,17,2.5,19c0.6,2,1.7,3.8,3.2,5.3
	c1.5,1.5,3.3,2.6,5.3,3.2c2,0.6,4.1,0.8,6.1,0.5c1.5,0.7,3.2,1,4.9,0.7c1.7-0.3,3.2-1.1,4.4-2.3c1.2-1.2,2-2.7,2.3-4.4
	C28.9,20.3,28.7,18.6,28,17.1L28,17.1z M20.6,26.3c-0.9,0-1.9-0.2-2.7-0.7c-0.3-0.1-0.6-0.2-0.8-0.1c-1.5,0.3-3.1,0.3-4.7-0.1
	c-1.5-0.4-2.9-1.1-4.2-2.1c-1.2-1-2.2-2.3-2.9-3.7c-0.7-1.4-1-3-1-4.5c0-0.7,0.1-1.4,0.2-2.1c0.1-0.3,0-0.6-0.1-0.8
	C3.9,11,3.6,9.8,3.8,8.6s0.7-2.3,1.6-3.2c0.9-0.9,2-1.4,3.2-1.6c1.2-0.2,2.4,0.1,3.5,0.6c0.3,0.1,0.6,0.2,0.8,0.1
	c1.5-0.3,3.1-0.3,4.7,0.1c1.5,0.4,2.9,1.1,4.2,2.1s2.2,2.3,2.9,3.7c0.7,1.4,1,3,1,4.5c0,0.7-0.1,1.4-0.2,2.1c-0.1,0.3,0,0.6,0.1,0.8
	c0.5,0.9,0.7,1.8,0.7,2.8c0,1-0.3,1.9-0.8,2.8c-0.5,0.8-1.2,1.5-2.1,2C22.6,26,21.6,26.3,20.6,26.3z"></path>
  </symbol>
  <symbol version="1.1" id="sms" xmlns="http://www.w3.org/2000/svg" xmlns:xlink="http://www.w3.org/1999/xlink" x="0px" y="0px" xml:space="preserve" viewBox="0 0 24 24">
    <g>
      <path d="M17,2.8H7c-3.7,0-5.8,2.1-5.8,5.8v7c0,3.7,2.1,5.8,5.8,5.8h10c3.7,0,5.8-2.1,5.8-5.8v-7
		C22.8,4.8,20.7,2.8,17,2.8z M21.3,15.5c0,2.9-1.4,4.3-4.3,4.3H7c-2.9,0-4.3-1.4-4.3-4.3v-7c0-2.9,1.4-4.3,4.3-4.3h10
		c2.9,0,4.3,1.4,4.3,4.3V15.5z"></path>
      <path d="M16.5,8.4l-3.1,2.5c-0.8,0.6-2.1,0.6-2.8,0L7.5,8.4C7.1,8.2,6.7,8.2,6.4,8.5C6.2,8.9,6.2,9.3,6.5,9.6l3.1,2.5
		c0.7,0.5,1.5,0.8,2.3,0.8s1.7-0.3,2.3-0.8l3.1-2.5c0.3-0.3,0.4-0.7,0.1-1.1C17.3,8.2,16.9,8.2,16.5,8.4z"></path>
    </g>
  </symbol>
  <symbol version="1.1" id="sms-edit" xmlns="http://www.w3.org/2000/svg" xmlns:xlink="http://www.w3.org/1999/xlink" x="0px" y="0px" xml:space="preserve" viewBox="0 0 24 24">
    <g>
      <path d="M17,2.8H7c-3.7,0-5.8,2.1-5.8,5.8v7c0,3.7,2.1,5.8,5.8,5.8h5c0.4,0,0.8-0.3,0.8-0.8s-0.3-0.8-0.8-0.8H7
		c-2.9,0-4.3-1.4-4.3-4.3v-7c0-2.9,1.4-4.3,4.3-4.3h10c2.9,0,4.3,1.4,4.3,4.3v3c0,0.4,0.3,0.8,0.8,0.8s0.8-0.3,0.8-0.8v-3
		C22.8,4.8,20.7,2.8,17,2.8z"></path>
      <path d="M17.6,8.5c-0.3-0.3-0.7-0.4-1-0.1l-3.1,2.5c-0.8,0.6-2,0.6-2.8,0L7.5,8.4c-0.3-0.3-0.8-0.2-1,0.1
		s-0.2,0.8,0.1,1l3.1,2.5c0.7,0.5,1.5,0.8,2.3,0.8c0.8,0,1.7-0.3,2.3-0.8l3.1-2.5C17.8,9.3,17.8,8.8,17.6,8.5z"></path>
      <path d="M20.1,13.5c-0.5,0-1,0.3-1.5,0.8l-3.5,3.5c-0.3,0.3-0.5,0.7-0.5,1l-0.2,1.3c-0.1,0.5,0.1,0.9,0.4,1.2
		c0.3,0.3,0.6,0.4,1,0.4c0.1,0,0.1,0,0.2,0l1.4-0.2c0.3-0.1,0.8-0.3,1-0.5l3.5-3.5c0.5-0.5,0.7-1,0.8-1.5c0.1-0.6-0.2-1.2-0.8-1.8
		S20.8,13.4,20.1,13.5z M20.3,15C20.3,15,20.3,15,20.3,15c0.2,0,0.5,0.2,0.6,0.4c0.2,0.2,0.4,0.4,0.3,0.6c0,0.1-0.1,0.3-0.3,0.5
		l-0.2,0.2c-0.5-0.2-0.9-0.6-1.2-1.2l0.2-0.2C19.9,15.1,20.1,15,20.3,15z M17.4,20c0,0-0.1,0.1-0.2,0.1l-1.3,0.2l0.2-1.3
		c0,0,0-0.1,0.1-0.2l2.3-2.3c0.3,0.5,0.7,0.9,1.2,1.2L17.4,20z"></path>
    </g>
  </symbol>
  <symbol version="1.1" id="strongbox" xmlns="http://www.w3.org/2000/svg" xmlns:xlink="http://www.w3.org/1999/xlink" x="0px" y="0px" xml:space="preserve" viewBox="0 0 24 24">
    <path d="M15,1.3H9C3.6,1.3,1.3,3.6,1.3,9v6c0,5.4,2.3,7.8,7.8,7.8h6c5.4,0,7.8-2.3,7.8-7.8V9C22.8,3.6,20.4,1.3,15,1.3z
	 M9,2.8h6c4.6,0,6.3,1.6,6.3,6.3v1.2h-6.2c0-0.1,0-0.3-0.1-0.4c-0.3-1-1.1-1.9-2.2-2.2c-1-0.3-2-0.1-2.7,0.5C9.4,8.6,9,9.3,8.9,10.2
	H2.8V9C2.8,4.4,4.4,2.8,9,2.8z M11.2,11.9c-0.4-0.3-0.7-0.7-0.8-1.2c0-0.1,0-0.1,0-0.2c0-0.5,0.2-1,0.6-1.3c0.3-0.2,0.6-0.3,1-0.3
	c0.1,0,0.3,0,0.5,0.1c0.5,0.1,1,0.6,1.1,1.1c0.1,0.2,0.1,0.4,0,0.6v0c-0.1,0.5-0.3,0.9-0.8,1.1l-0.3,0.2v2.4c0,0.3-0.2,0.5-0.5,0.5
	c-0.3,0-0.5-0.2-0.5-0.5v-2.4L11.2,11.9z M15,21.3H9c-4.6,0-6.3-1.6-6.3-6.3v-3.3h6.3c0.2,0.5,0.5,1,0.9,1.3v1.6c0,1.1,0.9,2,2,2
	c1.1,0,2-0.9,2-2V13c0.4-0.3,0.7-0.8,0.9-1.3h6.3V15C21.3,19.6,19.6,21.3,15,21.3z"></path>
  </symbol>
  <symbol version="1.1" id="telegram" xmlns="http://www.w3.org/2000/svg" xmlns:xlink="http://www.w3.org/1999/xlink" x="0px" y="0px" xml:space="preserve" viewBox="0 0 30 30">
    <path d="M27.8,3c-0.4-0.3-0.8-0.5-1.2-0.6c-0.5-0.1-0.9,0-1.4,0.2l-22.4,9c-0.5,0.2-0.9,0.5-1.2,1c-0.3,0.4-0.4,0.9-0.4,1.5
	c0,0.5,0.2,1,0.5,1.4C2,16,2.5,16.3,3,16.4L7.5,18l2.5,8.4c0,0.1,0.1,0.2,0.1,0.3c0,0,0,0,0,0c0.1,0.1,0.2,0.2,0.3,0.3
	c0,0,0.1,0,0.1,0.1c0.1,0.1,0.3,0.1,0.4,0.2l0,0l0,0c0.1,0,0.2,0,0.3,0c0,0,0,0,0,0c0.1,0,0.3,0,0.4-0.1c0,0,0.1,0,0.1,0
	c0.1,0,0.2-0.1,0.3-0.1c0.1-0.1,0.1-0.1,0.2-0.2l3.4-3.7l5,3.9c0.4,0.3,1,0.5,1.6,0.5c0.6,0,1.2-0.2,1.6-0.6
	c0.5-0.4,0.8-0.9,0.9-1.5l4.1-20c0.1-0.5,0.1-0.9-0.1-1.4C28.5,3.7,28.2,3.3,27.8,3L27.8,3z M11.7,18.4c-0.2,0.2-0.3,0.4-0.3,0.6
	L11,20.9l-1-3.2l5.1-2.6L11.7,18.4z M22.1,25l-6-4.6c-0.2-0.2-0.6-0.3-0.9-0.3c-0.3,0-0.6,0.2-0.8,0.4l-1.1,1.2l0.4-1.9l8.9-8.9
	c0.2-0.2,0.3-0.5,0.4-0.8c0-0.3-0.1-0.6-0.2-0.8C22.5,9.2,22.3,9,22,9c-0.3-0.1-0.6,0-0.9,0.1L8.4,15.7L3.8,14l22.5-9L22.1,25z"></path>
  </symbol>
  <symbol version="1.1" id="tree" xmlns="http://www.w3.org/2000/svg" xmlns:xlink="http://www.w3.org/1999/xlink" x="0px" y="0px" xml:space="preserve" viewBox="0 0 24 24">
    <path d="M19.4,15.2l-3.2-4.4c0.8,0,1.5-0.3,1.8-0.9c0.3-0.6,0.2-1.3-0.3-2L13.5,2c-0.4-0.5-0.9-0.8-1.5-0.9c0,0,0,0,0,0
	c-0.6,0-1.1,0.3-1.5,0.8L6.3,7.9C5.8,8.6,5.7,9.3,6,9.9c0.3,0.6,0.9,0.9,1.8,0.9l-3.1,4.4c-0.8,1.2-0.6,2-0.4,2.4
	c0.2,0.4,0.8,1.1,2.2,1.1h4.8V22c0,0.4,0.3,0.8,0.8,0.8s0.8-0.3,0.8-0.8v-3.3h4.8c1.4,0,2-0.7,2.2-1.1C20,17.2,20.2,16.4,19.4,15.2z
	 M7.5,8.7l4.2-5.8c0.1-0.1,0.2-0.2,0.3-0.2c0,0,0,0,0,0c0.1,0,0.2,0.1,0.3,0.2l4.2,5.8c0.2,0.3,0.2,0.4,0.2,0.4c0,0-0.2,0.1-0.5,0.1
	H7.8c-0.3,0-0.5-0.1-0.5-0.1C7.3,9.2,7.3,9,7.5,8.7z M18.5,17c-0.1,0.1-0.3,0.3-0.9,0.3H6.4c-0.5,0-0.8-0.1-0.9-0.3
	c-0.1-0.1,0-0.4,0.3-0.9l3.8-5.3h4.8l3.8,5.3C18.5,16.5,18.5,16.8,18.5,17z"></path>
  </symbol>
  <symbol version="1.1" id="user" xmlns="http://www.w3.org/2000/svg" xmlns:xlink="http://www.w3.org/1999/xlink" x="0px" y="0px" xml:space="preserve" viewBox="0 0 16 16">
    <g>
      <path d="M8.2,9.3C5.3,9.3,3,11.2,3,13.6C3,13.8,3.2,14,3.4,14c0.2,0,0.4-0.2,0.4-0.4c0-1.9,2-3.5,4.4-3.5c2.4,0,4.4,1.6,4.4,3.5
		c0,0.2,0.2,0.4,0.4,0.4c0.2,0,0.4-0.2,0.4-0.4C13.4,11.2,11.1,9.3,8.2,9.3z"></path>
      <path d="M8.2,8.4c1.8,0,3.2-1.4,3.2-3.2S10,2,8.2,2S5,3.4,5,5.2S6.4,8.4,8.2,8.4z M8.2,2.8c1.3,0,2.4,1.1,2.4,2.4S9.5,7.6,8.2,7.6
		S5.8,6.5,5.8,5.2S6.9,2.8,8.2,2.8z"></path>
    </g>
  </symbol>
  <symbol version="1.1" id="vk" xmlns="http://www.w3.org/2000/svg" xmlns:xlink="http://www.w3.org/1999/xlink" x="0px" y="0px" xml:space="preserve" viewBox="0 0 30 30">
    <g>
      <path d="M21.7,19.2l-2.1-2.2c-0.4-0.4-0.8-0.7-1.2-1c1.8-1.4,3.1-3.4,3.6-5.6c0-0.2,0-0.3,0-0.5c0-0.2-0.1-0.3-0.2-0.5
		c-0.1-0.1-0.2-0.3-0.3-0.4c-0.1-0.1-0.3-0.2-0.4-0.2c-0.2,0-0.3,0-0.5,0c-0.2,0-0.3,0.1-0.5,0.2s-0.3,0.2-0.4,0.3
		c-0.1,0.1-0.2,0.3-0.2,0.4c-0.2,1-0.7,2-1.3,2.9c-0.7,0.8-1.5,1.5-2.4,2V10c0-0.1,0-0.2-0.1-0.3c0-0.1,0-0.1,0-0.2
		c-0.1-0.1-0.1-0.2-0.2-0.3c0,0,0-0.1-0.1-0.1C15.4,9,15.3,9,15.1,8.9c0,0-0.1,0-0.1-0.1c-0.1,0-0.2-0.1-0.3-0.1c-0.1,0-0.1,0-0.2,0
		l-0.8,0h0c-0.3,0-0.6,0.1-0.8,0.3c-0.2,0.2-0.4,0.4-0.4,0.7c-0.1,0.3,0,0.6,0.1,0.8c0.1,0.3,0.4,0.4,0.6,0.6v6.1
		c-2-2.1-3.3-4.7-3.8-7.5c0-0.2-0.1-0.3-0.2-0.5C9.3,9.2,9.2,9.1,9,9C8.9,8.9,8.8,8.8,8.6,8.8c-0.2,0-0.3,0-0.5,0S7.8,8.9,7.7,8.9
		C7.5,9,7.4,9.1,7.3,9.3S7.1,9.6,7.1,9.7c0,0.2,0,0.3,0,0.5c0.7,4.4,3.2,8.2,6.7,10.8c0.1,0,0.1,0.1,0.2,0.1c0,0,0.1,0,0.1,0.1
		c0.1,0.1,0.3,0.1,0.4,0.1c0.2,0,0.4,0,0.5-0.1c0,0,0,0,0,0c0.1-0.1,0.2-0.1,0.3-0.2c0,0,0,0,0-0.1c0.1-0.1,0.1-0.2,0.2-0.3
		c0,0,0-0.1,0-0.1c0.1-0.1,0.1-0.3,0.1-0.4l0-2.7c0.8,0.2,1.5,0.7,2,1.3l2.1,2.2c0.1,0.1,0.2,0.2,0.4,0.3c0.1,0.1,0.3,0.1,0.5,0.1
		c0.2,0,0.3,0,0.5-0.1c0.2-0.1,0.3-0.1,0.4-0.3s0.2-0.2,0.3-0.4c0.1-0.1,0.1-0.3,0.1-0.5c0-0.2,0-0.3-0.1-0.5
		C21.9,19.4,21.9,19.3,21.7,19.2z"></path>
      <path d="M18.8,1.3h-7.7c-7.7,0-9.9,2.2-9.9,9.9v7.7c0,7.7,2.2,9.9,9.9,9.9h7.7c7.7,0,9.9-2.2,9.9-9.9v-7.7
		C28.8,3.5,26.5,1.3,18.8,1.3z M26.3,18.8c0,6.3-1.1,7.4-7.4,7.4h-7.7c-6.3,0-7.4-1.1-7.4-7.4v-7.7c0-6.3,1.1-7.4,7.4-7.4h7.7
		c6.3,0,7.4,1.1,7.4,7.4V18.8z"></path>
    </g>
  </symbol>
   <symbol version="1.1" id="whatsapp" xmlns="http://www.w3.org/2000/svg" xmlns:xlink="http://www.w3.org/1999/xlink" x="0px" y="0px" xml:space="preserve" viewBox="0 0 30 30">
    <path d="M2.5,28.4c-0.3,0-0.5-0.1-0.7-0.3c-0.2-0.2-0.3-0.6-0.2-0.9l1.6-5.9c-1-2-1.6-4.2-1.6-6.4c0-7.4,6-13.4,13.4-13.4
	c7.4,0,13.4,6,13.4,13.4s-6,13.4-13.4,13.4c-2.3,0-4.5-0.6-6.4-1.6l-5.8,1.6C2.7,28.4,2.6,28.4,2.5,28.4z M8.7,24.8
	c0.2,0,0.3,0,0.5,0.1c1.8,1,3.8,1.6,5.8,1.6c6.4,0,11.6-5.2,11.6-11.6c0-6.4-5.2-11.6-11.6-11.6C8.6,3.4,3.4,8.6,3.4,15
	c0,2,0.5,4,1.5,5.8c0.1,0.2,0.2,0.5,0.1,0.7l-1.3,4.7l4.6-1.3C8.5,24.9,8.6,24.8,8.7,24.8z"></path>
    <path d="M18.4,22.2c-0.8,0-1.6-0.2-2.4-0.5c-0.8-0.3-1.6-0.8-2.3-1.3c-0.8-0.6-1.5-1.2-2.2-1.9c-0.7-0.7-1.3-1.4-1.9-2.2
	c-0.6-0.8-1-1.6-1.3-2.3c-0.3-0.8-0.5-1.6-0.5-2.4c0-0.6,0.1-1.1,0.3-1.6c0.2-0.5,0.5-1,1-1.4c0.8-0.8,2-1.1,2.9-0.6
	c0.3,0.1,0.6,0.4,0.8,0.7l1.4,2c0.1,0.2,0.3,0.4,0.3,0.6c0.1,0.3,0.2,0.5,0.2,0.7c0,0.3-0.1,0.6-0.3,0.9c-0.1,0.2-0.3,0.4-0.5,0.6
	l-0.2,0.2c0.1,0.1,0.2,0.2,0.3,0.4c0.3,0.3,0.6,0.6,0.9,0.9c0.3,0.3,0.6,0.6,0.9,0.9c0.1,0.1,0.3,0.2,0.4,0.3l0.2-0.2
	c0.2-0.2,0.5-0.4,0.7-0.5c0.4-0.3,1-0.3,1.6-0.1c0.2,0.1,0.4,0.2,0.6,0.3l2.1,1.5c0.3,0.2,0.5,0.5,0.7,0.8c0.1,0.3,0.2,0.6,0.2,0.9
	c0,0.4-0.1,0.7-0.3,1.1c-0.2,0.3-0.4,0.6-0.6,0.9c-0.4,0.4-0.9,0.8-1.4,1S19,22.2,18.4,22.2z M11,9.7c-0.1,0-0.3,0-0.6,0.3
	c-0.2,0.2-0.4,0.5-0.5,0.7c-0.1,0.3-0.2,0.6-0.2,0.9c0,0.5,0.1,1.1,0.4,1.7c0.3,0.6,0.6,1.3,1.1,2c0.5,0.7,1,1.3,1.6,1.9
	c0.6,0.6,1.3,1.2,1.9,1.7c0.6,0.5,1.3,0.8,2,1.1c0.9,0.4,1.8,0.5,2.5,0.2c0.3-0.1,0.5-0.3,0.7-0.5c0.1-0.1,0.2-0.3,0.3-0.4
	c0-0.1,0.1-0.2,0.1-0.3c0,0,0-0.1,0-0.1l-2.1-1.5c-0.1-0.1-0.2-0.1-0.3-0.1c0,0-0.1,0.1-0.3,0.2l-0.5,0.5c-0.4,0.4-0.9,0.5-1.4,0.3
	l-0.2-0.1c-0.3-0.2-0.6-0.4-1-0.7c-0.3-0.3-0.7-0.6-1-1c-0.4-0.4-0.7-0.7-1-1c-0.3-0.4-0.6-0.7-0.7-1l-0.1-0.3
	c0-0.1-0.1-0.3-0.1-0.4c0-0.3,0.1-0.7,0.4-0.9l0.5-0.5c0.1-0.1,0.2-0.2,0.2-0.3c0-0.1-0.1-0.2-0.2-0.3l-1.5-2.1L11,9.7z"></path>
  </symbol>
   <symbol version="1.1" id="pdf" xmlns="http://www.w3.org/2000/svg" xmlns:xlink="http://www.w3.org/1999/xlink" x="0px" y="0px" xml:space="preserve" viewBox="0 0 40 40">
    <path d="M32.9,23c-0.5-0.5-1.7-0.8-3.5-0.8c-1.4,0-2.8,0.1-4.2,0.3c-0.7-0.4-1.4-0.8-2-1.4c-1.5-1.4-2.8-3.3-3.5-5.5
	c0-0.2,0.1-0.4,0.1-0.6c0,0,0.8-4.8,0.6-6.4c0-0.2-0.1-0.3-0.1-0.5L20.2,8C20,7.5,19.5,6.9,18.8,7l-0.4,0c-0.8,0-1.4,0.4-1.6,1
	c-0.5,1.9,0,4.7,1,8.4l-0.2,0.6c-0.7,1.7-1.5,3.4-2.3,4.9L15.1,22c-0.8,1.6-1.5,2.9-2.2,4l-0.7,0.4c-0.1,0-1.2,0.6-1.5,0.8
	c-2.3,1.4-3.8,2.9-4.1,4.2c-0.1,0.4,0,0.9,0.4,1.1l0.7,0.3C8,33,8.3,33,8.6,33.1c1.6,0,3.6-2.1,6.2-6.7c3.1-1,6.3-1.8,9.5-2.3
	c2.3,1.3,5.2,2.2,7,2.2c0.3,0,0.6,0,0.8-0.1c0.3-0.1,0.6-0.3,0.8-0.6c0.3-0.5,0.4-1.2,0.3-2C33.2,23.4,33.1,23.2,32.9,23L32.9,23z
	 M8.3,31.8c0.3-0.8,1.5-2.4,3.3-3.9c0.1-0.1,0.4-0.3,0.6-0.6C10.3,30.3,9.1,31.4,8.3,31.8L8.3,31.8z M18.7,7.8
	c0.5,0,0.8,1.3,0.9,2.6s-0.3,2.1-0.6,2.8c-0.3-1-0.4-2.5-0.4-3.5C18.5,9.7,18.4,7.8,18.7,7.8z M15.6,24.9c0.4-0.7,0.8-1.4,1.1-2.1
	c1-1.8,1.6-3.2,2-4.4c0.8,1.6,2,3,3.3,4.1c0.2,0.1,0.3,0.3,0.5,0.4C19.9,23.5,17.6,24.1,15.6,24.9z M32.4,24.8
	c-0.2,0.1-0.6,0.2-0.9,0.2c-1,0-2.2-0.4-3.8-1.2c0.6,0,1.2-0.1,1.8-0.1c1,0,1.3,0,2.2,0.2C32.5,24.2,32.5,24.7,32.4,24.8L32.4,24.8z
	"></path>
    <path d="M35.9,8.9c-0.9-1.2-2.1-2.6-3.4-3.9c-1.3-1.3-2.7-2.5-3.9-3.4c-2-1.5-3-1.6-3.6-1.6H5.6C3.9,0,2.5,1.4,2.5,3.1v33.8
	c0,1.7,1.4,3.1,3.1,3.1h28.8c1.7,0,3.1-1.4,3.1-3.1V12.5C37.5,11.9,37.3,11,35.9,8.9z M30.7,6.8c1.2,1.2,2.1,2.3,2.8,3.2h-6V4
	C28.4,4.7,29.5,5.6,30.7,6.8z M35,36.9c0,0.3-0.3,0.6-0.6,0.6H5.6c-0.2,0-0.3-0.1-0.4-0.2C5.1,37.2,5,37,5,36.9V3.1
	c0-0.3,0.3-0.6,0.6-0.6H25v8.8c0,0.3,0.1,0.6,0.4,0.9c0.2,0.2,0.6,0.4,0.9,0.4H35V36.9z"></path>
  </symbol>
  <symbol version="1.1" id="vk-f" xmlns="http://www.w3.org/2000/svg" xmlns:xlink="http://www.w3.org/1999/xlink" x="0px" y="0px" xml:space="preserve" viewBox="0 0 30 30">
    <g>
      <path d="M20,0H10C4.5,0,0,4.5,0,10v10c0,5.5,4.5,10,10,10h10c5.5,0,10-4.5,10-10V10C30,4.5,25.5,0,20,0z M28,20
		c0,4.4-3.6,8-8,8H10c-4.4,0-8-3.6-8-8V10c0-4.4,3.6-8,8-8h10c4.4,0,8,3.6,8,8V20z"></path>
      <path d="M21.7,13.3c1.2-1.8,1.3-2.4,1.3-2.6c0-0.1-0.2-0.2-0.5-0.2h-2.7c-0.1,0-0.1,0-0.2,0c-0.1,0.1-0.1,0.2-0.2,0.2
		c0,0.1-0.4,1.2-0.9,2.1C17.3,15,16.9,15,16.8,15c-0.1,0-0.1,0-0.2-0.1c-0.4-0.3-0.4-1-0.4-1.6c0-0.1,0-0.2,0-0.3c0-0.5,0-0.8,0-1.2
		c0-1.2,0-1.6-0.5-1.7c-0.2-0.1-0.4-0.1-1.1-0.1h-0.4c-0.6,0-1.3,0-1.6,0.2c-0.1,0.1-0.3,0.2-0.3,0.3c0.2,0,0.5,0.2,0.7,0.4
		c0.3,0.4,0.3,1.2,0.3,1.3c0,0.4,0.1,2.4-0.4,2.7c-0.1,0-0.1,0.1-0.2,0.1c-0.4,0-0.9-0.6-1.7-2.2c-0.5-0.9-0.8-1.8-0.9-2
		c-0.1-0.2-0.2-0.4-0.5-0.4H7.4c-0.3,0-0.5,0.2-0.4,0.5c0,0,1.8,4.7,3.8,7c1.6,1.9,3.5,2,3.9,2h1c0.2,0,0.5-0.2,0.5-0.6
		c0-1.2,0.4-1.7,0.7-1.8c0,0,0.1,0,0.1,0c0.4,0,0.8,0.5,1.2,1.1c0.3,0.4,0.6,0.8,0.9,1c0.4,0.3,0.7,0.3,0.9,0.3h2.3
		c0.1,0,0.5-0.1,0.6-0.4c0.1-0.1,0-0.3-0.1-0.6c0,0,0,0,0,0c-0.3-0.6-1.6-2-1.6-2c-1.2-1.2-1.2-1.3-0.1-2.9
		C21.3,13.9,21.5,13.6,21.7,13.3z"></path>
    </g>
  </symbol>
  <symbol version="1.1" id="like" xmlns="http://www.w3.org/2000/svg" xmlns:xlink="http://www.w3.org/1999/xlink" x="0px" y="0px" xml:space="preserve" viewBox="0 0 40 40">
    <g>
      <path d="M36.7,17.3l-2.3-2.6c-0.3-0.3-0.5-1-0.5-1.4v-2.8c0-2.3-1.9-4.2-4.2-4.2h-2.8c-0.4,0-1.1-0.3-1.4-0.5l-2.6-2.3
		c-1.6-1.3-4-1.3-5.5,0c0,0,0,0,0,0l-2.6,2.3c-0.3,0.3-1,0.5-1.4,0.5h-2.9C8,6.1,6.1,8,6.1,10.4v2.9c0,0.4-0.3,1.1-0.5,1.4l-2.3,2.7
		c-1.3,1.5-1.3,3.9,0,5.5l2.2,2.6c0.3,0.3,0.5,1,0.5,1.4v2.9c0,2.3,1.9,4.2,4.2,4.2h2.9c0.4,0,1.1,0.3,1.4,0.5l2.6,2.3
		c0.8,0.7,1.8,1,2.7,1c1,0,2-0.3,2.7-1l2.6-2.3c0.3-0.3,1-0.5,1.4-0.5h2.8c2.3,0,4.2-1.9,4.2-4.2v-2.8c0-0.4,0.3-1.1,0.5-1.4
		l2.3-2.6C38,21.2,38,18.8,36.7,17.3z M35.2,21.5l-2.3,2.6c-0.6,0.7-1,1.8-1,2.8v2.8c0,1.2-1,2.2-2.2,2.2h-2.8c-0.9,0-2.1,0.4-2.8,1
		l-2.6,2.3c-0.8,0.7-2.1,0.7-2.9,0l-2.6-2.3c-0.7-0.6-1.8-1-2.8-1h-2.9c-1.2,0-2.2-1-2.2-2.2v-2.9c0-0.9-0.4-2-1-2.7l-2.2-2.6
		c-0.7-0.8-0.7-2.1,0-2.9l2.3-2.7c0.6-0.7,1-1.9,1-2.7v-2.9c0-1.2,1-2.2,2.2-2.2h2.9c0.9,0,2.1-0.4,2.8-1l2.6-2.3
		c0.8-0.7,2.1-0.7,2.9,0l2.6,2.3c0.7,0.6,1.8,1,2.8,1h2.8c1.2,0,2.2,1,2.2,2.2v2.8c0,0.9,0.4,2.1,1,2.8l2.3,2.6
		C35.9,19.3,35.9,20.7,35.2,21.5z"></path>
      <path d="M25.9,16.7H23l0.3-2.2c0.3-1.2-0.5-2.5-1.6-2.9c-1-0.4-2.3,0-2.9,0.9l-1.9,2.9c-0.4-0.5-1-0.8-2-0.8h-0.8
		c-2.1,0-2.6,1.4-2.6,2.5v7.6c0,1.1,0.4,2.5,2.6,2.5h0.8c1.1,0,1.7-0.4,2.1-0.9l1.3,1c0.6,0.5,1.5,0.7,2.1,0.7h3
		c1.4,0,2.8-1,3.1-2.3l1.9-5.7c0.3-0.8,0.2-1.7-0.3-2.3C27.6,17,26.8,16.7,25.9,16.7z M15.4,24.7c0,0.3-0.1,0.4,0,0.4
		c0,0-0.1,0.1-0.5,0.1h-0.8c-0.4,0-0.5-0.1-0.5-0.1h0c0,0-0.1-0.1-0.1-0.4v-7.6c0-0.3,0-0.4,0-0.4c0,0,0.1-0.1,0.5-0.1h0.8
		c0.4,0,0.5,0.1,0.5,0.1c0,0,0.1,0.1,0.1,0.4V24.7z M26.4,19.4l-1.9,5.8c-0.1,0.4-0.7,0.9-1.2,0.9h-3c-0.3,0-0.7-0.1-0.8-0.2
		l-2.2-1.7v-6l3.1-4.5c0.1-0.1,0.4-0.2,0.6-0.2c0.2,0.1,0.4,0.4,0.3,0.6L21,16.6c-0.1,0.5,0.1,1.1,0.4,1.5c0.3,0.4,0.8,0.6,1.3,0.6
		h3.1c0.2,0,0.4,0.1,0.5,0.2C26.5,19,26.5,19.2,26.4,19.4z"></path>
    </g>
  </symbol>
  <symbol version="1.1" id="driving" xmlns="http://www.w3.org/2000/svg" xmlns:xlink="http://www.w3.org/1999/xlink" x="0px" y="0px" xml:space="preserve" viewBox="0 0 40 40">
    <g>
      <path d="M30.6,12.8l-0.5-2.2h0.7c0.6,0,1-0.4,1-1s-0.4-1-1-1h-1.2l-0.4-2.1c-0.4-2.1-1.4-4.1-5-4.1h-8.5c-3.7,0-4.6,2.1-5,4.1
		l-0.4,2.1H9.1c-0.6,0-1,0.4-1,1s0.4,1,1,1h0.7l-0.5,2.2C8,13.6,7.7,15,7.6,16.4l-0.7,7.4c-0.1,0.9,0.2,1.9,0.9,2.6
		c0.7,0.7,1.6,1.1,2.6,1.1h2.3c2,0,2.4-1.2,2.7-1.9l0.3-0.7c0.3-0.8,0.3-1,1.4-1h6.2c1,0,1,0.1,1.4,1l0.2,0.7
		c0.3,0.8,0.6,1.9,2.7,1.9h2.3c1,0,1.9-0.4,2.6-1.1c0.6-0.7,1-1.6,0.9-2.6l-0.7-7.4C32.3,15,32,13.6,30.6,12.8z M11.6,12.2l1.1-5.3
		c0.3-1.6,0.7-2.6,3.1-2.6h8.5c2.4,0,2.7,1,3.1,2.6l1.1,5.3h-0.3c-0.2,0-0.3,0-0.5,0H12.3c-0.2,0-0.3,0-0.5,0H11.6z M31.1,24
		c0,0.4-0.1,0.8-0.4,1.1c-0.3,0.3-0.7,0.5-1.1,0.5h-2.3c-0.6,0-0.6,0-0.8-0.6l-0.3-0.7c-0.4-1.3-1-2.3-3.2-2.3h-6.2
		c-2.5,0-2.9,1.4-3.2,2.3l-0.3,0.7c-0.2,0.6-0.2,0.6-0.8,0.6h-2.3c-0.4,0-0.8-0.2-1.1-0.5C9,24.7,8.9,24.4,8.9,24l0.7-7.4
		c0.1-1.4,0.2-2.3,2.4-2.4H28c2.1,0.1,2.2,1,2.4,2.4L31.1,24C31.1,24,31.1,24,31.1,24z"></path>
      <path d="M16.4,17h-3.6c-0.6,0-1,0.4-1,1s0.4,1,1,1h3.6c0.6,0,1-0.4,1-1S16.9,17,16.4,17z"></path>
      <path d="M27.2,17h-3.6c-0.6,0-1,0.4-1,1s0.4,1,1,1h3.6c0.6,0,1-0.4,1-1S27.8,17,27.2,17z"></path>
      <path d="M20,27.3c-0.6,0-1,0.4-1,1V30c0,0.6,0.4,1,1,1s1-0.4,1-1v-1.7C21,27.8,20.6,27.3,20,27.3z"></path>
      <path d="M20,34c-0.6,0-1,0.4-1,1v1.7c0,0.6,0.4,1,1,1s1-0.4,1-1V35C21,34.4,20.6,34,20,34z"></path>
      <path d="M5.2,29c-0.5-0.1-1.1,0.2-1.2,0.7l-1.7,6.7c-0.1,0.5,0.2,1.1,0.7,1.2c0.1,0,0.2,0,0.2,0c0.4,0,0.9-0.3,1-0.8L6,30.2
		C6.1,29.7,5.8,29.2,5.2,29z"></path>
      <path d="M37.6,36.4L36,29.8c-0.1-0.5-0.7-0.9-1.2-0.7c-0.5,0.1-0.9,0.7-0.7,1.2l1.7,6.7c0.1,0.5,0.5,0.8,1,0.8c0.1,0,0.2,0,0.2,0
		C37.4,37.5,37.8,37,37.6,36.4z"></path>
    </g>
  </symbol>
  <symbol version="1.1" id="drive-f" xmlns="http://www.w3.org/2000/svg" xmlns:xlink="http://www.w3.org/1999/xlink" x="0px" y="0px" xml:space="preserve" viewBox="0 0 30 30">
    <g>
      <path d="M20,0H10C4.5,0,0,4.5,0,10v10c0,5.5,4.5,10,10,10h10c5.5,0,10-4.5,10-10V10C30,4.5,25.5,0,20,0z M28,20
		c0,4.4-3.6,8-8,8H10c-4.4,0-8-3.6-8-8V10c0-4.4,3.6-8,8-8h10c4.4,0,8,3.6,8,8V20z"></path>
      <path d="M15.3,7c-1.3,0-3,0-4.3,0v15.8c1.3,0.2,3,0.2,4.3,0.2c5.2-0.2,4.7-3.9,4.7-8C20,10.6,20.5,7,15.3,7z
		 M16.8,18.9c-0.4,1.2-1.1,1.4-2.6,1.2V9.7c1.5,0,2.4,0,2.6,1.4C17,11.8,17,18.2,16.8,18.9z"></path>
    </g>
  </symbol>
  <symbol version="1.1" id="play-f" xmlns="http://www.w3.org/2000/svg" xmlns:xlink="http://www.w3.org/1999/xlink" x="0px" y="0px" xml:space="preserve" viewBox="0 0 30 30">
    <g>
      <path d="M20,0H10C4.5,0,0,4.5,0,10v10c0,5.5,4.5,10,10,10h10c5.5,0,10-4.5,10-10V10C30,4.5,25.5,0,20,0z M28,20
		c0,4.4-3.6,8-8,8H10c-4.4,0-8-3.6-8-8V10c0-4.4,3.6-8,8-8h10c4.4,0,8,3.6,8,8V20z"></path>
      <path d="M20.4,14l-7.7-4.8C12.6,9.1,12.4,9,12.2,9c-0.2,0-0.4,0.1-0.6,0.2c-0.2,0.1-0.3,0.3-0.4,0.4
		C11.1,9.8,11,10,11,10.2v9.6c0,0.2,0.1,0.4,0.2,0.6c0.1,0.2,0.3,0.3,0.4,0.4c0.2,0.1,0.4,0.2,0.6,0.2c0.2,0,0.4-0.1,0.6-0.2
		l7.7-4.8c0.2-0.1,0.3-0.3,0.4-0.4c0.1-0.2,0.1-0.4,0.1-0.6s-0.1-0.4-0.1-0.6C20.8,14.2,20.6,14.1,20.4,14z M13.3,17.7v-5.4l4.3,2.7
		L13.3,17.7z"></path>
    </g>
  </symbol>
  <symbol fill="none" xmlns="http://www.w3.org/2000/svg" viewBox="0 0 24 24" id="arrow-bottom">
    <path d="M11.999 18.75C10.579 18.75 9.27903 17.85 8.33903 16.22L5.66903 11.59C4.71903 9.96 4.59903 8.39 5.30903 7.16C6.01903 5.93 7.44903 5.25 9.32903 5.25H14.669C16.549 5.25 17.979 5.93 18.689 7.16C19.399 8.39 19.269 9.97 18.329 11.6L15.659 16.23C14.719 17.85 13.419 18.75 11.999 18.75ZM9.32903 6.75C7.99903 6.75 7.03903 7.16 6.60903 7.91C6.16903 8.66 6.29903 9.7 6.95903 10.84L9.62903 15.47C10.289 16.62 11.129 17.25 11.989 17.25C12.849 17.25 13.689 16.62 14.349 15.47L17.019 10.84C17.679 9.69 17.809 8.65 17.379 7.9C16.949 7.15 15.979 6.74 14.659 6.74H9.32903V6.75Z" fill="#292D32"></path>
  </symbol>
  <symbol xmlns="http://www.w3.org/2000/svg" viewBox="0 0 16 16" id="arrow-down">
    <path d="M8.00001 11.1999C7.53335 11.1999 7.06668 11.0199 6.71335 10.6666L2.36668 6.31993C2.17335 6.12659 2.17335 5.8066 2.36668 5.61326C2.56001 5.41993 2.88001 5.41993 3.07335 5.61326L7.42001 9.95993C7.74001 10.2799 8.26001 10.2799 8.58001 9.95993L12.9267 5.61326C13.12 5.41993 13.44 5.41993 13.6333 5.61326C13.8267 5.8066 13.8267 6.12659 13.6333 6.31993L9.28668 10.6666C8.93335 11.0199 8.46668 11.1999 8.00001 11.1999Z" ></path>
  </symbol>
  <symbol xmlns="http://www.w3.org/2000/svg" viewBox="0 0 24 24" id="arrow">
    <path fill-rule="evenodd" clip-rule="evenodd" d="M8.37983 3.54975C8.67272 3.25685 9.14759 3.25685 9.44049 3.54975L15.9605 10.0697C17.0234 11.1326 17.0234 12.8675 15.9605 13.9304L9.44049 20.4504C9.14759 20.7433 8.67272 20.7433 8.37983 20.4504C8.08693 20.1575 8.08693 19.6826 8.37983 19.3897L14.8998 12.8697C15.3769 12.3926 15.3769 11.6075 14.8998 11.1304L8.37983 4.61041C8.08693 4.31751 8.08693 3.84264 8.37983 3.54975Z"></path>
  </symbol>
  <symbol version="1.1" id="brifcase" xmlns="http://www.w3.org/2000/svg" xmlns:xlink="http://www.w3.org/1999/xlink" x="0px" y="0px" xml:space="preserve" viewBox="0 0 24 24">
    <path d="M21.6,6.8c-0.9-1.1-2.4-1.6-4.6-1.6h-0.2V5.2c0-0.4,0-0.9-0.1-1.3c-0.1-0.4-0.2-0.9-0.5-1.3
	c-0.6-0.9-1.7-1.3-3.4-1.3h-1.6c-1.7,0-2.8,0.4-3.4,1.3C7.5,2.9,7.4,3.4,7.3,3.9C7.2,4.3,7.3,4.8,7.3,5.2v0.1H7
	c-2.2,0-3.7,0.5-4.6,1.6c-0.9,1-1,2.4-0.8,3.7l0.7,8l0,0c0.1,1,0.4,2.2,1.3,3c0.9,0.8,2.3,1.2,4.4,1.2h8c2.1,0,3.5-0.4,4.4-1.2
	c0.9-0.8,1.2-2,1.3-3l0.7-7.4c0,0,0,0,0,0l0.1-0.6C22.6,9.2,22.5,7.9,21.6,6.8z M8.8,5.2c0-0.5,0-0.8,0-1.1c0-0.3,0.1-0.5,0.2-0.7
	c0.2-0.3,0.7-0.6,2.2-0.6h1.6c1.5,0,2,0.3,2.2,0.6c0.1,0.2,0.2,0.4,0.2,0.7c0,0.3,0,0.7,0,1.1v0L8.8,5.2L8.8,5.2z M3.5,7.8
	C4,7.2,5,6.8,7,6.8h10c2,0,3,0.5,3.5,1c0.5,0.6,0.6,1.4,0.5,2.6l0,0.2c-1.9,1.3-4,2.2-6.2,2.6V13c0,0,0,0,0,0c0-0.2,0-0.4,0-0.6
	c0-0.2-0.1-0.5-0.3-0.7c-0.2-0.2-0.6-0.3-0.7-0.3c-0.2,0-0.4,0-0.6,0c0,0,0,0,0,0h-2c0,0,0,0,0,0c-0.2,0-0.4,0-0.6,0
	c-0.2,0-0.5,0.1-0.7,0.3c-0.2,0.2-0.3,0.6-0.3,0.7c0,0.2,0,0.4,0,0.6c0,0,0,0,0,0v0.2C7.1,12.8,5,12,3.1,10.7l0-0.3l0,0
	C2.9,9.2,3,8.3,3.5,7.8z M13.3,13v1c0,0.3,0,0.5,0,0.7c0,0.2-0.1,0.3-0.1,0.3c0,0-0.2,0.3-1.1,0.3c-0.9,0-1.1-0.2-1.1-0.3
	c0,0-0.1-0.1-0.1-0.3c0-0.2,0-0.4,0-0.7v-1c0-0.1,0-0.2,0-0.2c0.1,0,0.2,0,0.2,0h2c0.1,0,0.2,0,0.2,0C13.3,12.8,13.3,12.9,13.3,13z
	 M20.2,18.4c-0.1,0.9-0.3,1.6-0.8,2c-0.5,0.5-1.5,0.9-3.4,0.9H8c-1.9,0-2.9-0.4-3.4-0.9c-0.5-0.5-0.7-1.1-0.8-2l-0.5-5.8
	c1.9,1.1,3.9,1.8,6,2.1c0,0.1,0,0.1,0,0.2c0,0.3,0.1,0.6,0.4,1c0.5,0.7,1.3,0.9,2.4,0.9c1.1,0,1.9-0.2,2.4-0.9
	c0.2-0.3,0.3-0.7,0.3-1c0-0.1,0-0.1,0-0.2c2.1-0.3,4.1-1.1,6-2.2L20.2,18.4z"></path>
  </symbol>
  <symbol version="1.1" id="brifcase-solid" xmlns="http://www.w3.org/2000/svg" xmlns:xlink="http://www.w3.org/1999/xlink" x="0px" y="0px" xml:space="preserve" viewBox="0 0 20 20">
    <path d="M17.6,5.8C16.9,5,15.7,4.6,14,4.6h-0.2v0c0-1.4,0-3.1-3.1-3.1H9.4c-3.1,0-3.1,1.7-3.1,3.1v0H6C4.3,4.7,3.1,5,2.4,5.8
	C1.6,6.7,1.6,8,1.7,8.8l0,0.1l0.1,0.6c0,0.1,0.1,0.3,0.2,0.4c0.2,0.1,0.5,0.3,0.7,0.4c0.1,0.1,0.2,0.1,0.4,0.2
	c1.4,0.8,3,1.3,4.6,1.6c0.1,0.8,0.4,1.7,2.2,1.7c1.8,0,2.2-0.9,2.2-1.7c1.7-0.3,3.3-0.9,4.8-1.7c0,0,0.1-0.1,0.1-0.1
	c0.3-0.2,0.7-0.4,1-0.6c0.1-0.1,0.2-0.2,0.2-0.3l0-0.1l0-0.4c0-0.1,0-0.1,0-0.1C18.4,7.8,18.4,6.7,17.6,5.8z M10.9,11.5
	c0,0.9,0,1-1,1s-1-0.2-1-1v-1h2.1V11.5z M7.4,4.6L7.4,4.6c0-1.4,0-2,1.9-2h1.3c1.9,0,1.9,0.5,1.9,1.9v0L7.4,4.6L7.4,4.6z"></path>
    <path d="M17.3,11.5c0.4-0.2,0.8,0.1,0.7,0.5l-0.3,3.1c-0.2,1.7-0.9,3.4-4.5,3.4H6.8c-3.7,0-4.3-1.7-4.5-3.4l-0.3-3
	c0-0.4,0.4-0.7,0.7-0.5c1,0.4,2.6,1.1,3.6,1.4c0.2,0,0.3,0.2,0.4,0.3C7.2,14.5,8.3,15,9.9,15c1.5,0,2.7-0.6,3.2-1.6
	c0.1-0.2,0.2-0.3,0.4-0.3C14.5,12.8,16.3,12,17.3,11.5z"></path>
  </symbol>
  <symbol version="1.1" id="burger" xmlns="http://www.w3.org/2000/svg" xmlns:xlink="http://www.w3.org/1999/xlink" x="0px" y="0px" xml:space="preserve" viewBox="0 0 20 20">
    <g>
      <path d="M16,6c0-0.6-0.4-1-1-1H1C0.4,5,0,5.4,0,6s0.4,1,1,1h14C15.6,7,16,6.6,16,6z"></path>
      <path d="M18,10c0-0.6-0.4-1-1-1H3c-0.6,0-1,0.4-1,1s0.4,1,1,1h14C17.6,11,18,10.6,18,10z"></path>
      <path d="M19,13H5c-0.6,0-1,0.4-1,1s0.4,1,1,1h14c0.6,0,1-0.4,1-1S19.6,13,19,13z"></path>
    </g>
  </symbol>
  <symbol version="1.1" id="call" xmlns="http://www.w3.org/2000/svg" xmlns:xlink="http://www.w3.org/1999/xlink" x="0px" y="0px" xml:space="preserve" viewBox="0 0 20 20">
    <g>
      <path d="M14.5,19.1c-1,0-2-0.2-3-0.7c-1-0.4-2-1-3-1.7c-1-0.7-1.9-1.5-2.8-2.4c-0.9-0.9-1.7-1.8-2.4-2.8
		c-0.7-1-1.3-2-1.7-3c-0.4-1-0.7-2.1-0.7-3c0-0.7,0.1-1.3,0.4-1.9c0.2-0.6,0.6-1.2,1.1-1.7c0.7-0.7,1.4-1,2.2-1c0.3,0,0.7,0.1,1,0.2
		C6,1.3,6.3,1.5,6.5,1.9l1.9,2.7c0.2,0.3,0.3,0.5,0.4,0.7C9,5.6,9,5.8,9,6.1c0,0.3-0.1,0.7-0.3,1C8.6,7.3,8.4,7.6,8.2,7.8L7.7,8.3
		C7.8,8.5,8,8.8,8.3,9.2c0.4,0.4,0.7,0.8,1.2,1.3c0.4,0.4,0.8,0.8,1.3,1.2c0.4,0.4,0.7,0.5,0.9,0.6l0.5-0.5c0.3-0.3,0.5-0.5,0.8-0.6
		c0.5-0.3,1.1-0.3,1.7-0.1c0.2,0.1,0.5,0.2,0.7,0.4l2.8,2c0.3,0.2,0.6,0.5,0.7,0.8c0.1,0.3,0.2,0.6,0.2,1c0,0.4-0.1,0.8-0.3,1.2
		c-0.2,0.4-0.4,0.7-0.7,1c-0.5,0.5-1,0.9-1.6,1.2C15.9,19,15.2,19.1,14.5,19.1z M4.7,2.4C4.2,2.4,3.8,2.6,3.5,3
		C3.1,3.3,2.8,3.7,2.7,4.1C2.5,4.5,2.4,5,2.4,5.5C2.4,6.2,2.6,7,3,7.9c0.4,0.9,0.9,1.8,1.6,2.7c0.7,0.9,1.4,1.8,2.2,2.6
		c0.8,0.8,1.7,1.6,2.6,2.3c0.9,0.7,1.8,1.2,2.7,1.6c1.4,0.6,2.7,0.7,3.8,0.3c0.4-0.2,0.8-0.4,1.1-0.8c0.2-0.2,0.3-0.4,0.4-0.7
		c0.1-0.2,0.1-0.4,0.1-0.6c0-0.1,0-0.2-0.1-0.4c0,0-0.1-0.1-0.2-0.2l-2.8-2c-0.2-0.1-0.3-0.2-0.4-0.2c-0.1-0.1-0.2-0.1-0.4,0
		c-0.1,0.1-0.3,0.2-0.5,0.4l-0.6,0.6c-0.4,0.4-0.9,0.4-1.3,0.3L11,13.7c-0.3-0.2-0.8-0.5-1.2-0.9c-0.4-0.3-0.8-0.7-1.4-1.3
		c-0.5-0.5-0.9-0.9-1.3-1.4C6.8,9.7,6.5,9.3,6.3,9L6.2,8.7C6.1,8.5,6.1,8.4,6.1,8.3c0-0.3,0.1-0.6,0.4-0.9l0.6-0.6
		c0.2-0.2,0.3-0.3,0.4-0.4c0.1-0.1,0.1-0.2,0.1-0.2c0,0,0-0.1-0.1-0.2C7.4,5.7,7.3,5.6,7.2,5.4L5.3,2.7C5.2,2.6,5.1,2.5,5,2.5
		C4.9,2.4,4.8,2.4,4.7,2.4z M11.5,12.4C11.5,12.4,11.5,12.4,11.5,12.4L11.5,12.4z M7.5,8.5L7.5,8.5C7.5,8.5,7.5,8.5,7.5,8.5z"></path>
    </g>
  </symbol>
  <symbol version="1.1" id="car" xmlns="http://www.w3.org/2000/svg" xmlns:xlink="http://www.w3.org/1999/xlink" x="0px" y="0px" xml:space="preserve" viewBox="0 0 24 24">
    <g>
      <path d="M20.4,13.4c-0.1-0.9-0.3-1.9-1.2-2.4l-0.3-1.6h0.6c0.3,0,0.7-0.3,0.7-0.7s-0.4-0.6-0.8-0.6h-0.8l0,0l-0.3-1.5
		c-0.3-1.4-0.9-2.8-3.4-2.8H9.2c-2.5,0-3,1.3-3.4,2.8L5.4,8.2l0,0H4.6C4.2,8.2,4,8.4,4,8.8s0.3,0.7,0.6,0.7h0.6l-0.4,1.6
		c-0.9,0.5-1.1,1.5-1.2,2.4l-0.5,5c-0.1,0.7,0.2,1.2,0.6,1.7c0.4,0.5,1,0.8,1.7,0.8H7c1.3,0,1.6-0.8,1.7-1.2l0.2-0.5
		c0.2-0.6,0.3-0.8,0.9-0.8H14c0.8,0,0.8,0.1,0.9,0.8l0.2,0.5c0.2,0.5,0.4,1.2,1.7,1.2h1.8c0.7,0,1.2-0.3,1.7-0.8
		c0.4-0.5,0.7-1,0.6-1.7L20.4,13.4z M6.1,10.7L7,7c0.3-1.1,0.5-1.9,2.2-1.9h2.3v0.6h-0.7c-0.3,0-0.7,0.3-0.7,0.7S10.4,7,10.8,7h2.5
		c0.3,0,0.7-0.3,0.7-0.7c0-0.4-0.3-0.7-0.7-0.7h-0.7V5.1h2.3c1.6,0,1.9,0.8,2.2,1.8l0.8,3.7h-0.6l0,0H6.7l0,0L6.1,10.7L6.1,10.7z
		 M19.3,19.3c-0.3,0.3-0.5,0.3-0.9,0.3h-1.6c-0.4,0-0.4,0-0.6-0.4l-0.2-0.5c-0.3-0.9-0.7-1.6-2.2-1.6H9.8c-1.6,0-1.9,0.9-2.2,1.6
		l-0.2,0.5c-0.2,0.4-0.2,0.4-0.6,0.4H5.4c-0.3,0-0.6-0.2-0.9-0.3c-0.2-0.3-0.3-0.5-0.3-0.8l0.5-5c0.1-1,0.3-1.6,1.9-1.6h10.5
		c1.6,0,1.8,0.6,1.9,1.6l0.5,5C19.7,19,19.6,19.1,19.3,19.3z"></path>
      <path d="M9.5,14H7.1c-0.3,0-0.7,0.3-0.7,0.7s0.3,0.7,0.7,0.7h2.5c0.3,0,0.7-0.3,0.7-0.7S9.8,14,9.5,14z"></path>
      <path d="M16.9,14h-2.5c-0.3,0-0.7,0.3-0.7,0.7s0.3,0.7,0.7,0.7h2.5c0.3,0,0.7-0.3,0.7-0.7S17.3,14,16.9,14z"></path>
    </g>
  </symbol>
  <symbol version="1.1" id="close" xmlns="http://www.w3.org/2000/svg" xmlns:xlink="http://www.w3.org/1999/xlink" x="0px" y="0px" xml:space="preserve" viewBox="0 0 20 20">
    <path d="M16.7,15.2c0.4,0.4,0.4,1.1,0,1.5c-0.4,0.4-1.1,0.4-1.5,0L10,11.5l-5.2,5.2c-0.4,0.4-1.1,0.4-1.5,0c-0.4-0.4-0.4-1.1,0-1.5
	L8.5,10L3.3,4.8c-0.4-0.4-0.4-1.1,0-1.5c0.4-0.4,1.1-0.4,1.5,0L10,8.5l5.2-5.2c0.4-0.4,1.1-0.4,1.5,0c0.4,0.4,0.4,1.1,0,1.5L11.5,10
	L16.7,15.2z"></path>
  </symbol>
  <symbol version="1.1" id="close-l" xmlns="http://www.w3.org/2000/svg" xmlns:xlink="http://www.w3.org/1999/xlink" x="0px" y="0px" xml:space="preserve" viewBox="0 0 24 24">
    <path d="M20.7,4.7c0.4-0.4,0.4-1,0-1.4c-0.4-0.4-1-0.4-1.4,0L12,10.6L4.7,3.3c-0.4-0.4-1-0.4-1.4,0
	c-0.4,0.4-0.4,1,0,1.4l7.3,7.3l-7.3,7.3c-0.4,0.4-0.4,1,0,1.4c0.4,0.4,1,0.4,1.4,0l7.3-7.3l7.3,7.3c0.4,0.4,1,0.4,1.4,0
	c0.4-0.4,0.4-1,0-1.4L13.4,12L20.7,4.7z"></path>
  </symbol>
  <symbol version="1.1" id="location" xmlns="http://www.w3.org/2000/svg" xmlns:xlink="http://www.w3.org/1999/xlink" x="0px" y="0px" xml:space="preserve" viewBox="0 0 24 24">
    <g>
      <path d="M12,6.4c-2.1,0-3.9,1.7-3.9,3.9s1.7,3.9,3.9,3.9s3.9-1.7,3.9-3.9S14.1,6.4,12,6.4z M12,12.7
		c-1.3,0-2.4-1.1-2.4-2.4c0-1.3,1.1-2.4,2.4-2.4c1.3,0,2.4,1.1,2.4,2.4C14.4,11.6,13.3,12.7,12,12.7z"></path>
      <path d="M21.1,8.3C20,3.4,15.7,1.3,12,1.3c0,0,0,0,0,0c-3.7,0-8,2.2-9.1,7.1v0c-1.2,5.4,2,9.9,5,12.8
		c1.2,1.1,2.6,1.7,4.1,1.7c1.5,0,3-0.6,4.1-1.7C19.1,18.2,22.3,13.7,21.1,8.3z M15.1,20c-1.7,1.7-4.4,1.7-6.2,0
		c-2.7-2.6-5.6-6.6-4.6-11.3c1-4.4,4.7-5.9,7.6-5.9c0,0,0,0,0,0c2.9,0,6.7,1.6,7.6,5.9C20.7,13.4,17.8,17.4,15.1,20z"></path>
    </g>
  </symbol>
  <symbol version="1.1" id="lovely" xmlns="http://www.w3.org/2000/svg" xmlns:xlink="http://www.w3.org/1999/xlink" x="0px" y="0px" xml:space="preserve" viewBox="0 0 24 24">
    <path d="M20.6,8.9c0-0.3,0.1-0.5,0.1-0.8c0-3.2-2.6-5.7-5.7-5.7c-1.5,0-2.9,0.6-4,1.6c-1.1-1-2.5-1.6-4-1.6c-3.1,0-5.7,2.6-5.7,5.7
	c0,6.2,5.5,10.4,8.9,11.5c0.2,0.1,0.5,0.1,0.8,0.1c0.2,0,0.4,0,0.5-0.1c1.2,1,2.4,1.6,3.2,1.9c0.2,0.1,0.4,0.1,0.7,0.1
	c0.2,0,0.5,0,0.7-0.1c2.6-0.9,6.8-4.1,6.8-8.8C22.8,11.1,21.9,9.7,20.6,8.9z M2.8,8.1c0-2.3,1.9-4.2,4.2-4.2c1.3,0,2.6,0.6,3.4,1.7
	c0.1,0.2,0.4,0.3,0.6,0.3c0,0,0,0,0,0c0.2,0,0.5-0.1,0.6-0.3c0.8-1.1,2-1.7,3.4-1.7c2.3,0,4.2,1.9,4.2,4.2c0,0.1,0,0.2,0,0.2
	c-0.9-0.2-1.9,0-2.7,0.4c0,0-0.1,0-0.1,0C16.2,8.8,16,8.9,15.9,9c0,0-0.1,0-0.1,0.1c-0.2,0.1-0.3,0.2-0.5,0.4
	c-0.8-0.7-1.9-1.1-3-1.1c-2.2,0-4,1.5-4.4,3.6c-0.1,0.3-0.1,0.6-0.1,0.9c0,0.4,0,0.7,0.1,1c0,0.1,0,0.2,0,0.2c0,0.3,0.1,0.6,0.2,0.9
	c0,0,0,0,0,0c0.1,0.3,0.2,0.6,0.3,0.8c0,0.1,0.1,0.1,0.1,0.2c0.1,0.3,0.2,0.5,0.4,0.8c0,0,0,0,0,0.1c0.1,0.2,0.3,0.4,0.4,0.7
	c0,0.1,0.1,0.1,0.1,0.2c0,0,0.1,0.1,0.1,0.1C7.1,16.5,2.8,13.3,2.8,8.1z M15.5,20.1c-0.1,0-0.3,0-0.3,0c-0.7-0.2-1.9-0.9-3-1.8
	c-1.3-1.1-2.7-3-2.7-5.6c0-1.6,1.3-3,3-3c0.9,0,1.8,0.4,2.4,1.2c0.1,0.2,0.4,0.3,0.6,0.3c0,0,0,0,0,0c0.2,0,0.5-0.1,0.6-0.3
	c0.7-1,2.1-1.4,3.3-1c0.1,0,0.2,0.1,0.3,0.1c1.1,0.5,1.8,1.6,1.8,2.7C21.3,17.2,17,19.6,15.5,20.1z"></path>
  </symbol>
  <symbol version="1.1" id="messages-3" xmlns="http://www.w3.org/2000/svg" xmlns:xlink="http://www.w3.org/1999/xlink" x="0px" y="0px" xml:space="preserve" viewBox="0 0 24 24">
    <path d="M17.8,1.3H9.3c-2.9,0-5,2.1-5,5v2.1c-1.8,0.5-3,2-3,4v4.1c0,1.2,0.4,2.2,1.2,3c0.6,0.6,1.4,1,2.2,1.1v0.8
	c0,0.5,0.3,1,0.8,1.3c0.2,0.1,0.4,0.2,0.7,0.2c0.3,0,0.6-0.1,0.8-0.2l2.8-1.9h2.5c1.6,0,2.9-0.8,3.6-2l0.2,0.1
	c0.3,0.2,0.6,0.3,0.9,0.3c0.3,0,0.5-0.1,0.7-0.2c0.5-0.3,0.9-0.8,0.9-1.4v-1.1c1.1-0.1,2.1-0.6,2.9-1.3c0.9-0.9,1.4-2.2,1.4-3.6V6.3
	C22.8,3.3,20.7,1.3,17.8,1.3z M12.2,19.1H9.5c-0.1,0-0.3,0-0.4,0.1l-2.9,1.9v-1.3c0-0.4-0.3-0.8-0.8-0.8c-0.8,0-1.5-0.2-1.9-0.7
	c-0.5-0.5-0.7-1.1-0.7-1.9v-4.1c0-1.5,0.9-2.5,2.3-2.6c0.1,0,0.2,0,0.3,0h6.8c0.2,0,0.4,0,0.6,0c1.3,0.2,2.1,1.2,2.1,2.6v4.1
	c0,0.3,0,0.6-0.1,0.8C14.4,18.5,13.5,19.1,12.2,19.1z M21.3,11.4c0,1.1-0.3,1.9-1,2.6c-0.6,0.6-1.5,0.9-2.5,0.9
	c-0.4,0-0.8,0.3-0.8,0.8v1.8c0,0,0,0.1-0.1,0.1l-0.6-0.4c0,0,0,0,0,0c0-0.2,0-0.4,0-0.6v-4.1c0-2.4-1.7-4.1-4.1-4.1H5.8v-2
	c0-2.1,1.4-3.5,3.5-3.5h8.5c2.1,0,3.5,1.4,3.5,3.5V11.4z"></path>
  </symbol>
  <symbol version="1.1" id="notification" xmlns="http://www.w3.org/2000/svg" xmlns:xlink="http://www.w3.org/1999/xlink" x="0px" y="0px" xml:space="preserve" viewBox="0 0 24 24">
    <g>
      <path d="M19,8.8c2.1,0,3.8-1.7,3.8-3.8S21.1,1.3,19,1.3S15.3,2.9,15.3,5S16.9,8.8,19,8.8z M19,2.8c1.2,0,2.3,1,2.3,2.3
		s-1,2.3-2.3,2.3s-2.3-1-2.3-2.3S17.8,2.8,19,2.8z"></path>
      <path d="M7,13.8h5c0.4,0,0.8-0.3,0.8-0.8s-0.3-0.8-0.8-0.8H7c-0.4,0-0.8,0.3-0.8,0.8S6.6,13.8,7,13.8z"></path>
      <path d="M7,17.8h9c0.4,0,0.8-0.3,0.8-0.8s-0.3-0.8-0.8-0.8H7c-0.4,0-0.8,0.3-0.8,0.8S6.6,17.8,7,17.8z"></path>
      <path d="M22,9.3c-0.4,0-0.8,0.3-0.8,0.8v5c0,4.6-1.6,6.3-6.3,6.3H9c-4.6,0-6.3-1.6-6.3-6.3V9c0-4.6,1.6-6.3,6.3-6.3h5
		c0.4,0,0.8-0.3,0.8-0.8S14.4,1.3,14,1.3H9C3.6,1.3,1.3,3.6,1.3,9v6c0,5.4,2.3,7.8,7.8,7.8h6c5.4,0,7.8-2.3,7.8-7.8v-5
		C22.8,9.6,22.4,9.3,22,9.3z"></path>
    </g>
  </symbol>
  <symbol version="1.1" id="search" xmlns="http://www.w3.org/2000/svg" xmlns:xlink="http://www.w3.org/1999/xlink" x="0px" y="0px" xml:space="preserve" viewBox="0 0 24 24">
    <g>
      <path d="M11.5,1.3C5.8,1.3,1.3,5.8,1.3,11.5c0,5.7,4.6,10.3,10.3,10.3c5.7,0,10.3-4.6,10.3-10.3
		C21.8,5.8,17.2,1.3,11.5,1.3z M11.5,20.3c-4.8,0-8.8-3.9-8.8-8.8c0-4.8,3.9-8.8,8.8-8.8c4.8,0,8.8,3.9,8.8,8.8
		C20.3,16.3,16.3,20.3,11.5,20.3z"></path>
      <path d="M22.5,21.5l-2-2c-0.3-0.3-0.8-0.3-1.1,0s-0.3,0.8,0,1.1l2,2c0.1,0.1,0.3,0.2,0.5,0.2s0.4-0.1,0.5-0.2
		C22.8,22.2,22.8,21.8,22.5,21.5z"></path>
    </g>
  </symbol>
  <symbol version="1.1" id="search-status" xmlns="http://www.w3.org/2000/svg" xmlns:xlink="http://www.w3.org/1999/xlink" x="0px" y="0px" xml:space="preserve" viewBox="0 0 24 24">
    <g>
      <path d="M20,5.8h-6c-0.4,0-0.8-0.3-0.8-0.8s0.3-0.8,0.8-0.8h6c0.4,0,0.8,0.3,0.8,0.8S20.4,5.8,20,5.8z"></path>
    </g>
    <g>
      <path d="M17,8.8h-3c-0.4,0-0.8-0.3-0.8-0.8s0.3-0.8,0.8-0.8h3c0.4,0,0.8,0.3,0.8,0.8S17.4,8.8,17,8.8z"></path>
    </g>
    <g>
      <path d="M11.5,21.8c-5.7,0-10.3-4.6-10.3-10.3c0-5.7,4.6-10.3,10.3-10.3c0.4,0,0.8,0.3,0.8,0.8s-0.3,0.8-0.8,0.8
		c-4.8,0-8.8,3.9-8.8,8.8c0,4.8,3.9,8.8,8.8,8.8c4.8,0,8.8-3.9,8.8-8.8c0-0.4,0.3-0.8,0.8-0.8s0.8,0.3,0.8,0.8
		C21.8,17.2,17.2,21.8,11.5,21.8z"></path>
    </g>
    <g>
      <path d="M22,22.8c-0.2,0-0.4-0.1-0.5-0.2l-2-2c-0.3-0.3-0.3-0.8,0-1.1s0.8-0.3,1.1,0l2,2c0.3,0.3,0.3,0.8,0,1.1
		C22.4,22.7,22.2,22.8,22,22.8z"></path>
    </g>
  </symbol>
  <symbol version="1.1" id="shield" xmlns="http://www.w3.org/2000/svg" xmlns:xlink="http://www.w3.org/1999/xlink" x="0px" y="0px" xml:space="preserve" viewBox="0 0 24 24">
    <g>
      <path d="M12,22.7c-0.2,0-0.5,0-0.7-0.1c-5.2-1.4-9-6.3-9-11.5V6.7c0-1.1,0.8-2.3,1.9-2.8l5.6-2.3c1.4-0.6,3.1-0.6,4.5,0L19.8,4
		c1,0.4,1.9,1.6,1.9,2.8l0,4.4c0,5.3-3.8,10.1-9,11.5C12.5,22.7,12.2,22.7,12,22.7z M12,2.8c-0.6,0-1.1,0.1-1.7,0.3L4.8,5.4
		C4.3,5.6,3.8,6.2,3.8,6.7v4.4c0,4.6,3.3,8.8,7.8,10.1c0.2,0.1,0.4,0.1,0.6,0c4.5-1.3,7.8-5.5,7.8-10.1c0,0,0,0,0,0l0-4.4
		c0-0.5-0.4-1.2-0.9-1.4l-5.6-2.3C13.1,2.9,12.6,2.8,12,2.8z"></path>
    </g>
  </symbol>
  <symbol version="1.1" id="home" xmlns="http://www.w3.org/2000/svg" xmlns:xlink="http://www.w3.org/1999/xlink" x="0px" y="0px" xml:space="preserve" viewBox="0 0 20 20">
    <g>
      <path d="M10,11.8c-0.4,0-0.8,0.3-0.8,0.8V15c0,0.4,0.3,0.8,0.8,0.8s0.8-0.3,0.8-0.8v-2.5C10.8,12.1,10.4,11.8,10,11.8z"></path>
      <path d="M17.9,6.4l-5.8-4.6c-1.2-0.9-3-0.9-4.2,0L2.1,6.4C1.3,7.1,0.8,8.4,1,9.5l1.1,6.6c0.3,1.6,1.7,2.8,3.3,2.8h9.3
		c1.5,0,3-1.2,3.3-2.8L19,9.5C19.2,8.4,18.7,7.1,17.9,6.4z M16.5,15.9c-0.1,0.8-1,1.5-1.8,1.5H5.3c-0.8,0-1.7-0.7-1.8-1.5L2.4,9.3
		C2.3,8.7,2.6,7.9,3.1,7.6l5.8-4.6l0,0C9.2,2.7,9.6,2.6,10,2.6c0.4,0,0.8,0.1,1.1,0.4l5.8,4.6c0.4,0.3,0.7,1.2,0.7,1.7L16.5,15.9z"></path>
    </g>
  </symbol>
   <symbol version="1.1" id="story" xmlns="http://www.w3.org/2000/svg" xmlns:xlink="http://www.w3.org/1999/xlink" x="0px" y="0px" xml:space="preserve" viewBox="0 0 60 60">
    <g>
      <path d="M47.1,30.9c0-4.6-1.8-8.9-5-12.1c-3.2-3.2-7.5-5-12.1-5s-8.9,1.8-12.1,5c-3.2,3.2-5,7.5-5,12.1s1.8,8.9,5,12.1
		c3.3,3.3,7.7,5,12.1,5c4.4,0,8.8-1.7,12.1-5C45.3,39.8,47.1,35.5,47.1,30.9z M20,40.9c-2.7-2.7-4.1-6.2-4.1-10
		c0-3.8,1.5-7.3,4.1-10s6.2-4.1,10-4.1c3.8,0,7.3,1.5,10,4.1s4.1,6.2,4.1,10c0,3.8-1.5,7.3-4.1,10C34.5,46.4,25.5,46.4,20,40.9z"></path>
      <path d="M21.2,52.7c-4.9-2-8.9-5.4-11.5-10C7.1,38.2,6,33.2,6.7,28c0.1-0.8-0.5-1.6-1.3-1.7c-0.8-0.1-1.6,0.5-1.7,1.3
		C3,33.4,4.1,39.2,7,44.2c3,5.2,7.5,9.1,13,11.3c0.2,0.1,0.4,0.1,0.6,0.1c0.6,0,1.2-0.4,1.4-0.9C22.3,53.9,21.9,53,21.2,52.7z"></path>
      <path d="M14.6,12.7c0.3,0,0.6-0.1,0.9-0.3c4.2-3.3,9.2-5,14.5-5c5.1,0,10.1,1.7,14.2,4.8c0.7,0.5,1.6,0.4,2.1-0.3
		c0.5-0.7,0.4-1.6-0.3-2.1c-4.7-3.6-10.2-5.4-16-5.4c-6,0-11.6,1.9-16.3,5.6c-0.7,0.5-0.8,1.5-0.3,2.1
		C13.7,12.5,14.2,12.7,14.6,12.7z"></path>
      <path d="M56.3,27.6c-0.1-0.8-0.9-1.4-1.7-1.3c-0.8,0.1-1.4,0.9-1.3,1.7c0.7,5.1-0.4,10.2-2.9,14.7c-2.6,4.6-6.6,8-11.5,10
		C38,53,37.7,53.9,38,54.7c0.2,0.6,0.8,0.9,1.4,0.9c0.2,0,0.4,0,0.6-0.1c5.5-2.2,10-6.1,13-11.3C55.9,39.2,57,33.4,56.3,27.6z"></path>
    </g>
  </symbol>
  <symbol version="1.1" id="battery-change" xmlns="http://www.w3.org/2000/svg" xmlns:xlink="http://www.w3.org/1999/xlink" x="0px" y="0px" xml:space="preserve" viewBox="0 0 60 60">
    <g>
      <path d="M51.3,22.3c-0.8,0-1.5,0.7-1.5,1.5s0.7,1.5,1.5,1.5c2.3,0,2.3,0,2.3,2.3v5c0,2.3,0,2.3-2.3,2.3c-0.8,0-1.5,0.7-1.5,1.5
		s0.7,1.5,1.5,1.5c4.9,0,5.3-2.3,5.3-5.3v-5C56.5,24.5,56.1,22.3,51.3,22.3z"></path>
      <path d="M31.7,34.5c0.7-1.3,0.7-2.8,0-4c-0.7-1.2-2-2-3.5-2h-5.8c-0.5,0-0.8-0.3-0.9-0.5c-0.1-0.1-0.2-0.5,0-0.9l4.7-6.2
		c0.5-0.7,0.4-1.6-0.3-2.1c-0.7-0.5-1.6-0.4-2.1,0.3l-4.7,6.3c0,0-0.1,0.1-0.1,0.1c-0.7,1.3-0.7,2.8,0,4c0.7,1.3,2,2,3.5,2h5.8
		c0.5,0,0.8,0.3,0.9,0.5c0.1,0.1,0.2,0.5,0.1,0.9L23.9,39c-0.5,0.6-0.5,1.6,0.2,2.1c0.3,0.2,0.6,0.4,1,0.4c0.4,0,0.8-0.2,1.1-0.5
		l5.3-6.3C31.6,34.7,31.6,34.6,31.7,34.5z"></path>
      <path d="M17.5,46c-9.1,0-11-1.9-11-11V25c0-9.1,1.9-11,11-11c0.8,0,1.5-0.7,1.5-1.5S18.3,11,17.5,11c-10.9,0-14,3.1-14,14v10
		c0,10.9,3.1,14,14,14c0.8,0,1.5-0.7,1.5-1.5S18.3,46,17.5,46z"></path>
      <path d="M32.5,11c-0.8,0-1.5,0.7-1.5,1.5s0.7,1.5,1.5,1.5c9.1,0,11,1.9,11,11v10c0,9.1-1.9,11-11,11c-0.8,0-1.5,0.7-1.5,1.5
		s0.7,1.5,1.5,1.5c10.9,0,14-3.1,14-14V25C46.5,14.1,43.4,11,32.5,11z"></path>
    </g>
  </symbol>
  <symbol version="1.1" id="flash" xmlns="http://www.w3.org/2000/svg" xmlns:xlink="http://www.w3.org/1999/xlink" x="0px" y="0px" xml:space="preserve" viewBox="0 0 60 60">
    <g>
      <path d="M25,56.5c-0.4,0-0.8-0.1-1.1-0.2c-0.9-0.3-2.5-1.5-2.5-5.1V34.7h-6.2c-3.1,0-4.2-1.4-4.6-2.3c-0.4-0.9-0.7-2.6,1.3-5
		L30.8,5.9c2.4-2.7,4.3-2.6,5.2-2.2C37,4,38.5,5.2,38.5,8.8v16.5h6.2c3.1,0,4.3,1.4,4.6,2.3c0.4,0.9,0.7,2.6-1.4,5L29.1,54.1
		C27.4,56,26,56.5,25,56.5z M35,6.5c-0.2,0-0.8,0.2-1.9,1.4L14.2,29.4c-0.8,0.9-0.9,1.6-0.8,1.8c0.1,0.2,0.7,0.5,1.9,0.5H23
		c0.8,0,1.5,0.7,1.5,1.5v18c0,1.7,0.4,2.2,0.5,2.3c0.1,0,0.8-0.1,1.9-1.4l18.9-21.5c0.8-0.9,1-1.6,0.9-1.8c-0.1-0.2-0.7-0.5-1.9-0.5
		H37c-0.8,0-1.5-0.7-1.5-1.5v-18C35.5,7.1,35.1,6.6,35,6.5C35,6.5,35,6.5,35,6.5z"></path>
    </g>
  </symbol>
   <symbol version="1.1" id="lorry" xmlns="http://www.w3.org/2000/svg" xmlns:xlink="http://www.w3.org/1999/xlink" x="0px" y="0px" xml:space="preserve" viewBox="0 0 30 30">
    <path d="M26.2,15c0-0.1,0-0.3-0.1-0.4l-1.8-3.1c0,0,0,0,0,0l-1.8-3.1C22,7.5,21,7,20,7h-1.2V4.6c0-0.4-0.3-0.8-0.8-0.8H8.7
	C6,3.8,3.8,6,3.8,8.8v8.3v3.1c0,2.1,1.7,3.9,3.9,3.9h0.4c0.3,1.2,1.4,2.1,2.7,2.1c1.3,0,2.4-0.9,2.7-2.1h2.9
	c0.3,1.2,1.4,2.1,2.7,2.1s2.4-0.9,2.7-2.1h0.4c2.1,0,3.9-1.7,3.9-3.9v-3.1c0,0,0,0,0,0V15z M24.7,16.3h-2.4c-0.2,0-0.3-0.1-0.3-0.3
	v-3.1c0-0.2,0.1-0.3,0.3-0.3h0.9l1.5,2.6V16.3z M5.3,8.8c0-1.9,1.5-3.4,3.4-3.4h8.6v2.4V15c0,0.7-0.6,1.3-1.3,1.3H5.3V8.8z
	 M10.8,24.7c-0.7,0-1.3-0.6-1.3-1.3c0-0.7,0.6-1.3,1.3-1.3c0.7,0,1.3,0.6,1.3,1.3c0,0,0,0,0,0C12.2,24.1,11.6,24.7,10.8,24.7z
	 M19.2,24.7c-0.7,0-1.3-0.6-1.3-1.3s0.6-1.3,1.3-1.3s1.3,0.6,1.3,1.3S19.9,24.7,19.2,24.7z M24.7,20.2c0,1.3-1.1,2.4-2.4,2.4h-0.4
	c0-0.1-0.1-0.2-0.1-0.2c0-0.1,0-0.1-0.1-0.2c-0.1-0.2-0.1-0.3-0.2-0.4c0,0,0,0,0,0c-0.1-0.1-0.2-0.3-0.3-0.4c0,0-0.1-0.1-0.1-0.1
	c-0.1-0.1-0.2-0.1-0.3-0.2c-0.1,0-0.1-0.1-0.2-0.1c-0.1-0.1-0.2-0.1-0.3-0.2c-0.1,0-0.1-0.1-0.2-0.1c-0.1,0-0.2-0.1-0.3-0.1
	c-0.1,0-0.1,0-0.2,0c-0.2,0-0.3-0.1-0.5-0.1s-0.4,0-0.5,0.1c-0.1,0-0.1,0-0.2,0c-0.1,0-0.2,0.1-0.3,0.1c-0.1,0-0.1,0.1-0.2,0.1
	c-0.1,0-0.2,0.1-0.3,0.2c-0.1,0-0.1,0.1-0.2,0.1c-0.1,0.1-0.2,0.1-0.3,0.2c0,0-0.1,0.1-0.1,0.1c-0.1,0.1-0.2,0.2-0.3,0.4
	c0,0,0,0,0,0c-0.1,0.1-0.2,0.3-0.2,0.4c0,0,0,0.1-0.1,0.2c0,0.1-0.1,0.2-0.1,0.2h-2.9c0-0.1-0.1-0.1-0.1-0.2c0-0.1,0-0.1-0.1-0.2
	c-0.1-0.1-0.1-0.3-0.2-0.4c0,0,0-0.1-0.1-0.1c-0.1-0.1-0.2-0.2-0.3-0.3c0,0-0.1-0.1-0.1-0.1c-0.1-0.1-0.2-0.1-0.2-0.2
	c-0.1,0-0.1-0.1-0.2-0.1c-0.1-0.1-0.2-0.1-0.3-0.1c-0.1,0-0.1-0.1-0.2-0.1c-0.1,0-0.2-0.1-0.3-0.1c-0.1,0-0.1,0-0.2,0
	c-0.2,0-0.3-0.1-0.5-0.1c0,0,0,0,0,0c0,0,0,0,0,0s0,0,0,0c-0.2,0-0.4,0-0.5,0.1c-0.1,0-0.1,0-0.2,0c-0.1,0-0.2,0.1-0.3,0.1
	c-0.1,0-0.1,0-0.2,0.1c-0.1,0-0.2,0.1-0.3,0.2c0,0-0.1,0.1-0.1,0.1c-0.1,0.1-0.2,0.2-0.3,0.2c0,0-0.1,0.1-0.1,0.1
	c-0.2,0.2-0.4,0.5-0.6,0.8c0,0,0,0.1,0,0.1c0,0.1-0.1,0.2-0.1,0.3H7.7c-1.3,0-2.4-1.1-2.4-2.4v-2.4H16c1.6,0,2.8-1.3,2.8-2.8V8.5H20
	c0.5,0,0.9,0.3,1.2,0.7l1.1,2h0h0c-1,0-1.8,0.8-1.8,1.8V16c0,1,0.8,1.8,1.8,1.8h0h2.4V20.2z"></path>
  </symbol>
  <symbol version="1.1" id="star-check" xmlns="http://www.w3.org/2000/svg" xmlns:xlink="http://www.w3.org/1999/xlink" x="0px" y="0px" xml:space="preserve" viewBox="0 0 30 30">
    <g>
      <path d="M18.5,12l-4.8,4.5l-2.2-2c-0.3-0.3-0.8-0.3-1.1,0c-0.3,0.3-0.3,0.8,0,1.1l2.7,2.5c0.1,0.1,0.3,0.2,0.5,0.2
		c0.2,0,0.4-0.1,0.5-0.2l5.3-5c0.3-0.3,0.3-0.8,0-1.1C19.3,11.7,18.8,11.7,18.5,12z"></path>
      <path d="M24.7,16.4c-0.5-0.9-0.5-1.9,0-2.8l1-1.9c0.5-0.9,0.5-2-0.1-2.9c-0.5-0.9-1.5-1.5-2.5-1.5l-2.1-0.1c-1,0-1.9-0.6-2.4-1.4
		l-1.1-1.8C17,3.2,16,2.7,15,2.7c-1,0-2,0.5-2.5,1.4l-1.1,1.8c-0.5,0.8-1.4,1.4-2.4,1.4L6.8,7.3c-1,0-2,0.6-2.5,1.5
		c-0.5,0.9-0.5,2-0.1,2.9l1,1.9c0.5,0.9,0.5,1.9,0,2.8l-1,1.8c-0.5,0.9-0.5,2,0.1,2.9c0.5,0.9,1.5,1.5,2.5,1.5l2.1,0.1
		c1,0,1.9,0.6,2.4,1.4l1.1,1.8c0.6,0.9,1.5,1.4,2.5,1.4c1,0,2-0.5,2.5-1.4l1.1-1.8c0.5-0.8,1.4-1.4,2.4-1.4l2.1-0.1
		c1,0,2-0.6,2.5-1.5c0.5-0.9,0.5-2,0.1-2.9L24.7,16.4z M24.4,20.4c-0.3,0.5-0.7,0.7-1.2,0.7L21,21.2c-1.5,0.1-2.9,0.8-3.7,2.1
		l-1.1,1.8c-0.6,0.9-2,0.9-2.5,0l-1.1-1.8c-0.8-1.3-2.2-2.1-3.7-2.1l-2.1-0.1c-0.5,0-1-0.3-1.2-0.7c-0.3-0.5-0.3-1,0-1.5l1-1.9
		c0.7-1.3,0.7-2.9,0-4.2l-1-1.9c-0.2-0.5-0.2-1,0-1.5c0.3-0.5,0.7-0.7,1.2-0.7L9,8.8c1.5-0.1,2.9-0.8,3.7-2.1l1.1-1.8
		C14,4.4,14.5,4.2,15,4.2s1,0.3,1.3,0.7l1.1,1.8c0.8,1.3,2.2,2.1,3.7,2.1l2.1,0.1c0.5,0,1,0.3,1.2,0.7c0.3,0.5,0.3,1,0,1.5l-1,1.8
		c-0.7,1.3-0.7,2.9,0,4.2l1,1.8C24.7,19.4,24.6,20,24.4,20.4z"></path>
    </g>
  </symbol>
  <symbol version="1.1" id="search-normal" xmlns="http://www.w3.org/2000/svg" xmlns:xlink="http://www.w3.org/1999/xlink" x="0px" y="0px" xml:space="preserve" viewBox="0 0 17.3 17.3">
    <path d="M17,16l-3.1-3.1c1.1-1.4,1.8-3.1,1.8-5c0-4.3-3.5-7.9-7.9-7.9C3.5,0,0,3.5,0,7.9c0,4.3,3.5,7.9,7.9,7.9c1.9,0,3.6-0.7,5-1.8
	L16,17c0.1,0.1,0.3,0.2,0.5,0.2s0.4-0.1,0.5-0.2C17.3,16.7,17.3,16.3,17,16z M1.5,7.9c0-3.5,2.9-6.4,6.4-6.4c3.5,0,6.4,2.9,6.4,6.4
	c0,3.5-2.9,6.4-6.4,6.4C4.4,14.3,1.5,11.4,1.5,7.9z"></path>
  </symbol>
  <symbol version="1.1" id="danger" xmlns="http://www.w3.org/2000/svg" xmlns:xlink="http://www.w3.org/1999/xlink" x="0px" y="0px" xml:space="preserve" viewBox="0 0 60 60">
    <g>
      <path d="M30,36c0.6,0,1-0.4,1-1V22.5c0-0.6-0.4-1-1-1s-1,0.4-1,1V35C29,35.6,29.4,36,30,36z"></path>
      <path d="M54.1,39.3L39,12c-2.3-4.2-5.5-6.5-9-6.5s-6.6,2.3-9,6.5L5.9,39.3c-2.2,4-2.5,7.8-0.8,10.7c1.7,2.9,5.2,4.5,9.7,4.5h14.9
		c0.1,0,0.1,0,0.2,0h15.1c4.6,0,8-1.6,9.7-4.5C56.6,47.1,56.3,43.3,54.1,39.3z M53.2,49c-1.3,2.3-4.2,3.6-8,3.6H30.2
		c-0.1,0-0.1,0-0.2,0H14.8c-3.8,0-6.7-1.3-8-3.5c-1.3-2.3-1.1-5.4,0.8-8.7L22.8,13c2-3.5,4.5-5.5,7.2-5.5c2.7,0,5.3,2,7.2,5.5
		l15.1,27.3C54.2,43.6,54.5,46.7,53.2,49z"></path>
      <path d="M30,41.5L30,41.5c-0.6,0-1,0.4-1,1s0.5,1,1,1s1-0.4,1-1S30.6,41.5,30,41.5z"></path>
    </g>
  </symbol>
  <symbol version="1.1" id="print" xmlns="http://www.w3.org/2000/svg" xmlns:xlink="http://www.w3.org/1999/xlink" x="0px" y="0px" xml:space="preserve" viewBox="0 0 40 40">
    <g>
      <path d="M30,10.7h-1.1V8.3c0-4.1-1.9-6-6-6h-5.8c-4.1,0-6,1.9-6,6v2.3H10c-3.9,0-6,2.1-6,6V25c0,3.9,2.1,6,6,6h2.3v0.7
		c0,3.9,2.1,6,6,6h3.3c3.9,0,6-2.1,6-6V31H30c3.9,0,6-2.1,6-6v-8.3C36,12.8,33.9,10.7,30,10.7z M13.1,8.3c0-3,1-4,4-4h5.8
		c3,0,4,1,4,4v2.3H13.1V8.3z M25.7,31.7c0,2.8-1.2,4-4,4h-3.3c-2.8,0-4-1.2-4-4V30c0,0,0,0,0,0v-4h11.3V31.7z M34,25
		c0,2.8-1.2,4-4,4h-2.3v-3h0.7c0.6,0,1-0.4,1-1s-0.4-1-1-1h-1.7h0H13.3h0h-1.7c-0.6,0-1,0.4-1,1s0.4,1,1,1h0.7v3H10
		c-2.8,0-4-1.2-4-4v-8.3c0-2.8,1.2-4,4-4h2.1h15.8H30c2.8,0,4,1.2,4,4V25z"></path>
      <path d="M16.7,17.3h-5c-0.6,0-1,0.4-1,1s0.4,1,1,1h5c0.6,0,1-0.4,1-1S17.2,17.3,16.7,17.3z"></path>
    </g>
  </symbol>
  <symbol version="1.1" id="setting" xmlns="http://www.w3.org/2000/svg" xmlns:xlink="http://www.w3.org/1999/xlink" x="0px" y="0px" xml:space="preserve" viewBox="0 0 30 30">
    <g>
      <path d="M20.8,11.6c0.4,0,0.8-0.3,0.8-0.8V6.7c0-0.4-0.3-0.8-0.8-0.8s-0.8,0.3-0.8,0.8v4.2C20.1,11.2,20.4,11.6,20.8,11.6z"></path>
      <path d="M15,18.4c-0.4,0-0.8,0.3-0.8,0.8v4.2c0,0.4,0.3,0.8,0.8,0.8s0.8-0.3,0.8-0.8v-4.2C15.8,18.8,15.4,18.4,15,18.4z"></path>
      <path d="M9.2,11.6c0.4,0,0.8-0.3,0.8-0.8V6.7c0-0.4-0.3-0.8-0.8-0.8S8.4,6.3,8.4,6.7v4.2C8.4,11.2,8.8,11.6,9.2,11.6z"></path>
      <path d="M10.8,13.4H7.5c-0.4,0-0.8,0.3-0.8,0.8s0.3,0.8,0.8,0.8h0.9v8.4c0,0.4,0.3,0.8,0.8,0.8s0.8-0.3,0.8-0.8v-8.4h0.9
		c0.4,0,0.8-0.3,0.8-0.8S11.2,13.4,10.8,13.4z"></path>
      <path d="M22.5,13.4h-3.3c-0.4,0-0.8,0.3-0.8,0.8s0.3,0.8,0.8,0.8h0.9v8.4c0,0.4,0.3,0.8,0.8,0.8s0.8-0.3,0.8-0.8v-8.4h0.9
		c0.4,0,0.8-0.3,0.8-0.8S22.9,13.4,22.5,13.4z"></path>
      <path d="M16.7,15.1h-0.9V6.7c0-0.4-0.3-0.8-0.8-0.8s-0.8,0.3-0.8,0.8v8.4h-0.9c-0.4,0-0.8,0.3-0.8,0.8c0,0.4,0.3,0.8,0.8,0.8h3.3
		c0.4,0,0.8-0.3,0.8-0.8C17.4,15.4,17.1,15.1,16.7,15.1z"></path>
    </g>
  </symbol>
  <symbol version="1.1" id="check-form" xmlns="http://www.w3.org/2000/svg" xmlns:xlink="http://www.w3.org/1999/xlink" x="0px" y="0px" viewBox="0 0 20 20" xml:space="preserve">
<g>
	<path class="st0" d="M8,14.8L8,14.8c-0.2,0-0.4-0.1-0.5-0.2l-4-4c-0.3-0.3-0.3-0.8,0-1.1s0.8-0.3,1.1,0L8,12.9l7.5-7.5
		c0.3-0.3,0.8-0.3,1.1,0c0.3,0.3,0.3,0.8,0,1.1l-8,8C8.4,14.7,8.2,14.8,8,14.8z"/>
</g>
</symbol>
<symbol version="1.1" id="cross-form" xmlns="http://www.w3.org/2000/svg" xmlns:xlink="http://www.w3.org/1999/xlink" x="0px" y="0px" viewBox="0 0 20 20" xml:space="preserve">
<path d="M16.692 15.2049C17.1027 15.6156 17.1027 16.2814 16.692 16.692C16.2814 17.1027 15.6156 17.1027 15.2049 16.692L10 11.4871L4.7951 16.692C4.38445 17.1027 3.71865 17.1027 3.30799 16.692C2.89734 16.2814 2.89734 15.6156 3.30799 15.2049L8.51289 10L3.30799 4.7951C2.89734 4.38445 2.89734 3.71865 3.30799 3.30799C3.71865 2.89734 4.38445 2.89734 4.7951 3.30799L10 8.51289L15.2049 3.30799C15.6156 2.89734 16.2814 2.89734 16.692 3.30799C17.1027 3.71865 17.1027 4.38445 16.692 4.7951L11.4871 10L16.692 15.2049Z" />
</symbol>
<symbol version="1.1" id="arrow-back" xmlns="http://www.w3.org/2000/svg" xmlns:xlink="http://www.w3.org/1999/xlink" x="0px" y="0px" xml:space="preserve" viewBox="0 0 24 24">
    <path d="M20.5,11.3H5.3l4.8-4.8c0.3-0.3,0.3-0.8,0-1.1S9.3,5.1,9,5.4L3,11.5c-0.3,0.3-0.3,0.8,0,1.1L9,18.6c0.1,0.1,0.3,0.2,0.5,0.2
	s0.4-0.1,0.5-0.2c0.3-0.3,0.3-0.8,0-1.1l-4.8-4.8h15.2c0.4,0,0.8-0.3,0.8-0.8S20.9,11.3,20.5,11.3z"></path>
  </symbol>
</svg>
