<?xml version="1.0" encoding="utf-8"?>
<svg version="1.1" id="Layer_1" xmlns="http://www.w3.org/2000/svg" xmlns:xlink="http://www.w3.org/1999/xlink" x="0px" y="0px"
	 viewBox="0 0 5760 579" style="enable-background:new 0 0 5760 579;" xml:space="preserve">
<style type="text/css">
	.st0{fill:#FFFFFF;}
</style>
<path class="st0" d="M1702.9,159.8c57.7-21.1,121.8-44.4,217.1-59.3c92-19,333.4-15.8,631.5,27.1c534.3,77,892.4,3.4,909.7,0
	c148.1-28.7,472.2-105.5,586.3-113.4c98.3-6.8,221.7,5,356,24.2c107.2,15.3,196,30.4,275.8,43.9c233.9,39.7,390,66.3,701.9,45.3
	C5502.3,119.4,5747,40,5760,36.3v506.4c-230.6,84.2-560.6,5.5-880.1-70.7c-227.4-54.2-449.4-107.2-626.4-99.2
	c-151.8,6.8-470.2,83.3-569.7,94.1c-98,10.6-231.4,6.5-385.3-15.4c-421.3-60-814.6-35.9-999.8,0c-148.1,28.7-673.8,127.5-942.3,89.2
	c-107.2-15.3-196-30.4-275.8-43.9c-184-31.2-320-60.4-521.1-52.6C330.4,453,13,539,0,542.7V36.3c230.6-84.2,560.6-5.5,880.1,70.7
	c227.4,54.2,449.4,107.2,626.4,99.2C1585.4,202.7,1640.4,182.6,1702.9,159.8z"/>
</svg>
