<svg width="5760" height="505" viewBox="0 0 5760 505" fill="none" xmlns="http://www.w3.org/2000/svg">
<path opacity="0.3" d="M616.151 60.011C1113.16 123.971 1721.03 202.2 2111.5 90.7109C2660.95 -66.1715 3983 59.0631 4613.5 125.054C4920.12 157.146 5061.39 117.289 5213.83 74.2794C5347.56 36.5488 5489.89 -3.60749 5760 0.258737V475.207C5602.55 475.207 5399.03 439.722 5174.27 400.534C4743.81 325.481 4235.42 236.841 3823.5 357.874C2932.09 619.792 2283.93 474.033 1793.58 363.764C1539.46 306.618 1327.73 259.003 1146.5 282.605C904.111 314.17 765.04 355.377 642.633 391.647C473.149 441.867 335.611 482.621 0 475.207V0.258737C151.846 0.258737 370.45 28.3913 616.151 60.011Z" fill="white"/>
</svg>
