<svg width="5760" height="579" viewBox="0 0 5760 579" fill="none" xmlns="http://www.w3.org/2000/svg">
<path fill-rule="evenodd" clip-rule="evenodd" d="M1702.88 159.831C1760.59 138.776 1824.7 115.384 1920 100.5C2012 81.5 2253.39 84.6518 2551.5 127.587C3085.81 204.54 3246.76 171.458 3410.05 137.895L3410.05 137.894L3410.05 137.894C3426.94 134.423 3443.85 130.947 3461.2 127.587C3609.32 98.9059 3775.45 54.7732 3840 36.2919C3910.5 12.9088 4134.95 0.116929 4403.5 38.3795C4510.68 53.6498 4599.53 68.7436 4679.33 82.2997C4913.25 122.035 5069.38 148.558 5381.2 127.587C5502.29 119.443 5630.47 77.8362 5710.05 52.0089C5730.07 45.5086 5747.02 40.008 5760 36.2919V288.001V291V542.708C5529.37 626.943 5199.36 548.216 4879.9 472.005C4652.55 417.769 4430.54 364.806 4253.5 372.764C4101.67 379.589 3904.55 421.51 3840 439.991C3772.28 464.724 3567.13 489.676 3298.58 451.413C2877.25 391.384 2483.94 415.563 2298.8 451.413C2150.68 480.094 1984.55 524.227 1920 542.708C1849.5 566.091 1625.05 578.883 1356.5 540.62C1249.32 525.35 1160.47 510.256 1080.67 496.7C846.755 456.965 690.618 430.442 378.796 451.413C257.715 459.557 129.526 501.164 49.9535 526.991L49.9437 526.994C29.9212 533.493 12.9773 538.993 0 542.708V290.999V288V36.2919C230.626 -47.9434 560.637 30.7839 880.099 106.995C1107.45 161.231 1329.46 214.194 1506.5 206.236C1585.43 202.688 1640.4 182.63 1702.88 159.831Z" fill="white"/>
</svg>
