<svg width="5760" height="603" viewBox="0 0 5760 603" fill="none" xmlns="http://www.w3.org/2000/svg">
<path opacity="0.5" d="M4953 186.411C4953 186.411 5440.5 117.523 5760 168.276V460.543C5511.92 429.526 5368.2 463.948 5227.21 497.716C5074.96 534.182 4925.89 569.885 4652 521.58C3930.53 394.333 3489.41 467.832 3090.7 534.265C2758.55 589.607 2455.84 640.045 2045 565.433C1203.59 412.625 1073.43 423.313 857.05 441.08C840.953 442.401 824.379 443.762 807 445.098C807 445.098 319.5 503.765 0 460.543V168.276C240.617 203.6 385.204 157.956 523.486 114.303C681.748 64.3419 831.75 16.9885 1108 96.6054C1798.69 295.668 2208.62 196.312 2599.08 101.674C2930.25 21.408 3247.41 -55.4648 3710 56.0004C4534.68 254.717 4673.95 230.73 4834.79 203.029C4870.54 196.872 4907.35 190.531 4953 186.411Z" fill="white"/>
</svg>
