<svg width="24" height="24" viewBox="0 0 24 24" xmlns="http://www.w3.org/2000/svg">
<path d="M9.15155 21.575L17.5765 13.175C17.6765 13.075 17.7475 12.9667 17.7895 12.85C17.8315 12.7333 17.8522 12.6083 17.8515 12.475C17.8515 12.3417 17.8305 12.2167 17.7885 12.1C17.7465 11.9833 17.6759 11.875 17.5765 11.775L9.15155 3.35C8.91821 3.11667 8.62655 3 8.27655 3C7.92655 3 7.62655 3.125 7.37655 3.375C7.12655 3.625 7.00155 3.91667 7.00155 4.25C7.00155 4.58333 7.12655 4.875 7.37655 5.125L14.7265 12.475L7.37655 19.825C7.14321 20.0583 7.02655 20.346 7.02655 20.688C7.02655 21.03 7.15155 21.3257 7.40155 21.575C7.65155 21.825 7.94321 21.95 8.27655 21.95C8.60988 21.95 8.90155 21.825 9.15155 21.575Z"/>
</svg>
