<svg id="Layer_1" data-name="Layer 1" xmlns="http://www.w3.org/2000/svg" viewBox="0 0 5762 306"><defs><style>.cls-1{fill:#e50a0a;stroke:#000;}</style></defs><title>Artboard 1</title><path class="cls-1" d="M3841,146.22c64.55,19.31,261.67,63.1,413.5,70.23,177,8.31,399.05-47,626.4-103.68C5200.36,33.16,5530.37-49.09,5761,38.91V305H1V38.91c13,3.88,29.93,9.63,50,16.42,79.58,27,207.76,70.45,328.85,79,311.82,21.9,468-5.8,701.87-47.31,79.8-14.17,168.65-29.93,275.83-45.89,268.55-40,493-26.6,563.5-2.18,64.55,19.31,230.68,65.41,378.8,95.38,185.14,37.45,578.45,62.71,999.78,0C3568.13,94.31,3773.28,120.38,3841,146.22Z"/></svg>