<svg width="126" height="15" viewBox="0 0 126 15" fill="none" xmlns="http://www.w3.org/2000/svg">
<path fill-rule="evenodd" clip-rule="evenodd" d="M0 0V14.5834H5.80095C7.54154 14.5701 8.85339 14.2061 9.73688 13.4917C10.6267 12.7705 11.0716 11.6954 11.0716 10.2664C11.0716 9.47853 10.872 8.81084 10.4728 8.2633C10.0736 7.71567 9.50109 7.34174 8.75534 7.14143C9.41605 6.88772 9.91681 6.49375 10.257 5.95955C10.5972 5.42539 10.7673 4.78099 10.7673 4.02646C10.7673 2.71768 10.2865 1.71942 9.32432 1.03166C8.36917 0.34388 6.9722 0 5.13341 0H0ZM3.44516 11.8791V8.38344H5.85961C7.04394 8.39011 7.63643 9.00111 7.63643 10.2164C7.63643 10.7439 7.46951 11.1545 7.13567 11.4484C6.80212 11.7355 6.32421 11.8791 5.70268 11.8791H3.44516ZM5.24131 6.07976H3.44516V2.71434H5.13341C5.90562 2.71434 6.46511 2.85124 6.8116 3.125C7.15845 3.3921 7.33206 3.83281 7.33206 4.44715C7.33206 4.98131 7.17183 5.3853 6.851 5.65906C6.53046 5.93286 5.99382 6.07309 5.24131 6.07976ZM17.4261 8.40346H22.844V5.78928H17.4261V2.71434H23.8453V0H13.9807V14.5834H23.8256V11.8791H17.4261V8.40346ZM29.3188 14.5834H25.7282L30.9694 0H34.2084L35.3562 3.17015C35.1355 3.28763 34.9388 3.40895 34.7658 3.53103C30.9423 6.48604 29.5412 11.9466 29.3188 14.3075V14.5834ZM31.8163 14.5834H39.0662C38.8624 13.3373 38.2668 10.9228 37.4718 11.0082C36.9745 11.0616 36.6158 11.2478 36.2257 11.4501C35.8303 11.6552 35.4026 11.8771 34.7658 11.9944C34.6839 12.0094 34.6014 12.024 34.5181 12.0386C33.3186 12.2495 32.0068 12.4801 31.8163 14.5834ZM41.645 9.01663V14.5834H45.09V9.43511H46.9554L49.4773 14.5834H53.1678V14.4332L50.1836 8.55368C51.0414 8.1397 51.6698 7.59883 52.0689 6.93114C52.4739 6.26337 52.6775 5.42201 52.6775 4.40706C52.6775 3.00483 52.1998 1.91975 51.2442 1.15184C50.2887 0.383943 48.9635 0 47.2685 0H41.645V2.09351C43.0571 2.16727 44.6681 2.40388 46.4858 2.86758C46.9841 2.56276 47.9374 2.26869 47.7684 3.53103C48.302 3.99439 48.5364 4.16158 49.037 4.5192L49.0686 4.54211C49.1303 4.58569 49.2068 4.62775 49.2862 4.67107C49.6625 4.87735 50.0917 5.11192 49.1039 5.67176C48.3593 6.09407 47.7919 6.12221 46.9422 6.16443C46.4292 6.18989 45.8132 6.22048 44.9922 6.34618C44.6776 6.41037 42.2509 7.23622 41.645 9.01663Z" fill="#F6F8FB"/>
<path fill-rule="evenodd" clip-rule="evenodd" d="M63.1491 11.7583H69.1138V14.3885H59.7227V0.204603H63.1491V11.7583ZM81.1238 11.2614C81.6379 10.1963 81.8952 8.97216 81.8952 7.58881V6.93613C81.8885 5.57226 81.6215 4.36434 81.0944 3.31222C80.574 2.25362 79.8418 1.43856 78.8981 0.867062C77.9544 0.295561 76.8807 0.00977359 75.6766 0.00977359C74.4596 0.00977359 73.373 0.29877 72.4163 0.876763C71.466 1.45476 70.7341 2.2763 70.2199 3.3414C69.7121 4.40001 69.4584 5.62427 69.4584 7.01403V7.81289C69.4845 9.15072 69.7579 10.336 70.2784 11.3686C70.8054 12.4012 71.5376 13.1968 72.4747 13.7553C73.4121 14.3074 74.4858 14.5834 75.6962 14.5834C76.9066 14.5834 77.9837 14.2977 78.9275 13.7262C79.8774 13.1481 80.6097 12.3265 81.1238 11.2614ZM77.6975 3.78956C78.1725 4.51693 78.4101 5.58532 78.4101 6.99456V7.64731C78.4036 9.02409 78.1658 10.0795 77.6975 10.8134C77.2288 11.5472 76.5619 11.9142 75.6962 11.9142C74.785 11.9142 74.0985 11.5407 73.6365 10.7938C73.1744 10.047 72.9434 8.97865 72.9434 7.58881L72.9532 6.54647C73.0507 3.97468 73.9587 2.68872 75.6766 2.68872C76.5553 2.68872 77.2288 3.05569 77.6975 3.78956ZM94.8983 12.6351C94.3712 13.2195 93.5998 13.6904 92.5848 14.0476C91.5694 14.4048 90.4566 14.5834 89.2462 14.5834C87.3847 14.5834 85.8979 14.0152 84.785 12.8786C83.6722 11.7421 83.0766 10.1606 82.9986 8.13435L82.9888 6.90688C82.9888 5.51055 83.236 4.29286 83.7305 3.2538C84.2254 2.20817 84.9314 1.40603 85.8489 0.847513C86.7731 0.282504 87.8404 0 89.0508 0C90.8212 0 92.194 0.405923 93.1702 1.21777C94.1531 2.02305 94.726 3.22776 94.8885 4.8319H91.589C91.4719 4.0396 91.2178 3.47452 90.8274 3.13687C90.437 2.79915 89.8838 2.63029 89.168 2.63029C88.3088 2.63029 87.6451 2.99398 87.1767 3.72136C86.708 4.44873 86.4703 5.48787 86.4641 6.83868V7.69597C86.4641 9.11177 86.7049 10.1769 87.1865 10.8913C87.6744 11.5992 88.4392 11.9532 89.4804 11.9532C90.372 11.9532 91.0357 11.755 91.4719 11.3589V9.15729H89.09V6.8095H94.8983V12.6351ZM97.1239 14.3885H100.54V0.204603H97.1239V14.3885ZM113.922 9.5859C113.876 10.573 113.61 11.4466 113.122 12.2064C112.634 12.9598 111.947 13.5442 111.062 13.9599C110.183 14.3756 109.178 14.5834 108.046 14.5834C106.178 14.5834 104.707 13.9761 103.633 12.7616C102.559 11.5472 102.022 9.83266 102.022 7.61806V6.91665C102.022 5.52682 102.263 4.31233 102.745 3.2732C103.233 2.22758 103.932 1.4223 104.844 0.857288C105.755 0.285787 106.809 0 108.006 0C109.731 0 111.117 0.454648 112.165 1.36387C113.213 2.2666 113.808 3.51354 113.952 5.1047H110.535C110.509 4.24092 110.291 3.6207 109.881 3.24402C109.47 2.86735 108.846 2.67901 108.006 2.67901C107.154 2.67901 106.529 2.99726 106.132 3.63368C105.736 4.27017 105.527 5.28654 105.508 6.6828V7.68627C105.508 9.19945 105.696 10.2808 106.073 10.9303C106.457 11.5797 107.115 11.9044 108.046 11.9044C108.833 11.9044 109.435 11.7193 109.851 11.3491C110.268 10.9789 110.489 10.3912 110.515 9.5859H113.922ZM122.037 9.44949C122.395 9.72879 122.574 10.1184 122.574 10.6185C122.574 11.0601 122.408 11.4043 122.076 11.6512C121.751 11.8914 121.305 12.0116 120.738 12.0116C119.854 12.0116 119.213 11.8329 118.816 11.4757C118.425 11.1121 118.23 10.5503 118.23 9.7905H114.794C114.794 10.7257 115.028 11.5537 115.497 12.2746C115.971 12.989 116.675 13.554 117.605 13.9696C118.542 14.3788 119.586 14.5834 120.738 14.5834C122.372 14.5834 123.657 14.2295 124.595 13.5216C125.532 12.8137 126 11.8394 126 10.5991C126 9.04685 125.233 7.82909 123.697 6.94583C123.065 6.58214 122.258 6.24449 121.276 5.93274C120.293 5.61449 119.606 5.30923 119.216 5.01702C118.825 4.71825 118.63 4.38703 118.63 4.02334C118.63 3.60771 118.806 3.26671 119.157 3.00047C119.515 2.72774 120 2.59126 120.612 2.59126C121.217 2.59126 121.695 2.75043 122.047 3.06867C122.405 3.38692 122.583 3.835 122.583 4.41299H126C126 3.54928 125.776 2.78288 125.327 2.11401C124.877 1.43856 124.247 0.918996 123.433 0.555307C122.626 0.191618 121.711 0.00977359 120.689 0.00977359C119.643 0.00977359 118.699 0.178635 117.859 0.516284C117.02 0.847513 116.368 1.31514 115.906 1.9191C115.451 2.51665 115.224 3.20828 115.224 3.99409C115.224 5.57226 116.144 6.81271 117.986 7.71552C118.552 7.99474 119.281 8.28373 120.173 8.5825C121.064 8.8812 121.686 9.17027 122.037 9.44949Z" fill="#F6F8FB"/>
</svg>
