<svg width="22" height="22" viewBox="0 0 22 22" fill="none" xmlns="http://www.w3.org/2000/svg">
<path fill-rule="evenodd" clip-rule="evenodd" d="M2 3.41735e-06C1.46957 3.41735e-06 0.960859 0.210717 0.585786 0.58579C0.210714 0.960863 0 1.46957 0 2V20C0 20.5304 0.210714 21.0391 0.585786 21.4142C0.960859 21.7893 1.46957 22 2 22H20C20.5304 22 21.0391 21.7893 21.4142 21.4142C21.7893 21.0391 22 20.5304 22 20V13C22 12.7348 21.8946 12.4804 21.7071 12.2929C21.5196 12.1054 21.2652 12 21 12C20.7348 12 20.4804 12.1054 20.2929 12.2929C20.1054 12.4804 20 12.7348 20 13V20H2V2H9C9.26522 2 9.51957 1.89465 9.70711 1.70711C9.89464 1.51957 10 1.26522 10 1C10 0.734787 9.89464 0.480433 9.70711 0.292897C9.51957 0.10536 9.26522 3.41735e-06 9 3.41735e-06H2ZM21.708 0.292003C21.894 0.478432 21.9989 0.730685 22 0.994003V7C22 7.26522 21.8946 7.51957 21.7071 7.70711C21.5196 7.89465 21.2652 8 21 8C20.7348 8 20.4804 7.89465 20.2929 7.70711C20.1054 7.51957 20 7.26522 20 7V3.414L9.708 13.708C9.61502 13.801 9.50465 13.8747 9.38317 13.9251C9.26169 13.9754 9.13149 14.0013 9 14.0013C8.86851 14.0013 8.73831 13.9754 8.61683 13.9251C8.49535 13.8747 8.38498 13.801 8.292 13.708C8.19902 13.615 8.12527 13.5047 8.07495 13.3832C8.02464 13.2617 7.99874 13.1315 7.99874 13C7.99874 12.8685 8.02464 12.7383 8.07495 12.6168C8.12527 12.4954 8.19902 12.385 8.292 12.292L18.586 2H15C14.7348 2 14.4804 1.89465 14.2929 1.70711C14.1054 1.51957 14 1.26522 14 1C14 0.734787 14.1054 0.480433 14.2929 0.292897C14.4804 0.10536 14.7348 3.41735e-06 15 3.41735e-06H21C21.1314 -0.000340501 21.2616 0.0252775 21.3831 0.0753871C21.5046 0.125497 21.615 0.199111 21.708 0.292003Z" fill="#2D73DC"/>
</svg>
