<svg width="30" height="30" viewBox="0 0 30 30" fill="none" xmlns="http://www.w3.org/2000/svg">
<path d="M15.0031 9.6875C14.0086 9.6875 13.0548 10.0826 12.3515 10.7858C11.6482 11.4891 11.2531 12.4429 11.2531 13.4375C11.2531 14.4321 11.6482 15.3859 12.3515 16.0892C13.0548 16.7924 14.0086 17.1875 15.0031 17.1875C15.9977 17.1875 16.9515 16.7924 17.6548 16.0892C18.3581 15.3859 18.7531 14.4321 18.7531 13.4375C18.7531 12.4429 18.3581 11.4891 17.6548 10.7858C16.9515 10.0826 15.9977 9.6875 15.0031 9.6875ZM12.8156 13.4375C12.8156 12.8573 13.0461 12.3009 13.4563 11.8907C13.8666 11.4805 14.423 11.25 15.0031 11.25C15.5833 11.25 16.1397 11.4805 16.5499 11.8907C16.9602 12.3009 17.1906 12.8573 17.1906 13.4375C17.1906 14.0177 16.9602 14.5741 16.5499 14.9843C16.1397 15.3945 15.5833 15.625 15.0031 15.625C14.423 15.625 13.8666 15.3945 13.4563 14.9843C13.0461 14.5741 12.8156 14.0177 12.8156 13.4375ZM23.125 20L16.82 26.6937C16.5863 26.9419 16.3043 27.1397 15.9913 27.2749C15.6783 27.4101 15.3409 27.4798 15 27.4798C14.6591 27.4798 14.3218 27.4101 14.0088 27.2749C13.6958 27.1397 13.4137 26.9419 13.18 26.6937L6.87502 20H6.89877L6.88814 19.9875L6.87502 19.9719C5.2567 18.0579 4.37071 15.6314 4.37502 13.125C4.37502 7.25688 9.13189 2.5 15 2.5C20.8681 2.5 25.625 7.25688 25.625 13.125C25.6293 15.6314 24.7433 18.0579 23.125 19.9719L23.1119 19.9875L23.1013 20H23.125ZM21.9106 18.9881C23.3032 17.3523 24.0663 15.2733 24.0625 13.125C24.0625 8.12 20.005 4.0625 15 4.0625C9.99502 4.0625 5.93752 8.12 5.93752 13.125C5.93361 15.2733 6.69669 17.3524 8.08939 18.9881L8.28189 19.215L14.3175 25.6219C14.4052 25.7149 14.5109 25.7891 14.6283 25.8398C14.7457 25.8905 14.8722 25.9166 15 25.9166C15.1279 25.9166 15.2544 25.8905 15.3717 25.8398C15.4891 25.7891 15.5949 25.7149 15.6825 25.6219L21.7181 19.215L21.9106 18.9881Z" fill="#2D73DC"/>
</svg>
