<svg width="1402" height="400" viewBox="0 0 1402 400" fill="none" xmlns="http://www.w3.org/2000/svg">
<path opacity="0.5" d="M1082 198.5C978.207 210.922 962.831 224.265 859.588 250.95C756.344 277.635 597.718 261.351 532.284 250.95C422.5 233.5 238.5 66 1 2" stroke="#F6F8FB" stroke-width="3"/>
<path opacity="0.5" d="M1105 251.5C817.664 251.5 651.454 333.44 562.929 361.943M1 285.982C13.2325 285.982 78.7272 312.968 109.945 326.461C146.473 346.451 249.345 388.629 368.611 397.425C440.111 402.698 481.346 388.211 562.929 361.943M1402 294.978C990.428 294.978 1040.76 333.458 896.774 374.437C752.787 415.416 727.303 396.149 562.929 361.943" stroke="#F6F8FB" stroke-width="3"/>
</svg>
