<svg width="26" height="16" viewBox="0 0 26 16" fill="none" xmlns="http://www.w3.org/2000/svg">
<path d="M1.09125 16C0.730834 16 0.450514 15.8565 0.250286 15.5695C0.0500571 15.2825 -0.0300343 14.9238 0.0100115 14.4933L1.63186 2.29596C1.71195 1.67414 1.89216 1.14798 2.17248 0.717488C2.49285 0.239163 2.95337 0 3.55406 0H9.08037C9.40073 0 9.66103 0.143498 9.86126 0.430493C10.0615 0.669656 10.1616 0.980567 10.1616 1.36323C10.1616 1.69806 10.1015 2.00897 9.9814 2.29596L6.13701 14.2063C5.97682 14.6846 5.73655 15.0912 5.41618 15.426C5.13586 15.8087 4.71538 16 4.15474 16H1.09125Z" fill="#2D73DC"/>
<path d="M16.9296 16C16.5692 16 16.2889 15.8565 16.0887 15.5695C15.8885 15.2825 15.8084 14.9238 15.8484 14.4933L17.4703 2.29596C17.5504 1.67414 17.7306 1.14798 18.0109 0.717488C18.3312 0.239163 18.7918 0 19.3925 0H24.9188C25.2391 0 25.4994 0.143498 25.6997 0.430493C25.8999 0.669656 26 0.980567 26 1.36323C26 1.69806 25.9399 2.00897 25.8198 2.29596L21.9754 14.2063C21.8152 14.6846 21.5749 15.0912 21.2546 15.426C20.9743 15.8087 20.5538 16 19.9931 16H16.9296Z" fill="#2D73DC"/>
</svg>










