<?xml version="1.0" encoding="utf-8"?>
<!-- Generator: Adobe Illustrator 23.1.0, SVG Export Plug-In . SVG Version: 6.00 Build 0)  -->
<svg version="1.1" id="Layer_1" xmlns="http://www.w3.org/2000/svg" xmlns:xlink="http://www.w3.org/1999/xlink" x="0px" y="0px"
	 viewBox="0 0 5762 306" style="enable-background:new 0 0 5762 306;" xml:space="preserve">
<style type="text/css">
	.st0{fill:#E50A0A;stroke:#000000;}
</style>
<path class="st0" d="M3841,146.2c64.6,19.3,261.7,63.1,413.5,70.2c177,8.3,399-47,626.4-103.7c319.5-79.6,649.5-161.9,880.1-73.9
	V305L1,305V38.9c13,3.9,29.9,9.6,50,16.4c79.6,27,207.8,70.4,328.8,79c311.8,21.9,468-5.8,701.9-47.3
	c79.8-14.2,168.6-29.9,275.8-45.9c268.6-40,493-26.6,563.5-2.2c64.6,19.3,230.7,65.4,378.8,95.4c185.1,37.5,578.4,62.7,999.8,0
	C3568.1,94.3,3773.3,120.4,3841,146.2z"/>
</svg>
