<?xml version="1.0" encoding="utf-8"?>
<!-- Generator: Adobe Illustrator 23.1.0, SVG Export Plug-In . SVG Version: 6.00 Build 0)  -->
<svg version="1.1" id="Layer_1" xmlns="http://www.w3.org/2000/svg" xmlns:xlink="http://www.w3.org/1999/xlink" x="0px" y="0px"
	 viewBox="0 0 60 60" style="enable-background:new 0 0 60 60;" xml:space="preserve">
<g>
	<path d="M51.3,22.3c-0.8,0-1.5,0.7-1.5,1.5s0.7,1.5,1.5,1.5c2.3,0,2.3,0,2.3,2.3v5c0,2.3,0,2.3-2.3,2.3c-0.8,0-1.5,0.7-1.5,1.5
		s0.7,1.5,1.5,1.5c4.9,0,5.3-2.3,5.3-5.3v-5C56.5,24.5,56.1,22.3,51.3,22.3z"/>
	<path d="M31.7,34.5c0.7-1.3,0.7-2.8,0-4c-0.7-1.2-2-2-3.5-2h-5.8c-0.5,0-0.8-0.3-0.9-0.5c-0.1-0.1-0.2-0.5,0-0.9l4.7-6.2
		c0.5-0.7,0.4-1.6-0.3-2.1c-0.7-0.5-1.6-0.4-2.1,0.3l-4.7,6.3c0,0-0.1,0.1-0.1,0.1c-0.7,1.3-0.7,2.8,0,4c0.7,1.3,2,2,3.5,2h5.8
		c0.5,0,0.8,0.3,0.9,0.5c0.1,0.1,0.2,0.5,0.1,0.9L23.9,39c-0.5,0.6-0.5,1.6,0.2,2.1c0.3,0.2,0.6,0.4,1,0.4c0.4,0,0.8-0.2,1.1-0.5
		l5.3-6.3C31.6,34.7,31.6,34.6,31.7,34.5z"/>
	<path d="M17.5,46c-9.1,0-11-1.9-11-11V25c0-9.1,1.9-11,11-11c0.8,0,1.5-0.7,1.5-1.5S18.3,11,17.5,11c-10.9,0-14,3.1-14,14v10
		c0,10.9,3.1,14,14,14c0.8,0,1.5-0.7,1.5-1.5S18.3,46,17.5,46z"/>
	<path d="M32.5,11c-0.8,0-1.5,0.7-1.5,1.5s0.7,1.5,1.5,1.5c9.1,0,11,1.9,11,11v10c0,9.1-1.9,11-11,11c-0.8,0-1.5,0.7-1.5,1.5
		s0.7,1.5,1.5,1.5c10.9,0,14-3.1,14-14V25C46.5,14.1,43.4,11,32.5,11z"/>
</g>
</svg>
