<?xml version="1.0" encoding="utf-8"?>
<!-- Generator: Adobe Illustrator 23.1.0, SVG Export Plug-In . SVG Version: 6.00 Build 0)  -->
<svg version="1.1" id="Layer_1" xmlns="http://www.w3.org/2000/svg" xmlns:xlink="http://www.w3.org/1999/xlink" x="0px" y="0px"
	 viewBox="0 0 24 24" style="enable-background:new 0 0 24 24;" xml:space="preserve">
<style type="text/css">
	.st0{fill-rule:evenodd;clip-rule:evenodd;fill:#292D32;}
</style>
<path class="st0" d="M21.6,6.8c-0.9-1.1-2.4-1.6-4.6-1.6h-0.2V5.2c0-0.4,0-0.9-0.1-1.3c-0.1-0.4-0.2-0.9-0.5-1.3
	c-0.6-0.9-1.7-1.3-3.4-1.3h-1.6c-1.7,0-2.8,0.4-3.4,1.3C7.5,2.9,7.4,3.4,7.3,3.9C7.2,4.3,7.3,4.8,7.3,5.2v0.1H7
	c-2.2,0-3.7,0.5-4.6,1.6c-0.9,1-1,2.4-0.8,3.7l0.7,8l0,0c0.1,1,0.4,2.2,1.3,3c0.9,0.8,2.3,1.2,4.4,1.2h8c2.1,0,3.5-0.4,4.4-1.2
	c0.9-0.8,1.2-2,1.3-3l0.7-7.4c0,0,0,0,0,0l0.1-0.6C22.6,9.2,22.5,7.9,21.6,6.8z M8.8,5.2c0-0.5,0-0.8,0-1.1c0-0.3,0.1-0.5,0.2-0.7
	c0.2-0.3,0.7-0.6,2.2-0.6h1.6c1.5,0,2,0.3,2.2,0.6c0.1,0.2,0.2,0.4,0.2,0.7c0,0.3,0,0.7,0,1.1v0L8.8,5.2L8.8,5.2z M3.5,7.8
	C4,7.2,5,6.8,7,6.8h10c2,0,3,0.5,3.5,1c0.5,0.6,0.6,1.4,0.5,2.6l0,0.2c-1.9,1.3-4,2.2-6.2,2.6V13c0,0,0,0,0,0c0-0.2,0-0.4,0-0.6
	c0-0.2-0.1-0.5-0.3-0.7c-0.2-0.2-0.6-0.3-0.7-0.3c-0.2,0-0.4,0-0.6,0c0,0,0,0,0,0h-2c0,0,0,0,0,0c-0.2,0-0.4,0-0.6,0
	c-0.2,0-0.5,0.1-0.7,0.3c-0.2,0.2-0.3,0.6-0.3,0.7c0,0.2,0,0.4,0,0.6c0,0,0,0,0,0v0.2C7.1,12.8,5,12,3.1,10.7l0-0.3l0,0
	C2.9,9.2,3,8.3,3.5,7.8z M13.3,13v1c0,0.3,0,0.5,0,0.7c0,0.2-0.1,0.3-0.1,0.3c0,0-0.2,0.3-1.1,0.3c-0.9,0-1.1-0.2-1.1-0.3
	c0,0-0.1-0.1-0.1-0.3c0-0.2,0-0.4,0-0.7v-1c0-0.1,0-0.2,0-0.2c0.1,0,0.2,0,0.2,0h2c0.1,0,0.2,0,0.2,0C13.3,12.8,13.3,12.9,13.3,13z
	 M20.2,18.4c-0.1,0.9-0.3,1.6-0.8,2c-0.5,0.5-1.5,0.9-3.4,0.9H8c-1.9,0-2.9-0.4-3.4-0.9c-0.5-0.5-0.7-1.1-0.8-2l-0.5-5.8
	c1.9,1.1,3.9,1.8,6,2.1c0,0.1,0,0.1,0,0.2c0,0.3,0.1,0.6,0.4,1c0.5,0.7,1.3,0.9,2.4,0.9c1.1,0,1.9-0.2,2.4-0.9
	c0.2-0.3,0.3-0.7,0.3-1c0-0.1,0-0.1,0-0.2c2.1-0.3,4.1-1.1,6-2.2L20.2,18.4z"/>
</svg>
