<?xml version="1.0" encoding="utf-8"?>
<!-- Generator: Adobe Illustrator 23.1.0, SVG Export Plug-In . SVG Version: 6.00 Build 0)  -->
<svg version="1.1" id="Layer_1" xmlns="http://www.w3.org/2000/svg" xmlns:xlink="http://www.w3.org/1999/xlink" x="0px" y="0px"
	 viewBox="0 0 20 20" style="enable-background:new 0 0 20 20;" xml:space="preserve">
<g>
	<path d="M16,6c0-0.6-0.4-1-1-1H1C0.4,5,0,5.4,0,6s0.4,1,1,1h14C15.6,7,16,6.6,16,6z"/>
	<path d="M18,10c0-0.6-0.4-1-1-1H3c-0.6,0-1,0.4-1,1s0.4,1,1,1h14C17.6,11,18,10.6,18,10z"/>
	<path d="M19,13H5c-0.6,0-1,0.4-1,1s0.4,1,1,1h14c0.6,0,1-0.4,1-1S19.6,13,19,13z"/>
</g>
</svg>
