<?xml version="1.0" encoding="utf-8"?>
<!-- Generator: Adobe Illustrator 23.1.0, SVG Export Plug-In . SVG Version: 6.00 Build 0)  -->
<svg version="1.1" id="Layer_1" xmlns="http://www.w3.org/2000/svg" xmlns:xlink="http://www.w3.org/1999/xlink" x="0px" y="0px"
	 viewBox="0 0 20 20" style="enable-background:new 0 0 20 20;" xml:space="preserve">
<style type="text/css">
	.st0{fill:#292D32;}
</style>
<g>
	<path class="st0" d="M14.5,19.1c-1,0-2-0.2-3-0.7c-1-0.4-2-1-3-1.7c-1-0.7-1.9-1.5-2.8-2.4c-0.9-0.9-1.7-1.8-2.4-2.8
		c-0.7-1-1.3-2-1.7-3c-0.4-1-0.7-2.1-0.7-3c0-0.7,0.1-1.3,0.4-1.9c0.2-0.6,0.6-1.2,1.1-1.7c0.7-0.7,1.4-1,2.2-1c0.3,0,0.7,0.1,1,0.2
		C6,1.3,6.3,1.5,6.5,1.9l1.9,2.7c0.2,0.3,0.3,0.5,0.4,0.7C9,5.6,9,5.8,9,6.1c0,0.3-0.1,0.7-0.3,1C8.6,7.3,8.4,7.6,8.2,7.8L7.7,8.3
		C7.8,8.5,8,8.8,8.3,9.2c0.4,0.4,0.7,0.8,1.2,1.3c0.4,0.4,0.8,0.8,1.3,1.2c0.4,0.4,0.7,0.5,0.9,0.6l0.5-0.5c0.3-0.3,0.5-0.5,0.8-0.6
		c0.5-0.3,1.1-0.3,1.7-0.1c0.2,0.1,0.5,0.2,0.7,0.4l2.8,2c0.3,0.2,0.6,0.5,0.7,0.8c0.1,0.3,0.2,0.6,0.2,1c0,0.4-0.1,0.8-0.3,1.2
		c-0.2,0.4-0.4,0.7-0.7,1c-0.5,0.5-1,0.9-1.6,1.2C15.9,19,15.2,19.1,14.5,19.1z M4.7,2.4C4.2,2.4,3.8,2.6,3.5,3
		C3.1,3.3,2.8,3.7,2.7,4.1C2.5,4.5,2.4,5,2.4,5.5C2.4,6.2,2.6,7,3,7.9c0.4,0.9,0.9,1.8,1.6,2.7c0.7,0.9,1.4,1.8,2.2,2.6
		c0.8,0.8,1.7,1.6,2.6,2.3c0.9,0.7,1.8,1.2,2.7,1.6c1.4,0.6,2.7,0.7,3.8,0.3c0.4-0.2,0.8-0.4,1.1-0.8c0.2-0.2,0.3-0.4,0.4-0.7
		c0.1-0.2,0.1-0.4,0.1-0.6c0-0.1,0-0.2-0.1-0.4c0,0-0.1-0.1-0.2-0.2l-2.8-2c-0.2-0.1-0.3-0.2-0.4-0.2c-0.1-0.1-0.2-0.1-0.4,0
		c-0.1,0.1-0.3,0.2-0.5,0.4l-0.6,0.6c-0.4,0.4-0.9,0.4-1.3,0.3L11,13.7c-0.3-0.2-0.8-0.5-1.2-0.9c-0.4-0.3-0.8-0.7-1.4-1.3
		c-0.5-0.5-0.9-0.9-1.3-1.4C6.8,9.7,6.5,9.3,6.3,9L6.2,8.7C6.1,8.5,6.1,8.4,6.1,8.3c0-0.3,0.1-0.6,0.4-0.9l0.6-0.6
		c0.2-0.2,0.3-0.3,0.4-0.4c0.1-0.1,0.1-0.2,0.1-0.2c0,0,0-0.1-0.1-0.2C7.4,5.7,7.3,5.6,7.2,5.4L5.3,2.7C5.2,2.6,5.1,2.5,5,2.5
		C4.9,2.4,4.8,2.4,4.7,2.4z M11.5,12.4C11.5,12.4,11.5,12.4,11.5,12.4L11.5,12.4z M7.5,8.5L7.5,8.5C7.5,8.5,7.5,8.5,7.5,8.5z"/>
</g>
</svg>
