<?xml version="1.0" encoding="utf-8"?>
<!-- Generator: Adobe Illustrator 23.1.0, SVG Export Plug-In . SVG Version: 6.00 Build 0)  -->
<svg version="1.1" id="Layer_1" xmlns="http://www.w3.org/2000/svg" xmlns:xlink="http://www.w3.org/1999/xlink" x="0px" y="0px"
	 viewBox="0 0 24 24" style="enable-background:new 0 0 24 24;" xml:space="preserve">
<style type="text/css">
	.st0{fill-rule:evenodd;clip-rule:evenodd;}
</style>
<path class="st0" d="M20.7,4.7c0.4-0.4,0.4-1,0-1.4c-0.4-0.4-1-0.4-1.4,0L12,10.6L4.7,3.3c-0.4-0.4-1-0.4-1.4,0
	c-0.4,0.4-0.4,1,0,1.4l7.3,7.3l-7.3,7.3c-0.4,0.4-0.4,1,0,1.4c0.4,0.4,1,0.4,1.4,0l7.3-7.3l7.3,7.3c0.4,0.4,1,0.4,1.4,0
	c0.4-0.4,0.4-1,0-1.4L13.4,12L20.7,4.7z"/>
</svg>
