<svg width="20" height="20" viewBox="0 0 20 20" fill="none" xmlns="http://www.w3.org/2000/svg">
<path d="M16.692 15.2049C17.1027 15.6156 17.1027 16.2814 16.692 16.692C16.2814 17.1027 15.6156 17.1027 15.2049 16.692L10 11.4871L4.7951 16.692C4.38445 17.1027 3.71865 17.1027 3.30799 16.692C2.89734 16.2814 2.89734 15.6156 3.30799 15.2049L8.51289 10L3.30799 4.7951C2.89734 4.38445 2.89734 3.71865 3.30799 3.30799C3.71865 2.89734 4.38445 2.89734 4.7951 3.30799L10 8.51289L15.2049 3.30799C15.6156 2.89734 16.2814 2.89734 16.692 3.30799C17.1027 3.71865 17.1027 4.38445 16.692 4.7951L11.4871 10L16.692 15.2049Z" fill="#DA0606"/>
</svg>
