<?xml version="1.0" encoding="utf-8"?>
<!-- Generator: Adobe Illustrator 23.1.0, SVG Export Plug-In . SVG Version: 6.00 Build 0)  -->
<svg version="1.1" id="Layer_1" xmlns="http://www.w3.org/2000/svg" xmlns:xlink="http://www.w3.org/1999/xlink" x="0px" y="0px"
	 viewBox="0 0 30 30" style="enable-background:new 0 0 30 30;" xml:space="preserve">
<style type="text/css">
	.st0{fill-rule:evenodd;clip-rule:evenodd;}
</style>
<g>
	<path class="st0" d="M20,0H10C4.5,0,0,4.5,0,10v10c0,5.5,4.5,10,10,10h10c5.5,0,10-4.5,10-10V10C30,4.5,25.5,0,20,0z M28,20
		c0,4.4-3.6,8-8,8H10c-4.4,0-8-3.6-8-8V10c0-4.4,3.6-8,8-8h10c4.4,0,8,3.6,8,8V20z"/>
	<path class="st0" d="M15.3,7c-1.3,0-3,0-4.3,0v15.8c1.3,0.2,3,0.2,4.3,0.2c5.2-0.2,4.7-3.9,4.7-8C20,10.6,20.5,7,15.3,7z
		 M16.8,18.9c-0.4,1.2-1.1,1.4-2.6,1.2V9.7c1.5,0,2.4,0,2.6,1.4C17,11.8,17,18.2,16.8,18.9z"/>
</g>
</svg>
