<?xml version="1.0" encoding="utf-8"?>
<!-- Generator: Adobe Illustrator 23.1.0, SVG Export Plug-In . SVG Version: 6.00 Build 0)  -->
<svg version="1.1" id="Layer_1" xmlns="http://www.w3.org/2000/svg" xmlns:xlink="http://www.w3.org/1999/xlink" x="0px" y="0px"
	 viewBox="0 0 40 40" style="enable-background:new 0 0 40 40;" xml:space="preserve">
<g>
	<path d="M30.6,12.8l-0.5-2.2h0.7c0.6,0,1-0.4,1-1s-0.4-1-1-1h-1.2l-0.4-2.1c-0.4-2.1-1.4-4.1-5-4.1h-8.5c-3.7,0-4.6,2.1-5,4.1
		l-0.4,2.1H9.1c-0.6,0-1,0.4-1,1s0.4,1,1,1h0.7l-0.5,2.2C8,13.6,7.7,15,7.6,16.4l-0.7,7.4c-0.1,0.9,0.2,1.9,0.9,2.6
		c0.7,0.7,1.6,1.1,2.6,1.1h2.3c2,0,2.4-1.2,2.7-1.9l0.3-0.7c0.3-0.8,0.3-1,1.4-1h6.2c1,0,1,0.1,1.4,1l0.2,0.7
		c0.3,0.8,0.6,1.9,2.7,1.9h2.3c1,0,1.9-0.4,2.6-1.1c0.6-0.7,1-1.6,0.9-2.6l-0.7-7.4C32.3,15,32,13.6,30.6,12.8z M11.6,12.2l1.1-5.3
		c0.3-1.6,0.7-2.6,3.1-2.6h8.5c2.4,0,2.7,1,3.1,2.6l1.1,5.3h-0.3c-0.2,0-0.3,0-0.5,0H12.3c-0.2,0-0.3,0-0.5,0H11.6z M31.1,24
		c0,0.4-0.1,0.8-0.4,1.1c-0.3,0.3-0.7,0.5-1.1,0.5h-2.3c-0.6,0-0.6,0-0.8-0.6l-0.3-0.7c-0.4-1.3-1-2.3-3.2-2.3h-6.2
		c-2.5,0-2.9,1.4-3.2,2.3l-0.3,0.7c-0.2,0.6-0.2,0.6-0.8,0.6h-2.3c-0.4,0-0.8-0.2-1.1-0.5C9,24.7,8.9,24.4,8.9,24l0.7-7.4
		c0.1-1.4,0.2-2.3,2.4-2.4H28c2.1,0.1,2.2,1,2.4,2.4L31.1,24C31.1,24,31.1,24,31.1,24z"/>
	<path d="M16.4,17h-3.6c-0.6,0-1,0.4-1,1s0.4,1,1,1h3.6c0.6,0,1-0.4,1-1S16.9,17,16.4,17z"/>
	<path d="M27.2,17h-3.6c-0.6,0-1,0.4-1,1s0.4,1,1,1h3.6c0.6,0,1-0.4,1-1S27.8,17,27.2,17z"/>
	<path d="M20,27.3c-0.6,0-1,0.4-1,1V30c0,0.6,0.4,1,1,1s1-0.4,1-1v-1.7C21,27.8,20.6,27.3,20,27.3z"/>
	<path d="M20,34c-0.6,0-1,0.4-1,1v1.7c0,0.6,0.4,1,1,1s1-0.4,1-1V35C21,34.4,20.6,34,20,34z"/>
	<path d="M5.2,29c-0.5-0.1-1.1,0.2-1.2,0.7l-1.7,6.7c-0.1,0.5,0.2,1.1,0.7,1.2c0.1,0,0.2,0,0.2,0c0.4,0,0.9-0.3,1-0.8L6,30.2
		C6.1,29.7,5.8,29.2,5.2,29z"/>
	<path d="M37.6,36.4L36,29.8c-0.1-0.5-0.7-0.9-1.2-0.7c-0.5,0.1-0.9,0.7-0.7,1.2l1.7,6.7c0.1,0.5,0.5,0.8,1,0.8c0.1,0,0.2,0,0.2,0
		C37.4,37.5,37.8,37,37.6,36.4z"/>
</g>
</svg>
