<?xml version="1.0" encoding="utf-8"?>
<!-- Generator: Adobe Illustrator 23.1.0, SVG Export Plug-In . SVG Version: 6.00 Build 0)  -->
<svg version="1.1" id="Layer_1" xmlns="http://www.w3.org/2000/svg" xmlns:xlink="http://www.w3.org/1999/xlink" x="0px" y="0px"
	 viewBox="0 0 60 60" style="enable-background:new 0 0 60 60;" xml:space="preserve">
<g>
	<path d="M25,56.5c-0.4,0-0.8-0.1-1.1-0.2c-0.9-0.3-2.5-1.5-2.5-5.1V34.7h-6.2c-3.1,0-4.2-1.4-4.6-2.3c-0.4-0.9-0.7-2.6,1.3-5
		L30.8,5.9c2.4-2.7,4.3-2.6,5.2-2.2C37,4,38.5,5.2,38.5,8.8v16.5h6.2c3.1,0,4.3,1.4,4.6,2.3c0.4,0.9,0.7,2.6-1.4,5L29.1,54.1
		C27.4,56,26,56.5,25,56.5z M35,6.5c-0.2,0-0.8,0.2-1.9,1.4L14.2,29.4c-0.8,0.9-0.9,1.6-0.8,1.8c0.1,0.2,0.7,0.5,1.9,0.5H23
		c0.8,0,1.5,0.7,1.5,1.5v18c0,1.7,0.4,2.2,0.5,2.3c0.1,0,0.8-0.1,1.9-1.4l18.9-21.5c0.8-0.9,1-1.6,0.9-1.8c-0.1-0.2-0.7-0.5-1.9-0.5
		H37c-0.8,0-1.5-0.7-1.5-1.5v-18C35.5,7.1,35.1,6.6,35,6.5C35,6.5,35,6.5,35,6.5z"/>
</g>
</svg>
