<?xml version="1.0" encoding="utf-8"?>
<!-- Generator: Adobe Illustrator 23.1.0, SVG Export Plug-In . SVG Version: 6.00 Build 0)  -->
<svg version="1.1" id="Layer_1" xmlns="http://www.w3.org/2000/svg" xmlns:xlink="http://www.w3.org/1999/xlink" x="0px" y="0px"
	 viewBox="0 0 20 20" style="enable-background:new 0 0 20 20;" xml:space="preserve">
<g>
	<path d="M10,11.8c-0.4,0-0.8,0.3-0.8,0.8V15c0,0.4,0.3,0.8,0.8,0.8s0.8-0.3,0.8-0.8v-2.5C10.8,12.1,10.4,11.8,10,11.8z"/>
	<path d="M17.9,6.4l-5.8-4.6c-1.2-0.9-3-0.9-4.2,0L2.1,6.4C1.3,7.1,0.8,8.4,1,9.5l1.1,6.6c0.3,1.6,1.7,2.8,3.3,2.8h9.3
		c1.5,0,3-1.2,3.3-2.8L19,9.5C19.2,8.4,18.7,7.1,17.9,6.4z M16.5,15.9c-0.1,0.8-1,1.5-1.8,1.5H5.3c-0.8,0-1.7-0.7-1.8-1.5L2.4,9.3
		C2.3,8.7,2.6,7.9,3.1,7.6l5.8-4.6l0,0C9.2,2.7,9.6,2.6,10,2.6c0.4,0,0.8,0.1,1.1,0.4l5.8,4.6c0.4,0.3,0.7,1.2,0.7,1.7L16.5,15.9z"
		/>
</g>
</svg>
