<?xml version="1.0" encoding="utf-8"?>
<!-- Generator: Adobe Illustrator 23.1.0, SVG Export Plug-In . SVG Version: 6.00 Build 0)  -->
<svg version="1.1" id="Layer_1" xmlns="http://www.w3.org/2000/svg" xmlns:xlink="http://www.w3.org/1999/xlink" x="0px" y="0px"
	 viewBox="0 0 40 40" style="enable-background:new 0 0 40 40;" xml:space="preserve">
<g>
	<path d="M36.7,17.3l-2.3-2.6c-0.3-0.3-0.5-1-0.5-1.4v-2.8c0-2.3-1.9-4.2-4.2-4.2h-2.8c-0.4,0-1.1-0.3-1.4-0.5l-2.6-2.3
		c-1.6-1.3-4-1.3-5.5,0c0,0,0,0,0,0l-2.6,2.3c-0.3,0.3-1,0.5-1.4,0.5h-2.9C8,6.1,6.1,8,6.1,10.4v2.9c0,0.4-0.3,1.1-0.5,1.4l-2.3,2.7
		c-1.3,1.5-1.3,3.9,0,5.5l2.2,2.6c0.3,0.3,0.5,1,0.5,1.4v2.9c0,2.3,1.9,4.2,4.2,4.2h2.9c0.4,0,1.1,0.3,1.4,0.5l2.6,2.3
		c0.8,0.7,1.8,1,2.7,1c1,0,2-0.3,2.7-1l2.6-2.3c0.3-0.3,1-0.5,1.4-0.5h2.8c2.3,0,4.2-1.9,4.2-4.2v-2.8c0-0.4,0.3-1.1,0.5-1.4
		l2.3-2.6C38,21.2,38,18.8,36.7,17.3z M35.2,21.5l-2.3,2.6c-0.6,0.7-1,1.8-1,2.8v2.8c0,1.2-1,2.2-2.2,2.2h-2.8c-0.9,0-2.1,0.4-2.8,1
		l-2.6,2.3c-0.8,0.7-2.1,0.7-2.9,0l-2.6-2.3c-0.7-0.6-1.8-1-2.8-1h-2.9c-1.2,0-2.2-1-2.2-2.2v-2.9c0-0.9-0.4-2-1-2.7l-2.2-2.6
		c-0.7-0.8-0.7-2.1,0-2.9l2.3-2.7c0.6-0.7,1-1.9,1-2.7v-2.9c0-1.2,1-2.2,2.2-2.2h2.9c0.9,0,2.1-0.4,2.8-1l2.6-2.3
		c0.8-0.7,2.1-0.7,2.9,0l2.6,2.3c0.7,0.6,1.8,1,2.8,1h2.8c1.2,0,2.2,1,2.2,2.2v2.8c0,0.9,0.4,2.1,1,2.8l2.3,2.6
		C35.9,19.3,35.9,20.7,35.2,21.5z"/>
	<path d="M25.9,16.7H23l0.3-2.2c0.3-1.2-0.5-2.5-1.6-2.9c-1-0.4-2.3,0-2.9,0.9l-1.9,2.9c-0.4-0.5-1-0.8-2-0.8h-0.8
		c-2.1,0-2.6,1.4-2.6,2.5v7.6c0,1.1,0.4,2.5,2.6,2.5h0.8c1.1,0,1.7-0.4,2.1-0.9l1.3,1c0.6,0.5,1.5,0.7,2.1,0.7h3
		c1.4,0,2.8-1,3.1-2.3l1.9-5.7c0.3-0.8,0.2-1.7-0.3-2.3C27.6,17,26.8,16.7,25.9,16.7z M15.4,24.7c0,0.3-0.1,0.4,0,0.4
		c0,0-0.1,0.1-0.5,0.1h-0.8c-0.4,0-0.5-0.1-0.5-0.1h0c0,0-0.1-0.1-0.1-0.4v-7.6c0-0.3,0-0.4,0-0.4c0,0,0.1-0.1,0.5-0.1h0.8
		c0.4,0,0.5,0.1,0.5,0.1c0,0,0.1,0.1,0.1,0.4V24.7z M26.4,19.4l-1.9,5.8c-0.1,0.4-0.7,0.9-1.2,0.9h-3c-0.3,0-0.7-0.1-0.8-0.2
		l-2.2-1.7v-6l3.1-4.5c0.1-0.1,0.4-0.2,0.6-0.2c0.2,0.1,0.4,0.4,0.3,0.6L21,16.6c-0.1,0.5,0.1,1.1,0.4,1.5c0.3,0.4,0.8,0.6,1.3,0.6
		h3.1c0.2,0,0.4,0.1,0.5,0.2C26.5,19,26.5,19.2,26.4,19.4z"/>
</g>
</svg>
