<?xml version="1.0" encoding="utf-8"?>
<!-- Generator: Adobe Illustrator 23.1.0, SVG Export Plug-In . SVG Version: 6.00 Build 0)  -->
<svg version="1.1" id="Layer_1" xmlns="http://www.w3.org/2000/svg" xmlns:xlink="http://www.w3.org/1999/xlink" x="0px" y="0px"
	 viewBox="0 0 30 30" style="enable-background:new 0 0 30 30;" xml:space="preserve">
<path d="M26.2,15c0-0.1,0-0.3-0.1-0.4l-1.8-3.1c0,0,0,0,0,0l-1.8-3.1C22,7.5,21,7,20,7h-1.2V4.6c0-0.4-0.3-0.8-0.8-0.8H8.7
	C6,3.8,3.8,6,3.8,8.8v8.3v3.1c0,2.1,1.7,3.9,3.9,3.9h0.4c0.3,1.2,1.4,2.1,2.7,2.1c1.3,0,2.4-0.9,2.7-2.1h2.9
	c0.3,1.2,1.4,2.1,2.7,2.1s2.4-0.9,2.7-2.1h0.4c2.1,0,3.9-1.7,3.9-3.9v-3.1c0,0,0,0,0,0V15z M24.7,16.3h-2.4c-0.2,0-0.3-0.1-0.3-0.3
	v-3.1c0-0.2,0.1-0.3,0.3-0.3h0.9l1.5,2.6V16.3z M5.3,8.8c0-1.9,1.5-3.4,3.4-3.4h8.6v2.4V15c0,0.7-0.6,1.3-1.3,1.3H5.3V8.8z
	 M10.8,24.7c-0.7,0-1.3-0.6-1.3-1.3c0-0.7,0.6-1.3,1.3-1.3c0.7,0,1.3,0.6,1.3,1.3c0,0,0,0,0,0C12.2,24.1,11.6,24.7,10.8,24.7z
	 M19.2,24.7c-0.7,0-1.3-0.6-1.3-1.3s0.6-1.3,1.3-1.3s1.3,0.6,1.3,1.3S19.9,24.7,19.2,24.7z M24.7,20.2c0,1.3-1.1,2.4-2.4,2.4h-0.4
	c0-0.1-0.1-0.2-0.1-0.2c0-0.1,0-0.1-0.1-0.2c-0.1-0.2-0.1-0.3-0.2-0.4c0,0,0,0,0,0c-0.1-0.1-0.2-0.3-0.3-0.4c0,0-0.1-0.1-0.1-0.1
	c-0.1-0.1-0.2-0.1-0.3-0.2c-0.1,0-0.1-0.1-0.2-0.1c-0.1-0.1-0.2-0.1-0.3-0.2c-0.1,0-0.1-0.1-0.2-0.1c-0.1,0-0.2-0.1-0.3-0.1
	c-0.1,0-0.1,0-0.2,0c-0.2,0-0.3-0.1-0.5-0.1s-0.4,0-0.5,0.1c-0.1,0-0.1,0-0.2,0c-0.1,0-0.2,0.1-0.3,0.1c-0.1,0-0.1,0.1-0.2,0.1
	c-0.1,0-0.2,0.1-0.3,0.2c-0.1,0-0.1,0.1-0.2,0.1c-0.1,0.1-0.2,0.1-0.3,0.2c0,0-0.1,0.1-0.1,0.1c-0.1,0.1-0.2,0.2-0.3,0.4
	c0,0,0,0,0,0c-0.1,0.1-0.2,0.3-0.2,0.4c0,0,0,0.1-0.1,0.2c0,0.1-0.1,0.2-0.1,0.2h-2.9c0-0.1-0.1-0.1-0.1-0.2c0-0.1,0-0.1-0.1-0.2
	c-0.1-0.1-0.1-0.3-0.2-0.4c0,0,0-0.1-0.1-0.1c-0.1-0.1-0.2-0.2-0.3-0.3c0,0-0.1-0.1-0.1-0.1c-0.1-0.1-0.2-0.1-0.2-0.2
	c-0.1,0-0.1-0.1-0.2-0.1c-0.1-0.1-0.2-0.1-0.3-0.1c-0.1,0-0.1-0.1-0.2-0.1c-0.1,0-0.2-0.1-0.3-0.1c-0.1,0-0.1,0-0.2,0
	c-0.2,0-0.3-0.1-0.5-0.1c0,0,0,0,0,0c0,0,0,0,0,0s0,0,0,0c-0.2,0-0.4,0-0.5,0.1c-0.1,0-0.1,0-0.2,0c-0.1,0-0.2,0.1-0.3,0.1
	c-0.1,0-0.1,0-0.2,0.1c-0.1,0-0.2,0.1-0.3,0.2c0,0-0.1,0.1-0.1,0.1c-0.1,0.1-0.2,0.2-0.3,0.2c0,0-0.1,0.1-0.1,0.1
	c-0.2,0.2-0.4,0.5-0.6,0.8c0,0,0,0.1,0,0.1c0,0.1-0.1,0.2-0.1,0.3H7.7c-1.3,0-2.4-1.1-2.4-2.4v-2.4H16c1.6,0,2.8-1.3,2.8-2.8V8.5H20
	c0.5,0,0.9,0.3,1.2,0.7l1.1,2h0h0c-1,0-1.8,0.8-1.8,1.8V16c0,1,0.8,1.8,1.8,1.8h0h2.4V20.2z"/>
</svg>
