<?xml version="1.0" encoding="utf-8"?>
<!-- Generator: Adobe Illustrator 23.1.0, SVG Export Plug-In . SVG Version: 6.00 Build 0)  -->
<svg version="1.1" id="Layer_1" xmlns="http://www.w3.org/2000/svg" xmlns:xlink="http://www.w3.org/1999/xlink" x="0px" y="0px"
	 viewBox="0 0 24 24" style="enable-background:new 0 0 24 24;" xml:space="preserve">
<g>
	<path d="M19,8.8c2.1,0,3.8-1.7,3.8-3.8S21.1,1.3,19,1.3S15.3,2.9,15.3,5S16.9,8.8,19,8.8z M19,2.8c1.2,0,2.3,1,2.3,2.3
		s-1,2.3-2.3,2.3s-2.3-1-2.3-2.3S17.8,2.8,19,2.8z"/>
	<path d="M7,13.8h5c0.4,0,0.8-0.3,0.8-0.8s-0.3-0.8-0.8-0.8H7c-0.4,0-0.8,0.3-0.8,0.8S6.6,13.8,7,13.8z"/>
	<path d="M7,17.8h9c0.4,0,0.8-0.3,0.8-0.8s-0.3-0.8-0.8-0.8H7c-0.4,0-0.8,0.3-0.8,0.8S6.6,17.8,7,17.8z"/>
	<path d="M22,9.3c-0.4,0-0.8,0.3-0.8,0.8v5c0,4.6-1.6,6.3-6.3,6.3H9c-4.6,0-6.3-1.6-6.3-6.3V9c0-4.6,1.6-6.3,6.3-6.3h5
		c0.4,0,0.8-0.3,0.8-0.8S14.4,1.3,14,1.3H9C3.6,1.3,1.3,3.6,1.3,9v6c0,5.4,2.3,7.8,7.8,7.8h6c5.4,0,7.8-2.3,7.8-7.8v-5
		C22.8,9.6,22.4,9.3,22,9.3z"/>
</g>
</svg>
