<?xml version="1.0" encoding="utf-8"?>
<!-- Generator: Adobe Illustrator 23.1.0, SVG Export Plug-In . SVG Version: 6.00 Build 0)  -->
<svg version="1.1" id="Layer_1" xmlns="http://www.w3.org/2000/svg" xmlns:xlink="http://www.w3.org/1999/xlink" x="0px" y="0px"
	 viewBox="0 0 40 40" style="enable-background:new 0 0 40 40;" xml:space="preserve">
<path d="M32.9,23c-0.5-0.5-1.7-0.8-3.5-0.8c-1.4,0-2.8,0.1-4.2,0.3c-0.7-0.4-1.4-0.8-2-1.4c-1.5-1.4-2.8-3.3-3.5-5.5
	c0-0.2,0.1-0.4,0.1-0.6c0,0,0.8-4.8,0.6-6.4c0-0.2-0.1-0.3-0.1-0.5L20.2,8C20,7.5,19.5,6.9,18.8,7l-0.4,0c-0.8,0-1.4,0.4-1.6,1
	c-0.5,1.9,0,4.7,1,8.4l-0.2,0.6c-0.7,1.7-1.5,3.4-2.3,4.9L15.1,22c-0.8,1.6-1.5,2.9-2.2,4l-0.7,0.4c-0.1,0-1.2,0.6-1.5,0.8
	c-2.3,1.4-3.8,2.9-4.1,4.2c-0.1,0.4,0,0.9,0.4,1.1l0.7,0.3C8,33,8.3,33,8.6,33.1c1.6,0,3.6-2.1,6.2-6.7c3.1-1,6.3-1.8,9.5-2.3
	c2.3,1.3,5.2,2.2,7,2.2c0.3,0,0.6,0,0.8-0.1c0.3-0.1,0.6-0.3,0.8-0.6c0.3-0.5,0.4-1.2,0.3-2C33.2,23.4,33.1,23.2,32.9,23L32.9,23z
	 M8.3,31.8c0.3-0.8,1.5-2.4,3.3-3.9c0.1-0.1,0.4-0.3,0.6-0.6C10.3,30.3,9.1,31.4,8.3,31.8L8.3,31.8z M18.7,7.8
	c0.5,0,0.8,1.3,0.9,2.6s-0.3,2.1-0.6,2.8c-0.3-1-0.4-2.5-0.4-3.5C18.5,9.7,18.4,7.8,18.7,7.8z M15.6,24.9c0.4-0.7,0.8-1.4,1.1-2.1
	c1-1.8,1.6-3.2,2-4.4c0.8,1.6,2,3,3.3,4.1c0.2,0.1,0.3,0.3,0.5,0.4C19.9,23.5,17.6,24.1,15.6,24.9z M32.4,24.8
	c-0.2,0.1-0.6,0.2-0.9,0.2c-1,0-2.2-0.4-3.8-1.2c0.6,0,1.2-0.1,1.8-0.1c1,0,1.3,0,2.2,0.2C32.5,24.2,32.5,24.7,32.4,24.8L32.4,24.8z
	"/>
<path d="M35.9,8.9c-0.9-1.2-2.1-2.6-3.4-3.9c-1.3-1.3-2.7-2.5-3.9-3.4c-2-1.5-3-1.6-3.6-1.6H5.6C3.9,0,2.5,1.4,2.5,3.1v33.8
	c0,1.7,1.4,3.1,3.1,3.1h28.8c1.7,0,3.1-1.4,3.1-3.1V12.5C37.5,11.9,37.3,11,35.9,8.9z M30.7,6.8c1.2,1.2,2.1,2.3,2.8,3.2h-6V4
	C28.4,4.7,29.5,5.6,30.7,6.8z M35,36.9c0,0.3-0.3,0.6-0.6,0.6H5.6c-0.2,0-0.3-0.1-0.4-0.2C5.1,37.2,5,37,5,36.9V3.1
	c0-0.3,0.3-0.6,0.6-0.6H25v8.8c0,0.3,0.1,0.6,0.4,0.9c0.2,0.2,0.6,0.4,0.9,0.4H35V36.9z"/>
</svg>
