<?xml version="1.0" encoding="utf-8"?>
<!-- Generator: Adobe Illustrator 23.1.0, SVG Export Plug-In . SVG Version: 6.00 Build 0)  -->
<svg version="1.1" id="Layer_1" xmlns="http://www.w3.org/2000/svg" xmlns:xlink="http://www.w3.org/1999/xlink" x="0px" y="0px"
	 viewBox="0 0 40 40" style="enable-background:new 0 0 40 40;" xml:space="preserve">
<g>
	<path d="M30,10.7h-1.1V8.3c0-4.1-1.9-6-6-6h-5.8c-4.1,0-6,1.9-6,6v2.3H10c-3.9,0-6,2.1-6,6V25c0,3.9,2.1,6,6,6h2.3v0.7
		c0,3.9,2.1,6,6,6h3.3c3.9,0,6-2.1,6-6V31H30c3.9,0,6-2.1,6-6v-8.3C36,12.8,33.9,10.7,30,10.7z M13.1,8.3c0-3,1-4,4-4h5.8
		c3,0,4,1,4,4v2.3H13.1V8.3z M25.7,31.7c0,2.8-1.2,4-4,4h-3.3c-2.8,0-4-1.2-4-4V30c0,0,0,0,0,0v-4h11.3V31.7z M34,25
		c0,2.8-1.2,4-4,4h-2.3v-3h0.7c0.6,0,1-0.4,1-1s-0.4-1-1-1h-1.7h0H13.3h0h-1.7c-0.6,0-1,0.4-1,1s0.4,1,1,1h0.7v3H10
		c-2.8,0-4-1.2-4-4v-8.3c0-2.8,1.2-4,4-4h2.1h15.8H30c2.8,0,4,1.2,4,4V25z"/>
	<path d="M16.7,17.3h-5c-0.6,0-1,0.4-1,1s0.4,1,1,1h5c0.6,0,1-0.4,1-1S17.2,17.3,16.7,17.3z"/>
</g>
</svg>
