<?xml version="1.0" encoding="utf-8"?>
<!-- Generator: Adobe Illustrator 23.1.0, SVG Export Plug-In . SVG Version: 6.00 Build 0)  -->
<svg version="1.1" id="Layer_1" xmlns="http://www.w3.org/2000/svg" xmlns:xlink="http://www.w3.org/1999/xlink" x="0px" y="0px"
	 viewBox="0 0 24 24" style="enable-background:new 0 0 24 24;" xml:space="preserve">
<style type="text/css">
	.st0{fill:#292D32;}
</style>
<g>
	<path class="st0" d="M11.5,1.3C5.8,1.3,1.3,5.8,1.3,11.5c0,5.7,4.6,10.3,10.3,10.3c5.7,0,10.3-4.6,10.3-10.3
		C21.8,5.8,17.2,1.3,11.5,1.3z M11.5,20.3c-4.8,0-8.8-3.9-8.8-8.8c0-4.8,3.9-8.8,8.8-8.8c4.8,0,8.8,3.9,8.8,8.8
		C20.3,16.3,16.3,20.3,11.5,20.3z"/>
	<path class="st0" d="M22.5,21.5l-2-2c-0.3-0.3-0.8-0.3-1.1,0s-0.3,0.8,0,1.1l2,2c0.1,0.1,0.3,0.2,0.5,0.2s0.4-0.1,0.5-0.2
		C22.8,22.2,22.8,21.8,22.5,21.5z"/>
</g>
</svg>
