<?xml version="1.0" encoding="utf-8"?>
<!-- Generator: Adobe Illustrator 23.1.0, SVG Export Plug-In . SVG Version: 6.00 Build 0)  -->
<svg version="1.1" id="Layer_1" xmlns="http://www.w3.org/2000/svg" xmlns:xlink="http://www.w3.org/1999/xlink" x="0px" y="0px"
	 viewBox="0 0 17.3 17.3" style="enable-background:new 0 0 17.3 17.3;" xml:space="preserve">
<path d="M17,16l-3.1-3.1c1.1-1.4,1.8-3.1,1.8-5c0-4.3-3.5-7.9-7.9-7.9C3.5,0,0,3.5,0,7.9c0,4.3,3.5,7.9,7.9,7.9c1.9,0,3.6-0.7,5-1.8
	L16,17c0.1,0.1,0.3,0.2,0.5,0.2s0.4-0.1,0.5-0.2C17.3,16.7,17.3,16.3,17,16z M1.5,7.9c0-3.5,2.9-6.4,6.4-6.4c3.5,0,6.4,2.9,6.4,6.4
	c0,3.5-2.9,6.4-6.4,6.4C4.4,14.3,1.5,11.4,1.5,7.9z"/>
</svg>
