<?xml version="1.0" encoding="utf-8"?>
<!-- Generator: Adobe Illustrator 23.1.0, SVG Export Plug-In . SVG Version: 6.00 Build 0)  -->
<svg version="1.1" id="Layer_1" xmlns="http://www.w3.org/2000/svg" xmlns:xlink="http://www.w3.org/1999/xlink" x="0px" y="0px"
	 viewBox="0 0 30 30" style="enable-background:new 0 0 30 30;" xml:space="preserve">
<g>
	<path d="M20.8,11.6c0.4,0,0.8-0.3,0.8-0.8V6.7c0-0.4-0.3-0.8-0.8-0.8s-0.8,0.3-0.8,0.8v4.2C20.1,11.2,20.4,11.6,20.8,11.6z"/>
	<path d="M15,18.4c-0.4,0-0.8,0.3-0.8,0.8v4.2c0,0.4,0.3,0.8,0.8,0.8s0.8-0.3,0.8-0.8v-4.2C15.8,18.8,15.4,18.4,15,18.4z"/>
	<path d="M9.2,11.6c0.4,0,0.8-0.3,0.8-0.8V6.7c0-0.4-0.3-0.8-0.8-0.8S8.4,6.3,8.4,6.7v4.2C8.4,11.2,8.8,11.6,9.2,11.6z"/>
	<path d="M10.8,13.4H7.5c-0.4,0-0.8,0.3-0.8,0.8s0.3,0.8,0.8,0.8h0.9v8.4c0,0.4,0.3,0.8,0.8,0.8s0.8-0.3,0.8-0.8v-8.4h0.9
		c0.4,0,0.8-0.3,0.8-0.8S11.2,13.4,10.8,13.4z"/>
	<path d="M22.5,13.4h-3.3c-0.4,0-0.8,0.3-0.8,0.8s0.3,0.8,0.8,0.8h0.9v8.4c0,0.4,0.3,0.8,0.8,0.8s0.8-0.3,0.8-0.8v-8.4h0.9
		c0.4,0,0.8-0.3,0.8-0.8S22.9,13.4,22.5,13.4z"/>
	<path d="M16.7,15.1h-0.9V6.7c0-0.4-0.3-0.8-0.8-0.8s-0.8,0.3-0.8,0.8v8.4h-0.9c-0.4,0-0.8,0.3-0.8,0.8c0,0.4,0.3,0.8,0.8,0.8h3.3
		c0.4,0,0.8-0.3,0.8-0.8C17.4,15.4,17.1,15.1,16.7,15.1z"/>
</g>
</svg>
