<?xml version="1.0" encoding="utf-8"?>
<!-- Generator: Adobe Illustrator 23.1.0, SVG Export Plug-In . SVG Version: 6.00 Build 0)  -->
<svg version="1.1" id="Layer_1" xmlns="http://www.w3.org/2000/svg" xmlns:xlink="http://www.w3.org/1999/xlink" x="0px" y="0px"
	 viewBox="0 0 24 24" style="enable-background:new 0 0 24 24;" xml:space="preserve">
<g>
	<path d="M12,22.7c-0.2,0-0.5,0-0.7-0.1c-5.2-1.4-9-6.3-9-11.5V6.7c0-1.1,0.8-2.3,1.9-2.8l5.6-2.3c1.4-0.6,3.1-0.6,4.5,0L19.8,4
		c1,0.4,1.9,1.6,1.9,2.8l0,4.4c0,5.3-3.8,10.1-9,11.5C12.5,22.7,12.2,22.7,12,22.7z M12,2.8c-0.6,0-1.1,0.1-1.7,0.3L4.8,5.4
		C4.3,5.6,3.8,6.2,3.8,6.7v4.4c0,4.6,3.3,8.8,7.8,10.1c0.2,0.1,0.4,0.1,0.6,0c4.5-1.3,7.8-5.5,7.8-10.1c0,0,0,0,0,0l0-4.4
		c0-0.5-0.4-1.2-0.9-1.4l-5.6-2.3C13.1,2.9,12.6,2.8,12,2.8z"/>
</g>
</svg>
