<?xml version="1.0" encoding="utf-8"?>
<!-- Generator: Adobe Illustrator 23.1.0, SVG Export Plug-In . SVG Version: 6.00 Build 0)  -->
<svg version="1.1" id="Layer_1" xmlns="http://www.w3.org/2000/svg" xmlns:xlink="http://www.w3.org/1999/xlink" x="0px" y="0px"
	 viewBox="0 0 30 30" style="enable-background:new 0 0 30 30;" xml:space="preserve">
<path d="M18.9,14.8c-0.5-0.3-1-0.6-1.6-0.7c-0.3-0.1-0.7-0.2-1.1-0.3c-0.3-0.1-0.8-0.2-1.3-0.3c-0.6-0.1-1.2-0.3-1.8-0.5
	c-0.3-0.1-0.6-0.3-0.8-0.6c-0.1-0.2-0.2-0.5-0.2-0.7c0-0.3,0.1-0.5,0.3-0.7c0.2-0.3,0.5-0.5,0.9-0.6c0.6-0.2,1.2-0.3,1.8-0.3
	c0.5,0,0.9,0.1,1.4,0.2c0.3,0.1,0.6,0.2,0.8,0.4c0.2,0.1,0.3,0.3,0.4,0.4c0.1,0.1,0.2,0.3,0.3,0.4c0.1,0.1,0.3,0.2,0.4,0.2
	c0.2,0,0.3,0.1,0.5,0c0.2,0,0.3-0.1,0.5-0.1c0.1-0.1,0.3-0.2,0.4-0.3c0.1-0.1,0.2-0.3,0.2-0.4c0-0.2,0.1-0.3,0-0.5
	c0-0.2-0.1-0.3-0.1-0.5c-0.3-0.5-0.6-0.9-1-1.2c-0.5-0.4-1.1-0.7-1.6-0.8c-0.7-0.2-1.4-0.3-2.1-0.3c-0.9,0-1.8,0.1-2.7,0.4
	c-0.8,0.3-1.5,0.8-2,1.4c-0.5,0.6-0.8,1.4-0.8,2.2c0,0.8,0.2,1.6,0.7,2.2c0.5,0.6,1.1,1.1,1.8,1.3c0.5,0.2,1.1,0.4,1.6,0.5
	c0,0,0,0,0,0c0.2,0.1,0.6,0.2,1.2,0.3c0.2,0,0.4,0.1,0.6,0.1c0,0,0,0,0.1,0l0,0c0.3,0.1,0.6,0.2,0.9,0.2c0.3,0.1,0.7,0.2,1,0.4
	c0.2,0.1,0.3,0.3,0.5,0.5c0.1,0.2,0.2,0.5,0.1,0.7c0,0.3-0.1,0.6-0.3,0.9c-0.3,0.3-0.6,0.6-1,0.7C16.3,19.9,15.6,20,15,20
	c-0.7,0-1.5-0.1-2.1-0.4c-0.3-0.2-0.6-0.4-0.8-0.7c-0.1-0.2-0.2-0.4-0.3-0.6c0-0.3-0.1-0.6-0.4-0.9c-0.2-0.2-0.6-0.4-0.9-0.4
	c-0.3,0-0.6,0.1-0.9,0.4c-0.2,0.2-0.4,0.6-0.4,0.9c0,0.7,0.3,1.5,0.7,2c0.4,0.6,1,1.1,1.7,1.5c1,0.5,2.1,0.7,3.3,0.7
	c1,0,1.9-0.1,2.8-0.5c0.8-0.3,1.6-0.9,2.1-1.6c0.5-0.7,0.8-1.5,0.7-2.4c0-0.7-0.1-1.3-0.5-1.9C19.9,15.6,19.4,15.1,18.9,14.8
	L18.9,14.8z M28,17.1c0.3-2.1,0.2-4.2-0.5-6.1c-0.6-2-1.7-3.8-3.2-5.3C22.8,4.2,21,3.1,19,2.5c-2-0.6-4.1-0.8-6.1-0.5
	c-1.5-0.7-3.2-1-4.9-0.7S4.8,2.4,3.6,3.6S1.6,6.3,1.4,8s0,3.4,0.7,4.9C1.7,14.9,1.9,17,2.5,19c0.6,2,1.7,3.8,3.2,5.3
	c1.5,1.5,3.3,2.6,5.3,3.2c2,0.6,4.1,0.8,6.1,0.5c1.5,0.7,3.2,1,4.9,0.7c1.7-0.3,3.2-1.1,4.4-2.3c1.2-1.2,2-2.7,2.3-4.4
	C28.9,20.3,28.7,18.6,28,17.1L28,17.1z M20.6,26.3c-0.9,0-1.9-0.2-2.7-0.7c-0.3-0.1-0.6-0.2-0.8-0.1c-1.5,0.3-3.1,0.3-4.7-0.1
	c-1.5-0.4-2.9-1.1-4.2-2.1c-1.2-1-2.2-2.3-2.9-3.7c-0.7-1.4-1-3-1-4.5c0-0.7,0.1-1.4,0.2-2.1c0.1-0.3,0-0.6-0.1-0.8
	C3.9,11,3.6,9.8,3.8,8.6s0.7-2.3,1.6-3.2c0.9-0.9,2-1.4,3.2-1.6c1.2-0.2,2.4,0.1,3.5,0.6c0.3,0.1,0.6,0.2,0.8,0.1
	c1.5-0.3,3.1-0.3,4.7,0.1c1.5,0.4,2.9,1.1,4.2,2.1s2.2,2.3,2.9,3.7c0.7,1.4,1,3,1,4.5c0,0.7-0.1,1.4-0.2,2.1c-0.1,0.3,0,0.6,0.1,0.8
	c0.5,0.9,0.7,1.8,0.7,2.8c0,1-0.3,1.9-0.8,2.8c-0.5,0.8-1.2,1.5-2.1,2C22.6,26,21.6,26.3,20.6,26.3z"/>
</svg>
