<?xml version="1.0" encoding="utf-8"?>
<!-- Generator: Adobe Illustrator 23.1.0, SVG Export Plug-In . SVG Version: 6.00 Build 0)  -->
<svg version="1.1" id="Layer_1" xmlns="http://www.w3.org/2000/svg" xmlns:xlink="http://www.w3.org/1999/xlink" x="0px" y="0px"
	 viewBox="0 0 24 24" style="enable-background:new 0 0 24 24;" xml:space="preserve">
<style type="text/css">
	.st0{fill:#292D32;}
</style>
<g>
	<path class="st0" d="M17,2.8H7c-3.7,0-5.8,2.1-5.8,5.8v7c0,3.7,2.1,5.8,5.8,5.8h10c3.7,0,5.8-2.1,5.8-5.8v-7
		C22.8,4.8,20.7,2.8,17,2.8z M21.3,15.5c0,2.9-1.4,4.3-4.3,4.3H7c-2.9,0-4.3-1.4-4.3-4.3v-7c0-2.9,1.4-4.3,4.3-4.3h10
		c2.9,0,4.3,1.4,4.3,4.3V15.5z"/>
	<path class="st0" d="M16.5,8.4l-3.1,2.5c-0.8,0.6-2.1,0.6-2.8,0L7.5,8.4C7.1,8.2,6.7,8.2,6.4,8.5C6.2,8.9,6.2,9.3,6.5,9.6l3.1,2.5
		c0.7,0.5,1.5,0.8,2.3,0.8s1.7-0.3,2.3-0.8l3.1-2.5c0.3-0.3,0.4-0.7,0.1-1.1C17.3,8.2,16.9,8.2,16.5,8.4z"/>
</g>
</svg>
