<?xml version="1.0" encoding="utf-8"?>
<!-- Generator: Adobe Illustrator 23.1.0, SVG Export Plug-In . SVG Version: 6.00 Build 0)  -->
<svg version="1.1" id="Layer_1" xmlns="http://www.w3.org/2000/svg" xmlns:xlink="http://www.w3.org/1999/xlink" x="0px" y="0px"
	 viewBox="0 0 30 30" style="enable-background:new 0 0 30 30;" xml:space="preserve">
<g>
	<path d="M18.5,12l-4.8,4.5l-2.2-2c-0.3-0.3-0.8-0.3-1.1,0c-0.3,0.3-0.3,0.8,0,1.1l2.7,2.5c0.1,0.1,0.3,0.2,0.5,0.2
		c0.2,0,0.4-0.1,0.5-0.2l5.3-5c0.3-0.3,0.3-0.8,0-1.1C19.3,11.7,18.8,11.7,18.5,12z"/>
	<path d="M24.7,16.4c-0.5-0.9-0.5-1.9,0-2.8l1-1.9c0.5-0.9,0.5-2-0.1-2.9c-0.5-0.9-1.5-1.5-2.5-1.5l-2.1-0.1c-1,0-1.9-0.6-2.4-1.4
		l-1.1-1.8C17,3.2,16,2.7,15,2.7c-1,0-2,0.5-2.5,1.4l-1.1,1.8c-0.5,0.8-1.4,1.4-2.4,1.4L6.8,7.3c-1,0-2,0.6-2.5,1.5
		c-0.5,0.9-0.5,2-0.1,2.9l1,1.9c0.5,0.9,0.5,1.9,0,2.8l-1,1.8c-0.5,0.9-0.5,2,0.1,2.9c0.5,0.9,1.5,1.5,2.5,1.5l2.1,0.1
		c1,0,1.9,0.6,2.4,1.4l1.1,1.8c0.6,0.9,1.5,1.4,2.5,1.4c1,0,2-0.5,2.5-1.4l1.1-1.8c0.5-0.8,1.4-1.4,2.4-1.4l2.1-0.1
		c1,0,2-0.6,2.5-1.5c0.5-0.9,0.5-2,0.1-2.9L24.7,16.4z M24.4,20.4c-0.3,0.5-0.7,0.7-1.2,0.7L21,21.2c-1.5,0.1-2.9,0.8-3.7,2.1
		l-1.1,1.8c-0.6,0.9-2,0.9-2.5,0l-1.1-1.8c-0.8-1.3-2.2-2.1-3.7-2.1l-2.1-0.1c-0.5,0-1-0.3-1.2-0.7c-0.3-0.5-0.3-1,0-1.5l1-1.9
		c0.7-1.3,0.7-2.9,0-4.2l-1-1.9c-0.2-0.5-0.2-1,0-1.5c0.3-0.5,0.7-0.7,1.2-0.7L9,8.8c1.5-0.1,2.9-0.8,3.7-2.1l1.1-1.8
		C14,4.4,14.5,4.2,15,4.2s1,0.3,1.3,0.7l1.1,1.8c0.8,1.3,2.2,2.1,3.7,2.1l2.1,0.1c0.5,0,1,0.3,1.2,0.7c0.3,0.5,0.3,1,0,1.5l-1,1.8
		c-0.7,1.3-0.7,2.9,0,4.2l1,1.8C24.7,19.4,24.6,20,24.4,20.4z"/>
</g>
</svg>
