<?xml version="1.0" encoding="utf-8"?>
<!-- Generator: Adobe Illustrator 23.1.0, SVG Export Plug-In . SVG Version: 6.00 Build 0)  -->
<svg version="1.1" id="Layer_1" xmlns="http://www.w3.org/2000/svg" xmlns:xlink="http://www.w3.org/1999/xlink" x="0px" y="0px"
	 viewBox="0 0 60 60" style="enable-background:new 0 0 60 60;" xml:space="preserve">
<g>
	<path d="M47.1,30.9c0-4.6-1.8-8.9-5-12.1c-3.2-3.2-7.5-5-12.1-5s-8.9,1.8-12.1,5c-3.2,3.2-5,7.5-5,12.1s1.8,8.9,5,12.1
		c3.3,3.3,7.7,5,12.1,5c4.4,0,8.8-1.7,12.1-5C45.3,39.8,47.1,35.5,47.1,30.9z M20,40.9c-2.7-2.7-4.1-6.2-4.1-10
		c0-3.8,1.5-7.3,4.1-10s6.2-4.1,10-4.1c3.8,0,7.3,1.5,10,4.1s4.1,6.2,4.1,10c0,3.8-1.5,7.3-4.1,10C34.5,46.4,25.5,46.4,20,40.9z"/>
	<path d="M21.2,52.7c-4.9-2-8.9-5.4-11.5-10C7.1,38.2,6,33.2,6.7,28c0.1-0.8-0.5-1.6-1.3-1.7c-0.8-0.1-1.6,0.5-1.7,1.3
		C3,33.4,4.1,39.2,7,44.2c3,5.2,7.5,9.1,13,11.3c0.2,0.1,0.4,0.1,0.6,0.1c0.6,0,1.2-0.4,1.4-0.9C22.3,53.9,21.9,53,21.2,52.7z"/>
	<path d="M14.6,12.7c0.3,0,0.6-0.1,0.9-0.3c4.2-3.3,9.2-5,14.5-5c5.1,0,10.1,1.7,14.2,4.8c0.7,0.5,1.6,0.4,2.1-0.3
		c0.5-0.7,0.4-1.6-0.3-2.1c-4.7-3.6-10.2-5.4-16-5.4c-6,0-11.6,1.9-16.3,5.6c-0.7,0.5-0.8,1.5-0.3,2.1
		C13.7,12.5,14.2,12.7,14.6,12.7z"/>
	<path d="M56.3,27.6c-0.1-0.8-0.9-1.4-1.7-1.3c-0.8,0.1-1.4,0.9-1.3,1.7c0.7,5.1-0.4,10.2-2.9,14.7c-2.6,4.6-6.6,8-11.5,10
		C38,53,37.7,53.9,38,54.7c0.2,0.6,0.8,0.9,1.4,0.9c0.2,0,0.4,0,0.6-0.1c5.5-2.2,10-6.1,13-11.3C55.9,39.2,57,33.4,56.3,27.6z"/>
</g>
</svg>
