<?xml version="1.0" encoding="utf-8"?>
<!-- Generator: Adobe Illustrator 23.1.0, SVG Export Plug-In . SVG Version: 6.00 Build 0)  -->
<svg version="1.1" id="Layer_1" xmlns="http://www.w3.org/2000/svg" xmlns:xlink="http://www.w3.org/1999/xlink" x="0px" y="0px"
	 viewBox="0 0 30 30" style="enable-background:new 0 0 30 30;" xml:space="preserve">
<path d="M27.8,3c-0.4-0.3-0.8-0.5-1.2-0.6c-0.5-0.1-0.9,0-1.4,0.2l-22.4,9c-0.5,0.2-0.9,0.5-1.2,1c-0.3,0.4-0.4,0.9-0.4,1.5
	c0,0.5,0.2,1,0.5,1.4C2,16,2.5,16.3,3,16.4L7.5,18l2.5,8.4c0,0.1,0.1,0.2,0.1,0.3c0,0,0,0,0,0c0.1,0.1,0.2,0.2,0.3,0.3
	c0,0,0.1,0,0.1,0.1c0.1,0.1,0.3,0.1,0.4,0.2l0,0l0,0c0.1,0,0.2,0,0.3,0c0,0,0,0,0,0c0.1,0,0.3,0,0.4-0.1c0,0,0.1,0,0.1,0
	c0.1,0,0.2-0.1,0.3-0.1c0.1-0.1,0.1-0.1,0.2-0.2l3.4-3.7l5,3.9c0.4,0.3,1,0.5,1.6,0.5c0.6,0,1.2-0.2,1.6-0.6
	c0.5-0.4,0.8-0.9,0.9-1.5l4.1-20c0.1-0.5,0.1-0.9-0.1-1.4C28.5,3.7,28.2,3.3,27.8,3L27.8,3z M11.7,18.4c-0.2,0.2-0.3,0.4-0.3,0.6
	L11,20.9l-1-3.2l5.1-2.6L11.7,18.4z M22.1,25l-6-4.6c-0.2-0.2-0.6-0.3-0.9-0.3c-0.3,0-0.6,0.2-0.8,0.4l-1.1,1.2l0.4-1.9l8.9-8.9
	c0.2-0.2,0.3-0.5,0.4-0.8c0-0.3-0.1-0.6-0.2-0.8C22.5,9.2,22.3,9,22,9c-0.3-0.1-0.6,0-0.9,0.1L8.4,15.7L3.8,14l22.5-9L22.1,25z"/>
</svg>
