<?xml version="1.0" encoding="utf-8"?>
<!-- Generator: Adobe Illustrator 23.1.0, SVG Export Plug-In . SVG Version: 6.00 Build 0)  -->
<svg version="1.1" id="Layer_1" xmlns="http://www.w3.org/2000/svg" xmlns:xlink="http://www.w3.org/1999/xlink" x="0px" y="0px"
	 viewBox="0 0 16 16" style="enable-background:new 0 0 16 16;" xml:space="preserve">
<g>
	<path d="M8.2,9.3C5.3,9.3,3,11.2,3,13.6C3,13.8,3.2,14,3.4,14c0.2,0,0.4-0.2,0.4-0.4c0-1.9,2-3.5,4.4-3.5c2.4,0,4.4,1.6,4.4,3.5
		c0,0.2,0.2,0.4,0.4,0.4c0.2,0,0.4-0.2,0.4-0.4C13.4,11.2,11.1,9.3,8.2,9.3z"/>
	<path d="M8.2,8.4c1.8,0,3.2-1.4,3.2-3.2S10,2,8.2,2S5,3.4,5,5.2S6.4,8.4,8.2,8.4z M8.2,2.8c1.3,0,2.4,1.1,2.4,2.4S9.5,7.6,8.2,7.6
		S5.8,6.5,5.8,5.2S6.9,2.8,8.2,2.8z"/>
</g>
</svg>
