<?xml version="1.0" encoding="utf-8"?>
<!-- Generator: Adobe Illustrator 23.1.0, SVG Export Plug-In . SVG Version: 6.00 Build 0)  -->
<svg version="1.1" id="Layer_1" xmlns="http://www.w3.org/2000/svg" xmlns:xlink="http://www.w3.org/1999/xlink" x="0px" y="0px"
	 viewBox="0 0 30 30" style="enable-background:new 0 0 30 30;" xml:space="preserve">
<style type="text/css">
	.st0{fill-rule:evenodd;clip-rule:evenodd;}
</style>
<g>
	<path class="st0" d="M20,0H10C4.5,0,0,4.5,0,10v10c0,5.5,4.5,10,10,10h10c5.5,0,10-4.5,10-10V10C30,4.5,25.5,0,20,0z M28,20
		c0,4.4-3.6,8-8,8H10c-4.4,0-8-3.6-8-8V10c0-4.4,3.6-8,8-8h10c4.4,0,8,3.6,8,8V20z"/>
	<path class="st0" d="M21.7,13.3c1.2-1.8,1.3-2.4,1.3-2.6c0-0.1-0.2-0.2-0.5-0.2h-2.7c-0.1,0-0.1,0-0.2,0c-0.1,0.1-0.1,0.2-0.2,0.2
		c0,0.1-0.4,1.2-0.9,2.1C17.3,15,16.9,15,16.8,15c-0.1,0-0.1,0-0.2-0.1c-0.4-0.3-0.4-1-0.4-1.6c0-0.1,0-0.2,0-0.3c0-0.5,0-0.8,0-1.2
		c0-1.2,0-1.6-0.5-1.7c-0.2-0.1-0.4-0.1-1.1-0.1h-0.4c-0.6,0-1.3,0-1.6,0.2c-0.1,0.1-0.3,0.2-0.3,0.3c0.2,0,0.5,0.2,0.7,0.4
		c0.3,0.4,0.3,1.2,0.3,1.3c0,0.4,0.1,2.4-0.4,2.7c-0.1,0-0.1,0.1-0.2,0.1c-0.4,0-0.9-0.6-1.7-2.2c-0.5-0.9-0.8-1.8-0.9-2
		c-0.1-0.2-0.2-0.4-0.5-0.4H7.4c-0.3,0-0.5,0.2-0.4,0.5c0,0,1.8,4.7,3.8,7c1.6,1.9,3.5,2,3.9,2h1c0.2,0,0.5-0.2,0.5-0.6
		c0-1.2,0.4-1.7,0.7-1.8c0,0,0.1,0,0.1,0c0.4,0,0.8,0.5,1.2,1.1c0.3,0.4,0.6,0.8,0.9,1c0.4,0.3,0.7,0.3,0.9,0.3h2.3
		c0.1,0,0.5-0.1,0.6-0.4c0.1-0.1,0-0.3-0.1-0.6c0,0,0,0,0,0c-0.3-0.6-1.6-2-1.6-2c-1.2-1.2-1.2-1.3-0.1-2.9
		C21.3,13.9,21.5,13.6,21.7,13.3z"/>
</g>
</svg>
