<?xml version="1.0" encoding="utf-8"?>
<!-- Generator: Adobe Illustrator 23.1.0, SVG Export Plug-In . SVG Version: 6.00 Build 0)  -->
<svg version="1.1" id="Layer_1" xmlns="http://www.w3.org/2000/svg" xmlns:xlink="http://www.w3.org/1999/xlink" x="0px" y="0px"
	 viewBox="0 0 30 30" style="enable-background:new 0 0 30 30;" xml:space="preserve">
<style type="text/css">
	.st0{fill:#293738;}
</style>
<g>
	<path class="st0" d="M21.7,19.2l-2.1-2.2c-0.4-0.4-0.8-0.7-1.2-1c1.8-1.4,3.1-3.4,3.6-5.6c0-0.2,0-0.3,0-0.5c0-0.2-0.1-0.3-0.2-0.5
		c-0.1-0.1-0.2-0.3-0.3-0.4c-0.1-0.1-0.3-0.2-0.4-0.2c-0.2,0-0.3,0-0.5,0c-0.2,0-0.3,0.1-0.5,0.2s-0.3,0.2-0.4,0.3
		c-0.1,0.1-0.2,0.3-0.2,0.4c-0.2,1-0.7,2-1.3,2.9c-0.7,0.8-1.5,1.5-2.4,2V10c0-0.1,0-0.2-0.1-0.3c0-0.1,0-0.1,0-0.2
		c-0.1-0.1-0.1-0.2-0.2-0.3c0,0,0-0.1-0.1-0.1C15.4,9,15.3,9,15.1,8.9c0,0-0.1,0-0.1-0.1c-0.1,0-0.2-0.1-0.3-0.1c-0.1,0-0.1,0-0.2,0
		l-0.8,0h0c-0.3,0-0.6,0.1-0.8,0.3c-0.2,0.2-0.4,0.4-0.4,0.7c-0.1,0.3,0,0.6,0.1,0.8c0.1,0.3,0.4,0.4,0.6,0.6v6.1
		c-2-2.1-3.3-4.7-3.8-7.5c0-0.2-0.1-0.3-0.2-0.5C9.3,9.2,9.2,9.1,9,9C8.9,8.9,8.8,8.8,8.6,8.8c-0.2,0-0.3,0-0.5,0S7.8,8.9,7.7,8.9
		C7.5,9,7.4,9.1,7.3,9.3S7.1,9.6,7.1,9.7c0,0.2,0,0.3,0,0.5c0.7,4.4,3.2,8.2,6.7,10.8c0.1,0,0.1,0.1,0.2,0.1c0,0,0.1,0,0.1,0.1
		c0.1,0.1,0.3,0.1,0.4,0.1c0.2,0,0.4,0,0.5-0.1c0,0,0,0,0,0c0.1-0.1,0.2-0.1,0.3-0.2c0,0,0,0,0-0.1c0.1-0.1,0.1-0.2,0.2-0.3
		c0,0,0-0.1,0-0.1c0.1-0.1,0.1-0.3,0.1-0.4l0-2.7c0.8,0.2,1.5,0.7,2,1.3l2.1,2.2c0.1,0.1,0.2,0.2,0.4,0.3c0.1,0.1,0.3,0.1,0.5,0.1
		c0.2,0,0.3,0,0.5-0.1c0.2-0.1,0.3-0.1,0.4-0.3s0.2-0.2,0.3-0.4c0.1-0.1,0.1-0.3,0.1-0.5c0-0.2,0-0.3-0.1-0.5
		C21.9,19.4,21.9,19.3,21.7,19.2z"/>
	<path class="st0" d="M18.8,1.3h-7.7c-7.7,0-9.9,2.2-9.9,9.9v7.7c0,7.7,2.2,9.9,9.9,9.9h7.7c7.7,0,9.9-2.2,9.9-9.9v-7.7
		C28.8,3.5,26.5,1.3,18.8,1.3z M26.3,18.8c0,6.3-1.1,7.4-7.4,7.4h-7.7c-6.3,0-7.4-1.1-7.4-7.4v-7.7c0-6.3,1.1-7.4,7.4-7.4h7.7
		c6.3,0,7.4,1.1,7.4,7.4V18.8z"/>
</g>
</svg>
