<?xml version="1.0" encoding="utf-8"?>
<!-- Generator: Adobe Illustrator 23.1.0, SVG Export Plug-In . SVG Version: 6.00 Build 0)  -->
<svg version="1.1" id="Layer_1" xmlns="http://www.w3.org/2000/svg" xmlns:xlink="http://www.w3.org/1999/xlink" x="0px" y="0px"
	 viewBox="0 0 30 30" style="enable-background:new 0 0 30 30;" xml:space="preserve">
<path d="M2.5,28.4c-0.3,0-0.5-0.1-0.7-0.3c-0.2-0.2-0.3-0.6-0.2-0.9l1.6-5.9c-1-2-1.6-4.2-1.6-6.4c0-7.4,6-13.4,13.4-13.4
	c7.4,0,13.4,6,13.4,13.4s-6,13.4-13.4,13.4c-2.3,0-4.5-0.6-6.4-1.6l-5.8,1.6C2.7,28.4,2.6,28.4,2.5,28.4z M8.7,24.8
	c0.2,0,0.3,0,0.5,0.1c1.8,1,3.8,1.6,5.8,1.6c6.4,0,11.6-5.2,11.6-11.6c0-6.4-5.2-11.6-11.6-11.6C8.6,3.4,3.4,8.6,3.4,15
	c0,2,0.5,4,1.5,5.8c0.1,0.2,0.2,0.5,0.1,0.7l-1.3,4.7l4.6-1.3C8.5,24.9,8.6,24.8,8.7,24.8z"/>
<path d="M18.4,22.2c-0.8,0-1.6-0.2-2.4-0.5c-0.8-0.3-1.6-0.8-2.3-1.3c-0.8-0.6-1.5-1.2-2.2-1.9c-0.7-0.7-1.3-1.4-1.9-2.2
	c-0.6-0.8-1-1.6-1.3-2.3c-0.3-0.8-0.5-1.6-0.5-2.4c0-0.6,0.1-1.1,0.3-1.6c0.2-0.5,0.5-1,1-1.4c0.8-0.8,2-1.1,2.9-0.6
	c0.3,0.1,0.6,0.4,0.8,0.7l1.4,2c0.1,0.2,0.3,0.4,0.3,0.6c0.1,0.3,0.2,0.5,0.2,0.7c0,0.3-0.1,0.6-0.3,0.9c-0.1,0.2-0.3,0.4-0.5,0.6
	l-0.2,0.2c0.1,0.1,0.2,0.2,0.3,0.4c0.3,0.3,0.6,0.6,0.9,0.9c0.3,0.3,0.6,0.6,0.9,0.9c0.1,0.1,0.3,0.2,0.4,0.3l0.2-0.2
	c0.2-0.2,0.5-0.4,0.7-0.5c0.4-0.3,1-0.3,1.6-0.1c0.2,0.1,0.4,0.2,0.6,0.3l2.1,1.5c0.3,0.2,0.5,0.5,0.7,0.8c0.1,0.3,0.2,0.6,0.2,0.9
	c0,0.4-0.1,0.7-0.3,1.1c-0.2,0.3-0.4,0.6-0.6,0.9c-0.4,0.4-0.9,0.8-1.4,1S19,22.2,18.4,22.2z M11,9.7c-0.1,0-0.3,0-0.6,0.3
	c-0.2,0.2-0.4,0.5-0.5,0.7c-0.1,0.3-0.2,0.6-0.2,0.9c0,0.5,0.1,1.1,0.4,1.7c0.3,0.6,0.6,1.3,1.1,2c0.5,0.7,1,1.3,1.6,1.9
	c0.6,0.6,1.3,1.2,1.9,1.7c0.6,0.5,1.3,0.8,2,1.1c0.9,0.4,1.8,0.5,2.5,0.2c0.3-0.1,0.5-0.3,0.7-0.5c0.1-0.1,0.2-0.3,0.3-0.4
	c0-0.1,0.1-0.2,0.1-0.3c0,0,0-0.1,0-0.1l-2.1-1.5c-0.1-0.1-0.2-0.1-0.3-0.1c0,0-0.1,0.1-0.3,0.2l-0.5,0.5c-0.4,0.4-0.9,0.5-1.4,0.3
	l-0.2-0.1c-0.3-0.2-0.6-0.4-1-0.7c-0.3-0.3-0.7-0.6-1-1c-0.4-0.4-0.7-0.7-1-1c-0.3-0.4-0.6-0.7-0.7-1l-0.1-0.3
	c0-0.1-0.1-0.3-0.1-0.4c0-0.3,0.1-0.7,0.4-0.9l0.5-0.5c0.1-0.1,0.2-0.2,0.2-0.3c0-0.1-0.1-0.2-0.2-0.3l-1.5-2.1L11,9.7z"/>
</svg>
