<?xml version="1.0" encoding="utf-8"?>
<!-- Generator: Adobe Illustrator 23.1.0, SVG Export Plug-In . SVG Version: 6.00 Build 0)  -->
<svg version="1.1" id="Layer_1" xmlns="http://www.w3.org/2000/svg" xmlns:xlink="http://www.w3.org/1999/xlink" x="0px" y="0px"
	 viewBox="0 0 18 18" style="enable-background:new 0 0 18 18;" xml:space="preserve">
<style type="text/css">
	.st0{fill:#1E1E1E;}
</style>
<g>
	<path class="st0" d="M15,17.8H3c-0.4,0-0.8-0.3-0.8-0.8v-3c0-0.4,0.3-0.8,0.8-0.8s0.8,0.3,0.8,0.8v2.3h10.5V14
		c0-0.4,0.3-0.8,0.8-0.8s0.8,0.3,0.8,0.8v3C15.8,17.4,15.4,17.8,15,17.8z M9,12.8C9,12.8,9,12.8,9,12.8c0,0-0.1,0-0.1,0c0,0,0,0,0,0
		c0,0,0,0,0,0h0c0,0-0.1,0-0.1,0c0,0-0.1,0-0.1,0l0,0c0,0,0,0,0,0c-0.1,0-0.1-0.1-0.2-0.1L5,9.6C4.7,9.3,4.7,8.8,4.9,8.5
		C5.2,8.2,5.7,8.2,6,8.4l2.3,1.9V3c0-0.4,0.3-0.8,0.8-0.8S9.8,2.6,9.8,3v7.4L12,8.4c0.3-0.3,0.8-0.2,1.1,0.1s0.2,0.8-0.1,1.1l-3.5,3
		c-0.1,0-0.1,0.1-0.2,0.1c0,0,0,0-0.1,0l0,0c0,0,0,0,0,0h0c0,0,0,0,0,0l0,0c0,0-0.1,0-0.2,0l0,0c0,0,0,0,0,0c0,0,0,0,0,0
		C9.1,12.7,9,12.8,9,12.8z"/>
</g>
</svg>
