<?xml version="1.0" encoding="utf-8"?><svg viewBox="0 0 502.66 502.66" xmlns="http://www.w3.org/2000/svg" xmlns:xlink="http://www.w3.org/1999/xlink"><style>:root>svg{display:none}:root>svg:target{display:block}</style><svg viewBox="0 0 40 40" id="burger-cross" xmlns="http://www.w3.org/2000/svg"><path d="M22.35 20l7.167-7.15a1.674 1.674 0 00-2.367-2.367L20 17.65l-7.15-7.167a1.674 1.674 0 00-2.367 2.367L17.65 20l-7.167 7.15a1.666 1.666 0 000 2.367 1.666 1.666 0 002.367 0L20 22.35l7.15 7.167a1.665 1.665 0 002.367 0 1.666 1.666 0 000-2.367L22.35 20z"/></svg><svg viewBox="0 0 40 40" id="burger-layers" xmlns="http://www.w3.org/2000/svg"><path d="M3.333 9.992c0-.917.743-1.659 1.658-1.659h13.35a1.658 1.658 0 110 3.317H4.991a1.658 1.658 0 01-1.658-1.658zm0 10.008c0-.917.743-1.658 1.658-1.658h30.017a1.658 1.658 0 110 3.316H4.991A1.658 1.658 0 013.333 20zm1.658 8.35a1.658 1.658 0 000 3.317h20.017a1.658 1.658 0 100-3.317H4.991z"/></svg><svg viewBox="0 0 80 46" id="food-logo" xmlns="http://www.w3.org/2000/svg"><g clip-path="url(#ca)"><path d="M70.333 34.117c-.313 0-.548-.15-.731-.5-.157-.301-.261-.802-.261-1.403V13.736c0-.6.078-1.102.26-1.402.184-.3.419-.45.732-.45h1.75c.393 0 .732.05 1.02.1.287.1.548.25.731.55.21.3.34.701.444 1.302.105.551.157 1.352.157 2.304v13.72c0 1.253-.078 2.154-.261 2.755-.183.6-.444 1.001-.784 1.202-.34.2-.784.3-1.306.25l-1.75.05zm-5.617-33c-.313.05-.575.2-.731.5-.157.301-.236.802-.236 1.403v39.96c0 .601.079 1.052.262 1.403.156.3.418.5.731.5h7.263c1.516 0 2.822-.3 3.867-.901 1.045-.6 1.881-1.552 2.508-2.754s1.098-2.804 1.359-4.707c.287-1.903.418-4.107.418-6.66V16.14c0-2.554-.13-4.758-.418-6.66-.288-1.903-.732-3.456-1.359-4.658-.627-1.251-1.463-2.153-2.508-2.754-1.045-.6-2.325-.901-3.867-.901l-7.289-.05zm-9.51 26.39c0 1.202-.026 2.303-.052 3.255-.053.951-.157 1.753-.314 2.454-.157.7-.418 1.201-.784 1.552-.34.35-.81.55-1.41.55-.601 0-1.072-.2-1.411-.55-.366-.35-.601-.851-.784-1.552-.157-.651-.261-1.503-.314-2.454-.052-.951-.078-2.053-.052-3.255v-9.014c0-1.202.026-2.303.052-3.255.053-.951.157-1.752.314-2.453.157-.701.418-1.202.784-1.553.34-.35.81-.55 1.41-.55.601 0 1.072.2 1.411.55.366.35.601.852.784 1.553.157.65.261 1.502.314 2.453.052.952.052 2.053.052 3.255v9.014zm5.591-12.319c0-.7-.026-1.552-.078-2.554a30.338 30.338 0 00-.34-3.205 24.132 24.132 0 00-.784-3.355c-.365-1.101-.836-2.103-1.437-3.004A7.197 7.197 0 0055.885.866c-.914-.55-2.011-.8-3.292-.85-1.28 0-2.377.3-3.292.85a7.197 7.197 0 00-2.273 2.204c-.6.901-1.07 1.903-1.437 3.004a19.488 19.488 0 00-.784 3.355 30.31 30.31 0 00-.34 3.205 50.159 50.159 0 00-.078 2.554v15.624c0 .701.027 1.552.079 2.554a30.26 30.26 0 00.34 3.205c.156 1.151.444 2.253.783 3.355a13.78 13.78 0 001.437 3.054c.601.902 1.359 1.653 2.273 2.154.915.55 2.012.851 3.292.851 1.28 0 2.378-.3 3.292-.851a7.039 7.039 0 002.273-2.154c.601-.9 1.072-1.902 1.437-3.054a19.5 19.5 0 00.784-3.355c.157-1.152.287-2.204.34-3.205.052-1.002.078-1.853.078-2.554V15.188zM36.212 27.507c0 1.202-.026 2.303-.052 3.255-.053.951-.157 1.753-.314 2.454-.157.7-.418 1.201-.784 1.552-.34.35-.81.55-1.41.55-.602 0-1.072-.2-1.411-.55-.366-.35-.601-.851-.784-1.552-.157-.651-.262-1.503-.314-2.454-.052-.951-.078-2.053-.052-3.255v-9.014c0-1.202.026-2.303.052-3.255.052-.951.157-1.752.314-2.453.156-.701.418-1.202.784-1.553.34-.35.81-.55 1.41-.55.601 0 1.072.2 1.411.55.366.35.601.852.784 1.553.157.65.261 1.502.314 2.453.052.952.052 2.053.052 3.255v9.014zm5.617-12.319c0-.7-.026-1.552-.078-2.554a30.338 30.338 0 00-.34-3.205 24.132 24.132 0 00-.784-3.355c-.366-1.101-.836-2.103-1.437-3.004A7.197 7.197 0 0036.917.866c-.914-.55-2.011-.8-3.292-.85-1.28 0-2.377.3-3.292.85A7.197 7.197 0 0028.06 3.07c-.6.901-1.07 1.903-1.437 3.004a19.488 19.488 0 00-.784 3.355 30.31 30.31 0 00-.34 3.205 50.159 50.159 0 00-.077 2.554v15.624c0 .701.026 1.552.078 2.554a30.26 30.26 0 00.34 3.205c.156 1.151.444 2.253.783 3.355a13.78 13.78 0 001.437 3.054c.601.902 1.359 1.653 2.273 2.154.915.55 2.012.851 3.292.851 1.28 0 2.378-.3 3.292-.851a7.039 7.039 0 002.273-2.154c.601-.9 1.072-1.902 1.437-3.054a19.5 19.5 0 00.784-3.355c.157-1.152.287-2.204.34-3.205.052-1.002.078-1.853.078-2.554V15.188zM22.548 1.117c.653 0 .966.65.966 1.853v7.01c0 .601-.078 1.052-.235 1.402-.157.351-.418.501-.731.501H14.03c-.313 0-.548.15-.731.45-.183.301-.262.802-.262 1.403v29.295c0 .6-.078 1.051-.235 1.402-.156.3-.418.5-.731.5H8.23c-.314 0-.55-.15-.732-.5-.157-.35-.262-.801-.262-1.402V3.02c0-.601.079-1.102.262-1.402.182-.3.418-.451.731-.451l14.318-.05z"/><path d="M15.284 24.903c-2.43-.4-14.291 3.305-15.18-.701-1.489-6.66 10.974-2.904 12.646-2.804.836.05 1.881.35 2.482.05.418-.25.706-1.553 1.176-2.053 1.045-1.202 2.743-.551 4.206-.3.993.15 1.96.35 3.005.5-1.49.4-3.083.801-4.65 1.202-.184.05-.471-.1-.602.3 1.594.501 3.397.601 5.121.852-1.698.5-3.605.6-5.277 1.201.104.35.418.25.6.3 1.49.201 3.136.451 4.703.602-1.62.5-3.5.6-5.12 1.202.052.5.391.35.548.35 1.49.35 3.161.751 4.703 1.002-1.698.25-3.788 1.001-5.539 1.201-1.359.15-2.169-1.352-2.822-2.904z"/><path d="M11.077 25.304c1.882-.3 3.475-.551 4.207-.451.34.801.68 1.552 1.15 2.103.444.551.966.902 1.645.801.967-.1 2.038-.4 3.083-.65.758-.2 1.49-.401 2.169-.501-.68-.1-1.359-.25-2.064-.4a28.454 28.454 0 01-2.325-.552h-.131c-.183 0-.418 0-.444-.4v-.05h.026c.888-.351 1.881-.551 2.874-.701.68-.1 1.358-.25 1.986-.401-1.176-.15-2.404-.3-3.554-.45-.287-.05-.575-.101-.862-.101h-.13c-.184 0-.393 0-.497-.3l-.026-.05h.026c.94-.351 1.96-.551 2.978-.702.68-.1 1.385-.25 2.038-.4-.34-.05-.705-.1-1.045-.15-1.306-.15-2.639-.3-3.814-.651h-.053l.027-.05c.104-.3.287-.3.444-.3h.157l1.254-.301c1.045-.25 2.116-.551 3.109-.802-.601-.1-1.202-.2-1.777-.3-.313-.05-.6-.1-.94-.15l-.784-.15c-1.254-.25-2.56-.551-3.397.45-.209.25-.392.651-.548 1.052-.21.45-.392.901-.627 1.051-.418.2-1.045.15-1.673.05-.287-.05-.574-.1-.836-.1-.287 0-.888-.15-1.672-.3-2.821-.852-8.125-1.903-10.19-.2-.73.6-1.044 1.502-.73 2.954.6 2.754 6.557 1.803 10.946 1.102zm4.207-.35c-.732-.101-2.325.15-4.207.45-4.389.7-10.372 1.652-10.999-1.202-.34-1.502 0-2.454.758-3.105 2.09-1.702 7.394-.65 10.241-.1.784.15 1.385.3 1.672.3.262 0 .55.05.837.1.627.1 1.227.151 1.646-.05.209-.1.392-.55.6-1 .183-.402.34-.802.575-1.052.862-1.002 2.169-.702 3.449-.451l.784.15c.287.05.627.1.94.15.68.1 1.359.25 2.064.3l.288.05-.261.101c-1.072.3-2.221.6-3.37.901l-1.255.3h-.157c-.13 0-.287 0-.392.201 1.176.35 2.482.5 3.789.651l1.306.15.261.05-.26.05c-.732.2-1.516.351-2.3.501-.993.2-2.012.35-2.926.701.078.2.261.2.418.2h.13c.288.05.575.1.863.1 1.254.201 2.56.351 3.814.502l.261.05-.26.1c-.732.2-1.49.35-2.248.5-.966.2-1.933.351-2.822.702.053.3.236.25.392.25h.131c.758.15 1.541.35 2.325.55.784.151 1.594.351 2.352.452v.1c-.758.1-1.62.35-2.482.55-1.045.25-2.117.551-3.083.652-.68.1-1.228-.25-1.672-.802-.523-.5-.889-1.252-1.202-2.053z"/></g><defs><clipPath id="ca"><path d="M0 0h80v46H0z"/></clipPath></defs></svg><svg viewBox="0 0 502.664 502.664" id="icon" xmlns="http://www.w3.org/2000/svg"><path d="M153.821 358.226L0 274.337v-46.463l153.821-83.414v54.574L46.636 250.523l107.185 53.431v54.272zm26.273 29.358L282.103 115.08h32.227L212.084 387.584h-31.99zm168.749-29.358v-54.272l107.164-52.999-107.164-52.59v-53.927l153.821 83.522v46.183l-153.821 84.083z"/></svg><svg viewBox="0 0 12 16" id="location-mark" xmlns="http://www.w3.org/2000/svg"><path d="M6 15.5a24.815 24.815 0 01-2.917-2.943C1.75 10.965.167 8.593.167 6.333a5.833 5.833 0 019.96-4.126 5.797 5.797 0 011.706 4.126c0 2.26-1.583 4.632-2.917 6.224A24.814 24.814 0 016 15.5zM6 3.833a2.5 2.5 0 100 5 2.5 2.5 0 000-5z"/></svg><svg viewBox="0 0 14 14" id="tel" xmlns="http://www.w3.org/2000/svg"><path d="M12.831 13.667C5.721 13.677.326 8.217.334 1.169c0-.46.373-.836.833-.836h2.2c.412 0 .763.304.824.712.145.98.43 1.932.846 2.83l.086.186a.59.59 0 01-.192.726c-.682.487-.942 1.466-.41 2.23A9.86 9.86 0 006.983 9.48c.764.53 1.743.27 2.229-.411a.59.59 0 01.727-.193l.184.085a10.32 10.32 0 002.831.847c.409.06.712.412.712.825v2.2a.831.831 0 01-.834.833h-.002z"/></svg><svg viewBox="0 0 40 40" id="telegram-logo" xmlns="http://www.w3.org/2000/svg"><path d="M29.61 11.228l-19.684 7.24c-1.343.515-1.335 1.23-.246 1.55l5.054 1.503 11.693-7.038c.553-.32 1.058-.148.643.204l-9.474 8.156h-.002.002l-.349 4.97c.511 0 .736-.224 1.023-.487l2.454-2.277 5.107 3.597c.941.495 1.617.24 1.851-.831l3.352-15.068c.343-1.313-.525-1.907-1.423-1.519z"/></svg><svg viewBox="0 0 40 40" id="vk-logo" xmlns="http://www.w3.org/2000/svg"><path d="M36.614 11.475c.284.766-.587 2.553-2.611 5.361-.284.383-.648.894-1.093 1.532-.932 1.191-1.458 1.979-1.58 2.362-.202.51-.121 1 .243 1.468.203.255.668.765 1.397 1.531h.06v.064c1.661 1.574 2.774 2.915 3.341 4.021l.122.255.121.479v.606l-.425.479-1.032.223-4.434.128c-.283.043-.617 0-1.002-.128-.385-.127-.678-.255-.88-.383l-.365-.255c-.364-.255-.77-.638-1.215-1.149a48.63 48.63 0 01-1.184-1.404 6.225 6.225 0 00-1.063-1.053c-.364-.276-.688-.372-.971-.287-.04 0-.091.021-.152.064-.06.042-.162.138-.304.287a2.07 2.07 0 00-.364.542c-.101.213-.193.522-.274.926-.08.404-.121.883-.121 1.436 0 .17-.02.33-.06.479a2.284 2.284 0 01-.122.35l-.061.065c-.243.255-.567.382-.972.382H19.67c-.85.085-1.71 0-2.581-.255-.87-.255-1.63-.585-2.278-.99a22.108 22.108 0 01-1.76-1.212c-.527-.404-.932-.755-1.216-1.053l-.425-.447c-.121-.085-.283-.255-.486-.51a76.737 76.737 0 01-1.244-1.66 41.424 41.424 0 01-1.853-2.744c-.607-.979-1.316-2.266-2.125-3.861a63.67 63.67 0 01-2.248-4.947c-.08-.213-.121-.383-.121-.51 0-.128.02-.235.06-.32l.061-.063c.162-.256.486-.383.972-.383h4.798c.121 0 .243.031.364.095l.304.16.06.064c.203.127.345.319.426.574a46.4 46.4 0 00.82 1.883c.303.66.536 1.16.698 1.5l.243.51c.365.724.699 1.351 1.002 1.883.304.532.577.947.82 1.245.243.298.486.532.729.702.243.17.445.255.607.255.162 0 .324-.021.486-.064l.06-.095.213-.415.243-.83.152-1.468v-2.298c-.04-.468-.101-.904-.182-1.308-.081-.404-.162-.691-.243-.862l-.06-.191c-.284-.426-.79-.702-1.519-.83-.121 0-.081-.149.121-.447a2.57 2.57 0 01.668-.51c.608-.34 1.984-.49 4.13-.447.931 0 1.721.085 2.369.255.202.043.384.117.546.224a.973.973 0 01.365.446c.08.192.142.383.182.575.04.191.06.468.06.83v.989c-.04.34-.06.766-.06 1.276v1.532c0 .128-.01.383-.03.766-.02.383-.03.68-.03.894 0 .212.02.457.06.734.04.276.111.51.213.702.1.191.232.33.394.415.081.042.172.074.274.095.1.022.253-.042.455-.191a4.5 4.5 0 00.668-.638c.243-.277.547-.692.911-1.245.365-.553.75-1.191 1.154-1.915a34.865 34.865 0 001.883-4.148c.04-.085.09-.181.151-.287a.549.549 0 01.213-.224h.06l.062-.064.243-.064h.364l4.98-.063c.445-.043.82-.022 1.123.063.304.086.476.192.517.32l.121.191z"/></svg><svg viewBox="0 0 40 40" id="youtube-logo" xmlns="http://www.w3.org/2000/svg"><path d="M35.97 12.373a3.868 3.868 0 00-1.064-1.764 4.235 4.235 0 00-1.858-1.03c-2.608-.687-13.056-.687-13.056-.687a106.4 106.4 0 00-13.038.652A4.388 4.388 0 005.096 10.6a4.022 4.022 0 00-1.08 1.771 40.393 40.393 0 00-.678 7.63 40.32 40.32 0 00.677 7.628c.19.665.561 1.272 1.077 1.762.515.49 1.156.844 1.862 1.032 2.642.686 13.038.686 13.038.686 4.361.05 8.721-.169 13.056-.653a4.235 4.235 0 001.858-1.03 3.86 3.86 0 001.062-1.764c.479-2.514.712-5.07.695-7.63a36.897 36.897 0 00-.694-7.66zm-19.3 12.382v-9.508l8.693 4.755-8.692 4.753z"/></svg></svg>