<svg width="40" height="40" viewBox="0 0 40 40" fill="none" xmlns="http://www.w3.org/2000/svg">
<path d="M3.33301 9.99171C3.33301 9.07504 4.07634 8.33337 4.99134 8.33337H18.3413C18.7812 8.33337 19.203 8.50809 19.514 8.81909C19.825 9.13009 19.9997 9.55189 19.9997 9.99171C19.9997 10.4315 19.825 10.8533 19.514 11.1643C19.203 11.4753 18.7812 11.65 18.3413 11.65H4.99134C4.55152 11.65 4.12972 11.4753 3.81872 11.1643C3.50772 10.8533 3.33301 10.4315 3.33301 9.99171ZM3.33301 20C3.33301 19.0834 4.07634 18.3417 4.99134 18.3417H35.008C35.4478 18.3417 35.8696 18.5164 36.1806 18.8274C36.4916 19.1384 36.6663 19.5602 36.6663 20C36.6663 20.4399 36.4916 20.8617 36.1806 21.1727C35.8696 21.4837 35.4478 21.6584 35.008 21.6584H4.99134C4.55152 21.6584 4.12972 21.4837 3.81872 21.1727C3.50772 20.8617 3.33301 20.4399 3.33301 20ZM4.99134 28.35C4.55152 28.35 4.12972 28.5248 3.81872 28.8358C3.50772 29.1468 3.33301 29.5686 3.33301 30.0084C3.33301 30.4482 3.50772 30.87 3.81872 31.181C4.12972 31.492 4.55152 31.6667 4.99134 31.6667H25.008C25.4478 31.6667 25.8696 31.492 26.1806 31.181C26.4916 30.87 26.6663 30.4482 26.6663 30.0084C26.6663 29.5686 26.4916 29.1468 26.1806 28.8358C25.8696 28.5248 25.4478 28.35 25.008 28.35H4.99134Z" fill="#B59571"/>
</svg>
