<svg width="80" height="46" viewBox="0 0 80 46" fill="none" xmlns="http://www.w3.org/2000/svg">
<g clip-path="url(#clip0_501_332)">
<path d="M70.3333 34.117C70.0198 34.117 69.7847 33.9668 69.6018 33.6163C69.445 33.3158 69.3405 32.8151 69.3405 32.2141V13.736C69.3405 13.1351 69.4189 12.6343 69.6018 12.3339C69.7847 12.0334 70.0198 11.8832 70.3333 11.8832H72.0838C72.4757 11.8832 72.8154 11.9333 73.1028 11.9833C73.3901 12.0835 73.6514 12.2337 73.8343 12.5342C74.0433 12.8346 74.1739 13.2353 74.2785 13.8362C74.383 14.387 74.4352 15.1882 74.4352 16.1397V29.8606C74.4352 31.1125 74.3568 32.0138 74.1739 32.6147C73.9911 33.2157 73.7298 33.6163 73.3901 33.8166C73.0505 34.0169 72.6063 34.117 72.0838 34.067L70.3333 34.117ZM64.7161 1.11681C64.4026 1.16689 64.1413 1.31712 63.9845 1.61758C63.8278 1.91803 63.7494 2.41879 63.7494 3.01971V42.9805C63.7494 43.5814 63.8278 44.0321 64.0107 44.3827C64.1674 44.6831 64.4287 44.8834 64.7422 44.8834H72.0054C73.5208 44.8834 74.8271 44.583 75.8722 43.982C76.9173 43.3811 77.7533 42.4297 78.3803 41.2279C79.0074 40.026 79.4777 38.4236 79.7389 36.5207C80.0263 34.6178 80.157 32.4144 80.157 29.8606V16.1397C80.157 13.5858 80.0263 11.3824 79.7389 9.47954C79.4515 7.57664 79.0074 6.02428 78.3803 4.82245C77.7533 3.57055 76.9173 2.66918 75.8722 2.06826C74.8271 1.46735 73.5469 1.16689 72.0054 1.16689L64.7161 1.11681ZM55.206 27.507C55.206 28.7088 55.1798 29.8105 55.1537 30.7619C55.1014 31.7134 54.9969 32.5146 54.8402 33.2157C54.6834 33.9167 54.4222 34.4175 54.0564 34.768C53.7167 35.1186 53.2465 35.3189 52.6455 35.3189C52.0446 35.3189 51.5743 35.1186 51.2347 34.768C50.8689 34.4175 50.6338 33.9167 50.4509 33.2157C50.2941 32.5647 50.1896 31.7134 50.1374 30.7619C50.0851 29.8105 50.059 28.7088 50.0851 27.507V18.4933C50.0851 17.2914 50.1112 16.1898 50.1374 15.2383C50.1896 14.2869 50.2941 13.4856 50.4509 12.7846C50.6077 12.0835 50.8689 11.5827 51.2347 11.2322C51.5743 10.8817 52.0446 10.6814 52.6455 10.6814C53.2465 10.6814 53.7167 10.8817 54.0564 11.2322C54.4222 11.5827 54.6573 12.0835 54.8402 12.7846C54.9969 13.4356 55.1014 14.2869 55.1537 15.2383C55.206 16.1898 55.206 17.2914 55.206 18.4933V27.507ZM60.7971 15.1882C60.7971 14.4872 60.7709 13.6359 60.7187 12.6343C60.6664 11.6328 60.5619 10.5812 60.379 9.42946C60.1962 8.27771 59.9349 7.17603 59.5952 6.07436C59.2295 4.97268 58.7592 3.97116 58.1583 3.06979C57.5574 2.16841 56.7997 1.41727 55.8853 0.866432C54.9708 0.315594 53.8735 0.0652129 52.5933 0.0151367C51.3131 0.0151367 50.2158 0.315594 49.3013 0.866432C48.3869 1.41727 47.6292 2.16841 47.0283 3.06979C46.4274 3.97116 45.9571 4.97268 45.5913 6.07436C45.2256 7.17603 44.9643 8.32779 44.8075 9.42946C44.6246 10.5812 44.5201 11.6328 44.4679 12.6343C44.4156 13.6359 44.3895 14.4872 44.3895 15.1882V30.812C44.3895 31.5131 44.4156 32.3644 44.4679 33.3659C44.5201 34.3674 44.6246 35.419 44.8075 36.5708C44.9643 37.7225 45.2517 38.8242 45.5913 39.9259C45.9571 41.0275 46.4274 42.0291 47.0283 42.9805C47.6292 43.8819 48.3869 44.633 49.3013 45.1338C50.2158 45.6846 51.3131 45.9851 52.5933 45.9851C53.8735 45.9851 54.9708 45.6846 55.8853 45.1338C56.7997 44.583 57.5574 43.8819 58.1583 42.9805C58.7592 42.0792 59.2295 41.0776 59.5952 39.9259C59.961 38.8242 60.2223 37.6724 60.379 36.5708C60.5358 35.419 60.6664 34.3674 60.7187 33.3659C60.7709 32.3644 60.7971 31.5131 60.7971 30.812V15.1882ZM36.2118 27.507C36.2118 28.7088 36.1857 29.8105 36.1596 30.7619C36.1073 31.7134 36.0028 32.5146 35.8461 33.2157C35.6893 33.9167 35.428 34.4175 35.0623 34.768C34.7226 35.1186 34.2523 35.3189 33.6514 35.3189C33.0505 35.3189 32.5802 35.1186 32.2406 34.768C31.8748 34.4175 31.6397 33.9167 31.4568 33.2157C31.3 32.5647 31.1955 31.7134 31.1432 30.7619C31.091 29.8105 31.0649 28.7088 31.091 27.507V18.4933C31.091 17.2914 31.1171 16.1898 31.1432 15.2383C31.1955 14.2869 31.3 13.4856 31.4568 12.7846C31.6135 12.0835 31.8748 11.5827 32.2406 11.2322C32.5802 10.8817 33.0505 10.6814 33.6514 10.6814C34.2523 10.6814 34.7226 10.8817 35.0623 11.2322C35.428 11.5827 35.6632 12.0835 35.8461 12.7846C36.0028 13.4356 36.1073 14.2869 36.1596 15.2383C36.2118 16.1898 36.2118 17.2914 36.2118 18.4933V27.507ZM41.8291 15.1882C41.8291 14.4872 41.803 13.6359 41.7507 12.6343C41.6984 11.6328 41.5939 10.5812 41.411 9.42946C41.2282 8.27771 40.9669 7.17603 40.6272 6.07436C40.2615 4.97268 39.7912 3.97116 39.1903 3.06979C38.5894 2.16841 37.8317 1.41727 36.9173 0.866432C36.0028 0.315594 34.9055 0.0652129 33.6253 0.0151367C32.3451 0.0151367 31.2478 0.315594 30.3333 0.866432C29.4189 1.41727 28.6612 2.16841 28.0603 3.06979C27.4594 3.97116 26.9891 4.97268 26.6233 6.07436C26.2576 7.17603 25.9963 8.32779 25.8395 9.42946C25.6566 10.5812 25.5521 11.6328 25.4999 12.6343C25.4476 13.6359 25.4215 14.4872 25.4215 15.1882V30.812C25.4215 31.5131 25.4476 32.3644 25.4999 33.3659C25.5521 34.3674 25.6566 35.419 25.8395 36.5708C25.9963 37.7225 26.2837 38.8242 26.6233 39.9259C26.9891 41.0275 27.4594 42.0291 28.0603 42.9805C28.6612 43.8819 29.4189 44.633 30.3333 45.1338C31.2478 45.6846 32.3451 45.9851 33.6253 45.9851C34.9055 45.9851 36.0028 45.6846 36.9173 45.1338C37.8317 44.583 38.5894 43.8819 39.1903 42.9805C39.7912 42.0792 40.2615 41.0776 40.6272 39.9259C40.993 38.8242 41.2543 37.6724 41.411 36.5708C41.5678 35.419 41.6984 34.3674 41.7507 33.3659C41.803 32.3644 41.8291 31.5131 41.8291 30.812V15.1882ZM22.5476 1.11681C23.2007 1.11681 23.5142 1.7678 23.5142 2.96963V9.9803C23.5142 10.5812 23.4359 11.0319 23.2791 11.3824C23.1223 11.733 22.8611 11.8832 22.5476 11.8832H14.0303C13.7167 11.8832 13.4816 12.0334 13.2987 12.3339C13.1158 12.6343 13.0374 13.1351 13.0374 13.736V43.0306C13.0374 43.6315 12.9591 44.0822 12.8023 44.4327C12.6455 44.7332 12.3843 44.9335 12.0707 44.9335H8.23012C7.9166 44.9335 7.68146 44.7833 7.49857 44.4327C7.34181 44.0822 7.2373 43.6315 7.2373 43.0306V3.01971C7.2373 2.41879 7.31568 1.91803 7.49857 1.61758C7.68146 1.31712 7.9166 1.16689 8.23012 1.16689L22.5476 1.11681Z" fill="#B59571"/>
<path d="M15.2843 24.9031C12.8546 24.5025 0.993032 28.2081 0.104724 24.202C-1.3845 17.5419 11.0779 21.2976 12.7501 21.3977C13.5861 21.4478 14.6312 21.7483 15.2321 21.4478C15.6501 21.1974 15.9375 19.8954 16.4078 19.3947C17.4529 18.1929 19.1511 18.8438 20.6142 19.0942C21.607 19.2445 22.5737 19.4448 23.6188 19.595C22.1295 19.9956 20.5358 20.3962 18.9682 20.7968C18.7853 20.8469 18.4979 20.6967 18.3673 21.0973C19.961 21.598 21.7638 21.6982 23.4881 21.9486C21.7899 22.4493 19.8826 22.5495 18.2105 23.1504C18.315 23.5009 18.6286 23.4008 18.8114 23.4509C20.3007 23.6512 21.9467 23.9015 23.5143 24.0518C21.8944 24.5525 20.0133 24.6527 18.3934 25.2536C18.4457 25.7544 18.7853 25.6041 18.9421 25.6041C20.4313 25.9547 22.1034 26.3553 23.6449 26.6057C21.9467 26.856 19.8565 27.6072 18.106 27.8075C16.7474 27.9577 15.9375 26.4554 15.2843 24.9031Z" fill="#B59571"/>
<path d="M11.0774 25.3037C12.9585 25.0032 14.5523 24.7529 15.2838 24.853C15.6235 25.6542 15.9631 26.4054 16.4334 26.9562C16.8775 27.5071 17.4001 27.8576 18.0794 27.7574C19.0461 27.6573 20.1173 27.3568 21.1623 27.1064C21.92 26.9061 22.6515 26.7058 23.3308 26.6057C22.6515 26.5055 21.9723 26.3553 21.2668 26.2051C20.4569 26.0548 19.6731 25.8545 18.9416 25.6542H18.8109C18.628 25.6542 18.3929 25.6542 18.3668 25.2536V25.2036H18.3929C19.2812 24.853 20.274 24.6527 21.2668 24.5025C21.9461 24.4023 22.6254 24.2521 23.2525 24.1019C22.0768 23.9516 20.8488 23.8014 19.6992 23.6512C19.4118 23.6011 19.1244 23.551 18.837 23.551H18.7064C18.5235 23.551 18.3145 23.551 18.21 23.2506L18.1839 23.2005H18.21C19.1506 22.85 20.1695 22.6497 21.1884 22.4994C21.8677 22.3993 22.5732 22.2491 23.2263 22.0988C22.8867 22.0487 22.5209 21.9987 22.1813 21.9486C20.8749 21.7984 19.5425 21.6481 18.3668 21.2976H18.3145L18.3406 21.2475C18.4451 20.9471 18.628 20.9471 18.7848 20.9471H18.9416L20.1956 20.6466C21.2407 20.3962 22.3119 20.0958 23.3047 19.8454C22.7038 19.7452 22.1029 19.6451 21.5281 19.5449C21.2146 19.4949 20.9272 19.4448 20.5875 19.3947L19.8037 19.2445C18.5497 18.9941 17.2433 18.6936 16.4073 19.6952C16.1982 19.9455 16.0154 20.3462 15.8586 20.7468C15.6496 21.1975 15.4667 21.6481 15.2316 21.7984C14.8135 21.9987 14.1865 21.9486 13.5594 21.8484C13.2721 21.7984 12.9847 21.7483 12.7234 21.7483C12.436 21.7483 11.8351 21.5981 11.0513 21.4478C8.2296 20.5965 2.92588 19.5449 0.861867 21.2475C0.130319 21.8484 -0.183202 22.7498 0.130319 24.202C0.731233 26.9562 6.68812 26.0048 11.0774 25.3037ZM15.2838 24.9532C14.5523 24.853 12.9585 25.1034 11.0774 25.4039C6.68812 26.1049 0.705107 27.0564 0.0780654 24.202C-0.261582 22.6997 0.0780654 21.7483 0.83574 21.0973C2.92588 19.3947 8.2296 20.4463 11.0774 20.9972C11.8612 21.1474 12.4621 21.2976 12.7495 21.2976C13.0108 21.2976 13.2982 21.3477 13.5856 21.3978C14.2126 21.4979 14.8135 21.548 15.2316 21.3477C15.4406 21.2475 15.6235 20.7968 15.8325 20.3462C16.0154 19.9455 16.1721 19.5449 16.4073 19.2946C17.2694 18.293 18.5758 18.5935 19.856 18.8439L20.6398 18.9941C20.9272 19.0442 21.2668 19.0943 21.5804 19.1443C22.2596 19.2445 22.9389 19.3947 23.6444 19.4448L23.9318 19.4949L23.6705 19.595C22.5993 19.8955 21.4497 20.1959 20.3001 20.4964L19.0461 20.7968H18.8893C18.7587 20.7968 18.6019 20.7968 18.4974 20.9972C19.6731 21.3477 20.9794 21.4979 22.2858 21.6481C22.7299 21.6982 23.148 21.7483 23.5921 21.7984L23.8534 21.8484L23.5921 21.8985C22.8606 22.0988 22.0768 22.2491 21.293 22.3993C20.3001 22.5996 19.2812 22.7498 18.3668 23.1003C18.4451 23.3007 18.628 23.3007 18.7848 23.3007H18.9154C19.2028 23.3507 19.4902 23.4008 19.7776 23.4008C21.0317 23.6011 22.338 23.7513 23.5921 23.9016L23.8534 23.9516L23.5921 24.0518C22.8606 24.2521 22.1029 24.4023 21.3452 24.5526C20.3785 24.7529 19.4118 24.9031 18.5235 25.2536C18.5758 25.5541 18.7587 25.504 18.9154 25.504H19.0461C19.8037 25.6542 20.5875 25.8545 21.3713 26.0548C22.1551 26.2051 22.9651 26.4054 23.7227 26.5055V26.6057C22.9651 26.7058 22.1029 26.9562 21.2407 27.1565C20.1956 27.4069 19.1244 27.7074 18.1578 27.8075C17.4785 27.9077 16.9298 27.5571 16.4856 27.0063C15.9631 26.5055 15.5973 25.7544 15.2838 24.9532Z" fill="#B59571"/>
</g>
<defs>
<clipPath id="clip0_501_332">
<rect width="80" height="46" fill="white"/>
</clipPath>
</defs>
</svg>
