<svg width="14" height="14" viewBox="0 0 14 14" fill="none" xmlns="http://www.w3.org/2000/svg">
<path d="M12.831 13.6666C5.72184 13.6766 0.326004 8.21658 0.333504 1.16909C0.333504 0.708252 0.706837 0.333252 1.16684 0.333252H3.36684C3.77934 0.333252 4.13017 0.636585 4.191 1.04492C4.33609 2.02413 4.62094 2.97746 5.03684 3.87575L5.12267 4.06075C5.18033 4.18524 5.19273 4.32595 5.15774 4.45861C5.12275 4.59127 5.04256 4.70756 4.931 4.78742C4.24934 5.27409 3.98934 6.25325 4.52017 7.01659C5.18849 7.97769 6.02262 8.81211 6.9835 9.48075C7.74767 10.0108 8.72684 9.75075 9.21267 9.06992C9.29245 8.95802 9.40883 8.87754 9.54168 8.84238C9.67453 8.80723 9.81549 8.81962 9.94017 8.87742L10.1243 8.96242C11.0227 9.37908 11.976 9.66409 12.9552 9.80908C13.3635 9.86992 13.6668 10.2208 13.6668 10.6341V12.8333C13.6668 12.9428 13.6453 13.0512 13.6033 13.1523C13.5614 13.2535 13.4999 13.3454 13.4225 13.4228C13.345 13.5002 13.253 13.5616 13.1518 13.6034C13.0506 13.6452 12.9422 13.6667 12.8327 13.6666H12.831Z" fill="#B59571"/>
</svg>
