<svg width="40" height="40" viewBox="0 0 40 40" fill="none" xmlns="http://www.w3.org/2000/svg">
<path d="M36.6141 11.475C36.8975 12.2409 36.0271 14.028 34.0027 16.8363C33.7192 17.2192 33.3549 17.7298 32.9095 18.3681C31.9783 19.5594 31.4519 20.3466 31.3305 20.7295C31.128 21.2401 31.209 21.7295 31.5734 22.1975C31.7758 22.4528 32.2414 22.9634 32.9702 23.7293H33.0309V23.7931C34.691 25.3674 35.8044 26.7077 36.3712 27.814L36.4927 28.0693L36.6141 28.548V29.1543L36.189 29.633L35.1566 29.8564L30.7231 29.984C30.4397 30.0266 30.1057 29.984 29.7211 29.8564C29.3364 29.7287 29.0429 29.6011 28.8404 29.4735L28.476 29.2182C28.1117 28.9629 27.7068 28.5799 27.2614 28.0693C26.816 27.5587 26.4213 27.0907 26.0771 26.6652C25.733 26.2397 25.3787 25.8887 25.0143 25.6121C24.6499 25.3355 24.326 25.2398 24.0426 25.3249C24.0021 25.3249 23.9515 25.3462 23.8908 25.3887C23.8301 25.4313 23.7288 25.527 23.5871 25.6759C23.4454 25.8248 23.324 26.0057 23.2227 26.2184C23.1215 26.4312 23.0304 26.7397 22.9494 27.1439C22.8685 27.5481 22.828 28.0268 22.828 28.5799C22.828 28.7501 22.8077 28.9097 22.7672 29.0586C22.7268 29.2075 22.6863 29.3245 22.6458 29.4096L22.585 29.4735C22.3421 29.7287 22.0182 29.8564 21.6133 29.8564H19.6699C18.8197 29.9415 17.9593 29.8564 17.0888 29.6011C16.2183 29.3458 15.4592 29.016 14.8114 28.6118C14.1635 28.2076 13.5765 27.8034 13.0501 27.3992C12.5238 26.9949 12.1189 26.6439 11.8355 26.3461L11.4104 25.8993C11.2889 25.8142 11.1269 25.644 10.9245 25.3887C10.7221 25.1334 10.3071 24.5803 9.6795 23.7293C9.05194 22.8783 8.43449 21.9635 7.82717 20.9848C7.21985 20.0062 6.51131 18.7191 5.70156 17.1235C4.8918 15.5279 4.14277 13.8791 3.45447 12.1771C3.3735 11.9644 3.33301 11.7942 3.33301 11.6665C3.33301 11.5389 3.35325 11.4325 3.39374 11.3474L3.45447 11.2836C3.61642 11.0283 3.94033 10.9006 4.42618 10.9006H9.22401C9.34547 10.9006 9.46694 10.9325 9.5884 10.9964L9.89206 11.1559L9.95279 11.2198C10.1552 11.3474 10.2969 11.5389 10.3779 11.7942C10.6208 12.3899 10.8941 13.0175 11.1978 13.677C11.5015 14.3365 11.7343 14.8365 11.8962 15.1768L12.1391 15.6874C12.5035 16.4108 12.8376 17.0384 13.1412 17.5703C13.4449 18.1021 13.7182 18.517 13.9611 18.8148C14.204 19.1127 14.447 19.3467 14.6899 19.5169C14.9328 19.6871 15.1353 19.7722 15.2972 19.7722C15.4592 19.7722 15.6211 19.7509 15.7831 19.7084L15.8438 19.6126L16.0564 19.1978L16.2993 18.3681L16.4511 16.9001V14.6024C16.4106 14.1344 16.3499 13.6983 16.2689 13.294C16.1879 12.8898 16.107 12.6026 16.026 12.4324L15.9653 12.2409C15.6818 11.8154 15.1757 11.5389 14.447 11.4112C14.3255 11.4112 14.366 11.2623 14.5684 10.9645C14.7709 10.7517 14.9935 10.5815 15.2365 10.4539C15.8438 10.1135 17.2204 9.96454 19.3663 10.0071C20.2975 10.0071 21.087 10.0922 21.7348 10.2624C21.9372 10.3049 22.1194 10.3794 22.2814 10.4858C22.4433 10.5921 22.5648 10.7411 22.6458 10.9325C22.7268 11.124 22.7875 11.3155 22.828 11.507C22.8685 11.6984 22.8887 11.975 22.8887 12.3367V13.3259C22.8482 13.6663 22.828 14.0918 22.828 14.6024V16.1342C22.828 16.2619 22.8179 16.5172 22.7976 16.9001C22.7774 17.283 22.7672 17.5809 22.7672 17.7936C22.7672 18.0064 22.7875 18.251 22.828 18.5276C22.8685 18.8042 22.9393 19.0382 23.0405 19.2297C23.1418 19.4212 23.2733 19.5594 23.4353 19.6445C23.5163 19.6871 23.6074 19.719 23.7086 19.7403C23.8098 19.7615 23.9616 19.6977 24.1641 19.5488C24.3665 19.3999 24.5892 19.1871 24.8321 18.9106C25.0751 18.634 25.3787 18.2191 25.7431 17.666C26.1075 17.1128 26.4921 16.4746 26.897 15.7513C27.5853 14.4748 28.2129 13.0919 28.7797 11.6027C28.8202 11.5176 28.8708 11.4219 28.9315 11.3155C28.9923 11.2091 29.0631 11.1347 29.1441 11.0921H29.2048L29.2656 11.0283L29.5085 10.9645H29.8729L34.8529 10.9006C35.2983 10.8581 35.6728 10.8794 35.9764 10.9645C36.2801 11.0496 36.4522 11.1559 36.4927 11.2836L36.6141 11.475Z" fill="#B59571"/>
</svg>
