<svg width="40" height="40" viewBox="0 0 40 40" fill="none" xmlns="http://www.w3.org/2000/svg">
<path d="M35.9691 12.3728C35.7804 11.6997 35.4129 11.0902 34.9055 10.6093C34.3838 10.1136 33.7444 9.759 33.0476 9.57899C30.4398 8.89165 19.9923 8.89165 19.9923 8.89165C15.6368 8.8421 11.2824 9.06005 6.9536 9.54428C6.25681 9.73759 5.61858 10.1001 5.0957 10.5996C4.58193 11.0939 4.20979 11.7035 4.01539 12.3714C3.54841 14.8871 3.32151 17.4415 3.33777 20.0002C3.32111 22.5566 3.54744 25.1101 4.01539 27.629C4.20563 28.2941 4.57637 28.9009 5.09153 29.3911C5.60669 29.8813 6.24821 30.2353 6.9536 30.4228C9.59605 31.1088 19.9923 31.1087 19.9923 31.1087C24.3533 31.1584 28.7132 30.9404 33.0476 30.4561C33.7444 30.2761 34.3838 29.9215 34.9055 29.4258C35.4193 28.9356 35.7844 28.3261 35.9677 27.6623C36.4469 25.1476 36.6799 22.5921 36.6634 20.0321C36.6995 17.4613 36.4668 14.8938 35.9691 12.3714V12.3728ZM16.6708 24.7547V15.2471L25.3632 20.0016L16.6708 24.7547Z" fill="#B59571"/>
</svg>
