<?xml version="1.0" encoding="utf-8"?>
<!-- Generator: Adobe Illustrator 23.1.0, SVG Export Plug-In . SVG Version: 6.00 Build 0)  -->
<svg version="1.1" id="Layer_1" xmlns="http://www.w3.org/2000/svg" xmlns:xlink="http://www.w3.org/1999/xlink" x="0px" y="0px"
	 viewBox="0 0 20 20" style="enable-background:new 0 0 20 20;" xml:space="preserve">
<style type="text/css">
	.st0{fill:#50D75D;}
</style>
<g>
	<path class="st0" d="M5.8,15.2c-0.3,0-0.5-0.1-0.7-0.3c-0.4-0.4-0.4-1,0-1.4l6.6-6.6H5.8c-0.6,0-1-0.4-1-1s0.4-1,1-1h8.3
		c0,0,0,0,0,0c0,0,0,0,0,0s0,0,0,0c0.1,0,0.2,0,0.3,0.1c0.1,0,0.2,0.1,0.3,0.2C15,5.2,15,5.3,15.1,5.4c0,0.1,0.1,0.2,0.1,0.4l0,0
		c0,0,0,0,0,0l0,0c0,0,0,0,0,0v8.3c0,0.6-0.4,1-1,1s-1-0.4-1-1V8.2l-6.6,6.6C6.3,15.1,6.1,15.2,5.8,15.2z"/>
</g>
</svg>
