<svg width="46" height="44" viewBox="0 0 46 44" fill="none" xmlns="http://www.w3.org/2000/svg">
<path d="M21.3503 1.40717C22.1447 0.248028 23.8553 0.248028 24.6497 1.40717L31.4147 11.2781C31.6748 11.6576 32.0577 11.9358 32.499 12.0658L43.9773 15.4494C45.3252 15.8468 45.8538 17.4737 44.9969 18.5874L37.6995 28.0716C37.419 28.4362 37.2728 28.8863 37.2854 29.3462L37.6144 41.3083C37.653 42.713 36.2691 43.7185 34.9451 43.2477L23.6701 39.2383C23.2367 39.0842 22.7633 39.0842 22.3299 39.2383L11.0549 43.2477C9.73092 43.7185 8.34697 42.713 8.3856 41.3083L8.7146 29.3462C8.72725 28.8863 8.58098 28.4362 8.30046 28.0716L1.00315 18.5874C0.146221 17.4737 0.674844 15.8468 2.02274 15.4494L13.501 12.0658C13.9423 11.9358 14.3252 11.6576 14.5853 11.2781L21.3503 1.40717Z" fill="#EFEF14"/>
</svg>
