<svg width="24" height="25" viewBox="0 0 24 25" fill="none" xmlns="http://www.w3.org/2000/svg">
<path d="M19.5522 3.49691C19.3115 3.51443 19.0751 3.57091 18.8525 3.66416H18.8495C18.6357 3.74891 17.6195 4.17641 16.0745 4.82441L10.538 7.15616C6.56522 8.82866 2.65997 10.4757 2.65997 10.4757L2.70647 10.4577C2.70647 10.4577 2.43722 10.5462 2.15597 10.7389C1.98222 10.8495 1.8327 10.9941 1.71647 11.1642C1.57847 11.3667 1.46747 11.6764 1.50872 11.9967C1.57622 12.5382 1.92722 12.8629 2.17922 13.0422C2.43422 13.2237 2.67722 13.3084 2.67722 13.3084H2.68322L6.34547 14.5422C6.50972 15.0694 7.46147 18.1984 7.69022 18.9192C7.82522 19.3497 7.95647 19.6189 8.12072 19.8244C8.20022 19.9294 8.29322 20.0172 8.40497 20.0877C8.46307 20.1215 8.52501 20.1481 8.58947 20.1672L8.55197 20.1582C8.56322 20.1612 8.57222 20.1702 8.58047 20.1732C8.61047 20.1814 8.63072 20.1844 8.66897 20.1904C9.24872 20.3659 9.71447 20.0059 9.71447 20.0059L9.74072 19.9849L11.903 18.0162L15.527 20.7964L15.6095 20.8317C16.3647 21.1632 17.1297 20.9787 17.534 20.6532C17.9412 20.3254 18.0995 19.9062 18.0995 19.9062L18.1257 19.8387L20.9262 5.49191C21.0057 5.13791 21.026 4.80641 20.9382 4.48466C20.8477 4.15903 20.6388 3.87897 20.3525 3.69941C20.112 3.55325 19.8332 3.4827 19.5522 3.49691ZM19.4765 5.03441C19.4735 5.08166 19.4825 5.07641 19.4615 5.16716V5.17541L16.6872 19.3729C16.6752 19.3932 16.655 19.4374 16.5995 19.4817C16.541 19.5282 16.4945 19.5574 16.2507 19.4607L11.8182 16.0624L9.14072 18.5029L9.70322 14.9104L16.9452 8.16041C17.2437 7.88291 17.144 7.82441 17.144 7.82441C17.165 7.48391 16.6932 7.72466 16.6932 7.72466L7.56122 13.3819L7.55822 13.3669L3.18122 11.8932V11.8902L3.16997 11.8879C3.17765 11.8854 3.18516 11.8824 3.19247 11.8789L3.21647 11.8669L3.23972 11.8587C3.23972 11.8587 7.14797 10.2117 11.1207 8.53916C13.1097 7.70141 15.1137 6.85766 16.655 6.20666C17.569 5.82191 18.484 5.43941 19.4 5.05916C19.4615 5.03516 19.4322 5.03441 19.4765 5.03441Z" fill="white"/>
</svg>
