<svg width="24" height="25" viewBox="0 0 24 25" fill="none" xmlns="http://www.w3.org/2000/svg">
<path d="M16.5143 23.027C15.432 22.6687 14.7649 21.9177 14.4518 20.7119C14.3701 20.3812 14.3497 19.8438 14.3497 17.8733V15.4411H13.669H12.9883V14.6488V13.8564H14.445H15.9085L15.9289 16.9776C15.9561 20.4088 15.9697 20.4846 16.3986 21.084C17.018 21.959 18.4679 21.9039 19.3528 20.9806C19.7067 20.6155 19.9722 20.0918 20.0675 19.582C20.1015 19.3822 20.1356 18.3625 20.1356 17.329V15.4411H19.3528H18.57V14.6488V13.8564H20.1356H21.7012V16.2541C21.7012 17.5701 21.7216 19.2719 21.7488 20.0436L21.7896 21.4354H22.3955H23.0013L22.9809 22.1795L22.9604 22.9167L21.7556 22.9374C20.6529 22.9512 20.5508 22.9443 20.5236 22.834C20.5031 22.7651 20.4487 22.4551 20.4078 22.145C20.3602 21.8281 20.3057 21.5732 20.2785 21.5732C20.2581 21.5732 20.1356 21.7316 20.0062 21.9246C19.7135 22.3586 19.3255 22.6894 18.8014 22.9305C18.4542 23.0959 18.3045 23.1234 17.651 23.1372C17.0656 23.151 16.8206 23.1303 16.5143 23.027Z" fill="white"/>
<path d="M1.02042 22.1794L1.04084 21.4009H1.82364H2.60644L2.62686 22.1794L2.64728 22.9511H1.82364H1L1.02042 22.1794Z" fill="white"/>
<path d="M4.18531 22.9029C4.15809 22.8823 4.13767 22.5378 4.13767 22.145V21.4354H4.88643H5.63519V18.3694V15.3102L4.90685 15.2896L4.1717 15.2689L4.15128 14.5592L4.13086 13.8564L5.5467 13.8702L6.96254 13.8909L6.97616 14.2354C6.98977 14.4283 7.017 14.8141 7.03742 15.0966C7.07826 15.6065 7.08507 15.6134 7.19398 15.4411C7.43903 15.0484 8.05165 14.4765 8.43965 14.2698C9.05227 13.9391 9.44027 13.8564 10.4205 13.8564H11.2849V15.2344V16.6124H10.5158H9.73977L9.7738 15.9234C9.79423 15.4549 9.78061 15.2344 9.73296 15.2344C9.53556 15.2344 8.90932 15.3998 8.69831 15.51C8.2967 15.7167 7.84744 16.1715 7.62281 16.5986C7.24163 17.3221 7.20079 17.6184 7.20079 19.6233V21.4354H9.14076H11.0807V22.1933V22.9512H7.65685C5.77133 22.9512 4.20574 22.9305 4.18531 22.9029Z" fill="white"/>
<path d="M17.3437 11.8308C15.4582 11.259 14.1581 9.71562 13.947 7.78644C13.6816 5.37496 15.2608 3.10817 17.5888 2.58453C18.215 2.44673 19.4539 2.48118 20.1005 2.66032C20.6314 2.80501 21.53 3.24597 21.8567 3.52157L22.1086 3.73515V4.87199V6.00195H21.3258H20.543V5.2096V4.41726L20.2707 4.27946C19.6376 3.95563 18.6506 3.85228 17.9359 4.03831C17.3982 4.17611 17.0442 4.37592 16.6562 4.74109C15.5739 5.7608 15.2948 7.34548 15.9483 8.74414C16.84 10.6527 19.2701 11.0592 20.8357 9.57094C21.0263 9.38491 21.1964 9.24022 21.21 9.24022C21.2237 9.24022 21.4891 9.44692 21.809 9.69495L22.3808 10.1497L22.1358 10.4528C21.8431 10.8111 21.1964 11.3141 20.7267 11.5621C19.835 12.0169 18.3375 12.134 17.3437 11.8308Z" fill="white"/>
<path d="M7.75249 11.7758C7.71846 11.6862 7.11945 9.99127 6.41834 8.00008C5.71722 6.00889 5.09098 4.34152 5.02972 4.29329C4.96165 4.23817 4.73702 4.20372 4.41029 4.21061C4.13121 4.2175 3.81809 4.2175 3.71598 4.2175L3.52539 4.21061V3.45272V2.69482L4.92762 2.7086L6.33665 2.72927L7.4598 6.05023C8.07923 7.87606 8.60336 9.3574 8.63059 9.34362C8.65101 9.32984 9.17514 7.82783 9.78777 6.00889L10.9109 2.69482L12.2383 2.7086L13.5656 2.72927L13.586 3.4665L13.6065 4.20372L12.8441 4.22439L12.0885 4.24506L10.6795 8.06898L9.27044 11.8929L8.5421 11.9136C7.83418 11.9342 7.80695 11.9273 7.75249 11.7758Z" fill="white"/>
</svg>
