<svg width="24" height="25" viewBox="0 0 24 25" fill="none" xmlns="http://www.w3.org/2000/svg">
<path fill-rule="evenodd" clip-rule="evenodd" d="M23.155 17.6143C22.611 16.5188 21.8942 15.518 21.032 14.6503C20.7436 14.3244 20.4417 14.0108 20.127 13.7103L20.089 13.6733C19.9722 13.5598 19.8568 13.4448 19.743 13.3283C20.9216 11.6894 21.9301 9.93468 22.753 8.09132L22.786 8.01732L22.809 7.93932C22.918 7.57632 23.042 6.88632 22.602 6.26232C22.146 5.61832 21.417 5.50231 20.928 5.50231H18.681C18.2105 5.48087 17.7453 5.60881 17.3519 5.86782C16.9586 6.12683 16.6572 6.50364 16.491 6.94432C16.0074 8.09596 15.402 9.19253 14.685 10.2153V7.58232C14.685 7.24232 14.653 6.67231 14.288 6.19231C13.852 5.61632 13.221 5.50231 12.783 5.50231H9.217C8.75167 5.49161 8.30005 5.66028 7.95567 5.97339C7.61128 6.2865 7.40051 6.72007 7.367 7.18432L7.364 7.22932V7.27432C7.364 7.75932 7.556 8.11731 7.71 8.34231C7.779 8.44331 7.852 8.53531 7.899 8.59331L7.909 8.60631C7.959 8.66831 7.992 8.70931 8.025 8.75531C8.113 8.87331 8.238 9.05731 8.274 9.53131V11.0043C7.55817 9.80564 6.97124 8.53456 6.523 7.21231L6.515 7.19032L6.507 7.16932C6.385 6.85032 6.19 6.38632 5.799 6.03232C5.343 5.61732 4.803 5.50231 4.312 5.50231H2.032C1.535 5.50231 0.936 5.61832 0.489 6.08932C0.05 6.55332 0 7.10931 0 7.40331V7.53732L0.028 7.66732C0.659301 10.5981 1.96024 13.343 3.829 15.6873C4.68338 17.0346 5.84329 18.1616 7.21465 18.9768C8.58601 19.792 10.1302 20.2725 11.722 20.3793L11.763 20.3823H11.805C12.531 20.3823 13.288 20.3193 13.857 19.9403C14.624 19.4283 14.685 18.6433 14.685 18.2513V17.1133C14.882 17.2733 15.126 17.4873 15.425 17.7753C15.787 18.1373 16.075 18.4513 16.322 18.7253L16.454 18.8713C16.646 19.0853 16.835 19.2963 17.007 19.4693C17.223 19.6863 17.49 19.9253 17.824 20.1023C18.187 20.2933 18.568 20.3803 18.972 20.3803H21.253C21.734 20.3803 22.423 20.2663 22.908 19.7043C23.436 19.0923 23.396 18.3413 23.23 17.8023L23.2 17.7053L23.155 17.6143ZM17.435 17.7203C17.1251 17.3739 16.806 17.0357 16.478 16.7063L16.475 16.7033C15.118 15.3953 14.485 15.1683 14.037 15.1683C13.798 15.1683 13.535 15.1943 13.364 15.4083C13.287 15.5104 13.2365 15.63 13.217 15.7563C13.1929 15.903 13.1822 16.0517 13.185 16.2003V18.2513C13.185 18.5063 13.143 18.6133 13.025 18.6913C12.868 18.7963 12.533 18.8813 11.814 18.8813C10.4482 18.7884 9.12398 18.3726 7.95018 17.6682C6.77637 16.9638 5.78652 15.9908 5.062 14.8293L5.054 14.8163L5.044 14.8043C3.30312 12.6375 2.08984 10.0956 1.5 7.37932C1.504 7.24932 1.532 7.17032 1.578 7.12232C1.625 7.07232 1.74 7.00231 2.032 7.00231H4.312C4.565 7.00231 4.697 7.05832 4.792 7.14332C4.898 7.24132 4.992 7.40632 5.104 7.70032C5.664 9.34632 6.42 10.8863 7.137 12.0173C7.495 12.5833 7.847 13.0543 8.165 13.3873C8.324 13.5533 8.479 13.6913 8.628 13.7893C8.771 13.8833 8.934 13.9583 9.102 13.9583C9.19 13.9583 9.293 13.9483 9.392 13.9053C9.49892 13.8581 9.58693 13.7764 9.642 13.6733C9.745 13.4853 9.774 13.2083 9.774 12.8453V9.47231C9.721 8.65431 9.474 8.19332 9.234 7.86632C9.1854 7.80091 9.13538 7.73656 9.084 7.67331L9.071 7.65732C9.02836 7.60552 8.98766 7.55215 8.949 7.49732C8.89977 7.43616 8.87015 7.36158 8.864 7.28332C8.87184 7.20385 8.90976 7.13039 8.96999 7.07797C9.03022 7.02554 9.10821 6.99812 9.188 7.00131H12.783C12.989 7.00131 13.058 7.05132 13.093 7.09832C13.143 7.16332 13.185 7.29832 13.185 7.58232V12.1103C13.185 12.6483 13.433 13.0123 13.793 13.0123C14.207 13.0123 14.506 12.7613 15.028 12.2393L15.037 12.2293L15.045 12.2203C16.216 10.7926 17.1727 9.20189 17.885 7.49832L17.889 7.48632C17.9425 7.3358 18.0438 7.20693 18.1774 7.11936C18.311 7.03179 18.4696 6.99033 18.629 7.00131H20.929C21.241 7.00131 21.343 7.08132 21.377 7.12832C21.412 7.17832 21.437 7.28531 21.377 7.49531C20.5556 9.33167 19.5401 11.0749 18.348 12.6953L18.34 12.7073C18.225 12.8843 18.098 13.0803 18.08 13.3043C18.06 13.5463 18.164 13.7653 18.347 14.0013C18.48 14.1973 18.755 14.4663 19.034 14.7393L19.06 14.7653C19.352 15.0513 19.669 15.3613 19.923 15.6613L19.93 15.6683L19.937 15.6763C20.6944 16.4318 21.3243 17.3051 21.802 18.2623C21.878 18.5223 21.832 18.6563 21.772 18.7253C21.703 18.8053 21.548 18.8803 21.254 18.8803H18.972C18.8165 18.8841 18.6626 18.8479 18.525 18.7753C18.3564 18.6772 18.2034 18.5546 18.071 18.4113C17.928 18.2683 17.773 18.0953 17.583 17.8843L17.436 17.7203H17.435Z" fill="white"/>
</svg>
