<?xml version="1.0" encoding="utf-8"?>
<!-- Generator: Adobe Illustrator 23.1.0, SVG Export Plug-In . SVG Version: 6.00 Build 0)  -->
<svg version="1.1" id="Layer_1" xmlns="http://www.w3.org/2000/svg" xmlns:xlink="http://www.w3.org/1999/xlink" x="0px" y="0px"
	 viewBox="0 0 24 25" style="enable-background:new 0 0 24 25;" xml:space="preserve">
<style type="text/css">
	.st0{fill:#FFFFFF;}
</style>
<g>
	<path class="st0" d="M17,21.3H7c-3.4,0-5.8-2.3-5.8-5.8v-6c0-3.4,2.3-5.8,5.8-5.8h10c3.4,0,5.8,2.3,5.8,5.8v6
		C22.8,18.9,20.4,21.3,17,21.3z M7,5.3c-2.6,0-4.3,1.7-4.3,4.3v6c0,2.6,1.7,4.3,4.3,4.3h10c2.6,0,4.3-1.7,4.3-4.3v-6
		c0-2.6-1.7-4.3-4.3-4.3H7z"/>
</g>
<g>
	<path class="st0" d="M10.6,16.1c-0.3,0-0.6-0.1-0.8-0.2c-0.6-0.3-0.9-1-0.9-1.8v-3c0-1.2,0.6-1.7,0.9-1.9c0.3-0.2,1-0.4,2,0.2
		l2.5,1.5c0.7,0.5,1,1,1,1.7c0,0.6-0.4,1.2-1,1.7l-2.5,1.5C11.4,16,11,16.1,10.6,16.1z M10.6,10.5C10.5,10.5,10.5,10.5,10.6,10.5
		c-0.1,0-0.2,0.2-0.2,0.6v3c0,0.3,0.1,0.4,0.2,0.5c0.1,0,0.3,0,0.5-0.1l2.5-1.5c0.2-0.1,0.3-0.3,0.3-0.4s-0.1-0.3-0.3-0.4L11,10.6
		l0,0C10.8,10.5,10.6,10.5,10.6,10.5z"/>
</g>
</svg>
