<svg width="60" height="60" viewBox="0 0 60 60" fill="none" xmlns="http://www.w3.org/2000/svg">
<path fill-rule="evenodd" clip-rule="evenodd" d="M55.3944 39.1976C55.3944 39.4185 55.2155 39.5977 54.9949 39.5977H50.2895C49.6062 37.3051 47.4824 35.6275 44.9751 35.6275C42.4665 35.6275 40.3437 37.305 39.6608 39.5977L29.1928 39.5982C28.5109 37.3055 26.3867 35.628 23.8794 35.628C21.3708 35.628 19.2471 37.3054 18.5651 39.5982H12.5501C12.3296 39.5982 12.1507 39.419 12.1507 39.1981V30.0819H37.3162C38.4223 30.0819 39.3217 29.1815 39.3217 28.0735V15.6094H47.1455C47.8819 15.6094 48.5223 15.9953 49.1028 16.7905L54.3693 23.9941C54.8737 24.6825 55.394 25.228 55.394 25.9097L55.3944 39.1976ZM44.9752 45.1279C47.1463 45.1279 48.9136 43.3572 48.9136 41.1826C48.9136 39.0065 47.1463 37.2363 44.9752 37.2363C42.8027 37.2363 41.0363 39.0065 41.0363 41.1826C41.0363 43.3568 42.8027 45.1279 44.9752 45.1279ZM23.8794 45.1279C26.0506 45.1279 27.8184 43.3572 27.8184 41.1826C27.8184 39.0065 26.0506 37.2363 23.8794 37.2363C21.707 37.2363 19.9405 39.0065 19.9405 41.1826C19.9401 43.3568 21.7065 45.1279 23.8794 45.1279ZM17.6596 19.0585V28.4723H24.7373V25.6243C24.7373 24.3118 25.8045 23.2429 27.1148 23.2429H27.9243V19.0584C27.9243 18.9937 27.8663 18.9351 27.8012 18.9351H17.7828C17.7177 18.9351 17.6597 18.9932 17.6597 19.0584L17.6596 19.0585ZM33.0973 25.6243C33.0973 25.1989 32.7506 24.8508 32.3259 24.8508H27.1143C26.6896 24.8508 26.342 25.1985 26.342 25.6243V28.4723H33.0969L33.0973 25.6243ZM55.9026 23.3601C55.8251 23.2563 55.7445 23.1511 55.6657 23.0429L50.3982 15.8394C49.506 14.6187 48.4118 14 47.1457 14H38.5191C38.0758 14 37.7158 14.3606 37.7158 14.8046V28.0737C37.7158 28.2946 37.5369 28.4729 37.3163 28.4729H34.7041V25.6249C34.7041 24.3124 33.6369 23.2435 32.3266 23.2435H29.531V19.059C29.531 18.1041 28.7561 17.327 27.8018 17.327H17.7824C16.8299 17.327 16.0532 18.1041 16.0532 19.059V28.4728H4.80284C4.35956 28.4728 4 28.8334 4 29.2774C4 29.7214 4.35913 30.0815 4.80284 30.0815H10.5441V34.5871H6.21817C5.77535 34.5871 5.41534 34.9477 5.41534 35.3917C5.41534 35.8352 5.77535 36.1958 6.21817 36.1958H10.5441V39.1978C10.5441 40.3058 11.4439 41.2066 12.5496 41.2066H18.3342C18.3475 44.2568 20.8291 46.7353 23.8788 46.7353C26.928 46.7353 29.4092 44.2568 29.4224 41.2066H39.4293C39.4435 44.2568 41.9256 46.7353 44.9748 46.7353C48.0233 46.7353 50.5052 44.2568 50.5185 41.2066H54.9941C56.1002 41.2066 56.9996 40.3053 56.9996 39.1978L57 25.9093C57 24.8089 56.4172 24.0402 55.9022 23.3608L55.9026 23.3601Z" fill="#2D73DC"/>
</svg>
