<svg width="60" height="60" viewBox="0 0 60 60" fill="none" xmlns="http://www.w3.org/2000/svg">
<path d="M52.4931 10H7.70705C5.66306 10 4.00058 11.6625 4.00058 13.7065V28.7414C4.00058 28.9783 3.89461 28.584 6.54448 34.6905C6.64249 34.9145 6.86426 35.0598 7.10911 35.0598H53.0907C53.3355 35.0598 53.5573 34.9145 53.6553 34.6905C56.2896 28.6188 56.1988 28.9844 56.1988 28.7414L56.1992 13.7065C56.1992 11.6625 54.5367 10 52.4935 10H52.4931ZM5.23368 13.7065C5.23368 12.3426 6.34326 11.2334 7.70676 11.2334H52.4928C53.8563 11.2334 54.9655 12.343 54.9655 13.7065L54.9659 28.1243H53.4116V25.1815C53.4116 23.1375 51.7492 21.4751 49.7056 21.4751H10.494C8.45002 21.4751 6.78754 23.1375 6.78754 25.1815V28.1243H5.23367L5.23368 13.7065ZM8.02056 26.0287H52.1788V28.1246L8.02056 28.1249V26.0287ZM8.05991 24.7957C8.24686 23.6157 9.26259 22.7086 10.494 22.7086H49.7056C50.9371 22.7086 51.9524 23.6161 52.1393 24.7957H8.05991ZM52.6871 33.8269H7.51254L5.55942 29.3579H54.6402L52.6871 33.8269Z" fill="#2D73DC"/>
<path d="M10.8512 18.3812C12.2359 18.3812 13.3625 17.2542 13.3625 15.8695C13.3625 14.4847 12.2359 13.3577 10.8512 13.3577C9.46647 13.3577 8.33984 14.4847 8.33984 15.8695C8.33984 17.2538 9.46647 18.3812 10.8512 18.3812ZM10.8512 14.5903C11.5558 14.5903 12.1295 15.1644 12.1295 15.8691C12.1295 16.5737 11.5558 17.1478 10.8512 17.1478C10.1465 17.1478 9.57285 16.5737 9.57285 15.8691C9.57285 15.1644 10.1466 14.5903 10.8512 14.5903Z" fill="#2D73DC"/>
<path d="M18.2848 18.3812C19.6695 18.3812 20.7961 17.2542 20.7961 15.8695C20.7961 14.4847 19.6695 13.3577 18.2848 13.3577C16.9001 13.3577 15.7734 14.4847 15.7734 15.8695C15.7734 17.2538 16.9001 18.3812 18.2848 18.3812ZM18.2848 14.5903C18.9894 14.5903 19.5631 15.1644 19.5631 15.8691C19.5631 16.5737 18.9894 17.1478 18.2848 17.1478C17.5801 17.1478 17.0064 16.5737 17.0064 15.8691C17.0064 15.1644 17.5802 14.5903 18.2848 14.5903Z" fill="#2D73DC"/>
<path d="M29.4844 37.9164H30.7174V50.0934H29.4844V37.9164Z" fill="#2D73DC"/>
<path d="M37.5634 37.5946L43.9231 47.9793L42.8715 48.6234L36.5117 38.2387L37.5634 37.5946Z" fill="#2D73DC"/>
<path d="M16.2773 47.9793L22.6371 37.5946L23.6887 38.2387L17.329 48.6234L16.2773 47.9793Z" fill="#2D73DC"/>
</svg>
