<svg width="60" height="60" viewBox="0 0 60 60" fill="none" xmlns="http://www.w3.org/2000/svg">
<path d="M37.0202 7.8725C36.8575 7.77767 36.6568 7.7767 36.4928 7.86925C33.8635 9.36064 32.2305 12.1546 32.2305 15.1597C32.2237 18.1233 33.7783 20.8523 36.3086 22.3563V47.6603C36.3086 50.099 38.2774 52.0794 40.7206 52.0794C43.1574 52.0794 45.1397 50.097 45.1397 47.6603V22.2042C47.5082 20.679 48.9668 18.014 48.9668 15.1778C48.9807 12.1528 47.3387 9.35174 44.6804 7.86784C44.5161 7.77625 44.317 7.77885 44.1543 7.87336C43.9929 7.96852 43.8932 8.14195 43.8932 8.32966V11.9758C43.8932 13.8247 42.4314 15.281 40.5809 15.281C38.7621 15.281 37.2828 13.8017 37.2828 11.983V8.32933C37.2828 8.14097 37.1828 7.96721 37.0201 7.87238L37.0202 7.8725ZM40.5813 16.3387C42.983 16.3387 44.9517 14.4398 44.9517 11.9755V9.29912C46.8062 10.6696 47.9197 12.8456 47.9087 15.1752C47.9087 17.7438 46.5414 20.1497 44.3408 21.4542C44.18 21.5494 44.0813 21.7222 44.0813 21.9092V47.6605C44.0813 49.5136 42.5737 51.0212 40.7206 51.0212C38.8681 51.0212 37.3667 49.5204 37.3667 47.6605V22.0489C37.3667 21.855 37.2605 21.6771 37.0903 21.5842C34.739 20.3042 33.2823 17.8435 33.2885 15.1612C33.2885 12.8505 34.3934 10.6833 36.2247 9.30759V11.9827C36.2247 14.3851 38.1788 16.3392 40.5811 16.3392L40.5813 16.3387Z" fill="#2D73DC"/>
<path d="M19.1306 39.5261C18.8386 39.5261 18.6016 39.7632 18.6016 40.0551V46.4895C18.6016 49.8862 21.3469 52.5954 24.7007 52.5954C28.0672 52.5954 30.8064 49.8564 30.8064 46.4895V40.0551C30.8064 39.7632 30.5693 39.5261 30.2774 39.5261C29.0045 39.5261 27.9692 38.4907 27.9692 37.2179C27.9692 35.9451 29.0045 34.9098 30.2774 34.9098C30.5693 34.9098 30.8064 34.6727 30.8064 34.3807V31.5643C30.8064 31.2723 30.5693 31.0353 30.2774 31.0353H27.0498V15.7373C27.1531 15.7133 27.789 15.8624 27.8887 15.3008L29.1134 8.42192C29.141 8.26797 29.0984 8.10949 28.9981 7.98965C28.8977 7.86949 28.749 7.80031 28.5928 7.80031L20.8152 7.79999C20.6587 7.79999 20.5099 7.86916 20.4099 7.98932C20.3092 8.10916 20.267 8.26766 20.2946 8.42159L21.519 15.3005C21.5638 15.5529 21.7837 15.737 22.0399 15.737H22.3582V31.0349H19.1307C18.8387 31.0349 18.6016 31.272 18.6016 31.564V34.3804C18.6016 34.6723 18.8387 34.9094 19.1307 34.9094C20.4035 34.9094 21.4388 35.9448 21.4388 37.2176C21.4388 38.4904 20.4035 39.5258 19.1307 39.5258L19.1306 39.5261ZM21.4468 8.85871H27.9608L26.9244 14.6796C26.7422 14.6796 22.4108 14.6802 22.4832 14.6796L21.4468 8.85871ZM23.4163 15.738H25.9917V31.0359H23.4163V15.738ZM19.6596 33.8934V32.0936H29.748V33.8934C28.142 34.1477 26.9108 35.5416 26.9108 37.2181C26.9108 38.8945 28.1423 40.2885 29.748 40.5427V46.4895C29.748 49.2731 27.4837 51.5374 24.7004 51.5374C21.9259 51.5374 19.6593 49.2969 19.6593 46.4895V40.5427C21.2653 40.2884 22.4965 38.8945 22.4965 37.2181C22.4965 35.5416 21.265 34.1477 19.6593 33.8934H19.6596Z" fill="#2D73DC"/>
</svg>
