<svg width="60" height="60" viewBox="0 0 60 60" fill="none" xmlns="http://www.w3.org/2000/svg">
<path d="M10.8135 7.80064C9.73263 7.80064 8.85352 8.67976 8.85352 9.76066V14.1444C8.85352 15.2253 9.73263 16.1044 10.8135 16.1044L48.847 16.1038C49.9279 16.1038 50.807 15.2246 50.807 14.1437L50.8074 9.76C50.8074 8.67911 49.9282 7.79999 48.8473 7.79999L10.8135 7.80064ZM49.7383 9.75999V14.1437C49.7383 14.6353 49.3386 15.0346 48.8474 15.0346H46.2649V11.5963H45.1958V15.0349H41.7223V10.1709H40.6532V15.0349H37.1792V11.5963H36.11V15.0349H32.6366V10.1709H31.5674V15.0353H28.094V11.5963H27.0248V15.0353H23.5514V10.1709H22.4822V15.0353H19.0082L19.0079 11.5963H17.9387V15.0355H14.4653V10.1714H13.3961V15.0355H10.8136C10.3221 15.0355 9.92274 14.6359 9.92274 14.1447V9.76058C9.92274 9.26901 10.3224 8.8697 10.8136 8.8697L48.8471 8.86904C49.3387 8.86904 49.7383 9.26846 49.7383 9.75999Z" fill="#2D73DC"/>
<path d="M40.4917 29.87H12.8002C12.5052 29.87 12.2656 30.1096 12.2656 30.4046V46.7293C12.2656 47.0243 12.5052 47.2639 12.8002 47.2639H40.7236C40.867 47.2639 41.0042 47.2068 41.1042 47.1044C41.2043 47.0027 41.2601 46.8649 41.2581 46.7215L41.0261 30.3967C41.0219 30.1043 40.784 29.8697 40.4916 29.8697L40.4917 29.87ZM26.7501 46.1948V42.9518H25.681V46.1948H13.3347V36.3031H17.6978V35.234H13.3347V30.9386H25.5802L25.6694 35.234H20.5575V36.3031H26.2151C26.3585 36.3031 26.4964 36.2454 26.5974 36.1424C26.6975 36.04 26.7526 35.9008 26.75 35.7574L26.6499 30.9386H39.9648L40.0744 38.6642H26.7495V37.1829H25.6803V41.2145H26.7495V39.7333H40.0887L40.1802 46.1941L26.7501 46.1948Z" fill="#2D73DC"/>
<path d="M48.733 17.9924C46.6712 17.9924 44.9944 19.6643 44.9944 21.7198V24.5396H7.73377C7.43877 24.5396 7.19922 24.7791 7.19922 25.0741V52.0609C7.19922 52.3559 7.43877 52.5954 7.73377 52.5954H47.0836C50.0481 52.5954 52.46 50.1836 52.46 47.1607C52.46 47.1197 52.4498 47.0813 52.4485 47.0406C52.4508 47.0209 52.4603 47.0038 52.4603 46.9838V21.72C52.4603 19.6645 50.7884 17.9926 48.7329 17.9926L48.733 17.9924ZM47.084 51.5257H8.26847V25.6084H44.994V46.9836C44.994 47.2786 45.2335 47.5181 45.5285 47.5181C45.8235 47.5181 46.0631 47.2786 46.0631 46.9836C46.0631 45.2861 47.6799 43.9479 49.4325 44.4306C50.5521 44.7633 51.3911 45.8849 51.3911 47.2188C51.3911 49.5939 49.4587 51.526 47.0839 51.526L47.084 51.5257ZM51.3913 44.3731C50.0005 42.9565 47.5802 42.8334 46.0635 44.3757V21.7194C46.0635 20.2536 47.2605 19.0611 48.7329 19.0611C50.1987 19.0611 51.3913 20.2535 51.3913 21.7194V44.3731Z" fill="#2D73DC"/>
</svg>
