<svg width="0" height="0" class="hidden">
  <symbol  xmlns="http://www.w3.org/2000/svg" viewBox="0 0 24 24" id="whatsapp">
    <path d="M19.0508 4.91006C18.134 3.98399 17.042 3.24973 15.8384 2.75011C14.6349 2.25049 13.3439 1.99552 12.0408 2.00006C6.58078 2.00006 2.13078 6.45006 2.13078 11.9101C2.13078 13.6601 2.59078 15.3601 3.45078 16.8601L2.05078 22.0001L7.30078 20.6201C8.75078 21.4101 10.3808 21.8301 12.0408 21.8301C17.5008 21.8301 21.9508 17.3801 21.9508 11.9201C21.9508 9.27006 20.9208 6.78006 19.0508 4.91006ZM12.0408 20.1501C10.5608 20.1501 9.11078 19.7501 7.84078 19.0001L7.54078 18.8201L4.42078 19.6401L5.25078 16.6001L5.05078 16.2901C4.22853 14.977 3.79192 13.4593 3.79078 11.9101C3.79078 7.37006 7.49078 3.67006 12.0308 3.67006C14.2308 3.67006 16.3008 4.53006 17.8508 6.09006C18.6183 6.85402 19.2265 7.76272 19.6402 8.76348C20.0539 9.76425 20.2648 10.8372 20.2608 11.9201C20.2808 16.4601 16.5808 20.1501 12.0408 20.1501ZM16.5608 13.9901C16.3108 13.8701 15.0908 13.2701 14.8708 13.1801C14.6408 13.1001 14.4808 13.0601 14.3108 13.3001C14.1408 13.5501 13.6708 14.1101 13.5308 14.2701C13.3908 14.4401 13.2408 14.4601 12.9908 14.3301C12.7408 14.2101 11.9408 13.9401 11.0008 13.1001C10.2608 12.4401 9.77078 11.6301 9.62078 11.3801C9.48078 11.1301 9.60078 11.0001 9.73078 10.8701C9.84078 10.7601 9.98078 10.5801 10.1008 10.4401C10.2208 10.3001 10.2708 10.1901 10.3508 10.0301C10.4308 9.86006 10.3908 9.72006 10.3308 9.60006C10.2708 9.48006 9.77078 8.26006 9.57078 7.76006C9.37078 7.28006 9.16078 7.34006 9.01078 7.33006H8.53078C8.36078 7.33006 8.10078 7.39006 7.87078 7.64006C7.65078 7.89006 7.01078 8.49006 7.01078 9.71006C7.01078 10.9301 7.90078 12.1101 8.02078 12.2701C8.14078 12.4401 9.77078 14.9401 12.2508 16.0101C12.8408 16.2701 13.3008 16.4201 13.6608 16.5301C14.2508 16.7201 14.7908 16.6901 15.2208 16.6301C15.7008 16.5601 16.6908 16.0301 16.8908 15.4501C17.1008 14.8701 17.1008 14.3801 17.0308 14.2701C16.9608 14.1601 16.8108 14.1101 16.5608 13.9901Z"></path>
  </symbol>
  <symbol xmlns="http://www.w3.org/2000/svg" viewBox="0 0 24 24" id="angle-right">
    <path d="M9.15155 21.575L17.5765 13.175C17.6765 13.075 17.7475 12.9667 17.7895 12.85C17.8315 12.7333 17.8522 12.6083 17.8515 12.475C17.8515 12.3417 17.8305 12.2167 17.7885 12.1C17.7465 11.9833 17.6759 11.875 17.5765 11.775L9.15155 3.35C8.91821 3.11667 8.62655 3 8.27655 3C7.92655 3 7.62655 3.125 7.37655 3.375C7.12655 3.625 7.00155 3.91667 7.00155 4.25C7.00155 4.58333 7.12655 4.875 7.37655 5.125L14.7265 12.475L7.37655 19.825C7.14321 20.0583 7.02655 20.346 7.02655 20.688C7.02655 21.03 7.15155 21.3257 7.40155 21.575C7.65155 21.825 7.94321 21.95 8.27655 21.95C8.60988 21.95 8.90155 21.825 9.15155 21.575Z"></path>
  </symbol>
  <symbol xmlns="http://www.w3.org/2000/svg" viewBox="0 0 20 21" id="arrow">
    <path d="M19.7071 11.2071C20.0976 10.8166 20.0976 10.1834 19.7071 9.79289L13.3431 3.42893C12.9526 3.03841 12.3195 3.03841 11.9289 3.42893C11.5384 3.81946 11.5384 4.45262 11.9289 4.84315L17.5858 10.5L11.9289 16.1569C11.5384 16.5474 11.5384 17.1805 11.9289 17.5711C12.3195 17.9616 12.9526 17.9616 13.3431 17.5711L19.7071 11.2071ZM2 11.5H19V9.5H2V11.5Z"></path>
  </symbol>
  <symbol  xmlns="http://www.w3.org/2000/svg" viewBox="0 0 71 70" id="bag">
    <path d="M66.1244 26.6494C65.3641 26.6494 64.7475 27.2596 64.7475 28.0109V34.8096H51.6679V31.2735C51.6679 30.5217 51.0508 29.912 50.291 29.912C49.5307 29.912 48.9141 30.5222 48.9141 31.2735V34.8096H23.0894V31.2735C23.0894 30.5217 22.4722 29.912 21.7124 29.912C20.9522 29.912 20.3355 30.5222 20.3355 31.2735V34.8096H7.25472V22.4613C7.25472 21.4364 8.0981 20.6035 9.13354 20.6035H62.8669C63.9034 20.6035 64.7458 21.4374 64.7458 22.4613C64.7458 23.213 65.3629 23.8228 66.1227 23.8228C66.883 23.8228 67.4996 23.2125 67.4996 22.4613C67.4996 19.9348 65.421 17.8799 62.8663 17.8799H51.6667V12.5819C51.6667 10.0555 49.5876 8 47.0329 8H24.9681C22.413 8 20.3348 10.0558 20.3348 12.5819V17.8799H9.1333C6.57825 17.8799 4.5 19.9352 4.5 22.4613V58.4181C4.5 60.9445 6.57861 63 9.1333 63H62.8667C65.4218 63 67.5 60.9442 67.5 58.4181V28.0111C67.5005 27.2598 66.8838 26.6496 66.1236 26.6496L66.1244 26.6494ZM23.089 12.582C23.089 11.5567 23.9324 10.7233 24.9678 10.7233H47.0327C48.0696 10.7233 48.9125 11.5572 48.9125 12.582V17.88H23.089V12.582ZM62.8687 60.2781H9.13403C8.09759 60.2781 7.25522 59.4441 7.25522 58.4193V37.5341H20.3348V41.4045C20.3348 42.1563 20.9519 42.766 21.7117 42.766C22.472 42.766 23.0886 42.1558 23.0886 41.4045V37.5341H48.9133V41.4045C48.9133 42.1563 49.5305 42.766 50.2903 42.766C51.0505 42.766 51.6672 42.1558 51.6672 41.4045V37.5341H64.748V58.4193C64.748 59.4442 63.9046 60.2781 62.8692 60.2781H62.8687Z" fill="#2D73DC"></path>
  </symbol>
  <symbol  xmlns="http://www.w3.org/2000/svg" viewBox="0 0 126 15" id="bearlogics-logo">
    <path fill-rule="evenodd" clip-rule="evenodd" d="M0 0V14.5834H5.80095C7.54154 14.5701 8.85339 14.2061 9.73688 13.4917C10.6267 12.7705 11.0716 11.6954 11.0716 10.2664C11.0716 9.47853 10.872 8.81084 10.4728 8.2633C10.0736 7.71567 9.50109 7.34174 8.75534 7.14143C9.41605 6.88772 9.91681 6.49375 10.257 5.95955C10.5972 5.42539 10.7673 4.78099 10.7673 4.02646C10.7673 2.71768 10.2865 1.71942 9.32432 1.03166C8.36917 0.34388 6.9722 0 5.13341 0H0ZM3.44516 11.8791V8.38344H5.85961C7.04394 8.39011 7.63643 9.00111 7.63643 10.2164C7.63643 10.7439 7.46951 11.1545 7.13567 11.4484C6.80212 11.7355 6.32421 11.8791 5.70268 11.8791H3.44516ZM5.24131 6.07976H3.44516V2.71434H5.13341C5.90562 2.71434 6.46511 2.85124 6.8116 3.125C7.15845 3.3921 7.33206 3.83281 7.33206 4.44715C7.33206 4.98131 7.17183 5.3853 6.851 5.65906C6.53046 5.93286 5.99382 6.07309 5.24131 6.07976ZM17.4261 8.40346H22.844V5.78928H17.4261V2.71434H23.8453V0H13.9807V14.5834H23.8256V11.8791H17.4261V8.40346ZM29.3188 14.5834H25.7282L30.9694 0H34.2084L35.3562 3.17015C35.1355 3.28763 34.9388 3.40895 34.7658 3.53103C30.9423 6.48604 29.5412 11.9466 29.3188 14.3075V14.5834ZM31.8163 14.5834H39.0662C38.8624 13.3373 38.2668 10.9228 37.4718 11.0082C36.9745 11.0616 36.6158 11.2478 36.2257 11.4501C35.8303 11.6552 35.4026 11.8771 34.7658 11.9944C34.6839 12.0094 34.6014 12.024 34.5181 12.0386C33.3186 12.2495 32.0068 12.4801 31.8163 14.5834ZM41.645 9.01663V14.5834H45.09V9.43511H46.9554L49.4773 14.5834H53.1678V14.4332L50.1836 8.55368C51.0414 8.1397 51.6698 7.59883 52.0689 6.93114C52.4739 6.26337 52.6775 5.42201 52.6775 4.40706C52.6775 3.00483 52.1998 1.91975 51.2442 1.15184C50.2887 0.383943 48.9635 0 47.2685 0H41.645V2.09351C43.0571 2.16727 44.6681 2.40388 46.4858 2.86758C46.9841 2.56276 47.9374 2.26869 47.7684 3.53103C48.302 3.99439 48.5364 4.16158 49.037 4.5192L49.0686 4.54211C49.1303 4.58569 49.2068 4.62775 49.2862 4.67107C49.6625 4.87735 50.0917 5.11192 49.1039 5.67176C48.3593 6.09407 47.7919 6.12221 46.9422 6.16443C46.4292 6.18989 45.8132 6.22048 44.9922 6.34618C44.6776 6.41037 42.2509 7.23622 41.645 9.01663Z"></path>
    <path fill-rule="evenodd" clip-rule="evenodd" d="M63.1491 11.7583H69.1138V14.3885H59.7227V0.204603H63.1491V11.7583ZM81.1238 11.2614C81.6379 10.1963 81.8952 8.97216 81.8952 7.58881V6.93613C81.8885 5.57226 81.6215 4.36434 81.0944 3.31222C80.574 2.25362 79.8418 1.43856 78.8981 0.867062C77.9544 0.295561 76.8807 0.00977359 75.6766 0.00977359C74.4596 0.00977359 73.373 0.29877 72.4163 0.876763C71.466 1.45476 70.7341 2.2763 70.2199 3.3414C69.7121 4.40001 69.4584 5.62427 69.4584 7.01403V7.81289C69.4845 9.15072 69.7579 10.336 70.2784 11.3686C70.8054 12.4012 71.5376 13.1968 72.4747 13.7553C73.4121 14.3074 74.4858 14.5834 75.6962 14.5834C76.9066 14.5834 77.9837 14.2977 78.9275 13.7262C79.8774 13.1481 80.6097 12.3265 81.1238 11.2614ZM77.6975 3.78956C78.1725 4.51693 78.4101 5.58532 78.4101 6.99456V7.64731C78.4036 9.02409 78.1658 10.0795 77.6975 10.8134C77.2288 11.5472 76.5619 11.9142 75.6962 11.9142C74.785 11.9142 74.0985 11.5407 73.6365 10.7938C73.1744 10.047 72.9434 8.97865 72.9434 7.58881L72.9532 6.54647C73.0507 3.97468 73.9587 2.68872 75.6766 2.68872C76.5553 2.68872 77.2288 3.05569 77.6975 3.78956ZM94.8983 12.6351C94.3712 13.2195 93.5998 13.6904 92.5848 14.0476C91.5694 14.4048 90.4566 14.5834 89.2462 14.5834C87.3847 14.5834 85.8979 14.0152 84.785 12.8786C83.6722 11.7421 83.0766 10.1606 82.9986 8.13435L82.9888 6.90688C82.9888 5.51055 83.236 4.29286 83.7305 3.2538C84.2254 2.20817 84.9314 1.40603 85.8489 0.847513C86.7731 0.282504 87.8404 0 89.0508 0C90.8212 0 92.194 0.405923 93.1702 1.21777C94.1531 2.02305 94.726 3.22776 94.8885 4.8319H91.589C91.4719 4.0396 91.2178 3.47452 90.8274 3.13687C90.437 2.79915 89.8838 2.63029 89.168 2.63029C88.3088 2.63029 87.6451 2.99398 87.1767 3.72136C86.708 4.44873 86.4703 5.48787 86.4641 6.83868V7.69597C86.4641 9.11177 86.7049 10.1769 87.1865 10.8913C87.6744 11.5992 88.4392 11.9532 89.4804 11.9532C90.372 11.9532 91.0357 11.755 91.4719 11.3589V9.15729H89.09V6.8095H94.8983V12.6351ZM97.1239 14.3885H100.54V0.204603H97.1239V14.3885ZM113.922 9.5859C113.876 10.573 113.61 11.4466 113.122 12.2064C112.634 12.9598 111.947 13.5442 111.062 13.9599C110.183 14.3756 109.178 14.5834 108.046 14.5834C106.178 14.5834 104.707 13.9761 103.633 12.7616C102.559 11.5472 102.022 9.83266 102.022 7.61806V6.91665C102.022 5.52682 102.263 4.31233 102.745 3.2732C103.233 2.22758 103.932 1.4223 104.844 0.857288C105.755 0.285787 106.809 0 108.006 0C109.731 0 111.117 0.454648 112.165 1.36387C113.213 2.2666 113.808 3.51354 113.952 5.1047H110.535C110.509 4.24092 110.291 3.6207 109.881 3.24402C109.47 2.86735 108.846 2.67901 108.006 2.67901C107.154 2.67901 106.529 2.99726 106.132 3.63368C105.736 4.27017 105.527 5.28654 105.508 6.6828V7.68627C105.508 9.19945 105.696 10.2808 106.073 10.9303C106.457 11.5797 107.115 11.9044 108.046 11.9044C108.833 11.9044 109.435 11.7193 109.851 11.3491C110.268 10.9789 110.489 10.3912 110.515 9.5859H113.922ZM122.037 9.44949C122.395 9.72879 122.574 10.1184 122.574 10.6185C122.574 11.0601 122.408 11.4043 122.076 11.6512C121.751 11.8914 121.305 12.0116 120.738 12.0116C119.854 12.0116 119.213 11.8329 118.816 11.4757C118.425 11.1121 118.23 10.5503 118.23 9.7905H114.794C114.794 10.7257 115.028 11.5537 115.497 12.2746C115.971 12.989 116.675 13.554 117.605 13.9696C118.542 14.3788 119.586 14.5834 120.738 14.5834C122.372 14.5834 123.657 14.2295 124.595 13.5216C125.532 12.8137 126 11.8394 126 10.5991C126 9.04685 125.233 7.82909 123.697 6.94583C123.065 6.58214 122.258 6.24449 121.276 5.93274C120.293 5.61449 119.606 5.30923 119.216 5.01702C118.825 4.71825 118.63 4.38703 118.63 4.02334C118.63 3.60771 118.806 3.26671 119.157 3.00047C119.515 2.72774 120 2.59126 120.612 2.59126C121.217 2.59126 121.695 2.75043 122.047 3.06867C122.405 3.38692 122.583 3.835 122.583 4.41299H126C126 3.54928 125.776 2.78288 125.327 2.11401C124.877 1.43856 124.247 0.918996 123.433 0.555307C122.626 0.191618 121.711 0.00977359 120.689 0.00977359C119.643 0.00977359 118.699 0.178635 117.859 0.516284C117.02 0.847513 116.368 1.31514 115.906 1.9191C115.451 2.51665 115.224 3.20828 115.224 3.99409C115.224 5.57226 116.144 6.81271 117.986 7.71552C118.552 7.99474 119.281 8.28373 120.173 8.5825C121.064 8.8812 121.686 9.17027 122.037 9.44949Z"></path>
  </symbol>
  <symbol  xmlns="http://www.w3.org/2000/svg" viewBox="0 0 30 30" id="bi_phone">
    <path d="M20.6 2.75C21.0509 2.75 21.4833 2.93437 21.8021 3.26256C22.1209 3.59075 22.3 4.03587 22.3 4.5V25.5C22.3 25.9641 22.1209 26.4092 21.8021 26.7374C21.4833 27.0656 21.0509 27.25 20.6 27.25H10.4C9.94913 27.25 9.51673 27.0656 9.19792 26.7374C8.87911 26.4092 8.7 25.9641 8.7 25.5V4.5C8.7 4.03587 8.87911 3.59075 9.19792 3.26256C9.51673 2.93437 9.94913 2.75 10.4 2.75H20.6ZM10.4 1C9.49826 1 8.63346 1.36875 7.99584 2.02513C7.35821 2.6815 7 3.57174 7 4.5V25.5C7 26.4283 7.35821 27.3185 7.99584 27.9749C8.63346 28.6313 9.49826 29 10.4 29H20.6C21.5017 29 22.3665 28.6313 23.0042 27.9749C23.6418 27.3185 24 26.4283 24 25.5V4.5C24 3.57174 23.6418 2.6815 23.0042 2.02513C22.3665 1.36875 21.5017 1 20.6 1H10.4Z" fill="#2D73DC"></path>
    <path d="M15.5 25C15.8978 25 16.2794 24.842 16.5607 24.5607C16.842 24.2794 17 23.8978 17 23.5C17 23.1022 16.842 22.7206 16.5607 22.4393C16.2794 22.158 15.8978 22 15.5 22C15.1022 22 14.7206 22.158 14.4393 22.4393C14.158 22.7206 14 23.1022 14 23.5C14 23.8978 14.158 24.2794 14.4393 24.5607C14.7206 24.842 15.1022 25 15.5 25Z" fill="#2D73DC"></path>
  </symbol>
  <symbol  xmlns="http://www.w3.org/2000/svg" viewBox="0 0 30 30" id="calendar">
    <path d="M9.84375 16.875C10.2167 16.875 10.5744 16.7268 10.8381 16.4631C11.1018 16.1994 11.25 15.8417 11.25 15.4688C11.25 15.0958 11.1018 14.7381 10.8381 14.4744C10.5744 14.2107 10.2167 14.0625 9.84375 14.0625C9.47079 14.0625 9.1131 14.2107 8.84938 14.4744C8.58566 14.7381 8.4375 15.0958 8.4375 15.4688C8.4375 15.8417 8.58566 16.1994 8.84938 16.4631C9.1131 16.7268 9.47079 16.875 9.84375 16.875ZM11.25 20.1562C11.25 20.5292 11.1018 20.8869 10.8381 21.1506C10.5744 21.4143 10.2167 21.5625 9.84375 21.5625C9.47079 21.5625 9.1131 21.4143 8.84938 21.1506C8.58566 20.8869 8.4375 20.5292 8.4375 20.1562C8.4375 19.7833 8.58566 19.4256 8.84938 19.1619C9.1131 18.8982 9.47079 18.75 9.84375 18.75C10.2167 18.75 10.5744 18.8982 10.8381 19.1619C11.1018 19.4256 11.25 19.7833 11.25 20.1562ZM15 21.5625C15.373 21.5625 15.7306 21.4143 15.9944 21.1506C16.2581 20.8869 16.4062 20.5292 16.4062 20.1562C16.4062 19.7833 16.2581 19.4256 15.9944 19.1619C15.7306 18.8982 15.373 18.75 15 18.75C14.627 18.75 14.2694 18.8982 14.0056 19.1619C13.7419 19.4256 13.5938 19.7833 13.5938 20.1562C13.5938 20.5292 13.7419 20.8869 14.0056 21.1506C14.2694 21.4143 14.627 21.5625 15 21.5625ZM16.4062 15.4688C16.4062 15.8417 16.2581 16.1994 15.9944 16.4631C15.7306 16.7268 15.373 16.875 15 16.875C14.627 16.875 14.2694 16.7268 14.0056 16.4631C13.7419 16.1994 13.5938 15.8417 13.5938 15.4688C13.5938 15.0958 13.7419 14.7381 14.0056 14.4744C14.2694 14.2107 14.627 14.0625 15 14.0625C15.373 14.0625 15.7306 14.2107 15.9944 14.4744C16.2581 14.7381 16.4062 15.0958 16.4062 15.4688ZM20.1562 16.875C20.5292 16.875 20.8869 16.7268 21.1506 16.4631C21.4143 16.1994 21.5625 15.8417 21.5625 15.4688C21.5625 15.0958 21.4143 14.7381 21.1506 14.4744C20.8869 14.2107 20.5292 14.0625 20.1562 14.0625C19.7833 14.0625 19.4256 14.2107 19.1619 14.4744C18.8982 14.7381 18.75 15.0958 18.75 15.4688C18.75 15.8417 18.8982 16.1994 19.1619 16.4631C19.4256 16.7268 19.7833 16.875 20.1562 16.875ZM3.75 8.4375C3.75 7.1943 4.24386 6.00201 5.12294 5.12294C6.00201 4.24386 7.1943 3.75 8.4375 3.75H21.5625C22.8057 3.75 23.998 4.24386 24.8771 5.12294C25.7561 6.00201 26.25 7.1943 26.25 8.4375V21.5625C26.25 22.8057 25.7561 23.998 24.8771 24.8771C23.998 25.7561 22.8057 26.25 21.5625 26.25H8.4375C7.1943 26.25 6.00201 25.7561 5.12294 24.8771C4.24386 23.998 3.75 22.8057 3.75 21.5625V8.4375ZM8.4375 5.625C7.69158 5.625 6.97621 5.92132 6.44876 6.44876C5.92132 6.97621 5.625 7.69158 5.625 8.4375V9.375H24.375V8.4375C24.375 7.69158 24.0787 6.97621 23.5512 6.44876C23.0238 5.92132 22.3084 5.625 21.5625 5.625H8.4375ZM5.625 21.5625C5.625 22.3084 5.92132 23.0238 6.44876 23.5512C6.97621 24.0787 7.69158 24.375 8.4375 24.375H21.5625C22.3084 24.375 23.0238 24.0787 23.5512 23.5512C24.0787 23.0238 24.375 22.3084 24.375 21.5625V11.25H5.625V21.5625Z" fill="#2D73DC"></path>
  </symbol>
  <symbol  xmlns="http://www.w3.org/2000/svg" viewBox="0 0 60 60" id="car">
    <path fill-rule="evenodd" clip-rule="evenodd" d="M55.3944 39.1976C55.3944 39.4185 55.2155 39.5977 54.9949 39.5977H50.2895C49.6062 37.3051 47.4824 35.6275 44.9751 35.6275C42.4665 35.6275 40.3437 37.305 39.6608 39.5977L29.1928 39.5982C28.5109 37.3055 26.3867 35.628 23.8794 35.628C21.3708 35.628 19.2471 37.3054 18.5651 39.5982H12.5501C12.3296 39.5982 12.1507 39.419 12.1507 39.1981V30.0819H37.3162C38.4223 30.0819 39.3217 29.1815 39.3217 28.0735V15.6094H47.1455C47.8819 15.6094 48.5223 15.9953 49.1028 16.7905L54.3693 23.9941C54.8737 24.6825 55.394 25.228 55.394 25.9097L55.3944 39.1976ZM44.9752 45.1279C47.1463 45.1279 48.9136 43.3572 48.9136 41.1826C48.9136 39.0065 47.1463 37.2363 44.9752 37.2363C42.8027 37.2363 41.0363 39.0065 41.0363 41.1826C41.0363 43.3568 42.8027 45.1279 44.9752 45.1279ZM23.8794 45.1279C26.0506 45.1279 27.8184 43.3572 27.8184 41.1826C27.8184 39.0065 26.0506 37.2363 23.8794 37.2363C21.707 37.2363 19.9405 39.0065 19.9405 41.1826C19.9401 43.3568 21.7065 45.1279 23.8794 45.1279ZM17.6596 19.0585V28.4723H24.7373V25.6243C24.7373 24.3118 25.8045 23.2429 27.1148 23.2429H27.9243V19.0584C27.9243 18.9937 27.8663 18.9351 27.8012 18.9351H17.7828C17.7177 18.9351 17.6597 18.9932 17.6597 19.0584L17.6596 19.0585ZM33.0973 25.6243C33.0973 25.1989 32.7506 24.8508 32.3259 24.8508H27.1143C26.6896 24.8508 26.342 25.1985 26.342 25.6243V28.4723H33.0969L33.0973 25.6243ZM55.9026 23.3601C55.8251 23.2563 55.7445 23.1511 55.6657 23.0429L50.3982 15.8394C49.506 14.6187 48.4118 14 47.1457 14H38.5191C38.0758 14 37.7158 14.3606 37.7158 14.8046V28.0737C37.7158 28.2946 37.5369 28.4729 37.3163 28.4729H34.7041V25.6249C34.7041 24.3124 33.6369 23.2435 32.3266 23.2435H29.531V19.059C29.531 18.1041 28.7561 17.327 27.8018 17.327H17.7824C16.8299 17.327 16.0532 18.1041 16.0532 19.059V28.4728H4.80284C4.35956 28.4728 4 28.8334 4 29.2774C4 29.7214 4.35913 30.0815 4.80284 30.0815H10.5441V34.5871H6.21817C5.77535 34.5871 5.41534 34.9477 5.41534 35.3917C5.41534 35.8352 5.77535 36.1958 6.21817 36.1958H10.5441V39.1978C10.5441 40.3058 11.4439 41.2066 12.5496 41.2066H18.3342C18.3475 44.2568 20.8291 46.7353 23.8788 46.7353C26.928 46.7353 29.4092 44.2568 29.4224 41.2066H39.4293C39.4435 44.2568 41.9256 46.7353 44.9748 46.7353C48.0233 46.7353 50.5052 44.2568 50.5185 41.2066H54.9941C56.1002 41.2066 56.9996 40.3053 56.9996 39.1978L57 25.9093C57 24.8089 56.4172 24.0402 55.9022 23.3608L55.9026 23.3601Z" fill="#2D73DC"></path>
  </symbol>
  <symbol  xmlns="http://www.w3.org/2000/svg" viewBox="0 0 30 30" id="carbon_email">
    <path d="M26.25 5.625H3.75C3.25272 5.625 2.77581 5.82254 2.42417 6.17417C2.07254 6.52581 1.875 7.00272 1.875 7.5V22.5C1.875 22.9973 2.07254 23.4742 2.42417 23.8258C2.77581 24.1775 3.25272 24.375 3.75 24.375H26.25C26.7473 24.375 27.2242 24.1775 27.5758 23.8258C27.9275 23.4742 28.125 22.9973 28.125 22.5V7.5C28.125 7.00272 27.9275 6.52581 27.5758 6.17417C27.2242 5.82254 26.7473 5.625 26.25 5.625V5.625ZM24.1875 7.5L15 13.8562L5.8125 7.5H24.1875ZM3.75 22.5V8.35312L14.4656 15.7687C14.6226 15.8776 14.809 15.936 15 15.936C15.191 15.936 15.3774 15.8776 15.5344 15.7687L26.25 8.35312V22.5H3.75Z" fill="#2D73DC"></path>
  </symbol>
  <symbol  xmlns="http://www.w3.org/2000/svg" viewBox="0 0 24 24" id="checkmark">
    <path d="M10.0008 13.5998L15.9008 7.6998C16.0841 7.51647 16.3174 7.4248 16.6008 7.4248C16.8841 7.4248 17.1174 7.51647 17.3008 7.6998C17.4841 7.88314 17.5758 8.11647 17.5758 8.3998C17.5758 8.68314 17.4841 8.91647 17.3008 9.0998L10.7008 15.6998C10.5008 15.8998 10.2674 15.9998 10.0008 15.9998C9.73411 15.9998 9.50078 15.8998 9.30078 15.6998L6.70078 13.0998C6.51745 12.9165 6.42578 12.6831 6.42578 12.3998C6.42578 12.1165 6.51745 11.8831 6.70078 11.6998C6.88411 11.5165 7.11745 11.4248 7.40078 11.4248C7.68411 11.4248 7.91745 11.5165 8.10078 11.6998L10.0008 13.5998Z" fill="#2D73DC"></path>
  </symbol>
  <symbol  xmlns="http://www.w3.org/2000/svg" viewBox="0 0 60 60" id="conditioner">
    <path d="M52.4931 10H7.70705C5.66306 10 4.00058 11.6625 4.00058 13.7065V28.7414C4.00058 28.9783 3.89461 28.584 6.54448 34.6905C6.64249 34.9145 6.86426 35.0598 7.10911 35.0598H53.0907C53.3355 35.0598 53.5573 34.9145 53.6553 34.6905C56.2896 28.6188 56.1988 28.9844 56.1988 28.7414L56.1992 13.7065C56.1992 11.6625 54.5367 10 52.4935 10H52.4931ZM5.23368 13.7065C5.23368 12.3426 6.34326 11.2334 7.70676 11.2334H52.4928C53.8563 11.2334 54.9655 12.343 54.9655 13.7065L54.9659 28.1243H53.4116V25.1815C53.4116 23.1375 51.7492 21.4751 49.7056 21.4751H10.494C8.45002 21.4751 6.78754 23.1375 6.78754 25.1815V28.1243H5.23367L5.23368 13.7065ZM8.02056 26.0287H52.1788V28.1246L8.02056 28.1249V26.0287ZM8.05991 24.7957C8.24686 23.6157 9.26259 22.7086 10.494 22.7086H49.7056C50.9371 22.7086 51.9524 23.6161 52.1393 24.7957H8.05991ZM52.6871 33.8269H7.51254L5.55942 29.3579H54.6402L52.6871 33.8269Z" fill="#2D73DC"></path>
    <path d="M10.8512 18.3812C12.2359 18.3812 13.3625 17.2542 13.3625 15.8695C13.3625 14.4847 12.2359 13.3577 10.8512 13.3577C9.46647 13.3577 8.33984 14.4847 8.33984 15.8695C8.33984 17.2538 9.46647 18.3812 10.8512 18.3812ZM10.8512 14.5903C11.5558 14.5903 12.1295 15.1644 12.1295 15.8691C12.1295 16.5737 11.5558 17.1478 10.8512 17.1478C10.1465 17.1478 9.57285 16.5737 9.57285 15.8691C9.57285 15.1644 10.1466 14.5903 10.8512 14.5903Z" fill="#2D73DC"></path>
    <path d="M18.2848 18.3812C19.6695 18.3812 20.7961 17.2542 20.7961 15.8695C20.7961 14.4847 19.6695 13.3577 18.2848 13.3577C16.9001 13.3577 15.7734 14.4847 15.7734 15.8695C15.7734 17.2538 16.9001 18.3812 18.2848 18.3812ZM18.2848 14.5903C18.9894 14.5903 19.5631 15.1644 19.5631 15.8691C19.5631 16.5737 18.9894 17.1478 18.2848 17.1478C17.5801 17.1478 17.0064 16.5737 17.0064 15.8691C17.0064 15.1644 17.5802 14.5903 18.2848 14.5903Z" fill="#2D73DC"></path>
    <path d="M29.4844 37.9164H30.7174V50.0934H29.4844V37.9164Z" fill="#2D73DC"></path>
    <path d="M37.5634 37.5946L43.9231 47.9793L42.8715 48.6234L36.5117 38.2387L37.5634 37.5946Z" fill="#2D73DC"></path>
    <path d="M16.2773 47.9793L22.6371 37.5946L23.6887 38.2387L17.329 48.6234L16.2773 47.9793Z" fill="#2D73DC"></path>
  </symbol>
  <symbol  xmlns="http://www.w3.org/2000/svg" viewBox="0 0 22 22" id="external-link">
    <path fill-rule="evenodd" clip-rule="evenodd" d="M2 3.41735e-06C1.46957 3.41735e-06 0.960859 0.210717 0.585786 0.58579C0.210714 0.960863 0 1.46957 0 2V20C0 20.5304 0.210714 21.0391 0.585786 21.4142C0.960859 21.7893 1.46957 22 2 22H20C20.5304 22 21.0391 21.7893 21.4142 21.4142C21.7893 21.0391 22 20.5304 22 20V13C22 12.7348 21.8946 12.4804 21.7071 12.2929C21.5196 12.1054 21.2652 12 21 12C20.7348 12 20.4804 12.1054 20.2929 12.2929C20.1054 12.4804 20 12.7348 20 13V20H2V2H9C9.26522 2 9.51957 1.89465 9.70711 1.70711C9.89464 1.51957 10 1.26522 10 1C10 0.734787 9.89464 0.480433 9.70711 0.292897C9.51957 0.10536 9.26522 3.41735e-06 9 3.41735e-06H2ZM21.708 0.292003C21.894 0.478432 21.9989 0.730685 22 0.994003V7C22 7.26522 21.8946 7.51957 21.7071 7.70711C21.5196 7.89465 21.2652 8 21 8C20.7348 8 20.4804 7.89465 20.2929 7.70711C20.1054 7.51957 20 7.26522 20 7V3.414L9.708 13.708C9.61502 13.801 9.50465 13.8747 9.38317 13.9251C9.26169 13.9754 9.13149 14.0013 9 14.0013C8.86851 14.0013 8.73831 13.9754 8.61683 13.9251C8.49535 13.8747 8.38498 13.801 8.292 13.708C8.19902 13.615 8.12527 13.5047 8.07495 13.3832C8.02464 13.2617 7.99874 13.1315 7.99874 13C7.99874 12.8685 8.02464 12.7383 8.07495 12.6168C8.12527 12.4954 8.19902 12.385 8.292 12.292L18.586 2H15C14.7348 2 14.4804 1.89465 14.2929 1.70711C14.1054 1.51957 14 1.26522 14 1C14 0.734787 14.1054 0.480433 14.2929 0.292897C14.4804 0.10536 14.7348 3.41735e-06 15 3.41735e-06H21C21.1314 -0.000340501 21.2616 0.0252775 21.3831 0.0753871C21.5046 0.125497 21.615 0.199111 21.708 0.292003Z"></path>
  </symbol>
  <symbol  xmlns="http://www.w3.org/2000/svg" viewBox="0 0 30 30" id="fluent_location">
    <path d="M15.0031 9.6875C14.0086 9.6875 13.0548 10.0826 12.3515 10.7858C11.6482 11.4891 11.2531 12.4429 11.2531 13.4375C11.2531 14.4321 11.6482 15.3859 12.3515 16.0892C13.0548 16.7924 14.0086 17.1875 15.0031 17.1875C15.9977 17.1875 16.9515 16.7924 17.6548 16.0892C18.3581 15.3859 18.7531 14.4321 18.7531 13.4375C18.7531 12.4429 18.3581 11.4891 17.6548 10.7858C16.9515 10.0826 15.9977 9.6875 15.0031 9.6875ZM12.8156 13.4375C12.8156 12.8573 13.0461 12.3009 13.4563 11.8907C13.8666 11.4805 14.423 11.25 15.0031 11.25C15.5833 11.25 16.1397 11.4805 16.5499 11.8907C16.9602 12.3009 17.1906 12.8573 17.1906 13.4375C17.1906 14.0177 16.9602 14.5741 16.5499 14.9843C16.1397 15.3945 15.5833 15.625 15.0031 15.625C14.423 15.625 13.8666 15.3945 13.4563 14.9843C13.0461 14.5741 12.8156 14.0177 12.8156 13.4375ZM23.125 20L16.82 26.6937C16.5863 26.9419 16.3043 27.1397 15.9913 27.2749C15.6783 27.4101 15.3409 27.4798 15 27.4798C14.6591 27.4798 14.3218 27.4101 14.0088 27.2749C13.6958 27.1397 13.4137 26.9419 13.18 26.6937L6.87502 20H6.89877L6.88814 19.9875L6.87502 19.9719C5.2567 18.0579 4.37071 15.6314 4.37502 13.125C4.37502 7.25688 9.13189 2.5 15 2.5C20.8681 2.5 25.625 7.25688 25.625 13.125C25.6293 15.6314 24.7433 18.0579 23.125 19.9719L23.1119 19.9875L23.1013 20H23.125ZM21.9106 18.9881C23.3032 17.3523 24.0663 15.2733 24.0625 13.125C24.0625 8.12 20.005 4.0625 15 4.0625C9.99502 4.0625 5.93752 8.12 5.93752 13.125C5.93361 15.2733 6.69669 17.3524 8.08939 18.9881L8.28189 19.215L14.3175 25.6219C14.4052 25.7149 14.5109 25.7891 14.6283 25.8398C14.7457 25.8905 14.8722 25.9166 15 25.9166C15.1279 25.9166 15.2544 25.8905 15.3717 25.8398C15.4891 25.7891 15.5949 25.7149 15.6825 25.6219L21.7181 19.215L21.9106 18.9881Z" fill="#2D73DC"></path>
  </symbol>
  <symbol  xmlns="http://www.w3.org/2000/svg" viewBox="0 0 71 70" id="headphones">
    <path d="M62.8847 24.3775C63.0671 25.1685 63.8628 25.6668 64.6683 25.4848C65.4708 25.3049 65.9739 24.5174 65.7909 23.7254C62.8442 10.9336 51.1517 2 37.3561 2H34.6493C18.3045 2 5.5 14.3058 5.5 30.0144V60.2415C5.5 65.0702 9.48317 68.9991 14.3782 68.9991C19.274 68.9991 23.2581 65.0701 23.2581 60.2415L23.2576 46.6438C23.2576 41.8151 19.274 37.8862 14.3777 37.8862C12.1129 37.8862 10.0496 38.7341 8.48001 40.1162V30.0143C8.48001 15.9533 19.975 4.93832 34.6491 4.93832H37.3558C49.751 4.93832 60.2493 12.9316 62.8849 24.3762L62.8847 24.3775ZM14.3783 40.8271C17.6312 40.8271 20.2776 43.437 20.2776 46.6446V60.2424C20.2776 63.4505 17.6312 66.06 14.3783 66.06C11.126 66.06 8.48059 63.45 8.48059 60.2424V46.6446C8.48059 43.4365 11.1265 40.8271 14.3783 40.8271ZM65.0095 28.5454C64.1868 28.5454 63.5195 29.2041 63.5195 30.0151V40.1176C61.9494 38.735 59.8857 37.887 57.6202 37.887C52.7249 37.887 48.7419 41.8161 48.7419 46.6446V60.2424C48.7419 65.0711 52.7251 69 57.6202 69C62.5159 69 66.5 65.0709 66.5 60.2424L66.4995 50.1343V30.0153C66.4995 29.2037 65.8322 28.5455 65.0095 28.5455L65.0095 28.5454ZM63.5195 50.1343V60.2428C63.5195 63.4509 60.873 66.0604 57.6202 66.0604C54.3678 66.0604 51.7224 63.4504 51.7224 60.2428L51.7219 46.645C51.7219 43.4369 54.3678 40.8274 57.6196 40.8274C60.8725 40.8274 63.519 43.4374 63.519 46.645L63.5195 50.1343Z" fill="#2D73DC"></path>
  </symbol>
  <symbol  xmlns="http://www.w3.org/2000/svg" viewBox="0 0 71 70" id="helmet">
    <path d="M68.2006 29.405C68.1532 29.3865 68.1043 29.3711 68.0549 29.3594L57.4041 26.8352C55.9247 26.4843 54.7855 25.2763 54.5044 23.7567C51.9217 9.81154 39.8916 0.725449 25.9062 2.14581C13.3279 3.42554 3.44671 13.371 2.41293 25.7935C2.236 27.9113 2.31614 30.0318 2.65127 32.1021L1.89932 33.1882C1.4039 33.9044 1.36696 34.8168 1.80252 35.5688C2.21259 36.2773 2.96091 36.7025 3.78057 36.7025C3.83 36.7025 3.87944 36.701 3.92992 36.6979C7.70736 36.4607 14.4032 36.0038 16.8028 35.6098C18.3588 35.3547 19.6244 34.5283 20.9643 33.6538C22.8419 32.4284 24.7834 31.1609 27.9729 31.058C30.5513 30.976 31.9392 31.414 33.6934 31.9704C34.4709 32.2168 35.3436 32.4929 36.4187 32.7537C36.1143 32.7301 35.8099 32.7081 35.4997 32.7081C29.1453 32.7081 23.9762 37.7974 23.9762 44.0526C23.9762 50.3073 29.1453 55.3966 35.4997 55.3966C41.8541 55.3966 47.0232 50.3073 47.0232 44.0526C47.0232 39.0187 43.6734 34.7455 39.0545 33.2665C39.4875 33.3326 39.9376 33.3951 40.4263 33.451C49.9733 34.5376 58.2537 33.9346 62.7046 33.6113C63.8828 33.5258 64.8132 33.4581 65.3169 33.4581C66.0423 33.4581 66.862 33.3941 67.7534 33.2676C68.6817 33.1359 69.378 32.4305 69.4857 31.5119C69.594 30.5897 69.0778 29.7424 68.2004 29.4043L68.2006 29.405ZM44.7846 44.0531C44.7846 49.0938 40.6193 53.1936 35.4993 53.1936C30.3793 53.1936 26.214 49.0931 26.214 44.0531C26.214 39.0125 30.3793 34.9121 35.4993 34.9121C40.6193 34.9121 44.7846 39.0126 44.7846 44.0531ZM65.3164 31.2552C64.7299 31.2552 63.8114 31.3218 62.539 31.4145C58.1641 31.7332 50.0175 32.3244 40.6817 31.2624C37.6816 30.9212 35.9264 30.3648 34.3783 29.874C32.4935 29.2767 30.8646 28.7598 27.8974 28.8576C24.0747 28.9811 21.6642 30.5548 19.7268 31.8192C18.5424 32.5923 17.5188 33.2603 16.4332 33.4382C14.1325 33.8157 7.52147 34.266 3.78613 34.5002L3.85742 35.5996L3.74762 34.43L4.75302 32.9776C4.91746 32.7399 4.98094 32.4484 4.92995 32.1651C4.56567 30.1395 4.46889 28.0575 4.6427 25.975C5.58877 14.6079 14.6279 5.50895 26.135 4.33778C27.016 4.24813 27.8876 4.20407 28.75 4.20407C40.4036 4.20407 50.0971 12.2488 52.3019 24.152C52.7421 26.5286 54.539 28.4225 56.8792 28.9774L66.3123 31.2132C65.9585 31.2418 65.6254 31.2557 65.3158 31.2557L65.3164 31.2552ZM6.35341 25.4774C7.20424 15.4024 15.5508 7.08619 25.7675 6.13273C30.1091 5.7275 34.4044 6.58458 38.1856 8.61121C38.7283 8.9022 38.9287 9.57127 38.6331 10.1057C38.3365 10.6405 37.6584 10.8367 37.1147 10.5463C33.7279 8.73061 29.8782 7.9622 25.9788 8.3264C16.8246 9.18041 9.34637 16.6319 8.58435 25.6592C8.53544 26.2345 8.04575 26.6695 7.4702 26.6695C7.43897 26.6695 7.40775 26.6685 7.37601 26.6654C6.75987 26.6152 6.30244 26.0829 6.35344 25.4763L6.35341 25.4774ZM45.881 28.0881C45.9679 28.6905 45.5417 29.2479 44.9297 29.333C39.7934 30.0471 35.5601 28.7259 33.0295 27.9369C32.4591 27.7586 31.9658 27.6049 31.6176 27.5255C27.7818 26.652 23.8024 27.3575 20.6972 29.4626C18.4038 31.0179 7.69431 32.5175 7.59227 32.5288C7.55011 32.5334 7.50848 32.5354 7.46685 32.5354C6.90431 32.5354 6.41983 32.1189 6.35583 31.5554C6.28818 30.9508 6.73051 30.4063 7.34457 30.3392C9.21697 30.1342 17.9819 28.6291 19.428 27.6485C23.0489 25.1935 27.6772 24.3662 32.1213 25.3789C32.5568 25.4783 33.0887 25.6443 33.7054 25.8364C36.0545 26.5685 39.9855 27.7929 44.6158 27.1509C45.2231 27.0669 45.7945 27.485 45.8809 28.0879L45.881 28.0881ZM19.6674 16.6094C19.6674 18.1797 20.9647 19.4568 22.5597 19.4568C24.1547 19.4568 25.452 18.1796 25.452 16.6094C25.452 15.0392 24.1547 13.762 22.5597 13.762C20.9647 13.762 19.6674 15.0392 19.6674 16.6094ZM23.2138 16.6094C23.2138 16.9644 22.9203 17.2534 22.5597 17.2534C22.199 17.2534 21.9055 16.9644 21.9055 16.6094C21.9055 16.2544 22.199 15.9654 22.5597 15.9654C22.9203 15.9654 23.2138 16.2544 23.2138 16.6094ZM27.5923 16.6094C27.5923 18.1797 28.8897 19.4568 30.4847 19.4568C32.0797 19.4568 33.377 18.1796 33.377 16.6094C33.377 15.0392 32.0797 13.762 30.4847 13.762C28.8902 13.762 27.5923 15.0392 27.5923 16.6094ZM31.1388 16.6094C31.1388 16.9644 30.8453 17.2534 30.4846 17.2534C30.124 17.2534 29.8305 16.9644 29.8305 16.6094C29.8305 16.2544 30.124 15.9654 30.4846 15.9654C30.8453 15.9654 31.1388 16.2544 31.1388 16.6094ZM35.5173 16.6094C35.5173 18.1797 36.8146 19.4568 38.4096 19.4568C40.0047 19.4568 41.302 18.1796 41.302 16.6094C41.302 15.0392 40.0046 13.762 38.4096 13.762C36.8151 13.762 35.5173 15.0392 35.5173 16.6094ZM39.0643 16.6094C39.0643 16.9644 38.7708 17.2534 38.4101 17.2534C38.0495 17.2534 37.756 16.9644 37.756 16.6094C37.756 16.2544 38.0495 15.9654 38.4101 15.9654C38.7702 15.9654 39.0643 16.2544 39.0643 16.6094ZM60.6045 47.4232C60.796 47.6665 60.8757 47.9775 60.8236 48.2813C60.1773 52.0575 58.7036 55.5596 56.4419 58.6898C56.2603 58.9403 55.9808 59.1052 55.6702 59.1442C55.361 59.1831 55.0478 59.0919 54.8084 58.8936C53.5974 57.8885 51.8448 57.9561 50.7321 59.0499C49.6206 60.1447 49.5524 61.8696 50.5739 63.0628C50.7748 63.2985 50.8674 63.6064 50.8284 63.9117C50.7889 64.2171 50.6213 64.4922 50.3663 64.671C47.1857 66.8975 43.6289 68.3483 39.7936 68.9846C39.7317 68.9949 39.6697 69 39.6078 69C39.3617 69 39.1197 68.9196 38.9225 68.769C38.6748 68.5804 38.5197 68.2987 38.4926 67.9913C38.3599 66.4354 37.0725 65.2627 35.4988 65.2627C33.9251 65.2627 32.6376 66.4359 32.5044 67.9913C32.4773 68.2981 32.3223 68.5799 32.0746 68.769C31.8274 68.9575 31.5105 69.0353 31.2034 68.9846C27.3682 68.3488 23.8119 66.8975 20.6307 64.671C20.3757 64.4922 20.2082 64.2171 20.1686 63.9117C20.1291 63.6064 20.2217 63.2985 20.4231 63.0628C21.4446 61.8697 21.377 60.1447 20.2649 59.0499C19.1533 57.9561 17.4012 57.8885 16.1886 58.8936C15.9498 59.0924 15.637 59.1836 15.3269 59.1442C15.0167 59.1052 14.7367 58.9403 14.5551 58.6898C12.2935 55.5596 10.8198 52.0575 10.1734 48.2813C10.1219 47.9775 10.201 47.6665 10.3925 47.4232C10.584 47.1798 10.8702 47.0266 11.1824 47.0005C12.7628 46.8683 13.9541 45.6014 13.9541 44.0522C13.9541 42.7023 13.0142 41.526 11.6696 41.1925C11.0701 41.0439 10.7064 40.4451 10.8573 39.8554C11.0087 39.2658 11.617 38.9092 12.216 39.0562C14.5577 39.6367 16.1923 41.691 16.1923 44.0523C16.1923 46.3407 14.7067 48.2767 12.5839 48.9561C13.1756 51.6621 14.2456 54.2037 15.7755 56.5357C17.7623 55.5392 20.2045 55.8743 21.8474 57.4916C23.4902 59.109 23.8306 61.5111 22.8184 63.4692C25.1877 64.9753 27.7694 66.0293 30.5176 66.6117C31.2076 64.5219 33.1741 63.0594 35.4988 63.0594C37.8235 63.0594 39.7899 64.522 40.48 66.6122C43.2282 66.0297 45.8098 64.9759 48.1792 63.4697C47.167 61.5117 47.5073 59.1095 49.1502 57.4922C50.7925 55.8743 53.2352 55.5408 55.2221 56.5357C56.752 54.2042 57.8225 51.6627 58.4136 48.9566C56.2904 48.2773 54.8052 46.3414 54.8052 44.0528C54.8052 41.7658 56.2878 39.8313 58.4084 39.1505C58.3387 38.8432 58.2586 38.5219 58.168 38.1833C58.0114 37.5947 58.3684 36.9922 58.9663 36.838C59.5642 36.6833 60.1752 37.0352 60.3329 37.6233C60.5473 38.4277 60.7075 39.1474 60.8231 39.8242C60.8746 40.128 60.7955 40.4389 60.6029 40.6818C60.4114 40.9251 60.1252 41.0783 59.814 41.1044C58.2336 41.2366 57.0424 42.5035 57.0424 44.0527C57.0424 45.6014 58.2336 46.8689 59.814 47.0009C60.1268 47.0271 60.413 47.1803 60.6045 47.4232Z" fill="#2D73DC"></path>
  </symbol>
  <symbol  xmlns="http://www.w3.org/2000/svg" viewBox="0 0 24 24" id="icq">
    <path d="M21.5932 12.9619L21.463 12.7447C21.2316 12.3972 20.9712 12.0931 20.682 11.8324C20.5952 11.7745 20.4433 11.6949 20.2263 11.5935C20.0094 11.4921 19.8431 11.4125 19.7273 11.3546C20.5952 10.9491 21.1882 10.3554 21.5064 9.57344C21.5932 9.34175 21.586 9.03765 21.4847 8.66115C21.3835 8.28465 21.3328 8.05296 21.3328 7.96607V7.87919C21.3328 7.4158 20.8266 7.0393 19.8141 6.74969C19.5538 6.72073 19.1199 6.70625 18.5124 6.70625L17.5577 6.92346L17.8615 6.18494C18.1797 5.31609 18.0929 4.46173 17.6011 3.62185L17.5143 3.44808C17.0804 2.78196 16.4295 2.33306 15.5617 2.10137C14.6939 1.89863 13.8839 2 13.1317 2.40546C12.0903 2.95573 11.5696 3.59288 11.5696 4.31692V4.36036L11.4395 4.57758L11.3093 4.36036L11.0055 3.8825C10.5716 3.21638 9.97858 2.76748 9.22645 2.53579C8.61896 2.39098 8.05487 2.46338 7.53416 2.753C6.9556 3.10054 6.594 3.66529 6.44936 4.44725C6.30472 5.28713 6.44936 6.08357 6.88328 6.83657L7.05685 7.14067L6.40597 6.92346C5.56705 6.72073 4.7426 6.83657 3.93262 7.271C3.12263 7.6475 2.55853 8.25569 2.24033 9.09557C1.89319 9.84857 1.92212 10.6016 2.32711 11.3546C2.47175 11.6152 2.68871 11.8614 2.97799 12.0931C3.35406 12.4117 3.78798 12.6144 4.27975 12.7013L4.49671 12.7447L4.06279 13.1357C3.68673 13.4253 3.42638 13.8163 3.28174 14.3086C3.1371 14.8589 3.20942 15.3513 3.4987 15.7857C3.64334 16.0463 3.8169 16.2346 4.0194 16.3504C4.2219 16.5532 4.49671 16.6835 4.84385 16.7414C5.53812 16.8862 6.21793 16.8573 6.88328 16.6545L6.36257 17.4799L6.2324 17.8709C5.94312 18.7398 6.01544 19.5796 6.44936 20.3906C6.50722 20.4775 6.72418 20.7526 7.10024 21.216C7.44738 21.5345 7.8813 21.7518 8.402 21.8676C9.38556 22.0993 10.2389 22.0269 10.9621 21.6504C11.7143 21.216 12.235 20.5643 12.5243 19.6955L12.5676 19.5217C13.1173 20.1589 13.6669 20.5354 14.2165 20.6512C14.7951 20.825 15.3447 20.7671 15.8654 20.4775C16.3572 20.1589 16.6899 19.6955 16.8635 19.0873C16.9792 18.4791 16.9792 17.842 16.8635 17.1758C17.2106 17.3786 17.5143 17.5089 17.7747 17.5668C18.6715 17.8564 19.5248 17.7985 20.3348 17.393C21.087 16.9876 21.5932 16.336 21.8536 15.4381C22.1139 14.5983 22.0271 13.7729 21.5932 12.9619ZM17.4276 8.27017L17.7747 8.13984C18.2375 7.90815 18.7438 7.82127 19.2934 7.87919C19.8141 7.96607 20.1613 8.18328 20.3348 8.53082L20.4216 8.87836L20.3782 9.18246C20.1757 9.64584 19.7273 10.0513 19.0331 10.3988C18.8306 10.4857 18.5124 10.5581 18.0784 10.6161L14.5637 11.0505L14.4769 10.8767L14.4335 10.7898L14.5637 10.6161L17.4276 8.27017ZM12.5676 4.7079C12.6834 4.15763 13.0305 3.73769 13.6091 3.44808C14.1587 3.1295 14.7083 3.08606 15.258 3.31775C15.8654 3.46256 16.2994 3.76665 16.5597 4.23004C16.7044 4.57758 16.7767 4.91063 16.7767 5.22921L16.6899 5.8374C16.632 6.09806 16.4874 6.38767 16.256 6.70625L13.6958 9.79065C13.5223 9.64584 13.233 9.48655 12.828 9.31278L12.5676 6.1415L12.5243 5.012L12.5676 4.7079ZM7.66434 4.79479C7.66434 4.3314 7.85237 3.98386 8.22844 3.75217C8.402 3.60736 8.61896 3.59288 8.87932 3.70873C9.42895 3.8825 9.86287 4.28796 10.1811 4.92511C10.4125 5.44642 10.5282 5.75052 10.5282 5.8374L11.0923 9.18246L10.6584 9.31278L8.09826 6.57592L7.96808 6.27182C7.70773 5.69259 7.60648 5.20025 7.66434 4.79479ZM3.41191 10.7898C3.20942 10.3554 3.19495 9.93546 3.36852 9.53C3.59994 8.9218 3.97601 8.51634 4.49671 8.31361C5.04635 8.05296 5.58152 7.98055 6.10222 8.0964L6.88328 8.4005L9.40002 10.2251C9.1686 10.4857 9.00949 10.7609 8.92271 11.0505L4.80046 11.5718L4.54011 11.5283C4.07726 11.4415 3.70119 11.1953 3.41191 10.7898ZM11.5696 19.0873L11.4395 19.3914C11.2659 19.9127 10.9043 20.2892 10.3546 20.5209C9.86287 20.8105 9.3277 20.8829 8.74914 20.7381C8.17058 20.5933 7.76559 20.2892 7.53416 19.8258C7.36059 19.5072 7.27381 19.1887 7.27381 18.8701L7.40398 18.2185C7.46184 17.9288 7.60648 17.6537 7.83791 17.393L10.2245 14.5693C10.5427 14.7431 10.8609 14.8589 11.1791 14.9168C11.208 15.1196 11.2803 15.5757 11.3961 16.2853C11.5118 16.9948 11.5696 17.5523 11.5696 17.9578V19.0873ZM10.4848 13.4398C10.0798 13.1212 9.87733 12.6868 9.87733 12.1365C9.87733 11.6442 10.0798 11.1953 10.4848 10.7898C10.803 10.4712 11.2514 10.312 11.83 10.312C12.3796 10.312 12.8135 10.4712 13.1317 10.7898C13.5078 11.1663 13.6958 11.6152 13.6958 12.1365C13.6958 12.7158 13.5078 13.1502 13.1317 13.4398C12.7846 13.8163 12.3507 14.0046 11.83 14.0046C11.2225 14.0046 10.7741 13.8163 10.4848 13.4398ZM15.7787 18.3922C15.7208 18.9135 15.5328 19.2611 15.2146 19.4348C15.041 19.5507 14.824 19.5796 14.5637 19.5217C14.014 19.4059 13.5801 19.0004 13.2619 18.3053L12.9148 17.3496L12.4809 14.9168L12.9582 14.7431L13.3487 14.5259L14.5637 15.7422L15.3013 16.6545L15.4315 16.9152C15.6919 17.4075 15.8076 17.8999 15.7787 18.3922ZM20.7254 15.0906C20.5807 15.6698 20.248 16.0753 19.7273 16.307C19.2356 16.5966 18.7004 16.64 18.1218 16.4373C17.8036 16.3504 17.5433 16.2056 17.3408 16.0029L14.3467 13.5267L14.5637 13.1357L14.6505 12.7882L17.8615 12.4841H19.2934C19.8431 12.7158 20.2047 12.9909 20.3782 13.3095C20.6675 13.5991 20.8121 14.0046 20.8121 14.5259L20.7254 15.0906Z"></path>
  </symbol>
  <symbol  xmlns="http://www.w3.org/2000/svg" viewBox="0 0 60 60" id="instrument">
    <path d="M37.0202 7.8725C36.8575 7.77767 36.6568 7.7767 36.4928 7.86925C33.8635 9.36064 32.2305 12.1546 32.2305 15.1597C32.2237 18.1233 33.7783 20.8523 36.3086 22.3563V47.6603C36.3086 50.099 38.2774 52.0794 40.7206 52.0794C43.1574 52.0794 45.1397 50.097 45.1397 47.6603V22.2042C47.5082 20.679 48.9668 18.014 48.9668 15.1778C48.9807 12.1528 47.3387 9.35174 44.6804 7.86784C44.5161 7.77625 44.317 7.77885 44.1543 7.87336C43.9929 7.96852 43.8932 8.14195 43.8932 8.32966V11.9758C43.8932 13.8247 42.4314 15.281 40.5809 15.281C38.7621 15.281 37.2828 13.8017 37.2828 11.983V8.32933C37.2828 8.14097 37.1828 7.96721 37.0201 7.87238L37.0202 7.8725ZM40.5813 16.3387C42.983 16.3387 44.9517 14.4398 44.9517 11.9755V9.29912C46.8062 10.6696 47.9197 12.8456 47.9087 15.1752C47.9087 17.7438 46.5414 20.1497 44.3408 21.4542C44.18 21.5494 44.0813 21.7222 44.0813 21.9092V47.6605C44.0813 49.5136 42.5737 51.0212 40.7206 51.0212C38.8681 51.0212 37.3667 49.5204 37.3667 47.6605V22.0489C37.3667 21.855 37.2605 21.6771 37.0903 21.5842C34.739 20.3042 33.2823 17.8435 33.2885 15.1612C33.2885 12.8505 34.3934 10.6833 36.2247 9.30759V11.9827C36.2247 14.3851 38.1788 16.3392 40.5811 16.3392L40.5813 16.3387Z" fill="#2D73DC"></path>
    <path d="M19.1306 39.5261C18.8386 39.5261 18.6016 39.7632 18.6016 40.0551V46.4895C18.6016 49.8862 21.3469 52.5954 24.7007 52.5954C28.0672 52.5954 30.8064 49.8564 30.8064 46.4895V40.0551C30.8064 39.7632 30.5693 39.5261 30.2774 39.5261C29.0045 39.5261 27.9692 38.4907 27.9692 37.2179C27.9692 35.9451 29.0045 34.9098 30.2774 34.9098C30.5693 34.9098 30.8064 34.6727 30.8064 34.3807V31.5643C30.8064 31.2723 30.5693 31.0353 30.2774 31.0353H27.0498V15.7373C27.1531 15.7133 27.789 15.8624 27.8887 15.3008L29.1134 8.42192C29.141 8.26797 29.0984 8.10949 28.9981 7.98965C28.8977 7.86949 28.749 7.80031 28.5928 7.80031L20.8152 7.79999C20.6587 7.79999 20.5099 7.86916 20.4099 7.98932C20.3092 8.10916 20.267 8.26766 20.2946 8.42159L21.519 15.3005C21.5638 15.5529 21.7837 15.737 22.0399 15.737H22.3582V31.0349H19.1307C18.8387 31.0349 18.6016 31.272 18.6016 31.564V34.3804C18.6016 34.6723 18.8387 34.9094 19.1307 34.9094C20.4035 34.9094 21.4388 35.9448 21.4388 37.2176C21.4388 38.4904 20.4035 39.5258 19.1307 39.5258L19.1306 39.5261ZM21.4468 8.85871H27.9608L26.9244 14.6796C26.7422 14.6796 22.4108 14.6802 22.4832 14.6796L21.4468 8.85871ZM23.4163 15.738H25.9917V31.0359H23.4163V15.738ZM19.6596 33.8934V32.0936H29.748V33.8934C28.142 34.1477 26.9108 35.5416 26.9108 37.2181C26.9108 38.8945 28.1423 40.2885 29.748 40.5427V46.4895C29.748 49.2731 27.4837 51.5374 24.7004 51.5374C21.9259 51.5374 19.6593 49.2969 19.6593 46.4895V40.5427C21.2653 40.2884 22.4965 38.8945 22.4965 37.2181C22.4965 35.5416 21.265 34.1477 19.6593 33.8934H19.6596Z" fill="#2D73DC"></path>
  </symbol>
  <symbol  xmlns="http://www.w3.org/2000/svg" viewBox="0 0 71 70" id="lock">
    <path d="M36.0011 59.1159C36.8104 59.1159 37.4668 58.4578 37.4668 57.6477V51.0385C39.7967 50.3287 41.4981 48.1577 41.4981 45.5946C41.4981 42.4572 38.9494 39.9048 35.8181 39.9048C32.6861 39.9042 30.1375 42.4573 30.1375 45.5946C30.1375 48.29 32.0195 50.5479 34.5354 51.1328V57.6473C34.5354 58.4585 35.1918 59.1159 36.0011 59.1159ZM33.0695 45.5948C33.0695 44.0763 34.3032 42.8416 35.8181 42.8416C37.3329 42.8416 38.5666 44.0763 38.5666 45.5948C38.5666 47.1133 37.3329 48.3481 35.8181 48.3481C34.3027 48.3481 33.0695 47.1128 33.0695 45.5948ZM60.034 41.2503C60.8433 41.2503 61.4998 40.5922 61.4998 39.782V34.3226C61.4998 31.093 58.8765 28.4652 55.6514 28.4652H50.9048V16.9318C50.9048 8.69868 44.218 2 35.9999 2C27.7819 2.00051 21.095 8.69933 21.095 16.9318V28.4652H16.3484C13.1243 28.4652 10.5 31.093 10.5 34.3226L10.5005 63.1426C10.5005 66.3722 13.1238 69 16.3489 69H55.6516C58.8757 69 61.5 66.3722 61.5 63.1426L61.4995 48.8375C61.4995 48.0268 60.8425 47.3692 60.0337 47.3692C59.2244 47.3692 58.568 48.0273 58.568 48.8375V63.1426C58.568 64.7528 57.2597 66.0633 55.6518 66.0633H16.349C14.7416 66.0633 13.4328 64.7533 13.4328 63.1426V34.3226C13.4328 32.7125 14.7411 31.4019 16.349 31.4019H55.6518C57.2592 31.4019 58.568 32.712 58.568 34.3226V39.782C58.5685 40.5933 59.2247 41.2503 60.034 41.2503ZM47.9738 28.4658H24.0275V16.9318C24.0275 10.3176 29.3983 4.93655 36.0007 4.93655C42.603 4.93655 47.9738 10.3176 47.9738 16.9318V28.4658Z" fill="#2D73DC"></path>
  </symbol>
  <symbol  xmlns="http://www.w3.org/2000/svg" viewBox="0 0 20 20" id="mail">
    <path d="M15.8346 3.33325H4.16797C3.50493 3.33325 2.86904 3.59664 2.4002 4.06549C1.93136 4.53433 1.66797 5.17021 1.66797 5.83325V14.1666C1.66797 14.8296 1.93136 15.4655 2.4002 15.9344C2.86904 16.4032 3.50493 16.6666 4.16797 16.6666H15.8346C16.4977 16.6666 17.1336 16.4032 17.6024 15.9344C18.0712 15.4655 18.3346 14.8296 18.3346 14.1666V5.83325C18.3346 5.17021 18.0712 4.53433 17.6024 4.06549C17.1336 3.59664 16.4977 3.33325 15.8346 3.33325ZM15.493 4.99992L10.593 9.89992C10.5155 9.97803 10.4233 10.04 10.3218 10.0823C10.2202 10.1246 10.1113 10.1464 10.0013 10.1464C9.89129 10.1464 9.78237 10.1246 9.68082 10.0823C9.57927 10.04 9.4871 9.97803 9.40964 9.89992L4.50964 4.99992H15.493ZM16.668 14.1666C16.668 14.3876 16.5802 14.5996 16.4239 14.7558C16.2676 14.9121 16.0556 14.9999 15.8346 14.9999H4.16797C3.94695 14.9999 3.73499 14.9121 3.57871 14.7558C3.42243 14.5996 3.33464 14.3876 3.33464 14.1666V6.17492L8.23464 11.0749C8.70339 11.5431 9.3388 11.8061 10.0013 11.8061C10.6638 11.8061 11.2992 11.5431 11.768 11.0749L16.668 6.17492V14.1666Z" ></path>
  </symbol>
  <symbol  xmlns="http://www.w3.org/2000/svg" viewBox="0 0 71 70" id="message">
    <path d="M35.2516 62.9998H35.2366C34.7753 62.9949 34.3385 62.7925 34.0389 62.4452L25.5931 52.6273H22.0293C12.3634 52.6273 4.5 44.8279 4.5 35.2408V23.3864C4.5 13.7993 12.3634 6 22.0293 6H48.9707C58.6366 6 66.5 13.7993 66.5 23.3864V35.2408C66.5 44.8279 58.6366 52.6273 48.9707 52.6273H44.5144C43.6345 52.6273 42.9209 51.9189 42.9209 51.0468C42.9209 50.1742 43.6351 49.4664 44.5144 49.4664H48.9707C56.8785 49.4664 63.3129 43.0849 63.3129 35.2411V23.3867C63.3129 15.5433 56.8789 9.16145 48.9707 9.16145H22.0293C14.1215 9.16145 7.68715 15.5429 7.68715 23.3867V35.2411C7.68715 43.0845 14.1211 49.4664 22.0293 49.4664H26.329C26.7953 49.4664 27.2388 49.6692 27.5412 50.021L35.274 59.0104L39.2491 54.5589C39.8332 53.9051 40.8393 53.8461 41.4985 54.4239C42.1576 55.0022 42.2182 56.0011 41.6346 56.6549L36.4436 62.4669C36.1412 62.8054 35.7071 63 35.2514 63L35.2516 62.9998ZM47.8504 33.9566C45.2415 33.9566 43.1189 31.8518 43.1189 29.2636C43.1189 26.6754 45.2409 24.5707 47.8504 24.5707C50.4599 24.5707 52.5819 26.6754 52.5819 29.2636C52.5819 31.8518 50.4587 33.9566 47.8504 33.9566ZM47.8504 27.7333C46.9995 27.7333 46.3064 28.4202 46.3064 29.2648C46.3064 30.1099 46.9989 30.7962 47.8504 30.7962C48.7024 30.7962 49.3945 30.1094 49.3945 29.2648C49.3945 28.4197 48.7014 27.7333 47.8504 27.7333ZM35.8068 33.9566C33.1979 33.9566 31.0753 31.8518 31.0753 29.2636C31.0753 26.6754 33.1974 24.5707 35.8068 24.5707C38.4163 24.5707 40.5383 26.6754 40.5383 29.2636C40.5383 31.8518 38.4157 33.9566 35.8068 33.9566ZM35.8068 27.7333C34.9559 27.7333 34.2628 28.4202 34.2628 29.2648C34.2628 30.1099 34.9553 30.7962 35.8068 30.7962C36.6589 30.7962 37.3509 30.1094 37.3509 29.2648C37.3509 28.4197 36.6578 27.7333 35.8068 27.7333ZM23.7644 33.9566C21.1555 33.9566 19.0329 31.8518 19.0329 29.2636C19.0329 26.6754 21.1549 24.5707 23.7644 24.5707C26.3739 24.5707 28.4959 26.6754 28.4959 29.2636C28.4953 31.8518 26.3727 33.9566 23.7644 33.9566ZM23.7644 27.7333C22.9135 27.7333 22.2203 28.4202 22.2203 29.2648C22.2203 30.1099 22.9129 30.7962 23.7644 30.7962C24.6164 30.7962 25.3084 30.1094 25.3084 29.2648C25.3084 28.4197 24.6154 27.7333 23.7644 27.7333Z" fill="#2D73DC"></path>
  </symbol>
  <symbol  xmlns="http://www.w3.org/2000/svg" viewBox="0 0 16 15" id="page">
    <circle cx="8" cy="7.5" r="7" fill="#DFE7F3" stroke="#E4E9F1"></circle>
  </symbol>
  <symbol  xmlns="http://www.w3.org/2000/svg" viewBox="0 0 16 15" id="page-active">
    <circle cx="8" cy="7.5" r="7" fill="#2D73DC" stroke="#E4E9F1"></circle>
  </symbol>
  <symbol  xmlns="http://www.w3.org/2000/svg" viewBox="0 0 20 20" id="phone">
    <path d="M16.2008 10.8333C16.0175 10.8333 15.8258 10.775 15.6425 10.7333C15.2712 10.6515 14.9064 10.5429 14.5508 10.4083C14.1642 10.2677 13.7393 10.275 13.3577 10.4288C12.9762 10.5827 12.6651 10.8722 12.4841 11.2416L12.3008 11.6166C11.4892 11.1651 10.7433 10.6043 10.0842 9.94997C9.42979 9.29082 8.869 8.54497 8.41748 7.7333L8.76748 7.49997C9.13695 7.31907 9.42647 7.00791 9.58031 6.62638C9.73415 6.24485 9.74146 5.8199 9.60082 5.4333C9.4685 5.07699 9.35993 4.7123 9.27582 4.34164C9.23415 4.1583 9.20082 3.96664 9.17582 3.77497C9.07462 3.18799 8.76717 2.65642 8.30883 2.276C7.8505 1.89559 7.2714 1.69131 6.67582 1.69997H4.17582C3.81668 1.6966 3.46102 1.77065 3.13307 1.91708C2.80512 2.06351 2.51257 2.27888 2.27534 2.54854C2.03811 2.81819 1.86176 3.1358 1.75831 3.47973C1.65485 3.82367 1.62672 4.18585 1.67582 4.54164C2.11976 8.03279 3.71417 11.2765 6.20719 13.7605C8.70021 16.2445 11.9497 17.8271 15.4425 18.2583H15.7591C16.3737 18.2592 16.967 18.0337 17.4258 17.625C17.6895 17.3892 17.9001 17.1001 18.0437 16.7769C18.1874 16.4537 18.2608 16.1037 18.2591 15.75V13.25C18.2489 12.6711 18.0382 12.1138 17.6628 11.673C17.2874 11.2323 16.7707 10.9355 16.2008 10.8333ZM16.6175 15.8333C16.6173 15.9516 16.592 16.0686 16.5431 16.1763C16.4943 16.2841 16.423 16.3802 16.3342 16.4583C16.2413 16.5391 16.1325 16.5995 16.0147 16.6354C15.897 16.6713 15.773 16.6819 15.6508 16.6666C12.5299 16.2665 9.63101 14.8387 7.41141 12.6085C5.19181 10.3784 3.77782 7.47275 3.39248 4.34997C3.37922 4.2279 3.39084 4.10441 3.42665 3.98696C3.46246 3.86951 3.52171 3.76054 3.60082 3.66664C3.67891 3.57775 3.77503 3.50651 3.8828 3.45765C3.99056 3.4088 4.1075 3.38345 4.22582 3.3833H6.72582C6.9196 3.37899 7.10884 3.44237 7.26094 3.56253C7.41304 3.68269 7.51849 3.85211 7.55915 4.04164C7.59248 4.26942 7.63415 4.49442 7.68415 4.71664C7.78042 5.15593 7.90853 5.58762 8.06748 6.00831L6.90082 6.54997C6.80106 6.59574 6.71133 6.66076 6.63678 6.7413C6.56223 6.82184 6.50432 6.91632 6.46638 7.0193C6.42843 7.12228 6.41121 7.23175 6.41569 7.34141C6.42017 7.45107 6.44627 7.55876 6.49248 7.6583C7.69182 10.2273 9.75685 12.2923 12.3258 13.4916C12.5287 13.575 12.7563 13.575 12.9592 13.4916C13.0631 13.4545 13.1586 13.397 13.2401 13.3226C13.3217 13.2482 13.3876 13.1584 13.4342 13.0583L13.9508 11.8916C14.3816 12.0457 14.8213 12.1737 15.2675 12.275C15.4897 12.325 15.7147 12.3666 15.9425 12.4C16.132 12.4406 16.3014 12.5461 16.4216 12.6982C16.5417 12.8503 16.6051 13.0395 16.6008 13.2333L16.6175 15.8333Z" ></path>
  </symbol>
  <symbol  xmlns="http://www.w3.org/2000/svg" viewBox="0 0 20 20" id="phone-call">
    <path d="M12.9592 7.49988C13.0629 7.53939 13.1731 7.55917 13.2841 7.55821H16.6175C16.8385 7.55821 17.0505 7.47042 17.2067 7.31414C17.363 7.15786 17.4508 6.94589 17.4508 6.72488C17.4508 6.50387 17.363 6.2919 17.2067 6.13562C17.0505 5.97934 16.8385 5.89155 16.6175 5.89155H15.2925L18.0341 3.14988C18.1214 3.07517 18.1922 2.98324 18.2423 2.87986C18.2923 2.77647 18.3204 2.66386 18.3248 2.54909C18.3292 2.43433 18.3099 2.31988 18.268 2.21294C18.2261 2.10601 18.1626 2.00888 18.0814 1.92767C18.0001 1.84646 17.903 1.78291 17.7961 1.74102C17.6891 1.69912 17.5747 1.67978 17.4599 1.68421C17.3452 1.68865 17.2326 1.71676 17.1292 1.76678C17.0258 1.81679 16.9339 1.88765 16.8591 1.97488L14.1175 4.70821V3.38321C14.1175 3.1622 14.0297 2.95024 13.8734 2.79396C13.7171 2.63768 13.5052 2.54988 13.2841 2.54988C13.0631 2.54988 12.8512 2.63768 12.6949 2.79396C12.5386 2.95024 12.4508 3.1622 12.4508 3.38321V6.71655C12.4499 6.82757 12.4696 6.93779 12.5091 7.04155C12.5501 7.14391 12.611 7.23714 12.6882 7.31581C12.7655 7.39449 12.8576 7.45705 12.9592 7.49988ZM16.2008 10.8332C16.0175 10.8332 15.8258 10.7749 15.6425 10.7332C15.2712 10.6514 14.9064 10.5428 14.5508 10.4082C14.1642 10.2676 13.7393 10.2749 13.3577 10.4287C12.9762 10.5826 12.6651 10.8721 12.4841 11.2415L12.3008 11.6165C11.4892 11.165 10.7433 10.6042 10.0842 9.94988C9.42979 9.29073 8.869 8.54488 8.41748 7.73321L8.76748 7.49988C9.13695 7.31898 9.42647 7.00782 9.58031 6.62629C9.73415 6.24476 9.74146 5.81981 9.60082 5.43321C9.4685 5.0769 9.35993 4.71221 9.27582 4.34155C9.23415 4.15821 9.20082 3.96655 9.17582 3.77488C9.07462 3.1879 8.76717 2.65633 8.30883 2.27591C7.8505 1.89549 7.2714 1.69122 6.67582 1.69988H4.17582C3.81668 1.69651 3.46102 1.77056 3.13307 1.91699C2.80512 2.06342 2.51257 2.27879 2.27534 2.54845C2.03811 2.8181 1.86176 3.13571 1.75831 3.47964C1.65485 3.82358 1.62672 4.18576 1.67582 4.54155C2.11976 8.0327 3.71417 11.2764 6.20719 13.7604C8.70021 16.2444 11.9497 17.827 15.4425 18.2582H15.7591C16.3737 18.2591 16.967 18.0337 17.4258 17.6249C17.6895 17.3891 17.9001 17.1 18.0437 16.7768C18.1874 16.4536 18.2608 16.1036 18.2591 15.7499V13.2499C18.2489 12.671 18.0382 12.1137 17.6628 11.6729C17.2874 11.2322 16.7707 10.9354 16.2008 10.8332ZM16.6175 15.8332C16.6173 15.9515 16.592 16.0685 16.5431 16.1762C16.4943 16.284 16.423 16.3801 16.3342 16.4582C16.241 16.5386 16.1322 16.5987 16.0145 16.6345C15.8968 16.6704 15.7729 16.6813 15.6508 16.6665C12.5299 16.2664 9.63101 14.8386 7.41141 12.6085C5.19181 10.3783 3.77782 7.47266 3.39248 4.34988C3.37922 4.22781 3.39084 4.10432 3.42665 3.98687C3.46246 3.86942 3.52171 3.76045 3.60082 3.66655C3.67891 3.57766 3.77503 3.50641 3.8828 3.45756C3.99056 3.40871 4.1075 3.38336 4.22582 3.38321H6.72582C6.9196 3.3789 7.10884 3.44228 7.26094 3.56244C7.41304 3.6826 7.51849 3.85202 7.55915 4.04155C7.59248 4.26932 7.63415 4.49432 7.68415 4.71655C7.78042 5.15583 7.90853 5.58753 8.06748 6.00821L6.90082 6.54988C6.80106 6.59565 6.71133 6.66067 6.63678 6.74121C6.56223 6.82175 6.50432 6.91623 6.46638 7.01921C6.42843 7.12219 6.41121 7.23166 6.41569 7.34132C6.42017 7.45097 6.44627 7.55867 6.49248 7.65821C7.69182 10.2272 9.75685 12.2922 12.3258 13.4915C12.5287 13.5749 12.7563 13.5749 12.9592 13.4915C13.0631 13.4544 13.1586 13.3969 13.2401 13.3225C13.3217 13.2481 13.3876 13.1583 13.4342 13.0582L13.9508 11.8915C14.3816 12.0456 14.8213 12.1736 15.2675 12.2749C15.4897 12.3249 15.7147 12.3665 15.9425 12.3999C16.132 12.4405 16.3014 12.546 16.4216 12.6981C16.5417 12.8502 16.6051 13.0394 16.6008 13.2332L16.6175 15.8332Z"></path>
  </symbol>
  <symbol  xmlns="http://www.w3.org/2000/svg" viewBox="0 0 60 60" id="plan">
    <path d="M10.8135 7.80064C9.73263 7.80064 8.85352 8.67976 8.85352 9.76066V14.1444C8.85352 15.2253 9.73263 16.1044 10.8135 16.1044L48.847 16.1038C49.9279 16.1038 50.807 15.2246 50.807 14.1437L50.8074 9.76C50.8074 8.67911 49.9282 7.79999 48.8473 7.79999L10.8135 7.80064ZM49.7383 9.75999V14.1437C49.7383 14.6353 49.3386 15.0346 48.8474 15.0346H46.2649V11.5963H45.1958V15.0349H41.7223V10.1709H40.6532V15.0349H37.1792V11.5963H36.11V15.0349H32.6366V10.1709H31.5674V15.0353H28.094V11.5963H27.0248V15.0353H23.5514V10.1709H22.4822V15.0353H19.0082L19.0079 11.5963H17.9387V15.0355H14.4653V10.1714H13.3961V15.0355H10.8136C10.3221 15.0355 9.92274 14.6359 9.92274 14.1447V9.76058C9.92274 9.26901 10.3224 8.8697 10.8136 8.8697L48.8471 8.86904C49.3387 8.86904 49.7383 9.26846 49.7383 9.75999Z" fill="#2D73DC"></path>
    <path d="M40.4917 29.87H12.8002C12.5052 29.87 12.2656 30.1096 12.2656 30.4046V46.7293C12.2656 47.0243 12.5052 47.2639 12.8002 47.2639H40.7236C40.867 47.2639 41.0042 47.2068 41.1042 47.1044C41.2043 47.0027 41.2601 46.8649 41.2581 46.7215L41.0261 30.3967C41.0219 30.1043 40.784 29.8697 40.4916 29.8697L40.4917 29.87ZM26.7501 46.1948V42.9518H25.681V46.1948H13.3347V36.3031H17.6978V35.234H13.3347V30.9386H25.5802L25.6694 35.234H20.5575V36.3031H26.2151C26.3585 36.3031 26.4964 36.2454 26.5974 36.1424C26.6975 36.04 26.7526 35.9008 26.75 35.7574L26.6499 30.9386H39.9648L40.0744 38.6642H26.7495V37.1829H25.6803V41.2145H26.7495V39.7333H40.0887L40.1802 46.1941L26.7501 46.1948Z" fill="#2D73DC"></path>
    <path d="M48.733 17.9924C46.6712 17.9924 44.9944 19.6643 44.9944 21.7198V24.5396H7.73377C7.43877 24.5396 7.19922 24.7791 7.19922 25.0741V52.0609C7.19922 52.3559 7.43877 52.5954 7.73377 52.5954H47.0836C50.0481 52.5954 52.46 50.1836 52.46 47.1607C52.46 47.1197 52.4498 47.0813 52.4485 47.0406C52.4508 47.0209 52.4603 47.0038 52.4603 46.9838V21.72C52.4603 19.6645 50.7884 17.9926 48.7329 17.9926L48.733 17.9924ZM47.084 51.5257H8.26847V25.6084H44.994V46.9836C44.994 47.2786 45.2335 47.5181 45.5285 47.5181C45.8235 47.5181 46.0631 47.2786 46.0631 46.9836C46.0631 45.2861 47.6799 43.9479 49.4325 44.4306C50.5521 44.7633 51.3911 45.8849 51.3911 47.2188C51.3911 49.5939 49.4587 51.526 47.0839 51.526L47.084 51.5257ZM51.3913 44.3731C50.0005 42.9565 47.5802 42.8334 46.0635 44.3757V21.7194C46.0635 20.2536 47.2605 19.0611 48.7329 19.0611C50.1987 19.0611 51.3913 20.2535 51.3913 21.7194V44.3731Z" fill="#2D73DC"></path>
  </symbol>
  <symbol  xmlns="http://www.w3.org/2000/svg" viewBox="0 0 24 24" id="skype">
    <path d="M20.2527 13.0978C20.3101 12.6976 20.3389 12.2938 20.3389 11.8895C20.3389 7.2879 16.5665 3.54176 11.9246 3.54176C11.5365 3.54176 11.1413 3.57027 10.7569 3.62016C9.99519 3.21386 9.13292 3 8.26346 3C5.36047 3 3 5.34176 3 8.21821C3 9.06653 3.20837 9.90413 3.60718 10.6491C3.5461 11.059 3.51376 11.476 3.51376 11.8895C3.51376 16.4911 7.2862 20.2372 11.9282 20.2372C12.2551 20.2372 12.5856 20.2194 12.909 20.1802C13.7533 20.7149 14.7306 21 15.7401 21C18.6431 21 21 18.6582 21 15.7818C21 14.8337 20.7413 13.907 20.2527 13.0978H20.2527ZM18.6072 18.6261C17.8419 19.3853 16.8216 19.806 15.7365 19.806C14.9353 19.806 14.1629 19.5743 13.4982 19.1359L13.2 18.9398L12.8443 18.9862C12.5425 19.0254 12.2335 19.0432 11.9282 19.0432C10.9545 19.0432 10.0096 18.8543 9.12217 18.48C8.26348 18.12 7.49103 17.6032 6.82997 16.9473C6.16891 16.2915 5.64793 15.5252 5.28504 14.6733C4.90782 13.7929 4.71738 12.8555 4.71738 11.8895C4.71738 11.5117 4.74612 11.1303 4.80721 10.756L4.8575 10.4352L4.69943 10.1501C4.37607 9.56198 4.2036 8.89544 4.2036 8.21821C4.2036 7.14178 4.62395 6.13305 5.39281 5.37029C6.15807 4.61109 7.17844 4.19048 8.26348 4.19048C8.95689 4.19048 9.64314 4.3687 10.2432 4.70372L10.5306 4.86412L10.8575 4.81779C11.2096 4.76432 11.5725 4.73939 11.9282 4.73939C12.9018 4.73939 13.8467 4.9283 14.7342 5.30256C15.5929 5.66256 16.3653 6.17939 17.0264 6.83523C17.6874 7.49107 18.2084 8.25739 18.5713 9.10928C18.9485 9.98968 19.1389 10.9271 19.1389 11.893C19.1389 12.2637 19.1102 12.638 19.0527 13.0051L18.9988 13.3544L19.1892 13.6574C19.588 14.2954 19.8 15.0297 19.8 15.7818C19.7964 16.8546 19.3725 17.8669 18.6072 18.6261V18.6261H18.6072ZM13.1821 11.1125L11.4791 10.7311C10.5521 10.5244 10.085 10.2072 10.085 9.77232C10.085 9.46225 10.2144 9.20916 10.4695 9.01666C10.7246 8.82416 11.0875 8.72795 11.5509 8.72795C12.097 8.72795 12.5425 8.84202 12.8803 9.0737C12.9809 9.13786 13.1964 9.34815 13.527 9.70103C13.7425 9.92914 13.9761 10.0468 14.224 10.0468C14.4791 10.0468 14.7019 9.97549 14.8815 9.83292C15.0647 9.69034 15.1545 9.49429 15.1545 9.24834C15.1545 8.6816 14.7773 8.18971 14.0228 7.77269C13.3114 7.37704 12.5318 7.18101 11.6838 7.18101C10.7066 7.18101 9.89464 7.38773 9.24792 7.79765C8.49343 8.2824 8.11619 8.98101 8.11619 9.88992C8.11619 11.1374 8.84553 11.9466 10.3042 12.3137L12.6036 12.8911C13.182 13.0372 13.473 13.3473 13.473 13.8143C13.473 14.1279 13.3329 14.3917 13.0527 14.6127C12.7473 14.8586 12.3413 14.9834 11.8383 14.9834C11.2527 14.9834 10.782 14.8444 10.4263 14.5663C10.3437 14.5093 10.1173 14.2562 9.74728 13.8036C9.51736 13.5255 9.25506 13.3865 8.96766 13.3865C8.71975 13.3865 8.51496 13.4649 8.35328 13.6218C8.1916 13.7786 8.11257 13.9782 8.11257 14.2242C8.11257 14.7837 8.41439 15.2756 9.01798 15.6998C9.71859 16.2095 10.6635 16.4626 11.842 16.4626C13.0312 16.4626 13.9473 16.1952 14.594 15.6606C15.2048 15.1687 15.5102 14.5022 15.5102 13.6645C15.521 12.3172 14.7413 11.4653 13.1821 11.1124V11.1125Z"></path>
  </symbol>
  <symbol  xmlns="http://www.w3.org/2000/svg" viewBox="0 0 24 24" id="telegram">
    <path d="M20.5669 3.30457C20.3942 3.15644 20.1841 3.0576 19.9591 3.01864C19.7341 2.97968 19.5026 3.00205 19.2894 3.08338L2.79884 9.49788C2.54582 9.59496 2.33154 9.77092 2.18834 9.9992C2.04514 10.2275 1.98078 10.4957 2.00499 10.7634C2.02919 11.0311 2.14064 11.2837 2.32251 11.4831C2.50439 11.6826 2.74682 11.818 3.01324 11.869L7.34581 12.7272V18.0535C7.34611 18.2975 7.41918 18.536 7.55586 18.7391C7.69253 18.9422 7.88673 19.1007 8.11406 19.1948C8.26735 19.2567 8.43094 19.2897 8.59645 19.2922C8.76084 19.2931 8.92376 19.2616 9.07564 19.1993C9.22752 19.137 9.36529 19.0452 9.48083 18.9294L11.9196 16.514L15.5643 19.6903C15.7901 19.8908 16.0829 20.0011 16.3862 20C16.5168 20.001 16.6467 19.9801 16.7703 19.938C16.9766 19.8731 17.1619 19.7555 17.3078 19.5971C17.4536 19.4387 17.5548 19.245 17.6011 19.0356L20.9689 4.51669C21.0192 4.29754 21.0084 4.06895 20.9375 3.85542C20.8667 3.6419 20.7386 3.45148 20.5669 3.30457ZM3.0847 10.6658C3.07846 10.6285 3.08581 10.5902 3.10545 10.5578C3.12509 10.5253 3.15573 10.5009 3.1919 10.4888L16.9936 5.11832L7.75674 11.7275L3.22763 10.825C3.18816 10.8206 3.15171 10.802 3.12532 10.7725C3.09892 10.7431 3.08446 10.7051 3.0847 10.6658ZM8.72152 18.1774C8.69674 18.2031 8.66438 18.2204 8.62907 18.2267C8.59375 18.2331 8.55732 18.2282 8.52499 18.2127C8.49358 18.1992 8.46678 18.177 8.44777 18.1487C8.42877 18.1205 8.41836 18.0874 8.41779 18.0535V13.4616L11.1067 15.8151L8.72152 18.1774ZM16.5648 18.7967C16.5587 18.8274 16.5445 18.8559 16.5236 18.8794C16.5028 18.9029 16.476 18.9205 16.446 18.9303C16.4161 18.9402 16.384 18.9421 16.3531 18.9357C16.3222 18.9293 16.2935 18.9149 16.27 18.894L8.73938 12.3291L19.9058 4.34858L16.5648 18.7967Z"></path>
  </symbol>
  <symbol  xmlns="http://www.w3.org/2000/svg" viewBox="0 0 71 70" id="vent">
    <path d="M66.6326 1V3.03521H31.0132C14.739 3.03521 1.5 16.2747 1.5 32.5484V38.655C1.5 54.9278 14.7395 68.1682 31.0132 68.1682C46.6009 68.1682 59.3979 56.0171 60.4483 40.6904L66.6328 40.6911V42.7263H68.668V1.00071L66.6326 1ZM66.6326 38.6548H58.4901C58.4901 53.8059 46.1636 66.1326 31.0123 66.1326C15.8612 66.1333 3.53449 53.8068 3.53449 38.6548V32.5482C3.53449 17.3971 15.861 5.07043 31.0123 5.07043H66.6317L66.6326 38.6548Z" fill="#2D73DC"></path>
    <path d="M31.0121 18.3008C19.7888 18.3008 10.6582 27.4313 10.6582 38.6547C10.6582 49.8781 19.7888 59.0087 31.0121 59.0087C42.2355 59.0087 51.3661 49.8781 51.3661 38.6547C51.3661 27.4321 42.2348 18.3008 31.0121 18.3008ZM49.3307 38.6547C49.3307 39.3902 49.2746 40.1128 49.1901 40.8262L42.16 39.5868C42.1856 39.2787 42.2069 38.9692 42.2069 38.6547C42.2069 38.3402 42.1856 38.0307 42.16 37.7226L49.1901 36.4831C49.2753 37.1966 49.3307 37.9193 49.3307 38.6547ZM24.6315 47.8422C25.1405 48.1964 25.6815 48.5038 26.2465 48.77L23.801 55.4899C22.4579 54.912 21.2077 54.1659 20.052 53.2984L24.6315 47.8422ZM28.159 49.4671C28.7545 49.624 29.3651 49.7411 29.9941 49.7979V56.9216C28.5154 56.84 27.0793 56.5993 25.7134 56.1847L28.159 49.4671ZM32.0293 49.7979C32.6582 49.7411 33.2688 49.624 33.8644 49.4671L36.31 56.1848C34.9442 56.598 33.508 56.8393 32.0293 56.9217V49.7979ZM35.7753 48.77C36.3404 48.5024 36.8828 48.1957 37.3903 47.8407L41.9698 53.2976C40.8134 54.1644 39.564 54.9119 38.2208 55.4891L35.7753 48.77ZM31.012 47.8145C25.9618 47.8145 21.8531 43.7064 21.8531 38.6556C21.8531 33.6054 25.9625 29.4967 31.012 29.4967C36.0621 29.4967 40.1709 33.6062 40.1709 38.6556C40.1709 43.7057 36.0614 47.8145 31.012 47.8145ZM12.6934 38.6549C12.6934 37.9194 12.7495 37.1967 12.834 36.4833L19.8641 37.7228C19.8385 38.0316 19.8172 38.3404 19.8172 38.6549C19.8172 38.9694 19.8385 39.2789 19.8641 39.587L12.834 40.8264C12.7495 40.1137 12.6934 39.391 12.6934 38.6549ZM20.2211 35.7188L13.1917 34.4793C13.5275 33.0475 14.0301 31.6816 14.6804 30.4004L20.8585 33.9676C20.5987 34.5298 20.3858 35.1133 20.2211 35.7188ZM20.2211 41.5909C20.3858 42.1971 20.5995 42.7814 20.8593 43.3422L14.6811 46.9094C14.0309 45.6281 13.5283 44.2623 13.1925 42.8304L20.2211 41.5909ZM37.3918 29.4681C36.8828 29.1139 36.3419 28.8065 35.7768 28.5403L38.2224 21.8204C39.5655 22.3983 40.8163 23.1444 41.9713 24.0119L37.3918 29.4681ZM33.8644 27.8432C33.2688 27.6863 32.6583 27.5692 32.0293 27.5124V20.3887C33.508 20.4703 34.9441 20.711 36.31 21.1256L33.8644 27.8432ZM29.9941 27.5124C29.3651 27.5692 28.7546 27.6856 28.159 27.8432L25.7141 21.1255C27.0799 20.7123 28.5146 20.471 29.9934 20.39L29.9941 27.5124ZM26.2466 28.5403C25.6815 28.8079 25.1406 29.1146 24.6316 29.4681L20.0521 24.0113C21.2071 23.1445 22.4579 22.3984 23.8004 21.8198L26.2466 28.5403ZM41.1642 33.9688L47.3424 30.4016C47.9926 31.683 48.4952 33.0487 48.831 34.4806L41.8016 35.72C41.6376 35.1131 41.4248 34.5296 41.1642 33.9688ZM41.8024 41.5903L48.8318 42.8297C48.496 44.2616 47.9934 45.6275 47.3431 46.9087L41.165 43.3415C41.4241 42.7821 41.6377 42.1965 41.8024 41.5903ZM46.3293 28.6363L40.1468 32.2064C39.7869 31.6974 39.3908 31.2161 38.9521 30.7745L43.5295 25.3184C44.5866 26.3108 45.53 27.4196 46.3293 28.6365L46.3293 28.6363ZM18.4935 25.3182L23.0722 30.7743C22.635 31.2159 22.2388 31.6972 21.8782 32.2062L15.6957 28.6361C16.4936 27.4193 17.437 26.3112 18.4934 25.318L18.4935 25.3182ZM15.6945 48.6744L21.877 45.105C22.2369 45.614 22.633 46.0953 23.071 46.5361L18.4923 51.9922C17.4374 50.9991 16.494 49.8903 15.6945 48.6742L15.6945 48.6744ZM43.5303 51.9924L38.9516 46.5376C39.3889 46.096 39.785 45.6147 40.1456 45.1064L46.3281 48.6758C45.5302 49.8904 44.5867 50.9992 43.5303 51.9924Z" fill="#2D73DC"></path>
  </symbol>
  <symbol  xmlns="http://www.w3.org/2000/svg" viewBox="0 0 24 24" id="vk">
    <path d="M1 6.92604C1 6.13905 1.56522 5.8284 2.26087 5.78698L5.5 5.80769C5.69565 5.80769 5.86957 5.93195 5.93478 6.11834C6.67391 8.39645 7.58696 9.80473 8.67391 11.3994C8.73913 11.5237 8.84783 11.5858 8.95652 11.5858C9.04348 11.5858 9.13043 11.5444 9.19565 11.4408L9.26087 11.213L9.28261 7.63018C9.28261 7.11243 9.02174 7.02959 8.41304 6.94675C8.17391 6.90533 8.02174 6.69822 8.02174 6.49112C8.02174 6.4497 8.02174 6.40828 8.04348 6.36686C8.34783 5.47633 9.30435 5.02071 10.6522 5.02071L11.8696 5C12.8696 5 13.7826 5.4142 13.7826 6.63609V11.3373C13.8696 11.3994 13.9565 11.4408 14.0652 11.4408C14.2391 11.4408 14.4565 11.3373 14.6304 11.068C15.7609 9.55621 17.0435 7.75444 17.2174 6.80178C17.2174 6.76035 17.2391 6.73964 17.2609 6.69822C17.5 6.2426 18.1087 5.93195 18.3696 5.84911C18.413 5.8284 18.4783 5.80769 18.5652 5.80769H21.9348L22.1522 5.8284C22.4783 5.8284 22.7174 6.0355 22.8261 6.22189C23.0217 6.51183 22.9783 6.82249 23 6.94675V7.09172C22.6739 8.97633 20.413 11.0888 19.4565 12.4556C19.3261 12.6213 19.2609 12.7663 19.2609 12.9112C19.2609 13.0355 19.3261 13.1598 19.4348 13.284L22.6087 17.0947C22.7826 17.3225 22.8696 17.5917 22.8696 17.8195C22.8696 18.503 22.1957 18.8964 21.5435 18.9586L21.1739 18.9793H17.8696C17.8043 18.9793 17.7609 19 17.6957 19C17.3261 19 17.0217 18.8136 16.8043 18.6065C16.1087 17.7988 15.4348 16.9704 14.7609 16.1627C14.6304 15.997 14.587 15.9763 14.4565 15.8935C14.3043 16.4941 14.1739 17.1154 14.0217 17.7367L13.9565 18.0888C13.8478 18.4615 13.5652 18.855 13.0435 18.9586L12.7391 18.9793H10.6087C6.84783 18.9793 3.47826 13.8846 1.1087 7.52663C1.04348 7.36095 1 7.13314 1 6.92604ZM14.0652 12.2899C13.5 12.2899 12.8696 11.9793 12.8696 11.3994V6.63609C12.8696 6.07692 12.6087 5.86982 11.8913 5.86982L10.6522 5.91124C9.95652 5.91124 9.56522 6.01479 9.23913 6.22189C9.73913 6.4497 10.1957 6.76035 10.1957 7.63018V11.2751C10.1304 12 9.5 12.4763 8.8913 12.4763C8.47826 12.4763 8.1087 12.2485 7.8913 11.8757C6.91304 10.4675 6.08696 9.14201 5.36957 7.23669L5.17391 6.69822L2.28261 6.67751C1.8913 6.67751 1.93478 6.69822 1.93478 6.88462C1.93478 7.00888 1.95652 7.17456 1.97826 7.27811L2.43478 8.43787C4.80435 14.2781 7.78261 18.1095 10.6087 18.1095H12.7826C13.087 18.1095 13.0652 17.7574 13.1304 17.5503L13.5435 15.7278C13.6304 15.5414 13.6957 15.3757 13.8478 15.2308C14.0217 15.0651 14.2174 15.003 14.413 15.003C14.8261 15.003 15.2174 15.3136 15.4783 15.6035L17.3261 17.8402C17.4783 18.068 17.6087 18.1095 17.6957 18.1095H21.2826C21.6304 18.1095 21.9348 18.0059 21.9348 17.7988C21.9348 17.7367 21.913 17.6538 21.8696 17.5917L18.7174 13.8432C18.4565 13.5325 18.3478 13.2219 18.3478 12.9112C18.3478 12.5799 18.4783 12.2485 18.6957 11.9586C19.6087 10.6538 21.5652 8.78994 22.0217 7.2574L22.087 6.98817C22.0652 6.88462 22.0652 6.80178 22.0435 6.69822H18.6304C18.413 6.78106 18.2391 6.90533 18.1087 7.07101L17.9783 7.4645C17.4783 8.78994 16.1087 10.6124 15.1304 11.8757C14.8043 12.1657 14.4348 12.2899 14.0652 12.2899Z"></path>
  </symbol>
   <symbol  xmlns="http://www.w3.org/2000/svg" viewBox="0 0 26 14" id="burger">
    <rect width="26" height="2" rx="1" fill="white"></rect>
    <rect y="6" width="26" height="2" rx="1" fill="white"></rect>
    <rect y="12" width="26" height="2" rx="1" fill="white"></rect>
  </symbol>
  <symbol xmlns="http://www.w3.org/2000/svg" width="26" height="16" viewBox="0 0 26 16" id="quotation-mark">
    <path d="M1.09125 16C0.730834 16 0.450514 15.8565 0.250286 15.5695C0.0500571 15.2825 -0.0300343 14.9238 0.0100115 14.4933L1.63186 2.29596C1.71195 1.67414 1.89216 1.14798 2.17248 0.717488C2.49285 0.239163 2.95337 0 3.55406 0H9.08037C9.40073 0 9.66103 0.143498 9.86126 0.430493C10.0615 0.669656 10.1616 0.980567 10.1616 1.36323C10.1616 1.69806 10.1015 2.00897 9.9814 2.29596L6.13701 14.2063C5.97682 14.6846 5.73655 15.0912 5.41618 15.426C5.13586 15.8087 4.71538 16 4.15474 16H1.09125Z" fill="#2D73DC"></path>
    <path d="M16.9296 16C16.5692 16 16.2889 15.8565 16.0887 15.5695C15.8885 15.2825 15.8084 14.9238 15.8484 14.4933L17.4703 2.29596C17.5504 1.67414 17.7306 1.14798 18.0109 0.717488C18.3312 0.239163 18.7918 0 19.3925 0H24.9188C25.2391 0 25.4994 0.143498 25.6997 0.430493C25.8999 0.669656 26 0.980567 26 1.36323C26 1.69806 25.9399 2.00897 25.8198 2.29596L21.9754 14.2063C21.8152 14.6846 21.5749 15.0912 21.2546 15.426C20.9743 15.8087 20.5538 16 19.9931 16H16.9296Z" fill="#2D73DC"></path>
  </symbol>
  <symbol xmlns="http://www.w3.org/2000/svg" viewBox="0 0 30 30" id="twitter">
    <path d="M28.7385 4.93776C28.7387 4.71697 28.6803 4.50008 28.5694 4.30919C28.4584 4.1183 28.2989 3.96022 28.107 3.85105C27.915 3.74188 27.6976 3.68552 27.4769 3.68771C27.2561 3.68991 27.0398 3.75057 26.8501 3.86353C26.1185 4.29901 25.3308 4.63251 24.5089 4.85478C23.3351 3.84757 21.838 3.29641 20.2914 3.30204C18.5946 3.304 16.965 3.96529 15.7466 5.14627C14.5283 6.32726 13.8166 7.9355 13.7618 9.63139C10.4168 9.09797 7.38511 7.35205 5.24488 4.72657C5.11593 4.57011 4.95124 4.44696 4.76471 4.3675C4.57818 4.28804 4.37527 4.2546 4.17311 4.27001C3.97106 4.28664 3.7761 4.35225 3.6051 4.46115C3.4341 4.57004 3.29219 4.71896 3.19166 4.89501C2.67607 5.79477 2.37995 6.80345 2.32735 7.83914C2.27474 8.87483 2.46714 9.90832 2.88892 10.8557L2.88648 10.8581C2.69692 10.9749 2.54047 11.1383 2.43212 11.3328C2.32376 11.5273 2.26711 11.7463 2.26758 11.969C2.26529 12.1526 2.27631 12.3362 2.30055 12.5183C2.42822 14.0911 3.12527 15.5634 4.261 16.6589C4.18395 16.8057 4.13693 16.9664 4.12267 17.1315C4.10842 17.2967 4.12722 17.463 4.17798 17.6208C4.67313 19.1635 5.72611 20.4659 7.13087 21.2732C5.70367 21.8251 4.16265 22.0175 2.64356 21.8335C2.3624 21.7982 2.0776 21.8595 1.83587 22.0074C1.59414 22.1552 1.40984 22.3809 1.3132 22.6472C1.21656 22.9136 1.21332 23.2049 1.30401 23.4734C1.3947 23.7419 1.57393 23.9715 1.81231 24.1247C4.42493 25.8074 7.4669 26.7021 10.5745 26.7017C14.0986 26.7413 17.537 25.6152 20.3548 23.4985C23.1727 21.3818 25.212 18.3931 26.1555 14.9975C26.5969 13.5183 26.8222 11.9831 26.8245 10.4395C26.8245 10.3577 26.8245 10.2734 26.8233 10.1892C27.4759 9.48538 27.9815 8.65835 28.3104 7.75659C28.6393 6.85483 28.7848 5.8965 28.7385 4.93776ZM24.6052 8.95264C24.3988 9.19682 24.2943 9.51114 24.3135 9.83033C24.3257 10.0366 24.3245 10.2441 24.3245 10.4395C24.3219 11.7439 24.1307 13.0411 23.7568 14.2908C22.9862 17.18 21.2683 19.7271 18.8782 21.524C16.4881 23.321 13.5641 24.2639 10.5745 24.2017C9.50062 24.202 8.43042 24.0758 7.38605 23.8257C8.71781 23.3965 9.96303 22.7348 11.064 21.8713C11.2668 21.7117 11.4152 21.4932 11.4889 21.2458C11.5626 20.9985 11.5579 20.7344 11.4755 20.4898C11.3931 20.2452 11.2371 20.0321 11.0287 19.8797C10.8204 19.7273 10.5701 19.6431 10.312 19.6387C9.27306 19.6225 8.28093 19.2037 7.54468 18.4705C7.73146 18.4351 7.91701 18.3911 8.10133 18.3386C8.37135 18.2618 8.60764 18.0963 8.77216 17.8688C8.93668 17.6413 9.01986 17.3651 9.0083 17.0846C8.99674 16.8041 8.89112 16.5356 8.70844 16.3225C8.52576 16.1093 8.27666 15.9638 8.00123 15.9094C7.39816 15.7903 6.83067 15.5338 6.34288 15.1597C5.85509 14.7856 5.46014 14.304 5.18873 13.7524C5.41465 13.7833 5.642 13.8024 5.86988 13.8098C6.14061 13.8139 6.40563 13.7318 6.6266 13.5753C6.84758 13.4189 7.01307 13.1962 7.09913 12.9395C7.18161 12.6804 7.17736 12.4015 7.08705 12.1451C6.99673 11.8887 6.82526 11.6687 6.59865 11.5186C6.04883 11.1523 5.59845 10.6553 5.28784 10.0723C4.97723 9.48917 4.81609 8.83815 4.81886 8.17751C4.81886 8.09451 4.8213 8.01149 4.82618 7.92971C7.62776 10.5425 11.2616 12.0828 15.0874 12.2791C15.2806 12.2867 15.4729 12.2503 15.6499 12.1727C15.8269 12.0951 15.9839 11.9783 16.1092 11.8311C16.2331 11.6824 16.3209 11.5071 16.3656 11.3188C16.4103 11.1305 16.4107 10.9343 16.3667 10.7459C16.2952 10.4476 16.2587 10.142 16.258 9.83522C16.2592 8.76589 16.6845 7.74068 17.4406 6.98455C18.1967 6.22842 19.2219 5.80314 20.2913 5.80201C20.8414 5.80053 21.3859 5.91313 21.8904 6.13269C22.3949 6.35225 22.8483 6.674 23.2222 7.07764C23.3663 7.23275 23.5478 7.34839 23.7493 7.41356C23.9508 7.47874 24.1656 7.49129 24.3733 7.45001C24.8868 7.35008 25.3929 7.2155 25.8882 7.04718C25.5503 7.7384 25.1186 8.37962 24.6052 8.95264Z"></path>
  </symbol>
  <symbol xmlns="http://www.w3.org/2000/svg" viewBox="0 0 30 30" id="ok">
    <path d="M22.2866 15.925C21.9366 15.2125 20.9491 14.6125 19.6366 15.625C17.8491 17.05 14.9991 17.05 14.9991 17.05C14.9991 17.05 12.1491 17.05 10.3616 15.625C9.04909 14.6125 8.06159 15.2125 7.71159 15.925C7.08659 17.175 7.78659 17.7875 9.37409 18.8C10.7366 19.675 12.5991 20 13.7991 20.125L12.7991 21.125C11.3741 22.5375 9.99909 23.9 9.06159 24.85C8.49909 25.425 8.49909 26.3375 9.06159 26.875L9.23659 27.075C9.79909 27.6375 10.7241 27.6375 11.2866 27.075L14.9991 23.35C16.4366 24.7625 17.7991 26.125 18.7491 27.075C19.3116 27.6375 20.2241 27.6375 20.7991 27.075L20.9616 26.875C21.5366 26.3375 21.5366 25.425 20.9616 24.85L17.2366 21.125L16.2491 20.1125C17.4366 20 19.2741 19.6625 20.6241 18.8C22.2116 17.7875 22.9116 17.175 22.2866 15.925ZM14.9991 5.7125C16.7241 5.7125 18.1241 7.1125 18.1241 8.825C18.1241 10.55 16.7241 11.9375 14.9991 11.9375C13.2741 11.9375 11.8741 10.55 11.8741 8.825C11.8741 7.1125 13.2741 5.7125 14.9991 5.7125ZM14.9991 15.15C18.4991 15.15 21.3241 12.325 21.3241 8.825C21.3241 7.14751 20.6577 5.53872 19.4715 4.35255C18.2854 3.16638 16.6766 2.5 14.9991 2.5C13.3216 2.5 11.7128 3.16638 10.5266 4.35255C9.34047 5.53872 8.67409 7.14751 8.67409 8.825C8.67409 12.325 11.4991 15.15 14.9991 15.15Z"></path>
  </symbol>
  <symbol xmlns="http://www.w3.org/2000/svg" viewBox="0 0 30 30" id="vk-2">
    <path d="M19.6796 16.9116C19.3144 16.5168 18.9044 16.166 18.4578 15.8665C20.26 14.4731 21.5229 12.4977 22.0312 10.2771C22.0688 10.1166 22.0742 9.95032 22.0472 9.78775C22.0202 9.62517 21.9613 9.46954 21.874 9.3298C21.7866 9.19007 21.6725 9.06899 21.5381 8.97353C21.4038 8.87808 21.2519 8.81013 21.0912 8.77359C20.9305 8.73706 20.7641 8.73266 20.6017 8.76066C20.4393 8.78865 20.2841 8.84848 20.1449 8.93671C20.0057 9.02494 19.8853 9.13982 19.7907 9.27475C19.6961 9.40967 19.629 9.56198 19.5935 9.7229C19.3567 10.7616 18.8963 11.7362 18.2442 12.5786C17.5921 13.4211 16.7641 14.1112 15.8179 14.6008V10.0025C15.8102 9.91052 15.7918 9.81974 15.7633 9.73196C15.755 9.65969 15.7406 9.58825 15.7201 9.51842C15.6668 9.40474 15.5965 9.29983 15.5116 9.20729C15.4893 9.18074 15.478 9.14572 15.4536 9.12116C15.362 9.03663 15.2583 8.96624 15.146 8.91234C15.1141 8.89532 15.0903 8.86656 15.0568 8.85234C14.9611 8.82043 14.8619 8.80002 14.7613 8.79152C14.6992 8.77336 14.6357 8.76032 14.5715 8.75254L13.7537 8.75H13.75C13.4576 8.7486 13.174 8.85026 12.9491 9.03713C12.7241 9.224 12.5722 9.48413 12.52 9.77185C12.4678 10.0596 12.5186 10.3565 12.6635 10.6105C12.8084 10.8645 13.0381 11.0593 13.3124 11.1608V17.2742C11.3315 15.2179 10.0199 12.61 9.55018 9.79375C9.52276 9.63192 9.46374 9.47708 9.37649 9.33806C9.28923 9.19904 9.17545 9.07857 9.04163 8.98352C8.90782 8.88848 8.7566 8.82072 8.5966 8.78412C8.4366 8.74752 8.27095 8.74279 8.10912 8.7702C7.9473 8.79761 7.79245 8.85663 7.65343 8.94389C7.51442 9.03114 7.39394 9.14493 7.2989 9.27874C7.20385 9.41255 7.1361 9.56378 7.09949 9.72378C7.06289 9.88378 7.05816 10.0494 7.08557 10.2112C7.81606 14.5644 10.2436 18.4501 13.8355 21.0157C13.8867 21.0464 13.9401 21.0733 13.9952 21.0963C14.0385 21.1217 14.0834 21.1443 14.1296 21.164C14.2691 21.2198 14.4176 21.2498 14.5679 21.2525C14.7518 21.2502 14.9328 21.2067 15.0977 21.1252C15.1101 21.1193 15.1244 21.122 15.1367 21.1158C15.2472 21.0582 15.3484 20.9844 15.4369 20.8967C15.4546 20.8794 15.4665 20.8581 15.4833 20.8398C15.564 20.7511 15.6313 20.6513 15.6832 20.5433C15.7006 20.5074 15.7165 20.4732 15.7304 20.4355C15.7854 20.2976 15.815 20.1509 15.8179 20.0025L15.8185 17.345C16.593 17.5724 17.2908 18.0067 17.8369 18.6011L19.8969 20.8472C20.0077 20.9686 20.1413 21.0669 20.2902 21.1365C20.4391 21.2062 20.6002 21.2458 20.7644 21.2531C20.9286 21.2603 21.0926 21.2352 21.2471 21.179C21.4015 21.1228 21.5434 21.0367 21.6645 20.9256C21.7856 20.8145 21.8837 20.6806 21.953 20.5316C22.0223 20.3825 22.0615 20.2213 22.0684 20.0571C22.0753 19.8929 22.0498 19.7289 21.9932 19.5746C21.9367 19.4203 21.8503 19.2786 21.7389 19.1577L19.6796 16.9116ZM18.8409 1.25H11.1719C3.47534 1.25 1.25 3.4729 1.25 11.1584V18.8281C1.25 26.5247 3.47229 28.75 11.1591 28.75H18.8281C26.5247 28.75 28.75 26.5271 28.75 18.8416V11.1719C28.75 3.47534 26.5277 1.25 18.8409 1.25ZM26.25 18.8416C26.25 25.1416 25.1404 26.25 18.8281 26.25H11.1591C4.85779 26.25 3.75 25.1404 3.75 18.8281V11.1584C3.75 4.8584 4.85963 3.75 11.1719 3.75H18.8409C25.1422 3.75 26.25 4.85963 26.25 11.1719V18.8416Z"></path>
  </symbol>
   <symbol xmlns="http://www.w3.org/2000/svg" viewBox="0 0 30 30" id="telegram-2">
    <path d="M27.8309 3.0346C27.475 2.73852 27.0454 2.54447 26.588 2.47311C26.1306 2.40175 25.6624 2.45574 25.2332 2.62934L2.83207 11.6735C2.35301 11.8706 1.94522 12.2088 1.66282 12.643C1.38043 13.0773 1.23678 13.5872 1.25096 14.1051C1.26513 14.6229 1.43645 15.1242 1.74217 15.5424C2.0479 15.9605 2.47357 16.2759 2.9627 16.4465L7.49395 18.0224L10.0196 26.3745C10.0539 26.486 10.1037 26.5922 10.1675 26.6899C10.1772 26.7049 10.1909 26.7161 10.2012 26.7307C10.275 26.8336 10.3641 26.9245 10.4655 27.0004C10.4943 27.0224 10.5219 27.043 10.5528 27.0625C10.6714 27.1412 10.8028 27.1988 10.9412 27.2326L10.956 27.2339L10.9644 27.2375C11.0475 27.2544 11.1322 27.263 11.217 27.2631C11.2252 27.2631 11.2325 27.2592 11.2405 27.259C11.3686 27.2568 11.4956 27.2347 11.6169 27.1937C11.6451 27.184 11.6693 27.168 11.6967 27.1564C11.7872 27.1189 11.8729 27.0708 11.9521 27.0132C12.0155 26.9597 12.0789 26.9063 12.1423 26.8529L15.52 23.1237L20.5579 27.0263C21.0014 27.3716 21.5473 27.5593 22.1094 27.5597C22.6984 27.559 23.2692 27.3558 23.7261 26.9842C24.1831 26.6125 24.4984 26.0951 24.6192 25.5187L28.6975 5.49799C28.79 5.04739 28.7581 4.58014 28.6055 4.14622C28.4528 3.71231 28.1851 3.32807 27.8309 3.0346ZM11.7127 18.4204C11.5394 18.593 11.4209 18.813 11.3721 19.0527L10.9852 20.9327L10.0052 17.6913L15.0867 15.0452L11.7127 18.4204ZM22.0899 25.0499L16.1365 20.4381C15.8874 20.2457 15.575 20.1541 15.2614 20.1817C14.9479 20.2093 14.6562 20.354 14.4446 20.5871L13.3629 21.7811L13.7452 19.923L22.5989 11.0692C22.8102 10.8582 22.939 10.5784 22.9619 10.2806C22.9847 9.98285 22.9002 9.68672 22.7235 9.44589C22.5469 9.20505 22.2898 9.03544 21.9989 8.96778C21.708 8.90013 21.4025 8.93889 21.1377 9.07705L8.43114 15.6928L3.77569 13.9892L26.2488 4.99869L22.0899 25.0499Z"></path>
  </symbol>
</svg>
