<svg width="29" height="86" viewBox="0 0 29 86" fill="none" xmlns="http://www.w3.org/2000/svg">
<path d="M16.6768 0C17.6447 0.260326 18.633 0.462301 19.576 0.789953C25.6116 2.88827 29.5261 8.96555 28.6894 15.256C28.1331 19.4594 27.2941 23.6246 26.5637 27.8033C25.4737 34.0436 24.3754 40.284 23.2688 46.5243C22.8753 48.7506 22.5135 50.9835 22.0703 53.2008C21.3715 56.6928 18.452 59.0155 14.8135 59.0155C11.1749 59.0155 8.22149 56.6928 7.56343 53.1986C6.65887 48.4274 5.85155 43.6383 5.00805 38.8559C3.906 32.6141 2.80922 26.3737 1.71772 20.1349C1.38756 18.2385 0.96467 16.3422 0.831247 14.4279C0.378968 7.91975 5.18217 1.70559 11.5887 0.338875C12.041 0.240131 12.4933 0.114454 12.9455 0H16.6768ZM5.96235 14.0509C5.96433 14.4358 5.99001 14.8203 6.03925 15.2021C6.88953 20.0705 7.74736 24.9375 8.61272 29.8029C9.77809 36.4023 10.942 43.0017 12.1043 49.6011C12.231 50.317 12.3305 51.0352 12.4729 51.7488C12.7488 53.2053 13.5312 53.9414 14.7999 53.9459C16.0685 53.9504 16.8849 53.2367 17.145 51.7735C18.0179 46.8811 18.8681 41.9843 19.7297 37.0897C20.8333 30.821 21.9376 24.5522 23.0427 18.2834C23.3796 16.3602 23.8997 14.4414 23.5922 12.4665C22.8866 7.94444 18.7212 4.67914 14.1961 5.06066C9.42908 5.47807 5.942 9.18323 5.96235 14.0509Z" fill="#F79397"/>
<path d="M4.09677 75.3667C4.05381 69.6216 8.8932 64.8414 14.7706 64.819C17.5909 64.7998 20.3045 65.8879 22.3196 67.8461C24.3348 69.8043 25.4881 72.4738 25.528 75.2724C25.5891 81.2801 21.0052 85.966 15.0284 85.9997C8.73264 86.0445 4.142 81.5764 4.09677 75.3667ZM14.8339 80.9884C16.2989 80.9885 17.7051 80.4166 18.7486 79.3961C19.7921 78.3757 20.3891 76.9887 20.4105 75.535C20.4105 72.355 18.0179 69.9245 14.8384 69.9066C11.6589 69.8886 9.22563 72.3213 9.2211 75.4968C9.22584 76.2233 9.37482 76.9417 9.65954 77.611C9.94426 78.2802 10.3591 78.8872 10.8804 79.3973C11.4017 79.9073 12.0192 80.3103 12.6976 80.5833C13.3759 80.8564 14.1019 80.994 14.8339 80.9884Z" fill="#F79397"/>
</svg>
