<svg width="101" height="100" viewBox="0 0 101 100" fill="none" xmlns="http://www.w3.org/2000/svg">
<path d="M12.0931 56.6611H6.59944C4.5735 56.6611 3.78339 55.7262 4.05014 53.5309C4.65454 48.5349 5.30621 43.5464 5.94438 38.5579C6.13009 37.1159 6.2449 35.6511 6.52853 34.2318C7.03812 31.5815 8.3475 29.2093 10.2359 27.5152C12.1242 25.8212 14.476 24.9089 16.8946 24.9323C21.6532 24.9323 26.4131 24.9323 31.174 24.9323C36.276 24.9323 39.9733 27.8618 41.7089 33.2591C41.7798 33.4786 41.8844 33.6868 41.9891 33.9404H58.6423C59.8612 31.9117 60.7796 29.9208 62.083 28.3236C63.9705 26.0148 66.4725 24.9172 69.3156 24.9172C74.3804 24.9172 79.425 24.8945 84.4797 24.9172C89.6019 24.9437 94.1332 29.7013 94.7444 35.4165C95.3724 41.2641 96.1254 47.0929 96.9189 52.914C97.2228 55.1584 96.7568 56.8692 94.0691 56.6611C92.4011 56.5324 90.7229 56.6383 88.9266 56.6383V58.2923C88.9266 65.9883 88.9266 73.6842 88.9266 81.3801C88.9266 86.7433 85.4352 90.6228 80.627 90.6342C77.973 90.6342 75.3191 90.6342 72.6651 90.6342C71.6113 90.6322 70.5683 90.3972 69.5957 89.9425C68.6231 89.4878 67.7401 88.8225 66.9973 87.9846C66.2545 87.1467 65.6666 86.1528 65.2671 85.0597C64.8676 83.9667 64.6645 82.796 64.6694 81.6148C64.6525 76.4674 64.6694 71.3199 64.6525 66.1725C64.6367 66.044 64.6107 65.9173 64.5749 65.794H62.6401V67.3079C62.6401 75.0039 62.6401 82.6998 62.6401 90.3958C62.6401 95.7779 59.1623 99.6801 54.3777 99.6914C51.7237 99.6914 49.0697 99.6914 46.4158 99.6914C45.3619 99.6949 44.3177 99.4651 43.3433 99.0152C42.3688 98.5653 41.4831 97.9042 40.7371 97.0697C39.9911 96.2353 39.3994 95.2439 38.996 94.1525C38.5926 93.0612 38.3854 91.8912 38.3863 90.7099C38.3694 82.9206 38.3863 75.1275 38.3863 67.3382V65.7599H36.3604V67.2739C36.3604 72.0428 36.3604 76.8118 36.3604 81.5807C36.369 82.7749 36.1651 83.959 35.7605 85.0638C35.356 86.1685 34.7589 87.1717 34.0044 88.0147C33.2498 88.8578 32.3528 89.5236 31.3659 89.9734C30.379 90.4232 29.322 90.6478 28.2567 90.6342C25.5183 90.6342 22.7799 90.6342 20.0415 90.6342C17.9346 90.6173 15.9188 89.6693 14.4319 87.9961C12.9449 86.323 12.1069 84.0598 12.0998 81.6981C12.083 73.9088 12.0998 66.1157 12.0998 58.3264L12.0931 56.6611ZM34.6822 61.2029H38.9401C42.1073 61.2029 42.4213 61.5511 42.4213 65.037C42.4213 73.4344 42.4213 81.8331 42.4213 90.233C42.4213 93.2609 44.1366 95.1534 46.8412 95.195C49.1136 95.2215 51.3861 95.195 53.6619 95.195C57.0553 95.195 58.5916 93.4691 58.5916 89.6615C58.5916 81.2641 58.5916 72.8641 58.5916 64.4617C58.5916 61.7479 59.0914 61.1991 61.563 61.1954H66.3442C65.6081 55.4083 64.9936 49.7612 64.1359 44.1634C63.6429 40.9197 60.9383 38.5882 57.9535 38.5542C52.9877 38.4936 48.0196 38.4936 43.0493 38.5542C41.5823 38.5689 40.164 39.1468 39.031 40.1916C37.898 41.2364 37.1187 42.685 36.823 44.2958C36.5292 45.8098 36.3975 47.3654 36.2051 48.902C35.7053 52.9405 35.209 56.9903 34.6822 61.1954V61.2029ZM92.6442 52.1381C91.9148 46.3889 91.2936 40.7835 90.4595 35.2235C89.9429 31.8473 87.289 29.5234 84.2534 29.4856C79.2865 29.4288 74.3162 29.3947 69.3527 29.4856C66.5974 29.5423 64.6086 31.1547 63.4201 33.9707C63.0284 34.8942 63.0521 35.5035 63.9435 36.1772C66.5569 38.153 67.9953 41.0181 68.4309 44.504C69.1704 50.3744 69.8828 56.2371 70.6425 62.1189C70.9262 64.3292 70.602 65.0673 68.7112 65.9265C68.7112 71.1382 68.6673 76.3765 68.7314 81.6072C68.7618 84.2188 70.5277 86.0583 72.9082 86.1075C75.2887 86.1567 77.7063 86.1075 80.107 86.1075C83.3114 86.1075 84.8848 84.321 84.8848 80.6913C84.8848 72.0542 84.8848 63.4196 84.8848 54.7875C84.8848 52.8951 85.577 52.1381 87.2484 52.1154C88.9705 52.123 90.6925 52.1305 92.6442 52.1305V52.1381ZM8.39914 52.1381H12.9035C15.7229 52.1381 16.1348 52.5923 16.1348 55.6845C16.1348 64.1753 16.1348 72.6673 16.1348 81.1606C16.1348 84.0334 17.7319 86.0356 20.1867 86.1113C22.8879 86.1945 25.5723 86.187 28.2668 86.1113C28.7969 86.1168 29.3227 86.0041 29.8136 85.7797C30.3045 85.5553 30.7507 85.2237 31.1262 84.8042C31.5016 84.3847 31.799 83.8857 32.0008 83.3362C32.2026 82.7867 32.3049 82.1977 32.3018 81.6035C32.3626 76.3727 32.3187 71.1382 32.3187 65.9265C30.4345 65.1014 30.1003 64.3482 30.394 62.1189C31.0693 56.9487 31.802 51.7861 32.3187 46.6008C32.7576 42.1725 34.0069 38.3763 37.4747 35.7988C37.7279 35.6133 37.8123 34.8033 37.6941 34.3908C37.2597 32.9495 36.4312 31.6983 35.3261 30.815C34.2211 29.9317 32.8959 29.4612 31.5387 29.4704C26.6562 29.4401 21.7737 29.4401 16.8912 29.4704C15.4044 29.4638 13.9611 30.0326 12.8052 31.0808C11.6492 32.129 10.8514 33.5922 10.5466 35.2235C10.2461 36.7374 10.1144 38.2892 9.92534 39.8259C9.40873 43.8795 8.91576 47.9293 8.39914 52.1305V52.1381Z" fill="#F79397"/>
<path d="M24.1271 22.6614C22.8001 22.657 21.487 22.3579 20.2638 21.7812C19.0405 21.2045 17.9314 20.3618 17.0004 19.3018C16.0695 18.2417 15.3352 16.9853 14.8401 15.6052C14.3449 14.2251 14.0987 12.7487 14.1157 11.2613C14.1157 4.93301 18.6436 -0.0251904 24.377 0.00130382C27.0356 0.0263066 29.5768 1.2321 31.4435 3.35426C33.3101 5.47643 34.3498 8.34175 34.3345 11.3219C34.3423 12.8221 34.0829 14.309 33.5715 15.6954C33.0602 17.0818 32.3071 18.3399 31.3565 19.3959C30.4059 20.452 29.2768 21.2847 28.0355 21.8455C26.7941 22.4062 25.4654 22.6836 24.1271 22.6614ZM24.2453 4.54317C22.6528 4.56704 21.1303 5.28114 19.9972 6.53575C18.8641 7.79035 18.2084 9.488 18.1675 11.2727C18.1808 13.082 18.8278 14.813 19.9692 16.0924C21.1106 17.3718 22.6549 18.0972 24.269 18.112C25.8623 18.0681 27.3785 17.3339 28.4992 16.0636C29.6199 14.7932 30.2579 13.0856 30.2792 11.2992C30.2456 9.51791 29.5988 7.8202 28.4743 6.56108C27.3497 5.30195 25.8345 4.57891 24.2453 4.54317Z" fill="#F79397"/>
<path d="M86.9041 11.3977C86.9041 17.7298 82.3626 22.688 76.6292 22.6615C71.0849 22.635 66.6684 17.5368 66.6886 11.1857C66.6974 9.69835 66.9689 8.22764 67.4876 6.85856C68.0063 5.48947 68.7619 4.24916 69.7106 3.20924C70.6594 2.16933 71.7826 1.35043 73.0153 0.799836C74.248 0.249245 75.5658 -0.022122 76.8926 0.00140924C78.2196 0.00478459 79.5328 0.303144 80.7562 0.879217C81.9797 1.45529 83.089 2.29764 84.0201 3.3575C84.9512 4.41737 85.6855 5.67371 86.1805 7.05381C86.6755 8.43391 86.9215 9.91036 86.9041 11.3977ZM76.7744 4.54327C75.1824 4.58117 73.6654 5.30874 72.5417 6.57331C71.4179 7.83788 70.7748 9.54117 70.7472 11.3258C70.7472 15.0161 73.6139 18.1916 76.8926 18.1121C78.4839 18.0563 79.9941 17.3115 81.106 16.0341C82.2179 14.7567 82.845 13.0461 82.8556 11.2614C82.8184 7.62417 79.9956 4.49407 76.771 4.54327H76.7744Z" fill="#F79397"/>
<path d="M50.5251 9.06611C51.8523 9.05757 53.1678 9.34424 54.3955 9.90952C55.6232 10.4748 56.7387 11.3074 57.6773 12.3593C58.616 13.4111 59.3592 14.6611 59.8639 16.0371C60.3686 17.4131 60.6247 18.8876 60.6176 20.3753C60.6276 21.8757 60.3703 23.3631 59.8607 24.7505C59.3512 26.1379 58.5997 27.3973 57.6502 28.4549C56.7008 29.5124 55.5725 30.3469 54.3316 30.9093C53.0907 31.4717 51.7621 31.7507 50.4238 31.73C49.0966 31.7276 47.7831 31.4303 46.5591 30.8552C45.3351 30.28 44.2251 29.4386 43.2931 28.3795C42.3611 27.3204 41.6258 26.0646 41.1295 24.6849C40.6333 23.3051 40.3861 21.8288 40.4021 20.3413C40.3999 18.8538 40.6606 17.3806 41.1693 16.0068C41.6781 14.633 42.4246 13.3858 43.3659 12.3374C44.3072 11.2889 45.4246 10.46 46.6534 9.8985C47.8822 9.33702 49.1981 9.0541 50.5251 9.06611ZM50.4913 13.608C48.8996 13.6448 47.3823 14.3708 46.2575 15.6337C45.1327 16.8967 44.4876 18.5986 44.4574 20.3829C44.4795 22.1945 45.1357 23.9238 46.2846 25.1982C47.4335 26.4726 48.9831 27.1899 50.5993 27.1957C52.1911 27.1391 53.7015 26.3943 54.8143 25.1173C55.9271 23.8403 56.5559 22.1301 56.5691 20.3451C56.5455 16.6964 53.7125 13.5626 50.4913 13.608Z" fill="#F79397"/>
</svg>
