<svg width="101" height="100" viewBox="0 0 101 100" fill="none" xmlns="http://www.w3.org/2000/svg">
<path d="M1 60.9553C1.06136 60.2487 1.16107 59.5447 1.18152 58.8354C1.39457 50.9034 1.59995 42.9714 1.79767 35.0394C1.82322 33.4955 2.41483 32.0173 3.45592 30.8961C4.497 29.7749 5.91206 29.0921 7.42225 28.9822C9.86639 28.8231 11.6381 30.0252 12.8346 32.1268C14.0311 34.2285 14.3482 36.6665 14.3686 39.081C14.3942 44.5776 14.3456 50.0768 14.3277 55.5734C14.3097 56.2835 14.3448 56.9939 14.4325 57.6986C15.7696 56.254 17.2781 55.4196 19.1955 55.4978C20.6937 55.5604 22.0564 56.0663 23.0305 57.2083C26.0013 60.6815 29.3939 63.6958 32.9093 66.551C35.9772 69.0516 37.3169 72.2745 37.3399 76.1414C37.3808 83.4615 37.3697 90.7799 37.3067 98.0965C37.3067 98.7327 36.7212 99.3612 36.4093 99.9922H18.4132C17.6692 99.4159 17.4493 98.6519 17.4621 97.708C17.503 94.5581 17.4621 91.4057 17.4954 88.2558C17.5155 87.9074 17.4591 87.5587 17.3304 87.2353C17.2017 86.9119 17.0039 86.6218 16.7514 86.3862C12.6761 82.2742 8.58551 78.1778 4.60996 73.9641C3.46715 72.7516 2.63113 71.2158 1.77466 69.753C1.36815 69.0594 1.24799 68.1885 1.00767 67.4063L1 60.9553ZM34.2362 96.8241C34.2362 96.3964 34.2362 96.0131 34.2362 95.6324C34.249 90.1358 34.272 84.6418 34.2694 79.1452C34.2694 77.7163 34.2285 76.277 34.1211 74.8611C33.9728 72.9655 33.3848 71.2315 31.9326 69.9329C28.1258 66.5275 24.1324 63.3281 20.7909 59.4039C20.4191 58.9901 19.9174 58.7216 19.3723 58.6445C18.8273 58.5673 18.2729 58.6865 17.8047 58.9814C17.3526 59.2345 16.9986 59.6372 16.8011 60.1231C16.6035 60.609 16.5743 61.149 16.7181 61.6541C16.9255 62.2613 17.2706 62.8099 17.7255 63.2551C20.9928 66.6449 24.2986 69.9799 27.5838 73.3409C28.425 74.2014 28.5017 75.1375 27.8241 75.8285C27.1466 76.5195 26.2646 76.4621 25.3979 75.5808C22.0104 72.1363 18.6126 68.7048 15.2558 65.2316C12.5278 62.4077 11.0399 59.1118 11.1447 55.0102C11.293 49.1955 11.2444 43.3704 11.1166 37.5556C11.0885 36.1893 10.5516 34.7708 9.98911 33.4984C9.42665 32.2259 8.31963 31.9339 7.08478 32.2676C6.50654 32.4055 5.9875 32.7303 5.60508 33.1937C5.22266 33.657 4.99736 34.234 4.96277 34.8386C4.90908 35.8138 4.85795 36.7864 4.83239 37.7616C4.57672 46.6662 4.36964 55.5734 4.0654 64.4754C3.96569 67.4245 4.84517 69.8469 6.91604 71.9198C11.1933 76.204 15.3938 80.5663 19.6557 84.8635C19.9804 85.17 20.2355 85.5451 20.4033 85.9626C20.5711 86.3801 20.6475 86.8299 20.6272 87.2806C20.5889 90.1071 20.6119 92.9363 20.6272 95.7654C20.6272 96.1096 20.6605 96.4538 20.6809 96.8214L34.2362 96.8241Z" fill="#F79397"/>
<path d="M63.576 99.9922C62.809 99.4211 62.6199 98.6519 62.625 97.708C62.648 90.7825 62.6096 83.8544 62.648 76.9289C62.6571 75.5333 62.7949 74.1417 63.0596 72.7725C63.5019 70.5014 64.7009 68.6657 66.4318 67.1455C69.1111 64.7988 71.7521 62.3921 74.3803 59.9749C75.1202 59.2585 75.8209 58.5012 76.4793 57.7064C79.0027 54.8016 82.6152 54.7182 85.2383 57.5187C85.374 57.6341 85.5157 57.7421 85.6628 57.842C85.6628 56.9763 85.6628 56.2775 85.6628 55.5839C85.6423 50.1212 85.6065 44.6585 85.6142 39.1932C85.6142 37.0394 85.8698 34.9169 86.7442 32.9195C87.6876 30.7579 89.2062 29.2403 91.5839 29.0083C93.8849 28.7762 95.8126 29.7436 97.0858 31.6783C97.7046 32.6162 98.0673 33.7052 98.1365 34.8334C98.474 44.841 98.6836 54.8538 98.993 64.864C99.108 68.5823 97.8042 71.6096 95.2322 74.191C91.1646 78.2717 87.1584 82.4203 83.1087 86.5218C82.9011 86.7152 82.7379 86.9528 82.6305 87.2178C82.5231 87.4828 82.4743 87.7686 82.4874 88.0551C82.5155 91.2414 82.4746 94.4278 82.5181 97.6141C82.5181 98.5867 82.3468 99.3977 81.567 100L63.576 99.9922ZM79.3632 96.8162V95.7159C79.3632 92.8476 79.3811 89.9794 79.3632 87.132C79.3475 86.7291 79.4175 86.3275 79.5684 85.9548C79.7194 85.5821 79.9476 85.2471 80.2376 84.973C84.4279 80.7384 88.5338 76.4178 92.7778 72.2406C95.1325 69.9199 96.1015 67.2524 95.9097 63.9357C95.6694 59.9801 95.6541 56.0089 95.5467 52.0455C95.3762 46.3577 95.2058 40.6707 95.0353 34.9846C94.9893 33.5453 94.1405 32.5545 92.7778 32.2442C91.4995 31.9521 90.3976 32.4032 89.8352 33.7852C89.3443 34.9925 88.9045 36.3223 88.8815 37.6052C88.7767 43.4251 88.7205 49.2477 88.8636 55.0624C88.9633 59.1275 87.4831 62.3999 84.773 65.1977C81.4213 68.6761 78.021 72.1076 74.636 75.5521C73.7565 76.4465 72.9154 76.5429 72.2047 75.8598C71.4939 75.1766 71.5655 74.2092 72.4603 73.3044C75.6493 70.0346 78.8442 66.7735 82.0451 63.5211C82.2701 63.2916 82.5053 63.0674 82.7073 62.8171C83.643 61.6541 83.5663 60.1626 82.5309 59.2422C82.2879 59.0286 82.0058 58.8663 81.7008 58.7646C81.3959 58.6629 81.0742 58.6239 80.7545 58.6499C80.4347 58.6758 80.1231 58.7662 79.8378 58.9157C79.5524 59.0653 79.299 59.2711 79.0922 59.5212C75.9782 63.1717 72.3427 66.2407 68.72 69.3202C67.1707 70.637 66.1991 72.2354 65.9307 74.251C65.7884 75.375 65.7183 76.5073 65.721 77.6407C65.721 83.6901 65.7415 89.7369 65.7568 95.7863C65.7568 96.1305 65.785 96.4773 65.8003 96.8293L79.3632 96.8162Z" fill="#F79397"/>
<path d="M45.8407 24.5912C40.6329 21.0267 38.7895 15.9864 39.2446 9.91095C39.5131 6.30478 40.9908 3.3557 44.1533 1.48352C48.6223 -1.16309 55.198 -0.161816 58.3631 3.63731C60.0223 5.62683 60.7024 8.0179 60.8149 10.5628C61.0015 14.7635 60.007 18.6461 57.2535 21.8663C56.3715 22.9093 55.2465 23.7229 54.2674 24.6094C56.2462 24.9406 58.3401 25.2404 60.4033 25.6524C63.3306 26.2261 66.1582 27.097 68.5615 29.003C70.9647 30.9091 72.2174 33.3185 72.1919 36.4657C72.1433 42.6455 72.1919 48.8279 72.1433 55.0076C72.1292 55.3164 72.054 55.619 71.9222 55.8973C71.7904 56.1756 71.6047 56.4237 71.3763 56.6269C70.3869 57.3726 69.1265 56.5252 69.1188 55.1745C69.1009 51.9542 69.1188 48.7314 69.1188 45.5111C69.1188 42.5203 69.106 39.5269 69.1188 36.5335C69.1316 34.3458 68.2317 32.6562 66.5162 31.3837C64.3456 29.7723 61.8068 29.1543 59.24 28.6432C51.8258 27.1648 44.478 27.3134 37.23 29.5532C35.9309 29.9814 34.693 30.5829 33.5484 31.342C31.6898 32.5336 30.8231 34.338 30.8307 36.6065C30.8538 42.6246 30.8307 48.6427 30.8307 54.6608C30.8307 54.9216 30.8461 55.1823 30.8307 55.4431C30.8057 55.8364 30.6316 56.2043 30.3453 56.4691C30.0591 56.7338 29.683 56.8746 29.2968 56.8615C29.1051 56.8699 28.9137 56.8392 28.7338 56.7712C28.5539 56.7031 28.3891 56.5992 28.2491 56.4654C28.1091 56.3316 27.9967 56.1706 27.9184 55.9919C27.8402 55.8133 27.7977 55.6205 27.7935 55.4248C27.7526 54.1576 27.7781 52.8877 27.7781 51.6205C27.7781 46.6089 27.8318 41.5999 27.7602 36.5909C27.7091 33.0681 29.2175 30.4893 31.9863 28.565C34.543 26.7867 37.4754 26.0383 40.4564 25.4621C42.241 25.1127 44.0306 24.878 45.8407 24.5912ZM57.7086 11.5928C57.7904 6.59682 55.5917 3.78854 50.9514 3.26183C47.2392 2.84202 43.6216 4.30483 42.6705 8.30473C41.6811 12.4767 42.3074 16.388 44.997 19.7777C47.7607 23.2587 52.2578 23.1961 55.0369 19.7256C56.9288 17.3684 57.6907 14.6018 57.7086 11.5928Z" fill="#F79397"/>
<path d="M40.2417 47.8761C40.2417 50.2463 40.2417 52.6192 40.2417 54.992C40.2417 56.181 39.7048 56.8303 38.7537 56.8511C37.7541 56.8746 37.1763 56.2045 37.1763 54.9815C37.1763 50.2672 37.1763 45.5537 37.1763 40.8411C37.1763 39.7146 37.7669 38.9819 38.6719 38.9507C39.577 38.9194 40.2366 39.6651 40.2417 40.8541C40.2468 43.1957 40.2417 45.5294 40.2417 47.8761Z" fill="#F79397"/>
<path d="M59.7385 47.8761C59.7385 45.5294 59.7385 43.1826 59.7385 40.8567C59.7385 39.6573 60.3547 38.9167 61.2955 38.9428C62.198 38.9689 62.8014 39.7042 62.8039 40.8254C62.8039 45.5381 62.8039 50.2507 62.8039 54.9633C62.8039 56.1914 62.2313 56.8615 61.2342 56.8433C60.2805 56.8277 59.7437 56.1784 59.7385 54.9946C59.7309 52.6322 59.7385 50.2594 59.7385 47.8761Z" fill="#F79397"/>
</svg>
