<svg width="100" height="100" viewBox="0 0 100 100" fill="none" xmlns="http://www.w3.org/2000/svg">
<path d="M3.90688 97.3555C2.08002 96.7178 0.649841 95.7133 0.161807 93.8273C0.062449 93.4411 0.0107804 93.0454 0.00782942 92.648C-0.00260981 88.9942 -0.00260981 85.3397 0.00782942 81.6843C0.00782942 78.9489 2.15831 76.9128 5.06041 76.9054C10.1391 76.9054 15.2178 76.8808 20.2965 76.9054C21.8335 76.9366 23.3277 76.4266 24.4878 75.4749C27.57 73.0375 30.8453 70.8782 34.7887 69.8515C40.405 68.3891 45.8726 68.7018 51.0296 71.4002C52.786 72.321 54.5998 72.0797 56.4188 72.1388C55.996 71.0949 55.6176 70.0978 55.1792 69.1252C55.0391 68.895 54.824 68.7137 54.5659 68.6082C52.5928 67.6677 51.6637 66.124 51.635 64.0804C51.6089 62.2388 51.6168 60.3873 51.635 58.5531C51.635 58.0606 51.5463 57.7381 51.0061 57.4697C49.2079 56.5735 48.2553 55.0717 48.3258 53.1906C48.4276 50.4577 47.2819 48.4191 45.194 46.5676C38.8392 40.9418 36.0441 33.9101 36.7852 25.7532C37.8161 14.4424 46.9974 5.24159 58.8955 3.34824C73.4713 1.02896 87.4338 10.5449 89.6652 24.4286C91.0614 33.1345 88.1723 40.5429 81.4599 46.5873C79.3877 48.4511 78.2525 50.5267 78.3282 53.235C78.3908 55.4508 77.0989 56.8961 75.0085 57.839C75.0085 59.9367 75.0085 62.0541 75.0085 64.1715C75.0215 66.22 74.0298 67.6652 72.1377 68.6279C71.8379 68.8048 71.6008 69.0619 71.4565 69.3665C71.0233 70.2529 70.6527 71.1638 70.2169 72.1561C72.2786 72.4023 74.0977 73.2345 75.46 74.9037L85.004 67.3772C86.228 66.412 87.4755 65.474 88.6578 64.4768C93.0005 60.8428 98.9013 63.3566 99.8408 67.6504C99.8591 67.7317 99.9452 67.7982 100 67.872V70.2701C99.478 72.1142 98.1992 73.4708 96.8108 74.788C90.3733 80.9186 83.9584 87.0738 77.5661 93.2536C75.7392 95.0214 73.928 96.7424 71.2843 97.3678L3.90688 97.3555ZM37.5421 94.2114C48.1553 94.2114 58.7685 94.2114 69.3817 94.2114C70.8798 94.2114 72.2108 93.8273 73.2756 92.8055C80.7448 85.6507 88.2071 78.4902 95.6625 71.3239C96.2871 70.7475 96.6486 69.9639 96.67 69.1399C96.6915 68.3158 96.3712 67.5164 95.7773 66.9118C94.5716 65.6808 92.5986 65.5749 91.1162 66.7346C86.4864 70.362 81.8697 74.0059 77.266 77.6662C76.9758 77.9272 76.7912 78.2755 76.744 78.651C76.3186 82.4943 73.6409 84.8062 69.5253 84.8062H52.5354C50.7895 84.8062 50.0091 84.2966 50.0274 83.1714C50.0457 82.0462 50.7712 81.6006 52.4989 81.6006C58.0665 81.6006 63.6341 81.6006 69.2017 81.6006C69.6577 81.6081 70.1138 81.5859 70.5666 81.5341C71.1059 81.4602 71.6162 81.2575 72.0492 80.9453C72.4822 80.6331 72.8235 80.2217 73.0407 79.7502C73.2579 79.2787 73.3439 78.7627 73.2905 78.251C73.237 77.7394 73.0459 77.2491 72.7353 76.8266C71.9524 75.7852 70.8772 75.3765 69.5435 75.3814C64.5301 75.4011 59.5167 75.3814 54.5058 75.3814C52.7467 75.3919 51.013 74.9855 49.4637 74.1996C44.0614 71.5208 38.5025 71.4691 33.0637 73.9238C30.7148 74.9825 28.627 76.5632 26.5261 78.0552C24.6992 79.3503 22.7914 80.0741 20.5079 80.0569C15.6249 80.0199 10.742 80.0569 5.85902 80.0569C3.82076 80.0569 3.35099 80.5074 3.35099 82.4648V91.8601C3.35099 93.7362 3.85208 94.2114 5.82509 94.2114H37.5421ZM63.3609 54.8525H72.537C74.5518 54.8525 75.0059 54.4192 75.0215 52.548C75.0122 51.966 75.0488 51.3842 75.1311 50.8073C75.5487 48.3182 76.8484 46.3067 78.8057 44.5955C84.8083 39.3365 87.5016 32.8563 86.3742 25.1451C84.5813 12.9725 72.4978 4.56698 59.6602 6.46032C48.9078 8.0459 40.6086 16.6435 40.0866 26.8956C39.7421 33.8091 42.2711 39.7231 47.7099 44.4084C50.4058 46.7277 51.7838 49.5 51.7447 52.9272C51.729 54.37 52.2483 54.8402 53.8038 54.8452C56.9747 54.8599 60.1717 54.8525 63.3609 54.8525ZM71.681 58.1419H55.0722C55.0722 60.2864 55.0461 62.3693 55.0722 64.4522C55.0878 65.3336 55.7481 65.8507 56.7685 65.8531C61.1321 65.8663 65.494 65.8663 69.8541 65.8531C70.9711 65.8531 71.634 65.2721 71.6549 64.2158C71.7097 62.224 71.681 60.2297 71.681 58.1419ZM58.8198 69.1351C59.4853 71.0678 61.3461 72.2028 63.6141 72.1364C65.561 72.0773 67.3826 70.8044 67.855 69.1351H58.8198Z" fill="#F79397"/>
<path d="M68.3691 39.1322C68.9511 39.1322 69.4131 39.1322 69.8541 39.1322C71.7801 39.1642 73.166 40.2623 73.3434 42.0621C73.4543 43.2547 73.4543 44.4542 73.3434 45.6469C73.1868 47.4466 71.8532 48.6161 69.9037 48.6358C65.514 48.6777 61.1217 48.6851 56.7294 48.6358C54.6233 48.6087 53.3366 47.2447 53.3366 45.2505C53.3366 44.3296 53.3366 43.4088 53.3366 42.488C53.3497 40.479 54.7407 39.1642 56.8781 39.1371C57.327 39.1371 57.7733 39.1371 58.2666 39.1371V32.8613C57.6141 32.8613 57.006 32.8859 56.4032 32.8613C55.5977 32.8194 54.8378 32.4953 54.2724 31.9524C53.7071 31.4095 53.3771 30.687 53.3471 29.9265C53.3053 28.7594 53.3105 27.5924 53.3471 26.4278C53.3634 25.6366 53.7063 24.8826 54.3029 24.3262C54.8995 23.7698 55.7026 23.455 56.5415 23.4487C59.3079 23.4192 62.0717 23.4266 64.8381 23.4487C66.999 23.4487 68.3639 24.7487 68.3691 26.7824C68.3691 30.5247 68.3691 34.2679 68.3691 38.0119V39.1322ZM56.732 45.3489H69.9272V42.3403C69.019 42.3403 68.1499 42.3403 67.2782 42.3403C65.5166 42.3403 65.0129 41.8479 65.0103 40.1958C65.0103 36.0201 65.0103 31.8436 65.0103 27.6663V26.647H56.7581V29.7246H59.4697C61.1347 29.7246 61.7141 30.2564 61.7167 31.8001C61.7167 34.6249 61.7167 37.4498 61.7167 40.2746C61.7167 41.7642 61.1269 42.3181 59.5375 42.3403C58.6032 42.3526 57.6689 42.3403 56.732 42.3403V45.3489Z" fill="#F79397"/>
<path d="M68.3691 15.6809C68.6823 19.1278 67.1112 20.605 63.4575 20.3219C62.8102 20.2702 62.1526 20.3219 61.5079 20.3071C59.9055 20.2382 58.5432 19.1327 58.4127 17.6308C58.3031 16.2869 58.3031 14.937 58.4127 13.593C58.4567 12.8948 58.7706 12.2361 59.2948 11.7415C59.8191 11.247 60.5173 10.9509 61.2574 10.9093C62.6173 10.8068 63.9834 10.8002 65.3444 10.8896C67.1399 11.0103 68.343 12.3201 68.3796 14.0239C68.377 14.5778 68.3665 15.1294 68.3691 15.6809ZM64.9764 14.0903H61.8081V17.0695H64.9764V14.0903Z" fill="#F79397"/>
</svg>
