<svg width="32" height="39" viewBox="0 0 32 39" fill="none" xmlns="http://www.w3.org/2000/svg">
<path d="M27.3304 5.61898C24.328 2.63711 20.2559 0.961914 16.0098 0.961914C11.7637 0.961914 7.69158 2.63711 4.68916 5.61898C1.68674 8.60085 3.16356e-08 12.6451 0 16.8621C-3.16356e-08 21.0791 1.68674 25.1234 4.68916 28.1053L14.6325 37.9993C14.8079 38.1749 15.0165 38.3143 15.2465 38.4094C15.4764 38.5046 15.723 38.5536 15.9721 38.5536C16.2211 38.5536 16.4678 38.5046 16.6977 38.4094C16.9276 38.3143 17.1363 38.1749 17.3117 37.9993L27.3304 28.0116C30.3203 25.0421 32 21.0147 32 16.8153C32 12.6159 30.3203 8.58845 27.3304 5.61898ZM24.6323 25.332L16.0098 33.933L7.38725 25.332C5.68376 23.6386 4.52402 21.4817 4.05463 19.1338C3.58524 16.7859 3.82726 14.3526 4.75011 12.1413C5.67296 9.93001 7.2352 8.0401 9.23936 6.71046C11.2435 5.38082 13.5996 4.67115 16.0098 4.67115C18.42 4.67115 20.7761 5.38082 22.7802 6.71046C24.7844 8.0401 26.3466 9.93001 27.2695 12.1413C28.1923 14.3526 28.4344 16.7859 27.965 19.1338C27.4956 21.4817 26.3358 23.6386 24.6323 25.332ZM10.3495 11.1094C8.82632 12.6268 7.971 14.682 7.971 16.8247C7.971 18.9673 8.82632 21.0225 10.3495 22.5399C11.4811 23.6657 12.9223 24.4346 14.4922 24.75C16.0621 25.0654 17.6908 24.9133 19.1741 24.3129C20.6573 23.7125 21.9289 22.6904 22.8295 21.3749C23.7301 20.0594 24.2194 18.509 24.2361 16.9184C24.2446 15.8563 24.0386 14.8033 23.6303 13.8216C23.222 12.8399 22.6196 11.9495 21.8588 11.2031C21.111 10.4434 20.2193 9.83805 19.2351 9.42192C18.2508 9.00578 17.1934 8.78707 16.1238 8.77836C15.0541 8.76966 13.9932 8.97112 13.0022 9.37118C12.0112 9.77123 11.1097 10.362 10.3495 11.1094ZM19.1984 19.8791C18.4834 20.6 17.5385 21.0519 16.5251 21.1575C15.5118 21.2631 14.493 21.0158 13.6429 20.4579C12.7928 19.9001 12.1642 19.0663 11.8646 18.099C11.565 17.1318 11.613 16.0913 12.0003 15.1553C12.3877 14.2194 13.0904 13.4461 13.9883 12.9678C14.8862 12.4894 15.9235 12.3357 16.9229 12.5328C17.9223 12.73 18.8217 13.2658 19.4673 14.0486C20.113 14.8314 20.4648 15.8127 20.4626 16.8247C20.4351 17.9813 19.9465 19.0799 19.1041 19.8791H19.1984Z" fill="#F79397"/>
</svg>
