<svg width="35" height="28" viewBox="0 0 35 28" fill="none" xmlns="http://www.w3.org/2000/svg">
<path d="M29.75 0.139648H5.25C3.85761 0.139648 2.52226 0.686828 1.53769 1.66081C0.553124 2.6348 0 3.95581 0 5.33323V22.6452C0 24.0226 0.553124 25.3436 1.53769 26.3176C2.52226 27.2916 3.85761 27.8388 5.25 27.8388H29.75C31.1424 27.8388 32.4777 27.2916 33.4623 26.3176C34.4469 25.3436 35 24.0226 35 22.6452V5.33323C35 3.95581 34.4469 2.6348 33.4623 1.66081C32.4777 0.686828 31.1424 0.139648 29.75 0.139648ZM29.0325 3.60204L18.7425 13.7815C18.5798 13.9437 18.3863 14.0725 18.173 14.1604C17.9598 14.2483 17.731 14.2935 17.5 14.2935C17.269 14.2935 17.0402 14.2483 16.827 14.1604C16.6137 14.0725 16.4202 13.9437 16.2575 13.7815L5.9675 3.60204H29.0325ZM31.5 22.6452C31.5 23.1043 31.3156 23.5447 30.9874 23.8693C30.6593 24.194 30.2141 24.3764 29.75 24.3764H5.25C4.78587 24.3764 4.34075 24.194 4.01256 23.8693C3.68437 23.5447 3.5 23.1043 3.5 22.6452V6.04302L13.79 16.2224C14.7744 17.195 16.1087 17.7413 17.5 17.7413C18.8913 17.7413 20.2256 17.195 21.21 16.2224L31.5 6.04302V22.6452Z" fill="#F79397"/>
</svg>
