<svg width="30" height="30" viewBox="0 0 30 30" fill="none" xmlns="http://www.w3.org/2000/svg">
<g clip-path="url(#clip0_4040_1057)">
<path d="M29.4001 15.0001C29.4001 22.953 22.953 29.4001 15.0001 29.4001C7.0472 29.4001 0.600098 22.953 0.600098 15.0001C0.600098 7.0472 7.0472 0.600098 15.0001 0.600098C22.953 0.600098 29.4001 7.0472 29.4001 15.0001Z" fill="#F79397" stroke="white"/>
<path d="M15 4.59982C17.9 4.59982 20.3 6.99982 20.3 9.99982C20.3 12.9998 17.9 15.3998 14.9 15.3998C12 15.3998 9.5 13.0998 9.5 9.99982C9.6 6.79982 12.2 4.49982 15 4.59982Z" fill="white"/>
<path d="M17.3999 19.8999C18.2999 20.7999 19.2999 21.6999 20.1999 22.6999C20.5999 23.0999 20.7999 23.6999 20.5999 24.2999C20.3999 24.8999 19.9999 25.2999 19.3999 25.3999C18.7999 25.4999 18.2999 25.2999 17.8999 24.8999C16.9999 23.9999 16.0999 23.0999 15.1999 22.1999C15.0999 22.0999 15.0999 22.0999 14.9999 21.9999H14.8999C14.8999 22.0999 14.7999 22.1999 14.6999 22.1999C13.7999 23.0999 12.8999 23.9999 11.9999 24.8999C11.4999 25.3999 10.9999 25.4999 10.3999 25.2999C9.79995 25.0999 9.39995 24.6999 9.29995 23.9999C9.19995 23.4999 9.39995 22.9999 9.79995 22.6999C10.6999 21.7999 11.5999 20.8999 12.5999 19.8999C12.6999 19.7999 12.6999 19.7999 12.7999 19.6999C12.6999 19.6999 12.5999 19.5999 12.4999 19.5999C11.4999 19.2999 10.5999 18.8999 9.69995 18.3999C8.99995 17.9999 8.69995 16.9999 9.19995 16.2999C9.69995 15.4999 10.5999 15.2999 11.3999 15.7999C13.7999 17.1999 16.1999 17.1999 18.5999 15.7999C19.3999 15.2999 20.3999 15.4999 20.7999 16.2999C21.2999 17.0999 20.9999 17.9999 20.1999 18.4999C19.2999 19.0999 18.2999 19.4999 17.1999 19.6999L17.0999 19.7999C17.1999 19.7999 17.2999 19.8999 17.3999 19.8999Z" fill="white"/>
<path d="M14.9998 12.1998C16.1998 12.1998 17.1998 11.1998 17.1998 9.9998C17.1998 8.7998 16.1998 7.7998 14.9998 7.7998C13.7998 7.7998 12.7998 8.7998 12.7998 9.9998C12.7998 11.1998 13.7998 12.1998 14.9998 12.1998Z" fill="#F79397"/>
</g>
<defs>
<clipPath id="clip0_4040_1057">
<rect width="30" height="30" fill="white"/>
</clipPath>
</defs>
</svg>
