<svg width="30" height="30" viewBox="0 0 30 30" fill="none" xmlns="http://www.w3.org/2000/svg">
<g clip-path="url(#clip0_4040_1055)">
<path d="M0.5 15C0.5 6.99187 6.99187 0.5 15 0.5C23.0082 0.5 29.5 6.99187 29.5 15C29.5 23.0082 23.0082 29.5 15 29.5C6.99187 29.5 0.5 23.0082 0.5 15Z" fill="white" stroke="white"/>
<path fill-rule="evenodd" clip-rule="evenodd" d="M1 15C1 7.27586 7.27586 1 15 1C22.7242 1 29 7.27586 29 15C29 22.7242 22.7242 29 15 29C7.27586 29 1 22.7242 1 15ZM19.7424 22.2414L22.8945 7.50305C22.9513 7.19067 22.639 6.90669 22.3266 7.07708L5.00406 13.6653C4.66329 13.7789 4.66329 14.3469 5.00406 14.4888L9.43408 16.3063L11.0811 21.503C11.1947 21.7586 11.5355 21.8722 11.7626 21.6734L14.2901 19.3164L19.1177 22.5254C19.3449 22.6673 19.6856 22.5254 19.7424 22.2414ZM11.8754 17.2714L11.6198 19.9407L10.2568 15.8231L19.7131 9.63242L11.8754 17.2714Z" fill="#F79397"/>
</g>
<defs>
<clipPath id="clip0_4040_1055">
<rect width="30" height="30" fill="white"/>
</clipPath>
</defs>
</svg>
