<svg width="101" height="100" viewBox="0 0 101 100" fill="none" xmlns="http://www.w3.org/2000/svg">
<path d="M22.7224 20.9161C16.139 16.1436 16.4461 8.01164 20.5862 3.55941C21.6135 2.45364 22.8487 1.56888 24.2186 0.957626C25.5884 0.346375 27.0651 0.0210736 28.5609 0.000990368C30.0567 -0.0190929 31.5412 0.266454 32.9265 0.840715C34.3117 1.41498 35.5695 2.26625 36.6251 3.34405C40.8314 7.63477 41.4906 15.9471 34.5657 21.0211C38.5364 20.6792 41.8797 21.6483 44.5956 24.4935C44.8445 24.3481 45.0721 24.2243 45.2812 24.0897C61.1137 13.3818 82.0763 21.6133 86.632 40.3697C87.8598 45.3818 87.6196 50.6495 85.9411 55.5245C85.7214 56.1867 85.7664 56.6013 86.28 57.1046C87.6935 58.4667 89.0515 59.8853 90.4227 61.2958C91.4233 62.3294 91.426 63.1127 90.4015 64.1464C89.9595 64.5932 89.4512 64.9701 88.9456 65.4007L99.5818 76.1464L97.0432 78.4156L86.8253 68.001L81.306 73.6323L91.733 84.1303L89.4115 86.4614L78.8627 75.608C78.2697 76.3294 77.8647 76.9082 77.375 77.4008C76.5041 78.2756 75.6756 78.2595 74.7888 77.3739C73.3302 75.9149 71.9087 74.4129 70.4263 72.9781C70.2806 72.8459 70.1081 72.7477 69.9211 72.6905C69.734 72.6333 69.5369 72.6185 69.3436 72.6471C59.3004 75.9041 50.2852 74.0486 42.2979 67.0804C42.2503 67.0374 42.1868 67.0104 41.9273 66.8489C42.0385 68.351 42.1285 69.7211 42.2424 71.0858C42.6103 75.4304 42.9941 79.7722 43.3621 84.1168C43.6427 87.4573 43.9921 90.7978 44.1562 94.1437C44.214 95.5515 43.7489 96.9298 42.8535 98.005C41.958 99.0801 40.6976 99.7735 39.3226 99.9473C37.8835 100.148 36.4242 99.7716 35.253 98.8981C34.0818 98.0246 33.2904 96.7222 33.0462 95.2662C32.7259 93.4897 32.5168 91.6888 32.2812 89.8961C31.5859 84.7189 30.8923 79.5408 30.2006 74.3617C29.7806 71.2393 29.3552 68.1195 28.9246 65.0024C28.9121 64.8959 28.8732 64.7944 28.8116 64.7073C28.7501 64.6202 28.6678 64.5504 28.5726 64.5044C28.4164 65.5165 28.247 66.5259 28.1093 67.5407C27.3275 73.3155 26.5511 79.0912 25.7799 84.8678C25.3087 88.3672 24.909 91.8503 24.3372 95.3174C23.8369 98.3618 21.1368 100.286 18.1244 99.9473C16.7315 99.7817 15.4527 99.0833 14.5476 97.994C13.6426 96.9047 13.179 95.506 13.251 94.0818C13.4495 90.3968 13.799 86.7225 14.1113 83.0455C14.4687 78.8355 14.7758 74.6175 15.2443 70.4209C16.1814 62.0252 16.0384 53.5999 16.0225 45.1773C16.0421 44.8116 15.9899 44.4456 15.869 44.1006C15.7287 44.3993 15.5752 44.6901 15.4508 44.9915C14.3072 47.7722 13.2113 50.5743 12.0095 53.3361C11.0592 55.5138 8.98648 56.6416 6.61731 56.4424C5.53908 56.3425 4.52061 55.8943 3.71089 55.1634C2.90117 54.4325 2.3427 53.4573 2.11719 52.3805C1.90248 51.27 1.98383 50.1213 2.35278 49.0535C5.04756 41.9687 7.7741 34.8892 10.6674 27.8852C12.5204 23.3737 16.0649 21.1045 20.9012 20.9942C21.3962 20.9942 21.8912 20.9942 22.3862 20.9942C22.4998 20.9751 22.612 20.949 22.7224 20.9161ZM42.1047 26.6173C41.3943 25.8528 40.5367 25.2454 39.5853 24.8327C38.6339 24.4201 37.6091 24.2111 36.5748 24.2189C31.2806 24.1705 26.0075 24.1274 20.7265 24.2324C17.4891 24.2943 14.9611 25.8879 13.709 28.9484C10.8262 35.9929 8.09705 43.1046 5.3361 50.2002C5.16937 50.6658 5.13722 51.1702 5.24345 51.6537C5.46051 52.6093 6.18053 53.0938 7.09643 53.1961C8.01234 53.2984 8.80383 52.6981 9.25649 51.5945C11.4624 46.2217 13.6622 40.8453 15.8558 35.4653C16.3852 34.1624 16.9993 33.7075 17.9311 33.8933C18.81 34.0682 19.1832 34.7169 19.1832 36.0871C19.1832 44.3419 19.1832 52.5968 19.1832 60.8516C19.1832 61.4896 19.1435 62.1275 19.0906 62.7628C18.7959 66.2693 18.495 69.7767 18.1879 73.285C17.8226 77.5596 17.4555 81.8351 17.0867 86.1114C16.8617 88.7521 16.5996 91.3874 16.4249 94.0307C16.3689 94.6762 16.5658 95.318 16.9728 95.8166C17.3798 96.3152 17.964 96.6301 18.5982 96.6929C19.7974 96.8517 20.9515 95.9553 21.1977 94.6041C21.4015 93.487 21.5418 92.3564 21.6927 91.2259C22.3845 86.0827 23.0727 80.9378 23.7575 75.7911C24.3416 71.4429 24.9319 67.0966 25.5284 62.752C25.6607 61.7749 26.2219 61.2688 27.1987 61.2662C28.1755 61.2635 29.1788 61.2662 30.1688 61.2662C31.1588 61.2662 31.72 61.7453 31.8683 62.7224C32.043 63.8799 32.2018 65.0427 32.358 66.2029C33.0533 71.3819 33.7468 76.56 34.4386 81.7373C35.0051 85.9526 35.5557 90.1707 36.1619 94.3887C36.3843 95.9257 37.5066 96.8544 38.772 96.709C40.1855 96.5475 41.1041 95.3631 40.9744 93.775C40.6541 89.7642 40.2941 85.7561 39.9499 81.748C39.5026 76.5367 39.1055 71.32 38.5787 66.1168C38.4172 64.5259 38.5628 62.9081 37.6443 61.363C32.2574 52.3159 31.998 43.0292 36.739 33.6214C38.0758 30.9807 39.9155 28.7035 42.1047 26.6173ZM60.444 22.5796C47.391 22.5608 36.6781 33.398 36.6331 46.6685C36.5881 59.9391 47.2719 70.8947 60.3752 70.9378C73.3911 70.9808 84.1437 60.1006 84.1861 46.8435C84.2284 33.5433 73.5261 22.6066 60.444 22.5877V22.5796ZM36.6251 11.3602C36.6351 9.76454 36.1789 8.20178 35.3142 6.87012C34.4496 5.53845 33.2156 4.49787 31.7686 3.88032C30.3217 3.26277 28.727 3.09607 27.1867 3.40136C25.6465 3.70664 24.23 4.47014 23.1171 5.59508C22.0041 6.72001 21.2447 8.1557 20.9352 9.72008C20.6257 11.2845 20.78 12.907 21.3786 14.3821C21.9772 15.8572 22.993 17.1183 24.2973 18.0055C25.6017 18.8928 27.1357 19.3661 28.7049 19.3656C32.9695 19.3872 36.5881 15.729 36.6251 11.3602ZM76.0038 73.9445L87.0397 62.7251C86.1291 61.7964 85.1629 60.8058 84.1702 59.7883C81.6413 64.5161 77.8191 68.3973 73.1661 70.962L76.0038 73.9445Z" fill="#F79397"/>
<path d="M100 0.103127V3.17985H85.8299V0.103127H100Z" fill="#F79397"/>
<path d="M99.9921 6.53922V9.64016H85.8538V6.53922H99.9921Z" fill="#F79397"/>
<path d="M99.955 16.1193H85.8511V12.9753H99.955V16.1193Z" fill="#F79397"/>
<path d="M82.5184 3.22293H79.5086V0.0896718H82.5184V3.22293Z" fill="#F79397"/>
<path d="M79.5139 6.49076H82.5263V9.62401H79.5139V6.49076Z" fill="#F79397"/>
<path d="M82.5528 12.9753V16.0655H79.4954V12.9753H82.5528Z" fill="#F79397"/>
<path d="M39.7779 46.7762C39.7779 35.1315 48.9846 25.8206 60.5181 25.8152C71.8399 25.8152 81.0228 35.2122 81.0148 46.8112C81.0148 58.3294 71.8134 67.7211 60.5393 67.7238C49.0031 67.7211 39.7832 58.4209 39.7779 46.7762ZM42.9677 46.7547C42.9858 51.4541 44.8304 55.9556 48.0993 59.2776C51.3681 62.5996 55.7961 64.4726 60.4175 64.4882C69.9657 64.5044 77.8886 56.4344 77.8436 46.7224C77.8038 37.0588 69.9683 29.0507 60.5366 29.0372C50.8587 29.0265 42.9703 36.9807 42.9677 46.7547Z" fill="#F79397"/>
<path d="M55.6553 51.6026C54.0988 51.6026 52.6535 51.6026 51.2082 51.6026C49.8449 51.6026 49.3181 51.0642 49.3155 49.6403C49.3155 47.7291 49.3155 45.817 49.3155 43.9041C49.3155 42.4505 49.8449 41.939 51.3008 41.9364H55.6553C55.6553 40.3617 55.6553 38.8623 55.6553 37.3603C55.6553 36.0332 56.2033 35.476 57.5295 35.476C59.4443 35.476 61.3581 35.476 63.2711 35.476C64.6317 35.476 65.1532 36.0144 65.1585 37.441C65.1638 38.8677 65.1585 40.3239 65.1585 41.9229H69.3939C71.0298 41.9229 71.4904 42.3966 71.4904 44.0763C71.4904 45.8565 71.4904 47.6358 71.4904 49.4142C71.4904 51.1315 71.0325 51.5837 69.3066 51.5864L65.4444 51.6026C65.3431 51.6245 65.2445 51.6579 65.1506 51.7022C65.1506 53.1261 65.1506 54.5905 65.1506 56.0548C65.1506 57.5191 64.6211 58.0279 63.1732 58.0333H57.638C56.1503 58.0333 55.658 57.5138 55.6553 55.9606C55.6527 54.5689 55.6553 53.1611 55.6553 51.6026ZM68.3139 45.1423C66.7574 45.1423 65.2803 45.1423 63.8138 45.1423C62.567 45.1423 62.0164 44.5716 62.0084 43.2957C62.0084 41.7937 62.0084 40.2943 62.0084 38.76H58.8319C58.8319 40.2593 58.8319 41.6968 58.8319 43.1315C58.8319 44.6093 58.3183 45.1396 56.8862 45.145C55.4541 45.1504 54.0062 45.145 52.5635 45.145V48.3751H56.881C58.3183 48.3751 58.8292 48.9135 58.8319 50.3778C58.8345 51.8422 58.8319 53.3038 58.8319 54.7412H61.9555C61.9754 54.6525 61.9895 54.5626 61.9978 54.472C61.9978 53.1638 61.9978 51.8547 61.9978 50.5447C61.9978 48.8543 62.4532 48.3913 64.0917 48.3913H68.3271L68.3139 45.1423Z" fill="#F79397"/>
</svg>
