<svg width="30" height="30" viewBox="0 0 30 30" fill="none" xmlns="http://www.w3.org/2000/svg">
<path d="M20.6 2.75C21.0509 2.75 21.4833 2.93437 21.8021 3.26256C22.1209 3.59075 22.3 4.03587 22.3 4.5V25.5C22.3 25.9641 22.1209 26.4092 21.8021 26.7374C21.4833 27.0656 21.0509 27.25 20.6 27.25H10.4C9.94913 27.25 9.51673 27.0656 9.19792 26.7374C8.87911 26.4092 8.7 25.9641 8.7 25.5V4.5C8.7 4.03587 8.87911 3.59075 9.19792 3.26256C9.51673 2.93437 9.94913 2.75 10.4 2.75H20.6ZM10.4 1C9.49826 1 8.63346 1.36875 7.99584 2.02513C7.35821 2.6815 7 3.57174 7 4.5V25.5C7 26.4283 7.35821 27.3185 7.99584 27.9749C8.63346 28.6313 9.49826 29 10.4 29H20.6C21.5017 29 22.3665 28.6313 23.0042 27.9749C23.6418 27.3185 24 26.4283 24 25.5V4.5C24 3.57174 23.6418 2.6815 23.0042 2.02513C22.3665 1.36875 21.5017 1 20.6 1H10.4Z" fill="#2D73DC"/>
<path d="M15.5 25C15.8978 25 16.2794 24.842 16.5607 24.5607C16.842 24.2794 17 23.8978 17 23.5C17 23.1022 16.842 22.7206 16.5607 22.4393C16.2794 22.158 15.8978 22 15.5 22C15.1022 22 14.7206 22.158 14.4393 22.4393C14.158 22.7206 14 23.1022 14 23.5C14 23.8978 14.158 24.2794 14.4393 24.5607C14.7206 24.842 15.1022 25 15.5 25Z" fill="#2D73DC"/>
</svg>
