<svg width="30" height="30" viewBox="0 0 30 30" fill="none" xmlns="http://www.w3.org/2000/svg">
<path d="M9.84375 16.875C10.2167 16.875 10.5744 16.7268 10.8381 16.4631C11.1018 16.1994 11.25 15.8417 11.25 15.4688C11.25 15.0958 11.1018 14.7381 10.8381 14.4744C10.5744 14.2107 10.2167 14.0625 9.84375 14.0625C9.47079 14.0625 9.1131 14.2107 8.84938 14.4744C8.58566 14.7381 8.4375 15.0958 8.4375 15.4688C8.4375 15.8417 8.58566 16.1994 8.84938 16.4631C9.1131 16.7268 9.47079 16.875 9.84375 16.875ZM11.25 20.1562C11.25 20.5292 11.1018 20.8869 10.8381 21.1506C10.5744 21.4143 10.2167 21.5625 9.84375 21.5625C9.47079 21.5625 9.1131 21.4143 8.84938 21.1506C8.58566 20.8869 8.4375 20.5292 8.4375 20.1562C8.4375 19.7833 8.58566 19.4256 8.84938 19.1619C9.1131 18.8982 9.47079 18.75 9.84375 18.75C10.2167 18.75 10.5744 18.8982 10.8381 19.1619C11.1018 19.4256 11.25 19.7833 11.25 20.1562ZM15 21.5625C15.373 21.5625 15.7306 21.4143 15.9944 21.1506C16.2581 20.8869 16.4062 20.5292 16.4062 20.1562C16.4062 19.7833 16.2581 19.4256 15.9944 19.1619C15.7306 18.8982 15.373 18.75 15 18.75C14.627 18.75 14.2694 18.8982 14.0056 19.1619C13.7419 19.4256 13.5938 19.7833 13.5938 20.1562C13.5938 20.5292 13.7419 20.8869 14.0056 21.1506C14.2694 21.4143 14.627 21.5625 15 21.5625ZM16.4062 15.4688C16.4062 15.8417 16.2581 16.1994 15.9944 16.4631C15.7306 16.7268 15.373 16.875 15 16.875C14.627 16.875 14.2694 16.7268 14.0056 16.4631C13.7419 16.1994 13.5938 15.8417 13.5938 15.4688C13.5938 15.0958 13.7419 14.7381 14.0056 14.4744C14.2694 14.2107 14.627 14.0625 15 14.0625C15.373 14.0625 15.7306 14.2107 15.9944 14.4744C16.2581 14.7381 16.4062 15.0958 16.4062 15.4688ZM20.1562 16.875C20.5292 16.875 20.8869 16.7268 21.1506 16.4631C21.4143 16.1994 21.5625 15.8417 21.5625 15.4688C21.5625 15.0958 21.4143 14.7381 21.1506 14.4744C20.8869 14.2107 20.5292 14.0625 20.1562 14.0625C19.7833 14.0625 19.4256 14.2107 19.1619 14.4744C18.8982 14.7381 18.75 15.0958 18.75 15.4688C18.75 15.8417 18.8982 16.1994 19.1619 16.4631C19.4256 16.7268 19.7833 16.875 20.1562 16.875ZM3.75 8.4375C3.75 7.1943 4.24386 6.00201 5.12294 5.12294C6.00201 4.24386 7.1943 3.75 8.4375 3.75H21.5625C22.8057 3.75 23.998 4.24386 24.8771 5.12294C25.7561 6.00201 26.25 7.1943 26.25 8.4375V21.5625C26.25 22.8057 25.7561 23.998 24.8771 24.8771C23.998 25.7561 22.8057 26.25 21.5625 26.25H8.4375C7.1943 26.25 6.00201 25.7561 5.12294 24.8771C4.24386 23.998 3.75 22.8057 3.75 21.5625V8.4375ZM8.4375 5.625C7.69158 5.625 6.97621 5.92132 6.44876 6.44876C5.92132 6.97621 5.625 7.69158 5.625 8.4375V9.375H24.375V8.4375C24.375 7.69158 24.0787 6.97621 23.5512 6.44876C23.0238 5.92132 22.3084 5.625 21.5625 5.625H8.4375ZM5.625 21.5625C5.625 22.3084 5.92132 23.0238 6.44876 23.5512C6.97621 24.0787 7.69158 24.375 8.4375 24.375H21.5625C22.3084 24.375 23.0238 24.0787 23.5512 23.5512C24.0787 23.0238 24.375 22.3084 24.375 21.5625V11.25H5.625V21.5625Z" fill="#2D73DC"/>
</svg>
