<svg width="20" height="20" viewBox="0 0 20 20" fill="none" xmlns="http://www.w3.org/2000/svg">
<path d="M15.8346 3.33325H4.16797C3.50493 3.33325 2.86904 3.59664 2.4002 4.06549C1.93136 4.53433 1.66797 5.17021 1.66797 5.83325V14.1666C1.66797 14.8296 1.93136 15.4655 2.4002 15.9344C2.86904 16.4032 3.50493 16.6666 4.16797 16.6666H15.8346C16.4977 16.6666 17.1336 16.4032 17.6024 15.9344C18.0712 15.4655 18.3346 14.8296 18.3346 14.1666V5.83325C18.3346 5.17021 18.0712 4.53433 17.6024 4.06549C17.1336 3.59664 16.4977 3.33325 15.8346 3.33325ZM15.493 4.99992L10.593 9.89992C10.5155 9.97803 10.4233 10.04 10.3218 10.0823C10.2202 10.1246 10.1113 10.1464 10.0013 10.1464C9.89129 10.1464 9.78237 10.1246 9.68082 10.0823C9.57927 10.04 9.4871 9.97803 9.40964 9.89992L4.50964 4.99992H15.493ZM16.668 14.1666C16.668 14.3876 16.5802 14.5996 16.4239 14.7558C16.2676 14.9121 16.0556 14.9999 15.8346 14.9999H4.16797C3.94695 14.9999 3.73499 14.9121 3.57871 14.7558C3.42243 14.5996 3.33464 14.3876 3.33464 14.1666V6.17492L8.23464 11.0749C8.70339 11.5431 9.3388 11.8061 10.0013 11.8061C10.6638 11.8061 11.2992 11.5431 11.768 11.0749L16.668 6.17492V14.1666Z" fill="#132C50"/>
</svg>
