<svg width="20" height="20" viewBox="0 0 20 20" fill="none" xmlns="http://www.w3.org/2000/svg">
<path d="M12.9592 7.49988C13.0629 7.53939 13.1731 7.55917 13.2841 7.55821H16.6175C16.8385 7.55821 17.0505 7.47042 17.2067 7.31414C17.363 7.15786 17.4508 6.94589 17.4508 6.72488C17.4508 6.50387 17.363 6.2919 17.2067 6.13562C17.0505 5.97934 16.8385 5.89155 16.6175 5.89155H15.2925L18.0341 3.14988C18.1214 3.07517 18.1922 2.98324 18.2423 2.87986C18.2923 2.77647 18.3204 2.66386 18.3248 2.54909C18.3292 2.43433 18.3099 2.31988 18.268 2.21294C18.2261 2.10601 18.1626 2.00888 18.0814 1.92767C18.0001 1.84646 17.903 1.78291 17.7961 1.74102C17.6891 1.69912 17.5747 1.67978 17.4599 1.68421C17.3452 1.68865 17.2326 1.71676 17.1292 1.76678C17.0258 1.81679 16.9339 1.88765 16.8591 1.97488L14.1175 4.70821V3.38321C14.1175 3.1622 14.0297 2.95024 13.8734 2.79396C13.7171 2.63768 13.5052 2.54988 13.2841 2.54988C13.0631 2.54988 12.8512 2.63768 12.6949 2.79396C12.5386 2.95024 12.4508 3.1622 12.4508 3.38321V6.71655C12.4499 6.82757 12.4696 6.93779 12.5091 7.04155C12.5501 7.14391 12.611 7.23714 12.6882 7.31581C12.7655 7.39449 12.8576 7.45705 12.9592 7.49988ZM16.2008 10.8332C16.0175 10.8332 15.8258 10.7749 15.6425 10.7332C15.2712 10.6514 14.9064 10.5428 14.5508 10.4082C14.1642 10.2676 13.7393 10.2749 13.3577 10.4287C12.9762 10.5826 12.6651 10.8721 12.4841 11.2415L12.3008 11.6165C11.4892 11.165 10.7433 10.6042 10.0842 9.94988C9.42979 9.29073 8.869 8.54488 8.41748 7.73321L8.76748 7.49988C9.13695 7.31898 9.42647 7.00782 9.58031 6.62629C9.73415 6.24476 9.74146 5.81981 9.60082 5.43321C9.4685 5.0769 9.35993 4.71221 9.27582 4.34155C9.23415 4.15821 9.20082 3.96655 9.17582 3.77488C9.07462 3.1879 8.76717 2.65633 8.30883 2.27591C7.8505 1.89549 7.2714 1.69122 6.67582 1.69988H4.17582C3.81668 1.69651 3.46102 1.77056 3.13307 1.91699C2.80512 2.06342 2.51257 2.27879 2.27534 2.54845C2.03811 2.8181 1.86176 3.13571 1.75831 3.47964C1.65485 3.82358 1.62672 4.18576 1.67582 4.54155C2.11976 8.0327 3.71417 11.2764 6.20719 13.7604C8.70021 16.2444 11.9497 17.827 15.4425 18.2582H15.7591C16.3737 18.2591 16.967 18.0337 17.4258 17.6249C17.6895 17.3891 17.9001 17.1 18.0437 16.7768C18.1874 16.4536 18.2608 16.1036 18.2591 15.7499V13.2499C18.2489 12.671 18.0382 12.1137 17.6628 11.6729C17.2874 11.2322 16.7707 10.9354 16.2008 10.8332ZM16.6175 15.8332C16.6173 15.9515 16.592 16.0685 16.5431 16.1762C16.4943 16.284 16.423 16.3801 16.3342 16.4582C16.241 16.5386 16.1322 16.5987 16.0145 16.6345C15.8968 16.6704 15.7729 16.6813 15.6508 16.6665C12.5299 16.2664 9.63101 14.8386 7.41141 12.6085C5.19181 10.3783 3.77782 7.47266 3.39248 4.34988C3.37922 4.22781 3.39084 4.10432 3.42665 3.98687C3.46246 3.86942 3.52171 3.76045 3.60082 3.66655C3.67891 3.57766 3.77503 3.50641 3.8828 3.45756C3.99056 3.40871 4.1075 3.38336 4.22582 3.38321H6.72582C6.9196 3.3789 7.10884 3.44228 7.26094 3.56244C7.41304 3.6826 7.51849 3.85202 7.55915 4.04155C7.59248 4.26932 7.63415 4.49432 7.68415 4.71655C7.78042 5.15583 7.90853 5.58753 8.06748 6.00821L6.90082 6.54988C6.80106 6.59565 6.71133 6.66067 6.63678 6.74121C6.56223 6.82175 6.50432 6.91623 6.46638 7.01921C6.42843 7.12219 6.41121 7.23166 6.41569 7.34132C6.42017 7.45097 6.44627 7.55867 6.49248 7.65821C7.69182 10.2272 9.75685 12.2922 12.3258 13.4915C12.5287 13.5749 12.7563 13.5749 12.9592 13.4915C13.0631 13.4544 13.1586 13.3969 13.2401 13.3225C13.3217 13.2481 13.3876 13.1583 13.4342 13.0582L13.9508 11.8915C14.3816 12.0456 14.8213 12.1736 15.2675 12.2749C15.4897 12.3249 15.7147 12.3665 15.9425 12.3999C16.132 12.4405 16.3014 12.546 16.4216 12.6981C16.5417 12.8502 16.6051 13.0394 16.6008 13.2332L16.6175 15.8332Z" fill="#2D73DC"/>
</svg>
