<?xml version="1.0" encoding="utf-8"?>
<!-- Generator: Adobe Illustrator 23.1.0, SVG Export Plug-In . SVG Version: 6.00 Build 0)  -->
<svg version="1.1" id="Layer_1" xmlns="http://www.w3.org/2000/svg" xmlns:xlink="http://www.w3.org/1999/xlink" x="0px" y="0px"
	 viewBox="0 0 490 354" style="enable-background:new 0 0 490 354;" xml:space="preserve">
<style type="text/css">
	.st0{fill:#50D75D;}
	.st1{fill:#EFEF14;}
</style>
<polygon class="st0" points="197.1,0 183.9,95.3 183.1,95.3 162,0 95.5,0 75.4,94.2 74.7,94.2 61.7,0 0,0 37.3,158.2 107.5,158.2 
	127.3,71 128.1,71 146.8,158.2 217,158.2 254.6,0 "/>
<path class="st1" d="M137.7,310.1c16.1-8.1,30.5-18.9,42.8-32.1c11.8-12.9,17.8-26.9,17.8-41.7l0,0c0.1-6.6-1.3-13.3-4.1-19.3
	c-2.8-6-7.1-11.3-12.3-15.4c-10.9-9-28.3-13.6-51.7-13.6c-12.5-0.2-24.7,1.9-36.5,6.2C83,198,73.7,204.7,66.7,213.6
	c-6.4,8.2-10.1,18.6-11,31l-0.2,2.7h59.3l-0.1-2.6c-0.1-4.8,0.7-8.6,2.5-11.2c0.9-1.4,2.2-2.6,3.7-3.4c1.5-0.8,3.2-1.2,4.9-1.1
	l0.1,0l0.1,0c1.4,0,2.7,0.2,4,0.7c1.3,0.5,2.5,1.2,3.5,2.2c1,1.1,1.8,2.4,2.3,3.8c0.5,1.4,0.7,2.8,0.6,4.3l0,0.1
	c0,10.4-7.3,21.6-21.6,33.5c-14,11.7-33.2,24.9-57.1,39.3l-1.2,0.7v36.8h142.6V311h-61.2L137.7,310.1z"/>
<polygon class="st0" points="432.5,195.8 419.3,291 418.5,291.1 397.4,195.8 330.9,195.8 310.9,289.9 310.1,289.9 297.2,195.8 
	235.4,195.8 272.3,352.1 272.7,354 342.9,354 362.7,266.7 363.6,266.7 382.2,354 452.4,354 490,195.8 "/>
</svg>
