<?xml version="1.0" encoding="utf-8"?>
<!-- Generator: Adobe Illustrator 23.1.0, SVG Export Plug-In . SVG Version: 6.00 Build 0)  -->
<svg version="1.1" id="Layer_1" xmlns="http://www.w3.org/2000/svg" xmlns:xlink="http://www.w3.org/1999/xlink" x="0px" y="0px"
	 viewBox="0 0 490.6 354" style="enable-background:new 0 0 490.6 354;" xml:space="preserve">
<style type="text/css">
	.st0{fill:#FBFBFB;}
	.st1{fill:#EFEF14;}
</style>
<path class="st0" d="M254.9,0l-37.7,158.2H147L127.9,69l-20.2,89.2H37.4L0,0h61.8l13.3,96.2L95.6,0h66.6l21.6,97.4L197.3,0H254.9z"
	/>
<path class="st0" d="M490.6,195.8L453,354h-70.3l-19.1-89.2L343.4,354h-70.3l-37.4-158.2h61.8l13.3,96.2l20.5-96.2H398l21.6,97.3
	l13.5-97.3H490.6z"/>
<path id="num-2" class="st1" d="M115,273.6c14.4-12,21.6-23.2,21.6-33.6c0.1-1.5-0.1-3-0.6-4.4c-0.5-1.4-1.3-2.7-2.3-3.8
	c-1-1-2.2-1.7-3.5-2.2c-1.3-0.5-2.7-0.7-4.1-0.7c-1.7,0-3.4,0.3-4.9,1.1c-1.5,0.8-2.8,2-3.8,3.4c-2.1,3-2.9,7.6-2.4,13.8H55.6
	c0.5-13.7,4.3-24.9,11.2-33.7c7-8.9,16.3-15.6,26.9-19.4c11.7-4.2,24.1-6.3,36.5-6.2c23.6,0,40.8,4.5,51.8,13.6
	c5.2,4.1,9.4,9.4,12.3,15.4c2.9,6,4.3,12.6,4.1,19.3c0,14.8-5.9,28.7-17.8,41.7c-12.7,13.6-27.8,24.8-44.6,32.9h63.3v39.4H56.6
	v-36.8C81.2,298.9,100.7,285.6,115,273.6z"/>
</svg>
