<svg viewBox="0 0 60 60" fill="none" xmlns="http://www.w3.org/2000/svg">
<path d="M30 60C46.5685 60 60 46.5685 60 30C60 13.4315 46.5685 0 30 0C13.4315 0 0 13.4315 0 30C0 46.5685 13.4315 60 30 60Z" fill="#50D75D"/>
<path d="M20.1946 37.6992C21.3632 36.7257 21.9475 35.8146 21.9475 34.9661C21.9555 34.8452 21.9386 34.7241 21.898 34.61C21.8575 34.4959 21.794 34.3913 21.7115 34.3027C21.6297 34.2241 21.5328 34.1629 21.4266 34.1228C21.3205 34.0827 21.2073 34.0646 21.094 34.0694C20.9547 34.0653 20.8168 34.0969 20.6931 34.1611C20.5695 34.2253 20.4643 34.3199 20.3874 34.4361C20.2148 34.6815 20.151 35.0551 20.196 35.5566H15.3715C15.4155 34.4456 15.7185 33.5314 16.2803 32.8141C16.8471 32.0931 17.6055 31.5463 18.4687 31.2365C19.4194 30.8927 20.4242 30.7228 21.4351 30.7349C23.3498 30.7349 24.7526 31.1025 25.6434 31.8378C26.069 32.1733 26.411 32.6028 26.6426 33.0927C26.8742 33.5826 26.9891 34.1195 26.9783 34.6613C26.9783 35.8677 26.496 36.9999 25.5315 38.0579C24.4984 39.1666 23.2697 40.0753 21.9071 40.7384H27.0471V43.9476H15.451V40.9529C17.4475 39.7582 19.0287 38.6736 20.1946 37.6992Z" fill="#EFEF14"/>
<path d="M31.5587 15.4308L28.4993 28.3078H22.7916L21.2396 21.0481L19.5959 28.3078H13.8883L10.8517 15.4308H15.8744L16.9531 23.2622L18.6197 15.4308H24.0307L25.7836 23.3539L26.8799 15.4308H31.5587Z" fill="white"/>
<path d="M50.7083 31.3619L47.6489 44.2388H41.9412L40.3892 36.9778L38.7456 44.2388H33.0365L30 31.3619H35.0227L36.1014 39.1932L37.768 31.3619H43.179L44.9319 39.2836L46.0281 31.3619H50.7083Z" fill="white"/>
</svg>
