<svg width="138" height="20" viewBox="0 0 126 16" fill="none" xmlns="http://www.w3.org/2000/svg">
									<path fill-rule="evenodd" clip-rule="evenodd" d="M0 0.736328V15.3197H5.80095C7.54154 15.3064 8.85339 14.9425 9.73688 14.228C10.6267 13.5068 11.0716 12.4317 11.0716 11.0028C11.0716 10.2149 10.872 9.54717 10.4728 8.99962C10.0736 8.452 9.50109 8.07807 8.75534 7.87776C9.41605 7.62404 9.91681 7.23007 10.257 6.69588C10.5972 6.16172 10.7673 5.51732 10.7673 4.76278C10.7673 3.45401 10.2865 2.45575 9.32432 1.76798C8.36917 1.08021 6.9722 0.736328 5.13341 0.736328H0ZM3.44516 12.6154V9.11977H5.85961C7.04394 9.12644 7.63643 9.73744 7.63643 10.9527C7.63643 11.4802 7.46951 11.8909 7.13567 12.1847C6.80212 12.4719 6.32421 12.6154 5.70268 12.6154H3.44516ZM5.24131 6.81609H3.44516V3.45067H5.13341C5.90562 3.45067 6.46511 3.58756 6.8116 3.86133C7.15845 4.12843 7.33206 4.56914 7.33206 5.18348C7.33206 5.71764 7.17183 6.12162 6.851 6.39539C6.53046 6.66919 5.99382 6.80941 5.24131 6.81609ZM17.4261 9.13979H22.844V6.52561H17.4261V3.45067H23.8453V0.736328H13.9807V15.3197H23.8256V12.6154H17.4261V9.13979ZM29.3188 15.3197H25.7282L30.9694 0.736328H34.2084L35.3562 3.90648C35.1355 4.02396 34.9388 4.14528 34.7658 4.26736C30.9423 7.22236 29.5412 12.6829 29.3188 15.0438V15.3197ZM31.8163 15.3197H39.0662C38.8624 14.0736 38.2668 11.6591 37.4718 11.7446C36.9745 11.798 36.6158 11.9841 36.2257 12.1864C35.8303 12.3915 35.4026 12.6134 34.7658 12.7308C34.6839 12.7458 34.6014 12.7603 34.5181 12.7749C33.3186 12.9858 32.0068 13.2164 31.8163 15.3197ZM41.645 9.75296V15.3197H45.09V10.1714H46.9554L49.4773 15.3197H53.1678V15.1695L50.1836 9.29001C51.0414 8.87603 51.6698 8.33516 52.0689 7.66747C52.4739 6.9997 52.6775 6.15834 52.6775 5.14339C52.6775 3.74116 52.1998 2.65607 51.2442 1.88817C50.2887 1.12027 48.9635 0.736328 47.2685 0.736328H41.645V2.82984C43.0571 2.9036 44.6681 3.14021 46.4858 3.60391C46.9841 3.29909 47.9374 3.00502 47.7684 4.26736C48.302 4.73072 48.5364 4.89791 49.037 5.25552L49.0686 5.27844C49.1303 5.32201 49.2068 5.36408 49.2862 5.4074C49.6625 5.61367 50.0917 5.84825 49.1039 6.40809C48.3593 6.8304 47.7919 6.85854 46.9422 6.90076C46.4292 6.92622 45.8132 6.95681 44.9922 7.0825C44.6776 7.14669 42.2509 7.97255 41.645 9.75296Z" fill="#FFFFFF"></path>
									<path fill-rule="evenodd" clip-rule="evenodd" d="M63.1491 12.4947H69.1138V15.1249H59.7227V0.940931H63.1491V12.4947ZM81.1238 11.9978C81.6379 10.9327 81.8952 9.70849 81.8952 8.32514V7.67246C81.8885 6.30859 81.6215 5.10067 81.0944 4.04855C80.574 2.98994 79.8418 2.17489 78.8981 1.60339C77.9544 1.03189 76.8807 0.746102 75.6766 0.746102C74.4596 0.746102 73.373 1.0351 72.4163 1.61309C71.466 2.19108 70.7341 3.01263 70.2199 4.07773C69.7121 5.13634 69.4584 6.3606 69.4584 7.75036V8.54922C69.4845 9.88705 69.7579 11.0723 70.2784 12.1049C70.8054 13.1376 71.5376 13.9331 72.4747 14.4917C73.4121 15.0437 74.4858 15.3197 75.6962 15.3197C76.9066 15.3197 77.9837 15.034 78.9275 14.4625C79.8774 13.8844 80.6097 13.0629 81.1238 11.9978ZM77.6975 4.52588C78.1725 5.25326 78.4101 6.32164 78.4101 7.73088V8.38364C78.4036 9.76042 78.1658 10.8158 77.6975 11.5497C77.2288 12.2836 76.5619 12.6505 75.6962 12.6505C74.785 12.6505 74.0985 12.2771 73.6365 11.5301C73.1744 10.7834 72.9434 9.71498 72.9434 8.32514L72.9532 7.2828C73.0507 4.71101 73.9587 3.42504 75.6766 3.42504C76.5553 3.42504 77.2288 3.79201 77.6975 4.52588ZM94.8983 13.3714C94.3712 13.9558 93.5998 14.4267 92.5848 14.7839C91.5694 15.1411 90.4566 15.3197 89.2462 15.3197C87.3847 15.3197 85.8979 14.7515 84.785 13.6149C83.6722 12.4784 83.0766 10.8969 82.9986 8.87068L82.9888 7.64321C82.9888 6.24688 83.236 5.02918 83.7305 3.99013C84.2254 2.9445 84.9314 2.14236 85.8489 1.58384C86.7731 1.01883 87.8404 0.736328 89.0508 0.736328C90.8212 0.736328 92.194 1.14225 93.1702 1.9541C94.1531 2.75938 94.726 3.96409 94.8885 5.56823H91.589C91.4719 4.77593 91.2178 4.21085 90.8274 3.8732C90.437 3.53548 89.8838 3.36662 89.168 3.36662C88.3088 3.36662 87.6451 3.73031 87.1767 4.45768C86.708 5.18506 86.4703 6.2242 86.4641 7.57501V8.43229C86.4641 9.8481 86.7049 10.9132 87.1865 11.6276C87.6744 12.3355 88.4392 12.6895 89.4804 12.6895C90.372 12.6895 91.0357 12.4914 91.4719 12.0952V9.89362H89.09V7.54583H94.8983V13.3714ZM97.1239 15.1249H100.54V0.940931H97.1239V15.1249ZM113.922 10.3222C113.876 11.3093 113.61 12.1829 113.122 12.9427C112.634 13.6961 111.947 14.2806 111.062 14.6963C110.183 15.1119 109.178 15.3197 108.046 15.3197C106.178 15.3197 104.707 14.7125 103.633 13.498C102.559 12.2836 102.022 10.569 102.022 8.35439V7.65298C102.022 6.26315 102.263 5.04866 102.745 4.00953C103.233 2.9639 103.932 2.15862 104.844 1.59362C105.755 1.02212 106.809 0.736328 108.006 0.736328C109.731 0.736328 111.117 1.19098 112.165 2.1002C113.213 3.00293 113.808 4.24987 113.952 5.84103H110.535C110.509 4.97725 110.291 4.35702 109.881 3.98035C109.47 3.60368 108.846 3.41534 108.006 3.41534C107.154 3.41534 106.529 3.73359 106.132 4.37001C105.736 5.0065 105.527 6.02287 105.508 7.41913V8.42259C105.508 9.93578 105.696 11.0171 106.073 11.6666C106.457 12.316 107.115 12.6408 108.046 12.6408C108.833 12.6408 109.435 12.4556 109.851 12.0854C110.268 11.7153 110.489 11.1275 110.515 10.3222H113.922ZM122.037 10.1858C122.395 10.4651 122.574 10.8548 122.574 11.3549C122.574 11.7965 122.408 12.1407 122.076 12.3875C121.751 12.6278 121.305 12.7479 120.738 12.7479C119.854 12.7479 119.213 12.5693 118.816 12.2121C118.425 11.8484 118.23 11.2867 118.23 10.5268H114.794C114.794 11.462 115.028 12.2901 115.497 13.0109C115.971 13.7253 116.675 14.2903 117.605 14.706C118.542 15.1152 119.586 15.3197 120.738 15.3197C122.372 15.3197 123.657 14.9658 124.595 14.2579C125.532 13.55 126 12.5758 126 11.3354C126 9.78318 125.233 8.56541 123.697 7.68216C123.065 7.31847 122.258 6.98082 121.276 6.66907C120.293 6.35082 119.606 6.04556 119.216 5.75335C118.825 5.45458 118.63 5.12335 118.63 4.75966C118.63 4.34404 118.806 4.00304 119.157 3.7368C119.515 3.46407 120 3.32759 120.612 3.32759C121.217 3.32759 121.695 3.48675 122.047 3.805C122.405 4.12325 122.583 4.57133 122.583 5.14932H126C126 4.28561 125.776 3.51921 125.327 2.85033C124.877 2.17489 124.247 1.65532 123.433 1.29164C122.626 0.927946 121.711 0.746102 120.689 0.746102C119.643 0.746102 118.699 0.914963 117.859 1.25261C117.02 1.58384 116.368 2.05147 115.906 2.65543C115.451 3.25297 115.224 3.94461 115.224 4.73041C115.224 6.30859 116.144 7.54904 117.986 8.45184C118.552 8.73107 119.281 9.02006 120.173 9.31883C121.064 9.61753 121.686 9.9066 122.037 10.1858Z" fill="#FFFFFF"></path>
							</svg>
