<svg width="178" height="53" viewBox="0 0 178 53" fill="none" xmlns="http://www.w3.org/2000/svg">
<g clip-path="url(#clip0_1106_8885)">
<path d="M34.8594 52.4939C34.2812 52.1883 33.7973 51.7159 33.4641 51.1318C33.1309 50.5477 32.9621 49.8759 32.9774 49.1946C32.9617 48.5142 33.1305 47.8433 33.4638 47.2604C33.7971 46.6775 34.2812 46.2067 34.8594 45.9033C35.4799 45.5715 36.1676 45.4035 36.8633 45.4136C37.5327 45.4002 38.194 45.5688 38.7834 45.9033C39.3182 46.2087 39.7397 46.6951 39.9797 47.284L38.4177 48.1751C38.2736 47.8673 38.0497 47.609 37.7719 47.4299C37.494 47.2509 37.1737 47.1586 36.8481 47.1636C36.6059 47.156 36.3648 47.2005 36.1394 47.2943C35.9141 47.3882 35.7093 47.5294 35.5375 47.7095C35.3605 47.9074 35.2233 48.141 35.1343 48.3962C35.0453 48.6514 35.0062 48.923 35.0194 49.1946C35.0069 49.4673 35.0463 49.7399 35.1353 49.9963C35.2242 50.2527 35.361 50.4878 35.5375 50.6877C35.7093 50.8677 35.9141 51.009 36.1394 51.1028C36.3648 51.1967 36.6059 51.2412 36.8481 51.2336C37.1743 51.2415 37.4958 51.1504 37.7741 50.971C38.0524 50.7917 38.2759 50.5317 38.4177 50.2221L39.9797 51.1212C39.7325 51.701 39.3125 52.1802 38.7834 52.4859C38.1954 52.8241 37.5331 52.993 36.8633 52.9755C36.1682 52.9884 35.4804 52.8231 34.8594 52.4939Z" fill="white"/>
<path d="M42.3951 52.4939C41.8297 52.1876 41.3572 51.7204 41.0312 51.1452C40.6973 50.5561 40.5258 49.8806 40.536 49.1946C40.5278 48.5087 40.6992 47.8338 41.0312 47.2439C41.3598 46.6731 41.8319 46.2091 42.3951 45.9033C43.0077 45.5723 43.6878 45.4042 44.3762 45.4136C45.0597 45.4042 45.7349 45.5724 46.342 45.9033C46.9052 46.2136 47.3749 46.6835 47.6983 47.2599C48.0337 47.8484 48.2053 48.5243 48.1936 49.2106C48.2074 49.8972 48.0357 50.5737 47.6983 51.1613C47.3754 51.7361 46.9054 52.2035 46.342 52.5099C45.7343 52.8384 45.0591 53.0038 44.3762 52.9916C43.6872 52.9985 43.007 52.8276 42.3951 52.4939ZM45.6487 50.6797C45.9696 50.2601 46.1447 49.7375 46.1447 49.1986C46.1447 48.6597 45.9696 48.137 45.6487 47.7175C45.4859 47.5355 45.2883 47.392 45.0689 47.2965C44.8495 47.201 44.6134 47.1557 44.3762 47.1636C44.1367 47.156 43.8984 47.2014 43.6766 47.2968C43.4548 47.3922 43.2545 47.5355 43.0885 47.7175C42.7635 48.1351 42.5859 48.6585 42.5859 49.1986C42.5859 49.7386 42.7635 50.262 43.0885 50.6797C43.2545 50.8616 43.4548 51.005 43.6766 51.1004C43.8984 51.1958 44.1367 51.2412 44.3762 51.2336C44.6134 51.2414 44.8495 51.1961 45.0689 51.1006C45.2883 51.0051 45.4859 50.8616 45.6487 50.6797Z" fill="white"/>
<path d="M60.5448 46.2324C60.8161 46.5612 61.0231 46.9431 61.1539 47.3564C61.2846 47.7697 61.3366 48.2061 61.3068 48.6406V52.8792H59.2876V49.0019C59.3211 48.537 59.1998 48.0744 58.9447 47.6934C58.8228 47.55 58.6719 47.4373 58.5031 47.3637C58.3343 47.29 58.1519 47.2573 57.9694 47.2679C57.7595 47.2566 57.5498 47.2939 57.3549 47.3771C57.1601 47.4603 56.985 47.5874 56.8418 47.7496C56.5337 48.1581 56.3839 48.6744 56.4227 49.1946V52.8792H54.4035V49.0019C54.4035 47.8459 53.9616 47.2679 53.0853 47.2679C52.8766 47.2578 52.6684 47.2957 52.4749 47.3788C52.2815 47.462 52.1076 47.5885 51.9653 47.7496C51.6632 48.1611 51.5166 48.6759 51.5538 49.1946V52.8792H49.527V45.534H51.4547V46.3769C51.7168 46.0679 52.0427 45.8262 52.4072 45.6704C52.7993 45.5034 53.2186 45.4188 53.6415 45.4216C54.1056 45.4148 54.5647 45.522 54.9826 45.7347C55.3738 45.9306 55.7041 46.2396 55.935 46.6257C56.2245 46.2436 56.5951 45.9384 57.017 45.7347C57.4677 45.5234 57.9562 45.4167 58.4495 45.4216C58.8329 45.3974 59.2169 45.457 59.5775 45.5965C59.9381 45.736 60.2674 45.9525 60.5448 46.2324Z" fill="white"/>
<path d="M74.1305 46.2324C74.4032 46.5602 74.6111 46.942 74.7419 47.3556C74.8728 47.7691 74.9239 48.206 74.8924 48.6406V52.8792H72.8733V49.0019C72.9067 48.537 72.7855 48.0744 72.5304 47.6934C72.4085 47.55 72.2575 47.4373 72.0887 47.3637C71.9199 47.29 71.7375 47.2573 71.5551 47.2679C71.3451 47.2566 71.1354 47.2939 70.9406 47.3771C70.7458 47.4603 70.5706 47.5874 70.4274 47.7496C70.1253 48.1611 69.9788 48.6759 70.0159 49.1946V52.8792H67.9891V49.0019C67.9891 47.8459 67.5548 47.2679 66.671 47.2679C66.4634 47.2579 66.2563 47.2958 66.0641 47.379C65.872 47.4622 65.6994 47.5887 65.5585 47.7496C65.2504 48.1581 65.1007 48.6744 65.1394 49.1946V52.8792H63.1202V45.534H65.048V46.3769C65.3101 46.0679 65.6359 45.8262 66.0004 45.6704C66.3954 45.5041 66.8171 45.4196 67.2424 45.4216C67.704 45.4148 68.1607 45.5221 68.5758 45.7347C68.9682 45.9319 69.3007 46.2405 69.5359 46.6257C69.822 46.24 70.1935 45.934 70.6179 45.7347C71.0656 45.5226 71.5518 45.4158 72.0427 45.4216C72.4249 45.3985 72.8075 45.4586 73.1667 45.5981C73.5259 45.7376 73.8539 45.9535 74.1305 46.2324Z" fill="white"/>
<path d="M83.7387 45.5259V52.8792H81.8186V51.9962C81.5532 52.3108 81.2255 52.5602 80.8585 52.7267C80.478 52.8967 80.068 52.9815 79.6547 52.9755C79.26 53.0028 78.8642 52.9458 78.491 52.8079C78.1179 52.6699 77.775 52.4539 77.4831 52.1728C77.1959 51.8419 76.976 51.4525 76.8371 51.0286C76.6982 50.6048 76.6432 50.1554 76.6754 49.7083V45.5581H78.7022V49.3952C78.7022 50.5753 79.167 51.1693 80.1118 51.1693C80.3286 51.1786 80.5447 51.1389 80.7458 51.0531C80.9468 50.9673 81.1281 50.8372 81.2776 50.6716C81.597 50.2528 81.7548 49.7225 81.7195 49.1865V45.5581L83.7387 45.5259Z" fill="white"/>
<path d="M91.9449 46.2324C92.2177 46.5602 92.4256 46.942 92.5564 47.3556C92.6872 47.7691 92.7384 48.206 92.7069 48.6406V52.8792H90.6877V49.0019C90.7221 48.5332 90.5919 48.0676 90.322 47.6934C90.188 47.5466 90.0251 47.4324 89.8448 47.3589C89.6645 47.2854 89.471 47.2544 89.2781 47.2679C89.0532 47.2573 88.8288 47.296 88.6189 47.3817C88.409 47.4674 88.2183 47.5981 88.059 47.7656C87.731 48.1768 87.5696 48.7073 87.6094 49.2427V52.8792H85.5827V45.534H87.518V46.3929C87.7945 46.0776 88.136 45.8331 88.5162 45.6785C88.9306 45.5049 89.3731 45.4177 89.8191 45.4216C90.2071 45.3982 90.5955 45.458 90.9609 45.5974C91.3263 45.7367 91.6611 45.9528 91.9449 46.2324Z" fill="white"/>
<path d="M94.6728 44.1613C94.5592 44.0565 94.469 43.9266 94.4084 43.781C94.3478 43.6353 94.3184 43.4773 94.3222 43.3184C94.3193 43.1583 94.3492 42.9995 94.4096 42.8527C94.4701 42.7059 94.5598 42.5745 94.6728 42.4674C94.9219 42.2352 95.2471 42.1142 95.5795 42.1303C95.909 42.1155 96.2321 42.2299 96.4862 42.4514C96.5949 42.5518 96.6823 42.6751 96.7427 42.8134C96.803 42.9517 96.8351 43.1019 96.8367 43.2541C96.8406 43.419 96.8113 43.5829 96.7509 43.7351C96.6905 43.8872 96.6003 44.0242 96.4862 44.1372C96.2303 44.3576 95.91 44.478 95.5795 44.478C95.249 44.478 94.9286 44.3576 94.6728 44.1372V44.1613ZM94.5661 45.5259H96.5853V52.8792H94.5661V45.5259Z" fill="white"/>
<path d="M99.816 52.4939C99.2426 52.1906 98.762 51.7232 98.4292 51.1452C98.0953 50.5561 97.9238 49.8806 97.9339 49.1946C97.9258 48.5087 98.0971 47.8338 98.4292 47.2439C98.7643 46.67 99.2445 46.2058 99.816 45.9033C100.437 45.5721 101.124 45.4041 101.82 45.4136C102.489 45.4002 103.151 45.5688 103.74 45.9033C104.277 46.2061 104.699 46.6934 104.936 47.284L103.412 48.1751C103.268 47.8673 103.044 47.609 102.767 47.4299C102.489 47.2509 102.168 47.1586 101.843 47.1636C101.601 47.1569 101.36 47.2018 101.135 47.2956C100.909 47.3894 100.704 47.5302 100.532 47.7095C100.355 47.9074 100.218 48.141 100.129 48.3962C100.04 48.6514 100.001 48.923 100.014 49.1946C100.002 49.4673 100.041 49.7399 100.13 49.9963C100.219 50.2527 100.356 50.4878 100.532 50.6877C100.704 50.8669 100.909 51.0077 101.135 51.1015C101.36 51.1953 101.601 51.2402 101.843 51.2336C102.169 51.2415 102.49 51.1504 102.769 50.971C103.047 50.7917 103.271 50.5317 103.412 50.2221L104.936 51.1212C104.691 51.7027 104.271 52.1825 103.74 52.4859C103.152 52.8241 102.49 52.993 101.82 52.9755C101.125 52.9875 100.437 52.8222 99.816 52.4939Z" fill="white"/>
<path d="M111.421 46.2324C111.721 46.5447 111.954 46.9214 112.104 47.3369C112.254 47.7524 112.317 48.1971 112.289 48.6406V52.8792H110.392V51.9641C110.161 52.3222 109.842 52.6068 109.468 52.7866C109.095 52.9664 108.681 53.0345 108.274 52.9836C107.794 52.9967 107.318 52.898 106.879 52.6946C106.51 52.5284 106.196 52.2486 105.98 51.8918C105.769 51.551 105.66 51.1509 105.668 50.7439C105.661 50.4311 105.727 50.1213 105.86 49.8415C105.992 49.5616 106.188 49.3202 106.43 49.1384C107.114 48.6938 107.914 48.4887 108.716 48.5523H110.316C110.328 48.3547 110.298 48.1567 110.23 47.9723C110.161 47.7878 110.055 47.6214 109.919 47.4847C109.575 47.2086 109.147 47.0744 108.716 47.1074C108.343 47.1085 107.973 47.1708 107.618 47.292C107.288 47.3987 106.978 47.5673 106.704 47.7897L105.942 46.3046C106.359 46.0076 106.82 45.7852 107.306 45.6464C107.84 45.4926 108.391 45.4143 108.944 45.4136C109.837 45.3546 110.72 45.6463 111.421 46.2324ZM109.721 51.2737C109.987 51.1064 110.187 50.8444 110.285 50.5351V49.7806H108.883C108.053 49.7806 107.634 50.0695 107.634 50.6395C107.632 50.7655 107.659 50.89 107.712 51.003C107.765 51.1159 107.843 51.2142 107.938 51.2897C108.186 51.4636 108.48 51.5481 108.777 51.5306C109.108 51.5388 109.435 51.4498 109.721 51.2737Z" fill="white"/>
<path d="M118.606 52.5099C118.378 52.6819 118.118 52.8022 117.844 52.8632C117.544 52.938 117.237 52.9757 116.929 52.9755C116.232 53.0224 115.544 52.7837 115.009 52.3092C114.77 52.0508 114.586 51.7418 114.469 51.4027C114.353 51.0636 114.305 50.7022 114.331 50.3425V47.3241H113.249V45.7186H114.331V43.9365H116.35V45.6544H118.103V47.2599H116.366V50.2542C116.35 50.5147 116.432 50.7713 116.594 50.9686C116.677 51.0564 116.778 51.124 116.888 51.167C116.999 51.21 117.117 51.2272 117.234 51.2175C117.528 51.2271 117.815 51.1308 118.049 50.9446L118.606 52.5099Z" fill="white"/>
<path d="M119.848 44.1613C119.736 44.0551 119.647 43.925 119.586 43.7797C119.526 43.6343 119.495 43.477 119.497 43.3184C119.496 43.1586 119.526 43.0003 119.587 42.8537C119.647 42.7071 119.736 42.5755 119.848 42.4674C120.106 42.2539 120.426 42.1379 120.754 42.1379C121.083 42.1379 121.402 42.2539 121.661 42.4674C121.771 42.5668 121.859 42.69 121.92 42.8285C121.98 42.967 122.011 43.1177 122.012 43.2702C122.017 43.4353 121.988 43.5996 121.928 43.752C121.867 43.9044 121.776 44.0413 121.661 44.1532C121.539 44.2712 121.396 44.3624 121.241 44.4217C121.085 44.4809 120.92 44.507 120.754 44.4984C120.422 44.5119 120.098 44.3913 119.848 44.1613ZM119.749 45.5259H121.768V52.8792H119.749V45.5259Z" fill="white"/>
<path d="M124.96 52.4939C124.395 52.1876 123.922 51.7204 123.597 51.1452C123.263 50.5561 123.091 49.8806 123.101 49.1946C123.093 48.5087 123.264 47.8338 123.597 47.2439C123.925 46.6731 124.397 46.2091 124.96 45.9033C125.573 45.5723 126.253 45.4042 126.941 45.4136C127.625 45.4042 128.3 45.5724 128.907 45.9033C129.48 46.2119 129.96 46.6815 130.294 47.2599C130.624 47.8505 130.793 48.5255 130.782 49.2106C130.795 49.896 130.626 50.5715 130.294 51.1613C129.966 51.7345 129.494 52.2012 128.93 52.5099C128.323 52.8384 127.647 53.0038 126.964 52.9916C126.268 53.0025 125.579 52.8315 124.96 52.4939ZM128.214 50.6797C128.539 50.262 128.717 49.7386 128.717 49.1986C128.717 48.6585 128.539 48.1351 128.214 47.7175C128.051 47.5355 127.854 47.392 127.634 47.2965C127.415 47.201 127.179 47.1557 126.941 47.1636C126.702 47.1565 126.464 47.2021 126.242 47.2975C126.02 47.3928 125.82 47.5359 125.654 47.7175C125.329 48.1351 125.151 48.6585 125.151 49.1986C125.151 49.7386 125.329 50.262 125.654 50.6797C125.82 50.8612 126.02 51.0043 126.242 51.0997C126.464 51.1951 126.702 51.2407 126.941 51.2336C127.183 51.2449 127.423 51.2013 127.647 51.1057C127.87 51.0101 128.071 50.8648 128.237 50.6797H128.214Z" fill="white"/>
<path d="M138.455 46.2324C138.73 46.5582 138.94 46.9397 139.071 47.3538C139.202 47.7679 139.252 48.2057 139.217 48.6406V52.8792H137.197V49.0019C137.232 48.5332 137.102 48.0676 136.832 47.6934C136.696 47.5472 136.531 47.4336 136.35 47.3602C136.168 47.2868 135.974 47.2553 135.78 47.2679C135.556 47.2574 135.333 47.2963 135.125 47.382C134.916 47.4677 134.727 47.5984 134.569 47.7656C134.238 48.1756 134.074 48.7062 134.111 49.2427V52.8792H132.092V45.534H134.02V46.3929C134.298 46.0793 134.639 45.8351 135.018 45.6785C135.435 45.5049 135.88 45.4177 136.329 45.4216C136.717 45.3968 137.106 45.4559 137.471 45.5954C137.837 45.7348 138.172 45.9516 138.455 46.2324Z" fill="white"/>
<path d="M141.723 52.7508C141.256 52.6378 140.809 52.4482 140.398 52.1888L141.076 50.6556C141.425 50.8862 141.805 51.0594 142.203 51.1693C142.624 51.2982 143.06 51.3658 143.499 51.37C144.352 51.37 144.779 51.1452 144.779 50.6957C144.779 50.487 144.665 50.3425 144.428 50.2462C144.079 50.1309 143.719 50.0529 143.354 50.0134C142.877 49.9468 142.406 49.8421 141.944 49.7003C141.577 49.5807 141.244 49.3653 140.977 49.0741C140.684 48.7203 140.536 48.2584 140.565 47.7897C140.56 47.3434 140.696 46.908 140.954 46.5535C141.247 46.1826 141.632 45.9047 142.066 45.7507C142.62 45.5362 143.206 45.4327 143.796 45.4457C144.291 45.4449 144.784 45.5042 145.267 45.6223C145.691 45.7088 146.1 45.8659 146.478 46.0879L145.8 47.6051C145.188 47.2425 144.498 47.0543 143.796 47.0592C143.461 47.0376 143.126 47.1038 142.821 47.2519C142.729 47.2938 142.651 47.3619 142.594 47.4485C142.538 47.535 142.505 47.6366 142.501 47.7416C142.499 47.8507 142.534 47.9569 142.597 48.043C142.661 48.129 142.75 48.1897 142.851 48.2152C143.212 48.3441 143.585 48.4329 143.964 48.4801C144.434 48.5555 144.9 48.6628 145.358 48.8012C145.72 48.9135 146.047 49.1271 146.303 49.4193C146.589 49.7641 146.734 50.2144 146.707 50.6716C146.712 51.1131 146.575 51.5434 146.318 51.8918C146.018 52.2654 145.625 52.5434 145.183 52.6946C144.614 52.8999 144.016 52.9978 143.415 52.9836C142.844 52.9834 142.275 52.9051 141.723 52.7508Z" fill="white"/>
<path d="M88.0971 18.2403C90.9925 15.6875 90.8173 13.3033 90.8173 11.0797C90.8375 10.7644 90.7966 10.4481 90.697 10.15C90.5975 9.85186 90.4413 9.57822 90.2382 9.34574C90.0357 9.14194 89.7966 8.98296 89.5349 8.87817C89.2731 8.77338 88.9941 8.72493 88.7143 8.73566C88.3684 8.72528 88.0258 8.80835 87.719 8.97697C87.4122 9.14559 87.1516 9.39414 86.9618 9.69896C86.4838 10.5873 86.3141 11.6232 86.4818 12.629H74.4734C74.487 10.0383 75.2881 7.52035 76.7592 5.44436C78.1661 3.55848 80.049 2.12843 82.1919 1.31818C84.5526 0.414999 87.0488 -0.0310037 89.56 0.00167393C94.3248 0.00167393 97.812 0.964986 100.022 2.8916C101.081 3.76844 101.933 4.89278 102.51 6.17587C103.086 7.45897 103.372 8.86568 103.344 10.285C103.344 13.4478 103.77 16.41 101.37 19.1795C98.8024 22.0843 95.7463 24.4631 92.3564 26.1956H105.15V34.6005H76.2639V26.7656C80.4085 24.2452 84.3644 21.3951 88.0971 18.2403Z" fill="#EFEF14"/>
<path d="M34.7222 11.8262L29.5867 34.6005H20.0089L17.403 21.7564L14.6448 34.6005H5.05938L0 11.8262H8.38149L10.1797 25.6818L12.9761 11.8262H22.0967L25.053 25.8424L26.8894 11.8262H34.7222Z" fill="white"/>
<path d="M37.2519 8.72761C36.8204 8.34109 36.4762 7.85808 36.2442 7.31372C36.0122 6.76937 35.8983 6.17735 35.9109 5.5808C35.8983 4.97488 36.0119 4.37341 36.2436 3.81867C36.4752 3.26393 36.8194 2.76937 37.2519 2.36977C38.245 1.48609 39.5196 1.03276 40.8179 1.10143C42.1041 1.03659 43.3655 1.49008 44.3457 2.36977C44.7782 2.76937 45.1224 3.26393 45.3541 3.81867C45.5858 4.37341 45.6993 4.97488 45.6867 5.5808C45.6993 6.17735 45.5854 6.76937 45.3535 7.31372C45.1215 7.85808 44.7772 8.34109 44.3457 8.72761C43.3598 9.5952 42.1011 10.042 40.8179 9.97991C39.5226 10.0459 38.2506 9.5992 37.2519 8.72761ZM45.0315 11.7941V34.5683H36.5281V11.8262L45.0315 11.7941Z" fill="white"/>
<path d="M69.8102 14.2907C71.2071 16.0407 71.903 18.4115 71.8979 21.4031V34.6005H63.4327V22.5591C63.4804 21.6245 63.1827 20.7067 62.6021 19.9983C62.0092 19.3917 61.2152 19.0524 60.3886 19.0524C59.5621 19.0524 58.7681 19.3917 58.1752 19.9983C57.6137 20.7164 57.3282 21.6301 57.3751 22.5591V34.6005H48.8641V11.8263H57.3751V15.3022C58.0504 14.2165 58.9621 13.3166 60.0343 12.6772C61.2494 11.9761 62.6192 11.6271 64.0041 11.6657C65.0979 11.607 66.1899 11.8131 67.1964 12.2681C68.2029 12.7232 69.097 13.415 69.8102 14.2907Z" fill="white"/>
<path d="M140.824 12.1393L135.689 34.9135H126.103L123.497 22.0694L120.739 34.9135H111.154L106.064 12.1393H114.491L116.289 25.9869L119.093 12.1393H128.176L131.125 26.1474L132.961 12.1393H140.824Z" fill="white"/>
<path d="M143.354 9.0728C142.921 8.68543 142.577 8.20113 142.345 7.65529C142.113 7.10945 141.999 6.51588 142.013 5.91798C141.997 5.31159 142.109 4.70907 142.341 4.15382C142.573 3.59857 142.919 3.10441 143.354 2.70696C144.343 1.82018 145.615 1.36376 146.912 1.43058C148.2 1.36632 149.462 1.82293 150.44 2.70696C150.873 3.10585 151.218 3.60028 151.45 4.15519C151.682 4.7101 151.795 5.3119 151.781 5.91798C151.795 6.51588 151.682 7.10945 151.45 7.65529C151.218 8.20113 150.873 8.68543 150.44 9.0728C149.456 9.94318 148.196 10.3904 146.912 10.3251C145.619 10.3922 144.349 9.94526 143.354 9.0728ZM151.134 12.1393V34.9135H142.623V12.1393H151.134Z" fill="white"/>
<path d="M175.905 14.6038C177.302 16.3538 178 18.7219 178 21.7082V34.9135H169.527V22.8722C169.575 21.9389 169.281 21.0218 168.704 20.3114C168.114 19.6991 167.319 19.3559 166.491 19.3559C165.662 19.3559 164.867 19.6991 164.277 20.3114C163.709 21.0259 163.42 21.9415 163.47 22.8722V34.9135H154.966V12.1393H163.47V15.6153C164.146 14.5276 165.061 13.6273 166.136 12.9903C167.349 12.2891 168.716 11.94 170.099 11.9788C171.193 11.9182 172.285 12.1235 173.292 12.5787C174.299 13.0338 175.193 13.7267 175.905 14.6038Z" fill="white"/>
</g>
<defs>
<clipPath id="clip0_1106_8885">
<rect width="178" height="53" fill="white"/>
</clipPath>
</defs>
</svg>
